<?xml version="1.0" encoding="UTF-8" standalone="no"?>
<!DOCTYPE svg PUBLIC "-//W3C//DTD SVG 1.1//EN"
 "http://www.w3.org/Graphics/SVG/1.1/DTD/svg11.dtd">
<!-- Generated by graphviz version 2.43.0 (0)
 -->
<!-- Title: src/ui/include/ui/AboutDialog.hpp Pages: 1 -->
<svg width="316pt" height="82pt"
 viewBox="0.00 0.00 315.50 82.00" xmlns="http://www.w3.org/2000/svg" xmlns:xlink="http://www.w3.org/1999/xlink">
<g id="graph0" class="graph" transform="scale(1 1) rotate(0) translate(4 78)">
<title>src/ui/include/ui/AboutDialog.hpp</title>
<!-- Node1 -->
<g id="Node000001" class="node">
<title>Node1</title>
<g id="a_Node000001"><a xlink:title=" ">
<polygon fill="#999999" stroke="#666666" points="241,-74 64,-74 64,-55 241,-55 241,-74"/>
<text text-anchor="middle" x="152.5" y="-62" font-family="Helvetica,sans-Serif" font-size="10.00">src/ui/include/ui/AboutDialog.hpp</text>
</a>
</g>
</g>
<!-- Node2 -->
<g id="Node000002" class="node">
<title>Node2</title>
<g id="a_Node000002"><a xlink:href="AboutDialog_8cpp.html" target="_top" xlink:title=" ">
<polygon fill="white" stroke="#666666" points="143,-19 0,-19 0,0 143,0 143,-19"/>
<text text-anchor="middle" x="71.5" y="-7" font-family="Helvetica,sans-Serif" font-size="10.00">src/ui/src/AboutDialog.cpp</text>
</a>
</g>
</g>
<!-- Node1&#45;&gt;Node2 -->
<g id="edge1_Node000001_Node000002" class="edge">
<title>Node1&#45;&gt;Node2</title>
<g id="a_edge1_Node000001_Node000002"><a xlink:title=" ">
<path fill="none" stroke="#63b8ff" d="M130.99,-49.42C116.29,-39.81 97.28,-27.37 84.75,-19.17"/>
<polygon fill="#63b8ff" stroke="#63b8ff" points="129.2,-52.44 139.49,-54.98 133.03,-46.58 129.2,-52.44"/>
</a>
</g>
</g>
<!-- Node3 -->
<g id="Node000003" class="node">
<title>Node3</title>
<g id="a_Node000003"><a xlink:href="MainWindow_8cpp.html" target="_top" xlink:title=" ">
<polygon fill="white" stroke="#666666" points="307.5,-19 161.5,-19 161.5,0 307.5,0 307.5,-19"/>
<text text-anchor="middle" x="234.5" y="-7" font-family="Helvetica,sans-Serif" font-size="10.00">src/ui/src/MainWindow.cpp</text>
</a>
</g>
</g>
<!-- Node1&#45;&gt;Node3 -->
<g id="edge2_Node000001_Node000003" class="edge">
<title>Node1&#45;&gt;Node3</title>
<g id="a_edge2_Node000001_Node000003"><a xlink:title=" ">
<path fill="none" stroke="#63b8ff" d="M174.28,-49.42C189.16,-39.81 208.41,-27.37 221.09,-19.17"/>
<polygon fill="#63b8ff" stroke="#63b8ff" points="172.17,-46.62 165.67,-54.98 175.97,-52.5 172.17,-46.62"/>
</a>
</g>
</g>
</g>
</svg>
