<?xml version="1.0" encoding="UTF-8" standalone="no"?>
<!DOCTYPE svg PUBLIC "-//W3C//DTD SVG 1.1//EN"
 "http://www.w3.org/Graphics/SVG/1.1/DTD/svg11.dtd">
<!-- Generated by graphviz version 2.43.0 (0)
 -->
<!-- Title: src/ui/src/AboutDialog.cpp Pages: 1 -->
<svg width="889pt" height="137pt"
 viewBox="0.00 0.00 888.50 137.00" xmlns="http://www.w3.org/2000/svg" xmlns:xlink="http://www.w3.org/1999/xlink">
<g id="graph0" class="graph" transform="scale(1 1) rotate(0) translate(4 133)">
<title>src/ui/src/AboutDialog.cpp</title>
<!-- Node1 -->
<g id="Node000001" class="node">
<title>Node1</title>
<g id="a_Node000001"><a xlink:title=" ">
<polygon fill="#999999" stroke="#666666" points="499.5,-129 356.5,-129 356.5,-110 499.5,-110 499.5,-129"/>
<text text-anchor="middle" x="428" y="-117" font-family="Helvetica,sans-Serif" font-size="10.00">src/ui/src/AboutDialog.cpp</text>
</a>
</g>
</g>
<!-- Node2 -->
<g id="Node000002" class="node">
<title>Node2</title>
<g id="a_Node000002"><a xlink:href="AboutDialog_8hpp.html" target="_top" xlink:title=" ">
<polygon fill="white" stroke="#666666" points="110,-74 0,-74 0,-55 110,-55 110,-74"/>
<text text-anchor="middle" x="55" y="-62" font-family="Helvetica,sans-Serif" font-size="10.00">ui/AboutDialog.hpp</text>
</a>
</g>
</g>
<!-- Node1&#45;&gt;Node2 -->
<g id="edge1_Node000001_Node000002" class="edge">
<title>Node1&#45;&gt;Node2</title>
<g id="a_edge1_Node000001_Node000002"><a xlink:title=" ">
<path fill="none" stroke="#63b8ff" d="M368.07,-109.98C300.26,-100.35 190.17,-84.71 120.23,-74.77"/>
<polygon fill="#63b8ff" stroke="#63b8ff" points="120.61,-71.29 110.22,-73.35 119.63,-78.22 120.61,-71.29"/>
</a>
</g>
</g>
<!-- Node4 -->
<g id="Node000004" class="node">
<title>Node4</title>
<g id="a_Node000004"><a xlink:title=" ">
<polygon fill="#e0e0e0" stroke="#999999" points="235.5,-74 128.5,-74 128.5,-55 235.5,-55 235.5,-74"/>
<text text-anchor="middle" x="182" y="-62" font-family="Helvetica,sans-Serif" font-size="10.00">QDialogButtonBox</text>
</a>
</g>
</g>
<!-- Node1&#45;&gt;Node4 -->
<g id="edge3_Node000001_Node000004" class="edge">
<title>Node1&#45;&gt;Node4</title>
<g id="a_edge3_Node000001_Node000004"><a xlink:title=" ">
<path fill="none" stroke="#63b8ff" d="M388.48,-109.98C345.83,-100.8 277.85,-86.15 231.64,-76.19"/>
<polygon fill="#63b8ff" stroke="#63b8ff" points="232.35,-72.77 221.83,-74.08 230.87,-79.61 232.35,-72.77"/>
</a>
</g>
</g>
<!-- Node5 -->
<g id="Node000005" class="node">
<title>Node5</title>
<g id="a_Node000005"><a xlink:title=" ">
<polygon fill="#e0e0e0" stroke="#999999" points="298.5,-74 253.5,-74 253.5,-55 298.5,-55 298.5,-74"/>
<text text-anchor="middle" x="276" y="-62" font-family="Helvetica,sans-Serif" font-size="10.00">QFont</text>
</a>
</g>
</g>
<!-- Node1&#45;&gt;Node5 -->
<g id="edge4_Node000001_Node000005" class="edge">
<title>Node1&#45;&gt;Node5</title>
<g id="a_edge4_Node000001_Node000005"><a xlink:title=" ">
<path fill="none" stroke="#63b8ff" d="M403.58,-109.98C377.75,-100.98 336.89,-86.73 308.39,-76.79"/>
<polygon fill="#63b8ff" stroke="#63b8ff" points="309.46,-73.46 298.87,-73.47 307.16,-80.07 309.46,-73.46"/>
</a>
</g>
</g>
<!-- Node6 -->
<g id="Node000006" class="node">
<title>Node6</title>
<g id="a_Node000006"><a xlink:title=" ">
<polygon fill="#e0e0e0" stroke="#999999" points="371.5,-74 316.5,-74 316.5,-55 371.5,-55 371.5,-74"/>
<text text-anchor="middle" x="344" y="-62" font-family="Helvetica,sans-Serif" font-size="10.00">QFrame</text>
</a>
</g>
</g>
<!-- Node1&#45;&gt;Node6 -->
<g id="edge5_Node000001_Node000006" class="edge">
<title>Node1&#45;&gt;Node6</title>
<g id="a_edge5_Node000001_Node000006"><a xlink:title=" ">
<path fill="none" stroke="#63b8ff" d="M414.5,-109.98C401.6,-101.84 381.9,-89.41 366.6,-79.76"/>
<polygon fill="#63b8ff" stroke="#63b8ff" points="368.07,-76.55 357.74,-74.17 364.33,-82.47 368.07,-76.55"/>
</a>
</g>
</g>
<!-- Node7 -->
<g id="Node000007" class="node">
<title>Node7</title>
<g id="a_Node000007"><a xlink:title=" ">
<polygon fill="#e0e0e0" stroke="#999999" points="466.5,-74 389.5,-74 389.5,-55 466.5,-55 466.5,-74"/>
<text text-anchor="middle" x="428" y="-62" font-family="Helvetica,sans-Serif" font-size="10.00">QGridLayout</text>
</a>
</g>
</g>
<!-- Node1&#45;&gt;Node7 -->
<g id="edge6_Node000001_Node000007" class="edge">
<title>Node1&#45;&gt;Node7</title>
<g id="a_edge6_Node000001_Node000007"><a xlink:title=" ">
<path fill="none" stroke="#63b8ff" d="M428,-109.75C428,-102.8 428,-92.85 428,-84.13"/>
<polygon fill="#63b8ff" stroke="#63b8ff" points="431.5,-84.09 428,-74.09 424.5,-84.09 431.5,-84.09"/>
</a>
</g>
</g>
<!-- Node8 -->
<g id="Node000008" class="node">
<title>Node8</title>
<g id="a_Node000008"><a xlink:title=" ">
<polygon fill="#e0e0e0" stroke="#999999" points="535,-74 485,-74 485,-55 535,-55 535,-74"/>
<text text-anchor="middle" x="510" y="-62" font-family="Helvetica,sans-Serif" font-size="10.00">QLabel</text>
</a>
</g>
</g>
<!-- Node1&#45;&gt;Node8 -->
<g id="edge7_Node000001_Node000008" class="edge">
<title>Node1&#45;&gt;Node8</title>
<g id="a_edge7_Node000001_Node000008"><a xlink:title=" ">
<path fill="none" stroke="#63b8ff" d="M441.17,-109.98C453.77,-101.84 473,-89.41 487.94,-79.76"/>
<polygon fill="#63b8ff" stroke="#63b8ff" points="490.09,-82.54 496.59,-74.17 486.29,-76.66 490.09,-82.54"/>
</a>
</g>
</g>
<!-- Node9 -->
<g id="Node000009" class="node">
<title>Node9</title>
<g id="a_Node000009"><a xlink:title=" ">
<polygon fill="#e0e0e0" stroke="#999999" points="636.5,-74 553.5,-74 553.5,-55 636.5,-55 636.5,-74"/>
<text text-anchor="middle" x="595" y="-62" font-family="Helvetica,sans-Serif" font-size="10.00">QVBoxLayout</text>
</a>
</g>
</g>
<!-- Node1&#45;&gt;Node9 -->
<g id="edge8_Node000001_Node000009" class="edge">
<title>Node1&#45;&gt;Node9</title>
<g id="a_edge8_Node000001_Node000009"><a xlink:title=" ">
<path fill="none" stroke="#63b8ff" d="M454.83,-109.98C482.87,-101.09 527.05,-87.07 558.3,-77.15"/>
<polygon fill="#63b8ff" stroke="#63b8ff" points="559.49,-80.44 567.96,-74.08 557.37,-73.77 559.49,-80.44"/>
</a>
</g>
</g>
<!-- Node10 -->
<g id="Node000010" class="node">
<title>Node10</title>
<g id="a_Node000010"><a xlink:title=" ">
<polygon fill="#e0e0e0" stroke="#999999" points="767.5,-74 654.5,-74 654.5,-55 767.5,-55 767.5,-74"/>
<text text-anchor="middle" x="711" y="-62" font-family="Helvetica,sans-Serif" font-size="10.00">app/Application.hpp</text>
</a>
</g>
</g>
<!-- Node1&#45;&gt;Node10 -->
<g id="edge9_Node000001_Node000010" class="edge">
<title>Node1&#45;&gt;Node10</title>
<g id="a_edge9_Node000001_Node000010"><a xlink:title=" ">
<path fill="none" stroke="#63b8ff" d="M473.47,-109.98C522.94,-100.72 602.05,-85.9 655.23,-75.94"/>
<polygon fill="#63b8ff" stroke="#63b8ff" points="655.99,-79.36 665.17,-74.08 654.7,-72.48 655.99,-79.36"/>
</a>
</g>
</g>
<!-- Node11 -->
<g id="Node000011" class="node">
<title>Node11</title>
<g id="a_Node000011"><a xlink:title=" ">
<polygon fill="#e0e0e0" stroke="#999999" points="880.5,-74 785.5,-74 785.5,-55 880.5,-55 880.5,-74"/>
<text text-anchor="middle" x="833" y="-62" font-family="Helvetica,sans-Serif" font-size="10.00">app/Version.hpp</text>
</a>
</g>
</g>
<!-- Node1&#45;&gt;Node11 -->
<g id="edge10_Node000001_Node000011" class="edge">
<title>Node1&#45;&gt;Node11</title>
<g id="a_edge10_Node000001_Node000011"><a xlink:title=" ">
<path fill="none" stroke="#63b8ff" d="M498.92,-109.96C567.21,-101.62 673.68,-88.32 775.23,-74.22"/>
<polygon fill="#63b8ff" stroke="#63b8ff" points="775.93,-77.66 785.35,-72.81 774.97,-70.72 775.93,-77.66"/>
</a>
</g>
</g>
<!-- Node3 -->
<g id="Node000003" class="node">
<title>Node3</title>
<g id="a_Node000003"><a xlink:title=" ">
<polygon fill="#e0e0e0" stroke="#999999" points="83,-19 27,-19 27,0 83,0 83,-19"/>
<text text-anchor="middle" x="55" y="-7" font-family="Helvetica,sans-Serif" font-size="10.00">QDialog</text>
</a>
</g>
</g>
<!-- Node2&#45;&gt;Node3 -->
<g id="edge2_Node000002_Node000003" class="edge">
<title>Node2&#45;&gt;Node3</title>
<g id="a_edge2_Node000002_Node000003"><a xlink:title=" ">
<path fill="none" stroke="#63b8ff" d="M55,-54.75C55,-47.8 55,-37.85 55,-29.13"/>
<polygon fill="#63b8ff" stroke="#63b8ff" points="58.5,-29.09 55,-19.09 51.5,-29.09 58.5,-29.09"/>
</a>
</g>
</g>
</g>
</svg>
