<?xml version="1.0" encoding="UTF-8" standalone="no"?>
<!DOCTYPE svg PUBLIC "-//W3C//DTD SVG 1.1//EN"
 "http://www.w3.org/Graphics/SVG/1.1/DTD/svg11.dtd">
<!-- Generated by graphviz version 2.43.0 (0)
 -->
<!-- Title: controllers::IViewController Pages: 1 -->
<svg width="330pt" height="203pt"
 viewBox="0.00 0.00 330.00 203.00" xmlns="http://www.w3.org/2000/svg" xmlns:xlink="http://www.w3.org/1999/xlink">

<svg id="main" version="1.1" xmlns="http://www.w3.org/2000/svg" xmlns:xlink="http://www.w3.org/1999/xlink" xml:space="preserve" onload="init(evt)">
<style type="text/css"><![CDATA[
.node, .edge {opacity: 0.7;}
.node.selected, .edge.selected {opacity: 1;}
.edge:hover path { stroke: red; }
.edge:hover polygon { stroke: red; fill: red; }
]]></style>
<script type="application/ecmascript" xlink:href="svg.min.js"/>
<svg id="graph" class="graph">
<g id="graph0" class="graph" transform="scale(1 1) rotate(0) translate(4 199)">
<title>controllers::IViewController</title>
<!-- Node1 -->
<g id="Node000001" class="node">
<title>Node1</title>
<g id="a_Node000001"><a xlink:title="Abstract base for view controllers that manage DICOM slice and sphere rendering.">
<polygon fill="#999999" stroke="#666666" points="228.5,-85 79.5,-85 79.5,-66 228.5,-66 228.5,-85"/>
<text text-anchor="middle" x="154" y="-73" font-family="Helvetica,sans-Serif" font-size="10.00">controllers::IViewController</text>
</a>
</g>
</g>
<!-- Node4 -->
<g id="Node000004" class="node">
<title>Node4</title>
<g id="a_Node000004"><a xlink:href="classcontrollers_1_1MultiWindowController.html" target="_top" xlink:title="View controller that uses one render window per DICOM plane.">
<polygon fill="white" stroke="#666666" points="138,-30 0,-30 0,0 138,0 138,-30"/>
<text text-anchor="start" x="8" y="-18" font-family="Helvetica,sans-Serif" font-size="10.00">controllers::MultiWindow</text>
<text text-anchor="middle" x="69" y="-7" font-family="Helvetica,sans-Serif" font-size="10.00">Controller</text>
</a>
</g>
</g>
<!-- Node1&#45;&gt;Node4 -->
<g id="edge3_Node000001_Node000004" class="edge">
<title>Node1&#45;&gt;Node4</title>
<g id="a_edge3_Node000001_Node000004"><a xlink:title=" ">
<path fill="none" stroke="#63b8ff" d="M132.98,-60.03C119.71,-50.9 102.67,-39.17 89.51,-30.11"/>
<polygon fill="#63b8ff" stroke="#63b8ff" points="131.24,-63.08 141.46,-65.87 135.2,-57.32 131.24,-63.08"/>
</a>
</g>
</g>
<!-- Node5 -->
<g id="Node000005" class="node">
<title>Node5</title>
<g id="a_Node000005"><a xlink:href="classcontrollers_1_1ViewportController.html" target="_top" xlink:title="View controller that displays three DICOM planes in a single render window.">
<polygon fill="white" stroke="#666666" points="322,-24.5 156,-24.5 156,-5.5 322,-5.5 322,-24.5"/>
<text text-anchor="middle" x="239" y="-12.5" font-family="Helvetica,sans-Serif" font-size="10.00">controllers::ViewportController</text>
</a>
</g>
</g>
<!-- Node1&#45;&gt;Node5 -->
<g id="edge4_Node000001_Node000005" class="edge">
<title>Node1&#45;&gt;Node5</title>
<g id="a_edge4_Node000001_Node000005"><a xlink:title=" ">
<path fill="none" stroke="#63b8ff" d="M174.84,-60.16C190.99,-49.05 212.83,-34.01 226.41,-24.67"/>
<polygon fill="#63b8ff" stroke="#63b8ff" points="172.8,-57.32 166.54,-65.87 176.76,-63.08 172.8,-57.32"/>
</a>
</g>
</g>
<!-- Node2 -->
<g id="Node000002" class="node">
<title>Node2</title>
<g id="a_Node000002"><a xlink:href="classcontrollers_1_1IControllerBase.html" target="_top" xlink:title="Minimal QObject base shared by all controllers.">
<polygon fill="white" stroke="#666666" points="228.5,-140 79.5,-140 79.5,-121 228.5,-121 228.5,-140"/>
<text text-anchor="middle" x="154" y="-128" font-family="Helvetica,sans-Serif" font-size="10.00">controllers::IControllerBase</text>
</a>
</g>
</g>
<!-- Node2&#45;&gt;Node1 -->
<g id="edge1_Node000001_Node000002" class="edge">
<title>Node2&#45;&gt;Node1</title>
<g id="a_edge1_Node000001_Node000002"><a xlink:title=" ">
<path fill="none" stroke="#63b8ff" d="M154,-110.66C154,-101.93 154,-91.99 154,-85.09"/>
<polygon fill="#63b8ff" stroke="#63b8ff" points="150.5,-110.75 154,-120.75 157.5,-110.75 150.5,-110.75"/>
</a>
</g>
</g>
<!-- Node3 -->
<g id="Node000003" class="node">
<title>Node3</title>
<g id="a_Node000003"><a xlink:title=" ">
<polygon fill="white" stroke="#666666" points="182,-195 126,-195 126,-176 182,-176 182,-195"/>
<text text-anchor="middle" x="154" y="-183" font-family="Helvetica,sans-Serif" font-size="10.00">QObject</text>
</a>
</g>
</g>
<!-- Node3&#45;&gt;Node2 -->
<g id="edge2_Node000002_Node000003" class="edge">
<title>Node3&#45;&gt;Node2</title>
<g id="a_edge2_Node000002_Node000003"><a xlink:title=" ">
<path fill="none" stroke="#63b8ff" d="M154,-165.66C154,-156.93 154,-146.99 154,-140.09"/>
<polygon fill="#63b8ff" stroke="#63b8ff" points="150.5,-165.75 154,-175.75 157.5,-165.75 150.5,-165.75"/>
</a>
</g>
</g>
</g>
</svg>
</svg>

<style type='text/css'>
<![CDATA[
[data-mouse-over-selected='false'] { opacity: 0.7; }
[data-mouse-over-selected='true']  { opacity: 1.0; }
]]>
</style>
<script type="application/ecmascript"><![CDATA[
document.addEventListener('DOMContentLoaded', (event) => {
  highlightEdges();
  highlightAdjacentNodes();
});
]]></script>
</svg>
