<?xml version="1.0" encoding="UTF-8" standalone="no"?>
<!DOCTYPE svg PUBLIC "-//W3C//DTD SVG 1.1//EN"
 "http://www.w3.org/Graphics/SVG/1.1/DTD/svg11.dtd">
<!-- Generated by graphviz version 2.43.0 (0)
 -->
<!-- Title: controllers::IControllerBase Pages: 1 -->
<svg width="643pt" height="138pt"
 viewBox="0.00 0.00 643.00 138.00" xmlns="http://www.w3.org/2000/svg" xmlns:xlink="http://www.w3.org/1999/xlink">
<g id="graph0" class="graph" transform="scale(1 1) rotate(0) translate(4 134)">
<title>controllers::IControllerBase</title>
<!-- Node1 -->
<g id="Node000001" class="node">
<title>Node1</title>
<g id="a_Node000001"><a xlink:title="Minimal QObject base shared by all controllers.">
<polygon fill="#999999" stroke="#666666" points="241,-74 92,-74 92,-55 241,-55 241,-74"/>
<text text-anchor="middle" x="166.5" y="-62" font-family="Helvetica,sans-Serif" font-size="10.00">controllers::IControllerBase</text>
</a>
</g>
</g>
<!-- Node3 -->
<g id="Node000003" class="node">
<title>Node3</title>
<g id="a_Node000003"><a xlink:href="classcontrollers_1_1DicomController.html" target="_top" xlink:title="Scans a directory for DICOM series and loads them asynchronously.">
<polygon fill="white" stroke="#666666" points="432,-130 278,-130 278,-111 432,-111 432,-130"/>
<text text-anchor="middle" x="355" y="-118" font-family="Helvetica,sans-Serif" font-size="10.00">controllers::DicomController</text>
</a>
</g>
</g>
<!-- Node1&#45;&gt;Node3 -->
<g id="edge2_Node000001_Node000003" class="edge">
<title>Node1&#45;&gt;Node3</title>
<g id="a_edge2_Node000001_Node000003"><a xlink:title=" ">
<path fill="none" stroke="#63b8ff" d="M202.11,-77.55C223.51,-85.36 251.64,-95.16 277,-102.5 287.42,-105.52 298.74,-108.39 309.41,-110.91"/>
<polygon fill="#63b8ff" stroke="#63b8ff" points="203.08,-74.18 192.49,-74.01 200.66,-80.75 203.08,-74.18"/>
</a>
</g>
</g>
<!-- Node4 -->
<g id="Node000004" class="node">
<title>Node4</title>
<g id="a_Node000004"><a xlink:href="classcontrollers_1_1IViewController.html" target="_top" xlink:title="Abstract base for view controllers that manage DICOM slice and sphere rendering.">
<polygon fill="white" stroke="#666666" points="429.5,-93 280.5,-93 280.5,-74 429.5,-74 429.5,-93"/>
<text text-anchor="middle" x="355" y="-81" font-family="Helvetica,sans-Serif" font-size="10.00">controllers::IViewController</text>
</a>
</g>
</g>
<!-- Node1&#45;&gt;Node4 -->
<g id="edge3_Node000001_Node000004" class="edge">
<title>Node1&#45;&gt;Node4</title>
<g id="a_edge3_Node000001_Node000004"><a xlink:title=" ">
<path fill="none" stroke="#63b8ff" d="M251.22,-73.03C260.89,-74.01 270.69,-75.01 280.21,-75.98"/>
<polygon fill="#63b8ff" stroke="#63b8ff" points="251.51,-69.54 241.21,-72.01 250.8,-76.5 251.51,-69.54"/>
</a>
</g>
</g>
<!-- Node7 -->
<g id="Node000007" class="node">
<title>Node7</title>
<g id="a_Node000007"><a xlink:href="classcontrollers_1_1SliceController.html" target="_top" xlink:title="Manages up to three vtkResliceImageViewer instances for orthogonal slice display.">
<polygon fill="white" stroke="#666666" points="428,-56 282,-56 282,-37 428,-37 428,-56"/>
<text text-anchor="middle" x="355" y="-44" font-family="Helvetica,sans-Serif" font-size="10.00">controllers::SliceController</text>
</a>
</g>
</g>
<!-- Node1&#45;&gt;Node7 -->
<g id="edge6_Node000001_Node000007" class="edge">
<title>Node1&#45;&gt;Node7</title>
<g id="a_edge6_Node000001_Node000007"><a xlink:title=" ">
<path fill="none" stroke="#63b8ff" d="M251.3,-56.41C261.46,-55.43 271.77,-54.44 281.74,-53.47"/>
<polygon fill="#63b8ff" stroke="#63b8ff" points="250.83,-52.94 241.21,-57.39 251.5,-59.91 250.83,-52.94"/>
</a>
</g>
</g>
<!-- Node8 -->
<g id="Node000008" class="node">
<title>Node8</title>
<g id="a_Node000008"><a xlink:href="classcontrollers_1_1SphereController.html" target="_top" xlink:title="Draggable sphere actor that works in both viewport and multi&#45;window modes.">
<polygon fill="white" stroke="#666666" points="433,-19 277,-19 277,0 433,0 433,-19"/>
<text text-anchor="middle" x="355" y="-7" font-family="Helvetica,sans-Serif" font-size="10.00">controllers::SphereController</text>
</a>
</g>
</g>
<!-- Node1&#45;&gt;Node8 -->
<g id="edge7_Node000001_Node000008" class="edge">
<title>Node1&#45;&gt;Node8</title>
<g id="a_edge7_Node000001_Node000008"><a xlink:title=" ">
<path fill="none" stroke="#63b8ff" d="M202.99,-51.54C224.29,-44.01 252.01,-34.62 277,-27.5 287.56,-24.49 299.04,-21.6 309.84,-19.06"/>
<polygon fill="#63b8ff" stroke="#63b8ff" points="201.63,-48.31 193.39,-54.97 203.98,-54.9 201.63,-48.31"/>
</a>
</g>
</g>
<!-- Node2 -->
<g id="Node000002" class="node">
<title>Node2</title>
<g id="a_Node000002"><a xlink:title=" ">
<polygon fill="white" stroke="#666666" points="56,-74 0,-74 0,-55 56,-55 56,-74"/>
<text text-anchor="middle" x="28" y="-62" font-family="Helvetica,sans-Serif" font-size="10.00">QObject</text>
</a>
</g>
</g>
<!-- Node2&#45;&gt;Node1 -->
<g id="edge1_Node000001_Node000002" class="edge">
<title>Node2&#45;&gt;Node1</title>
<g id="a_edge1_Node000001_Node000002"><a xlink:title=" ">
<path fill="none" stroke="#63b8ff" d="M66.34,-64.5C74.33,-64.5 83.04,-64.5 91.87,-64.5"/>
<polygon fill="#63b8ff" stroke="#63b8ff" points="66.29,-61 56.29,-64.5 66.29,-68 66.29,-61"/>
</a>
</g>
</g>
<!-- Node5 -->
<g id="Node000005" class="node">
<title>Node5</title>
<g id="a_Node000005"><a xlink:href="classcontrollers_1_1MultiWindowController.html" target="_top" xlink:title="View controller that uses one render window per DICOM plane.">
<polygon fill="white" stroke="#666666" points="621,-119.5 483,-119.5 483,-89.5 621,-89.5 621,-119.5"/>
<text text-anchor="start" x="491" y="-107.5" font-family="Helvetica,sans-Serif" font-size="10.00">controllers::MultiWindow</text>
<text text-anchor="middle" x="552" y="-96.5" font-family="Helvetica,sans-Serif" font-size="10.00">Controller</text>
</a>
</g>
</g>
<!-- Node4&#45;&gt;Node5 -->
<g id="edge4_Node000004_Node000005" class="edge">
<title>Node4&#45;&gt;Node5</title>
<g id="a_edge4_Node000004_Node000005"><a xlink:title=" ">
<path fill="none" stroke="#63b8ff" d="M440.06,-92.55C454.39,-94.1 469.11,-95.68 482.96,-97.17"/>
<polygon fill="#63b8ff" stroke="#63b8ff" points="440.04,-89.03 429.72,-91.44 439.29,-95.99 440.04,-89.03"/>
</a>
</g>
</g>
<!-- Node6 -->
<g id="Node000006" class="node">
<title>Node6</title>
<g id="a_Node000006"><a xlink:href="classcontrollers_1_1ViewportController.html" target="_top" xlink:title="View controller that displays three DICOM planes in a single render window.">
<polygon fill="white" stroke="#666666" points="635,-71 469,-71 469,-52 635,-52 635,-71"/>
<text text-anchor="middle" x="552" y="-59" font-family="Helvetica,sans-Serif" font-size="10.00">controllers::ViewportController</text>
</a>
</g>
</g>
<!-- Node4&#45;&gt;Node6 -->
<g id="edge5_Node000004_Node000006" class="edge">
<title>Node4&#45;&gt;Node6</title>
<g id="a_edge5_Node000004_Node000006"><a xlink:title=" ">
<path fill="none" stroke="#63b8ff" d="M439.66,-74.06C449.28,-72.98 459.09,-71.87 468.69,-70.79"/>
<polygon fill="#63b8ff" stroke="#63b8ff" points="439.27,-70.58 429.72,-75.18 440.05,-77.54 439.27,-70.58"/>
</a>
</g>
</g>
</g>
</svg>
