<?xml version="1.0" encoding="UTF-8" standalone="no"?>
<!DOCTYPE svg PUBLIC "-//W3C//DTD SVG 1.1//EN"
 "http://www.w3.org/Graphics/SVG/1.1/DTD/svg11.dtd">
<!-- Generated by graphviz version 2.43.0 (0)
 -->
<!-- Title: qvv::ViewportManager::Impl::OnRenderEnd Pages: 1 -->
<svg width="526pt" height="38pt"
 viewBox="0.00 0.00 526.00 38.00" xmlns="http://www.w3.org/2000/svg" xmlns:xlink="http://www.w3.org/1999/xlink">
<g id="graph0" class="graph" transform="scale(1 1) rotate(0) translate(4 34)">
<title>qvv::ViewportManager::Impl::OnRenderEnd</title>
<!-- Node1 -->
<g id="Node000001" class="node">
<title>Node1</title>
<g id="a_Node000001"><a xlink:title=" ">
<polygon fill="#999999" stroke="#666666" points="518,-30 392,-30 392,0 518,0 518,-30"/>
<text text-anchor="start" x="400" y="-18" font-family="Helvetica,sans-Serif" font-size="10.00">qvv::ViewportManager</text>
<text text-anchor="middle" x="455" y="-7" font-family="Helvetica,sans-Serif" font-size="10.00">::Impl::OnRenderEnd</text>
</a>
</g>
</g>
<!-- Node2 -->
<g id="Node000002" class="node">
<title>Node2</title>
<g id="a_Node000002"><a xlink:href="classqvv_1_1ViewportManager_1_1Impl.html#a589d2b18e2b826f74c2d4011323d2dc3" target="_top" xlink:title=" ">
<polygon fill="white" stroke="#666666" points="356,-30 193,-30 193,0 356,0 356,-30"/>
<text text-anchor="start" x="201" y="-18" font-family="Helvetica,sans-Serif" font-size="10.00">qvv::ViewportManager</text>
<text text-anchor="middle" x="274.5" y="-7" font-family="Helvetica,sans-Serif" font-size="10.00">::Impl::AttachTimingCallbacks</text>
</a>
</g>
</g>
<!-- Node1&#45;&gt;Node2 -->
<g id="edge1_Node000001_Node000002" class="edge">
<title>Node1&#45;&gt;Node2</title>
<g id="a_edge1_Node000001_Node000002"><a xlink:title=" ">
<path fill="none" stroke="#63b8ff" d="M381.73,-15C373.35,-15 364.77,-15 356.3,-15"/>
<polygon fill="#63b8ff" stroke="#63b8ff" points="381.82,-18.5 391.82,-15 381.82,-11.5 381.82,-18.5"/>
</a>
</g>
</g>
<!-- Node3 -->
<g id="Node000003" class="node">
<title>Node3</title>
<g id="a_Node000003"><a xlink:href="classqvv_1_1ViewportManager_1_1Impl.html#a70864c75b06dd6abaef99213fc07b6f6" target="_top" xlink:title=" ">
<polygon fill="white" stroke="#666666" points="157,-30 0,-30 0,0 157,0 157,-30"/>
<text text-anchor="start" x="8" y="-18" font-family="Helvetica,sans-Serif" font-size="10.00">qvv::ViewportManager</text>
<text text-anchor="middle" x="78.5" y="-7" font-family="Helvetica,sans-Serif" font-size="10.00">::Impl::EnsureRenderWindow</text>
</a>
</g>
</g>
<!-- Node2&#45;&gt;Node3 -->
<g id="edge2_Node000002_Node000003" class="edge">
<title>Node2&#45;&gt;Node3</title>
<g id="a_edge2_Node000002_Node000003"><a xlink:title=" ">
<path fill="none" stroke="#63b8ff" d="M182.83,-15C174.21,-15 165.52,-15 157.03,-15"/>
<polygon fill="#63b8ff" stroke="#63b8ff" points="182.91,-18.5 192.91,-15 182.91,-11.5 182.91,-18.5"/>
</a>
</g>
</g>
</g>
</svg>
