<?xml version="1.0" encoding="UTF-8" standalone="no"?>
<!DOCTYPE svg PUBLIC "-//W3C//DTD SVG 1.1//EN"
 "http://www.w3.org/Graphics/SVG/1.1/DTD/svg11.dtd">
<!-- Generated by graphviz version 2.43.0 (0)
 -->
<!-- Title: qvv::ViewportManager::Impl::EnsureRenderWindow Pages: 1 -->
<svg width="526pt" height="86pt"
 viewBox="0.00 0.00 526.00 86.00" xmlns="http://www.w3.org/2000/svg" xmlns:xlink="http://www.w3.org/1999/xlink">
<g id="graph0" class="graph" transform="scale(1 1) rotate(0) translate(4 82)">
<title>qvv::ViewportManager::Impl::EnsureRenderWindow</title>
<!-- Node1 -->
<g id="Node000001" class="node">
<title>Node1</title>
<g id="a_Node000001"><a xlink:title=" ">
<polygon fill="#999999" stroke="#666666" points="157,-54 0,-54 0,-24 157,-24 157,-54"/>
<text text-anchor="start" x="8" y="-42" font-family="Helvetica,sans-Serif" font-size="10.00">qvv::ViewportManager</text>
<text text-anchor="middle" x="78.5" y="-31" font-family="Helvetica,sans-Serif" font-size="10.00">::Impl::EnsureRenderWindow</text>
</a>
</g>
</g>
<!-- Node2 -->
<g id="Node000002" class="node">
<title>Node2</title>
<g id="a_Node000002"><a xlink:href="classqvv_1_1ViewportManager_1_1Impl.html#a589d2b18e2b826f74c2d4011323d2dc3" target="_top" xlink:title=" ">
<polygon fill="white" stroke="#666666" points="356,-54 193,-54 193,-24 356,-24 356,-54"/>
<text text-anchor="start" x="201" y="-42" font-family="Helvetica,sans-Serif" font-size="10.00">qvv::ViewportManager</text>
<text text-anchor="middle" x="274.5" y="-31" font-family="Helvetica,sans-Serif" font-size="10.00">::Impl::AttachTimingCallbacks</text>
</a>
</g>
</g>
<!-- Node1&#45;&gt;Node2 -->
<g id="edge1_Node000001_Node000002" class="edge">
<title>Node1&#45;&gt;Node2</title>
<g id="a_edge1_Node000001_Node000002"><a xlink:title=" ">
<path fill="none" stroke="#63b8ff" d="M157.01,-39C165.51,-39 174.21,-39 182.85,-39"/>
<polygon fill="#63b8ff" stroke="#63b8ff" points="182.94,-42.5 192.94,-39 182.94,-35.5 182.94,-42.5"/>
</a>
</g>
</g>
<!-- Node3 -->
<g id="Node000003" class="node">
<title>Node3</title>
<g id="a_Node000003"><a xlink:href="classqvv_1_1ViewportManager_1_1Impl.html#ae3c14ea967a9c916500f73e3bdbc0d37" target="_top" xlink:title=" ">
<polygon fill="white" stroke="#666666" points="518,-78 392,-78 392,-48 518,-48 518,-78"/>
<text text-anchor="start" x="400" y="-66" font-family="Helvetica,sans-Serif" font-size="10.00">qvv::ViewportManager</text>
<text text-anchor="middle" x="455" y="-55" font-family="Helvetica,sans-Serif" font-size="10.00">::Impl::OnRenderEnd</text>
</a>
</g>
</g>
<!-- Node2&#45;&gt;Node3 -->
<g id="edge2_Node000002_Node000003" class="edge">
<title>Node2&#45;&gt;Node3</title>
<g id="a_edge2_Node000002_Node000003"><a xlink:title=" ">
<path fill="none" stroke="#63b8ff" d="M356.13,-49.84C364.67,-50.99 373.32,-52.15 381.75,-53.29"/>
<polygon fill="#63b8ff" stroke="#63b8ff" points="381.54,-56.79 391.91,-54.65 382.47,-49.85 381.54,-56.79"/>
</a>
</g>
</g>
<!-- Node4 -->
<g id="Node000004" class="node">
<title>Node4</title>
<g id="a_Node000004"><a xlink:href="classqvv_1_1ViewportManager_1_1Impl.html#ac099cea7dbb85b86b266be847b64a79c" target="_top" xlink:title=" ">
<polygon fill="white" stroke="#666666" points="518,-30 392,-30 392,0 518,0 518,-30"/>
<text text-anchor="start" x="400" y="-18" font-family="Helvetica,sans-Serif" font-size="10.00">qvv::ViewportManager</text>
<text text-anchor="middle" x="455" y="-7" font-family="Helvetica,sans-Serif" font-size="10.00">::Impl::OnRenderStart</text>
</a>
</g>
</g>
<!-- Node2&#45;&gt;Node4 -->
<g id="edge3_Node000002_Node000004" class="edge">
<title>Node2&#45;&gt;Node4</title>
<g id="a_edge3_Node000002_Node000004"><a xlink:title=" ">
<path fill="none" stroke="#63b8ff" d="M356.13,-28.16C364.67,-27.01 373.32,-25.85 381.75,-24.71"/>
<polygon fill="#63b8ff" stroke="#63b8ff" points="382.47,-28.15 391.91,-23.35 381.54,-21.21 382.47,-28.15"/>
</a>
</g>
</g>
</g>
</svg>
