<?xml version="1.0" encoding="UTF-8" standalone="no"?>
<!DOCTYPE svg PUBLIC "-//W3C//DTD SVG 1.1//EN"
 "http://www.w3.org/Graphics/SVG/1.1/DTD/svg11.dtd">
<!-- Generated by graphviz version 2.43.0 (0)
 -->
<!-- Title: overlays::CornerAnnotationOverlay Pages: 1 -->
<svg width="192pt" height="93pt"
 viewBox="0.00 0.00 191.50 93.00" xmlns="http://www.w3.org/2000/svg" xmlns:xlink="http://www.w3.org/1999/xlink">
<g id="graph0" class="graph" transform="scale(1 1) rotate(0) translate(4 89)">
<title>overlays::CornerAnnotationOverlay</title>
<!-- Node1 -->
<g id="Node000001" class="node">
<title>Node1</title>
<g id="a_Node000001"><a xlink:title="Slice&#45;metadata annotation overlay rendered as a child widget on a QVTKOpenGLNativeWidget.">
<polygon fill="#999999" stroke="#666666" points="154.5,-30 4.5,-30 4.5,0 154.5,0 154.5,-30"/>
<text text-anchor="start" x="12.5" y="-18" font-family="Helvetica,sans-Serif" font-size="10.00">overlays::CornerAnnotation</text>
<text text-anchor="middle" x="79.5" y="-7" font-family="Helvetica,sans-Serif" font-size="10.00">Overlay</text>
</a>
</g>
</g>
<!-- Node2 -->
<g id="Node000002" class="node">
<title>Node2</title>
<g id="a_Node000002"><a xlink:title=" ">
<polygon fill="white" stroke="#666666" points="59,-85 0,-85 0,-66 59,-66 59,-85"/>
<text text-anchor="middle" x="29.5" y="-73" font-family="Helvetica,sans-Serif" font-size="10.00">QWidget</text>
</a>
</g>
</g>
<!-- Node2&#45;&gt;Node1 -->
<g id="edge1_Node000001_Node000002" class="edge">
<title>Node2&#45;&gt;Node1</title>
<g id="a_edge1_Node000001_Node000002"><a xlink:title=" ">
<path fill="none" stroke="#63b8ff" d="M43.47,-58.15C51.01,-49.34 60.22,-38.56 67.44,-30.11"/>
<polygon fill="#63b8ff" stroke="#63b8ff" points="40.71,-55.99 36.88,-65.87 46.04,-60.54 40.71,-55.99"/>
</a>
</g>
</g>
<!-- Node3 -->
<g id="Node000003" class="node">
<title>Node3</title>
<g id="a_Node000003"><a xlink:href="classoverlays_1_1IOverlay.html" target="_top" xlink:title=" ">
<polygon fill="white" stroke="#666666" points="183.5,-85 77.5,-85 77.5,-66 183.5,-66 183.5,-85"/>
<text text-anchor="middle" x="130.5" y="-73" font-family="Helvetica,sans-Serif" font-size="10.00">overlays::IOverlay</text>
</a>
</g>
</g>
<!-- Node3&#45;&gt;Node1 -->
<g id="edge2_Node000001_Node000003" class="edge">
<title>Node3&#45;&gt;Node1</title>
<g id="a_edge2_Node000001_Node000003"><a xlink:title=" ">
<path fill="none" stroke="#63b8ff" d="M116.25,-58.15C108.56,-49.34 99.17,-38.56 91.81,-30.11"/>
<polygon fill="#63b8ff" stroke="#63b8ff" points="113.77,-60.63 122.97,-65.87 119.04,-56.03 113.77,-60.63"/>
</a>
</g>
</g>
</g>
</svg>
