<?xml version="1.0" encoding="UTF-8" standalone="no"?>
<!DOCTYPE svg PUBLIC "-//W3C//DTD SVG 1.1//EN"
 "http://www.w3.org/Graphics/SVG/1.1/DTD/svg11.dtd">
<!-- Generated by graphviz version 2.43.0 (0)
 -->
<!-- Title: controllers::SliceController::SetImageData Pages: 1 -->
<svg width="509pt" height="38pt"
 viewBox="0.00 0.00 509.00 38.00" xmlns="http://www.w3.org/2000/svg" xmlns:xlink="http://www.w3.org/1999/xlink">
<g id="graph0" class="graph" transform="scale(1 1) rotate(0) translate(4 34)">
<title>controllers::SliceController::SetImageData</title>
<!-- Node1 -->
<g id="Node000001" class="node">
<title>Node1</title>
<g id="a_Node000001"><a xlink:title="Pushes image into the reslice pipeline and requests a render.">
<polygon fill="#999999" stroke="#666666" points="146,-30 0,-30 0,0 146,0 146,-30"/>
<text text-anchor="start" x="8" y="-18" font-family="Helvetica,sans-Serif" font-size="10.00">controllers::SliceController</text>
<text text-anchor="middle" x="73" y="-7" font-family="Helvetica,sans-Serif" font-size="10.00">::SetImageData</text>
</a>
</g>
</g>
<!-- Node2 -->
<g id="Node000002" class="node">
<title>Node2</title>
<g id="a_Node000002"><a xlink:href="classcontrollers_1_1SliceController.html#aa16d11e88ecc06d76ba4b3f832cc98c4" target="_top" xlink:title="Request a render for all registered RIV windows via the scheduler.">
<polygon fill="white" stroke="#666666" points="328,-30 182,-30 182,0 328,0 328,-30"/>
<text text-anchor="start" x="190" y="-18" font-family="Helvetica,sans-Serif" font-size="10.00">controllers::SliceController</text>
<text text-anchor="middle" x="255" y="-7" font-family="Helvetica,sans-Serif" font-size="10.00">::RequestRenderAll</text>
</a>
</g>
</g>
<!-- Node1&#45;&gt;Node2 -->
<g id="edge1_Node000001_Node000002" class="edge">
<title>Node1&#45;&gt;Node2</title>
<g id="a_edge1_Node000001_Node000002"><a xlink:title=" ">
<path fill="none" stroke="#63b8ff" d="M146.18,-15C154.52,-15 163.08,-15 171.54,-15"/>
<polygon fill="#63b8ff" stroke="#63b8ff" points="171.81,-18.5 181.81,-15 171.81,-11.5 171.81,-18.5"/>
</a>
</g>
</g>
<!-- Node3 -->
<g id="Node000003" class="node">
<title>Node3</title>
<g id="a_Node000003"><a xlink:href="classrender_1_1RenderScheduler.html#aabea841bbbe87d708f716196ec43270d" target="_top" xlink:title="Mark the target associated with window as needing a render.">
<polygon fill="white" stroke="#666666" points="501,-30 364,-30 364,0 501,0 501,-30"/>
<text text-anchor="start" x="372" y="-18" font-family="Helvetica,sans-Serif" font-size="10.00">render::RenderScheduler</text>
<text text-anchor="middle" x="432.5" y="-7" font-family="Helvetica,sans-Serif" font-size="10.00">::RequestRender</text>
</a>
</g>
</g>
<!-- Node2&#45;&gt;Node3 -->
<g id="edge2_Node000002_Node000003" class="edge">
<title>Node2&#45;&gt;Node3</title>
<g id="a_edge2_Node000002_Node000003"><a xlink:title=" ">
<path fill="none" stroke="#63b8ff" d="M328.14,-15C336.54,-15 345.14,-15 353.62,-15"/>
<polygon fill="#63b8ff" stroke="#63b8ff" points="353.87,-18.5 363.87,-15 353.87,-11.5 353.87,-18.5"/>
</a>
</g>
</g>
</g>
</svg>
