<?xml version="1.0" encoding="UTF-8" standalone="no"?>
<!DOCTYPE svg PUBLIC "-//W3C//DTD SVG 1.1//EN"
 "http://www.w3.org/Graphics/SVG/1.1/DTD/svg11.dtd">
<!-- Generated by graphviz version 2.43.0 (0)
 -->
<!-- Title: ui::ViewportLayoutManager::ApplySlotAssignment Pages: 1 -->
<svg width="346pt" height="76pt"
 viewBox="0.00 0.00 346.00 75.50" xmlns="http://www.w3.org/2000/svg" xmlns:xlink="http://www.w3.org/1999/xlink">
<g id="graph0" class="graph" transform="scale(1 1) rotate(0) translate(4 71.5)">
<title>ui::ViewportLayoutManager::ApplySlotAssignment</title>
<!-- Node1 -->
<g id="Node000001" class="node">
<title>Node1</title>
<g id="a_Node000001"><a xlink:title="Re&#45;apply current layout with a custom slot→plane assignment.">
<polygon fill="#999999" stroke="#666666" points="151,-45.5 0,-45.5 0,-15.5 151,-15.5 151,-45.5"/>
<text text-anchor="start" x="8" y="-33.5" font-family="Helvetica,sans-Serif" font-size="10.00">ui::ViewportLayoutManager</text>
<text text-anchor="middle" x="75.5" y="-22.5" font-family="Helvetica,sans-Serif" font-size="10.00">::ApplySlotAssignment</text>
</a>
</g>
</g>
<!-- Node2 -->
<g id="Node000002" class="node">
<title>Node2</title>
<g id="a_Node000002"><a xlink:href="classui_1_1ViewportLayoutManager.html#a1bff0bdb753eeb09550a963a39134325" target="_top" xlink:title=" ">
<polygon fill="white" stroke="#666666" points="338,-67.5 187,-67.5 187,-37.5 338,-37.5 338,-67.5"/>
<text text-anchor="start" x="195" y="-55.5" font-family="Helvetica,sans-Serif" font-size="10.00">ui::ViewportLayoutManager</text>
<text text-anchor="middle" x="262.5" y="-44.5" font-family="Helvetica,sans-Serif" font-size="10.00">::layoutChanged</text>
</a>
</g>
</g>
<!-- Node1&#45;&gt;Node2 -->
<g id="edge1_Node000001_Node000002" class="edge">
<title>Node1&#45;&gt;Node2</title>
<g id="a_edge1_Node000001_Node000002"><a xlink:title=" ">
<path fill="none" stroke="#63b8ff" d="M151.21,-39.38C159.65,-40.39 168.28,-41.41 176.83,-42.43"/>
<polygon fill="#63b8ff" stroke="#63b8ff" points="176.47,-45.91 186.81,-43.62 177.29,-38.96 176.47,-45.91"/>
</a>
</g>
</g>
<!-- Node3 -->
<g id="Node000003" class="node">
<title>Node3</title>
<g id="a_Node000003"><a xlink:href="namespaceui.html#a5b82e5bba16ac006abde04674bcbb796" target="_top" xlink:title="Factory: returns a fully populated ViewportLayoutDefinition for each type. If slotPlanes is non&#45;empty...">
<polygon fill="white" stroke="#666666" points="331.5,-19 193.5,-19 193.5,0 331.5,0 331.5,-19"/>
<text text-anchor="middle" x="262.5" y="-7" font-family="Helvetica,sans-Serif" font-size="10.00">ui::MakeLayoutDefinition</text>
</a>
</g>
</g>
<!-- Node1&#45;&gt;Node3 -->
<g id="edge2_Node000001_Node000003" class="edge">
<title>Node1&#45;&gt;Node3</title>
<g id="a_edge2_Node000001_Node000003"><a xlink:title=" ">
<path fill="none" stroke="#63b8ff" d="M151.21,-22.02C161.78,-20.82 172.66,-19.58 183.29,-18.38"/>
<polygon fill="#63b8ff" stroke="#63b8ff" points="183.84,-21.84 193.38,-17.23 183.05,-14.88 183.84,-21.84"/>
</a>
</g>
</g>
</g>
</svg>
