<?xml version="1.0" encoding="UTF-8" standalone="no"?>
<!DOCTYPE svg PUBLIC "-//W3C//DTD SVG 1.1//EN"
 "http://www.w3.org/Graphics/SVG/1.1/DTD/svg11.dtd">
<!-- Generated by graphviz version 2.43.0 (0)
 -->
<!-- Title: controllers::ViewportController Pages: 1 -->
<svg width="174pt" height="192pt"
 viewBox="0.00 0.00 174.00 192.00" xmlns="http://www.w3.org/2000/svg" xmlns:xlink="http://www.w3.org/1999/xlink">
<g id="graph0" class="graph" transform="scale(1 1) rotate(0) translate(4 188)">
<title>controllers::ViewportController</title>
<!-- Node1 -->
<g id="Node000001" class="node">
<title>Node1</title>
<g id="a_Node000001"><a xlink:title="View controller that displays three DICOM planes in a single render window.">
<polygon fill="#999999" stroke="#666666" points="166,-19 0,-19 0,0 166,0 166,-19"/>
<text text-anchor="middle" x="83" y="-7" font-family="Helvetica,sans-Serif" font-size="10.00">controllers::ViewportController</text>
</a>
</g>
</g>
<!-- Node2 -->
<g id="Node000002" class="node">
<title>Node2</title>
<g id="a_Node000002"><a xlink:href="classcontrollers_1_1IViewController.html" target="_top" xlink:title="Abstract base for view controllers that manage DICOM slice and sphere rendering.">
<polygon fill="white" stroke="#666666" points="157.5,-74 8.5,-74 8.5,-55 157.5,-55 157.5,-74"/>
<text text-anchor="middle" x="83" y="-62" font-family="Helvetica,sans-Serif" font-size="10.00">controllers::IViewController</text>
</a>
</g>
</g>
<!-- Node2&#45;&gt;Node1 -->
<g id="edge1_Node000001_Node000002" class="edge">
<title>Node2&#45;&gt;Node1</title>
<g id="a_edge1_Node000001_Node000002"><a xlink:title=" ">
<path fill="none" stroke="#63b8ff" d="M83,-44.66C83,-35.93 83,-25.99 83,-19.09"/>
<polygon fill="#63b8ff" stroke="#63b8ff" points="79.5,-44.75 83,-54.75 86.5,-44.75 79.5,-44.75"/>
</a>
</g>
</g>
<!-- Node3 -->
<g id="Node000003" class="node">
<title>Node3</title>
<g id="a_Node000003"><a xlink:href="classcontrollers_1_1IControllerBase.html" target="_top" xlink:title="Minimal QObject base shared by all controllers.">
<polygon fill="white" stroke="#666666" points="157.5,-129 8.5,-129 8.5,-110 157.5,-110 157.5,-129"/>
<text text-anchor="middle" x="83" y="-117" font-family="Helvetica,sans-Serif" font-size="10.00">controllers::IControllerBase</text>
</a>
</g>
</g>
<!-- Node3&#45;&gt;Node2 -->
<g id="edge2_Node000002_Node000003" class="edge">
<title>Node3&#45;&gt;Node2</title>
<g id="a_edge2_Node000002_Node000003"><a xlink:title=" ">
<path fill="none" stroke="#63b8ff" d="M83,-99.66C83,-90.93 83,-80.99 83,-74.09"/>
<polygon fill="#63b8ff" stroke="#63b8ff" points="79.5,-99.75 83,-109.75 86.5,-99.75 79.5,-99.75"/>
</a>
</g>
</g>
<!-- Node4 -->
<g id="Node000004" class="node">
<title>Node4</title>
<g id="a_Node000004"><a xlink:title=" ">
<polygon fill="white" stroke="#666666" points="111,-184 55,-184 55,-165 111,-165 111,-184"/>
<text text-anchor="middle" x="83" y="-172" font-family="Helvetica,sans-Serif" font-size="10.00">QObject</text>
</a>
</g>
</g>
<!-- Node4&#45;&gt;Node3 -->
<g id="edge3_Node000003_Node000004" class="edge">
<title>Node4&#45;&gt;Node3</title>
<g id="a_edge3_Node000003_Node000004"><a xlink:title=" ">
<path fill="none" stroke="#63b8ff" d="M83,-154.66C83,-145.93 83,-135.99 83,-129.09"/>
<polygon fill="#63b8ff" stroke="#63b8ff" points="79.5,-154.75 83,-164.75 86.5,-154.75 79.5,-154.75"/>
</a>
</g>
</g>
</g>
</svg>
