<?xml version="1.0" encoding="UTF-8" standalone="no"?>
<!DOCTYPE svg PUBLIC "-//W3C//DTD SVG 1.1//EN"
 "http://www.w3.org/Graphics/SVG/1.1/DTD/svg11.dtd">
<!-- Generated by graphviz version 2.43.0 (0)
 -->
<!-- Title: controllers::DicomController::LoadSeries Pages: 1 -->
<svg width="571pt" height="38pt"
 viewBox="0.00 0.00 571.00 38.00" xmlns="http://www.w3.org/2000/svg" xmlns:xlink="http://www.w3.org/1999/xlink">
<g id="graph0" class="graph" transform="scale(1 1) rotate(0) translate(4 34)">
<title>controllers::DicomController::LoadSeries</title>
<!-- Node1 -->
<g id="Node000001" class="node">
<title>Node1</title>
<g id="a_Node000001"><a xlink:title="Loads the series at seriesIndex from the last scanned directory. Emits ImageDataReady when the image ...">
<polygon fill="#999999" stroke="#666666" points="563,-30 409,-30 409,0 563,0 563,-30"/>
<text text-anchor="start" x="417" y="-18" font-family="Helvetica,sans-Serif" font-size="10.00">controllers::DicomController</text>
<text text-anchor="middle" x="486" y="-7" font-family="Helvetica,sans-Serif" font-size="10.00">::LoadSeries</text>
</a>
</g>
</g>
<!-- Node2 -->
<g id="Node000002" class="node">
<title>Node2</title>
<g id="a_Node000002"><a xlink:href="classcontrollers_1_1DicomController.html#a54de66f138804b4b2c434c108f2a7db8" target="_top" xlink:title="Emitted after a series has been loaded.">
<polygon fill="white" stroke="#666666" points="373,-30 219,-30 219,0 373,0 373,-30"/>
<text text-anchor="start" x="227" y="-18" font-family="Helvetica,sans-Serif" font-size="10.00">controllers::DicomController</text>
<text text-anchor="middle" x="296" y="-7" font-family="Helvetica,sans-Serif" font-size="10.00">::ImageDataReady</text>
</a>
</g>
</g>
<!-- Node1&#45;&gt;Node2 -->
<g id="edge1_Node000001_Node000002" class="edge">
<title>Node1&#45;&gt;Node2</title>
<g id="a_edge1_Node000001_Node000002"><a xlink:title=" ">
<path fill="none" stroke="#63b8ff" d="M398.58,-15C390.14,-15 381.63,-15 373.3,-15"/>
<polygon fill="#63b8ff" stroke="#63b8ff" points="398.8,-18.5 408.8,-15 398.8,-11.5 398.8,-18.5"/>
</a>
</g>
</g>
<!-- Node3 -->
<g id="Node000003" class="node">
<title>Node3</title>
<g id="a_Node000003"><a xlink:href="classadapters_1_1DicomMetaDataAdapter.html#a5eeb61229f513ba28207302f593a9677" target="_top" xlink:title=" ">
<polygon fill="white" stroke="#666666" points="183,-30 0,-30 0,0 183,0 183,-30"/>
<text text-anchor="start" x="8" y="-18" font-family="Helvetica,sans-Serif" font-size="10.00">adapters::DicomMetaDataAdapter</text>
<text text-anchor="middle" x="91.5" y="-7" font-family="Helvetica,sans-Serif" font-size="10.00">::DicomMetaDataAdapter</text>
</a>
</g>
</g>
<!-- Node2&#45;&gt;Node3 -->
<g id="edge2_Node000002_Node000003" class="edge">
<title>Node2&#45;&gt;Node3</title>
<g id="a_edge2_Node000002_Node000003"><a xlink:title=" ">
<path fill="none" stroke="#63b8ff" d="M208.52,-15C200.08,-15 191.49,-15 183.01,-15"/>
<polygon fill="#63b8ff" stroke="#63b8ff" points="208.73,-18.5 218.73,-15 208.73,-11.5 208.73,-18.5"/>
</a>
</g>
</g>
</g>
</svg>
