<?xml version="1.0" encoding="UTF-8" standalone="no"?>
<!DOCTYPE svg PUBLIC "-//W3C//DTD SVG 1.1//EN"
 "http://www.w3.org/Graphics/SVG/1.1/DTD/svg11.dtd">
<!-- Generated by graphviz version 2.43.0 (0)
 -->
<!-- Title: ui::ControllerPanelFPSOverlayItem::AddOverlay Pages: 1 -->
<svg width="332pt" height="278pt"
 viewBox="0.00 0.00 332.00 278.00" xmlns="http://www.w3.org/2000/svg" xmlns:xlink="http://www.w3.org/1999/xlink">

<svg id="main" version="1.1" xmlns="http://www.w3.org/2000/svg" xmlns:xlink="http://www.w3.org/1999/xlink" xml:space="preserve" onload="init(evt)">
<style type="text/css"><![CDATA[
.node, .edge {opacity: 0.7;}
.node.selected, .edge.selected {opacity: 1;}
.edge:hover path { stroke: red; }
.edge:hover polygon { stroke: red; fill: red; }
]]></style>
<script type="application/ecmascript" xlink:href="svg.min.js"/>
<svg id="graph" class="graph">
<g id="graph0" class="graph" transform="scale(1 1) rotate(0) translate(4 274)">
<title>ui::ControllerPanelFPSOverlayItem::AddOverlay</title>
<!-- Node1 -->
<g id="Node000001" class="node">
<title>Node1</title>
<g id="a_Node000001"><a xlink:title="Attach an overlay to be controlled by this panel.">
<polygon fill="#999999" stroke="#666666" points="162,-150 0,-150 0,-120 162,-120 162,-150"/>
<text text-anchor="start" x="8" y="-138" font-family="Helvetica,sans-Serif" font-size="10.00">ui::ControllerPanelFPSOverlay</text>
<text text-anchor="middle" x="81" y="-127" font-family="Helvetica,sans-Serif" font-size="10.00">Item::AddOverlay</text>
</a>
</g>
</g>
<!-- Node2 -->
<g id="Node000002" class="node">
<title>Node2</title>
<g id="a_Node000002"><a xlink:href="classoverlays_1_1FPSOverlay.html#ab1d814276149bc5050c6198e85451475" target="_top" xlink:title="Set the sliding&#45;window duration for FPS/frame&#45;time averaging (1–60 s).">
<polygon fill="white" stroke="#666666" points="324,-270 198,-270 198,-240 324,-240 324,-270"/>
<text text-anchor="start" x="206" y="-258" font-family="Helvetica,sans-Serif" font-size="10.00">overlays::FPSOverlay</text>
<text text-anchor="middle" x="261" y="-247" font-family="Helvetica,sans-Serif" font-size="10.00">::SetAveragingWindow</text>
</a>
</g>
</g>
<!-- Node1&#45;&gt;Node2 -->
<g id="edge1_Node000001_Node000002" class="edge">
<title>Node1&#45;&gt;Node2</title>
<g id="a_edge1_Node000001_Node000002"><a xlink:title=" ">
<path fill="none" stroke="#63b8ff" d="M96.92,-150.1C117.91,-170.66 158.09,-207.6 198,-231 200.79,-232.63 203.71,-234.2 206.7,-235.69"/>
<polygon fill="#63b8ff" stroke="#63b8ff" points="205.27,-238.88 215.81,-239.93 208.22,-232.54 205.27,-238.88"/>
</a>
</g>
</g>
<!-- Node3 -->
<g id="Node000003" class="node">
<title>Node3</title>
<g id="a_Node000003"><a xlink:href="classoverlays_1_1FPSOverlay.html#accd1e71e6d87c78a83513c0b44da0b4a" target="_top" xlink:title="Enable or disable the overlay.">
<polygon fill="white" stroke="#666666" points="321.5,-222 200.5,-222 200.5,-192 321.5,-192 321.5,-222"/>
<text text-anchor="start" x="208.5" y="-210" font-family="Helvetica,sans-Serif" font-size="10.00">overlays::FPSOverlay</text>
<text text-anchor="middle" x="261" y="-199" font-family="Helvetica,sans-Serif" font-size="10.00">::SetEnabled</text>
</a>
</g>
</g>
<!-- Node1&#45;&gt;Node3 -->
<g id="edge2_Node000001_Node000003" class="edge">
<title>Node1&#45;&gt;Node3</title>
<g id="a_edge2_Node000001_Node000003"><a xlink:title=" ">
<path fill="none" stroke="#63b8ff" d="M117.71,-150.02C140.6,-159.6 170.99,-172.18 198,-183 202.21,-184.69 206.59,-186.42 210.99,-188.15"/>
<polygon fill="#63b8ff" stroke="#63b8ff" points="210,-191.52 220.59,-191.9 212.55,-185 210,-191.52"/>
</a>
</g>
</g>
<!-- Node4 -->
<g id="Node000004" class="node">
<title>Node4</title>
<g id="a_Node000004"><a xlink:href="classoverlays_1_1FPSOverlay.html#a6ef67cd97bea33f87d849869ee694016" target="_top" xlink:title=" ">
<polygon fill="white" stroke="#666666" points="321.5,-174 200.5,-174 200.5,-144 321.5,-144 321.5,-174"/>
<text text-anchor="start" x="208.5" y="-162" font-family="Helvetica,sans-Serif" font-size="10.00">overlays::FPSOverlay</text>
<text text-anchor="middle" x="261" y="-151" font-family="Helvetica,sans-Serif" font-size="10.00">::SetFontSize</text>
</a>
</g>
</g>
<!-- Node1&#45;&gt;Node4 -->
<g id="edge3_Node000001_Node000004" class="edge">
<title>Node1&#45;&gt;Node4</title>
<g id="a_edge3_Node000001_Node000004"><a xlink:title=" ">
<path fill="none" stroke="#63b8ff" d="M162.15,-145.81C171.57,-147.08 181.12,-148.36 190.38,-149.61"/>
<polygon fill="#63b8ff" stroke="#63b8ff" points="189.91,-153.08 200.29,-150.95 190.85,-146.14 189.91,-153.08"/>
</a>
</g>
</g>
<!-- Node5 -->
<g id="Node000005" class="node">
<title>Node5</title>
<g id="a_Node000005"><a xlink:href="classoverlays_1_1FPSOverlay.html#a6cda920d7aa6caa7fc6d37178db18c43" target="_top" xlink:title=" ">
<polygon fill="white" stroke="#666666" points="321.5,-126 200.5,-126 200.5,-96 321.5,-96 321.5,-126"/>
<text text-anchor="start" x="208.5" y="-114" font-family="Helvetica,sans-Serif" font-size="10.00">overlays::FPSOverlay</text>
<text text-anchor="middle" x="261" y="-103" font-family="Helvetica,sans-Serif" font-size="10.00">::SetMargin</text>
</a>
</g>
</g>
<!-- Node1&#45;&gt;Node5 -->
<g id="edge4_Node000001_Node000005" class="edge">
<title>Node1&#45;&gt;Node5</title>
<g id="a_edge4_Node000001_Node000005"><a xlink:title=" ">
<path fill="none" stroke="#63b8ff" d="M162.15,-124.19C171.57,-122.92 181.12,-121.64 190.38,-120.39"/>
<polygon fill="#63b8ff" stroke="#63b8ff" points="190.85,-123.86 200.29,-119.05 189.91,-116.92 190.85,-123.86"/>
</a>
</g>
</g>
<!-- Node6 -->
<g id="Node000006" class="node">
<title>Node6</title>
<g id="a_Node000006"><a xlink:href="classoverlays_1_1FPSOverlay.html#a55a0ed68965ca2f4b7aba36a33d664f3" target="_top" xlink:title="Set position for the visible overlay.">
<polygon fill="white" stroke="#666666" points="321.5,-78 200.5,-78 200.5,-48 321.5,-48 321.5,-78"/>
<text text-anchor="start" x="208.5" y="-66" font-family="Helvetica,sans-Serif" font-size="10.00">overlays::FPSOverlay</text>
<text text-anchor="middle" x="261" y="-55" font-family="Helvetica,sans-Serif" font-size="10.00">::SetPosition</text>
</a>
</g>
</g>
<!-- Node1&#45;&gt;Node6 -->
<g id="edge5_Node000001_Node000006" class="edge">
<title>Node1&#45;&gt;Node6</title>
<g id="a_edge5_Node000001_Node000006"><a xlink:title=" ">
<path fill="none" stroke="#63b8ff" d="M117.71,-119.98C140.6,-110.4 170.99,-97.82 198,-87 202.21,-85.31 206.59,-83.58 210.99,-81.85"/>
<polygon fill="#63b8ff" stroke="#63b8ff" points="212.55,-85 220.59,-78.1 210,-78.48 212.55,-85"/>
</a>
</g>
</g>
<!-- Node7 -->
<g id="Node000007" class="node">
<title>Node7</title>
<g id="a_Node000007"><a xlink:href="classoverlays_1_1FPSOverlay.html#a710419e889c972aa335cc034d85eec05" target="_top" xlink:title=" ">
<polygon fill="white" stroke="#666666" points="321.5,-30 200.5,-30 200.5,0 321.5,0 321.5,-30"/>
<text text-anchor="start" x="208.5" y="-18" font-family="Helvetica,sans-Serif" font-size="10.00">overlays::FPSOverlay</text>
<text text-anchor="middle" x="261" y="-7" font-family="Helvetica,sans-Serif" font-size="10.00">::SetTextColor</text>
</a>
</g>
</g>
<!-- Node1&#45;&gt;Node7 -->
<g id="edge6_Node000001_Node000007" class="edge">
<title>Node1&#45;&gt;Node7</title>
<g id="a_edge6_Node000001_Node000007"><a xlink:title=" ">
<path fill="none" stroke="#63b8ff" d="M96.92,-119.9C117.91,-99.34 158.09,-62.4 198,-39 200.79,-37.37 203.71,-35.8 206.7,-34.31"/>
<polygon fill="#63b8ff" stroke="#63b8ff" points="208.22,-37.46 215.81,-30.07 205.27,-31.12 208.22,-37.46"/>
</a>
</g>
</g>
</g>
</svg>
</svg>

<style type='text/css'>
<![CDATA[
[data-mouse-over-selected='false'] { opacity: 0.7; }
[data-mouse-over-selected='true']  { opacity: 1.0; }
]]>
</style>
<script type="application/ecmascript"><![CDATA[
document.addEventListener('DOMContentLoaded', (event) => {
  highlightEdges();
  highlightAdjacentNodes();
});
]]></script>
</svg>
