<?xml version="1.0" encoding="UTF-8" standalone="no"?>
<!DOCTYPE svg PUBLIC "-//W3C//DTD SVG 1.1//EN"
 "http://www.w3.org/Graphics/SVG/1.1/DTD/svg11.dtd">
<!-- Generated by graphviz version 2.43.0 (0)
 -->
<!-- Title: ui::ControllerPanelCornerAnnotationItem::AddOverlay Pages: 1 -->
<svg width="366pt" height="422pt"
 viewBox="0.00 0.00 366.00 422.00" xmlns="http://www.w3.org/2000/svg" xmlns:xlink="http://www.w3.org/1999/xlink">

<svg id="main" version="1.1" xmlns="http://www.w3.org/2000/svg" xmlns:xlink="http://www.w3.org/1999/xlink" xml:space="preserve" onload="init(evt)">
<style type="text/css"><![CDATA[
.node, .edge {opacity: 0.7;}
.node.selected, .edge.selected {opacity: 1;}
.edge:hover path { stroke: red; }
.edge:hover polygon { stroke: red; fill: red; }
]]></style>
<script type="application/ecmascript" xlink:href="svg.min.js"/>
<svg id="graph" class="graph">
<g id="graph0" class="graph" transform="scale(1 1) rotate(0) translate(4 418)">
<title>ui::ControllerPanelCornerAnnotationItem::AddOverlay</title>
<!-- Node1 -->
<g id="Node000001" class="node">
<title>Node1</title>
<g id="a_Node000001"><a xlink:title=" ">
<polygon fill="#999999" stroke="#666666" points="155,-222 0,-222 0,-192 155,-192 155,-222"/>
<text text-anchor="start" x="8" y="-210" font-family="Helvetica,sans-Serif" font-size="10.00">ui::ControllerPanelCorner</text>
<text text-anchor="middle" x="77.5" y="-199" font-family="Helvetica,sans-Serif" font-size="10.00">AnnotationItem::AddOverlay</text>
</a>
</g>
</g>
<!-- Node2 -->
<g id="Node000002" class="node">
<title>Node2</title>
<g id="a_Node000002"><a xlink:href="classoverlays_1_1CornerAnnotationOverlay.html#adce0749741ab60992b059b2796d0d56f" target="_top" xlink:title="Enable or disable the overlay.">
<polygon fill="white" stroke="#666666" points="349.5,-414 199.5,-414 199.5,-384 349.5,-384 349.5,-414"/>
<text text-anchor="start" x="207.5" y="-402" font-family="Helvetica,sans-Serif" font-size="10.00">overlays::CornerAnnotation</text>
<text text-anchor="middle" x="274.5" y="-391" font-family="Helvetica,sans-Serif" font-size="10.00">Overlay::SetEnabled</text>
</a>
</g>
</g>
<!-- Node1&#45;&gt;Node2 -->
<g id="edge1_Node000001_Node000002" class="edge">
<title>Node1&#45;&gt;Node2</title>
<g id="a_edge1_Node000001_Node000002"><a xlink:title=" ">
<path fill="none" stroke="#63b8ff" d="M84.37,-222.14C97.92,-255.11 134.64,-333.74 191,-375 193.05,-376.5 195.2,-377.91 197.42,-379.23"/>
<polygon fill="#63b8ff" stroke="#63b8ff" points="195.8,-382.34 206.28,-383.91 199.07,-376.15 195.8,-382.34"/>
</a>
</g>
</g>
<!-- Node3 -->
<g id="Node000003" class="node">
<title>Node3</title>
<g id="a_Node000003"><a xlink:href="classoverlays_1_1CornerAnnotationOverlay.html#af5def48df17b798cf81a69801aca65a9" target="_top" xlink:title=" ">
<polygon fill="white" stroke="#666666" points="349.5,-366 199.5,-366 199.5,-336 349.5,-336 349.5,-366"/>
<text text-anchor="start" x="207.5" y="-354" font-family="Helvetica,sans-Serif" font-size="10.00">overlays::CornerAnnotation</text>
<text text-anchor="middle" x="274.5" y="-343" font-family="Helvetica,sans-Serif" font-size="10.00">Overlay::SetFontSize</text>
</a>
</g>
</g>
<!-- Node1&#45;&gt;Node3 -->
<g id="edge2_Node000001_Node000003" class="edge">
<title>Node1&#45;&gt;Node3</title>
<g id="a_edge2_Node000001_Node000003"><a xlink:title=" ">
<path fill="none" stroke="#63b8ff" d="M88.69,-222.37C106.44,-247.91 145.48,-299.07 191,-327 193.8,-328.72 196.72,-330.31 199.73,-331.8"/>
<polygon fill="#63b8ff" stroke="#63b8ff" points="198.43,-335.05 208.98,-335.95 201.29,-328.66 198.43,-335.05"/>
</a>
</g>
</g>
<!-- Node4 -->
<g id="Node000004" class="node">
<title>Node4</title>
<g id="a_Node000004"><a xlink:href="classoverlays_1_1CornerAnnotationOverlay.html#aa07382893b7aa95d49d5d59f86cc2a11" target="_top" xlink:title=" ">
<polygon fill="white" stroke="#666666" points="349.5,-318 199.5,-318 199.5,-288 349.5,-288 349.5,-318"/>
<text text-anchor="start" x="207.5" y="-306" font-family="Helvetica,sans-Serif" font-size="10.00">overlays::CornerAnnotation</text>
<text text-anchor="middle" x="274.5" y="-295" font-family="Helvetica,sans-Serif" font-size="10.00">Overlay::SetMargin</text>
</a>
</g>
</g>
<!-- Node1&#45;&gt;Node4 -->
<g id="edge3_Node000001_Node000004" class="edge">
<title>Node1&#45;&gt;Node4</title>
<g id="a_edge3_Node000001_Node000004"><a xlink:title=" ">
<path fill="none" stroke="#63b8ff" d="M98.23,-222.12C119.94,-238.15 156.37,-263.28 191,-279 195.35,-280.98 199.91,-282.84 204.56,-284.57"/>
<polygon fill="#63b8ff" stroke="#63b8ff" points="203.57,-287.94 214.16,-287.97 205.9,-281.34 203.57,-287.94"/>
</a>
</g>
</g>
<!-- Node5 -->
<g id="Node000005" class="node">
<title>Node5</title>
<g id="a_Node000005"><a xlink:href="classoverlays_1_1CornerAnnotationOverlay.html#aecec570c75d8b0fe918603ec5ca77091" target="_top" xlink:title="Set position for the visible overlay.">
<polygon fill="white" stroke="#666666" points="349.5,-270 199.5,-270 199.5,-240 349.5,-240 349.5,-270"/>
<text text-anchor="start" x="207.5" y="-258" font-family="Helvetica,sans-Serif" font-size="10.00">overlays::CornerAnnotation</text>
<text text-anchor="middle" x="274.5" y="-247" font-family="Helvetica,sans-Serif" font-size="10.00">Overlay::SetPosition</text>
</a>
</g>
</g>
<!-- Node1&#45;&gt;Node5 -->
<g id="edge4_Node000001_Node000005" class="edge">
<title>Node1&#45;&gt;Node5</title>
<g id="a_edge4_Node000001_Node000005"><a xlink:title=" ">
<path fill="none" stroke="#63b8ff" d="M139.66,-222.06C159.63,-226.97 181.97,-232.47 202.59,-237.54"/>
<polygon fill="#63b8ff" stroke="#63b8ff" points="202.01,-241.01 212.55,-240 203.68,-234.21 202.01,-241.01"/>
</a>
</g>
</g>
<!-- Node6 -->
<g id="Node000006" class="node">
<title>Node6</title>
<g id="a_Node000006"><a xlink:href="classoverlays_1_1CornerAnnotationOverlay.html#a7733cf3062feb454a3c80865fae500cd" target="_top" xlink:title=" ">
<polygon fill="white" stroke="#666666" points="349.5,-222 199.5,-222 199.5,-192 349.5,-192 349.5,-222"/>
<text text-anchor="start" x="207.5" y="-210" font-family="Helvetica,sans-Serif" font-size="10.00">overlays::CornerAnnotation</text>
<text text-anchor="middle" x="274.5" y="-199" font-family="Helvetica,sans-Serif" font-size="10.00">Overlay::SetShowSliceInfo</text>
</a>
</g>
</g>
<!-- Node1&#45;&gt;Node6 -->
<g id="edge5_Node000001_Node000006" class="edge">
<title>Node1&#45;&gt;Node6</title>
<g id="a_edge5_Node000001_Node000006"><a xlink:title=" ">
<path fill="none" stroke="#63b8ff" d="M155.01,-207C166.2,-207 177.78,-207 189.12,-207"/>
<polygon fill="#63b8ff" stroke="#63b8ff" points="189.45,-210.5 199.45,-207 189.45,-203.5 189.45,-210.5"/>
</a>
</g>
</g>
<!-- Node7 -->
<g id="Node000007" class="node">
<title>Node7</title>
<g id="a_Node000007"><a xlink:href="classoverlays_1_1CornerAnnotationOverlay.html#a8e3c89fb88121359b0f285781535f69b" target="_top" xlink:title=" ">
<polygon fill="white" stroke="#666666" points="349.5,-174 199.5,-174 199.5,-144 349.5,-144 349.5,-174"/>
<text text-anchor="start" x="207.5" y="-162" font-family="Helvetica,sans-Serif" font-size="10.00">overlays::CornerAnnotation</text>
<text text-anchor="middle" x="274.5" y="-151" font-family="Helvetica,sans-Serif" font-size="10.00">Overlay::SetShowSpacing</text>
</a>
</g>
</g>
<!-- Node1&#45;&gt;Node7 -->
<g id="edge6_Node000001_Node000007" class="edge">
<title>Node1&#45;&gt;Node7</title>
<g id="a_edge6_Node000001_Node000007"><a xlink:title=" ">
<path fill="none" stroke="#63b8ff" d="M139.66,-191.94C159.63,-187.03 181.97,-181.53 202.59,-176.46"/>
<polygon fill="#63b8ff" stroke="#63b8ff" points="203.68,-179.79 212.55,-174 202.01,-172.99 203.68,-179.79"/>
</a>
</g>
</g>
<!-- Node8 -->
<g id="Node000008" class="node">
<title>Node8</title>
<g id="a_Node000008"><a xlink:href="classoverlays_1_1CornerAnnotationOverlay.html#a3ea03c0820625708a6af333640c34e44" target="_top" xlink:title=" ">
<polygon fill="white" stroke="#666666" points="352,-126 197,-126 197,-96 352,-96 352,-126"/>
<text text-anchor="start" x="205" y="-114" font-family="Helvetica,sans-Serif" font-size="10.00">overlays::CornerAnnotation</text>
<text text-anchor="middle" x="274.5" y="-103" font-family="Helvetica,sans-Serif" font-size="10.00">Overlay::SetShowViewName</text>
</a>
</g>
</g>
<!-- Node1&#45;&gt;Node8 -->
<g id="edge7_Node000001_Node000008" class="edge">
<title>Node1&#45;&gt;Node8</title>
<g id="a_edge7_Node000001_Node000008"><a xlink:title=" ">
<path fill="none" stroke="#63b8ff" d="M98.23,-191.88C119.94,-175.85 156.37,-150.72 191,-135 195.35,-133.02 199.91,-131.16 204.56,-129.43"/>
<polygon fill="#63b8ff" stroke="#63b8ff" points="205.9,-132.66 214.16,-126.03 203.57,-126.06 205.9,-132.66"/>
</a>
</g>
</g>
<!-- Node9 -->
<g id="Node000009" class="node">
<title>Node9</title>
<g id="a_Node000009"><a xlink:href="classoverlays_1_1CornerAnnotationOverlay.html#a8ee7c30cdf8d85c12bdd9cfb332fb556" target="_top" xlink:title=" ">
<polygon fill="white" stroke="#666666" points="358,-78 191,-78 191,-48 358,-48 358,-78"/>
<text text-anchor="start" x="199" y="-66" font-family="Helvetica,sans-Serif" font-size="10.00">overlays::CornerAnnotation</text>
<text text-anchor="middle" x="274.5" y="-55" font-family="Helvetica,sans-Serif" font-size="10.00">Overlay::SetShowWindowLevel</text>
</a>
</g>
</g>
<!-- Node1&#45;&gt;Node9 -->
<g id="edge8_Node000001_Node000009" class="edge">
<title>Node1&#45;&gt;Node9</title>
<g id="a_edge8_Node000001_Node000009"><a xlink:title=" ">
<path fill="none" stroke="#63b8ff" d="M88.69,-191.63C106.44,-166.09 145.48,-114.93 191,-87 193.8,-85.28 196.72,-83.69 199.73,-82.2"/>
<polygon fill="#63b8ff" stroke="#63b8ff" points="201.29,-85.34 208.98,-78.05 198.43,-78.95 201.29,-85.34"/>
</a>
</g>
</g>
<!-- Node10 -->
<g id="Node000010" class="node">
<title>Node10</title>
<g id="a_Node000010"><a xlink:href="classoverlays_1_1CornerAnnotationOverlay.html#a5885db209543fe8889d0e25cd7f11e4d" target="_top" xlink:title=" ">
<polygon fill="white" stroke="#666666" points="349.5,-30 199.5,-30 199.5,0 349.5,0 349.5,-30"/>
<text text-anchor="start" x="207.5" y="-18" font-family="Helvetica,sans-Serif" font-size="10.00">overlays::CornerAnnotation</text>
<text text-anchor="middle" x="274.5" y="-7" font-family="Helvetica,sans-Serif" font-size="10.00">Overlay::SetTextColor</text>
</a>
</g>
</g>
<!-- Node1&#45;&gt;Node10 -->
<g id="edge9_Node000001_Node000010" class="edge">
<title>Node1&#45;&gt;Node10</title>
<g id="a_edge9_Node000001_Node000010"><a xlink:title=" ">
<path fill="none" stroke="#63b8ff" d="M84.37,-191.86C97.92,-158.89 134.64,-80.26 191,-39 193.05,-37.5 195.2,-36.09 197.42,-34.77"/>
<polygon fill="#63b8ff" stroke="#63b8ff" points="199.07,-37.85 206.28,-30.09 195.8,-31.66 199.07,-37.85"/>
</a>
</g>
</g>
</g>
</svg>
</svg>

<style type='text/css'>
<![CDATA[
[data-mouse-over-selected='false'] { opacity: 0.7; }
[data-mouse-over-selected='true']  { opacity: 1.0; }
]]>
</style>
<script type="application/ecmascript"><![CDATA[
document.addEventListener('DOMContentLoaded', (event) => {
  highlightEdges();
  highlightAdjacentNodes();
});
]]></script>
</svg>
