<?xml version="1.0" encoding="UTF-8" standalone="no"?>
<!DOCTYPE svg PUBLIC "-//W3C//DTD SVG 1.1//EN"
 "http://www.w3.org/Graphics/SVG/1.1/DTD/svg11.dtd">
<!-- Generated by graphviz version 2.43.0 (0)
 -->
<!-- Title: render::RenderScheduler::RequestRender Pages: 1 -->
<svg width="509pt" height="86pt"
 viewBox="0.00 0.00 509.00 86.00" xmlns="http://www.w3.org/2000/svg" xmlns:xlink="http://www.w3.org/1999/xlink">
<g id="graph0" class="graph" transform="scale(1 1) rotate(0) translate(4 82)">
<title>render::RenderScheduler::RequestRender</title>
<!-- Node1 -->
<g id="Node000001" class="node">
<title>Node1</title>
<g id="a_Node000001"><a xlink:title="Mark the target associated with window as needing a render.">
<polygon fill="#999999" stroke="#666666" points="501,-54 364,-54 364,-24 501,-24 501,-54"/>
<text text-anchor="start" x="372" y="-42" font-family="Helvetica,sans-Serif" font-size="10.00">render::RenderScheduler</text>
<text text-anchor="middle" x="432.5" y="-31" font-family="Helvetica,sans-Serif" font-size="10.00">::RequestRender</text>
</a>
</g>
</g>
<!-- Node2 -->
<g id="Node000002" class="node">
<title>Node2</title>
<g id="a_Node000002"><a xlink:href="classcontrollers_1_1SliceController.html#aa16d11e88ecc06d76ba4b3f832cc98c4" target="_top" xlink:title="Request a render for all registered RIV windows via the scheduler.">
<polygon fill="white" stroke="#666666" points="328,-54 182,-54 182,-24 328,-24 328,-54"/>
<text text-anchor="start" x="190" y="-42" font-family="Helvetica,sans-Serif" font-size="10.00">controllers::SliceController</text>
<text text-anchor="middle" x="255" y="-31" font-family="Helvetica,sans-Serif" font-size="10.00">::RequestRenderAll</text>
</a>
</g>
</g>
<!-- Node1&#45;&gt;Node2 -->
<g id="edge1_Node000001_Node000002" class="edge">
<title>Node1&#45;&gt;Node2</title>
<g id="a_edge1_Node000001_Node000002"><a xlink:title=" ">
<path fill="none" stroke="#63b8ff" d="M353.66,-39C345.2,-39 336.62,-39 328.23,-39"/>
<polygon fill="#63b8ff" stroke="#63b8ff" points="353.9,-42.5 363.9,-39 353.9,-35.5 353.9,-42.5"/>
</a>
</g>
</g>
<!-- Node3 -->
<g id="Node000003" class="node">
<title>Node3</title>
<g id="a_Node000003"><a xlink:href="classcontrollers_1_1SliceController.html#a76a938a9e5e03cec95f4757f8b737af7" target="_top" xlink:title="Convenience: RequestRenderAll() + Flush() in one call.">
<polygon fill="white" stroke="#666666" points="146,-78 0,-78 0,-48 146,-48 146,-78"/>
<text text-anchor="start" x="8" y="-66" font-family="Helvetica,sans-Serif" font-size="10.00">controllers::SliceController</text>
<text text-anchor="middle" x="73" y="-55" font-family="Helvetica,sans-Serif" font-size="10.00">::RenderAll</text>
</a>
</g>
</g>
<!-- Node2&#45;&gt;Node3 -->
<g id="edge2_Node000002_Node000003" class="edge">
<title>Node2&#45;&gt;Node3</title>
<g id="a_edge2_Node000002_Node000003"><a xlink:title=" ">
<path fill="none" stroke="#63b8ff" d="M171.84,-49.95C163.28,-51.1 154.63,-52.25 146.19,-53.37"/>
<polygon fill="#63b8ff" stroke="#63b8ff" points="172.37,-53.41 181.82,-48.62 171.45,-46.48 172.37,-53.41"/>
</a>
</g>
</g>
<!-- Node4 -->
<g id="Node000004" class="node">
<title>Node4</title>
<g id="a_Node000004"><a xlink:href="classcontrollers_1_1SliceController.html#ab56a77552b3750381d0950d80878a099" target="_top" xlink:title="Pushes image into the reslice pipeline and requests a render.">
<polygon fill="white" stroke="#666666" points="146,-30 0,-30 0,0 146,0 146,-30"/>
<text text-anchor="start" x="8" y="-18" font-family="Helvetica,sans-Serif" font-size="10.00">controllers::SliceController</text>
<text text-anchor="middle" x="73" y="-7" font-family="Helvetica,sans-Serif" font-size="10.00">::SetImageData</text>
</a>
</g>
</g>
<!-- Node2&#45;&gt;Node4 -->
<g id="edge3_Node000002_Node000004" class="edge">
<title>Node2&#45;&gt;Node4</title>
<g id="a_edge3_Node000002_Node000004"><a xlink:title=" ">
<path fill="none" stroke="#63b8ff" d="M171.84,-28.05C163.28,-26.9 154.63,-25.75 146.19,-24.63"/>
<polygon fill="#63b8ff" stroke="#63b8ff" points="171.45,-31.52 181.82,-29.38 172.37,-24.59 171.45,-31.52"/>
</a>
</g>
</g>
</g>
</svg>
