<?xml version="1.0" encoding="UTF-8" standalone="no"?>
<!DOCTYPE svg PUBLIC "-//W3C//DTD SVG 1.1//EN"
 "http://www.w3.org/Graphics/SVG/1.1/DTD/svg11.dtd">
<!-- Generated by graphviz version 2.43.0 (0)
 -->
<!-- Title: controllers::SliceController::RenderAll Pages: 1 -->
<svg width="509pt" height="86pt"
 viewBox="0.00 0.00 509.00 86.00" xmlns="http://www.w3.org/2000/svg" xmlns:xlink="http://www.w3.org/1999/xlink">
<g id="graph0" class="graph" transform="scale(1 1) rotate(0) translate(4 82)">
<title>controllers::SliceController::RenderAll</title>
<!-- Node1 -->
<g id="Node000001" class="node">
<title>Node1</title>
<g id="a_Node000001"><a xlink:title="Convenience: RequestRenderAll() + Flush() in one call.">
<polygon fill="#999999" stroke="#666666" points="146,-54 0,-54 0,-24 146,-24 146,-54"/>
<text text-anchor="start" x="8" y="-42" font-family="Helvetica,sans-Serif" font-size="10.00">controllers::SliceController</text>
<text text-anchor="middle" x="73" y="-31" font-family="Helvetica,sans-Serif" font-size="10.00">::RenderAll</text>
</a>
</g>
</g>
<!-- Node2 -->
<g id="Node000002" class="node">
<title>Node2</title>
<g id="a_Node000002"><a xlink:href="classrender_1_1RenderScheduler.html#aaa12e1f2971e5f4163f16658acca5c42" target="_top" xlink:title="Execute one render per dirty window and clear the dirty set.">
<polygon fill="white" stroke="#666666" points="323.5,-78 186.5,-78 186.5,-48 323.5,-48 323.5,-78"/>
<text text-anchor="start" x="194.5" y="-66" font-family="Helvetica,sans-Serif" font-size="10.00">render::RenderScheduler</text>
<text text-anchor="middle" x="255" y="-55" font-family="Helvetica,sans-Serif" font-size="10.00">::Flush</text>
</a>
</g>
</g>
<!-- Node1&#45;&gt;Node2 -->
<g id="edge1_Node000001_Node000002" class="edge">
<title>Node1&#45;&gt;Node2</title>
<g id="a_edge1_Node000001_Node000002"><a xlink:title=" ">
<path fill="none" stroke="#63b8ff" d="M146.18,-48.62C156.15,-49.95 166.43,-51.32 176.5,-52.67"/>
<polygon fill="#63b8ff" stroke="#63b8ff" points="176.1,-56.14 186.48,-54 177.03,-49.21 176.1,-56.14"/>
</a>
</g>
</g>
<!-- Node3 -->
<g id="Node000003" class="node">
<title>Node3</title>
<g id="a_Node000003"><a xlink:href="classcontrollers_1_1SliceController.html#aa16d11e88ecc06d76ba4b3f832cc98c4" target="_top" xlink:title="Request a render for all registered RIV windows via the scheduler.">
<polygon fill="white" stroke="#666666" points="328,-30 182,-30 182,0 328,0 328,-30"/>
<text text-anchor="start" x="190" y="-18" font-family="Helvetica,sans-Serif" font-size="10.00">controllers::SliceController</text>
<text text-anchor="middle" x="255" y="-7" font-family="Helvetica,sans-Serif" font-size="10.00">::RequestRenderAll</text>
</a>
</g>
</g>
<!-- Node1&#45;&gt;Node3 -->
<g id="edge2_Node000001_Node000003" class="edge">
<title>Node1&#45;&gt;Node3</title>
<g id="a_edge2_Node000001_Node000003"><a xlink:title=" ">
<path fill="none" stroke="#63b8ff" d="M146.18,-29.38C154.61,-28.25 163.27,-27.1 171.82,-25.96"/>
<polygon fill="#63b8ff" stroke="#63b8ff" points="172.36,-29.42 181.81,-24.63 171.43,-22.48 172.36,-29.42"/>
</a>
</g>
</g>
<!-- Node4 -->
<g id="Node000004" class="node">
<title>Node4</title>
<g id="a_Node000004"><a xlink:href="classrender_1_1RenderScheduler.html#aabea841bbbe87d708f716196ec43270d" target="_top" xlink:title="Mark the target associated with window as needing a render.">
<polygon fill="white" stroke="#666666" points="501,-30 364,-30 364,0 501,0 501,-30"/>
<text text-anchor="start" x="372" y="-18" font-family="Helvetica,sans-Serif" font-size="10.00">render::RenderScheduler</text>
<text text-anchor="middle" x="432.5" y="-7" font-family="Helvetica,sans-Serif" font-size="10.00">::RequestRender</text>
</a>
</g>
</g>
<!-- Node3&#45;&gt;Node4 -->
<g id="edge3_Node000003_Node000004" class="edge">
<title>Node3&#45;&gt;Node4</title>
<g id="a_edge3_Node000003_Node000004"><a xlink:title=" ">
<path fill="none" stroke="#63b8ff" d="M328.14,-15C336.54,-15 345.14,-15 353.62,-15"/>
<polygon fill="#63b8ff" stroke="#63b8ff" points="353.87,-18.5 363.87,-15 353.87,-11.5 353.87,-18.5"/>
</a>
</g>
</g>
</g>
</svg>
