<?xml version="1.0" encoding="UTF-8" standalone="no"?>
<!DOCTYPE svg PUBLIC "-//W3C//DTD SVG 1.1//EN"
 "http://www.w3.org/Graphics/SVG/1.1/DTD/svg11.dtd">
<!-- Generated by graphviz version 2.43.0 (0)
 -->
<!-- Title: ui::ControllerPanelOrientationMarkerItem::AddOverlay Pages: 1 -->
<svg width="358pt" height="182pt"
 viewBox="0.00 0.00 358.00 182.00" xmlns="http://www.w3.org/2000/svg" xmlns:xlink="http://www.w3.org/1999/xlink">
<g id="graph0" class="graph" transform="scale(1 1) rotate(0) translate(4 178)">
<title>ui::ControllerPanelOrientationMarkerItem::AddOverlay</title>
<!-- Node1 -->
<g id="Node000001" class="node">
<title>Node1</title>
<g id="a_Node000001"><a xlink:title="Attach an overlay to be controlled by this panel.">
<polygon fill="#999999" stroke="#666666" points="161,-102 0,-102 0,-72 161,-72 161,-102"/>
<text text-anchor="start" x="8" y="-90" font-family="Helvetica,sans-Serif" font-size="10.00">ui::ControllerPanelOrientation</text>
<text text-anchor="middle" x="80.5" y="-79" font-family="Helvetica,sans-Serif" font-size="10.00">MarkerItem::AddOverlay</text>
</a>
</g>
</g>
<!-- Node2 -->
<g id="Node000002" class="node">
<title>Node2</title>
<g id="a_Node000002"><a xlink:href="classoverlays_1_1OrientationMarkerOverlay.html#afa9f92191abb867c5600cc884a41ba6c" target="_top" xlink:title="Enable or disable the overlay.">
<polygon fill="white" stroke="#666666" points="350,-174 197,-174 197,-144 350,-144 350,-174"/>
<text text-anchor="start" x="205" y="-162" font-family="Helvetica,sans-Serif" font-size="10.00">overlays::OrientationMarker</text>
<text text-anchor="middle" x="273.5" y="-151" font-family="Helvetica,sans-Serif" font-size="10.00">Overlay::SetEnabled</text>
</a>
</g>
</g>
<!-- Node1&#45;&gt;Node2 -->
<g id="edge1_Node000001_Node000002" class="edge">
<title>Node1&#45;&gt;Node2</title>
<g id="a_edge1_Node000001_Node000002"><a xlink:title=" ">
<path fill="none" stroke="#63b8ff" d="M115.56,-102.06C138.4,-111.94 169.27,-124.85 197,-135 202.38,-136.97 208,-138.93 213.66,-140.84"/>
<polygon fill="#63b8ff" stroke="#63b8ff" points="212.56,-144.16 223.15,-143.99 214.76,-137.52 212.56,-144.16"/>
</a>
</g>
</g>
<!-- Node3 -->
<g id="Node000003" class="node">
<title>Node3</title>
<g id="a_Node000003"><a xlink:href="classoverlays_1_1OrientationMarkerOverlay.html#a16ab38a2f210ad7fec58ed088d890bfc" target="_top" xlink:title=" ">
<polygon fill="white" stroke="#666666" points="350,-126 197,-126 197,-96 350,-96 350,-126"/>
<text text-anchor="start" x="205" y="-114" font-family="Helvetica,sans-Serif" font-size="10.00">overlays::OrientationMarker</text>
<text text-anchor="middle" x="273.5" y="-103" font-family="Helvetica,sans-Serif" font-size="10.00">Overlay::SetFontSize</text>
</a>
</g>
</g>
<!-- Node1&#45;&gt;Node3 -->
<g id="edge2_Node000001_Node000003" class="edge">
<title>Node1&#45;&gt;Node3</title>
<g id="a_edge2_Node000001_Node000003"><a xlink:title=" ">
<path fill="none" stroke="#63b8ff" d="M161.12,-97C169.65,-98.08 178.36,-99.17 186.96,-100.25"/>
<polygon fill="#63b8ff" stroke="#63b8ff" points="186.63,-103.74 196.99,-101.51 187.5,-96.79 186.63,-103.74"/>
</a>
</g>
</g>
<!-- Node4 -->
<g id="Node000004" class="node">
<title>Node4</title>
<g id="a_Node000004"><a xlink:href="classoverlays_1_1OrientationMarkerOverlay.html#a9a47ea9758ffa5b4124333995fa9b070" target="_top" xlink:title="Toggle between short (L/R/A/P/S/I) and long (Left/Right/Anterior/Posterior/Superior/Inferior) label m...">
<polygon fill="white" stroke="#666666" points="350,-78 197,-78 197,-48 350,-48 350,-78"/>
<text text-anchor="start" x="205" y="-66" font-family="Helvetica,sans-Serif" font-size="10.00">overlays::OrientationMarker</text>
<text text-anchor="middle" x="273.5" y="-55" font-family="Helvetica,sans-Serif" font-size="10.00">Overlay::SetLongLabels</text>
</a>
</g>
</g>
<!-- Node1&#45;&gt;Node4 -->
<g id="edge3_Node000001_Node000004" class="edge">
<title>Node1&#45;&gt;Node4</title>
<g id="a_edge3_Node000001_Node000004"><a xlink:title=" ">
<path fill="none" stroke="#63b8ff" d="M161.12,-77C169.65,-75.92 178.36,-74.83 186.96,-73.75"/>
<polygon fill="#63b8ff" stroke="#63b8ff" points="187.5,-77.21 196.99,-72.49 186.63,-70.26 187.5,-77.21"/>
</a>
</g>
</g>
<!-- Node5 -->
<g id="Node000005" class="node">
<title>Node5</title>
<g id="a_Node000005"><a xlink:href="classoverlays_1_1OrientationMarkerOverlay.html#a64f6936e9e19ea106741fffc5f00e338" target="_top" xlink:title=" ">
<polygon fill="white" stroke="#666666" points="350,-30 197,-30 197,0 350,0 350,-30"/>
<text text-anchor="start" x="205" y="-18" font-family="Helvetica,sans-Serif" font-size="10.00">overlays::OrientationMarker</text>
<text text-anchor="middle" x="273.5" y="-7" font-family="Helvetica,sans-Serif" font-size="10.00">Overlay::SetTextColor</text>
</a>
</g>
</g>
<!-- Node1&#45;&gt;Node5 -->
<g id="edge4_Node000001_Node000005" class="edge">
<title>Node1&#45;&gt;Node5</title>
<g id="a_edge4_Node000001_Node000005"><a xlink:title=" ">
<path fill="none" stroke="#63b8ff" d="M115.56,-71.94C138.4,-62.06 169.27,-49.15 197,-39 202.38,-37.03 208,-35.07 213.66,-33.16"/>
<polygon fill="#63b8ff" stroke="#63b8ff" points="214.76,-36.48 223.15,-30.01 212.56,-29.84 214.76,-36.48"/>
</a>
</g>
</g>
</g>
</svg>
