<?xml version="1.0" encoding="UTF-8" standalone="no"?>
<!DOCTYPE svg PUBLIC "-//W3C//DTD SVG 1.1//EN"
 "http://www.w3.org/Graphics/SVG/1.1/DTD/svg11.dtd">
<!-- Generated by graphviz version 2.43.0 (0)
 -->
<!-- Title: src/ui/src/ControllerPanelSphereItem.cpp Pages: 1 -->
<svg width="819pt" height="159pt"
 viewBox="0.00 0.00 819.00 159.00" xmlns="http://www.w3.org/2000/svg" xmlns:xlink="http://www.w3.org/1999/xlink">
<g id="graph0" class="graph" transform="scale(1 1) rotate(0) translate(4 155)">
<title>src/ui/src/ControllerPanelSphereItem.cpp</title>
<!-- Node1 -->
<g id="Node000001" class="node">
<title>Node1</title>
<g id="a_Node000001"><a xlink:title=" ">
<polygon fill="#999999" stroke="#666666" points="495,-151 358,-151 358,-121 495,-121 495,-151"/>
<text text-anchor="start" x="366" y="-139" font-family="Helvetica,sans-Serif" font-size="10.00">src/ui/src/ControllerPanel</text>
<text text-anchor="middle" x="426.5" y="-128" font-family="Helvetica,sans-Serif" font-size="10.00">SphereItem.cpp</text>
</a>
</g>
</g>
<!-- Node2 -->
<g id="Node000002" class="node">
<title>Node2</title>
<g id="a_Node000002"><a xlink:href="ControllerPanelSphereItem_8hpp.html" target="_top" xlink:title=" ">
<polygon fill="white" stroke="#666666" points="137,-85 0,-85 0,-55 137,-55 137,-85"/>
<text text-anchor="start" x="8" y="-73" font-family="Helvetica,sans-Serif" font-size="10.00">ui/ControllerPanelSphere</text>
<text text-anchor="middle" x="68.5" y="-62" font-family="Helvetica,sans-Serif" font-size="10.00">Item.hpp</text>
</a>
</g>
</g>
<!-- Node1&#45;&gt;Node2 -->
<g id="edge1_Node000001_Node000002" class="edge">
<title>Node1&#45;&gt;Node2</title>
<g id="a_edge1_Node000001_Node000002"><a xlink:title=" ">
<path fill="none" stroke="#63b8ff" d="M357.74,-122.74C303.39,-113.04 225.28,-99.1 147.39,-85.16"/>
<polygon fill="#63b8ff" stroke="#63b8ff" points="147.86,-81.69 137.4,-83.37 146.63,-88.58 147.86,-81.69"/>
</a>
</g>
</g>
<!-- Node4 -->
<g id="Node000004" class="node">
<title>Node4</title>
<g id="a_Node000004"><a xlink:title=" ">
<polygon fill="#e0e0e0" stroke="#999999" points="205.5,-79.5 155.5,-79.5 155.5,-60.5 205.5,-60.5 205.5,-79.5"/>
<text text-anchor="middle" x="180.5" y="-67.5" font-family="Helvetica,sans-Serif" font-size="10.00">QColor</text>
</a>
</g>
</g>
<!-- Node1&#45;&gt;Node4 -->
<g id="edge3_Node000001_Node000004" class="edge">
<title>Node1&#45;&gt;Node4</title>
<g id="a_edge3_Node000001_Node000004"><a xlink:title=" ">
<path fill="none" stroke="#63b8ff" d="M357.86,-121.42C316.25,-112.53 262.34,-99.83 215.5,-85 213.63,-84.41 211.71,-83.76 209.79,-83.08"/>
<polygon fill="#63b8ff" stroke="#63b8ff" points="210.9,-79.76 200.3,-79.51 208.43,-86.31 210.9,-79.76"/>
</a>
</g>
</g>
<!-- Node5 -->
<g id="Node000005" class="node">
<title>Node5</title>
<g id="a_Node000005"><a xlink:title=" ">
<polygon fill="#e0e0e0" stroke="#999999" points="305,-79.5 224,-79.5 224,-60.5 305,-60.5 305,-79.5"/>
<text text-anchor="middle" x="264.5" y="-67.5" font-family="Helvetica,sans-Serif" font-size="10.00">QColorDialog</text>
</a>
</g>
</g>
<!-- Node1&#45;&gt;Node5 -->
<g id="edge4_Node000001_Node000005" class="edge">
<title>Node1&#45;&gt;Node5</title>
<g id="a_edge4_Node000001_Node000005"><a xlink:title=" ">
<path fill="none" stroke="#63b8ff" d="M390.95,-120.95C362.41,-109.68 322.75,-94.01 295.5,-83.25"/>
<polygon fill="#63b8ff" stroke="#63b8ff" points="296.65,-79.94 286.06,-79.52 294.07,-86.45 296.65,-79.94"/>
</a>
</g>
</g>
<!-- Node6 -->
<g id="Node000006" class="node">
<title>Node6</title>
<g id="a_Node000006"><a xlink:title=" ">
<polygon fill="#e0e0e0" stroke="#999999" points="421.5,-79.5 323.5,-79.5 323.5,-60.5 421.5,-60.5 421.5,-79.5"/>
<text text-anchor="middle" x="372.5" y="-67.5" font-family="Helvetica,sans-Serif" font-size="10.00">QDoubleSpinBox</text>
</a>
</g>
</g>
<!-- Node1&#45;&gt;Node6 -->
<g id="edge5_Node000001_Node000006" class="edge">
<title>Node1&#45;&gt;Node6</title>
<g id="a_edge5_Node000001_Node000006"><a xlink:title=" ">
<path fill="none" stroke="#63b8ff" d="M414.52,-120.8C406.26,-111.01 395.26,-97.98 386.59,-87.7"/>
<polygon fill="#63b8ff" stroke="#63b8ff" points="389.09,-85.23 379.96,-79.84 383.74,-89.74 389.09,-85.23"/>
</a>
</g>
</g>
<!-- Node7 -->
<g id="Node000007" class="node">
<title>Node7</title>
<g id="a_Node000007"><a xlink:title=" ">
<polygon fill="#e0e0e0" stroke="#999999" points="521.5,-79.5 439.5,-79.5 439.5,-60.5 521.5,-60.5 521.5,-79.5"/>
<text text-anchor="middle" x="480.5" y="-67.5" font-family="Helvetica,sans-Serif" font-size="10.00">QFormLayout</text>
</a>
</g>
</g>
<!-- Node1&#45;&gt;Node7 -->
<g id="edge6_Node000001_Node000007" class="edge">
<title>Node1&#45;&gt;Node7</title>
<g id="a_edge6_Node000001_Node000007"><a xlink:title=" ">
<path fill="none" stroke="#63b8ff" d="M438.48,-120.8C446.74,-111.01 457.74,-97.98 466.41,-87.7"/>
<polygon fill="#63b8ff" stroke="#63b8ff" points="469.26,-89.74 473.04,-79.84 463.91,-85.23 469.26,-89.74"/>
</a>
</g>
</g>
<!-- Node8 -->
<g id="Node000008" class="node">
<title>Node8</title>
<g id="a_Node000008"><a xlink:title=" ">
<polygon fill="#e0e0e0" stroke="#999999" points="611.5,-79.5 539.5,-79.5 539.5,-60.5 611.5,-60.5 611.5,-79.5"/>
<text text-anchor="middle" x="575.5" y="-67.5" font-family="Helvetica,sans-Serif" font-size="10.00">QGroupBox</text>
</a>
</g>
</g>
<!-- Node1&#45;&gt;Node8 -->
<g id="edge7_Node000001_Node000008" class="edge">
<title>Node1&#45;&gt;Node8</title>
<g id="a_edge7_Node000001_Node000008"><a xlink:title=" ">
<path fill="none" stroke="#63b8ff" d="M459.2,-120.95C485.21,-109.78 521.28,-94.29 546.33,-83.53"/>
<polygon fill="#63b8ff" stroke="#63b8ff" points="547.86,-86.68 555.67,-79.52 545.1,-80.25 547.86,-86.68"/>
</a>
</g>
</g>
<!-- Node9 -->
<g id="Node000009" class="node">
<title>Node9</title>
<g id="a_Node000009"><a xlink:title=" ">
<polygon fill="#e0e0e0" stroke="#999999" points="709.5,-79.5 629.5,-79.5 629.5,-60.5 709.5,-60.5 709.5,-79.5"/>
<text text-anchor="middle" x="669.5" y="-67.5" font-family="Helvetica,sans-Serif" font-size="10.00">QPushButton</text>
</a>
</g>
</g>
<!-- Node1&#45;&gt;Node9 -->
<g id="edge8_Node000001_Node000009" class="edge">
<title>Node1&#45;&gt;Node9</title>
<g id="a_edge8_Node000001_Node000009"><a xlink:title=" ">
<path fill="none" stroke="#63b8ff" d="M482.63,-120.94C521.43,-111.13 574.18,-97.58 620.5,-85 623.66,-84.14 626.93,-83.24 630.21,-82.32"/>
<polygon fill="#63b8ff" stroke="#63b8ff" points="631.32,-85.65 640,-79.56 629.42,-78.91 631.32,-85.65"/>
</a>
</g>
</g>
<!-- Node10 -->
<g id="Node000010" class="node">
<title>Node10</title>
<g id="a_Node000010"><a xlink:title=" ">
<polygon fill="#e0e0e0" stroke="#999999" points="811,-79.5 728,-79.5 728,-60.5 811,-60.5 811,-79.5"/>
<text text-anchor="middle" x="769.5" y="-67.5" font-family="Helvetica,sans-Serif" font-size="10.00">QVBoxLayout</text>
</a>
</g>
</g>
<!-- Node1&#45;&gt;Node10 -->
<g id="edge9_Node000001_Node000010" class="edge">
<title>Node1&#45;&gt;Node10</title>
<g id="a_edge9_Node000001_Node000010"><a xlink:title=" ">
<path fill="none" stroke="#63b8ff" d="M495.02,-125.22C554.43,-116.27 642.56,-101.88 718.5,-85 722.37,-84.14 726.39,-83.17 730.39,-82.15"/>
<polygon fill="#63b8ff" stroke="#63b8ff" points="731.45,-85.5 740.23,-79.57 729.67,-78.73 731.45,-85.5"/>
</a>
</g>
</g>
<!-- Node3 -->
<g id="Node000003" class="node">
<title>Node3</title>
<g id="a_Node000003"><a xlink:title=" ">
<polygon fill="#e0e0e0" stroke="#999999" points="98,-19 39,-19 39,0 98,0 98,-19"/>
<text text-anchor="middle" x="68.5" y="-7" font-family="Helvetica,sans-Serif" font-size="10.00">QWidget</text>
</a>
</g>
</g>
<!-- Node2&#45;&gt;Node3 -->
<g id="edge2_Node000002_Node000003" class="edge">
<title>Node2&#45;&gt;Node3</title>
<g id="a_edge2_Node000002_Node000003"><a xlink:title=" ">
<path fill="none" stroke="#63b8ff" d="M68.5,-54.84C68.5,-47.21 68.5,-37.7 68.5,-29.45"/>
<polygon fill="#63b8ff" stroke="#63b8ff" points="72,-29.27 68.5,-19.27 65,-29.27 72,-29.27"/>
</a>
</g>
</g>
</g>
</svg>
