<?xml version="1.0" encoding="UTF-8" standalone="no"?>
<!DOCTYPE svg PUBLIC "-//W3C//DTD SVG 1.1//EN"
 "http://www.w3.org/Graphics/SVG/1.1/DTD/svg11.dtd">
<!-- Generated by graphviz version 2.43.0 (0)
 -->
<!-- Title: src/ui/include/ui/ControllerPanelCornerAnnotationItem.hpp Pages: 1 -->
<svg width="476pt" height="214pt"
 viewBox="0.00 0.00 476.00 214.00" xmlns="http://www.w3.org/2000/svg" xmlns:xlink="http://www.w3.org/1999/xlink">

<svg id="main" version="1.1" xmlns="http://www.w3.org/2000/svg" xmlns:xlink="http://www.w3.org/1999/xlink" xml:space="preserve" onload="init(evt)">
<style type="text/css"><![CDATA[
.node, .edge {opacity: 0.7;}
.node.selected, .edge.selected {opacity: 1;}
.edge:hover path { stroke: red; }
.edge:hover polygon { stroke: red; fill: red; }
]]></style>
<script type="application/ecmascript" xlink:href="svg.min.js"/>
<svg id="graph" class="graph">
<g id="graph0" class="graph" transform="scale(1 1) rotate(0) translate(4 210)">
<title>src/ui/include/ui/ControllerPanelCornerAnnotationItem.hpp</title>
<!-- Node1 -->
<g id="Node000001" class="node">
<title>Node1</title>
<g id="a_Node000001"><a xlink:title=" ">
<polygon fill="#999999" stroke="#666666" points="235,-206 63,-206 63,-176 235,-176 235,-206"/>
<text text-anchor="start" x="71" y="-194" font-family="Helvetica,sans-Serif" font-size="10.00">src/ui/include/ui/Controller</text>
<text text-anchor="middle" x="149" y="-183" font-family="Helvetica,sans-Serif" font-size="10.00">PanelCornerAnnotationItem.hpp</text>
</a>
</g>
</g>
<!-- Node2 -->
<g id="Node000002" class="node">
<title>Node2</title>
<g id="a_Node000002"><a xlink:title=" ">
<polygon fill="#e0e0e0" stroke="#999999" points="50,-74 0,-74 0,-55 50,-55 50,-74"/>
<text text-anchor="middle" x="25" y="-62" font-family="Helvetica,sans-Serif" font-size="10.00">QColor</text>
</a>
</g>
</g>
<!-- Node1&#45;&gt;Node2 -->
<g id="edge1_Node000001_Node000002" class="edge">
<title>Node1&#45;&gt;Node2</title>
<g id="a_edge1_Node000001_Node000002"><a xlink:title=" ">
<path fill="none" stroke="#63b8ff" d="M134.78,-175.72C111.46,-152.31 65.26,-105.92 40.9,-81.46"/>
<polygon fill="#63b8ff" stroke="#63b8ff" points="43.07,-78.69 33.54,-74.07 38.11,-83.62 43.07,-78.69"/>
</a>
</g>
</g>
<!-- Node3 -->
<g id="Node000003" class="node">
<title>Node3</title>
<g id="a_Node000003"><a xlink:title=" ">
<polygon fill="#e0e0e0" stroke="#999999" points="127.5,-74 68.5,-74 68.5,-55 127.5,-55 127.5,-74"/>
<text text-anchor="middle" x="98" y="-62" font-family="Helvetica,sans-Serif" font-size="10.00">QWidget</text>
</a>
</g>
</g>
<!-- Node1&#45;&gt;Node3 -->
<g id="edge2_Node000001_Node000003" class="edge">
<title>Node1&#45;&gt;Node3</title>
<g id="a_edge2_Node000001_Node000003"><a xlink:title=" ">
<path fill="none" stroke="#63b8ff" d="M138.18,-175.82C131.26,-166.17 122.58,-152.86 117,-140 109.12,-121.85 104,-99.74 101.08,-84.35"/>
<polygon fill="#63b8ff" stroke="#63b8ff" points="104.45,-83.3 99.27,-74.06 97.55,-84.51 104.45,-83.3"/>
</a>
</g>
</g>
<!-- Node4 -->
<g id="Node000004" class="node">
<title>Node4</title>
<g id="a_Node000004"><a xlink:href="CornerAnnotationOverlay_8hpp.html" target="_top" xlink:title=" ">
<polygon fill="white" stroke="#666666" points="273.5,-140 126.5,-140 126.5,-110 273.5,-110 273.5,-140"/>
<text text-anchor="start" x="134.5" y="-128" font-family="Helvetica,sans-Serif" font-size="10.00">overlays/CornerAnnotation</text>
<text text-anchor="middle" x="200" y="-117" font-family="Helvetica,sans-Serif" font-size="10.00">Overlay.hpp</text>
</a>
</g>
</g>
<!-- Node1&#45;&gt;Node4 -->
<g id="edge3_Node000001_Node000004" class="edge">
<title>Node1&#45;&gt;Node4</title>
<g id="a_edge3_Node000001_Node000004"><a xlink:title=" ">
<path fill="none" stroke="#63b8ff" d="M160.32,-175.8C166.79,-167.68 175.05,-157.31 182.35,-148.15"/>
<polygon fill="#63b8ff" stroke="#63b8ff" points="185.22,-150.17 188.71,-140.16 179.74,-145.8 185.22,-150.17"/>
</a>
</g>
</g>
<!-- Node8 -->
<g id="Node000008" class="node">
<title>Node8</title>
<g id="a_Node000008"><a xlink:href="IOverlay_8hpp.html" target="_top" xlink:title=" ">
<polygon fill="white" stroke="#666666" points="468,-74 346,-74 346,-55 468,-55 468,-74"/>
<text text-anchor="middle" x="407" y="-62" font-family="Helvetica,sans-Serif" font-size="10.00">overlays/IOverlay.hpp</text>
</a>
</g>
</g>
<!-- Node1&#45;&gt;Node8 -->
<g id="edge12_Node000001_Node000008" class="edge">
<title>Node1&#45;&gt;Node8</title>
<g id="a_edge12_Node000001_Node000008"><a xlink:title=" ">
<path fill="none" stroke="#63b8ff" d="M192.34,-175.9C218.74,-166.78 252.88,-154.01 282,-140 319.95,-121.74 361.48,-95.67 385.84,-79.7"/>
<polygon fill="#63b8ff" stroke="#63b8ff" points="387.87,-82.55 394.29,-74.12 384.01,-76.71 387.87,-82.55"/>
</a>
</g>
</g>
<!-- Node4&#45;&gt;Node2 -->
<g id="edge4_Node000004_Node000002" class="edge">
<title>Node4&#45;&gt;Node2</title>
<g id="a_edge4_Node000004_Node000002"><a xlink:title=" ">
<path fill="none" stroke="#63b8ff" d="M158.08,-109.99C128.09,-99.96 88.19,-86.62 59.93,-77.18"/>
<polygon fill="#63b8ff" stroke="#63b8ff" points="60.67,-73.73 50.08,-73.88 58.45,-80.37 60.67,-73.73"/>
</a>
</g>
</g>
<!-- Node4&#45;&gt;Node3 -->
<g id="edge8_Node000004_Node000003" class="edge">
<title>Node4&#45;&gt;Node3</title>
<g id="a_edge8_Node000004_Node000003"><a xlink:title=" ">
<path fill="none" stroke="#63b8ff" d="M175.57,-109.99C159.31,-100.66 138.05,-88.47 121.9,-79.21"/>
<polygon fill="#63b8ff" stroke="#63b8ff" points="123.48,-76.08 113.06,-74.14 120,-82.15 123.48,-76.08"/>
</a>
</g>
</g>
<!-- Node5 -->
<g id="Node000005" class="node">
<title>Node5</title>
<g id="a_Node000005"><a xlink:title=" ">
<polygon fill="#e0e0e0" stroke="#999999" points="190.5,-74 145.5,-74 145.5,-55 190.5,-55 190.5,-74"/>
<text text-anchor="middle" x="168" y="-62" font-family="Helvetica,sans-Serif" font-size="10.00">QFont</text>
</a>
</g>
</g>
<!-- Node4&#45;&gt;Node5 -->
<g id="edge5_Node000004_Node000005" class="edge">
<title>Node4&#45;&gt;Node5</title>
<g id="a_edge5_Node000004_Node000005"><a xlink:title=" ">
<path fill="none" stroke="#63b8ff" d="M192.25,-109.84C187.85,-101.78 182.29,-91.62 177.6,-83.06"/>
<polygon fill="#63b8ff" stroke="#63b8ff" points="180.66,-81.36 172.8,-74.27 174.52,-84.72 180.66,-81.36"/>
</a>
</g>
</g>
<!-- Node6 -->
<g id="Node000006" class="node">
<title>Node6</title>
<g id="a_Node000006"><a xlink:title=" ">
<polygon fill="#e0e0e0" stroke="#999999" points="289.5,-74 208.5,-74 208.5,-55 289.5,-55 289.5,-74"/>
<text text-anchor="middle" x="249" y="-62" font-family="Helvetica,sans-Serif" font-size="10.00">QFontMetrics</text>
</a>
</g>
</g>
<!-- Node4&#45;&gt;Node6 -->
<g id="edge6_Node000004_Node000006" class="edge">
<title>Node4&#45;&gt;Node6</title>
<g id="a_edge6_Node000004_Node000006"><a xlink:title=" ">
<path fill="none" stroke="#63b8ff" d="M211.86,-109.84C218.9,-101.43 227.86,-90.74 235.21,-81.96"/>
<polygon fill="#63b8ff" stroke="#63b8ff" points="237.92,-84.18 241.66,-74.27 232.55,-79.68 237.92,-84.18"/>
</a>
</g>
</g>
<!-- Node7 -->
<g id="Node000007" class="node">
<title>Node7</title>
<g id="a_Node000007"><a xlink:title=" ">
<polygon fill="#e0e0e0" stroke="#999999" points="356.5,-19 303.5,-19 303.5,0 356.5,0 356.5,-19"/>
<text text-anchor="middle" x="330" y="-7" font-family="Helvetica,sans-Serif" font-size="10.00">QString</text>
</a>
</g>
</g>
<!-- Node4&#45;&gt;Node7 -->
<g id="edge7_Node000004_Node000007" class="edge">
<title>Node4&#45;&gt;Node7</title>
<g id="a_edge7_Node000004_Node000007"><a xlink:title=" ">
<path fill="none" stroke="#63b8ff" d="M241.36,-109.8C260.41,-101.65 282.24,-89.84 298,-74 310.5,-61.43 319.05,-42.98 324.14,-29.2"/>
<polygon fill="#63b8ff" stroke="#63b8ff" points="327.59,-29.95 327.5,-19.36 320.96,-27.7 327.59,-29.95"/>
</a>
</g>
</g>
<!-- Node4&#45;&gt;Node8 -->
<g id="edge9_Node000004_Node000008" class="edge">
<title>Node4&#45;&gt;Node8</title>
<g id="a_edge9_Node000004_Node000008"><a xlink:title=" ">
<path fill="none" stroke="#63b8ff" d="M249.58,-109.99C285.46,-99.85 333.33,-86.32 366.83,-76.85"/>
<polygon fill="#63b8ff" stroke="#63b8ff" points="368.06,-80.14 376.73,-74.05 366.16,-73.41 368.06,-80.14"/>
</a>
</g>
</g>
<!-- Node8&#45;&gt;Node7 -->
<g id="edge11_Node000008_Node000007" class="edge">
<title>Node8&#45;&gt;Node7</title>
<g id="a_edge11_Node000008_Node000007"><a xlink:title=" ">
<path fill="none" stroke="#63b8ff" d="M394.63,-54.98C382.91,-46.92 365.08,-34.65 351.11,-25.03"/>
<polygon fill="#63b8ff" stroke="#63b8ff" points="352.82,-21.96 342.6,-19.17 348.85,-27.72 352.82,-21.96"/>
</a>
</g>
</g>
<!-- Node9 -->
<g id="Node000009" class="node">
<title>Node9</title>
<g id="a_Node000009"><a xlink:title=" ">
<polygon fill="#e0e0e0" stroke="#999999" points="427.5,-19 386.5,-19 386.5,0 427.5,0 427.5,-19"/>
<text text-anchor="middle" x="407" y="-7" font-family="Helvetica,sans-Serif" font-size="10.00">QList</text>
</a>
</g>
</g>
<!-- Node8&#45;&gt;Node9 -->
<g id="edge10_Node000008_Node000009" class="edge">
<title>Node8&#45;&gt;Node9</title>
<g id="a_edge10_Node000008_Node000009"><a xlink:title=" ">
<path fill="none" stroke="#63b8ff" d="M407,-54.75C407,-47.8 407,-37.85 407,-29.13"/>
<polygon fill="#63b8ff" stroke="#63b8ff" points="410.5,-29.09 407,-19.09 403.5,-29.09 410.5,-29.09"/>
</a>
</g>
</g>
</g>
</svg>
</svg>

<style type='text/css'>
<![CDATA[
[data-mouse-over-selected='false'] { opacity: 0.7; }
[data-mouse-over-selected='true']  { opacity: 1.0; }
]]>
</style>
<script type="application/ecmascript"><![CDATA[
document.addEventListener('DOMContentLoaded', (event) => {
  highlightEdges();
  highlightAdjacentNodes();
});
]]></script>
</svg>
