<?xml version="1.0" encoding="UTF-8" standalone="no"?>
<!DOCTYPE svg PUBLIC "-//W3C//DTD SVG 1.1//EN"
 "http://www.w3.org/Graphics/SVG/1.1/DTD/svg11.dtd">
<!-- Generated by graphviz version 2.43.0 (0)
 -->
<!-- Title: src/ui/src/ControllerPanel.cpp Pages: 1 -->
<svg width="1304pt" height="269pt"
 viewBox="0.00 0.00 1303.50 269.00" xmlns="http://www.w3.org/2000/svg" xmlns:xlink="http://www.w3.org/1999/xlink">
<g id="graph0" class="graph" transform="scale(1 1) rotate(0) translate(4 265)">
<title>src/ui/src/ControllerPanel.cpp</title>
<!-- Node1 -->
<g id="Node000001" class="node">
<title>Node1</title>
<g id="a_Node000001"><a xlink:title=" ">
<polygon fill="#999999" stroke="#666666" points="844,-261 686,-261 686,-242 844,-242 844,-261"/>
<text text-anchor="middle" x="765" y="-249" font-family="Helvetica,sans-Serif" font-size="10.00">src/ui/src/ControllerPanel.cpp</text>
</a>
</g>
</g>
<!-- Node2 -->
<g id="Node000002" class="node">
<title>Node2</title>
<g id="a_Node000002"><a xlink:href="ControllerPanel_8hpp.html" target="_top" xlink:title=" ">
<polygon fill="white" stroke="#666666" points="476,-134.5 352,-134.5 352,-115.5 476,-115.5 476,-134.5"/>
<text text-anchor="middle" x="414" y="-122.5" font-family="Helvetica,sans-Serif" font-size="10.00">ui/ControllerPanel.hpp</text>
</a>
</g>
</g>
<!-- Node1&#45;&gt;Node2 -->
<g id="edge1_Node000001_Node000002" class="edge">
<title>Node1&#45;&gt;Node2</title>
<g id="a_edge1_Node000001_Node000002"><a xlink:title=" ">
<path fill="none" stroke="#63b8ff" d="M724.96,-241.93C690.16,-234.03 638.63,-221.24 595,-206 538.23,-186.17 474.47,-156.05 439.82,-138.99"/>
<polygon fill="#63b8ff" stroke="#63b8ff" points="441.37,-135.85 430.85,-134.54 438.26,-142.12 441.37,-135.85"/>
</a>
</g>
</g>
<!-- Node4 -->
<g id="Node000004" class="node">
<title>Node4</title>
<g id="a_Node000004"><a xlink:title=" ">
<polygon fill="#e0e0e0" stroke="#999999" points="1185.5,-200.5 1110.5,-200.5 1110.5,-181.5 1185.5,-181.5 1185.5,-200.5"/>
<text text-anchor="middle" x="1148" y="-188.5" font-family="Helvetica,sans-Serif" font-size="10.00">QTabWidget</text>
</a>
</g>
</g>
<!-- Node1&#45;&gt;Node4 -->
<g id="edge3_Node000001_Node000004" class="edge">
<title>Node1&#45;&gt;Node4</title>
<g id="a_edge3_Node000001_Node000004"><a xlink:title=" ">
<path fill="none" stroke="#63b8ff" d="M844.28,-243.74C912.97,-237 1014.76,-224.9 1102,-206 1105.45,-205.25 1109.01,-204.37 1112.56,-203.42"/>
<polygon fill="#63b8ff" stroke="#63b8ff" points="1113.76,-206.72 1122.41,-200.6 1111.83,-199.99 1113.76,-206.72"/>
</a>
</g>
</g>
<!-- Node5 -->
<g id="Node000005" class="node">
<title>Node5</title>
<g id="a_Node000005"><a xlink:title=" ">
<polygon fill="#e0e0e0" stroke="#999999" points="1286.5,-200.5 1203.5,-200.5 1203.5,-181.5 1286.5,-181.5 1286.5,-200.5"/>
<text text-anchor="middle" x="1245" y="-188.5" font-family="Helvetica,sans-Serif" font-size="10.00">QVBoxLayout</text>
</a>
</g>
</g>
<!-- Node1&#45;&gt;Node5 -->
<g id="edge4_Node000001_Node000005" class="edge">
<title>Node1&#45;&gt;Node5</title>
<g id="a_edge4_Node000001_Node000005"><a xlink:title=" ">
<path fill="none" stroke="#63b8ff" d="M844.05,-246.36C930.75,-240.87 1073.72,-229.08 1195,-206 1199.18,-205.2 1203.53,-204.22 1207.83,-203.16"/>
<polygon fill="#63b8ff" stroke="#63b8ff" points="1208.92,-206.49 1217.69,-200.55 1207.13,-199.72 1208.92,-206.49"/>
</a>
</g>
</g>
<!-- Node6 -->
<g id="Node000006" class="node">
<title>Node6</title>
<g id="a_Node000006"><a xlink:href="ControllerPanelCornerAnnotationItem_8hpp.html" target="_top" xlink:title=" ">
<polygon fill="white" stroke="#666666" points="915.5,-206 780.5,-206 780.5,-176 915.5,-176 915.5,-206"/>
<text text-anchor="start" x="788.5" y="-194" font-family="Helvetica,sans-Serif" font-size="10.00">ui/ControllerPanelCorner</text>
<text text-anchor="middle" x="848" y="-183" font-family="Helvetica,sans-Serif" font-size="10.00">AnnotationItem.hpp</text>
</a>
</g>
</g>
<!-- Node1&#45;&gt;Node6 -->
<g id="edge5_Node000001_Node000006" class="edge">
<title>Node1&#45;&gt;Node6</title>
<g id="a_edge5_Node000001_Node000006"><a xlink:title=" ">
<path fill="none" stroke="#63b8ff" d="M777.25,-241.87C788.4,-234 805.3,-222.09 819.79,-211.89"/>
<polygon fill="#63b8ff" stroke="#63b8ff" points="821.82,-214.74 827.97,-206.11 817.78,-209.01 821.82,-214.74"/>
</a>
</g>
</g>
<!-- Node14 -->
<g id="Node000014" class="node">
<title>Node14</title>
<g id="a_Node000014"><a xlink:href="ControllerPanelDicomItem_8hpp.html" target="_top" xlink:title=" ">
<polygon fill="white" stroke="#666666" points="178,-134.5 0,-134.5 0,-115.5 178,-115.5 178,-134.5"/>
<text text-anchor="middle" x="89" y="-122.5" font-family="Helvetica,sans-Serif" font-size="10.00">ui/ControllerPanelDicomItem.hpp</text>
</a>
</g>
</g>
<!-- Node1&#45;&gt;Node14 -->
<g id="edge18_Node000001_Node000014" class="edge">
<title>Node1&#45;&gt;Node14</title>
<g id="a_edge18_Node000001_Node000014"><a xlink:title=" ">
<path fill="none" stroke="#63b8ff" d="M685.97,-243.33C613.75,-236.13 504.19,-223.57 410,-206 307.26,-186.83 188.39,-154.49 128.23,-137.39"/>
<polygon fill="#63b8ff" stroke="#63b8ff" points="128.97,-133.96 118.39,-134.58 127.05,-140.69 128.97,-133.96"/>
</a>
</g>
</g>
<!-- Node15 -->
<g id="Node000015" class="node">
<title>Node15</title>
<g id="a_Node000015"><a xlink:href="ControllerPanelFPSOverlayItem_8hpp.html" target="_top" xlink:title=" ">
<polygon fill="white" stroke="#666666" points="1092.5,-206 933.5,-206 933.5,-176 1092.5,-176 1092.5,-206"/>
<text text-anchor="start" x="941.5" y="-194" font-family="Helvetica,sans-Serif" font-size="10.00">ui/ControllerPanelFPSOverlay</text>
<text text-anchor="middle" x="1013" y="-183" font-family="Helvetica,sans-Serif" font-size="10.00">Item.hpp</text>
</a>
</g>
</g>
<!-- Node1&#45;&gt;Node15 -->
<g id="edge20_Node000001_Node000015" class="edge">
<title>Node1&#45;&gt;Node15</title>
<g id="a_edge20_Node000001_Node000015"><a xlink:title=" ">
<path fill="none" stroke="#63b8ff" d="M801.06,-241.99C838.23,-233.23 897.13,-219.33 943.41,-208.42"/>
<polygon fill="#63b8ff" stroke="#63b8ff" points="944.45,-211.77 953.38,-206.06 942.84,-204.95 944.45,-211.77"/>
</a>
</g>
</g>
<!-- Node20 -->
<g id="Node000020" class="node">
<title>Node20</title>
<g id="a_Node000020"><a xlink:href="ControllerPanelOrientationMarkerItem_8hpp.html" target="_top" xlink:title=" ">
<polygon fill="white" stroke="#666666" points="762,-206 604,-206 604,-176 762,-176 762,-206"/>
<text text-anchor="start" x="612" y="-194" font-family="Helvetica,sans-Serif" font-size="10.00">ui/ControllerPanelOrientation</text>
<text text-anchor="middle" x="683" y="-183" font-family="Helvetica,sans-Serif" font-size="10.00">MarkerItem.hpp</text>
</a>
</g>
</g>
<!-- Node1&#45;&gt;Node20 -->
<g id="edge29_Node000001_Node000020" class="edge">
<title>Node1&#45;&gt;Node20</title>
<g id="a_edge29_Node000001_Node000020"><a xlink:title=" ">
<path fill="none" stroke="#63b8ff" d="M752.9,-241.87C741.98,-234.08 725.49,-222.32 711.28,-212.17"/>
<polygon fill="#63b8ff" stroke="#63b8ff" points="712.96,-209.07 702.78,-206.11 708.89,-214.77 712.96,-209.07"/>
</a>
</g>
</g>
<!-- Node22 -->
<g id="Node000022" class="node">
<title>Node22</title>
<g id="a_Node000022"><a xlink:href="ControllerPanelSphereItem_8hpp.html" target="_top" xlink:title=" ">
<polygon fill="white" stroke="#666666" points="333.5,-140 196.5,-140 196.5,-110 333.5,-110 333.5,-140"/>
<text text-anchor="start" x="204.5" y="-128" font-family="Helvetica,sans-Serif" font-size="10.00">ui/ControllerPanelSphere</text>
<text text-anchor="middle" x="265" y="-117" font-family="Helvetica,sans-Serif" font-size="10.00">Item.hpp</text>
</a>
</g>
</g>
<!-- Node1&#45;&gt;Node22 -->
<g id="edge39_Node000001_Node000022" class="edge">
<title>Node1&#45;&gt;Node22</title>
<g id="a_edge39_Node000001_Node000022"><a xlink:title=" ">
<path fill="none" stroke="#63b8ff" d="M706.65,-242C656.74,-234.22 583.17,-221.58 520,-206 447.36,-188.08 365.06,-161 314.09,-143.4"/>
<polygon fill="#63b8ff" stroke="#63b8ff" points="314.92,-139.98 304.32,-140.01 312.62,-146.6 314.92,-139.98"/>
</a>
</g>
</g>
<!-- Node3 -->
<g id="Node000003" class="node">
<title>Node3</title>
<g id="a_Node000003"><a xlink:title=" ">
<polygon fill="#e0e0e0" stroke="#999999" points="552.5,-74 493.5,-74 493.5,-55 552.5,-55 552.5,-74"/>
<text text-anchor="middle" x="523" y="-62" font-family="Helvetica,sans-Serif" font-size="10.00">QWidget</text>
</a>
</g>
</g>
<!-- Node2&#45;&gt;Node3 -->
<g id="edge2_Node000002_Node000003" class="edge">
<title>Node2&#45;&gt;Node3</title>
<g id="a_edge2_Node000002_Node000003"><a xlink:title=" ">
<path fill="none" stroke="#63b8ff" d="M430.08,-115.37C447.95,-105.78 477.04,-90.17 497.91,-78.97"/>
<polygon fill="#63b8ff" stroke="#63b8ff" points="499.69,-81.98 506.85,-74.17 496.38,-75.81 499.69,-81.98"/>
</a>
</g>
</g>
<!-- Node6&#45;&gt;Node3 -->
<g id="edge7_Node000006_Node000003" class="edge">
<title>Node6&#45;&gt;Node3</title>
<g id="a_edge7_Node000006_Node000003"><a xlink:title=" ">
<path fill="none" stroke="#63b8ff" d="M780.4,-177.68C777.22,-177.11 774.08,-176.55 771,-176 679.94,-159.73 641.79,-193.04 566,-140 546.55,-126.39 534.67,-100.94 528.46,-83.62"/>
<polygon fill="#63b8ff" stroke="#63b8ff" points="531.77,-82.46 525.31,-74.06 525.12,-84.65 531.77,-82.46"/>
</a>
</g>
</g>
<!-- Node7 -->
<g id="Node000007" class="node">
<title>Node7</title>
<g id="a_Node000007"><a xlink:title=" ">
<polygon fill="#e0e0e0" stroke="#999999" points="1053,-74 1003,-74 1003,-55 1053,-55 1053,-74"/>
<text text-anchor="middle" x="1028" y="-62" font-family="Helvetica,sans-Serif" font-size="10.00">QColor</text>
</a>
</g>
</g>
<!-- Node6&#45;&gt;Node7 -->
<g id="edge6_Node000006_Node000007" class="edge">
<title>Node6&#45;&gt;Node7</title>
<g id="a_edge6_Node000006_Node000007"><a xlink:title=" ">
<path fill="none" stroke="#63b8ff" d="M882.61,-175.94C902.8,-167 928.28,-154.42 949,-140 973.77,-122.76 998.46,-97.95 1013.48,-81.78"/>
<polygon fill="#63b8ff" stroke="#63b8ff" points="1016.24,-83.94 1020.4,-74.19 1011.07,-79.22 1016.24,-83.94"/>
</a>
</g>
</g>
<!-- Node8 -->
<g id="Node000008" class="node">
<title>Node8</title>
<g id="a_Node000008"><a xlink:href="CornerAnnotationOverlay_8hpp.html" target="_top" xlink:title=" ">
<polygon fill="white" stroke="#666666" points="923.5,-140 776.5,-140 776.5,-110 923.5,-110 923.5,-140"/>
<text text-anchor="start" x="784.5" y="-128" font-family="Helvetica,sans-Serif" font-size="10.00">overlays/CornerAnnotation</text>
<text text-anchor="middle" x="850" y="-117" font-family="Helvetica,sans-Serif" font-size="10.00">Overlay.hpp</text>
</a>
</g>
</g>
<!-- Node6&#45;&gt;Node8 -->
<g id="edge8_Node000006_Node000008" class="edge">
<title>Node6&#45;&gt;Node8</title>
<g id="a_edge8_Node000006_Node000008"><a xlink:title=" ">
<path fill="none" stroke="#63b8ff" d="M848.44,-175.8C848.68,-168.34 848.97,-158.99 849.24,-150.41"/>
<polygon fill="#63b8ff" stroke="#63b8ff" points="852.74,-150.27 849.56,-140.16 845.75,-150.05 852.74,-150.27"/>
</a>
</g>
</g>
<!-- Node12 -->
<g id="Node000012" class="node">
<title>Node12</title>
<g id="a_Node000012"><a xlink:href="IOverlay_8hpp.html" target="_top" xlink:title=" ">
<polygon fill="white" stroke="#666666" points="985,-74 863,-74 863,-55 985,-55 985,-74"/>
<text text-anchor="middle" x="924" y="-62" font-family="Helvetica,sans-Serif" font-size="10.00">overlays/IOverlay.hpp</text>
</a>
</g>
</g>
<!-- Node6&#45;&gt;Node12 -->
<g id="edge17_Node000006_Node000012" class="edge">
<title>Node6&#45;&gt;Node12</title>
<g id="a_edge17_Node000006_Node000012"><a xlink:title=" ">
<path fill="none" stroke="#63b8ff" d="M889.84,-175.93C906.33,-168.09 923.56,-156.5 933,-140 942.77,-122.91 937.87,-100.03 932.22,-84.16"/>
<polygon fill="#63b8ff" stroke="#63b8ff" points="935.3,-82.44 928.35,-74.45 928.8,-85.03 935.3,-82.44"/>
</a>
</g>
</g>
<!-- Node8&#45;&gt;Node3 -->
<g id="edge13_Node000008_Node000003" class="edge">
<title>Node8&#45;&gt;Node3</title>
<g id="a_edge13_Node000008_Node000003"><a xlink:title=" ">
<path fill="none" stroke="#63b8ff" d="M776.21,-110.8C709.98,-98.95 615.32,-82.02 562.5,-72.57"/>
<polygon fill="#63b8ff" stroke="#63b8ff" points="562.97,-69.1 552.51,-70.78 561.74,-75.99 562.97,-69.1"/>
</a>
</g>
</g>
<!-- Node8&#45;&gt;Node7 -->
<g id="edge9_Node000008_Node000007" class="edge">
<title>Node8&#45;&gt;Node7</title>
<g id="a_edge9_Node000008_Node000007"><a xlink:title=" ">
<path fill="none" stroke="#63b8ff" d="M892.64,-109.99C923.36,-99.89 964.32,-86.43 993.11,-76.97"/>
<polygon fill="#63b8ff" stroke="#63b8ff" points="994.34,-80.25 1002.75,-73.8 992.16,-73.6 994.34,-80.25"/>
</a>
</g>
</g>
<!-- Node9 -->
<g id="Node000009" class="node">
<title>Node9</title>
<g id="a_Node000009"><a xlink:title=" ">
<polygon fill="#e0e0e0" stroke="#999999" points="707.5,-74 662.5,-74 662.5,-55 707.5,-55 707.5,-74"/>
<text text-anchor="middle" x="685" y="-62" font-family="Helvetica,sans-Serif" font-size="10.00">QFont</text>
</a>
</g>
</g>
<!-- Node8&#45;&gt;Node9 -->
<g id="edge10_Node000008_Node000009" class="edge">
<title>Node8&#45;&gt;Node9</title>
<g id="a_edge10_Node000008_Node000009"><a xlink:title=" ">
<path fill="none" stroke="#63b8ff" d="M810.48,-109.99C782.07,-99.92 744.24,-86.5 717.56,-77.05"/>
<polygon fill="#63b8ff" stroke="#63b8ff" points="718.53,-73.67 707.93,-73.63 716.19,-80.27 718.53,-73.67"/>
</a>
</g>
</g>
<!-- Node10 -->
<g id="Node000010" class="node">
<title>Node10</title>
<g id="a_Node000010"><a xlink:title=" ">
<polygon fill="#e0e0e0" stroke="#999999" points="806.5,-74 725.5,-74 725.5,-55 806.5,-55 806.5,-74"/>
<text text-anchor="middle" x="766" y="-62" font-family="Helvetica,sans-Serif" font-size="10.00">QFontMetrics</text>
</a>
</g>
</g>
<!-- Node8&#45;&gt;Node10 -->
<g id="edge11_Node000008_Node000010" class="edge">
<title>Node8&#45;&gt;Node10</title>
<g id="a_edge11_Node000008_Node000010"><a xlink:title=" ">
<path fill="none" stroke="#63b8ff" d="M829.67,-109.84C816.73,-100.83 800.01,-89.18 786.95,-80.09"/>
<polygon fill="#63b8ff" stroke="#63b8ff" points="788.79,-77.11 778.59,-74.27 784.79,-82.85 788.79,-77.11"/>
</a>
</g>
</g>
<!-- Node11 -->
<g id="Node000011" class="node">
<title>Node11</title>
<g id="a_Node000011"><a xlink:title=" ">
<polygon fill="#e0e0e0" stroke="#999999" points="861.5,-19 808.5,-19 808.5,0 861.5,0 861.5,-19"/>
<text text-anchor="middle" x="835" y="-7" font-family="Helvetica,sans-Serif" font-size="10.00">QString</text>
</a>
</g>
</g>
<!-- Node8&#45;&gt;Node11 -->
<g id="edge12_Node000008_Node000011" class="edge">
<title>Node8&#45;&gt;Node11</title>
<g id="a_edge12_Node000008_Node000011"><a xlink:title=" ">
<path fill="none" stroke="#63b8ff" d="M848.1,-109.63C845.4,-89.21 840.46,-51.81 837.48,-29.24"/>
<polygon fill="#63b8ff" stroke="#63b8ff" points="840.93,-28.68 836.15,-19.23 833.99,-29.6 840.93,-28.68"/>
</a>
</g>
</g>
<!-- Node8&#45;&gt;Node12 -->
<g id="edge14_Node000008_Node000012" class="edge">
<title>Node8&#45;&gt;Node12</title>
<g id="a_edge14_Node000008_Node000012"><a xlink:title=" ">
<path fill="none" stroke="#63b8ff" d="M867.91,-109.84C879.09,-101 893.48,-89.63 904.88,-80.62"/>
<polygon fill="#63b8ff" stroke="#63b8ff" points="907.24,-83.21 912.91,-74.27 902.9,-77.72 907.24,-83.21"/>
</a>
</g>
</g>
<!-- Node12&#45;&gt;Node11 -->
<g id="edge16_Node000012_Node000011" class="edge">
<title>Node12&#45;&gt;Node11</title>
<g id="a_edge16_Node000012_Node000011"><a xlink:title=" ">
<path fill="none" stroke="#63b8ff" d="M909.7,-54.98C895.9,-46.77 874.76,-34.18 858.49,-24.49"/>
<polygon fill="#63b8ff" stroke="#63b8ff" points="859.94,-21.28 849.56,-19.17 856.36,-27.29 859.94,-21.28"/>
</a>
</g>
</g>
<!-- Node13 -->
<g id="Node000013" class="node">
<title>Node13</title>
<g id="a_Node000013"><a xlink:title=" ">
<polygon fill="#e0e0e0" stroke="#999999" points="944.5,-19 903.5,-19 903.5,0 944.5,0 944.5,-19"/>
<text text-anchor="middle" x="924" y="-7" font-family="Helvetica,sans-Serif" font-size="10.00">QList</text>
</a>
</g>
</g>
<!-- Node12&#45;&gt;Node13 -->
<g id="edge15_Node000012_Node000013" class="edge">
<title>Node12&#45;&gt;Node13</title>
<g id="a_edge15_Node000012_Node000013"><a xlink:title=" ">
<path fill="none" stroke="#63b8ff" d="M924,-54.75C924,-47.8 924,-37.85 924,-29.13"/>
<polygon fill="#63b8ff" stroke="#63b8ff" points="927.5,-29.09 924,-19.09 920.5,-29.09 927.5,-29.09"/>
</a>
</g>
</g>
<!-- Node14&#45;&gt;Node3 -->
<g id="edge19_Node000014_Node000003" class="edge">
<title>Node14&#45;&gt;Node3</title>
<g id="a_edge19_Node000014_Node000003"><a xlink:title=" ">
<path fill="none" stroke="#63b8ff" d="M147.8,-115.5C160.71,-113.66 174.32,-111.75 187,-110 293.9,-95.29 420.07,-78.82 483.04,-70.66"/>
<polygon fill="#63b8ff" stroke="#63b8ff" points="483.85,-74.08 493.32,-69.33 482.95,-67.14 483.85,-74.08"/>
</a>
</g>
</g>
<!-- Node15&#45;&gt;Node3 -->
<g id="edge22_Node000015_Node000003" class="edge">
<title>Node15&#45;&gt;Node3</title>
<g id="a_edge22_Node000015_Node000003"><a xlink:title=" ">
<path fill="none" stroke="#63b8ff" d="M933.4,-177.16C930.57,-176.76 927.76,-176.37 925,-176 780.53,-156.54 730.72,-202.45 599,-140 591.63,-136.51 558.27,-102.39 538.28,-81.56"/>
<polygon fill="#63b8ff" stroke="#63b8ff" points="540.56,-78.88 531.12,-74.07 535.5,-83.71 540.56,-78.88"/>
</a>
</g>
</g>
<!-- Node15&#45;&gt;Node7 -->
<g id="edge21_Node000015_Node000007" class="edge">
<title>Node15&#45;&gt;Node7</title>
<g id="a_edge21_Node000015_Node000007"><a xlink:title=" ">
<path fill="none" stroke="#63b8ff" d="M1024.1,-175.6C1030.72,-166.08 1038.51,-152.99 1042,-140 1047.06,-121.18 1041.59,-99.21 1036.07,-84.03"/>
<polygon fill="#63b8ff" stroke="#63b8ff" points="1039.15,-82.31 1032.19,-74.32 1032.65,-84.9 1039.15,-82.31"/>
</a>
</g>
</g>
<!-- Node16 -->
<g id="Node000016" class="node">
<title>Node16</title>
<g id="a_Node000016"><a xlink:href="FPSOverlay_8hpp.html" target="_top" xlink:title=" ">
<polygon fill="white" stroke="#666666" points="1231.5,-134.5 1094.5,-134.5 1094.5,-115.5 1231.5,-115.5 1231.5,-134.5"/>
<text text-anchor="middle" x="1163" y="-122.5" font-family="Helvetica,sans-Serif" font-size="10.00">overlays/FPSOverlay.hpp</text>
</a>
</g>
</g>
<!-- Node15&#45;&gt;Node16 -->
<g id="edge23_Node000015_Node000016" class="edge">
<title>Node15&#45;&gt;Node16</title>
<g id="a_edge23_Node000015_Node000016"><a xlink:title=" ">
<path fill="none" stroke="#63b8ff" d="M1045.92,-175.95C1072.11,-164.78 1108.42,-149.29 1133.63,-138.53"/>
<polygon fill="#63b8ff" stroke="#63b8ff" points="1135.21,-141.66 1143.04,-134.52 1132.47,-135.22 1135.21,-141.66"/>
</a>
</g>
</g>
<!-- Node16&#45;&gt;Node7 -->
<g id="edge25_Node000016_Node000007" class="edge">
<title>Node16&#45;&gt;Node7</title>
<g id="a_edge25_Node000016_Node000007"><a xlink:title=" ">
<path fill="none" stroke="#63b8ff" d="M1143.37,-115.49C1120.67,-105.66 1083.1,-89.38 1057.03,-78.08"/>
<polygon fill="#63b8ff" stroke="#63b8ff" points="1058.22,-74.78 1047.65,-74.02 1055.44,-81.2 1058.22,-74.78"/>
</a>
</g>
</g>
<!-- Node16&#45;&gt;Node12 -->
<g id="edge28_Node000016_Node000012" class="edge">
<title>Node16&#45;&gt;Node12</title>
<g id="a_edge28_Node000016_Node000012"><a xlink:title=" ">
<path fill="none" stroke="#63b8ff" d="M1128.25,-115.49C1086.03,-105.16 1014.75,-87.71 968.54,-76.4"/>
<polygon fill="#63b8ff" stroke="#63b8ff" points="969.34,-72.99 958.79,-74.02 967.68,-79.79 969.34,-72.99"/>
</a>
</g>
</g>
<!-- Node17 -->
<g id="Node000017" class="node">
<title>Node17</title>
<g id="a_Node000017"><a xlink:title=" ">
<polygon fill="#e0e0e0" stroke="#999999" points="1186.5,-74 1139.5,-74 1139.5,-55 1186.5,-55 1186.5,-74"/>
<text text-anchor="middle" x="1163" y="-62" font-family="Helvetica,sans-Serif" font-size="10.00">deque</text>
</a>
</g>
</g>
<!-- Node16&#45;&gt;Node17 -->
<g id="edge24_Node000016_Node000017" class="edge">
<title>Node16&#45;&gt;Node17</title>
<g id="a_edge24_Node000016_Node000017"><a xlink:title=" ">
<path fill="none" stroke="#63b8ff" d="M1163,-115.37C1163,-107.25 1163,-94.81 1163,-84.39"/>
<polygon fill="#63b8ff" stroke="#63b8ff" points="1166.5,-84.17 1163,-74.17 1159.5,-84.17 1166.5,-84.17"/>
</a>
</g>
</g>
<!-- Node18 -->
<g id="Node000018" class="node">
<title>Node18</title>
<g id="a_Node000018"><a xlink:title=" ">
<polygon fill="#e0e0e0" stroke="#999999" points="1295.5,-74 1204.5,-74 1204.5,-55 1295.5,-55 1295.5,-74"/>
<text text-anchor="middle" x="1250" y="-62" font-family="Helvetica,sans-Serif" font-size="10.00">QElapsedTimer</text>
</a>
</g>
</g>
<!-- Node16&#45;&gt;Node18 -->
<g id="edge26_Node000016_Node000018" class="edge">
<title>Node16&#45;&gt;Node18</title>
<g id="a_edge26_Node000016_Node000018"><a xlink:title=" ">
<path fill="none" stroke="#63b8ff" d="M1175.84,-115.37C1189.72,-106.04 1212.07,-91.01 1228.61,-79.88"/>
<polygon fill="#63b8ff" stroke="#63b8ff" points="1230.76,-82.65 1237.11,-74.17 1226.86,-76.84 1230.76,-82.65"/>
</a>
</g>
</g>
<!-- Node19 -->
<g id="Node000019" class="node">
<title>Node19</title>
<g id="a_Node000019"><a xlink:title=" ">
<polygon fill="#e0e0e0" stroke="#999999" points="1121,-74 1071,-74 1071,-55 1121,-55 1121,-74"/>
<text text-anchor="middle" x="1096" y="-62" font-family="Helvetica,sans-Serif" font-size="10.00">QLabel</text>
</a>
</g>
</g>
<!-- Node16&#45;&gt;Node19 -->
<g id="edge27_Node000016_Node000019" class="edge">
<title>Node16&#45;&gt;Node19</title>
<g id="a_edge27_Node000016_Node000019"><a xlink:title=" ">
<path fill="none" stroke="#63b8ff" d="M1153.11,-115.37C1142.72,-106.3 1126.16,-91.84 1113.55,-80.82"/>
<polygon fill="#63b8ff" stroke="#63b8ff" points="1115.76,-78.11 1105.93,-74.17 1111.16,-83.38 1115.76,-78.11"/>
</a>
</g>
</g>
<!-- Node20&#45;&gt;Node3 -->
<g id="edge31_Node000020_Node000003" class="edge">
<title>Node20&#45;&gt;Node3</title>
<g id="a_edge31_Node000020_Node000003"><a xlink:title=" ">
<path fill="none" stroke="#63b8ff" d="M603.91,-182.76C575.63,-176.02 546.27,-163.4 528,-140 515.81,-124.39 516.39,-100.89 518.84,-84.46"/>
<polygon fill="#63b8ff" stroke="#63b8ff" points="522.32,-84.88 520.7,-74.41 515.44,-83.61 522.32,-84.88"/>
</a>
</g>
</g>
<!-- Node20&#45;&gt;Node7 -->
<g id="edge30_Node000020_Node000007" class="edge">
<title>Node20&#45;&gt;Node7</title>
<g id="a_edge30_Node000020_Node000007"><a xlink:title=" ">
<path fill="none" stroke="#63b8ff" d="M762.21,-176.35C829.56,-164.38 917.71,-147.72 933,-140 950.69,-131.07 950.59,-122.47 966,-110 978.97,-99.51 994.18,-88.57 1006.29,-80.17"/>
<polygon fill="#63b8ff" stroke="#63b8ff" points="1008.59,-82.83 1014.85,-74.28 1004.63,-77.06 1008.59,-82.83"/>
</a>
</g>
</g>
<!-- Node21 -->
<g id="Node000021" class="node">
<title>Node21</title>
<g id="a_Node000021"><a xlink:href="OrientationMarkerOverlay_8hpp.html" target="_top" xlink:title=" ">
<polygon fill="white" stroke="#666666" points="758,-140 608,-140 608,-110 758,-110 758,-140"/>
<text text-anchor="start" x="616" y="-128" font-family="Helvetica,sans-Serif" font-size="10.00">overlays/OrientationMarker</text>
<text text-anchor="middle" x="683" y="-117" font-family="Helvetica,sans-Serif" font-size="10.00">Overlay.hpp</text>
</a>
</g>
</g>
<!-- Node20&#45;&gt;Node21 -->
<g id="edge32_Node000020_Node000021" class="edge">
<title>Node20&#45;&gt;Node21</title>
<g id="a_edge32_Node000020_Node000021"><a xlink:title=" ">
<path fill="none" stroke="#63b8ff" d="M683,-175.8C683,-168.34 683,-158.99 683,-150.41"/>
<polygon fill="#63b8ff" stroke="#63b8ff" points="686.5,-150.16 683,-140.16 679.5,-150.16 686.5,-150.16"/>
</a>
</g>
</g>
<!-- Node21&#45;&gt;Node3 -->
<g id="edge37_Node000021_Node000003" class="edge">
<title>Node21&#45;&gt;Node3</title>
<g id="a_edge37_Node000021_Node000003"><a xlink:title=" ">
<path fill="none" stroke="#63b8ff" d="M644.68,-109.99C617.74,-100.14 582.07,-87.1 556.31,-77.68"/>
<polygon fill="#63b8ff" stroke="#63b8ff" points="557.22,-74.29 546.63,-74.14 554.82,-80.86 557.22,-74.29"/>
</a>
</g>
</g>
<!-- Node21&#45;&gt;Node7 -->
<g id="edge33_Node000021_Node000007" class="edge">
<title>Node21&#45;&gt;Node7</title>
<g id="a_edge33_Node000021_Node000007"><a xlink:title=" ">
<path fill="none" stroke="#63b8ff" d="M758.08,-111.61C761.43,-111.07 764.75,-110.53 768,-110 865.26,-94.24 892.65,-94.33 992.87,-74.08"/>
<polygon fill="#63b8ff" stroke="#63b8ff" points="993.71,-77.48 1002.8,-72.06 992.31,-70.63 993.71,-77.48"/>
</a>
</g>
</g>
<!-- Node21&#45;&gt;Node9 -->
<g id="edge34_Node000021_Node000009" class="edge">
<title>Node21&#45;&gt;Node9</title>
<g id="a_edge34_Node000021_Node000009"><a xlink:title=" ">
<path fill="none" stroke="#63b8ff" d="M683.48,-109.84C683.74,-102.21 684.07,-92.7 684.35,-84.45"/>
<polygon fill="#63b8ff" stroke="#63b8ff" points="687.86,-84.38 684.7,-74.27 680.86,-84.14 687.86,-84.38"/>
</a>
</g>
</g>
<!-- Node21&#45;&gt;Node10 -->
<g id="edge35_Node000021_Node000010" class="edge">
<title>Node21&#45;&gt;Node10</title>
<g id="a_edge35_Node000021_Node000010"><a xlink:title=" ">
<path fill="none" stroke="#63b8ff" d="M703.09,-109.84C715.88,-100.83 732.4,-89.18 745.3,-80.09"/>
<polygon fill="#63b8ff" stroke="#63b8ff" points="747.41,-82.89 753.56,-74.27 743.37,-77.17 747.41,-82.89"/>
</a>
</g>
</g>
<!-- Node21&#45;&gt;Node11 -->
<g id="edge36_Node000021_Node000011" class="edge">
<title>Node21&#45;&gt;Node11</title>
<g id="a_edge36_Node000021_Node000011"><a xlink:title=" ">
<path fill="none" stroke="#63b8ff" d="M669.13,-109.9C656.26,-95.08 640.93,-71.67 654,-55 671.58,-32.58 750.6,-19.95 798.23,-14.25"/>
<polygon fill="#63b8ff" stroke="#63b8ff" points="798.64,-17.72 808.17,-13.1 797.84,-10.77 798.64,-17.72"/>
</a>
</g>
</g>
<!-- Node21&#45;&gt;Node12 -->
<g id="edge38_Node000021_Node000012" class="edge">
<title>Node21&#45;&gt;Node12</title>
<g id="a_edge38_Node000021_Node000012"><a xlink:title=" ">
<path fill="none" stroke="#63b8ff" d="M740.73,-109.99C783.04,-99.72 839.68,-85.97 878.73,-76.49"/>
<polygon fill="#63b8ff" stroke="#63b8ff" points="879.87,-79.81 888.76,-74.05 878.22,-73.01 879.87,-79.81"/>
</a>
</g>
</g>
<!-- Node22&#45;&gt;Node3 -->
<g id="edge40_Node000022_Node000003" class="edge">
<title>Node22&#45;&gt;Node3</title>
<g id="a_edge40_Node000022_Node000003"><a xlink:title=" ">
<path fill="none" stroke="#63b8ff" d="M326.8,-109.99C375.41,-98.96 441.7,-83.94 483.42,-74.48"/>
<polygon fill="#63b8ff" stroke="#63b8ff" points="484.23,-77.88 493.21,-72.25 482.69,-71.05 484.23,-77.88"/>
</a>
</g>
</g>
</g>
</svg>
