<?xml version="1.0" encoding="UTF-8" standalone="no"?>
<!DOCTYPE svg PUBLIC "-//W3C//DTD SVG 1.1//EN"
 "http://www.w3.org/Graphics/SVG/1.1/DTD/svg11.dtd">
<!-- Generated by graphviz version 2.43.0 (0)
 -->
<!-- Title: src/ui/include/ui/ControllerPanelCornerAnnotationItem.hpp Pages: 1 -->
<svg width="494pt" height="104pt"
 viewBox="0.00 0.00 494.00 104.00" xmlns="http://www.w3.org/2000/svg" xmlns:xlink="http://www.w3.org/1999/xlink">
<g id="graph0" class="graph" transform="scale(1 1) rotate(0) translate(4 100)">
<title>src/ui/include/ui/ControllerPanelCornerAnnotationItem.hpp</title>
<!-- Node1 -->
<g id="Node000001" class="node">
<title>Node1</title>
<g id="a_Node000001"><a xlink:title=" ">
<polygon fill="#999999" stroke="#666666" points="335,-96 163,-96 163,-66 335,-66 335,-96"/>
<text text-anchor="start" x="171" y="-84" font-family="Helvetica,sans-Serif" font-size="10.00">src/ui/include/ui/Controller</text>
<text text-anchor="middle" x="249" y="-73" font-family="Helvetica,sans-Serif" font-size="10.00">PanelCornerAnnotationItem.hpp</text>
</a>
</g>
</g>
<!-- Node2 -->
<g id="Node000002" class="node">
<title>Node2</title>
<g id="a_Node000002"><a xlink:href="ControllerPanel_8cpp.html" target="_top" xlink:title=" ">
<polygon fill="white" stroke="#666666" points="158,-24.5 0,-24.5 0,-5.5 158,-5.5 158,-24.5"/>
<text text-anchor="middle" x="79" y="-12.5" font-family="Helvetica,sans-Serif" font-size="10.00">src/ui/src/ControllerPanel.cpp</text>
</a>
</g>
</g>
<!-- Node1&#45;&gt;Node2 -->
<g id="edge1_Node000001_Node000002" class="edge">
<title>Node1&#45;&gt;Node2</title>
<g id="a_edge1_Node000001_Node000002"><a xlink:title=" ">
<path fill="none" stroke="#63b8ff" d="M202.3,-62.42C169.55,-50.09 127.2,-34.15 101.62,-24.52"/>
<polygon fill="#63b8ff" stroke="#63b8ff" points="201.1,-65.71 211.69,-65.95 203.57,-59.16 201.1,-65.71"/>
</a>
</g>
</g>
<!-- Node3 -->
<g id="Node000003" class="node">
<title>Node3</title>
<g id="a_Node000003"><a xlink:href="ControllerPanelCornerAnnotationItem_8cpp.html" target="_top" xlink:title=" ">
<polygon fill="white" stroke="#666666" points="321.5,-30 176.5,-30 176.5,0 321.5,0 321.5,-30"/>
<text text-anchor="start" x="184.5" y="-18" font-family="Helvetica,sans-Serif" font-size="10.00">src/ui/src/ControllerPanel</text>
<text text-anchor="middle" x="249" y="-7" font-family="Helvetica,sans-Serif" font-size="10.00">CornerAnnotationItem.cpp</text>
</a>
</g>
</g>
<!-- Node1&#45;&gt;Node3 -->
<g id="edge2_Node000001_Node000003" class="edge">
<title>Node1&#45;&gt;Node3</title>
<g id="a_edge2_Node000001_Node000003"><a xlink:title=" ">
<path fill="none" stroke="#63b8ff" d="M249,-55.54C249,-46.96 249,-37.61 249,-30.16"/>
<polygon fill="#63b8ff" stroke="#63b8ff" points="245.5,-55.8 249,-65.8 252.5,-55.8 245.5,-55.8"/>
</a>
</g>
</g>
<!-- Node4 -->
<g id="Node000004" class="node">
<title>Node4</title>
<g id="a_Node000004"><a xlink:href="MainWindow_8cpp.html" target="_top" xlink:title=" ">
<polygon fill="white" stroke="#666666" points="486,-24.5 340,-24.5 340,-5.5 486,-5.5 486,-24.5"/>
<text text-anchor="middle" x="413" y="-12.5" font-family="Helvetica,sans-Serif" font-size="10.00">src/ui/src/MainWindow.cpp</text>
</a>
</g>
</g>
<!-- Node1&#45;&gt;Node4 -->
<g id="edge3_Node000001_Node000004" class="edge">
<title>Node1&#45;&gt;Node4</title>
<g id="a_edge3_Node000001_Node000004"><a xlink:title=" ">
<path fill="none" stroke="#63b8ff" d="M294.46,-62.26C326,-49.95 366.6,-34.11 391.17,-24.52"/>
<polygon fill="#63b8ff" stroke="#63b8ff" points="293.03,-59.06 284.99,-65.95 295.58,-65.58 293.03,-59.06"/>
</a>
</g>
</g>
</g>
</svg>
