<?xml version="1.0" encoding="UTF-8" standalone="no"?>
<!DOCTYPE svg PUBLIC "-//W3C//DTD SVG 1.1//EN"
 "http://www.w3.org/Graphics/SVG/1.1/DTD/svg11.dtd">
<!-- Generated by graphviz version 2.43.0 (0)
 -->
<!-- Title: src/ui/include/ui/ControllerPanelOrientationMarkerItem.hpp Pages: 1 -->
<svg width="332pt" height="104pt"
 viewBox="0.00 0.00 332.00 104.00" xmlns="http://www.w3.org/2000/svg" xmlns:xlink="http://www.w3.org/1999/xlink">
<g id="graph0" class="graph" transform="scale(1 1) rotate(0) translate(4 100)">
<title>src/ui/include/ui/ControllerPanelOrientationMarkerItem.hpp</title>
<!-- Node1 -->
<g id="Node000001" class="node">
<title>Node1</title>
<g id="a_Node000001"><a xlink:title=" ">
<polygon fill="#999999" stroke="#666666" points="251.5,-96 76.5,-96 76.5,-66 251.5,-66 251.5,-96"/>
<text text-anchor="start" x="84.5" y="-84" font-family="Helvetica,sans-Serif" font-size="10.00">src/ui/include/ui/Controller</text>
<text text-anchor="middle" x="164" y="-73" font-family="Helvetica,sans-Serif" font-size="10.00">PanelOrientationMarkerItem.hpp</text>
</a>
</g>
</g>
<!-- Node2 -->
<g id="Node000002" class="node">
<title>Node2</title>
<g id="a_Node000002"><a xlink:href="ControllerPanel_8cpp.html" target="_top" xlink:title=" ">
<polygon fill="white" stroke="#666666" points="158,-24.5 0,-24.5 0,-5.5 158,-5.5 158,-24.5"/>
<text text-anchor="middle" x="79" y="-12.5" font-family="Helvetica,sans-Serif" font-size="10.00">src/ui/src/ControllerPanel.cpp</text>
</a>
</g>
</g>
<!-- Node1&#45;&gt;Node2 -->
<g id="edge1_Node000001_Node000002" class="edge">
<title>Node1&#45;&gt;Node2</title>
<g id="a_edge1_Node000001_Node000002"><a xlink:title=" ">
<path fill="none" stroke="#63b8ff" d="M136.89,-59.58C121.33,-47.87 102.6,-33.77 90.75,-24.84"/>
<polygon fill="#63b8ff" stroke="#63b8ff" points="135.04,-62.58 145.14,-65.8 139.25,-56.99 135.04,-62.58"/>
</a>
</g>
</g>
<!-- Node3 -->
<g id="Node000003" class="node">
<title>Node3</title>
<g id="a_Node000003"><a xlink:href="ControllerPanelOrientationMarkerItem_8cpp.html" target="_top" xlink:title=" ">
<polygon fill="white" stroke="#666666" points="324,-30 176,-30 176,0 324,0 324,-30"/>
<text text-anchor="start" x="184" y="-18" font-family="Helvetica,sans-Serif" font-size="10.00">src/ui/src/ControllerPanel</text>
<text text-anchor="middle" x="250" y="-7" font-family="Helvetica,sans-Serif" font-size="10.00">OrientationMarkerItem.cpp</text>
</a>
</g>
</g>
<!-- Node1&#45;&gt;Node3 -->
<g id="edge2_Node000001_Node000003" class="edge">
<title>Node1&#45;&gt;Node3</title>
<g id="a_edge2_Node000001_Node000003"><a xlink:title=" ">
<path fill="none" stroke="#63b8ff" d="M191.21,-59.75C204.14,-50.13 219.29,-38.86 230.97,-30.16"/>
<polygon fill="#63b8ff" stroke="#63b8ff" points="189.02,-57.02 183.09,-65.8 193.2,-62.63 189.02,-57.02"/>
</a>
</g>
</g>
</g>
</svg>
