<?xml version="1.0" encoding="UTF-8" standalone="no"?>
<!DOCTYPE svg PUBLIC "-//W3C//DTD SVG 1.1//EN"
 "http://www.w3.org/Graphics/SVG/1.1/DTD/svg11.dtd">
<!-- Generated by graphviz version 2.43.0 (0)
 -->
<!-- Title: src/overlays/include/overlays/CornerAnnotationOverlay.hpp Pages: 1 -->
<svg width="1041pt" height="225pt"
 viewBox="0.00 0.00 1040.50 225.00" xmlns="http://www.w3.org/2000/svg" xmlns:xlink="http://www.w3.org/1999/xlink">
<g id="graph0" class="graph" transform="scale(1 1) rotate(0) translate(4 221)">
<title>src/overlays/include/overlays/CornerAnnotationOverlay.hpp</title>
<!-- Node1 -->
<g id="Node000001" class="node">
<title>Node1</title>
<g id="a_Node000001"><a xlink:title=" ">
<polygon fill="#999999" stroke="#666666" points="657.5,-217 449.5,-217 449.5,-187 657.5,-187 657.5,-217"/>
<text text-anchor="start" x="457.5" y="-205" font-family="Helvetica,sans-Serif" font-size="10.00">src/overlays/include</text>
<text text-anchor="middle" x="553.5" y="-194" font-family="Helvetica,sans-Serif" font-size="10.00">/overlays/CornerAnnotationOverlay.hpp</text>
</a>
</g>
</g>
<!-- Node2 -->
<g id="Node000002" class="node">
<title>Node2</title>
<g id="a_Node000002"><a xlink:href="OverlayLayoutAdapter_8cpp.html" target="_top" xlink:title=" ">
<polygon fill="white" stroke="#666666" points="135,-151 0,-151 0,-121 135,-121 135,-151"/>
<text text-anchor="start" x="8" y="-139" font-family="Helvetica,sans-Serif" font-size="10.00">src/adapters/src/Overlay</text>
<text text-anchor="middle" x="67.5" y="-128" font-family="Helvetica,sans-Serif" font-size="10.00">LayoutAdapter.cpp</text>
</a>
</g>
</g>
<!-- Node1&#45;&gt;Node2 -->
<g id="edge1_Node000001_Node000002" class="edge">
<title>Node1&#45;&gt;Node2</title>
<g id="a_edge1_Node000001_Node000002"><a xlink:title=" ">
<path fill="none" stroke="#63b8ff" d="M439.36,-188.85C357.19,-179.66 243.79,-166.08 144.5,-151 141.41,-150.53 138.25,-150.03 135.07,-149.51"/>
<polygon fill="#63b8ff" stroke="#63b8ff" points="439.15,-192.35 449.47,-189.97 439.92,-185.39 439.15,-192.35"/>
</a>
</g>
</g>
<!-- Node3 -->
<g id="Node000003" class="node">
<title>Node3</title>
<g id="a_Node000003"><a xlink:href="CornerAnnotationOverlay_8cpp.html" target="_top" xlink:title=" ">
<polygon fill="white" stroke="#666666" points="335.5,-151 153.5,-151 153.5,-121 335.5,-121 335.5,-151"/>
<text text-anchor="start" x="161.5" y="-139" font-family="Helvetica,sans-Serif" font-size="10.00">src/overlays/src/CornerAnnotation</text>
<text text-anchor="middle" x="244.5" y="-128" font-family="Helvetica,sans-Serif" font-size="10.00">Overlay.cpp</text>
</a>
</g>
</g>
<!-- Node1&#45;&gt;Node3 -->
<g id="edge2_Node000001_Node000003" class="edge">
<title>Node1&#45;&gt;Node3</title>
<g id="a_edge2_Node000001_Node000003"><a xlink:title=" ">
<path fill="none" stroke="#63b8ff" d="M475.82,-184.91C425.43,-174.47 360.42,-161.01 312.15,-151.01"/>
<polygon fill="#63b8ff" stroke="#63b8ff" points="475.19,-188.35 485.69,-186.95 476.61,-181.5 475.19,-188.35"/>
</a>
</g>
</g>
<!-- Node4 -->
<g id="Node000004" class="node">
<title>Node4</title>
<g id="a_Node000004"><a xlink:href="ControllerPanelCornerAnnotationItem_8hpp.html" target="_top" xlink:title=" ">
<polygon fill="white" stroke="#666666" points="525.5,-151 353.5,-151 353.5,-121 525.5,-121 525.5,-151"/>
<text text-anchor="start" x="361.5" y="-139" font-family="Helvetica,sans-Serif" font-size="10.00">src/ui/include/ui/Controller</text>
<text text-anchor="middle" x="439.5" y="-128" font-family="Helvetica,sans-Serif" font-size="10.00">PanelCornerAnnotationItem.hpp</text>
</a>
</g>
</g>
<!-- Node1&#45;&gt;Node4 -->
<g id="edge3_Node000001_Node000004" class="edge">
<title>Node1&#45;&gt;Node4</title>
<g id="a_edge3_Node000001_Node000004"><a xlink:title=" ">
<path fill="none" stroke="#63b8ff" d="M519.6,-181.97C501.9,-172.03 480.63,-160.09 464.46,-151.01"/>
<polygon fill="#63b8ff" stroke="#63b8ff" points="518.05,-185.11 528.48,-186.95 521.48,-179.01 518.05,-185.11"/>
</a>
</g>
</g>
<!-- Node7 -->
<g id="Node000007" class="node">
<title>Node7</title>
<g id="a_Node000007"><a xlink:href="MainWindow_8cpp.html" target="_top" xlink:title=" ">
<polygon fill="white" stroke="#666666" points="655.5,-19 509.5,-19 509.5,0 655.5,0 655.5,-19"/>
<text text-anchor="middle" x="582.5" y="-7" font-family="Helvetica,sans-Serif" font-size="10.00">src/ui/src/MainWindow.cpp</text>
</a>
</g>
</g>
<!-- Node1&#45;&gt;Node7 -->
<g id="edge14_Node000001_Node000007" class="edge">
<title>Node1&#45;&gt;Node7</title>
<g id="a_edge14_Node000001_Node000007"><a xlink:title=" ">
<path fill="none" stroke="#63b8ff" d="M555.96,-176.8C559.08,-147.75 564.95,-97.63 572.5,-55 574.71,-42.52 578.06,-28.26 580.27,-19.32"/>
<polygon fill="#63b8ff" stroke="#63b8ff" points="552.47,-176.53 554.91,-186.84 559.43,-177.26 552.47,-176.53"/>
</a>
</g>
</g>
<!-- Node8 -->
<g id="Node000008" class="node">
<title>Node8</title>
<g id="a_Node000008"><a xlink:href="IView_8hpp.html" target="_top" xlink:title=" ">
<polygon fill="white" stroke="#666666" points="733,-145.5 590,-145.5 590,-126.5 733,-126.5 733,-145.5"/>
<text text-anchor="middle" x="661.5" y="-133.5" font-family="Helvetica,sans-Serif" font-size="10.00">src/ui/include/ui/IView.hpp</text>
</a>
</g>
</g>
<!-- Node1&#45;&gt;Node8 -->
<g id="edge7_Node000001_Node000008" class="edge">
<title>Node1&#45;&gt;Node8</title>
<g id="a_edge7_Node000001_Node000008"><a xlink:title=" ">
<path fill="none" stroke="#63b8ff" d="M585.88,-181.81C606.27,-169.73 631.57,-154.73 647.13,-145.52"/>
<polygon fill="#63b8ff" stroke="#63b8ff" points="584.02,-178.85 577.2,-186.95 587.59,-184.87 584.02,-178.85"/>
</a>
</g>
</g>
<!-- Node10 -->
<g id="Node000010" class="node">
<title>Node10</title>
<g id="a_Node000010"><a xlink:href="MultiWindowView_8cpp.html" target="_top" xlink:title=" ">
<polygon fill="white" stroke="#666666" points="857.5,-19 687.5,-19 687.5,0 857.5,0 857.5,-19"/>
<text text-anchor="middle" x="772.5" y="-7" font-family="Helvetica,sans-Serif" font-size="10.00">src/ui/src/MultiWindowView.cpp</text>
</a>
</g>
</g>
<!-- Node1&#45;&gt;Node10 -->
<g id="edge15_Node000001_Node000010" class="edge">
<title>Node1&#45;&gt;Node10</title>
<g id="a_edge15_Node000001_Node000010"><a xlink:title=" ">
<path fill="none" stroke="#63b8ff" d="M641.2,-184.95C736.11,-165.53 878.04,-129.79 908.5,-85 932.72,-49.38 873.54,-29.18 825.75,-19.05"/>
<polygon fill="#63b8ff" stroke="#63b8ff" points="640.41,-181.54 631.31,-186.95 641.8,-188.4 640.41,-181.54"/>
</a>
</g>
</g>
<!-- Node12 -->
<g id="Node000012" class="node">
<title>Node12</title>
<g id="a_Node000012"><a xlink:href="ViewportView_8cpp.html" target="_top" xlink:title=" ">
<polygon fill="white" stroke="#666666" points="1032.5,-19 882.5,-19 882.5,0 1032.5,0 1032.5,-19"/>
<text text-anchor="middle" x="957.5" y="-7" font-family="Helvetica,sans-Serif" font-size="10.00">src/ui/src/ViewportView.cpp</text>
</a>
</g>
</g>
<!-- Node1&#45;&gt;Node12 -->
<g id="edge16_Node000001_Node000012" class="edge">
<title>Node1&#45;&gt;Node12</title>
<g id="a_edge16_Node000001_Node000012"><a xlink:title=" ">
<path fill="none" stroke="#63b8ff" d="M667.72,-192.36C719.85,-185.49 781.42,-173.15 833.5,-151 879.48,-131.45 893.08,-123.84 924.5,-85 941.23,-64.32 951.18,-33.84 955.29,-19.1"/>
<polygon fill="#63b8ff" stroke="#63b8ff" points="667.25,-188.89 657.77,-193.62 668.13,-195.84 667.25,-188.89"/>
</a>
</g>
</g>
<!-- Node5 -->
<g id="Node000005" class="node">
<title>Node5</title>
<g id="a_Node000005"><a xlink:href="ControllerPanel_8cpp.html" target="_top" xlink:title=" ">
<polygon fill="white" stroke="#666666" points="323.5,-79.5 165.5,-79.5 165.5,-60.5 323.5,-60.5 323.5,-79.5"/>
<text text-anchor="middle" x="244.5" y="-67.5" font-family="Helvetica,sans-Serif" font-size="10.00">src/ui/src/ControllerPanel.cpp</text>
</a>
</g>
</g>
<!-- Node4&#45;&gt;Node5 -->
<g id="edge4_Node000004_Node000005" class="edge">
<title>Node4&#45;&gt;Node5</title>
<g id="a_edge4_Node000004_Node000005"><a xlink:title=" ">
<path fill="none" stroke="#63b8ff" d="M386.9,-117.74C349.2,-105.36 300.04,-89.23 270.45,-79.52"/>
<polygon fill="#63b8ff" stroke="#63b8ff" points="386.11,-121.16 396.71,-120.95 388.3,-114.51 386.11,-121.16"/>
</a>
</g>
</g>
<!-- Node6 -->
<g id="Node000006" class="node">
<title>Node6</title>
<g id="a_Node000006"><a xlink:href="ControllerPanelCornerAnnotationItem_8cpp.html" target="_top" xlink:title=" ">
<polygon fill="white" stroke="#666666" points="487,-85 342,-85 342,-55 487,-55 487,-85"/>
<text text-anchor="start" x="350" y="-73" font-family="Helvetica,sans-Serif" font-size="10.00">src/ui/src/ControllerPanel</text>
<text text-anchor="middle" x="414.5" y="-62" font-family="Helvetica,sans-Serif" font-size="10.00">CornerAnnotationItem.cpp</text>
</a>
</g>
</g>
<!-- Node4&#45;&gt;Node6 -->
<g id="edge5_Node000004_Node000006" class="edge">
<title>Node4&#45;&gt;Node6</title>
<g id="a_edge5_Node000004_Node000006"><a xlink:title=" ">
<path fill="none" stroke="#63b8ff" d="M430.28,-111.39C426.84,-102.59 423.04,-92.86 420.03,-85.16"/>
<polygon fill="#63b8ff" stroke="#63b8ff" points="427.05,-112.76 433.95,-120.8 433.57,-110.21 427.05,-112.76"/>
</a>
</g>
</g>
<!-- Node4&#45;&gt;Node7 -->
<g id="edge6_Node000004_Node000007" class="edge">
<title>Node4&#45;&gt;Node7</title>
<g id="a_edge6_Node000004_Node000007"><a xlink:title=" ">
<path fill="none" stroke="#63b8ff" d="M463.18,-114.38C495.02,-86.67 550.2,-38.62 572.61,-19.11"/>
<polygon fill="#63b8ff" stroke="#63b8ff" points="460.87,-111.75 455.63,-120.96 465.47,-117.03 460.87,-111.75"/>
</a>
</g>
</g>
<!-- Node9 -->
<g id="Node000009" class="node">
<title>Node9</title>
<g id="a_Node000009"><a xlink:href="MultiWindowView_8hpp.html" target="_top" xlink:title=" ">
<polygon fill="white" stroke="#666666" points="741.5,-85 581.5,-85 581.5,-55 741.5,-55 741.5,-85"/>
<text text-anchor="start" x="589.5" y="-73" font-family="Helvetica,sans-Serif" font-size="10.00">src/ui/include/ui/MultiWindow</text>
<text text-anchor="middle" x="661.5" y="-62" font-family="Helvetica,sans-Serif" font-size="10.00">View.hpp</text>
</a>
</g>
</g>
<!-- Node8&#45;&gt;Node9 -->
<g id="edge8_Node000008_Node000009" class="edge">
<title>Node8&#45;&gt;Node9</title>
<g id="a_edge8_Node000008_Node000009"><a xlink:title=" ">
<path fill="none" stroke="#63b8ff" d="M661.5,-116.35C661.5,-106.47 661.5,-94.51 661.5,-85.36"/>
<polygon fill="#63b8ff" stroke="#63b8ff" points="658,-116.37 661.5,-126.37 665,-116.37 658,-116.37"/>
</a>
</g>
</g>
<!-- Node11 -->
<g id="Node000011" class="node">
<title>Node11</title>
<g id="a_Node000011"><a xlink:href="ViewportView_8hpp.html" target="_top" xlink:title=" ">
<polygon fill="white" stroke="#666666" points="899.5,-85 759.5,-85 759.5,-55 899.5,-55 899.5,-85"/>
<text text-anchor="start" x="767.5" y="-73" font-family="Helvetica,sans-Serif" font-size="10.00">src/ui/include/ui/Viewport</text>
<text text-anchor="middle" x="829.5" y="-62" font-family="Helvetica,sans-Serif" font-size="10.00">View.hpp</text>
</a>
</g>
</g>
<!-- Node8&#45;&gt;Node11 -->
<g id="edge11_Node000008_Node000011" class="edge">
<title>Node8&#45;&gt;Node11</title>
<g id="a_edge11_Node000008_Node000011"><a xlink:title=" ">
<path fill="none" stroke="#63b8ff" d="M693.56,-122.79C721.77,-112.04 762.84,-96.4 792.45,-85.12"/>
<polygon fill="#63b8ff" stroke="#63b8ff" points="692.26,-119.54 684.16,-126.37 694.75,-126.08 692.26,-119.54"/>
</a>
</g>
</g>
<!-- Node9&#45;&gt;Node7 -->
<g id="edge9_Node000009_Node000007" class="edge">
<title>Node9&#45;&gt;Node7</title>
<g id="a_edge9_Node000009_Node000007"><a xlink:title=" ">
<path fill="none" stroke="#63b8ff" d="M634.24,-48.82C620.63,-38.73 604.85,-27.05 594.34,-19.27"/>
<polygon fill="#63b8ff" stroke="#63b8ff" points="632.26,-51.7 642.38,-54.84 636.42,-46.07 632.26,-51.7"/>
</a>
</g>
</g>
<!-- Node9&#45;&gt;Node10 -->
<g id="edge10_Node000009_Node000010" class="edge">
<title>Node9&#45;&gt;Node10</title>
<g id="a_edge10_Node000009_Node000010"><a xlink:title=" ">
<path fill="none" stroke="#63b8ff" d="M697.16,-50.21C716.96,-39.77 740.65,-27.29 756.11,-19.14"/>
<polygon fill="#63b8ff" stroke="#63b8ff" points="695.3,-47.23 688.09,-54.99 698.57,-53.42 695.3,-47.23"/>
</a>
</g>
</g>
<!-- Node11&#45;&gt;Node7 -->
<g id="edge12_Node000011_Node000007" class="edge">
<title>Node11&#45;&gt;Node7</title>
<g id="a_edge12_Node000011_Node000007"><a xlink:title=" ">
<path fill="none" stroke="#63b8ff" d="M760.42,-52.64C714.37,-41.73 655.71,-27.84 618.62,-19.05"/>
<polygon fill="#63b8ff" stroke="#63b8ff" points="759.8,-56.09 770.34,-54.99 761.41,-49.28 759.8,-56.09"/>
</a>
</g>
</g>
<!-- Node11&#45;&gt;Node12 -->
<g id="edge13_Node000011_Node000012" class="edge">
<title>Node11&#45;&gt;Node12</title>
<g id="a_edge13_Node000011_Node000012"><a xlink:title=" ">
<path fill="none" stroke="#63b8ff" d="M869.38,-50.77C892.46,-40.22 920.45,-27.43 938.6,-19.14"/>
<polygon fill="#63b8ff" stroke="#63b8ff" points="867.8,-47.65 860.16,-54.99 870.71,-54.01 867.8,-47.65"/>
</a>
</g>
</g>
</g>
</svg>
