<?xml version="1.0" encoding="UTF-8" standalone="no"?>
<!DOCTYPE svg PUBLIC "-//W3C//DTD SVG 1.1//EN"
 "http://www.w3.org/Graphics/SVG/1.1/DTD/svg11.dtd">
<!-- Generated by graphviz version 2.43.0 (0)
 -->
<!-- Title: src/overlays/src/CornerAnnotationOverlay.cpp Pages: 1 -->
<svg width="1409pt" height="214pt"
 viewBox="0.00 0.00 1409.00 214.00" xmlns="http://www.w3.org/2000/svg" xmlns:xlink="http://www.w3.org/1999/xlink">
<g id="graph0" class="graph" transform="scale(1 1) rotate(0) translate(4 210)">
<title>src/overlays/src/CornerAnnotationOverlay.cpp</title>
<!-- Node1 -->
<g id="Node000001" class="node">
<title>Node1</title>
<g id="a_Node000001"><a xlink:title=" ">
<polygon fill="#999999" stroke="#666666" points="992,-206 810,-206 810,-176 992,-176 992,-206"/>
<text text-anchor="start" x="818" y="-194" font-family="Helvetica,sans-Serif" font-size="10.00">src/overlays/src/CornerAnnotation</text>
<text text-anchor="middle" x="901" y="-183" font-family="Helvetica,sans-Serif" font-size="10.00">Overlay.cpp</text>
</a>
</g>
</g>
<!-- Node2 -->
<g id="Node000002" class="node">
<title>Node2</title>
<g id="a_Node000002"><a xlink:href="CornerAnnotationOverlay_8hpp.html" target="_top" xlink:title=" ">
<polygon fill="white" stroke="#666666" points="279.5,-140 132.5,-140 132.5,-110 279.5,-110 279.5,-140"/>
<text text-anchor="start" x="140.5" y="-128" font-family="Helvetica,sans-Serif" font-size="10.00">overlays/CornerAnnotation</text>
<text text-anchor="middle" x="206" y="-117" font-family="Helvetica,sans-Serif" font-size="10.00">Overlay.hpp</text>
</a>
</g>
</g>
<!-- Node1&#45;&gt;Node2 -->
<g id="edge1_Node000001_Node000002" class="edge">
<title>Node1&#45;&gt;Node2</title>
<g id="a_edge1_Node000001_Node000002"><a xlink:title=" ">
<path fill="none" stroke="#63b8ff" d="M809.87,-185.07C692.01,-178.13 480.21,-163.76 289.91,-140.17"/>
<polygon fill="#63b8ff" stroke="#63b8ff" points="290.07,-136.67 279.71,-138.9 289.2,-143.61 290.07,-136.67"/>
</a>
</g>
</g>
<!-- Node10 -->
<g id="Node000010" class="node">
<title>Node10</title>
<g id="a_Node000010"><a xlink:title=" ">
<polygon fill="#e0e0e0" stroke="#999999" points="454.5,-134.5 297.5,-134.5 297.5,-115.5 454.5,-115.5 454.5,-134.5"/>
<text text-anchor="middle" x="376" y="-122.5" font-family="Helvetica,sans-Serif" font-size="10.00">QVTKOpenGLNativeWidget.h</text>
</a>
</g>
</g>
<!-- Node1&#45;&gt;Node10 -->
<g id="edge10_Node000001_Node000010" class="edge">
<title>Node1&#45;&gt;Node10</title>
<g id="a_edge10_Node000001_Node000010"><a xlink:title=" ">
<path fill="none" stroke="#63b8ff" d="M809.62,-180.72C721.11,-171.46 583.16,-156.29 464,-140 455.31,-138.81 446.16,-137.46 437.17,-136.09"/>
<polygon fill="#63b8ff" stroke="#63b8ff" points="437.55,-132.6 427.13,-134.52 436.47,-139.52 437.55,-132.6"/>
</a>
</g>
</g>
<!-- Node11 -->
<g id="Node000011" class="node">
<title>Node11</title>
<g id="a_Node000011"><a xlink:title=" ">
<polygon fill="#e0e0e0" stroke="#999999" points="569.5,-134.5 472.5,-134.5 472.5,-115.5 569.5,-115.5 569.5,-134.5"/>
<text text-anchor="middle" x="521" y="-122.5" font-family="Helvetica,sans-Serif" font-size="10.00">vtkImageActor.h</text>
</a>
</g>
</g>
<!-- Node1&#45;&gt;Node11 -->
<g id="edge11_Node000001_Node000011" class="edge">
<title>Node1&#45;&gt;Node11</title>
<g id="a_edge11_Node000001_Node000011"><a xlink:title=" ">
<path fill="none" stroke="#63b8ff" d="M809.74,-177.88C745.08,-168.8 656.42,-155.33 579,-140 574.23,-139.06 569.27,-137.99 564.33,-136.87"/>
<polygon fill="#63b8ff" stroke="#63b8ff" points="564.86,-133.4 554.33,-134.54 563.27,-140.22 564.86,-133.4"/>
</a>
</g>
</g>
<!-- Node12 -->
<g id="Node000012" class="node">
<title>Node12</title>
<g id="a_Node000012"><a xlink:title=" ">
<polygon fill="#e0e0e0" stroke="#999999" points="682.5,-134.5 587.5,-134.5 587.5,-115.5 682.5,-115.5 682.5,-134.5"/>
<text text-anchor="middle" x="635" y="-122.5" font-family="Helvetica,sans-Serif" font-size="10.00">vtkImageData.h</text>
</a>
</g>
</g>
<!-- Node1&#45;&gt;Node12 -->
<g id="edge12_Node000001_Node000012" class="edge">
<title>Node1&#45;&gt;Node12</title>
<g id="a_edge12_Node000001_Node000012"><a xlink:title=" ">
<path fill="none" stroke="#63b8ff" d="M841.97,-175.98C800.1,-166.01 742.58,-152.26 692,-140 687.93,-139.01 683.71,-137.98 679.47,-136.95"/>
<polygon fill="#63b8ff" stroke="#63b8ff" points="680.2,-133.53 669.66,-134.55 678.54,-140.32 680.2,-133.53"/>
</a>
</g>
</g>
<!-- Node13 -->
<g id="Node000013" class="node">
<title>Node13</title>
<g id="a_Node000013"><a xlink:title=" ">
<polygon fill="#e0e0e0" stroke="#999999" points="813,-134.5 701,-134.5 701,-115.5 813,-115.5 813,-134.5"/>
<text text-anchor="middle" x="757" y="-122.5" font-family="Helvetica,sans-Serif" font-size="10.00">vtkImageProperty.h</text>
</a>
</g>
</g>
<!-- Node1&#45;&gt;Node13 -->
<g id="edge13_Node000001_Node000013" class="edge">
<title>Node1&#45;&gt;Node13</title>
<g id="a_edge13_Node000001_Node000013"><a xlink:title=" ">
<path fill="none" stroke="#63b8ff" d="M869.4,-175.95C844.37,-164.83 809.7,-149.42 785.51,-138.67"/>
<polygon fill="#63b8ff" stroke="#63b8ff" points="786.72,-135.38 776.16,-134.52 783.88,-141.78 786.72,-135.38"/>
</a>
</g>
</g>
<!-- Node14 -->
<g id="Node000014" class="node">
<title>Node14</title>
<g id="a_Node000014"><a xlink:title=" ">
<polygon fill="#e0e0e0" stroke="#999999" points="971,-134.5 831,-134.5 831,-115.5 971,-115.5 971,-134.5"/>
<text text-anchor="middle" x="901" y="-122.5" font-family="Helvetica,sans-Serif" font-size="10.00">vtkResliceImageViewer.h</text>
</a>
</g>
</g>
<!-- Node1&#45;&gt;Node14 -->
<g id="edge14_Node000001_Node000014" class="edge">
<title>Node1&#45;&gt;Node14</title>
<g id="a_edge14_Node000001_Node000014"><a xlink:title=" ">
<path fill="none" stroke="#63b8ff" d="M901,-175.8C901,-166.7 901,-154.79 901,-144.9"/>
<polygon fill="#63b8ff" stroke="#63b8ff" points="904.5,-144.84 901,-134.84 897.5,-144.84 904.5,-144.84"/>
</a>
</g>
</g>
<!-- Node15 -->
<g id="Node000015" class="node">
<title>Node15</title>
<g id="a_Node000015"><a xlink:title=" ">
<polygon fill="#e0e0e0" stroke="#999999" points="1041,-134.5 989,-134.5 989,-115.5 1041,-115.5 1041,-134.5"/>
<text text-anchor="middle" x="1015" y="-122.5" font-family="Helvetica,sans-Serif" font-size="10.00">QEvent</text>
</a>
</g>
</g>
<!-- Node1&#45;&gt;Node15 -->
<g id="edge15_Node000001_Node000015" class="edge">
<title>Node1&#45;&gt;Node15</title>
<g id="a_edge15_Node000001_Node000015"><a xlink:title=" ">
<path fill="none" stroke="#63b8ff" d="M926.02,-175.95C945.31,-165.13 971.82,-150.24 990.88,-139.54"/>
<polygon fill="#63b8ff" stroke="#63b8ff" points="992.82,-142.46 999.83,-134.52 989.4,-136.36 992.82,-142.46"/>
</a>
</g>
</g>
<!-- Node16 -->
<g id="Node000016" class="node">
<title>Node16</title>
<g id="a_Node000016"><a xlink:title=" ">
<polygon fill="#e0e0e0" stroke="#999999" points="1117,-134.5 1059,-134.5 1059,-115.5 1117,-115.5 1117,-134.5"/>
<text text-anchor="middle" x="1088" y="-122.5" font-family="Helvetica,sans-Serif" font-size="10.00">QPainter</text>
</a>
</g>
</g>
<!-- Node1&#45;&gt;Node16 -->
<g id="edge16_Node000001_Node000016" class="edge">
<title>Node1&#45;&gt;Node16</title>
<g id="a_edge16_Node000001_Node000016"><a xlink:title=" ">
<path fill="none" stroke="#63b8ff" d="M943.82,-176C973.66,-166.15 1014.35,-152.54 1050,-140 1051.84,-139.35 1053.73,-138.68 1055.63,-138"/>
<polygon fill="#63b8ff" stroke="#63b8ff" points="1056.93,-141.25 1065.13,-134.55 1054.54,-134.67 1056.93,-141.25"/>
</a>
</g>
</g>
<!-- Node17 -->
<g id="Node000017" class="node">
<title>Node17</title>
<g id="a_Node000017"><a xlink:title=" ">
<polygon fill="#e0e0e0" stroke="#999999" points="1211,-134.5 1135,-134.5 1135,-115.5 1211,-115.5 1211,-134.5"/>
<text text-anchor="middle" x="1173" y="-122.5" font-family="Helvetica,sans-Serif" font-size="10.00">QPaintEvent</text>
</a>
</g>
</g>
<!-- Node1&#45;&gt;Node17 -->
<g id="edge17_Node000001_Node000017" class="edge">
<title>Node1&#45;&gt;Node17</title>
<g id="a_edge17_Node000001_Node000017"><a xlink:title=" ">
<path fill="none" stroke="#63b8ff" d="M970.23,-175.94C1014.89,-166.55 1074.1,-153.48 1126,-140 1129.13,-139.19 1132.37,-138.31 1135.61,-137.4"/>
<polygon fill="#63b8ff" stroke="#63b8ff" points="1136.62,-140.75 1145.26,-134.62 1134.68,-134.02 1136.62,-140.75"/>
</a>
</g>
</g>
<!-- Node18 -->
<g id="Node000018" class="node">
<title>Node18</title>
<g id="a_Node000018"><a xlink:title=" ">
<polygon fill="#e0e0e0" stroke="#999999" points="1313,-134.5 1229,-134.5 1229,-115.5 1313,-115.5 1313,-134.5"/>
<text text-anchor="middle" x="1271" y="-122.5" font-family="Helvetica,sans-Serif" font-size="10.00">QResizeEvent</text>
</a>
</g>
</g>
<!-- Node1&#45;&gt;Node18 -->
<g id="edge18_Node000001_Node000018" class="edge">
<title>Node1&#45;&gt;Node18</title>
<g id="a_edge18_Node000001_Node000018"><a xlink:title=" ">
<path fill="none" stroke="#63b8ff" d="M992.25,-178.47C1056.32,-169.71 1143.82,-156.37 1220,-140 1223.93,-139.16 1228,-138.19 1232.06,-137.17"/>
<polygon fill="#63b8ff" stroke="#63b8ff" points="1233.23,-140.48 1242.01,-134.56 1231.45,-133.71 1233.23,-140.48"/>
</a>
</g>
</g>
<!-- Node19 -->
<g id="Node000019" class="node">
<title>Node19</title>
<g id="a_Node000019"><a xlink:title=" ">
<polygon fill="#e0e0e0" stroke="#999999" points="1401,-134.5 1331,-134.5 1331,-115.5 1401,-115.5 1401,-134.5"/>
<text text-anchor="middle" x="1366" y="-122.5" font-family="Helvetica,sans-Serif" font-size="10.00">QStringList</text>
</a>
</g>
</g>
<!-- Node1&#45;&gt;Node19 -->
<g id="edge19_Node000001_Node000019" class="edge">
<title>Node1&#45;&gt;Node19</title>
<g id="a_edge19_Node000001_Node000019"><a xlink:title=" ">
<path fill="none" stroke="#63b8ff" d="M992.16,-184.19C1077.99,-177.54 1209.78,-164.29 1322,-140 1325.39,-139.27 1328.9,-138.38 1332.38,-137.41"/>
<polygon fill="#63b8ff" stroke="#63b8ff" points="1333.43,-140.75 1342.02,-134.54 1331.43,-134.04 1333.43,-140.75"/>
</a>
</g>
</g>
<!-- Node3 -->
<g id="Node000003" class="node">
<title>Node3</title>
<g id="a_Node000003"><a xlink:title=" ">
<polygon fill="#e0e0e0" stroke="#999999" points="50,-74 0,-74 0,-55 50,-55 50,-74"/>
<text text-anchor="middle" x="25" y="-62" font-family="Helvetica,sans-Serif" font-size="10.00">QColor</text>
</a>
</g>
</g>
<!-- Node2&#45;&gt;Node3 -->
<g id="edge2_Node000002_Node000003" class="edge">
<title>Node2&#45;&gt;Node3</title>
<g id="a_edge2_Node000002_Node000003"><a xlink:title=" ">
<path fill="none" stroke="#63b8ff" d="M162.65,-109.99C131.21,-99.83 89.25,-86.27 59.95,-76.8"/>
<polygon fill="#63b8ff" stroke="#63b8ff" points="60.75,-73.38 50.16,-73.63 58.59,-80.04 60.75,-73.38"/>
</a>
</g>
</g>
<!-- Node4 -->
<g id="Node000004" class="node">
<title>Node4</title>
<g id="a_Node000004"><a xlink:title=" ">
<polygon fill="#e0e0e0" stroke="#999999" points="113.5,-74 68.5,-74 68.5,-55 113.5,-55 113.5,-74"/>
<text text-anchor="middle" x="91" y="-62" font-family="Helvetica,sans-Serif" font-size="10.00">QFont</text>
</a>
</g>
</g>
<!-- Node2&#45;&gt;Node4 -->
<g id="edge3_Node000002_Node000004" class="edge">
<title>Node2&#45;&gt;Node4</title>
<g id="a_edge3_Node000002_Node000004"><a xlink:title=" ">
<path fill="none" stroke="#63b8ff" d="M178.45,-109.99C159.78,-100.49 135.26,-88.02 116.94,-78.69"/>
<polygon fill="#63b8ff" stroke="#63b8ff" points="118.48,-75.55 107.98,-74.14 115.31,-81.79 118.48,-75.55"/>
</a>
</g>
</g>
<!-- Node5 -->
<g id="Node000005" class="node">
<title>Node5</title>
<g id="a_Node000005"><a xlink:title=" ">
<polygon fill="#e0e0e0" stroke="#999999" points="212.5,-74 131.5,-74 131.5,-55 212.5,-55 212.5,-74"/>
<text text-anchor="middle" x="172" y="-62" font-family="Helvetica,sans-Serif" font-size="10.00">QFontMetrics</text>
</a>
</g>
</g>
<!-- Node2&#45;&gt;Node5 -->
<g id="edge4_Node000002_Node000005" class="edge">
<title>Node2&#45;&gt;Node5</title>
<g id="a_edge4_Node000002_Node000005"><a xlink:title=" ">
<path fill="none" stroke="#63b8ff" d="M197.77,-109.84C193.09,-101.78 187.18,-91.62 182.2,-83.06"/>
<polygon fill="#63b8ff" stroke="#63b8ff" points="185.15,-81.15 177.09,-74.27 179.09,-84.67 185.15,-81.15"/>
</a>
</g>
</g>
<!-- Node6 -->
<g id="Node000006" class="node">
<title>Node6</title>
<g id="a_Node000006"><a xlink:title=" ">
<polygon fill="#e0e0e0" stroke="#999999" points="318.5,-19 265.5,-19 265.5,0 318.5,0 318.5,-19"/>
<text text-anchor="middle" x="292" y="-7" font-family="Helvetica,sans-Serif" font-size="10.00">QString</text>
</a>
</g>
</g>
<!-- Node2&#45;&gt;Node6 -->
<g id="edge5_Node000002_Node000006" class="edge">
<title>Node2&#45;&gt;Node6</title>
<g id="a_edge5_Node000002_Node000006"><a xlink:title=" ">
<path fill="none" stroke="#63b8ff" d="M216.89,-109.63C232.78,-88.65 262.26,-49.75 279.18,-27.42"/>
<polygon fill="#63b8ff" stroke="#63b8ff" points="282.14,-29.31 285.39,-19.23 276.56,-25.09 282.14,-29.31"/>
</a>
</g>
</g>
<!-- Node7 -->
<g id="Node000007" class="node">
<title>Node7</title>
<g id="a_Node000007"><a xlink:title=" ">
<polygon fill="#e0e0e0" stroke="#999999" points="328.5,-74 269.5,-74 269.5,-55 328.5,-55 328.5,-74"/>
<text text-anchor="middle" x="299" y="-62" font-family="Helvetica,sans-Serif" font-size="10.00">QWidget</text>
</a>
</g>
</g>
<!-- Node2&#45;&gt;Node7 -->
<g id="edge6_Node000002_Node000007" class="edge">
<title>Node2&#45;&gt;Node7</title>
<g id="a_edge6_Node000002_Node000007"><a xlink:title=" ">
<path fill="none" stroke="#63b8ff" d="M228.51,-109.84C243.06,-100.68 261.93,-88.82 276.49,-79.66"/>
<polygon fill="#63b8ff" stroke="#63b8ff" points="278.74,-82.38 285.34,-74.09 275.01,-76.46 278.74,-82.38"/>
</a>
</g>
</g>
<!-- Node8 -->
<g id="Node000008" class="node">
<title>Node8</title>
<g id="a_Node000008"><a xlink:href="IOverlay_8hpp.html" target="_top" xlink:title=" ">
<polygon fill="white" stroke="#666666" points="469,-74 347,-74 347,-55 469,-55 469,-74"/>
<text text-anchor="middle" x="408" y="-62" font-family="Helvetica,sans-Serif" font-size="10.00">overlays/IOverlay.hpp</text>
</a>
</g>
</g>
<!-- Node2&#45;&gt;Node8 -->
<g id="edge7_Node000002_Node000008" class="edge">
<title>Node2&#45;&gt;Node8</title>
<g id="a_edge7_Node000002_Node000008"><a xlink:title=" ">
<path fill="none" stroke="#63b8ff" d="M254.38,-109.99C289.4,-99.85 336.11,-86.32 368.8,-76.85"/>
<polygon fill="#63b8ff" stroke="#63b8ff" points="369.83,-80.2 378.46,-74.05 367.89,-73.47 369.83,-80.2"/>
</a>
</g>
</g>
<!-- Node8&#45;&gt;Node6 -->
<g id="edge9_Node000008_Node000006" class="edge">
<title>Node8&#45;&gt;Node6</title>
<g id="a_edge9_Node000008_Node000006"><a xlink:title=" ">
<path fill="none" stroke="#63b8ff" d="M389.36,-54.98C370.7,-46.46 341.75,-33.23 320.26,-23.41"/>
<polygon fill="#63b8ff" stroke="#63b8ff" points="321.53,-20.14 310.98,-19.17 318.62,-26.51 321.53,-20.14"/>
</a>
</g>
</g>
<!-- Node9 -->
<g id="Node000009" class="node">
<title>Node9</title>
<g id="a_Node000009"><a xlink:title=" ">
<polygon fill="#e0e0e0" stroke="#999999" points="428.5,-19 387.5,-19 387.5,0 428.5,0 428.5,-19"/>
<text text-anchor="middle" x="408" y="-7" font-family="Helvetica,sans-Serif" font-size="10.00">QList</text>
</a>
</g>
</g>
<!-- Node8&#45;&gt;Node9 -->
<g id="edge8_Node000008_Node000009" class="edge">
<title>Node8&#45;&gt;Node9</title>
<g id="a_edge8_Node000008_Node000009"><a xlink:title=" ">
<path fill="none" stroke="#63b8ff" d="M408,-54.75C408,-47.8 408,-37.85 408,-29.13"/>
<polygon fill="#63b8ff" stroke="#63b8ff" points="411.5,-29.09 408,-19.09 404.5,-29.09 411.5,-29.09"/>
</a>
</g>
</g>
</g>
</svg>
