<?xml version="1.0" encoding="UTF-8" standalone="no"?>
<!DOCTYPE svg PUBLIC "-//W3C//DTD SVG 1.1//EN"
 "http://www.w3.org/Graphics/SVG/1.1/DTD/svg11.dtd">
<!-- Generated by graphviz version 2.43.0 (0)
 -->
<!-- Title: src/controllers/src/DicomController.cpp Pages: 1 -->
<svg width="1761pt" height="203pt"
 viewBox="0.00 0.00 1760.50 203.00" xmlns="http://www.w3.org/2000/svg" xmlns:xlink="http://www.w3.org/1999/xlink">
<g id="graph0" class="graph" transform="scale(1 1) rotate(0) translate(4 199)">
<title>src/controllers/src/DicomController.cpp</title>
<!-- Node1 -->
<g id="Node000001" class="node">
<title>Node1</title>
<g id="a_Node000001"><a xlink:title=" ">
<polygon fill="#999999" stroke="#666666" points="1095.5,-195 976.5,-195 976.5,-165 1095.5,-165 1095.5,-195"/>
<text text-anchor="start" x="984.5" y="-183" font-family="Helvetica,sans-Serif" font-size="10.00">src/controllers/src</text>
<text text-anchor="middle" x="1036" y="-172" font-family="Helvetica,sans-Serif" font-size="10.00">/DicomController.cpp</text>
</a>
</g>
</g>
<!-- Node2 -->
<g id="Node000002" class="node">
<title>Node2</title>
<g id="a_Node000002"><a xlink:href="DicomController_8hpp.html" target="_top" xlink:title=" ">
<polygon fill="white" stroke="#666666" points="373.5,-129 202.5,-129 202.5,-110 373.5,-110 373.5,-129"/>
<text text-anchor="middle" x="288" y="-117" font-family="Helvetica,sans-Serif" font-size="10.00">controllers/DicomController.hpp</text>
</a>
</g>
</g>
<!-- Node1&#45;&gt;Node2 -->
<g id="edge1_Node000001_Node000002" class="edge">
<title>Node1&#45;&gt;Node2</title>
<g id="a_edge1_Node000001_Node000002"><a xlink:title=" ">
<path fill="none" stroke="#63b8ff" d="M976.06,-174.43C862.23,-165.73 606.91,-146.13 392,-129 389.3,-128.78 386.56,-128.57 383.79,-128.34"/>
<polygon fill="#63b8ff" stroke="#63b8ff" points="383.94,-124.84 373.7,-127.53 383.38,-131.82 383.94,-124.84"/>
</a>
</g>
</g>
<!-- Node5 -->
<g id="Node000005" class="node">
<title>Node5</title>
<g id="a_Node000005"><a xlink:title=" ">
<polygon fill="#e0e0e0" stroke="#999999" points="428,-74 384,-74 384,-55 428,-55 428,-74"/>
<text text-anchor="middle" x="406" y="-62" font-family="Helvetica,sans-Serif" font-size="10.00">string</text>
</a>
</g>
</g>
<!-- Node1&#45;&gt;Node5 -->
<g id="edge19_Node000001_Node000005" class="edge">
<title>Node1&#45;&gt;Node5</title>
<g id="a_edge19_Node000001_Node000005"><a xlink:title=" ">
<path fill="none" stroke="#63b8ff" d="M976.28,-176.69C836.57,-170.9 496.87,-154.37 452,-129 434.09,-118.87 421.3,-98.57 413.82,-83.64"/>
<polygon fill="#63b8ff" stroke="#63b8ff" points="416.89,-81.94 409.49,-74.35 410.54,-84.89 416.89,-81.94"/>
</a>
</g>
</g>
<!-- Node6 -->
<g id="Node000006" class="node">
<title>Node6</title>
<g id="a_Node000006"><a xlink:title=" ">
<polygon fill="#e0e0e0" stroke="#999999" points="493.5,-74 446.5,-74 446.5,-55 493.5,-55 493.5,-74"/>
<text text-anchor="middle" x="470" y="-62" font-family="Helvetica,sans-Serif" font-size="10.00">vector</text>
</a>
</g>
</g>
<!-- Node1&#45;&gt;Node6 -->
<g id="edge20_Node000001_Node000006" class="edge">
<title>Node1&#45;&gt;Node6</title>
<g id="a_edge20_Node000001_Node000006"><a xlink:title=" ">
<path fill="none" stroke="#63b8ff" d="M976.48,-178.25C836.99,-175.86 498.14,-166.25 464,-129 453.03,-117.03 456.59,-97.94 461.64,-83.81"/>
<polygon fill="#63b8ff" stroke="#63b8ff" points="465.04,-84.76 465.58,-74.18 458.56,-82.11 465.04,-84.76"/>
</a>
</g>
</g>
<!-- Node9 -->
<g id="Node000009" class="node">
<title>Node9</title>
<g id="a_Node000009"><a xlink:title=" ">
<polygon fill="#e0e0e0" stroke="#999999" points="591.5,-129 472.5,-129 472.5,-110 591.5,-110 591.5,-129"/>
<text text-anchor="middle" x="532" y="-117" font-family="Helvetica,sans-Serif" font-size="10.00">vtkDICOMDirectory.h</text>
</a>
</g>
</g>
<!-- Node1&#45;&gt;Node9 -->
<g id="edge8_Node000001_Node000009" class="edge">
<title>Node1&#45;&gt;Node9</title>
<g id="a_edge8_Node000001_Node000009"><a xlink:title=" ">
<path fill="none" stroke="#63b8ff" d="M976.17,-172.28C894.26,-163.04 742.32,-145.79 601.92,-129.1"/>
<polygon fill="#63b8ff" stroke="#63b8ff" points="602.18,-125.61 591.84,-127.9 601.35,-132.56 602.18,-125.61"/>
</a>
</g>
</g>
<!-- Node10 -->
<g id="Node000010" class="node">
<title>Node10</title>
<g id="a_Node000010"><a xlink:title=" ">
<polygon fill="#e0e0e0" stroke="#999999" points="730.5,-129 609.5,-129 609.5,-110 730.5,-110 730.5,-129"/>
<text text-anchor="middle" x="670" y="-117" font-family="Helvetica,sans-Serif" font-size="10.00">vtkDICOMFileSorter.h</text>
</a>
</g>
</g>
<!-- Node1&#45;&gt;Node10 -->
<g id="edge9_Node000001_Node000010" class="edge">
<title>Node1&#45;&gt;Node10</title>
<g id="a_edge9_Node000001_Node000010"><a xlink:title=" ">
<path fill="none" stroke="#63b8ff" d="M976.38,-169.47C909.62,-158.8 801.86,-141.58 733.54,-130.66"/>
<polygon fill="#63b8ff" stroke="#63b8ff" points="733.77,-127.15 723.34,-129.03 732.66,-134.06 733.77,-127.15"/>
</a>
</g>
</g>
<!-- Node11 -->
<g id="Node000011" class="node">
<title>Node11</title>
<g id="a_Node000011"><a xlink:title=" ">
<polygon fill="#e0e0e0" stroke="#999999" points="889,-129 749,-129 749,-110 889,-110 889,-129"/>
<text text-anchor="middle" x="819" y="-117" font-family="Helvetica,sans-Serif" font-size="10.00">vtkDICOMImageReader.h</text>
</a>
</g>
</g>
<!-- Node1&#45;&gt;Node11 -->
<g id="edge10_Node000001_Node000011" class="edge">
<title>Node1&#45;&gt;Node11</title>
<g id="a_edge10_Node000001_Node000011"><a xlink:title=" ">
<path fill="none" stroke="#63b8ff" d="M984.02,-164.99C946.25,-154.8 895.79,-141.2 860.66,-131.73"/>
<polygon fill="#63b8ff" stroke="#63b8ff" points="861.3,-128.28 850.73,-129.05 859.47,-135.04 861.3,-128.28"/>
</a>
</g>
</g>
<!-- Node12 -->
<g id="Node000012" class="node">
<title>Node12</title>
<g id="a_Node000012"><a xlink:title=" ">
<polygon fill="#e0e0e0" stroke="#999999" points="1030.5,-129 907.5,-129 907.5,-110 1030.5,-110 1030.5,-129"/>
<text text-anchor="middle" x="969" y="-117" font-family="Helvetica,sans-Serif" font-size="10.00">vtkDICOMMetaData.h</text>
</a>
</g>
</g>
<!-- Node1&#45;&gt;Node12 -->
<g id="edge11_Node000001_Node000012" class="edge">
<title>Node1&#45;&gt;Node12</title>
<g id="a_edge11_Node000001_Node000012"><a xlink:title=" ">
<path fill="none" stroke="#63b8ff" d="M1019.78,-164.84C1009.76,-156.09 996.89,-144.85 986.62,-135.88"/>
<polygon fill="#63b8ff" stroke="#63b8ff" points="988.87,-133.21 979.04,-129.27 984.27,-138.48 988.87,-133.21"/>
</a>
</g>
</g>
<!-- Node13 -->
<g id="Node000013" class="node">
<title>Node13</title>
<g id="a_Node000013"><a xlink:title=" ">
<polygon fill="#e0e0e0" stroke="#999999" points="1157.5,-129 1048.5,-129 1048.5,-110 1157.5,-110 1157.5,-129"/>
<text text-anchor="middle" x="1103" y="-117" font-family="Helvetica,sans-Serif" font-size="10.00">vtkDICOMReader.h</text>
</a>
</g>
</g>
<!-- Node1&#45;&gt;Node13 -->
<g id="edge12_Node000001_Node000013" class="edge">
<title>Node1&#45;&gt;Node13</title>
<g id="a_edge12_Node000001_Node000013"><a xlink:title=" ">
<path fill="none" stroke="#63b8ff" d="M1052.22,-164.84C1062.24,-156.09 1075.11,-144.85 1085.38,-135.88"/>
<polygon fill="#63b8ff" stroke="#63b8ff" points="1087.73,-138.48 1092.96,-129.27 1083.13,-133.21 1087.73,-138.48"/>
</a>
</g>
</g>
<!-- Node14 -->
<g id="Node000014" class="node">
<title>Node14</title>
<g id="a_Node000014"><a xlink:title=" ">
<polygon fill="#e0e0e0" stroke="#999999" points="1280.5,-129 1175.5,-129 1175.5,-110 1280.5,-110 1280.5,-129"/>
<text text-anchor="middle" x="1228" y="-117" font-family="Helvetica,sans-Serif" font-size="10.00">vtkDICOMToRAS.h</text>
</a>
</g>
</g>
<!-- Node1&#45;&gt;Node14 -->
<g id="edge13_Node000001_Node000014" class="edge">
<title>Node1&#45;&gt;Node14</title>
<g id="a_edge13_Node000001_Node000014"><a xlink:title=" ">
<path fill="none" stroke="#63b8ff" d="M1081.99,-164.99C1115.12,-154.89 1159.29,-141.44 1190.34,-131.98"/>
<polygon fill="#63b8ff" stroke="#63b8ff" points="1191.38,-135.32 1199.93,-129.05 1189.34,-128.62 1191.38,-135.32"/>
</a>
</g>
</g>
<!-- Node15 -->
<g id="Node000015" class="node">
<title>Node15</title>
<g id="a_Node000015"><a xlink:title=" ">
<polygon fill="#e0e0e0" stroke="#999999" points="1393.5,-129 1298.5,-129 1298.5,-110 1393.5,-110 1393.5,-129"/>
<text text-anchor="middle" x="1346" y="-117" font-family="Helvetica,sans-Serif" font-size="10.00">vtkImageData.h</text>
</a>
</g>
</g>
<!-- Node1&#45;&gt;Node15 -->
<g id="edge14_Node000001_Node000015" class="edge">
<title>Node1&#45;&gt;Node15</title>
<g id="a_edge14_Node000001_Node000015"><a xlink:title=" ">
<path fill="none" stroke="#63b8ff" d="M1095.77,-167.72C1152.09,-157.09 1235.78,-141.3 1290.62,-130.95"/>
<polygon fill="#63b8ff" stroke="#63b8ff" points="1291.33,-134.38 1300.51,-129.08 1290.03,-127.5 1291.33,-134.38"/>
</a>
</g>
</g>
<!-- Node16 -->
<g id="Node000016" class="node">
<title>Node16</title>
<g id="a_Node000016"><a xlink:title=" ">
<polygon fill="#e0e0e0" stroke="#999999" points="1506.5,-129 1411.5,-129 1411.5,-110 1506.5,-110 1506.5,-129"/>
<text text-anchor="middle" x="1459" y="-117" font-family="Helvetica,sans-Serif" font-size="10.00">vtkStringArray.h</text>
</a>
</g>
</g>
<!-- Node1&#45;&gt;Node16 -->
<g id="edge15_Node000001_Node000016" class="edge">
<title>Node1&#45;&gt;Node16</title>
<g id="a_edge15_Node000001_Node000016"><a xlink:title=" ">
<path fill="none" stroke="#63b8ff" d="M1095.79,-171.14C1166.41,-161.79 1287.69,-145.53 1401.42,-129.21"/>
<polygon fill="#63b8ff" stroke="#63b8ff" points="1401.95,-132.67 1411.35,-127.78 1400.95,-125.74 1401.95,-132.67"/>
</a>
</g>
</g>
<!-- Node17 -->
<g id="Node000017" class="node">
<title>Node17</title>
<g id="a_Node000017"><a xlink:title=" ">
<polygon fill="#e0e0e0" stroke="#999999" points="1605,-129 1525,-129 1525,-110 1605,-110 1605,-129"/>
<text text-anchor="middle" x="1565" y="-117" font-family="Helvetica,sans-Serif" font-size="10.00">QMetaObject</text>
</a>
</g>
</g>
<!-- Node1&#45;&gt;Node17 -->
<g id="edge16_Node000001_Node000017" class="edge">
<title>Node1&#45;&gt;Node17</title>
<g id="a_edge16_Node000001_Node000017"><a xlink:title=" ">
<path fill="none" stroke="#63b8ff" d="M1095.65,-174.1C1184.61,-166.5 1357.53,-150.62 1514.6,-129.11"/>
<polygon fill="#63b8ff" stroke="#63b8ff" points="1515.5,-132.52 1524.92,-127.68 1514.54,-125.58 1515.5,-132.52"/>
</a>
</g>
</g>
<!-- Node18 -->
<g id="Node000018" class="node">
<title>Node18</title>
<g id="a_Node000018"><a xlink:title=" ">
<polygon fill="#e0e0e0" stroke="#999999" points="1681,-129 1623,-129 1623,-110 1681,-110 1681,-129"/>
<text text-anchor="middle" x="1652" y="-117" font-family="Helvetica,sans-Serif" font-size="10.00">QThread</text>
</a>
</g>
</g>
<!-- Node1&#45;&gt;Node18 -->
<g id="edge17_Node000001_Node000018" class="edge">
<title>Node1&#45;&gt;Node18</title>
<g id="a_edge17_Node000001_Node000018"><a xlink:title=" ">
<path fill="none" stroke="#63b8ff" d="M1095.81,-176.47C1199.28,-171.51 1418.46,-158.46 1612.52,-129.03"/>
<polygon fill="#63b8ff" stroke="#63b8ff" points="1613.26,-132.46 1622.62,-127.48 1612.2,-125.54 1613.26,-132.46"/>
</a>
</g>
</g>
<!-- Node19 -->
<g id="Node000019" class="node">
<title>Node19</title>
<g id="a_Node000019"><a xlink:title=" ">
<polygon fill="#e0e0e0" stroke="#999999" points="1752.5,-129 1699.5,-129 1699.5,-110 1752.5,-110 1752.5,-129"/>
<text text-anchor="middle" x="1726" y="-117" font-family="Helvetica,sans-Serif" font-size="10.00">QTimer</text>
</a>
</g>
</g>
<!-- Node1&#45;&gt;Node19 -->
<g id="edge18_Node000001_Node000019" class="edge">
<title>Node1&#45;&gt;Node19</title>
<g id="a_edge18_Node000001_Node000019"><a xlink:title=" ">
<path fill="none" stroke="#63b8ff" d="M1095.87,-177.53C1209.7,-174.07 1465.2,-163.06 1689.38,-128.82"/>
<polygon fill="#63b8ff" stroke="#63b8ff" points="1690.01,-132.27 1699.35,-127.28 1688.94,-125.35 1690.01,-132.27"/>
</a>
</g>
</g>
<!-- Node3 -->
<g id="Node000003" class="node">
<title>Node3</title>
<g id="a_Node000003"><a xlink:title=" ">
<polygon fill="#e0e0e0" stroke="#999999" points="104,-74 0,-74 0,-55 104,-55 104,-74"/>
<text text-anchor="middle" x="52" y="-62" font-family="Helvetica,sans-Serif" font-size="10.00">vtkSmartPointer.h</text>
</a>
</g>
</g>
<!-- Node2&#45;&gt;Node3 -->
<g id="edge2_Node000002_Node000003" class="edge">
<title>Node2&#45;&gt;Node3</title>
<g id="a_edge2_Node000002_Node000003"><a xlink:title=" ">
<path fill="none" stroke="#63b8ff" d="M250.08,-109.98C209.35,-100.84 144.5,-86.27 100.18,-76.32"/>
<polygon fill="#63b8ff" stroke="#63b8ff" points="100.74,-72.86 90.21,-74.08 99.2,-79.69 100.74,-72.86"/>
</a>
</g>
</g>
<!-- Node4 -->
<g id="Node000004" class="node">
<title>Node4</title>
<g id="a_Node000004"><a xlink:title=" ">
<polygon fill="#e0e0e0" stroke="#999999" points="181.5,-74 122.5,-74 122.5,-55 181.5,-55 181.5,-74"/>
<text text-anchor="middle" x="152" y="-62" font-family="Helvetica,sans-Serif" font-size="10.00">QPointer</text>
</a>
</g>
</g>
<!-- Node2&#45;&gt;Node4 -->
<g id="edge3_Node000002_Node000004" class="edge">
<title>Node2&#45;&gt;Node4</title>
<g id="a_edge3_Node000002_Node000004"><a xlink:title=" ">
<path fill="none" stroke="#63b8ff" d="M266.15,-109.98C243.88,-101.3 209.1,-87.75 183.78,-77.88"/>
<polygon fill="#63b8ff" stroke="#63b8ff" points="184.84,-74.54 174.25,-74.17 182.29,-81.06 184.84,-74.54"/>
</a>
</g>
</g>
<!-- Node2&#45;&gt;Node5 -->
<g id="edge4_Node000002_Node000005" class="edge">
<title>Node2&#45;&gt;Node5</title>
<g id="a_edge4_Node000002_Node000005"><a xlink:title=" ">
<path fill="none" stroke="#63b8ff" d="M306.96,-109.98C326.03,-101.42 355.66,-88.11 377.55,-78.28"/>
<polygon fill="#63b8ff" stroke="#63b8ff" points="379.01,-81.46 386.7,-74.17 376.14,-75.07 379.01,-81.46"/>
</a>
</g>
</g>
<!-- Node2&#45;&gt;Node6 -->
<g id="edge5_Node000002_Node000006" class="edge">
<title>Node2&#45;&gt;Node6</title>
<g id="a_edge5_Node000002_Node000006"><a xlink:title=" ">
<path fill="none" stroke="#63b8ff" d="M317.24,-109.98C349.75,-100.52 402.17,-85.25 436.36,-75.3"/>
<polygon fill="#63b8ff" stroke="#63b8ff" points="437.72,-78.55 446.34,-72.39 435.76,-71.83 437.72,-78.55"/>
</a>
</g>
</g>
<!-- Node7 -->
<g id="Node000007" class="node">
<title>Node7</title>
<g id="a_Node000007"><a xlink:href="IControllerBase_8hpp.html" target="_top" xlink:title=" ">
<polygon fill="white" stroke="#666666" points="366.5,-74 199.5,-74 199.5,-55 366.5,-55 366.5,-74"/>
<text text-anchor="middle" x="283" y="-62" font-family="Helvetica,sans-Serif" font-size="10.00">controllers/IControllerBase.hpp</text>
</a>
</g>
</g>
<!-- Node2&#45;&gt;Node7 -->
<g id="edge6_Node000002_Node000007" class="edge">
<title>Node2&#45;&gt;Node7</title>
<g id="a_edge6_Node000002_Node000007"><a xlink:title=" ">
<path fill="none" stroke="#63b8ff" d="M287.17,-109.75C286.52,-102.8 285.58,-92.85 284.76,-84.13"/>
<polygon fill="#63b8ff" stroke="#63b8ff" points="288.23,-83.72 283.81,-74.09 281.27,-84.37 288.23,-83.72"/>
</a>
</g>
</g>
<!-- Node8 -->
<g id="Node000008" class="node">
<title>Node8</title>
<g id="a_Node000008"><a xlink:title=" ">
<polygon fill="#e0e0e0" stroke="#999999" points="311,-19 255,-19 255,0 311,0 311,-19"/>
<text text-anchor="middle" x="283" y="-7" font-family="Helvetica,sans-Serif" font-size="10.00">QObject</text>
</a>
</g>
</g>
<!-- Node7&#45;&gt;Node8 -->
<g id="edge7_Node000007_Node000008" class="edge">
<title>Node7&#45;&gt;Node8</title>
<g id="a_edge7_Node000007_Node000008"><a xlink:title=" ">
<path fill="none" stroke="#63b8ff" d="M283,-54.75C283,-47.8 283,-37.85 283,-29.13"/>
<polygon fill="#63b8ff" stroke="#63b8ff" points="286.5,-29.09 283,-19.09 279.5,-29.09 286.5,-29.09"/>
</a>
</g>
</g>
</g>
</svg>
