<?xml version="1.0" encoding="UTF-8" standalone="no"?>
<!DOCTYPE svg PUBLIC "-//W3C//DTD SVG 1.1//EN"
 "http://www.w3.org/Graphics/SVG/1.1/DTD/svg11.dtd">
<!-- Generated by graphviz version 2.43.0 (0)
 -->
<!-- Title: src/ui/src/DicomMetaDataPanel.cpp Pages: 1 -->
<svg width="854pt" height="148pt"
 viewBox="0.00 0.00 853.50 148.00" xmlns="http://www.w3.org/2000/svg" xmlns:xlink="http://www.w3.org/1999/xlink">
<g id="graph0" class="graph" transform="scale(1 1) rotate(0) translate(4 144)">
<title>src/ui/src/DicomMetaDataPanel.cpp</title>
<!-- Node1 -->
<g id="Node000001" class="node">
<title>Node1</title>
<g id="a_Node000001"><a xlink:title=" ">
<polygon fill="#999999" stroke="#666666" points="612.5,-140 469.5,-140 469.5,-110 612.5,-110 612.5,-140"/>
<text text-anchor="start" x="477.5" y="-128" font-family="Helvetica,sans-Serif" font-size="10.00">src/ui/src/DicomMetaData</text>
<text text-anchor="middle" x="541" y="-117" font-family="Helvetica,sans-Serif" font-size="10.00">Panel.cpp</text>
</a>
</g>
</g>
<!-- Node2 -->
<g id="Node000002" class="node">
<title>Node2</title>
<g id="a_Node000002"><a xlink:href="DicomMetaDataPanel_8hpp.html" target="_top" xlink:title=" ">
<polygon fill="white" stroke="#666666" points="550.5,-74 395.5,-74 395.5,-55 550.5,-55 550.5,-74"/>
<text text-anchor="middle" x="473" y="-62" font-family="Helvetica,sans-Serif" font-size="10.00">ui/DicomMetaDataPanel.hpp</text>
</a>
</g>
</g>
<!-- Node1&#45;&gt;Node2 -->
<g id="edge1_Node000001_Node000002" class="edge">
<title>Node1&#45;&gt;Node2</title>
<g id="a_edge1_Node000001_Node000002"><a xlink:title=" ">
<path fill="none" stroke="#63b8ff" d="M524.54,-109.84C514.37,-101.09 501.31,-89.85 490.88,-80.88"/>
<polygon fill="#63b8ff" stroke="#63b8ff" points="493.05,-78.13 483.19,-74.27 488.49,-83.44 493.05,-78.13"/>
</a>
</g>
</g>
<!-- Node7 -->
<g id="Node000007" class="node">
<title>Node7</title>
<g id="a_Node000007"><a xlink:title=" ">
<polygon fill="#e0e0e0" stroke="#999999" points="651.5,-74 568.5,-74 568.5,-55 651.5,-55 651.5,-74"/>
<text text-anchor="middle" x="610" y="-62" font-family="Helvetica,sans-Serif" font-size="10.00">QHeaderView</text>
</a>
</g>
</g>
<!-- Node1&#45;&gt;Node7 -->
<g id="edge6_Node000001_Node000007" class="edge">
<title>Node1&#45;&gt;Node7</title>
<g id="a_edge6_Node000001_Node000007"><a xlink:title=" ">
<path fill="none" stroke="#63b8ff" d="M557.7,-109.84C568.03,-101.09 581.28,-89.85 591.86,-80.88"/>
<polygon fill="#63b8ff" stroke="#63b8ff" points="594.3,-83.4 599.66,-74.27 589.77,-78.06 594.3,-83.4"/>
</a>
</g>
</g>
<!-- Node8 -->
<g id="Node000008" class="node">
<title>Node8</title>
<g id="a_Node000008"><a xlink:title=" ">
<polygon fill="#e0e0e0" stroke="#999999" points="744,-74 670,-74 670,-55 744,-55 744,-74"/>
<text text-anchor="middle" x="707" y="-62" font-family="Helvetica,sans-Serif" font-size="10.00">QTableView</text>
</a>
</g>
</g>
<!-- Node1&#45;&gt;Node8 -->
<g id="edge7_Node000001_Node000008" class="edge">
<title>Node1&#45;&gt;Node8</title>
<g id="a_edge7_Node000001_Node000008"><a xlink:title=" ">
<path fill="none" stroke="#63b8ff" d="M580.76,-109.99C608.83,-100.1 646.05,-86.98 672.79,-77.56"/>
<polygon fill="#63b8ff" stroke="#63b8ff" points="674.22,-80.76 682.49,-74.14 671.89,-74.16 674.22,-80.76"/>
</a>
</g>
</g>
<!-- Node9 -->
<g id="Node000009" class="node">
<title>Node9</title>
<g id="a_Node000009"><a xlink:title=" ">
<polygon fill="#e0e0e0" stroke="#999999" points="845.5,-74 762.5,-74 762.5,-55 845.5,-55 845.5,-74"/>
<text text-anchor="middle" x="804" y="-62" font-family="Helvetica,sans-Serif" font-size="10.00">QVBoxLayout</text>
</a>
</g>
</g>
<!-- Node1&#45;&gt;Node9 -->
<g id="edge8_Node000001_Node000009" class="edge">
<title>Node1&#45;&gt;Node9</title>
<g id="a_edge8_Node000001_Node000009"><a xlink:title=" ">
<path fill="none" stroke="#63b8ff" d="M604,-109.99C650.56,-99.63 713.03,-85.73 755.69,-76.25"/>
<polygon fill="#63b8ff" stroke="#63b8ff" points="756.54,-79.64 765.55,-74.05 755.02,-72.81 756.54,-79.64"/>
</a>
</g>
</g>
<!-- Node10 -->
<g id="Node000010" class="node">
<title>Node10</title>
<g id="a_Node000010"><a xlink:href="DicomMetaDataAdapter_8hpp.html" target="_top" xlink:title=" ">
<polygon fill="white" stroke="#666666" points="200,-74 0,-74 0,-55 200,-55 200,-74"/>
<text text-anchor="middle" x="100" y="-62" font-family="Helvetica,sans-Serif" font-size="10.00">adapters/DicomMetaDataAdapter.hpp</text>
</a>
</g>
</g>
<!-- Node1&#45;&gt;Node10 -->
<g id="edge9_Node000001_Node000010" class="edge">
<title>Node1&#45;&gt;Node10</title>
<g id="a_edge9_Node000001_Node000010"><a xlink:title=" ">
<path fill="none" stroke="#63b8ff" d="M469.16,-114.47C387.98,-103.7 256.47,-86.26 174.29,-75.35"/>
<polygon fill="#63b8ff" stroke="#63b8ff" points="174.65,-71.87 164.27,-74.03 173.72,-78.81 174.65,-71.87"/>
</a>
</g>
</g>
<!-- Node12 -->
<g id="Node000012" class="node">
<title>Node12</title>
<g id="a_Node000012"><a xlink:href="DicomMetaDataModel_8hpp.html" target="_top" xlink:title=" ">
<polygon fill="white" stroke="#666666" points="377.5,-74 218.5,-74 218.5,-55 377.5,-55 377.5,-74"/>
<text text-anchor="middle" x="298" y="-62" font-family="Helvetica,sans-Serif" font-size="10.00">ui/DicomMetaDataModel.hpp</text>
</a>
</g>
</g>
<!-- Node1&#45;&gt;Node12 -->
<g id="edge14_Node000001_Node000012" class="edge">
<title>Node1&#45;&gt;Node12</title>
<g id="a_edge14_Node000001_Node000012"><a xlink:title=" ">
<path fill="none" stroke="#63b8ff" d="M482.8,-109.99C440.04,-99.7 382.78,-85.91 343.39,-76.43"/>
<polygon fill="#63b8ff" stroke="#63b8ff" points="344.07,-72.99 333.53,-74.05 342.43,-79.8 344.07,-72.99"/>
</a>
</g>
</g>
<!-- Node3 -->
<g id="Node000003" class="node">
<title>Node3</title>
<g id="a_Node000003"><a xlink:title=" ">
<polygon fill="#e0e0e0" stroke="#999999" points="377,-19 335,-19 335,0 377,0 377,-19"/>
<text text-anchor="middle" x="356" y="-7" font-family="Helvetica,sans-Serif" font-size="10.00">QPair</text>
</a>
</g>
</g>
<!-- Node2&#45;&gt;Node3 -->
<g id="edge2_Node000002_Node000003" class="edge">
<title>Node2&#45;&gt;Node3</title>
<g id="a_edge2_Node000002_Node000003"><a xlink:title=" ">
<path fill="none" stroke="#63b8ff" d="M454.2,-54.98C435.38,-46.46 406.18,-33.23 384.5,-23.41"/>
<polygon fill="#63b8ff" stroke="#63b8ff" points="385.69,-20.11 375.14,-19.17 382.8,-26.48 385.69,-20.11"/>
</a>
</g>
</g>
<!-- Node4 -->
<g id="Node000004" class="node">
<title>Node4</title>
<g id="a_Node000004"><a xlink:title=" ">
<polygon fill="#e0e0e0" stroke="#999999" points="448.5,-19 395.5,-19 395.5,0 448.5,0 448.5,-19"/>
<text text-anchor="middle" x="422" y="-7" font-family="Helvetica,sans-Serif" font-size="10.00">QString</text>
</a>
</g>
</g>
<!-- Node2&#45;&gt;Node4 -->
<g id="edge3_Node000002_Node000004" class="edge">
<title>Node2&#45;&gt;Node4</title>
<g id="a_edge3_Node000002_Node000004"><a xlink:title=" ">
<path fill="none" stroke="#63b8ff" d="M464.58,-54.75C457.23,-47.11 446.37,-35.82 437.46,-26.56"/>
<polygon fill="#63b8ff" stroke="#63b8ff" points="439.72,-23.87 430.26,-19.09 434.68,-28.72 439.72,-23.87"/>
</a>
</g>
</g>
<!-- Node5 -->
<g id="Node000005" class="node">
<title>Node5</title>
<g id="a_Node000005"><a xlink:title=" ">
<polygon fill="#e0e0e0" stroke="#999999" points="178.5,-19 123.5,-19 123.5,0 178.5,0 178.5,-19"/>
<text text-anchor="middle" x="151" y="-7" font-family="Helvetica,sans-Serif" font-size="10.00">QVector</text>
</a>
</g>
</g>
<!-- Node2&#45;&gt;Node5 -->
<g id="edge4_Node000002_Node000005" class="edge">
<title>Node2&#45;&gt;Node5</title>
<g id="a_edge4_Node000002_Node000005"><a xlink:title=" ">
<path fill="none" stroke="#63b8ff" d="M409.95,-54.96C354.31,-47.13 270.81,-34.66 188.82,-19.04"/>
<polygon fill="#63b8ff" stroke="#63b8ff" points="189.32,-15.57 178.84,-17.12 187.99,-22.44 189.32,-15.57"/>
</a>
</g>
</g>
<!-- Node6 -->
<g id="Node000006" class="node">
<title>Node6</title>
<g id="a_Node000006"><a xlink:title=" ">
<polygon fill="#e0e0e0" stroke="#999999" points="525.5,-19 466.5,-19 466.5,0 525.5,0 525.5,-19"/>
<text text-anchor="middle" x="496" y="-7" font-family="Helvetica,sans-Serif" font-size="10.00">QWidget</text>
</a>
</g>
</g>
<!-- Node2&#45;&gt;Node6 -->
<g id="edge5_Node000002_Node000006" class="edge">
<title>Node2&#45;&gt;Node6</title>
<g id="a_edge5_Node000002_Node000006"><a xlink:title=" ">
<path fill="none" stroke="#63b8ff" d="M476.8,-54.75C479.91,-47.57 484.42,-37.18 488.29,-28.27"/>
<polygon fill="#63b8ff" stroke="#63b8ff" points="491.5,-29.66 492.27,-19.09 485.08,-26.87 491.5,-29.66"/>
</a>
</g>
</g>
<!-- Node10&#45;&gt;Node3 -->
<g id="edge11_Node000010_Node000003" class="edge">
<title>Node10&#45;&gt;Node3</title>
<g id="a_edge11_Node000010_Node000003"><a xlink:title=" ">
<path fill="none" stroke="#63b8ff" d="M149.63,-54.93C193.34,-47.11 258.93,-34.73 324.63,-19.17"/>
<polygon fill="#63b8ff" stroke="#63b8ff" points="325.84,-22.48 334.75,-16.75 324.21,-15.68 325.84,-22.48"/>
</a>
</g>
</g>
<!-- Node10&#45;&gt;Node4 -->
<g id="edge12_Node000010_Node000004" class="edge">
<title>Node10&#45;&gt;Node4</title>
<g id="a_edge12_Node000010_Node000004"><a xlink:title=" ">
<path fill="none" stroke="#63b8ff" d="M164.14,-54.97C220,-47.21 303.35,-34.84 385.33,-18.99"/>
<polygon fill="#63b8ff" stroke="#63b8ff" points="386.17,-22.4 395.31,-17.04 384.83,-15.52 386.17,-22.4"/>
</a>
</g>
</g>
<!-- Node10&#45;&gt;Node5 -->
<g id="edge13_Node000010_Node000005" class="edge">
<title>Node10&#45;&gt;Node5</title>
<g id="a_edge13_Node000010_Node000005"><a xlink:title=" ">
<path fill="none" stroke="#63b8ff" d="M108.42,-54.75C115.77,-47.11 126.63,-35.82 135.54,-26.56"/>
<polygon fill="#63b8ff" stroke="#63b8ff" points="138.32,-28.72 142.74,-19.09 133.28,-23.87 138.32,-28.72"/>
</a>
</g>
</g>
<!-- Node11 -->
<g id="Node000011" class="node">
<title>Node11</title>
<g id="a_Node000011"><a xlink:title=" ">
<polygon fill="#e0e0e0" stroke="#999999" points="105,-19 49,-19 49,0 105,0 105,-19"/>
<text text-anchor="middle" x="77" y="-7" font-family="Helvetica,sans-Serif" font-size="10.00">QObject</text>
</a>
</g>
</g>
<!-- Node10&#45;&gt;Node11 -->
<g id="edge10_Node000010_Node000011" class="edge">
<title>Node10&#45;&gt;Node11</title>
<g id="a_edge10_Node000010_Node000011"><a xlink:title=" ">
<path fill="none" stroke="#63b8ff" d="M96.2,-54.75C93.09,-47.57 88.58,-37.18 84.71,-28.27"/>
<polygon fill="#63b8ff" stroke="#63b8ff" points="87.92,-26.87 80.73,-19.09 81.5,-29.66 87.92,-26.87"/>
</a>
</g>
</g>
<!-- Node12&#45;&gt;Node3 -->
<g id="edge16_Node000012_Node000003" class="edge">
<title>Node12&#45;&gt;Node3</title>
<g id="a_edge16_Node000012_Node000003"><a xlink:title=" ">
<path fill="none" stroke="#63b8ff" d="M307.32,-54.98C315.81,-47.23 328.56,-35.58 338.88,-26.14"/>
<polygon fill="#63b8ff" stroke="#63b8ff" points="341.49,-28.5 346.51,-19.17 336.77,-23.33 341.49,-28.5"/>
</a>
</g>
</g>
<!-- Node12&#45;&gt;Node4 -->
<g id="edge17_Node000012_Node000004" class="edge">
<title>Node12&#45;&gt;Node4</title>
<g id="a_edge17_Node000012_Node000004"><a xlink:title=" ">
<path fill="none" stroke="#63b8ff" d="M317.92,-54.98C338.05,-46.38 369.38,-32.99 392.41,-23.15"/>
<polygon fill="#63b8ff" stroke="#63b8ff" points="393.9,-26.32 401.71,-19.17 391.14,-19.88 393.9,-26.32"/>
</a>
</g>
</g>
<!-- Node12&#45;&gt;Node5 -->
<g id="edge18_Node000012_Node000005" class="edge">
<title>Node12&#45;&gt;Node5</title>
<g id="a_edge18_Node000012_Node000005"><a xlink:title=" ">
<path fill="none" stroke="#63b8ff" d="M274.38,-54.98C250.1,-46.23 212.05,-32.51 184.63,-22.62"/>
<polygon fill="#63b8ff" stroke="#63b8ff" points="185.64,-19.27 175.05,-19.17 183.27,-25.85 185.64,-19.27"/>
</a>
</g>
</g>
<!-- Node13 -->
<g id="Node000013" class="node">
<title>Node13</title>
<g id="a_Node000013"><a xlink:title=" ">
<polygon fill="#e0e0e0" stroke="#999999" points="317,-19 197,-19 197,0 317,0 317,-19"/>
<text text-anchor="middle" x="257" y="-7" font-family="Helvetica,sans-Serif" font-size="10.00">QAbstractTableModel</text>
</a>
</g>
</g>
<!-- Node12&#45;&gt;Node13 -->
<g id="edge15_Node000012_Node000013" class="edge">
<title>Node12&#45;&gt;Node13</title>
<g id="a_edge15_Node000012_Node000013"><a xlink:title=" ">
<path fill="none" stroke="#63b8ff" d="M291.23,-54.75C285.44,-47.26 276.94,-36.28 269.86,-27.13"/>
<polygon fill="#63b8ff" stroke="#63b8ff" points="272.53,-24.86 263.64,-19.09 266.99,-29.14 272.53,-24.86"/>
</a>
</g>
</g>
</g>
</svg>
