<?xml version="1.0" encoding="UTF-8" standalone="no"?>
<!DOCTYPE svg PUBLIC "-//W3C//DTD SVG 1.1//EN"
 "http://www.w3.org/Graphics/SVG/1.1/DTD/svg11.dtd">
<!-- Generated by graphviz version 2.43.0 (0)
 -->
<!-- Title: src/ui/src/DicomMetaDataModel.cpp Pages: 1 -->
<svg width="333pt" height="148pt"
 viewBox="0.00 0.00 332.50 148.00" xmlns="http://www.w3.org/2000/svg" xmlns:xlink="http://www.w3.org/1999/xlink">

<svg id="main" version="1.1" xmlns="http://www.w3.org/2000/svg" xmlns:xlink="http://www.w3.org/1999/xlink" xml:space="preserve" onload="init(evt)">
<style type="text/css"><![CDATA[
.node, .edge {opacity: 0.7;}
.node.selected, .edge.selected {opacity: 1;}
.edge:hover path { stroke: red; }
.edge:hover polygon { stroke: red; fill: red; }
]]></style>
<script type="application/ecmascript" xlink:href="svg.min.js"/>
<svg id="graph" class="graph">
<g id="graph0" class="graph" transform="scale(1 1) rotate(0) translate(4 144)">
<title>src/ui/src/DicomMetaDataModel.cpp</title>
<!-- Node1 -->
<g id="Node000001" class="node">
<title>Node1</title>
<g id="a_Node000001"><a xlink:title=" ">
<polygon fill="#999999" stroke="#666666" points="263.5,-140 120.5,-140 120.5,-110 263.5,-110 263.5,-140"/>
<text text-anchor="start" x="128.5" y="-128" font-family="Helvetica,sans-Serif" font-size="10.00">src/ui/src/DicomMetaData</text>
<text text-anchor="middle" x="192" y="-117" font-family="Helvetica,sans-Serif" font-size="10.00">Model.cpp</text>
</a>
</g>
</g>
<!-- Node2 -->
<g id="Node000002" class="node">
<title>Node2</title>
<g id="a_Node000002"><a xlink:href="DicomMetaDataModel_8hpp.html" target="_top" xlink:title=" ">
<polygon fill="white" stroke="#666666" points="271.5,-74 112.5,-74 112.5,-55 271.5,-55 271.5,-74"/>
<text text-anchor="middle" x="192" y="-62" font-family="Helvetica,sans-Serif" font-size="10.00">ui/DicomMetaDataModel.hpp</text>
</a>
</g>
</g>
<!-- Node1&#45;&gt;Node2 -->
<g id="edge1_Node000001_Node000002" class="edge">
<title>Node1&#45;&gt;Node2</title>
<g id="a_edge1_Node000001_Node000002"><a xlink:title=" ">
<path fill="none" stroke="#63b8ff" d="M192,-109.84C192,-102.21 192,-92.7 192,-84.45"/>
<polygon fill="#63b8ff" stroke="#63b8ff" points="195.5,-84.27 192,-74.27 188.5,-84.27 195.5,-84.27"/>
</a>
</g>
</g>
<!-- Node3 -->
<g id="Node000003" class="node">
<title>Node3</title>
<g id="a_Node000003"><a xlink:title=" ">
<polygon fill="#e0e0e0" stroke="#999999" points="120,-19 0,-19 0,0 120,0 120,-19"/>
<text text-anchor="middle" x="60" y="-7" font-family="Helvetica,sans-Serif" font-size="10.00">QAbstractTableModel</text>
</a>
</g>
</g>
<!-- Node2&#45;&gt;Node3 -->
<g id="edge2_Node000002_Node000003" class="edge">
<title>Node2&#45;&gt;Node3</title>
<g id="a_edge2_Node000002_Node000003"><a xlink:title=" ">
<path fill="none" stroke="#63b8ff" d="M170.79,-54.98C149.27,-46.34 115.72,-32.87 91.17,-23.02"/>
<polygon fill="#63b8ff" stroke="#63b8ff" points="92.18,-19.65 81.59,-19.17 89.57,-26.14 92.18,-19.65"/>
</a>
</g>
</g>
<!-- Node4 -->
<g id="Node000004" class="node">
<title>Node4</title>
<g id="a_Node000004"><a xlink:title=" ">
<polygon fill="#e0e0e0" stroke="#999999" points="180,-19 138,-19 138,0 180,0 180,-19"/>
<text text-anchor="middle" x="159" y="-7" font-family="Helvetica,sans-Serif" font-size="10.00">QPair</text>
</a>
</g>
</g>
<!-- Node2&#45;&gt;Node4 -->
<g id="edge3_Node000002_Node000004" class="edge">
<title>Node2&#45;&gt;Node4</title>
<g id="a_edge3_Node000002_Node000004"><a xlink:title=" ">
<path fill="none" stroke="#63b8ff" d="M186.55,-54.75C181.99,-47.42 175.33,-36.73 169.71,-27.7"/>
<polygon fill="#63b8ff" stroke="#63b8ff" points="172.6,-25.73 164.35,-19.09 166.66,-29.43 172.6,-25.73"/>
</a>
</g>
</g>
<!-- Node5 -->
<g id="Node000005" class="node">
<title>Node5</title>
<g id="a_Node000005"><a xlink:title=" ">
<polygon fill="#e0e0e0" stroke="#999999" points="251.5,-19 198.5,-19 198.5,0 251.5,0 251.5,-19"/>
<text text-anchor="middle" x="225" y="-7" font-family="Helvetica,sans-Serif" font-size="10.00">QString</text>
</a>
</g>
</g>
<!-- Node2&#45;&gt;Node5 -->
<g id="edge4_Node000002_Node000005" class="edge">
<title>Node2&#45;&gt;Node5</title>
<g id="a_edge4_Node000002_Node000005"><a xlink:title=" ">
<path fill="none" stroke="#63b8ff" d="M197.45,-54.75C202.01,-47.42 208.67,-36.73 214.29,-27.7"/>
<polygon fill="#63b8ff" stroke="#63b8ff" points="217.34,-29.43 219.65,-19.09 211.4,-25.73 217.34,-29.43"/>
</a>
</g>
</g>
<!-- Node6 -->
<g id="Node000006" class="node">
<title>Node6</title>
<g id="a_Node000006"><a xlink:title=" ">
<polygon fill="#e0e0e0" stroke="#999999" points="324.5,-19 269.5,-19 269.5,0 324.5,0 324.5,-19"/>
<text text-anchor="middle" x="297" y="-7" font-family="Helvetica,sans-Serif" font-size="10.00">QVector</text>
</a>
</g>
</g>
<!-- Node2&#45;&gt;Node6 -->
<g id="edge5_Node000002_Node000006" class="edge">
<title>Node2&#45;&gt;Node6</title>
<g id="a_edge5_Node000002_Node000006"><a xlink:title=" ">
<path fill="none" stroke="#63b8ff" d="M208.87,-54.98C225.61,-46.54 251.5,-33.47 270.89,-23.68"/>
<polygon fill="#63b8ff" stroke="#63b8ff" points="272.47,-26.8 279.82,-19.17 269.32,-20.55 272.47,-26.8"/>
</a>
</g>
</g>
</g>
</svg>
</svg>

<style type='text/css'>
<![CDATA[
[data-mouse-over-selected='false'] { opacity: 0.7; }
[data-mouse-over-selected='true']  { opacity: 1.0; }
]]>
</style>
<script type="application/ecmascript"><![CDATA[
document.addEventListener('DOMContentLoaded', (event) => {
  highlightEdges();
  highlightAdjacentNodes();
});
]]></script>
</svg>
