<?xml version="1.0" encoding="UTF-8" standalone="no"?>
<!DOCTYPE svg PUBLIC "-//W3C//DTD SVG 1.1//EN"
 "http://www.w3.org/Graphics/SVG/1.1/DTD/svg11.dtd">
<!-- Generated by graphviz version 2.43.0 (0)
 -->
<!-- Title: src/controllers Pages: 1 -->
<svg width="204pt" height="196pt"
 viewBox="0.00 0.00 203.50 196.00" xmlns="http://www.w3.org/2000/svg" xmlns:xlink="http://www.w3.org/1999/xlink">
<g id="graph0" class="graph" transform="scale(1 1) rotate(0) translate(4 192)">
<title>src/controllers</title>
<g id="clust1" class="cluster">
<title>clusterdir_68267d1309a1af8e8297ef4c3efbcdba</title>
<g id="a_clust1"><a xlink:href="dir_68267d1309a1af8e8297ef4c3efbcdba.html" target="_top" xlink:title="src">
<polygon fill="#eef0f6" stroke="#404040" stroke-dasharray="5,2" points="8,-8 8,-180 158,-180 158,-8 8,-8"/>
<text text-anchor="middle" x="83" y="-168" font-family="Helvetica,sans-Serif" font-size="10.00">src</text>
</a>
</g>
</g>
<g id="clust2" class="cluster">
<title>clusterdir_bbd6674d859f4cefaacb708974cac240</title>
<g id="a_clust2"><a xlink:href="dir_bbd6674d859f4cefaacb708974cac240.html" target="_top">
<polygon fill="#eef0f6" stroke="#404040" stroke-width="2" points="16,-63 16,-153 150,-153 150,-63 16,-63"/>
</a>
</g>
</g>
<!-- dir_e488ee1cea97fb16abdb5ccc78d2123b -->
<g id="node1" class="node">
<title>dir_e488ee1cea97fb16abdb5ccc78d2123b</title>
<g id="a_node1"><a xlink:href="dir_e488ee1cea97fb16abdb5ccc78d2123b.html" target="_top" xlink:title="render">
<polygon fill="#a7b5d1" stroke="red" points="86,-35 38,-35 38,-16 86,-16 86,-35"/>
<text text-anchor="middle" x="62" y="-23" font-family="Helvetica,sans-Serif" font-size="10.00">render</text>
</a>
</g>
</g>
<!-- dir_bbd6674d859f4cefaacb708974cac240 -->
<g id="node2" class="node">
<title>dir_bbd6674d859f4cefaacb708974cac240</title>
<text text-anchor="middle" x="108" y="-133" font-family="Helvetica,sans-Serif" font-size="10.00">controllers</text>
</g>
<!-- dir_bcf4b0aa39a54324b1d1bce59bb2e0d0 -->
<g id="node3" class="node">
<title>dir_bcf4b0aa39a54324b1d1bce59bb2e0d0</title>
<g id="a_node3"><a xlink:href="dir_bcf4b0aa39a54324b1d1bce59bb2e0d0.html" target="_top" xlink:title="include">
<polygon fill="#a7b5d1" stroke="#404040" points="111,-90 59,-90 59,-71 111,-71 111,-90"/>
<text text-anchor="middle" x="85" y="-78" font-family="Helvetica,sans-Serif" font-size="10.00">include</text>
</a>
</g>
</g>
<!-- dir_bcf4b0aa39a54324b1d1bce59bb2e0d0&#45;&gt;dir_e488ee1cea97fb16abdb5ccc78d2123b -->
<g id="edge2" class="edge">
<title>dir_bcf4b0aa39a54324b1d1bce59bb2e0d0&#45;&gt;dir_e488ee1cea97fb16abdb5ccc78d2123b</title>
<g id="a_edge2"><a xlink:href="dir_000007_000014.html" target="_top">
<path fill="none" stroke="#63b8ff" d="M81.2,-70.75C78.09,-63.57 73.58,-53.18 69.71,-44.27"/>
<polygon fill="#63b8ff" stroke="#63b8ff" points="72.92,-42.87 65.73,-35.09 66.5,-45.66 72.92,-42.87"/>
</a>
</g>
<g id="a_edge2&#45;headlabel"><a xlink:href="dir_000007_000014.html" target="_top" xlink:title="1">
<text text-anchor="middle" x="76.95" y="-42.54" font-family="Helvetica,sans-Serif" font-size="10.00" fill="#63b8ff">1</text>
</a>
</g>
</g>
<!-- dir_97aefd0d527b934f1d99a682da8fe6a9 -->
<g id="node5" class="node">
<title>dir_97aefd0d527b934f1d99a682da8fe6a9</title>
<g id="a_node5"><a xlink:href="dir_97aefd0d527b934f1d99a682da8fe6a9.html" target="_top" xlink:title="lib">
<polygon fill="#eef0f6" stroke="red" points="195.5,-35 166.5,-35 166.5,-16 195.5,-16 195.5,-35"/>
<text text-anchor="middle" x="181" y="-23" font-family="Helvetica,sans-Serif" font-size="10.00">lib</text>
</a>
</g>
</g>
<!-- dir_bcf4b0aa39a54324b1d1bce59bb2e0d0&#45;&gt;dir_97aefd0d527b934f1d99a682da8fe6a9 -->
<g id="edge1" class="edge">
<title>dir_bcf4b0aa39a54324b1d1bce59bb2e0d0&#45;&gt;dir_97aefd0d527b934f1d99a682da8fe6a9</title>
<g id="a_edge1"><a xlink:href="dir_000007_000011.html" target="_top">
<path fill="none" stroke="#63b8ff" d="M100.42,-70.98C115.72,-62.54 139.37,-49.48 157.1,-39.7"/>
<polygon fill="#63b8ff" stroke="#63b8ff" points="159.18,-42.54 166.24,-34.65 155.8,-36.42 159.18,-42.54"/>
</a>
</g>
<g id="a_edge1&#45;headlabel"><a xlink:href="dir_000007_000011.html" target="_top" xlink:title="1">
<text text-anchor="middle" x="157.41" y="-44.27" font-family="Helvetica,sans-Serif" font-size="10.00" fill="#63b8ff">1</text>
</a>
</g>
</g>
<!-- dir_0d2f937431600f11b2dc0cc284f63992 -->
<g id="node4" class="node">
<title>dir_0d2f937431600f11b2dc0cc284f63992</title>
<g id="a_node4"><a xlink:href="dir_0d2f937431600f11b2dc0cc284f63992.html" target="_top" xlink:title="src">
<polygon fill="#a7b5d1" stroke="#404040" points="55.5,-145 24.5,-145 24.5,-126 55.5,-126 55.5,-145"/>
<text text-anchor="middle" x="40" y="-133" font-family="Helvetica,sans-Serif" font-size="10.00">src</text>
</a>
</g>
</g>
<!-- dir_0d2f937431600f11b2dc0cc284f63992&#45;&gt;dir_e488ee1cea97fb16abdb5ccc78d2123b -->
<g id="edge5" class="edge">
<title>dir_0d2f937431600f11b2dc0cc284f63992&#45;&gt;dir_e488ee1cea97fb16abdb5ccc78d2123b</title>
<g id="a_edge5"><a xlink:href="dir_000020_000014.html" target="_top">
<path fill="none" stroke="#63b8ff" d="M40.73,-125.6C41.96,-111.98 44.84,-85.22 50,-63 51.42,-56.91 53.4,-50.38 55.35,-44.56"/>
<polygon fill="#63b8ff" stroke="#63b8ff" points="58.67,-45.67 58.7,-35.08 52.07,-43.35 58.67,-45.67"/>
</a>
</g>
<g id="a_edge5&#45;headlabel"><a xlink:href="dir_000020_000014.html" target="_top" xlink:title="6">
<text text-anchor="middle" x="60.16" y="-47.51" font-family="Helvetica,sans-Serif" font-size="10.00" fill="#63b8ff">6</text>
</a>
</g>
</g>
<!-- dir_0d2f937431600f11b2dc0cc284f63992&#45;&gt;dir_bcf4b0aa39a54324b1d1bce59bb2e0d0 -->
<g id="edge4" class="edge">
<title>dir_0d2f937431600f11b2dc0cc284f63992&#45;&gt;dir_bcf4b0aa39a54324b1d1bce59bb2e0d0</title>
<g id="a_edge4"><a xlink:href="dir_000020_000007.html" target="_top">
<path fill="none" stroke="#63b8ff" d="M47.43,-125.75C53.85,-118.18 63.31,-107.05 71.12,-97.84"/>
<polygon fill="#63b8ff" stroke="#63b8ff" points="73.9,-99.98 77.71,-90.09 68.57,-95.45 73.9,-99.98"/>
</a>
</g>
<g id="a_edge4&#45;headlabel"><a xlink:href="dir_000020_000007.html" target="_top" xlink:title="13">
<text text-anchor="middle" x="73.74" y="-102.06" font-family="Helvetica,sans-Serif" font-size="10.00" fill="#63b8ff">13</text>
</a>
</g>
</g>
<!-- dir_0d2f937431600f11b2dc0cc284f63992&#45;&gt;dir_97aefd0d527b934f1d99a682da8fe6a9 -->
<g id="edge3" class="edge">
<title>dir_0d2f937431600f11b2dc0cc284f63992&#45;&gt;dir_97aefd0d527b934f1d99a682da8fe6a9</title>
<g id="a_edge3"><a xlink:href="dir_000020_000011.html" target="_top">
<path fill="none" stroke="#63b8ff" d="M55.57,-127.55C72.33,-119.7 99.35,-105.91 120,-90 138.08,-76.07 155.82,-56.79 167.46,-43.14"/>
<polygon fill="#63b8ff" stroke="#63b8ff" points="170.46,-45.01 174.18,-35.09 165.08,-40.53 170.46,-45.01"/>
</a>
</g>
<g id="a_edge3&#45;headlabel"><a xlink:href="dir_000020_000011.html" target="_top" xlink:title="1">
<text text-anchor="middle" x="170.33" y="-47.09" font-family="Helvetica,sans-Serif" font-size="10.00" fill="#63b8ff">1</text>
</a>
</g>
</g>
</g>
</svg>
