<?xml version="1.0" encoding="UTF-8" standalone="no"?>
<!DOCTYPE svg PUBLIC "-//W3C//DTD SVG 1.1//EN"
 "http://www.w3.org/Graphics/SVG/1.1/DTD/svg11.dtd">
<!-- Generated by graphviz version 2.43.0 (0)
 -->
<!-- Title: src/adapters Pages: 1 -->
<svg width="319pt" height="196pt"
 viewBox="0.00 0.00 319.00 196.00" xmlns="http://www.w3.org/2000/svg" xmlns:xlink="http://www.w3.org/1999/xlink">
<g id="graph0" class="graph" transform="scale(1 1) rotate(0) translate(4 192)">
<title>src/adapters</title>
<g id="clust1" class="cluster">
<title>clusterdir_68267d1309a1af8e8297ef4c3efbcdba</title>
<g id="a_clust1"><a xlink:href="dir_68267d1309a1af8e8297ef4c3efbcdba.html" target="_top" xlink:title="src">
<polygon fill="#eef0f6" stroke="#404040" stroke-dasharray="5,2" points="8,-8 8,-180 303,-180 303,-8 8,-8"/>
<text text-anchor="middle" x="155.5" y="-168" font-family="Helvetica,sans-Serif" font-size="10.00">src</text>
</a>
</g>
</g>
<g id="clust2" class="cluster">
<title>clusterdir_085924db4bed469054a9264cf96b0d5e</title>
<g id="a_clust2"><a xlink:href="dir_085924db4bed469054a9264cf96b0d5e.html" target="_top">
<polygon fill="#eef0f6" stroke="#404040" stroke-width="2" points="16,-63 16,-153 141,-153 141,-63 16,-63"/>
</a>
</g>
</g>
<!-- dir_da5c6b39c0a2f54e57df6799511cd3ab -->
<g id="node1" class="node">
<title>dir_da5c6b39c0a2f54e57df6799511cd3ab</title>
<g id="a_node1"><a xlink:href="dir_da5c6b39c0a2f54e57df6799511cd3ab.html" target="_top" xlink:title="ui">
<polygon fill="#a7b5d1" stroke="red" points="64.5,-35 35.5,-35 35.5,-16 64.5,-16 64.5,-35"/>
<text text-anchor="middle" x="50" y="-23" font-family="Helvetica,sans-Serif" font-size="10.00">ui</text>
</a>
</g>
</g>
<!-- dir_bbd6674d859f4cefaacb708974cac240 -->
<g id="node2" class="node">
<title>dir_bbd6674d859f4cefaacb708974cac240</title>
<g id="a_node2"><a xlink:href="dir_bbd6674d859f4cefaacb708974cac240.html" target="_top" xlink:title="controllers">
<polygon fill="#a7b5d1" stroke="red" points="217,-90 149,-90 149,-71 217,-71 217,-90"/>
<text text-anchor="middle" x="183" y="-78" font-family="Helvetica,sans-Serif" font-size="10.00">controllers</text>
</a>
</g>
</g>
<!-- dir_e7b187df6071a5fd6607ac0db687751f -->
<g id="node3" class="node">
<title>dir_e7b187df6071a5fd6607ac0db687751f</title>
<g id="a_node3"><a xlink:href="dir_e7b187df6071a5fd6607ac0db687751f.html" target="_top" xlink:title="overlays">
<polygon fill="#a7b5d1" stroke="red" points="294.5,-90 235.5,-90 235.5,-71 294.5,-71 294.5,-90"/>
<text text-anchor="middle" x="265" y="-78" font-family="Helvetica,sans-Serif" font-size="10.00">overlays</text>
</a>
</g>
</g>
<!-- dir_085924db4bed469054a9264cf96b0d5e -->
<g id="node4" class="node">
<title>dir_085924db4bed469054a9264cf96b0d5e</title>
<text text-anchor="middle" x="103" y="-133" font-family="Helvetica,sans-Serif" font-size="10.00">adapters</text>
</g>
<!-- dir_1ce1f0c798f27f5472e5ac7ee11ff269 -->
<g id="node5" class="node">
<title>dir_1ce1f0c798f27f5472e5ac7ee11ff269</title>
<g id="a_node5"><a xlink:href="dir_1ce1f0c798f27f5472e5ac7ee11ff269.html" target="_top" xlink:title="include">
<polygon fill="#a7b5d1" stroke="#404040" points="76,-90 24,-90 24,-71 76,-71 76,-90"/>
<text text-anchor="middle" x="50" y="-78" font-family="Helvetica,sans-Serif" font-size="10.00">include</text>
</a>
</g>
</g>
<!-- dir_1ce1f0c798f27f5472e5ac7ee11ff269&#45;&gt;dir_da5c6b39c0a2f54e57df6799511cd3ab -->
<g id="edge1" class="edge">
<title>dir_1ce1f0c798f27f5472e5ac7ee11ff269&#45;&gt;dir_da5c6b39c0a2f54e57df6799511cd3ab</title>
<g id="a_edge1"><a xlink:href="dir_000006_000024.html" target="_top">
<path fill="none" stroke="#63b8ff" d="M50,-70.75C50,-63.8 50,-53.85 50,-45.13"/>
<polygon fill="#63b8ff" stroke="#63b8ff" points="53.5,-45.09 50,-35.09 46.5,-45.09 53.5,-45.09"/>
</a>
</g>
<g id="a_edge1&#45;headlabel"><a xlink:href="dir_000006_000024.html" target="_top" xlink:title="1">
<text text-anchor="middle" x="56.34" y="-46.18" font-family="Helvetica,sans-Serif" font-size="10.00" fill="#63b8ff">1</text>
</a>
</g>
</g>
<!-- dir_5bda60c7c21afce9ebe8c57ca8d6cd2b -->
<g id="node6" class="node">
<title>dir_5bda60c7c21afce9ebe8c57ca8d6cd2b</title>
<g id="a_node6"><a xlink:href="dir_5bda60c7c21afce9ebe8c57ca8d6cd2b.html" target="_top" xlink:title="src">
<polygon fill="#a7b5d1" stroke="#404040" points="55.5,-145 24.5,-145 24.5,-126 55.5,-126 55.5,-145"/>
<text text-anchor="middle" x="40" y="-133" font-family="Helvetica,sans-Serif" font-size="10.00">src</text>
</a>
</g>
</g>
<!-- dir_5bda60c7c21afce9ebe8c57ca8d6cd2b&#45;&gt;dir_bbd6674d859f4cefaacb708974cac240 -->
<g id="edge3" class="edge">
<title>dir_5bda60c7c21afce9ebe8c57ca8d6cd2b&#45;&gt;dir_bbd6674d859f4cefaacb708974cac240</title>
<g id="a_edge3"><a xlink:href="dir_000018_000003.html" target="_top">
<path fill="none" stroke="#63b8ff" d="M55.58,-128.73C78.21,-120.34 120.72,-104.58 150.39,-93.59"/>
<polygon fill="#63b8ff" stroke="#63b8ff" points="151.75,-96.82 159.91,-90.06 149.31,-90.25 151.75,-96.82"/>
</a>
</g>
<g id="a_edge3&#45;headlabel"><a xlink:href="dir_000018_000003.html" target="_top" xlink:title="1">
<text text-anchor="middle" x="149.36" y="-98.23" font-family="Helvetica,sans-Serif" font-size="10.00" fill="#63b8ff">1</text>
</a>
</g>
</g>
<!-- dir_5bda60c7c21afce9ebe8c57ca8d6cd2b&#45;&gt;dir_e7b187df6071a5fd6607ac0db687751f -->
<g id="edge4" class="edge">
<title>dir_5bda60c7c21afce9ebe8c57ca8d6cd2b&#45;&gt;dir_e7b187df6071a5fd6607ac0db687751f</title>
<g id="a_edge4"><a xlink:href="dir_000018_000012.html" target="_top">
<path fill="none" stroke="#63b8ff" d="M55.52,-128.93C58.64,-127.89 61.91,-126.87 65,-126 72.74,-123.83 169.25,-102.54 225.32,-90.21"/>
<polygon fill="#63b8ff" stroke="#63b8ff" points="226.28,-93.59 235.29,-88.02 224.77,-86.75 226.28,-93.59"/>
</a>
</g>
<g id="a_edge4&#45;headlabel"><a xlink:href="dir_000018_000012.html" target="_top" xlink:title="3">
<text text-anchor="middle" x="223.37" y="-94.63" font-family="Helvetica,sans-Serif" font-size="10.00" fill="#63b8ff">3</text>
</a>
</g>
</g>
<!-- dir_5bda60c7c21afce9ebe8c57ca8d6cd2b&#45;&gt;dir_1ce1f0c798f27f5472e5ac7ee11ff269 -->
<g id="edge2" class="edge">
<title>dir_5bda60c7c21afce9ebe8c57ca8d6cd2b&#45;&gt;dir_1ce1f0c798f27f5472e5ac7ee11ff269</title>
<g id="a_edge2"><a xlink:href="dir_000018_000006.html" target="_top">
<path fill="none" stroke="#63b8ff" d="M41.65,-125.75C42.96,-118.8 44.84,-108.85 46.48,-100.13"/>
<polygon fill="#63b8ff" stroke="#63b8ff" points="49.96,-100.56 48.38,-90.09 43.09,-99.27 49.96,-100.56"/>
</a>
</g>
<g id="a_edge2&#45;headlabel"><a xlink:href="dir_000018_000006.html" target="_top" xlink:title="2">
<text text-anchor="middle" x="52.09" y="-102.12" font-family="Helvetica,sans-Serif" font-size="10.00" fill="#63b8ff">2</text>
</a>
</g>
</g>
</g>
</svg>
