<?xml version="1.0" encoding="UTF-8" standalone="no"?>
<!DOCTYPE svg PUBLIC "-//W3C//DTD SVG 1.1//EN"
 "http://www.w3.org/Graphics/SVG/1.1/DTD/svg11.dtd">
<!-- Generated by graphviz version 2.43.0 (0)
 -->
<!-- Title: src/controllers/include/controllers/IControllerBase.hpp Pages: 1 -->
<svg width="1245pt" height="357pt"
 viewBox="0.00 0.00 1244.50 357.00" xmlns="http://www.w3.org/2000/svg" xmlns:xlink="http://www.w3.org/1999/xlink">
<g id="graph0" class="graph" transform="scale(1 1) rotate(0) translate(4 353)">
<title>src/controllers/include/controllers/IControllerBase.hpp</title>
<!-- Node1 -->
<g id="Node000001" class="node">
<title>Node1</title>
<g id="a_Node000001"><a xlink:title=" ">
<polygon fill="#999999" stroke="#666666" points="773.5,-349 603.5,-349 603.5,-319 773.5,-319 773.5,-349"/>
<text text-anchor="start" x="611.5" y="-337" font-family="Helvetica,sans-Serif" font-size="10.00">src/controllers/include</text>
<text text-anchor="middle" x="688.5" y="-326" font-family="Helvetica,sans-Serif" font-size="10.00">/controllers/IControllerBase.hpp</text>
</a>
</g>
</g>
<!-- Node2 -->
<g id="Node000002" class="node">
<title>Node2</title>
<g id="a_Node000002"><a xlink:href="DicomController_8hpp.html" target="_top" xlink:title=" ">
<polygon fill="white" stroke="#666666" points="361.5,-283 187.5,-283 187.5,-253 361.5,-253 361.5,-283"/>
<text text-anchor="start" x="195.5" y="-271" font-family="Helvetica,sans-Serif" font-size="10.00">src/controllers/include</text>
<text text-anchor="middle" x="274.5" y="-260" font-family="Helvetica,sans-Serif" font-size="10.00">/controllers/DicomController.hpp</text>
</a>
</g>
</g>
<!-- Node1&#45;&gt;Node2 -->
<g id="edge1_Node000001_Node000002" class="edge">
<title>Node1&#45;&gt;Node2</title>
<g id="a_edge1_Node000001_Node000002"><a xlink:title=" ">
<path fill="none" stroke="#63b8ff" d="M593.35,-318.29C523.52,-307.5 429.41,-292.95 361.55,-282.46"/>
<polygon fill="#63b8ff" stroke="#63b8ff" points="593.05,-321.79 603.47,-319.86 594.12,-314.87 593.05,-321.79"/>
</a>
</g>
</g>
<!-- Node6 -->
<g id="Node000006" class="node">
<title>Node6</title>
<g id="a_Node000006"><a xlink:href="IViewController_8hpp.html" target="_top" xlink:title=" ">
<polygon fill="white" stroke="#666666" points="831.5,-217 661.5,-217 661.5,-187 831.5,-187 831.5,-217"/>
<text text-anchor="start" x="669.5" y="-205" font-family="Helvetica,sans-Serif" font-size="10.00">src/controllers/include</text>
<text text-anchor="middle" x="746.5" y="-194" font-family="Helvetica,sans-Serif" font-size="10.00">/controllers/IViewController.hpp</text>
</a>
</g>
</g>
<!-- Node1&#45;&gt;Node6 -->
<g id="edge5_Node000001_Node000006" class="edge">
<title>Node1&#45;&gt;Node6</title>
<g id="a_edge5_Node000001_Node000006"><a xlink:title=" ">
<path fill="none" stroke="#63b8ff" d="M708.88,-311.11C715.67,-302.82 722.71,-292.97 727.5,-283 737.88,-261.38 742.82,-233.68 744.99,-217.2"/>
<polygon fill="#63b8ff" stroke="#63b8ff" points="706.13,-308.95 702.28,-318.82 711.44,-313.5 706.13,-308.95"/>
</a>
</g>
</g>
<!-- Node15 -->
<g id="Node000015" class="node">
<title>Node15</title>
<g id="a_Node000015"><a xlink:href="SliceController_8hpp.html" target="_top" xlink:title=" ">
<polygon fill="white" stroke="#666666" points="1106.5,-283 940.5,-283 940.5,-253 1106.5,-253 1106.5,-283"/>
<text text-anchor="start" x="948.5" y="-271" font-family="Helvetica,sans-Serif" font-size="10.00">src/controllers/include</text>
<text text-anchor="middle" x="1023.5" y="-260" font-family="Helvetica,sans-Serif" font-size="10.00">/controllers/SliceController.hpp</text>
</a>
</g>
</g>
<!-- Node1&#45;&gt;Node15 -->
<g id="edge17_Node000001_Node000015" class="edge">
<title>Node1&#45;&gt;Node15</title>
<g id="a_edge17_Node000001_Node000015"><a xlink:title=" ">
<path fill="none" stroke="#63b8ff" d="M772.04,-317.04C826.76,-306.59 897.61,-293.05 950.15,-283.01"/>
<polygon fill="#63b8ff" stroke="#63b8ff" points="771.18,-313.64 762.02,-318.95 772.5,-320.52 771.18,-313.64"/>
</a>
</g>
</g>
<!-- Node17 -->
<g id="Node000017" class="node">
<title>Node17</title>
<g id="a_Node000017"><a xlink:href="SphereController_8hpp.html" target="_top" xlink:title=" ">
<polygon fill="white" stroke="#666666" points="718.5,-283 542.5,-283 542.5,-253 718.5,-253 718.5,-283"/>
<text text-anchor="start" x="550.5" y="-271" font-family="Helvetica,sans-Serif" font-size="10.00">src/controllers/include</text>
<text text-anchor="middle" x="630.5" y="-260" font-family="Helvetica,sans-Serif" font-size="10.00">/controllers/SphereController.hpp</text>
</a>
</g>
</g>
<!-- Node1&#45;&gt;Node17 -->
<g id="edge23_Node000001_Node000017" class="edge">
<title>Node1&#45;&gt;Node17</title>
<g id="a_edge23_Node000001_Node000017"><a xlink:title=" ">
<path fill="none" stroke="#63b8ff" d="M668.9,-311.37C660.46,-302.06 650.84,-291.44 643.34,-283.16"/>
<polygon fill="#63b8ff" stroke="#63b8ff" points="666.32,-313.74 675.63,-318.8 671.51,-309.04 666.32,-313.74"/>
</a>
</g>
</g>
<!-- Node3 -->
<g id="Node000003" class="node">
<title>Node3</title>
<g id="a_Node000003"><a xlink:href="DicomMetaDataAdapter_8cpp.html" target="_top" xlink:title=" ">
<polygon fill="white" stroke="#666666" points="153,-217 0,-217 0,-187 153,-187 153,-217"/>
<text text-anchor="start" x="8" y="-205" font-family="Helvetica,sans-Serif" font-size="10.00">src/adapters/src/DicomMeta</text>
<text text-anchor="middle" x="76.5" y="-194" font-family="Helvetica,sans-Serif" font-size="10.00">DataAdapter.cpp</text>
</a>
</g>
</g>
<!-- Node2&#45;&gt;Node3 -->
<g id="edge2_Node000002_Node000003" class="edge">
<title>Node2&#45;&gt;Node3</title>
<g id="a_edge2_Node000002_Node000003"><a xlink:title=" ">
<path fill="none" stroke="#63b8ff" d="M221.46,-249.86C189.67,-239.58 149.75,-226.68 119.85,-217.01"/>
<polygon fill="#63b8ff" stroke="#63b8ff" points="220.46,-253.21 231.05,-252.95 222.61,-246.55 220.46,-253.21"/>
</a>
</g>
</g>
<!-- Node4 -->
<g id="Node000004" class="node">
<title>Node4</title>
<g id="a_Node000004"><a xlink:href="DicomController_8cpp.html" target="_top" xlink:title=" ">
<polygon fill="white" stroke="#666666" points="290,-217 171,-217 171,-187 290,-187 290,-217"/>
<text text-anchor="start" x="179" y="-205" font-family="Helvetica,sans-Serif" font-size="10.00">src/controllers/src</text>
<text text-anchor="middle" x="230.5" y="-194" font-family="Helvetica,sans-Serif" font-size="10.00">/DicomController.cpp</text>
</a>
</g>
</g>
<!-- Node2&#45;&gt;Node4 -->
<g id="edge3_Node000002_Node000004" class="edge">
<title>Node2&#45;&gt;Node4</title>
<g id="a_edge3_Node000002_Node000004"><a xlink:title=" ">
<path fill="none" stroke="#63b8ff" d="M259.05,-244.53C252.79,-235.43 245.76,-225.19 240.24,-217.16"/>
<polygon fill="#63b8ff" stroke="#63b8ff" points="256.19,-246.54 264.73,-252.8 261.95,-242.57 256.19,-246.54"/>
</a>
</g>
</g>
<!-- Node5 -->
<g id="Node000005" class="node">
<title>Node5</title>
<g id="a_Node000005"><a xlink:href="MainWindow_8cpp.html" target="_top" xlink:title=" ">
<polygon fill="white" stroke="#666666" points="599.5,-19 453.5,-19 453.5,0 599.5,0 599.5,-19"/>
<text text-anchor="middle" x="526.5" y="-7" font-family="Helvetica,sans-Serif" font-size="10.00">src/ui/src/MainWindow.cpp</text>
</a>
</g>
</g>
<!-- Node2&#45;&gt;Node5 -->
<g id="edge4_Node000002_Node000005" class="edge">
<title>Node2&#45;&gt;Node5</title>
<g id="a_edge4_Node000002_Node000005"><a xlink:title=" ">
<path fill="none" stroke="#63b8ff" d="M286.88,-243.83C290.97,-235.53 295.3,-226 298.5,-217 323.33,-147.23 285,-107.23 337.5,-55 354.47,-38.12 410.76,-26.27 457.54,-19.07"/>
<polygon fill="#63b8ff" stroke="#63b8ff" points="283.68,-242.4 282.26,-252.9 289.91,-245.58 283.68,-242.4"/>
</a>
</g>
</g>
<!-- Node7 -->
<g id="Node000007" class="node">
<title>Node7</title>
<g id="a_Node000007"><a xlink:href="MultiWindowController_8hpp.html" target="_top" xlink:title=" ">
<polygon fill="white" stroke="#666666" points="602.5,-151 396.5,-151 396.5,-121 602.5,-121 602.5,-151"/>
<text text-anchor="start" x="404.5" y="-139" font-family="Helvetica,sans-Serif" font-size="10.00">src/controllers/include</text>
<text text-anchor="middle" x="499.5" y="-128" font-family="Helvetica,sans-Serif" font-size="10.00">/controllers/MultiWindowController.hpp</text>
</a>
</g>
</g>
<!-- Node6&#45;&gt;Node7 -->
<g id="edge6_Node000006_Node000007" class="edge">
<title>Node6&#45;&gt;Node7</title>
<g id="a_edge6_Node000006_Node000007"><a xlink:title=" ">
<path fill="none" stroke="#63b8ff" d="M682.38,-184.39C642.4,-174.03 591.52,-160.84 553.58,-151.01"/>
<polygon fill="#63b8ff" stroke="#63b8ff" points="681.74,-187.83 692.29,-186.95 683.49,-181.06 681.74,-187.83"/>
</a>
</g>
</g>
<!-- Node10 -->
<g id="Node000010" class="node">
<title>Node10</title>
<g id="a_Node000010"><a xlink:href="ViewportController_8hpp.html" target="_top" xlink:title=" ">
<polygon fill="white" stroke="#666666" points="938.5,-151 752.5,-151 752.5,-121 938.5,-121 938.5,-151"/>
<text text-anchor="start" x="760.5" y="-139" font-family="Helvetica,sans-Serif" font-size="10.00">src/controllers/include</text>
<text text-anchor="middle" x="845.5" y="-128" font-family="Helvetica,sans-Serif" font-size="10.00">/controllers/ViewportController.hpp</text>
</a>
</g>
</g>
<!-- Node6&#45;&gt;Node10 -->
<g id="edge10_Node000006_Node000010" class="edge">
<title>Node6&#45;&gt;Node10</title>
<g id="a_edge10_Node000006_Node000010"><a xlink:title=" ">
<path fill="none" stroke="#63b8ff" d="M776.97,-181.3C792.04,-171.56 809.89,-160.02 823.59,-151.16"/>
<polygon fill="#63b8ff" stroke="#63b8ff" points="774.97,-178.43 768.47,-186.8 778.77,-184.31 774.97,-178.43"/>
</a>
</g>
</g>
<!-- Node14 -->
<g id="Node000014" class="node">
<title>Node14</title>
<g id="a_Node000014"><a xlink:href="IViewController_8cpp.html" target="_top" xlink:title=" ">
<polygon fill="white" stroke="#666666" points="734.5,-151 620.5,-151 620.5,-121 734.5,-121 734.5,-151"/>
<text text-anchor="start" x="628.5" y="-139" font-family="Helvetica,sans-Serif" font-size="10.00">src/controllers/src</text>
<text text-anchor="middle" x="677.5" y="-128" font-family="Helvetica,sans-Serif" font-size="10.00">/IViewController.cpp</text>
</a>
</g>
</g>
<!-- Node6&#45;&gt;Node14 -->
<g id="edge16_Node000006_Node000014" class="edge">
<title>Node6&#45;&gt;Node14</title>
<g id="a_edge16_Node000006_Node000014"><a xlink:title=" ">
<path fill="none" stroke="#63b8ff" d="M723.78,-179.92C713.6,-170.49 701.87,-159.61 692.77,-151.16"/>
<polygon fill="#63b8ff" stroke="#63b8ff" points="721.47,-182.56 731.19,-186.8 726.24,-177.43 721.47,-182.56"/>
</a>
</g>
</g>
<!-- Node7&#45;&gt;Node5 -->
<g id="edge8_Node000007_Node000005" class="edge">
<title>Node7&#45;&gt;Node5</title>
<g id="a_edge8_Node000007_Node000005"><a xlink:title=" ">
<path fill="none" stroke="#63b8ff" d="M504.74,-110.86C510.83,-82.74 520.59,-37.75 524.64,-19.07"/>
<polygon fill="#63b8ff" stroke="#63b8ff" points="501.3,-110.2 502.6,-120.72 508.14,-111.69 501.3,-110.2"/>
</a>
</g>
</g>
<!-- Node8 -->
<g id="Node000008" class="node">
<title>Node8</title>
<g id="a_Node000008"><a xlink:href="MultiWindowController_8cpp.html" target="_top" xlink:title=" ">
<polygon fill="white" stroke="#666666" points="498,-85 347,-85 347,-55 498,-55 498,-85"/>
<text text-anchor="start" x="355" y="-73" font-family="Helvetica,sans-Serif" font-size="10.00">src/controllers/src</text>
<text text-anchor="middle" x="422.5" y="-62" font-family="Helvetica,sans-Serif" font-size="10.00">/MultiWindowController.cpp</text>
</a>
</g>
</g>
<!-- Node7&#45;&gt;Node8 -->
<g id="edge7_Node000007_Node000008" class="edge">
<title>Node7&#45;&gt;Node8</title>
<g id="a_edge7_Node000007_Node000008"><a xlink:title=" ">
<path fill="none" stroke="#63b8ff" d="M474.48,-114.2C463.05,-104.7 449.8,-93.69 439.54,-85.16"/>
<polygon fill="#63b8ff" stroke="#63b8ff" points="472.48,-117.1 482.41,-120.8 476.96,-111.71 472.48,-117.1"/>
</a>
</g>
</g>
<!-- Node9 -->
<g id="Node000009" class="node">
<title>Node9</title>
<g id="a_Node000009"><a xlink:href="MultiWindowView_8cpp.html" target="_top" xlink:title=" ">
<polygon fill="white" stroke="#666666" points="920.5,-79.5 750.5,-79.5 750.5,-60.5 920.5,-60.5 920.5,-79.5"/>
<text text-anchor="middle" x="835.5" y="-67.5" font-family="Helvetica,sans-Serif" font-size="10.00">src/ui/src/MultiWindowView.cpp</text>
</a>
</g>
</g>
<!-- Node7&#45;&gt;Node9 -->
<g id="edge9_Node000007_Node000009" class="edge">
<title>Node7&#45;&gt;Node9</title>
<g id="a_edge9_Node000007_Node000009"><a xlink:title=" ">
<path fill="none" stroke="#63b8ff" d="M583.17,-119.06C648.93,-106.54 737.95,-89.58 790.78,-79.52"/>
<polygon fill="#63b8ff" stroke="#63b8ff" points="582.41,-115.65 573.24,-120.95 583.71,-122.52 582.41,-115.65"/>
</a>
</g>
</g>
<!-- Node11 -->
<g id="Node000011" class="node">
<title>Node11</title>
<g id="a_Node000011"><a xlink:href="ViewportController_8cpp.html" target="_top" xlink:title=" ">
<polygon fill="white" stroke="#666666" points="1070,-85 939,-85 939,-55 1070,-55 1070,-85"/>
<text text-anchor="start" x="947" y="-73" font-family="Helvetica,sans-Serif" font-size="10.00">src/controllers/src</text>
<text text-anchor="middle" x="1004.5" y="-62" font-family="Helvetica,sans-Serif" font-size="10.00">/ViewportController.cpp</text>
</a>
</g>
</g>
<!-- Node10&#45;&gt;Node11 -->
<g id="edge11_Node000010_Node000011" class="edge">
<title>Node10&#45;&gt;Node11</title>
<g id="a_edge11_Node000010_Node000011"><a xlink:title=" ">
<path fill="none" stroke="#63b8ff" d="M889.75,-117.19C915,-107.02 946.2,-94.47 969.69,-85.01"/>
<polygon fill="#63b8ff" stroke="#63b8ff" points="888.36,-113.97 880.39,-120.95 890.98,-120.47 888.36,-113.97"/>
</a>
</g>
</g>
<!-- Node12 -->
<g id="Node000012" class="node">
<title>Node12</title>
<g id="a_Node000012"><a xlink:href="ViewportView_8hpp.html" target="_top" xlink:title=" ">
<polygon fill="white" stroke="#666666" points="694.5,-85 554.5,-85 554.5,-55 694.5,-55 694.5,-85"/>
<text text-anchor="start" x="562.5" y="-73" font-family="Helvetica,sans-Serif" font-size="10.00">src/ui/include/ui/Viewport</text>
<text text-anchor="middle" x="624.5" y="-62" font-family="Helvetica,sans-Serif" font-size="10.00">View.hpp</text>
</a>
</g>
</g>
<!-- Node10&#45;&gt;Node12 -->
<g id="edge12_Node000010_Node000012" class="edge">
<title>Node10&#45;&gt;Node12</title>
<g id="a_edge12_Node000010_Node000012"><a xlink:title=" ">
<path fill="none" stroke="#63b8ff" d="M787.22,-118.12C751.58,-107.8 706.54,-94.76 672.89,-85.01"/>
<polygon fill="#63b8ff" stroke="#63b8ff" points="786.42,-121.54 797,-120.95 788.37,-114.81 786.42,-121.54"/>
</a>
</g>
</g>
<!-- Node13 -->
<g id="Node000013" class="node">
<title>Node13</title>
<g id="a_Node000013"><a xlink:href="ViewportView_8cpp.html" target="_top" xlink:title=" ">
<polygon fill="white" stroke="#666666" points="797.5,-19 647.5,-19 647.5,0 797.5,0 797.5,-19"/>
<text text-anchor="middle" x="722.5" y="-7" font-family="Helvetica,sans-Serif" font-size="10.00">src/ui/src/ViewportView.cpp</text>
</a>
</g>
</g>
<!-- Node10&#45;&gt;Node13 -->
<g id="edge15_Node000010_Node000013" class="edge">
<title>Node10&#45;&gt;Node13</title>
<g id="a_edge15_Node000010_Node000013"><a xlink:title=" ">
<path fill="none" stroke="#63b8ff" d="M785.59,-116.86C769.27,-109.34 752.96,-98.99 741.5,-85 725.6,-65.59 722.81,-34.51 722.44,-19.37"/>
<polygon fill="#63b8ff" stroke="#63b8ff" points="784.59,-120.24 795.16,-120.97 787.35,-113.81 784.59,-120.24"/>
</a>
</g>
</g>
<!-- Node12&#45;&gt;Node5 -->
<g id="edge13_Node000012_Node000005" class="edge">
<title>Node12&#45;&gt;Node5</title>
<g id="a_edge13_Node000012_Node000005"><a xlink:title=" ">
<path fill="none" stroke="#63b8ff" d="M592.06,-49.64C574.74,-39.3 554.3,-27.09 540.9,-19.09"/>
<polygon fill="#63b8ff" stroke="#63b8ff" points="590.4,-52.72 600.78,-54.84 593.98,-46.71 590.4,-52.72"/>
</a>
</g>
</g>
<!-- Node12&#45;&gt;Node13 -->
<g id="edge14_Node000012_Node000013" class="edge">
<title>Node12&#45;&gt;Node13</title>
<g id="a_edge14_Node000012_Node000013"><a xlink:title=" ">
<path fill="none" stroke="#63b8ff" d="M656.94,-49.64C674.26,-39.3 694.7,-27.09 708.1,-19.09"/>
<polygon fill="#63b8ff" stroke="#63b8ff" points="655.02,-46.71 648.22,-54.84 658.6,-52.72 655.02,-46.71"/>
</a>
</g>
</g>
<!-- Node15&#45;&gt;Node6 -->
<g id="edge18_Node000015_Node000006" class="edge">
<title>Node15&#45;&gt;Node6</title>
<g id="a_edge18_Node000015_Node000006"><a xlink:title=" ">
<path fill="none" stroke="#63b8ff" d="M952.73,-250.65C907.72,-240.25 850.05,-226.93 807.15,-217.01"/>
<polygon fill="#63b8ff" stroke="#63b8ff" points="952.18,-254.11 962.71,-252.95 953.76,-247.29 952.18,-254.11"/>
</a>
</g>
</g>
<!-- Node15&#45;&gt;Node9 -->
<g id="edge21_Node000015_Node000009" class="edge">
<title>Node15&#45;&gt;Node9</title>
<g id="a_edge21_Node000015_Node000009"><a xlink:title=" ">
<path fill="none" stroke="#63b8ff" d="M1016.46,-242.8C1006.1,-211.04 983.95,-155.32 947.5,-121 925.41,-100.2 893.21,-87.06 869,-79.5"/>
<polygon fill="#63b8ff" stroke="#63b8ff" points="1013.19,-244.09 1019.52,-252.59 1019.87,-242 1013.19,-244.09"/>
</a>
</g>
</g>
<!-- Node15&#45;&gt;Node11 -->
<g id="edge20_Node000015_Node000011" class="edge">
<title>Node15&#45;&gt;Node11</title>
<g id="a_edge20_Node000015_Node000011"><a xlink:title=" ">
<path fill="none" stroke="#63b8ff" d="M1024.43,-242.74C1025.14,-213.63 1025.07,-163.45 1018.5,-121 1016.6,-108.71 1012.68,-95.14 1009.47,-85.24"/>
<polygon fill="#63b8ff" stroke="#63b8ff" points="1020.93,-242.7 1024.13,-252.8 1027.92,-242.91 1020.93,-242.7"/>
</a>
</g>
</g>
<!-- Node15&#45;&gt;Node13 -->
<g id="edge22_Node000015_Node000013" class="edge">
<title>Node15&#45;&gt;Node13</title>
<g id="a_edge22_Node000015_Node000013"><a xlink:title=" ">
<path fill="none" stroke="#63b8ff" d="M1040.78,-244.66C1071.27,-202.37 1127.01,-109.96 1078.5,-55 1060.23,-34.31 896.6,-20.94 797.65,-14.67"/>
<polygon fill="#63b8ff" stroke="#63b8ff" points="1037.83,-242.76 1034.7,-252.89 1043.46,-246.92 1037.83,-242.76"/>
</a>
</g>
</g>
<!-- Node16 -->
<g id="Node000016" class="node">
<title>Node16</title>
<g id="a_Node000016"><a xlink:href="SliceController_8cpp.html" target="_top" xlink:title=" ">
<polygon fill="white" stroke="#666666" points="1236.5,-217 1126.5,-217 1126.5,-187 1236.5,-187 1236.5,-217"/>
<text text-anchor="start" x="1134.5" y="-205" font-family="Helvetica,sans-Serif" font-size="10.00">src/controllers/src</text>
<text text-anchor="middle" x="1181.5" y="-194" font-family="Helvetica,sans-Serif" font-size="10.00">/SliceController.cpp</text>
</a>
</g>
</g>
<!-- Node15&#45;&gt;Node16 -->
<g id="edge19_Node000015_Node000016" class="edge">
<title>Node15&#45;&gt;Node16</title>
<g id="a_edge19_Node000015_Node000016"><a xlink:title=" ">
<path fill="none" stroke="#63b8ff" d="M1067.47,-249.19C1092.56,-239.02 1123.57,-226.47 1146.91,-217.01"/>
<polygon fill="#63b8ff" stroke="#63b8ff" points="1066.13,-245.96 1058.17,-252.95 1068.76,-252.44 1066.13,-245.96"/>
</a>
</g>
</g>
<!-- Node17&#45;&gt;Node6 -->
<g id="edge24_Node000017_Node000006" class="edge">
<title>Node17&#45;&gt;Node6</title>
<g id="a_edge24_Node000017_Node000006"><a xlink:title=" ">
<path fill="none" stroke="#63b8ff" d="M664.99,-247.97C683,-238.03 704.65,-226.09 721.1,-217.01"/>
<polygon fill="#63b8ff" stroke="#63b8ff" points="663.02,-245.06 655.96,-252.95 666.4,-251.19 663.02,-245.06"/>
</a>
</g>
</g>
<!-- Node17&#45;&gt;Node8 -->
<g id="edge25_Node000017_Node000008" class="edge">
<title>Node17&#45;&gt;Node8</title>
<g id="a_edge25_Node000017_Node000008"><a xlink:title=" ">
<path fill="none" stroke="#63b8ff" d="M542.11,-250.35C486.93,-234.82 420.34,-205.48 387.5,-151 374.35,-129.19 393.53,-101.55 408.27,-85.13"/>
<polygon fill="#63b8ff" stroke="#63b8ff" points="541.35,-253.77 551.91,-253 543.17,-247.01 541.35,-253.77"/>
</a>
</g>
</g>
<!-- Node17&#45;&gt;Node11 -->
<g id="edge27_Node000017_Node000011" class="edge">
<title>Node17&#45;&gt;Node11</title>
<g id="a_edge27_Node000017_Node000011"><a xlink:title=" ">
<path fill="none" stroke="#63b8ff" d="M728.67,-251.93C797.35,-236.84 887.24,-207.39 947.5,-151 968.79,-131.07 987.07,-102.07 996.86,-85.01"/>
<polygon fill="#63b8ff" stroke="#63b8ff" points="727.75,-248.55 718.69,-254.05 729.2,-255.39 727.75,-248.55"/>
</a>
</g>
</g>
<!-- Node18 -->
<g id="Node000018" class="node">
<title>Node18</title>
<g id="a_Node000018"><a xlink:href="SphereController_8cpp.html" target="_top" xlink:title=" ">
<polygon fill="white" stroke="#666666" points="643,-217 522,-217 522,-187 643,-187 643,-217"/>
<text text-anchor="start" x="530" y="-205" font-family="Helvetica,sans-Serif" font-size="10.00">src/controllers/src</text>
<text text-anchor="middle" x="582.5" y="-194" font-family="Helvetica,sans-Serif" font-size="10.00">/SphereController.cpp</text>
</a>
</g>
</g>
<!-- Node17&#45;&gt;Node18 -->
<g id="edge26_Node000017_Node000018" class="edge">
<title>Node17&#45;&gt;Node18</title>
<g id="a_edge26_Node000017_Node000018"><a xlink:title=" ">
<path fill="none" stroke="#63b8ff" d="M613.64,-244.53C606.82,-235.43 599.15,-225.19 593.12,-217.16"/>
<polygon fill="#63b8ff" stroke="#63b8ff" points="611.05,-246.9 619.85,-252.8 616.65,-242.7 611.05,-246.9"/>
</a>
</g>
</g>
</g>
</svg>
