<?xml version="1.0" encoding="UTF-8" standalone="no"?>
<!DOCTYPE svg PUBLIC "-//W3C//DTD SVG 1.1//EN"
 "http://www.w3.org/Graphics/SVG/1.1/DTD/svg11.dtd">
<!-- Generated by graphviz version 2.43.0 (0)
 -->
<!-- Title: Graphical Class Hierarchy Pages: 1 -->
<svg width="677pt" height="157pt"
 viewBox="0.00 0.00 677.00 157.00" xmlns="http://www.w3.org/2000/svg" xmlns:xlink="http://www.w3.org/1999/xlink">
<g id="graph0" class="graph" transform="scale(1 1) rotate(0) translate(4 153)">
<title>Graphical Class Hierarchy</title>
<!-- Node0 -->
<g id="Node000000" class="node">
<title>Node0</title>
<g id="a_Node000000"><a xlink:title=" ">
<polygon fill="#e0e0e0" stroke="#999999" points="56,-74 0,-74 0,-55 56,-55 56,-74"/>
<text text-anchor="middle" x="28" y="-62" font-family="Helvetica,sans-Serif" font-size="10.00">QObject</text>
</a>
</g>
</g>
<!-- Node1 -->
<g id="Node000001" class="node">
<title>Node1</title>
<g id="a_Node000001"><a xlink:href="classadapters_1_1DicomMetaDataAdapter.html" target="_top" xlink:title="Bridge between DicomController and any Qt widget that needs metadata rows.">
<polygon fill="white" stroke="#666666" points="275,-130 92,-130 92,-111 275,-111 275,-130"/>
<text text-anchor="middle" x="183.5" y="-118" font-family="Helvetica,sans-Serif" font-size="10.00">adapters::DicomMetaDataAdapter</text>
</a>
</g>
</g>
<!-- Node0&#45;&gt;Node1 -->
<g id="edge5_Node000000_Node000001" class="edge">
<title>Node0&#45;&gt;Node1</title>
<g id="a_edge5_Node000000_Node000001"><a xlink:title=" ">
<path fill="none" stroke="#63b8ff" d="M50.99,-79.8C62.7,-87.32 77.62,-95.94 92,-101.5 101.88,-105.32 112.68,-108.44 123.28,-110.95"/>
<polygon fill="#63b8ff" stroke="#63b8ff" points="52.63,-76.69 42.36,-74.09 48.76,-82.53 52.63,-76.69"/>
</a>
</g>
</g>
<!-- Node2 -->
<g id="Node000002" class="node">
<title>Node2</title>
<g id="a_Node000002"><a xlink:href="classcontrollers_1_1IControllerBase.html" target="_top" xlink:title="Minimal QObject base shared by all controllers.">
<polygon fill="white" stroke="#666666" points="258,-93 109,-93 109,-74 258,-74 258,-93"/>
<text text-anchor="middle" x="183.5" y="-81" font-family="Helvetica,sans-Serif" font-size="10.00">controllers::IControllerBase</text>
</a>
</g>
</g>
<!-- Node0&#45;&gt;Node2 -->
<g id="edge6_Node000000_Node000002" class="edge">
<title>Node0&#45;&gt;Node2</title>
<g id="a_edge6_Node000000_Node000002"><a xlink:title=" ">
<path fill="none" stroke="#63b8ff" d="M66.38,-69.13C79.25,-70.72 94.14,-72.56 108.89,-74.39"/>
<polygon fill="#63b8ff" stroke="#63b8ff" points="66.44,-65.61 56.09,-67.85 65.58,-72.56 66.44,-65.61"/>
</a>
</g>
</g>
<!-- Node9 -->
<g id="Node000009" class="node">
<title>Node9</title>
<g id="a_Node000009"><a xlink:href="classqvv_1_1ViewportManager.html" target="_top" xlink:title="Manages multiple viewports inside a single vtkRenderWindow.">
<polygon fill="white" stroke="#666666" points="246.5,-56 120.5,-56 120.5,-37 246.5,-37 246.5,-56"/>
<text text-anchor="middle" x="183.5" y="-44" font-family="Helvetica,sans-Serif" font-size="10.00">qvv::ViewportManager</text>
</a>
</g>
</g>
<!-- Node0&#45;&gt;Node9 -->
<g id="edge13_Node000000_Node000009" class="edge">
<title>Node0&#45;&gt;Node9</title>
<g id="a_edge13_Node000000_Node000009"><a xlink:title=" ">
<path fill="none" stroke="#63b8ff" d="M66.25,-60.13C82.5,-58.23 102,-55.94 120.34,-53.79"/>
<polygon fill="#63b8ff" stroke="#63b8ff" points="65.61,-56.68 56.09,-61.32 66.43,-63.63 65.61,-56.68"/>
</a>
</g>
</g>
<!-- Node10 -->
<g id="Node000010" class="node">
<title>Node10</title>
<g id="a_Node000010"><a xlink:href="classui_1_1ViewportLayoutManager.html" target="_top" xlink:title="Global orchestrator for runtime layout switching.">
<polygon fill="white" stroke="#666666" points="259,-19 108,-19 108,0 259,0 259,-19"/>
<text text-anchor="middle" x="183.5" y="-7" font-family="Helvetica,sans-Serif" font-size="10.00">ui::ViewportLayoutManager</text>
</a>
</g>
</g>
<!-- Node0&#45;&gt;Node10 -->
<g id="edge14_Node000000_Node000010" class="edge">
<title>Node0&#45;&gt;Node10</title>
<g id="a_edge14_Node000000_Node000010"><a xlink:title=" ">
<path fill="none" stroke="#63b8ff" d="M50.97,-49.13C62.67,-41.6 77.59,-32.98 92,-27.5 100.83,-24.14 110.4,-21.37 119.9,-19.1"/>
<polygon fill="#63b8ff" stroke="#63b8ff" points="48.73,-46.42 42.34,-54.87 52.61,-52.25 48.73,-46.42"/>
</a>
</g>
</g>
<!-- Node3 -->
<g id="Node000003" class="node">
<title>Node3</title>
<g id="a_Node000003"><a xlink:href="classcontrollers_1_1DicomController.html" target="_top" xlink:title="Scans a directory for DICOM series and loads them asynchronously.">
<polygon fill="white" stroke="#666666" points="466,-149 312,-149 312,-130 466,-130 466,-149"/>
<text text-anchor="middle" x="389" y="-137" font-family="Helvetica,sans-Serif" font-size="10.00">controllers::DicomController</text>
</a>
</g>
</g>
<!-- Node2&#45;&gt;Node3 -->
<g id="edge7_Node000002_Node000003" class="edge">
<title>Node2&#45;&gt;Node3</title>
<g id="a_edge7_Node000002_Node000003"><a xlink:title=" ">
<path fill="none" stroke="#63b8ff" d="M255.04,-95.45C261.86,-97.22 268.61,-99.23 275,-101.5 292.05,-107.55 294.09,-114.06 311,-120.5 320.65,-124.17 331.26,-127.33 341.43,-129.95"/>
<polygon fill="#63b8ff" stroke="#63b8ff" points="255.58,-91.98 245.04,-93.01 253.92,-98.78 255.58,-91.98"/>
</a>
</g>
</g>
<!-- Node4 -->
<g id="Node000004" class="node">
<title>Node4</title>
<g id="a_Node000004"><a xlink:href="classcontrollers_1_1IViewController.html" target="_top" xlink:title="Abstract base for view controllers that manage DICOM slice and sphere rendering.">
<polygon fill="white" stroke="#666666" points="463.5,-112 314.5,-112 314.5,-93 463.5,-93 463.5,-112"/>
<text text-anchor="middle" x="389" y="-100" font-family="Helvetica,sans-Serif" font-size="10.00">controllers::IViewController</text>
</a>
</g>
</g>
<!-- Node2&#45;&gt;Node4 -->
<g id="edge8_Node000002_Node000004" class="edge">
<title>Node2&#45;&gt;Node4</title>
<g id="a_edge8_Node000002_Node000004"><a xlink:title=" ">
<path fill="none" stroke="#63b8ff" d="M268.24,-91.32C283.58,-92.75 299.48,-94.24 314.5,-95.64"/>
<polygon fill="#63b8ff" stroke="#63b8ff" points="268.54,-87.83 258.26,-90.39 267.89,-94.8 268.54,-87.83"/>
</a>
</g>
</g>
<!-- Node7 -->
<g id="Node000007" class="node">
<title>Node7</title>
<g id="a_Node000007"><a xlink:href="classcontrollers_1_1SliceController.html" target="_top" xlink:title="Manages up to three vtkResliceImageViewer instances for orthogonal slice display.">
<polygon fill="white" stroke="#666666" points="462,-75 316,-75 316,-56 462,-56 462,-75"/>
<text text-anchor="middle" x="389" y="-63" font-family="Helvetica,sans-Serif" font-size="10.00">controllers::SliceController</text>
</a>
</g>
</g>
<!-- Node2&#45;&gt;Node7 -->
<g id="edge11_Node000002_Node000007" class="edge">
<title>Node2&#45;&gt;Node7</title>
<g id="a_edge11_Node000002_Node000007"><a xlink:title=" ">
<path fill="none" stroke="#63b8ff" d="M268.49,-76.07C284.22,-74.68 300.53,-73.24 315.86,-71.88"/>
<polygon fill="#63b8ff" stroke="#63b8ff" points="267.91,-72.61 258.26,-76.98 268.53,-79.58 267.91,-72.61"/>
</a>
</g>
</g>
<!-- Node8 -->
<g id="Node000008" class="node">
<title>Node8</title>
<g id="a_Node000008"><a xlink:href="classcontrollers_1_1SphereController.html" target="_top" xlink:title="Draggable sphere actor that works in both viewport and multi&#45;window modes.">
<polygon fill="white" stroke="#666666" points="467,-38 311,-38 311,-19 467,-19 467,-38"/>
<text text-anchor="middle" x="389" y="-26" font-family="Helvetica,sans-Serif" font-size="10.00">controllers::SphereController</text>
</a>
</g>
</g>
<!-- Node2&#45;&gt;Node8 -->
<g id="edge12_Node000002_Node000008" class="edge">
<title>Node2&#45;&gt;Node8</title>
<g id="a_edge12_Node000002_Node000008"><a xlink:title=" ">
<path fill="none" stroke="#63b8ff" d="M251.04,-71.58C259.19,-69.52 267.35,-67.17 275,-64.5 291.89,-58.61 294.18,-52.58 311,-46.5 320.04,-43.24 329.89,-40.41 339.44,-38.03"/>
<polygon fill="#63b8ff" stroke="#63b8ff" points="250.03,-68.22 241.11,-73.95 251.65,-75.03 250.03,-68.22"/>
</a>
</g>
</g>
<!-- Node5 -->
<g id="Node000005" class="node">
<title>Node5</title>
<g id="a_Node000005"><a xlink:href="classcontrollers_1_1MultiWindowController.html" target="_top" xlink:title="View controller that uses one render window per DICOM plane.">
<polygon fill="white" stroke="#666666" points="655,-138.5 517,-138.5 517,-108.5 655,-108.5 655,-138.5"/>
<text text-anchor="start" x="525" y="-126.5" font-family="Helvetica,sans-Serif" font-size="10.00">controllers::MultiWindow</text>
<text text-anchor="middle" x="586" y="-115.5" font-family="Helvetica,sans-Serif" font-size="10.00">Controller</text>
</a>
</g>
</g>
<!-- Node4&#45;&gt;Node5 -->
<g id="edge9_Node000004_Node000005" class="edge">
<title>Node4&#45;&gt;Node5</title>
<g id="a_edge9_Node000004_Node000005"><a xlink:title=" ">
<path fill="none" stroke="#63b8ff" d="M474.06,-111.55C488.39,-113.1 503.11,-114.68 516.96,-116.17"/>
<polygon fill="#63b8ff" stroke="#63b8ff" points="474.04,-108.03 463.72,-110.44 473.29,-114.99 474.04,-108.03"/>
</a>
</g>
</g>
<!-- Node6 -->
<g id="Node000006" class="node">
<title>Node6</title>
<g id="a_Node000006"><a xlink:href="classcontrollers_1_1ViewportController.html" target="_top" xlink:title="View controller that displays three DICOM planes in a single render window.">
<polygon fill="white" stroke="#666666" points="669,-90 503,-90 503,-71 669,-71 669,-90"/>
<text text-anchor="middle" x="586" y="-78" font-family="Helvetica,sans-Serif" font-size="10.00">controllers::ViewportController</text>
</a>
</g>
</g>
<!-- Node4&#45;&gt;Node6 -->
<g id="edge10_Node000004_Node000006" class="edge">
<title>Node4&#45;&gt;Node6</title>
<g id="a_edge10_Node000004_Node000006"><a xlink:title=" ">
<path fill="none" stroke="#63b8ff" d="M473.66,-93.06C483.28,-91.98 493.09,-90.87 502.69,-89.79"/>
<polygon fill="#63b8ff" stroke="#63b8ff" points="473.27,-89.58 463.72,-94.18 474.05,-96.54 473.27,-89.58"/>
</a>
</g>
</g>
</g>
</svg>
