<?xml version="1.0" encoding="UTF-8" standalone="no"?>
<!DOCTYPE svg PUBLIC "-//W3C//DTD SVG 1.1//EN"
 "http://www.w3.org/Graphics/SVG/1.1/DTD/svg11.dtd">
<!-- Generated by graphviz version 2.43.0 (0)
 -->
<!-- Title: Graphical Class Hierarchy Pages: 1 -->
<svg width="324pt" height="64pt"
 viewBox="0.00 0.00 324.00 64.00" xmlns="http://www.w3.org/2000/svg" xmlns:xlink="http://www.w3.org/1999/xlink">
<g id="graph0" class="graph" transform="scale(1 1) rotate(0) translate(4 60)">
<title>Graphical Class Hierarchy</title>
<!-- Node0 -->
<g id="Node000000" class="node">
<title>Node0</title>
<g id="a_Node000000"><a xlink:href="classrender_1_1IRenderTarget.html" target="_top" xlink:title="Abstract render target managed by RenderScheduler.">
<polygon fill="white" stroke="#666666" points="122,-37 0,-37 0,-18 122,-18 122,-37"/>
<text text-anchor="middle" x="61" y="-25" font-family="Helvetica,sans-Serif" font-size="10.00">render::IRenderTarget</text>
</a>
</g>
</g>
<!-- Node1 -->
<g id="Node000001" class="node">
<title>Node1</title>
<g id="a_Node000001"><a xlink:href="classrender_1_1RivRenderTarget.html" target="_top" xlink:title=" ">
<polygon fill="white" stroke="#666666" points="304,-56 170,-56 170,-37 304,-37 304,-56"/>
<text text-anchor="middle" x="237" y="-44" font-family="Helvetica,sans-Serif" font-size="10.00">render::RivRenderTarget</text>
</a>
</g>
</g>
<!-- Node0&#45;&gt;Node1 -->
<g id="edge15_Node000000_Node000001" class="edge">
<title>Node0&#45;&gt;Node1</title>
<g id="a_edge15_Node000000_Node000001"><a xlink:title=" ">
<path fill="none" stroke="#63b8ff" d="M132.57,-35.21C144.87,-36.55 157.62,-37.94 169.8,-39.27"/>
<polygon fill="#63b8ff" stroke="#63b8ff" points="132.69,-31.7 122.37,-34.09 131.93,-38.66 132.69,-31.7"/>
</a>
</g>
</g>
<!-- Node2 -->
<g id="Node000002" class="node">
<title>Node2</title>
<g id="a_Node000002"><a xlink:href="classrender_1_1WindowRenderTarget.html" target="_top" xlink:title=" ">
<polygon fill="white" stroke="#666666" points="316,-19 158,-19 158,0 316,0 316,-19"/>
<text text-anchor="middle" x="237" y="-7" font-family="Helvetica,sans-Serif" font-size="10.00">render::WindowRenderTarget</text>
</a>
</g>
</g>
<!-- Node0&#45;&gt;Node2 -->
<g id="edge16_Node000000_Node000002" class="edge">
<title>Node0&#45;&gt;Node2</title>
<g id="a_edge16_Node000000_Node000002"><a xlink:title=" ">
<path fill="none" stroke="#63b8ff" d="M132.48,-20.21C140.87,-19.34 149.47,-18.45 157.96,-17.57"/>
<polygon fill="#63b8ff" stroke="#63b8ff" points="131.96,-16.74 122.37,-21.25 132.68,-23.71 131.96,-16.74"/>
</a>
</g>
</g>
</g>
</svg>
