<?xml version="1.0" encoding="UTF-8" standalone="no"?>
<!DOCTYPE svg PUBLIC "-//W3C//DTD SVG 1.1//EN"
 "http://www.w3.org/Graphics/SVG/1.1/DTD/svg11.dtd">
<!-- Generated by graphviz version 2.43.0 (0)
 -->
<!-- Title: Graphical Class Hierarchy Pages: 1 -->
<svg width="490pt" height="517pt"
 viewBox="0.00 0.00 490.00 517.00" xmlns="http://www.w3.org/2000/svg" xmlns:xlink="http://www.w3.org/1999/xlink">
<g id="graph0" class="graph" transform="scale(1 1) rotate(0) translate(4 513)">
<title>Graphical Class Hierarchy</title>
<!-- Node0 -->
<g id="Node000000" class="node">
<title>Node0</title>
<g id="a_Node000000"><a xlink:href="classui_1_1ILayoutTarget.html" target="_top" xlink:title="Interface implemented by any view that can accept a runtime layout change.">
<polygon fill="white" stroke="#666666" points="283.5,-19 185.5,-19 185.5,0 283.5,0 283.5,-19"/>
<text text-anchor="middle" x="234.5" y="-7" font-family="Helvetica,sans-Serif" font-size="10.00">ui::ILayoutTarget</text>
</a>
</g>
</g>
<!-- Node1 -->
<g id="Node000001" class="node">
<title>Node1</title>
<g id="a_Node000001"><a xlink:href="classui_1_1MultiWindowView.html" target="_top" xlink:title="View widget for multi&#45;window DICOM display.">
<polygon fill="white" stroke="#666666" points="482,-176 363,-176 363,-157 482,-157 482,-176"/>
<text text-anchor="middle" x="422.5" y="-164" font-family="Helvetica,sans-Serif" font-size="10.00">ui::MultiWindowView</text>
</a>
</g>
</g>
<!-- Node0&#45;&gt;Node1 -->
<g id="edge17_Node000000_Node000001" class="edge">
<title>Node0&#45;&gt;Node1</title>
<g id="a_edge17_Node000000_Node000001"><a xlink:title=" ">
<path fill="none" stroke="#63b8ff" d="M293.78,-12.45C305.7,-15.28 317.49,-19.95 327,-27.5 357.53,-51.75 340.92,-75.36 363,-107.5 376.4,-127 396.64,-145.73 409.45,-156.67"/>
<polygon fill="#63b8ff" stroke="#63b8ff" points="294.27,-8.98 283.78,-10.48 292.92,-15.84 294.27,-8.98"/>
</a>
</g>
</g>
<!-- Node3 -->
<g id="Node000003" class="node">
<title>Node3</title>
<g id="a_Node000003"><a xlink:href="classui_1_1ViewportView.html" target="_top" xlink:title="View widget for single&#45;window multi&#45;viewport DICOM display.">
<polygon fill="white" stroke="#666666" points="472,-99 373,-99 373,-80 472,-80 472,-99"/>
<text text-anchor="middle" x="422.5" y="-87" font-family="Helvetica,sans-Serif" font-size="10.00">ui::ViewportView</text>
</a>
</g>
</g>
<!-- Node0&#45;&gt;Node3 -->
<g id="edge18_Node000000_Node000003" class="edge">
<title>Node0&#45;&gt;Node3</title>
<g id="a_edge18_Node000000_Node000003"><a xlink:title=" ">
<path fill="none" stroke="#63b8ff" d="M293.41,-17.38C304.78,-19.9 316.45,-23.19 327,-27.5 359.7,-40.84 393.14,-66.08 410.11,-79.88"/>
<polygon fill="#63b8ff" stroke="#63b8ff" points="294.03,-13.93 283.53,-15.36 292.63,-20.79 294.03,-13.93"/>
</a>
</g>
</g>
<!-- Node6 -->
<g id="Node000006" class="node">
<title>Node6</title>
<g id="a_Node000006"><a xlink:href="classoverlays_1_1IOverlay.html" target="_top" xlink:title=" ">
<polygon fill="white" stroke="#666666" points="106,-466 0,-466 0,-447 106,-447 106,-466"/>
<text text-anchor="middle" x="53" y="-454" font-family="Helvetica,sans-Serif" font-size="10.00">overlays::IOverlay</text>
</a>
</g>
</g>
<!-- Node5 -->
<g id="Node000005" class="node">
<title>Node5</title>
<g id="a_Node000005"><a xlink:href="classoverlays_1_1CornerAnnotationOverlay.html" target="_top" xlink:title="Slice&#45;metadata annotation overlay rendered as a child widget on a QVTKOpenGLNativeWidget.">
<polygon fill="white" stroke="#666666" points="309.5,-423.5 159.5,-423.5 159.5,-393.5 309.5,-393.5 309.5,-423.5"/>
<text text-anchor="start" x="167.5" y="-411.5" font-family="Helvetica,sans-Serif" font-size="10.00">overlays::CornerAnnotation</text>
<text text-anchor="middle" x="234.5" y="-400.5" font-family="Helvetica,sans-Serif" font-size="10.00">Overlay</text>
</a>
</g>
</g>
<!-- Node6&#45;&gt;Node5 -->
<g id="edge19_Node000006_Node000005" class="edge">
<title>Node6&#45;&gt;Node5</title>
<g id="a_edge19_Node000006_Node000005"><a xlink:title=" ">
<path fill="none" stroke="#63b8ff" d="M98.5,-444.27C112.42,-440.47 127.84,-436.29 142,-432.5 152.95,-429.57 164.64,-426.48 175.88,-423.52"/>
<polygon fill="#63b8ff" stroke="#63b8ff" points="97.39,-440.95 88.67,-446.96 99.24,-447.7 97.39,-440.95"/>
</a>
</g>
</g>
<!-- Node7 -->
<g id="Node000007" class="node">
<title>Node7</title>
<g id="a_Node000007"><a xlink:href="classoverlays_1_1FPSOverlay.html" target="_top" xlink:title="Qt&#45;native FPS overlay that lives as a child widget on top of a QVTKOpenGLNativeWidget and tracks real...">
<polygon fill="white" stroke="#666666" points="295,-509 174,-509 174,-490 295,-490 295,-509"/>
<text text-anchor="middle" x="234.5" y="-497" font-family="Helvetica,sans-Serif" font-size="10.00">overlays::FPSOverlay</text>
</a>
</g>
</g>
<!-- Node6&#45;&gt;Node7 -->
<g id="edge20_Node000006_Node000007" class="edge">
<title>Node6&#45;&gt;Node7</title>
<g id="a_edge20_Node000006_Node000007"><a xlink:title=" ">
<path fill="none" stroke="#63b8ff" d="M97.3,-468.88C111.5,-472.78 127.38,-476.99 142,-480.5 155.88,-483.83 171.03,-487.12 184.94,-490"/>
<polygon fill="#63b8ff" stroke="#63b8ff" points="97.88,-465.41 87.31,-466.1 96,-472.15 97.88,-465.41"/>
</a>
</g>
</g>
<!-- Node9 -->
<g id="Node000009" class="node">
<title>Node9</title>
<g id="a_Node000009"><a xlink:href="classoverlays_1_1OrientationMarkerOverlay.html" target="_top" xlink:title="Anatomical orientation label overlay rendered as a child widget on top of a QVTKOpenGLNativeWidget.">
<polygon fill="white" stroke="#666666" points="311,-471.5 158,-471.5 158,-441.5 311,-441.5 311,-471.5"/>
<text text-anchor="start" x="166" y="-459.5" font-family="Helvetica,sans-Serif" font-size="10.00">overlays::OrientationMarker</text>
<text text-anchor="middle" x="234.5" y="-448.5" font-family="Helvetica,sans-Serif" font-size="10.00">Overlay</text>
</a>
</g>
</g>
<!-- Node6&#45;&gt;Node9 -->
<g id="edge21_Node000006_Node000009" class="edge">
<title>Node6&#45;&gt;Node9</title>
<g id="a_edge21_Node000006_Node000009"><a xlink:title=" ">
<path fill="none" stroke="#63b8ff" d="M116.79,-456.5C129.99,-456.5 144.06,-456.5 157.69,-456.5"/>
<polygon fill="#63b8ff" stroke="#63b8ff" points="116.4,-453 106.4,-456.5 116.4,-460 116.4,-453"/>
</a>
</g>
</g>
<!-- Node8 -->
<g id="Node000008" class="node">
<title>Node8</title>
<g id="a_Node000008"><a xlink:title=" ">
<polygon fill="#e0e0e0" stroke="#999999" points="78,-509 28,-509 28,-490 78,-490 78,-509"/>
<text text-anchor="middle" x="53" y="-497" font-family="Helvetica,sans-Serif" font-size="10.00">QLabel</text>
</a>
</g>
</g>
<!-- Node8&#45;&gt;Node7 -->
<g id="edge22_Node000008_Node000007" class="edge">
<title>Node8&#45;&gt;Node7</title>
<g id="a_edge22_Node000008_Node000007"><a xlink:title=" ">
<path fill="none" stroke="#63b8ff" d="M88.31,-499.5C112.47,-499.5 145.43,-499.5 173.84,-499.5"/>
<polygon fill="#63b8ff" stroke="#63b8ff" points="88.21,-496 78.21,-499.5 88.21,-503 88.21,-496"/>
</a>
</g>
</g>
<!-- Node4 -->
<g id="Node000004" class="node">
<title>Node4</title>
<g id="a_Node000004"><a xlink:title=" ">
<polygon fill="#e0e0e0" stroke="#999999" points="82.5,-253 23.5,-253 23.5,-234 82.5,-234 82.5,-253"/>
<text text-anchor="middle" x="53" y="-241" font-family="Helvetica,sans-Serif" font-size="10.00">QWidget</text>
</a>
</g>
</g>
<!-- Node4&#45;&gt;Node5 -->
<g id="edge23_Node000004_Node000005" class="edge">
<title>Node4&#45;&gt;Node5</title>
<g id="a_edge23_Node000004_Node000005"><a xlink:title=" ">
<path fill="none" stroke="#63b8ff" d="M60.6,-262.63C72.15,-293.2 98.97,-352.82 142,-384.5 147.29,-388.39 153.16,-391.66 159.3,-394.39"/>
<polygon fill="#63b8ff" stroke="#63b8ff" points="63.85,-261.33 57.15,-253.13 57.27,-263.72 63.85,-261.33"/>
</a>
</g>
</g>
<!-- Node4&#45;&gt;Node9 -->
<g id="edge24_Node000004_Node000009" class="edge">
<title>Node4&#45;&gt;Node9</title>
<g id="a_edge24_Node000004_Node000009"><a xlink:title=" ">
<path fill="none" stroke="#63b8ff" d="M57.41,-263.01C65.18,-301.48 87.89,-387.31 142,-432.5 146.79,-436.5 152.17,-439.84 157.87,-442.63"/>
<polygon fill="#63b8ff" stroke="#63b8ff" points="60.83,-262.26 55.53,-253.08 53.95,-263.56 60.83,-262.26"/>
</a>
</g>
</g>
<!-- Node10 -->
<g id="Node000010" class="node">
<title>Node10</title>
<g id="a_Node000010"><a xlink:href="classui_1_1ControllerPanel.html" target="_top" xlink:title="Shared control panel used by both Viewport and Multi&#45;Window modes.">
<polygon fill="white" stroke="#666666" points="287.5,-179 181.5,-179 181.5,-160 287.5,-160 287.5,-179"/>
<text text-anchor="middle" x="234.5" y="-167" font-family="Helvetica,sans-Serif" font-size="10.00">ui::ControllerPanel</text>
</a>
</g>
</g>
<!-- Node4&#45;&gt;Node10 -->
<g id="edge25_Node000004_Node000010" class="edge">
<title>Node4&#45;&gt;Node10</title>
<g id="a_edge25_Node000004_Node000010"><a xlink:title=" ">
<path fill="none" stroke="#63b8ff" d="M73.84,-227.8C90.94,-215.05 116.8,-197.58 142,-187.5 154.33,-182.57 168.14,-178.95 181.23,-176.31"/>
<polygon fill="#63b8ff" stroke="#63b8ff" points="71.57,-225.13 65.74,-233.98 75.81,-230.7 71.57,-225.13"/>
</a>
</g>
</g>
<!-- Node11 -->
<g id="Node000011" class="node">
<title>Node11</title>
<g id="a_Node000011"><a xlink:href="classui_1_1ControllerPanelCornerAnnotationItem.html" target="_top" xlink:title="Control panel item for corner annotation overlay configuration.">
<polygon fill="white" stroke="#666666" points="303.5,-141.5 165.5,-141.5 165.5,-111.5 303.5,-111.5 303.5,-141.5"/>
<text text-anchor="start" x="173.5" y="-129.5" font-family="Helvetica,sans-Serif" font-size="10.00">ui::ControllerPanelCorner</text>
<text text-anchor="middle" x="234.5" y="-118.5" font-family="Helvetica,sans-Serif" font-size="10.00">AnnotationItem</text>
</a>
</g>
</g>
<!-- Node4&#45;&gt;Node11 -->
<g id="edge26_Node000004_Node000011" class="edge">
<title>Node4&#45;&gt;Node11</title>
<g id="a_edge26_Node000004_Node000011"><a xlink:title=" ">
<path fill="none" stroke="#63b8ff" d="M66.15,-225.53C81.39,-204.39 109.51,-169.74 142,-150.5 149.21,-146.23 157.17,-142.71 165.31,-139.81"/>
<polygon fill="#63b8ff" stroke="#63b8ff" points="63.13,-223.74 60.26,-233.94 68.86,-227.76 63.13,-223.74"/>
</a>
</g>
</g>
<!-- Node12 -->
<g id="Node000012" class="node">
<title>Node12</title>
<g id="a_Node000012"><a xlink:href="classui_1_1ControllerPanelDicomItem.html" target="_top" xlink:title="Control panel item for DICOM directory and series selection.">
<polygon fill="white" stroke="#666666" points="314.5,-93 154.5,-93 154.5,-74 314.5,-74 314.5,-93"/>
<text text-anchor="middle" x="234.5" y="-81" font-family="Helvetica,sans-Serif" font-size="10.00">ui::ControllerPanelDicomItem</text>
</a>
</g>
</g>
<!-- Node4&#45;&gt;Node12 -->
<g id="edge27_Node000004_Node000012" class="edge">
<title>Node4&#45;&gt;Node12</title>
<g id="a_edge27_Node000004_Node000012"><a xlink:title=" ">
<path fill="none" stroke="#63b8ff" d="M60.42,-224.11C71.7,-193.18 98.17,-133.06 142,-102.5 147.46,-98.7 153.51,-95.62 159.84,-93.14"/>
<polygon fill="#63b8ff" stroke="#63b8ff" points="57.05,-223.14 57.05,-233.73 63.65,-225.45 57.05,-223.14"/>
</a>
</g>
</g>
<!-- Node13 -->
<g id="Node000013" class="node">
<title>Node13</title>
<g id="a_Node000013"><a xlink:href="classui_1_1ControllerPanelFPSOverlayItem.html" target="_top" xlink:title="Control panel item for FPS overlay configuration.">
<polygon fill="white" stroke="#666666" points="327,-56 142,-56 142,-37 327,-37 327,-56"/>
<text text-anchor="middle" x="234.5" y="-44" font-family="Helvetica,sans-Serif" font-size="10.00">ui::ControllerPanelFPSOverlayItem</text>
</a>
</g>
</g>
<!-- Node4&#45;&gt;Node13 -->
<g id="edge28_Node000004_Node000013" class="edge">
<title>Node4&#45;&gt;Node13</title>
<g id="a_edge28_Node000004_Node000013"><a xlink:title=" ">
<path fill="none" stroke="#63b8ff" d="M57.72,-223.72C65.87,-186.28 88.95,-105.17 142,-64.5 146.37,-61.15 151.19,-58.37 156.27,-56.08"/>
<polygon fill="#63b8ff" stroke="#63b8ff" points="54.23,-223.35 55.66,-233.84 61.09,-224.75 54.23,-223.35"/>
</a>
</g>
</g>
<!-- Node14 -->
<g id="Node000014" class="node">
<title>Node14</title>
<g id="a_Node000014"><a xlink:href="classui_1_1ControllerPanelOrientationMarkerItem.html" target="_top" xlink:title="Control panel item for anatomical orientation marker overlay.">
<polygon fill="white" stroke="#666666" points="315,-375.5 154,-375.5 154,-345.5 315,-345.5 315,-375.5"/>
<text text-anchor="start" x="162" y="-363.5" font-family="Helvetica,sans-Serif" font-size="10.00">ui::ControllerPanelOrientation</text>
<text text-anchor="middle" x="234.5" y="-352.5" font-family="Helvetica,sans-Serif" font-size="10.00">MarkerItem</text>
</a>
</g>
</g>
<!-- Node4&#45;&gt;Node14 -->
<g id="edge29_Node000004_Node000014" class="edge">
<title>Node4&#45;&gt;Node14</title>
<g id="a_edge29_Node000004_Node000014"><a xlink:title=" ">
<path fill="none" stroke="#63b8ff" d="M66.47,-261.53C81.84,-282.42 109.91,-316.39 142,-335.5 148.51,-339.38 155.63,-342.67 162.94,-345.46"/>
<polygon fill="#63b8ff" stroke="#63b8ff" points="69.17,-259.3 60.5,-253.21 63.48,-263.38 69.17,-259.3"/>
</a>
</g>
</g>
<!-- Node15 -->
<g id="Node000015" class="node">
<title>Node15</title>
<g id="a_Node000015"><a xlink:href="classui_1_1ControllerPanelSphereItem.html" target="_top" xlink:title="Control panel item for sphere add/remove, radius, and colour settings.">
<polygon fill="white" stroke="#666666" points="315.5,-327 153.5,-327 153.5,-308 315.5,-308 315.5,-327"/>
<text text-anchor="middle" x="234.5" y="-315" font-family="Helvetica,sans-Serif" font-size="10.00">ui::ControllerPanelSphereItem</text>
</a>
</g>
</g>
<!-- Node4&#45;&gt;Node15 -->
<g id="edge30_Node000004_Node000015" class="edge">
<title>Node4&#45;&gt;Node15</title>
<g id="a_edge30_Node000004_Node000015"><a xlink:title=" ">
<path fill="none" stroke="#63b8ff" d="M74.2,-259.05C91.36,-271.5 117.08,-288.5 142,-298.5 151.64,-302.37 162.17,-305.49 172.56,-308"/>
<polygon fill="#63b8ff" stroke="#63b8ff" points="76.18,-256.16 66.07,-253.01 72.01,-261.78 76.18,-256.16"/>
</a>
</g>
</g>
<!-- Node16 -->
<g id="Node000016" class="node">
<title>Node16</title>
<g id="a_Node000016"><a xlink:href="classui_1_1DicomMetaDataPanel.html" target="_top" xlink:title="Read&#45;only panel that displays DICOM metadata for the active series.">
<polygon fill="white" stroke="#666666" points="303,-290 166,-290 166,-271 303,-271 303,-290"/>
<text text-anchor="middle" x="234.5" y="-278" font-family="Helvetica,sans-Serif" font-size="10.00">ui::DicomMetaDataPanel</text>
</a>
</g>
</g>
<!-- Node4&#45;&gt;Node16 -->
<g id="edge31_Node000004_Node000016" class="edge">
<title>Node4&#45;&gt;Node16</title>
<g id="a_edge31_Node000004_Node000016"><a xlink:title=" ">
<path fill="none" stroke="#63b8ff" d="M92.95,-251.53C120.66,-257.24 158,-264.94 187.22,-270.96"/>
<polygon fill="#63b8ff" stroke="#63b8ff" points="93.34,-248.04 82.84,-249.44 91.93,-254.89 93.34,-248.04"/>
</a>
</g>
</g>
<!-- Node2 -->
<g id="Node000002" class="node">
<title>Node2</title>
<g id="a_Node000002"><a xlink:href="classui_1_1IView.html" target="_top" xlink:title="Abstract base for all render&#45;view widgets.">
<polygon fill="white" stroke="#666666" points="264,-216 205,-216 205,-197 264,-197 264,-216"/>
<text text-anchor="middle" x="234.5" y="-204" font-family="Helvetica,sans-Serif" font-size="10.00">ui::IView</text>
</a>
</g>
</g>
<!-- Node4&#45;&gt;Node2 -->
<g id="edge32_Node000004_Node000002" class="edge">
<title>Node4&#45;&gt;Node2</title>
<g id="a_edge32_Node000004_Node000002"><a xlink:title=" ">
<path fill="none" stroke="#63b8ff" d="M92.68,-234.99C108.02,-231.65 125.83,-227.84 142,-224.5 162.93,-220.18 186.6,-215.53 204.63,-212.04"/>
<polygon fill="#63b8ff" stroke="#63b8ff" points="91.53,-231.66 82.51,-237.21 93.02,-238.5 91.53,-231.66"/>
</a>
</g>
</g>
<!-- Node17 -->
<g id="Node000017" class="node">
<title>Node17</title>
<g id="a_Node000017"><a xlink:href="classui_1_1ViewportLayoutSelector.html" target="_top" xlink:title="Toolbar&#45;like panel that displays one ViewportLayoutItem per layout type.">
<polygon fill="white" stroke="#666666" points="308.5,-253 160.5,-253 160.5,-234 308.5,-234 308.5,-253"/>
<text text-anchor="middle" x="234.5" y="-241" font-family="Helvetica,sans-Serif" font-size="10.00">ui::ViewportLayoutSelector</text>
</a>
</g>
</g>
<!-- Node4&#45;&gt;Node17 -->
<g id="edge35_Node000004_Node000017" class="edge">
<title>Node4&#45;&gt;Node17</title>
<g id="a_edge35_Node000004_Node000017"><a xlink:title=" ">
<path fill="none" stroke="#63b8ff" d="M92.94,-243.5C112.62,-243.5 137.15,-243.5 160.19,-243.5"/>
<polygon fill="#63b8ff" stroke="#63b8ff" points="92.84,-240 82.84,-243.5 92.84,-247 92.84,-240"/>
</a>
</g>
</g>
<!-- Node2&#45;&gt;Node1 -->
<g id="edge33_Node000002_Node000001" class="edge">
<title>Node2&#45;&gt;Node1</title>
<g id="a_edge33_Node000002_Node000001"><a xlink:title=" ">
<path fill="none" stroke="#63b8ff" d="M274.58,-198.51C290.81,-195.16 309.82,-191.19 327,-187.5 344.09,-183.83 362.89,-179.67 379.19,-176.03"/>
<polygon fill="#63b8ff" stroke="#63b8ff" points="273.46,-195.17 264.37,-200.61 274.87,-202.02 273.46,-195.17"/>
</a>
</g>
</g>
<!-- Node2&#45;&gt;Node3 -->
<g id="edge34_Node000002_Node000003" class="edge">
<title>Node2&#45;&gt;Node3</title>
<g id="a_edge34_Node000002_Node000003"><a xlink:title=" ">
<path fill="none" stroke="#63b8ff" d="M274.54,-203.86C291.54,-201.37 311.16,-196.6 327,-187.5 347.74,-175.59 346.5,-164.82 363,-147.5 379.57,-130.11 399.59,-110.56 411.39,-99.18"/>
<polygon fill="#63b8ff" stroke="#63b8ff" points="273.84,-200.42 264.35,-205.13 274.71,-207.37 273.84,-200.42"/>
</a>
</g>
</g>
</g>
</svg>
