<?xml version="1.0" encoding="UTF-8" standalone="no"?>
<!DOCTYPE svg PUBLIC "-//W3C//DTD SVG 1.1//EN"
 "http://www.w3.org/Graphics/SVG/1.1/DTD/svg11.dtd">
<!-- Generated by graphviz version 2.43.0 (0)
 -->
<!-- Title: src/overlays/src/IOverlay.cpp Pages: 1 -->
<svg width="204pt" height="137pt"
 viewBox="0.00 0.00 204.00 137.00" xmlns="http://www.w3.org/2000/svg" xmlns:xlink="http://www.w3.org/1999/xlink">

<svg id="main" version="1.1" xmlns="http://www.w3.org/2000/svg" xmlns:xlink="http://www.w3.org/1999/xlink" xml:space="preserve" onload="init(evt)">
<style type="text/css"><![CDATA[
.node, .edge {opacity: 0.7;}
.node.selected, .edge.selected {opacity: 1;}
.edge:hover path { stroke: red; }
.edge:hover polygon { stroke: red; fill: red; }
]]></style>
<script type="application/ecmascript" xlink:href="svg.min.js"/>
<svg id="graph" class="graph">
<g id="graph0" class="graph" transform="scale(1 1) rotate(0) translate(4 133)">
<title>src/overlays/src/IOverlay.cpp</title>
<!-- Node1 -->
<g id="Node000001" class="node">
<title>Node1</title>
<g id="a_Node000001"><a xlink:title=" ">
<polygon fill="#999999" stroke="#666666" points="192,-129 36,-129 36,-110 192,-110 192,-129"/>
<text text-anchor="middle" x="114" y="-117" font-family="Helvetica,sans-Serif" font-size="10.00">src/overlays/src/IOverlay.cpp</text>
</a>
</g>
</g>
<!-- Node2 -->
<g id="Node000002" class="node">
<title>Node2</title>
<g id="a_Node000002"><a xlink:href="IOverlay_8hpp.html" target="_top" xlink:title=" ">
<polygon fill="white" stroke="#666666" points="122,-74 0,-74 0,-55 122,-55 122,-74"/>
<text text-anchor="middle" x="61" y="-62" font-family="Helvetica,sans-Serif" font-size="10.00">overlays/IOverlay.hpp</text>
</a>
</g>
</g>
<!-- Node1&#45;&gt;Node2 -->
<g id="edge1_Node000001_Node000002" class="edge">
<title>Node1&#45;&gt;Node2</title>
<g id="a_edge1_Node000001_Node000002"><a xlink:title=" ">
<path fill="none" stroke="#63b8ff" d="M105.25,-109.75C97.53,-102.03 86.1,-90.6 76.78,-81.28"/>
<polygon fill="#63b8ff" stroke="#63b8ff" points="79.14,-78.69 69.59,-74.09 74.19,-83.64 79.14,-78.69"/>
</a>
</g>
</g>
<!-- Node5 -->
<g id="Node000005" class="node">
<title>Node5</title>
<g id="a_Node000005"><a xlink:title=" ">
<polygon fill="#e0e0e0" stroke="#999999" points="196,-74 140,-74 140,-55 196,-55 196,-74"/>
<text text-anchor="middle" x="168" y="-62" font-family="Helvetica,sans-Serif" font-size="10.00">QObject</text>
</a>
</g>
</g>
<!-- Node1&#45;&gt;Node5 -->
<g id="edge4_Node000001_Node000005" class="edge">
<title>Node1&#45;&gt;Node5</title>
<g id="a_edge4_Node000001_Node000005"><a xlink:title=" ">
<path fill="none" stroke="#63b8ff" d="M122.92,-109.75C130.78,-102.03 142.43,-90.6 151.92,-81.28"/>
<polygon fill="#63b8ff" stroke="#63b8ff" points="154.56,-83.59 159.25,-74.09 149.66,-78.6 154.56,-83.59"/>
</a>
</g>
</g>
<!-- Node3 -->
<g id="Node000003" class="node">
<title>Node3</title>
<g id="a_Node000003"><a xlink:title=" ">
<polygon fill="#e0e0e0" stroke="#999999" points="49.5,-19 8.5,-19 8.5,0 49.5,0 49.5,-19"/>
<text text-anchor="middle" x="29" y="-7" font-family="Helvetica,sans-Serif" font-size="10.00">QList</text>
</a>
</g>
</g>
<!-- Node2&#45;&gt;Node3 -->
<g id="edge2_Node000002_Node000003" class="edge">
<title>Node2&#45;&gt;Node3</title>
<g id="a_edge2_Node000002_Node000003"><a xlink:title=" ">
<path fill="none" stroke="#63b8ff" d="M55.72,-54.75C51.29,-47.42 44.84,-36.73 39.38,-27.7"/>
<polygon fill="#63b8ff" stroke="#63b8ff" points="42.35,-25.84 34.19,-19.09 36.36,-29.46 42.35,-25.84"/>
</a>
</g>
</g>
<!-- Node4 -->
<g id="Node000004" class="node">
<title>Node4</title>
<g id="a_Node000004"><a xlink:title=" ">
<polygon fill="#e0e0e0" stroke="#999999" points="120.5,-19 67.5,-19 67.5,0 120.5,0 120.5,-19"/>
<text text-anchor="middle" x="94" y="-7" font-family="Helvetica,sans-Serif" font-size="10.00">QString</text>
</a>
</g>
</g>
<!-- Node2&#45;&gt;Node4 -->
<g id="edge3_Node000002_Node000004" class="edge">
<title>Node2&#45;&gt;Node4</title>
<g id="a_edge3_Node000002_Node000004"><a xlink:title=" ">
<path fill="none" stroke="#63b8ff" d="M66.45,-54.75C71.01,-47.42 77.67,-36.73 83.29,-27.7"/>
<polygon fill="#63b8ff" stroke="#63b8ff" points="86.34,-29.43 88.65,-19.09 80.4,-25.73 86.34,-29.43"/>
</a>
</g>
</g>
</g>
</svg>
</svg>

<style type='text/css'>
<![CDATA[
[data-mouse-over-selected='false'] { opacity: 0.7; }
[data-mouse-over-selected='true']  { opacity: 1.0; }
]]>
</style>
<script type="application/ecmascript"><![CDATA[
document.addEventListener('DOMContentLoaded', (event) => {
  highlightEdges();
  highlightAdjacentNodes();
});
]]></script>
</svg>
