<?xml version="1.0" encoding="UTF-8" standalone="no"?>
<!DOCTYPE svg PUBLIC "-//W3C//DTD SVG 1.1//EN"
 "http://www.w3.org/Graphics/SVG/1.1/DTD/svg11.dtd">
<!-- Generated by graphviz version 2.43.0 (0)
 -->
<!-- Title: src/overlays/include/overlays/IOverlay.hpp Pages: 1 -->
<!--zoomable 302 -->

<svg id="main" version="1.1" xmlns="http://www.w3.org/2000/svg" xmlns:xlink="http://www.w3.org/1999/xlink" xml:space="preserve" onload="init(evt)">
<style type="text/css"><![CDATA[
.node, .edge {opacity: 0.7;}
.node.selected, .edge.selected {opacity: 1;}
.edge:hover path { stroke: red; }
.edge:hover polygon { stroke: red; fill: red; }
]]></style>

<defs>
  <circle id="rim" cx="0" cy="0" r="7"/>
  <circle id="rim2" cx="0" cy="0" r="3.5"/>
  <g id="zoomPlus">
    <use xlink:href="#rim" fill="#404040"><set attributeName="fill" to="#808080" begin="zoomplus.mouseover" end="zoomplus.mouseout"/></use>
    <path d="M-4,0h8M0,-4v8" fill="none" stroke="white" stroke-width="1.5" pointer-events="none"/>
  </g>
  <g id="zoomMin">
    <use xlink:href="#rim" fill="#404040"><set attributeName="fill" to="#808080" begin="zoomminus.mouseover" end="zoomminus.mouseout"/></use>
    <path d="M-4,0h8" fill="none" stroke="white" stroke-width="1.5" pointer-events="none"/>
  </g>
  <g id="arrowUp" transform="translate(30 24)">
    <use xlink:href="#rim"/>
    <path pointer-events="none" fill="none" stroke="white" stroke-width="1.5" d="M0,-3.0v7 M-2.5,-0.5L0,-3.0L2.5,-0.5"/>
  </g>
  <g id="arrowRight" transform="rotate(90) translate(36 -43)">
    <use xlink:href="#rim"/>
    <path pointer-events="none" fill="none" stroke="white" stroke-width="1.5" d="M0,-3.0v7 M-2.5,-0.5L0,-3.0L2.5,-0.5"/>
  </g>
  <g id="arrowDown" transform="rotate(180) translate(-30 -48)">
    <use xlink:href="#rim"/>
    <path pointer-events="none" fill="none" stroke="white" stroke-width="1.5" d="M0,-3.0v7 M-2.5,-0.5L0,-3.0L2.5,-0.5"/>
  </g>
  <g id="arrowLeft" transform="rotate(270) translate(-36 17)">
    <use xlink:href="#rim"/>
    <path pointer-events="none" fill="none" stroke="white" stroke-width="1.5" d="M0,-3.0v7 M-2.5,-0.5L0,-3.0L2.5,-0.5"/>
  </g>
  <g id="resetDef">
    <use xlink:href="#rim2" fill="#404040"><set attributeName="fill" to="#808080" begin="reset.mouseover" end="reset.mouseout"/></use>
  </g>
</defs>
<script type="application/ecmascript">
var viewWidth = 1933;
var viewHeight = 302;
var sectionId = 'dynsection-1';
</script>
<script type="application/ecmascript" xlink:href="svg.min.js"/>
<svg id="graph" class="graph">
<g id="viewport">
<title>src/overlays/include/overlays/IOverlay.hpp</title>
<!-- Node1 -->
<g id="Node000001" class="node">
<title>Node1</title>
<g id="a_Node000001"><a xlink:title=" ">
<polygon fill="#999999" stroke="#666666" points="916,-294 791,-294 791,-264 916,-264 916,-294"/>
<text text-anchor="start" x="799" y="-282" font-family="Helvetica,sans-Serif" font-size="10.00">src/overlays/include</text>
<text text-anchor="middle" x="853.5" y="-271" font-family="Helvetica,sans-Serif" font-size="10.00">/overlays/IOverlay.hpp</text>
</a>
</g>
</g>
<!-- Node2 -->
<g id="Node000002" class="node">
<title>Node2</title>
<g id="a_Node000002"><a xlink:href="CornerAnnotationOverlay_8hpp.html" target="_top" xlink:title=" ">
<polygon fill="white" stroke="#666666" points="654.5,-222.5 446.5,-222.5 446.5,-192.5 654.5,-192.5 654.5,-222.5"/>
<text text-anchor="start" x="454.5" y="-210.5" font-family="Helvetica,sans-Serif" font-size="10.00">src/overlays/include</text>
<text text-anchor="middle" x="550.5" y="-199.5" font-family="Helvetica,sans-Serif" font-size="10.00">/overlays/CornerAnnotationOverlay.hpp</text>
</a>
</g>
</g>
<!-- Node1&#45;&gt;Node2 -->
<g id="edge1_Node000001_Node000002" class="edge">
<title>Node1&#45;&gt;Node2</title>
<g id="a_edge1_Node000001_Node000002"><a xlink:title=" ">
<path fill="none" stroke="#63b8ff" d="M782.39,-261.69C730.57,-249.8 661.09,-233.87 611.73,-222.54"/>
<polygon fill="#63b8ff" stroke="#63b8ff" points="781.65,-265.11 792.18,-263.94 783.22,-258.29 781.65,-265.11"/>
</a>
</g>
</g>
<!-- Node5 -->
<g id="Node000005" class="node">
<title>Node5</title>
<g id="a_Node000005"><a xlink:href="ControllerPanelCornerAnnotationItem_8hpp.html" target="_top" xlink:title=" ">
<polygon fill="white" stroke="#666666" points="215.5,-151 43.5,-151 43.5,-121 215.5,-121 215.5,-151"/>
<text text-anchor="start" x="51.5" y="-139" font-family="Helvetica,sans-Serif" font-size="10.00">src/ui/include/ui/Controller</text>
<text text-anchor="middle" x="129.5" y="-128" font-family="Helvetica,sans-Serif" font-size="10.00">PanelCornerAnnotationItem.hpp</text>
</a>
</g>
</g>
<!-- Node1&#45;&gt;Node5 -->
<g id="edge39_Node000001_Node000005" class="edge">
<title>Node1&#45;&gt;Node5</title>
<g id="a_edge39_Node000001_Node000005"><a xlink:title=" ">
<path fill="none" stroke="#63b8ff" d="M780.81,-272.98C697.31,-266.35 556.5,-252.55 437.5,-228 339.48,-207.78 227.49,-171.17 169.31,-151.1"/>
<polygon fill="#63b8ff" stroke="#63b8ff" points="780.71,-276.48 790.95,-273.77 781.26,-269.5 780.71,-276.48"/>
</a>
</g>
</g>
<!-- Node7 -->
<g id="Node000007" class="node">
<title>Node7</title>
<g id="a_Node000007"><a xlink:href="ControllerPanelCornerAnnotationItem_8cpp.html" target="_top" xlink:title=" ">
<polygon fill="white" stroke="#666666" points="145,-85 0,-85 0,-55 145,-55 145,-85"/>
<text text-anchor="start" x="8" y="-73" font-family="Helvetica,sans-Serif" font-size="10.00">src/ui/src/ControllerPanel</text>
<text text-anchor="middle" x="72.5" y="-62" font-family="Helvetica,sans-Serif" font-size="10.00">CornerAnnotationItem.cpp</text>
</a>
</g>
</g>
<!-- Node1&#45;&gt;Node7 -->
<g id="edge40_Node000001_Node000007" class="edge">
<title>Node1&#45;&gt;Node7</title>
<g id="a_edge40_Node000001_Node000007"><a xlink:title=" ">
<path fill="none" stroke="#63b8ff" d="M780.71,-276.67C671.2,-273.55 457.96,-263.09 280.5,-228 168.11,-205.78 102.34,-243.32 34.5,-151 19.11,-130.06 40.6,-101.9 56.99,-85.18"/>
<polygon fill="#63b8ff" stroke="#63b8ff" points="780.89,-280.18 790.98,-276.95 781.08,-273.18 780.89,-280.18"/>
</a>
</g>
</g>
<!-- Node14 -->
<g id="Node000014" class="node">
<title>Node14</title>
<g id="a_Node000014"><a xlink:href="FPSOverlay_8hpp.html" target="_top" xlink:title=" ">
<polygon fill="white" stroke="#666666" points="923.5,-222.5 783.5,-222.5 783.5,-192.5 923.5,-192.5 923.5,-222.5"/>
<text text-anchor="start" x="791.5" y="-210.5" font-family="Helvetica,sans-Serif" font-size="10.00">src/overlays/include</text>
<text text-anchor="middle" x="853.5" y="-199.5" font-family="Helvetica,sans-Serif" font-size="10.00">/overlays/FPSOverlay.hpp</text>
</a>
</g>
</g>
<!-- Node1&#45;&gt;Node14 -->
<g id="edge18_Node000001_Node000014" class="edge">
<title>Node1&#45;&gt;Node14</title>
<g id="a_edge18_Node000001_Node000014"><a xlink:title=" ">
<path fill="none" stroke="#63b8ff" d="M853.5,-253.75C853.5,-243.31 853.5,-231.49 853.5,-222.54"/>
<polygon fill="#63b8ff" stroke="#63b8ff" points="850,-253.94 853.5,-263.94 857,-253.94 850,-253.94"/>
</a>
</g>
</g>
<!-- Node17 -->
<g id="Node000017" class="node">
<title>Node17</title>
<g id="a_Node000017"><a xlink:href="ControllerPanelFPSOverlayItem_8cpp.html" target="_top" xlink:title=" ">
<polygon fill="white" stroke="#666666" points="1724,-85 1587,-85 1587,-55 1724,-55 1724,-85"/>
<text text-anchor="start" x="1595" y="-73" font-family="Helvetica,sans-Serif" font-size="10.00">src/ui/src/ControllerPanel</text>
<text text-anchor="middle" x="1655.5" y="-62" font-family="Helvetica,sans-Serif" font-size="10.00">FPSOverlayItem.cpp</text>
</a>
</g>
</g>
<!-- Node1&#45;&gt;Node17 -->
<g id="edge41_Node000001_Node000017" class="edge">
<title>Node1&#45;&gt;Node17</title>
<g id="a_edge41_Node000001_Node000017"><a xlink:title=" ">
<path fill="none" stroke="#63b8ff" d="M926.46,-276.29C1082.16,-272.09 1442.39,-259.21 1560.5,-228 1637.19,-207.74 1679.21,-218.1 1721.5,-151 1728.61,-139.72 1727.43,-132.94 1721.5,-121 1713.76,-105.42 1698.59,-93.4 1684.75,-85.05"/>
<polygon fill="#63b8ff" stroke="#63b8ff" points="925.96,-272.8 916.06,-276.57 926.15,-279.8 925.96,-272.8"/>
</a>
</g>
</g>
<!-- Node18 -->
<g id="Node000018" class="node">
<title>Node18</title>
<g id="a_Node000018"><a xlink:href="OrientationMarkerOverlay_8hpp.html" target="_top" xlink:title=" ">
<polygon fill="white" stroke="#666666" points="1551,-228 1398,-228 1398,-187 1551,-187 1551,-228"/>
<text text-anchor="start" x="1406" y="-216" font-family="Helvetica,sans-Serif" font-size="10.00">src/overlays/include</text>
<text text-anchor="start" x="1406" y="-205" font-family="Helvetica,sans-Serif" font-size="10.00">/overlays/OrientationMarker</text>
<text text-anchor="middle" x="1474.5" y="-194" font-family="Helvetica,sans-Serif" font-size="10.00">Overlay.hpp</text>
</a>
</g>
</g>
<!-- Node1&#45;&gt;Node18 -->
<g id="edge28_Node000001_Node000018" class="edge">
<title>Node1&#45;&gt;Node18</title>
<g id="a_edge28_Node000001_Node000018"><a xlink:title=" ">
<path fill="none" stroke="#63b8ff" d="M926.21,-269.86C1044.4,-256.64 1277.08,-230.59 1397.79,-217.08"/>
<polygon fill="#63b8ff" stroke="#63b8ff" points="925.72,-266.4 916.17,-270.99 926.5,-273.35 925.72,-266.4"/>
</a>
</g>
</g>
<!-- Node22 -->
<g id="Node000022" class="node">
<title>Node22</title>
<g id="a_Node000022"><a xlink:href="IOverlay_8cpp.html" target="_top" xlink:title=" ">
<polygon fill="white" stroke="#666666" points="1924.5,-217 1768.5,-217 1768.5,-198 1924.5,-198 1924.5,-217"/>
<text text-anchor="middle" x="1846.5" y="-205" font-family="Helvetica,sans-Serif" font-size="10.00">src/overlays/src/IOverlay.cpp</text>
</a>
</g>
</g>
<!-- Node1&#45;&gt;Node22 -->
<g id="edge38_Node000001_Node000022" class="edge">
<title>Node1&#45;&gt;Node22</title>
<g id="a_edge38_Node000001_Node000022"><a xlink:title=" ">
<path fill="none" stroke="#63b8ff" d="M926.32,-277.74C1080.03,-276.35 1448.6,-268.66 1754.5,-228 1773.76,-225.44 1794.99,-221.05 1812.2,-217.08"/>
<polygon fill="#63b8ff" stroke="#63b8ff" points="926.04,-274.24 916.07,-277.82 926.1,-281.24 926.04,-274.24"/>
</a>
</g>
</g>
<!-- Node3 -->
<g id="Node000003" class="node">
<title>Node3</title>
<g id="a_Node000003"><a xlink:href="OverlayLayoutAdapter_8cpp.html" target="_top" xlink:title=" ">
<polygon fill="white" stroke="#666666" points="921,-151 786,-151 786,-121 921,-121 921,-151"/>
<text text-anchor="start" x="794" y="-139" font-family="Helvetica,sans-Serif" font-size="10.00">src/adapters/src/Overlay</text>
<text text-anchor="middle" x="853.5" y="-128" font-family="Helvetica,sans-Serif" font-size="10.00">LayoutAdapter.cpp</text>
</a>
</g>
</g>
<!-- Node2&#45;&gt;Node3 -->
<g id="edge2_Node000002_Node000003" class="edge">
<title>Node2&#45;&gt;Node3</title>
<g id="a_edge2_Node000002_Node000003"><a xlink:title=" ">
<path fill="none" stroke="#63b8ff" d="M621.61,-190.19C673.43,-178.3 742.91,-162.37 792.27,-151.04"/>
<polygon fill="#63b8ff" stroke="#63b8ff" points="620.78,-186.79 611.82,-192.44 622.35,-193.61 620.78,-186.79"/>
</a>
</g>
</g>
<!-- Node4 -->
<g id="Node000004" class="node">
<title>Node4</title>
<g id="a_Node000004"><a xlink:href="CornerAnnotationOverlay_8cpp.html" target="_top" xlink:title=" ">
<polygon fill="white" stroke="#666666" points="415.5,-151 233.5,-151 233.5,-121 415.5,-121 415.5,-151"/>
<text text-anchor="start" x="241.5" y="-139" font-family="Helvetica,sans-Serif" font-size="10.00">src/overlays/src/CornerAnnotation</text>
<text text-anchor="middle" x="324.5" y="-128" font-family="Helvetica,sans-Serif" font-size="10.00">Overlay.cpp</text>
</a>
</g>
</g>
<!-- Node2&#45;&gt;Node4 -->
<g id="edge3_Node000002_Node000004" class="edge">
<title>Node2&#45;&gt;Node4</title>
<g id="a_edge3_Node000002_Node000004"><a xlink:title=" ">
<path fill="none" stroke="#63b8ff" d="M494.79,-189.37C456.45,-177.58 406.14,-162.11 370.17,-151.04"/>
<polygon fill="#63b8ff" stroke="#63b8ff" points="494.18,-192.84 504.77,-192.44 496.24,-186.15 494.18,-192.84"/>
</a>
</g>
</g>
<!-- Node2&#45;&gt;Node5 -->
<g id="edge4_Node000002_Node000005" class="edge">
<title>Node2&#45;&gt;Node5</title>
<g id="a_edge4_Node000002_Node000005"><a xlink:title=" ">
<path fill="none" stroke="#63b8ff" d="M455.51,-190.82C383.05,-178.86 284.13,-162.53 214.31,-151"/>
<polygon fill="#63b8ff" stroke="#63b8ff" points="455.12,-194.3 465.56,-192.48 456.26,-187.4 455.12,-194.3"/>
</a>
</g>
</g>
<!-- Node8 -->
<g id="Node000008" class="node">
<title>Node8</title>
<g id="a_Node000008"><a xlink:href="MainWindow_8cpp.html" target="_top" xlink:title=" ">
<polygon fill="white" stroke="#666666" points="444.5,-19 298.5,-19 298.5,0 444.5,0 444.5,-19"/>
<text text-anchor="middle" x="371.5" y="-7" font-family="Helvetica,sans-Serif" font-size="10.00">src/ui/src/MainWindow.cpp</text>
</a>
</g>
</g>
<!-- Node2&#45;&gt;Node8 -->
<g id="edge15_Node000002_Node000008" class="edge">
<title>Node2&#45;&gt;Node8</title>
<g id="a_edge15_Node000002_Node000008"><a xlink:title=" ">
<path fill="none" stroke="#63b8ff" d="M525.59,-186.13C501.14,-167 462.15,-138.75 424.5,-121 372.98,-96.71 335.65,-130.58 301.5,-85 293.5,-74.33 295.08,-66.69 301.5,-55 311.07,-37.58 330.66,-26.01 346.69,-19.05"/>
<polygon fill="#63b8ff" stroke="#63b8ff" points="523.6,-189.01 533.61,-192.48 527.94,-183.53 523.6,-189.01"/>
</a>
</g>
</g>
<!-- Node9 -->
<g id="Node000009" class="node">
<title>Node9</title>
<g id="a_Node000009"><a xlink:href="IView_8hpp.html" target="_top" xlink:title=" ">
<polygon fill="white" stroke="#666666" points="691,-145.5 548,-145.5 548,-126.5 691,-126.5 691,-145.5"/>
<text text-anchor="middle" x="619.5" y="-133.5" font-family="Helvetica,sans-Serif" font-size="10.00">src/ui/include/ui/IView.hpp</text>
</a>
</g>
</g>
<!-- Node2&#45;&gt;Node9 -->
<g id="edge8_Node000002_Node000009" class="edge">
<title>Node2&#45;&gt;Node9</title>
<g id="a_edge8_Node000002_Node000009"><a xlink:title=" ">
<path fill="none" stroke="#63b8ff" d="M571.78,-185.07C584.91,-171.84 601.05,-155.58 610.8,-145.77"/>
<polygon fill="#63b8ff" stroke="#63b8ff" points="569.02,-182.87 564.46,-192.44 573.99,-187.8 569.02,-182.87"/>
</a>
</g>
</g>
<!-- Node11 -->
<g id="Node000011" class="node">
<title>Node11</title>
<g id="a_Node000011"><a xlink:href="MultiWindowView_8cpp.html" target="_top" xlink:title=" ">
<polygon fill="white" stroke="#666666" points="1036.5,-19 866.5,-19 866.5,0 1036.5,0 1036.5,-19"/>
<text text-anchor="middle" x="951.5" y="-7" font-family="Helvetica,sans-Serif" font-size="10.00">src/ui/src/MultiWindowView.cpp</text>
</a>
</g>
</g>
<!-- Node2&#45;&gt;Node11 -->
<g id="edge16_Node000002_Node000011" class="edge">
<title>Node2&#45;&gt;Node11</title>
<g id="a_edge16_Node000002_Node000011"><a xlink:title=" ">
<path fill="none" stroke="#63b8ff" d="M603.46,-189.17C632.55,-179.09 669.01,-165.53 700.5,-151 794.59,-107.58 901.05,-42.24 938.02,-19.04"/>
<polygon fill="#63b8ff" stroke="#63b8ff" points="602.22,-185.9 593.9,-192.45 604.49,-192.52 602.22,-185.9"/>
</a>
</g>
</g>
<!-- Node13 -->
<g id="Node000013" class="node">
<title>Node13</title>
<g id="a_Node000013"><a xlink:href="ViewportView_8cpp.html" target="_top" xlink:title=" ">
<polygon fill="white" stroke="#666666" points="627.5,-19 477.5,-19 477.5,0 627.5,0 627.5,-19"/>
<text text-anchor="middle" x="552.5" y="-7" font-family="Helvetica,sans-Serif" font-size="10.00">src/ui/src/ViewportView.cpp</text>
</a>
</g>
</g>
<!-- Node2&#45;&gt;Node13 -->
<g id="edge17_Node000002_Node000013" class="edge">
<title>Node2&#45;&gt;Node13</title>
<g id="a_edge17_Node000002_Node000013"><a xlink:title=" ">
<path fill="none" stroke="#63b8ff" d="M542.06,-182.49C532.68,-152.4 520.13,-99.37 530.5,-55 533.6,-41.74 541.25,-27.9 546.66,-19.24"/>
<polygon fill="#63b8ff" stroke="#63b8ff" points="538.77,-183.71 545.2,-192.13 545.43,-181.54 538.77,-183.71"/>
</a>
</g>
</g>
<!-- Node6 -->
<g id="Node000006" class="node">
<title>Node6</title>
<g id="a_Node000006"><a xlink:href="ControllerPanel_8cpp.html" target="_top" xlink:title=" ">
<polygon fill="white" stroke="#666666" points="1324.5,-79.5 1166.5,-79.5 1166.5,-60.5 1324.5,-60.5 1324.5,-79.5"/>
<text text-anchor="middle" x="1245.5" y="-67.5" font-family="Helvetica,sans-Serif" font-size="10.00">src/ui/src/ControllerPanel.cpp</text>
</a>
</g>
</g>
<!-- Node5&#45;&gt;Node6 -->
<g id="edge5_Node000005_Node000006" class="edge">
<title>Node5&#45;&gt;Node6</title>
<g id="a_edge5_Node000005_Node000006"><a xlink:title=" ">
<path fill="none" stroke="#63b8ff" d="M225.67,-120.95C582.21,-86.52 995.86,-75.53 1166.2,-72.26"/>
<polygon fill="#63b8ff" stroke="#63b8ff" points="225.28,-117.48 215.67,-121.93 225.96,-124.44 225.28,-117.48"/>
</a>
</g>
</g>
<!-- Node5&#45;&gt;Node7 -->
<g id="edge6_Node000005_Node000007" class="edge">
<title>Node5&#45;&gt;Node7</title>
<g id="a_edge6_Node000005_Node000007"><a xlink:title=" ">
<path fill="none" stroke="#63b8ff" d="M109.98,-113.09C101.76,-103.85 92.41,-93.36 85.11,-85.16"/>
<polygon fill="#63b8ff" stroke="#63b8ff" points="107.59,-115.66 116.85,-120.8 112.81,-111 107.59,-115.66"/>
</a>
</g>
</g>
<!-- Node5&#45;&gt;Node8 -->
<g id="edge7_Node000005_Node000008" class="edge">
<title>Node5&#45;&gt;Node8</title>
<g id="a_edge7_Node000005_Node000008"><a xlink:title=" ">
<path fill="none" stroke="#63b8ff" d="M159.26,-115.5C185.95,-98.43 226.5,-73.54 263.5,-55 291.78,-40.83 325.7,-27.4 347.88,-19.08"/>
<polygon fill="#63b8ff" stroke="#63b8ff" points="157.28,-112.61 150.77,-120.97 161.07,-118.5 157.28,-112.61"/>
</a>
</g>
</g>
<!-- Node10 -->
<g id="Node000010" class="node">
<title>Node10</title>
<g id="a_Node000010"><a xlink:href="MultiWindowView_8hpp.html" target="_top" xlink:title=" ">
<polygon fill="white" stroke="#666666" points="699.5,-85 539.5,-85 539.5,-55 699.5,-55 699.5,-85"/>
<text text-anchor="start" x="547.5" y="-73" font-family="Helvetica,sans-Serif" font-size="10.00">src/ui/include/ui/MultiWindow</text>
<text text-anchor="middle" x="619.5" y="-62" font-family="Helvetica,sans-Serif" font-size="10.00">View.hpp</text>
</a>
</g>
</g>
<!-- Node9&#45;&gt;Node10 -->
<g id="edge9_Node000009_Node000010" class="edge">
<title>Node9&#45;&gt;Node10</title>
<g id="a_edge9_Node000009_Node000010"><a xlink:title=" ">
<path fill="none" stroke="#63b8ff" d="M619.5,-116.35C619.5,-106.47 619.5,-94.51 619.5,-85.36"/>
<polygon fill="#63b8ff" stroke="#63b8ff" points="616,-116.37 619.5,-126.37 623,-116.37 616,-116.37"/>
</a>
</g>
</g>
<!-- Node12 -->
<g id="Node000012" class="node">
<title>Node12</title>
<g id="a_Node000012"><a xlink:href="ViewportView_8hpp.html" target="_top" xlink:title=" ">
<polygon fill="white" stroke="#666666" points="483.5,-85 343.5,-85 343.5,-55 483.5,-55 483.5,-85"/>
<text text-anchor="start" x="351.5" y="-73" font-family="Helvetica,sans-Serif" font-size="10.00">src/ui/include/ui/Viewport</text>
<text text-anchor="middle" x="413.5" y="-62" font-family="Helvetica,sans-Serif" font-size="10.00">View.hpp</text>
</a>
</g>
</g>
<!-- Node9&#45;&gt;Node12 -->
<g id="edge12_Node000009_Node000012" class="edge">
<title>Node9&#45;&gt;Node12</title>
<g id="a_edge12_Node000009_Node000012"><a xlink:title=" ">
<path fill="none" stroke="#63b8ff" d="M581.99,-123.35C547.37,-112.59 495.87,-96.59 458.93,-85.12"/>
<polygon fill="#63b8ff" stroke="#63b8ff" points="581.13,-126.74 591.72,-126.37 583.21,-120.06 581.13,-126.74"/>
</a>
</g>
</g>
<!-- Node10&#45;&gt;Node8 -->
<g id="edge10_Node000010_Node000008" class="edge">
<title>Node10&#45;&gt;Node8</title>
<g id="a_edge10_Node000010_Node000008"><a xlink:title=" ">
<path fill="none" stroke="#63b8ff" d="M550.14,-52.64C503.91,-41.73 445.01,-27.84 407.76,-19.05"/>
<polygon fill="#63b8ff" stroke="#63b8ff" points="549.56,-56.1 560.1,-54.99 551.17,-49.29 549.56,-56.1"/>
</a>
</g>
</g>
<!-- Node10&#45;&gt;Node11 -->
<g id="edge11_Node000010_Node000011" class="edge">
<title>Node10&#45;&gt;Node11</title>
<g id="a_edge11_Node000010_Node000011"><a xlink:title=" ">
<path fill="none" stroke="#63b8ff" d="M709.25,-53.18C771.59,-42.2 852.26,-27.99 902.96,-19.05"/>
<polygon fill="#63b8ff" stroke="#63b8ff" points="708.26,-49.81 699.02,-54.99 709.48,-56.7 708.26,-49.81"/>
</a>
</g>
</g>
<!-- Node12&#45;&gt;Node8 -->
<g id="edge13_Node000012_Node000008" class="edge">
<title>Node12&#45;&gt;Node8</title>
<g id="a_edge13_Node000012_Node000008"><a xlink:title=" ">
<path fill="none" stroke="#63b8ff" d="M397.35,-46.51C390.52,-36.99 382.96,-26.47 377.79,-19.27"/>
<polygon fill="#63b8ff" stroke="#63b8ff" points="394.66,-48.76 403.33,-54.84 400.34,-44.67 394.66,-48.76"/>
</a>
</g>
</g>
<!-- Node12&#45;&gt;Node13 -->
<g id="edge14_Node000012_Node000013" class="edge">
<title>Node12&#45;&gt;Node13</title>
<g id="a_edge14_Node000012_Node000013"><a xlink:title=" ">
<path fill="none" stroke="#63b8ff" d="M456.14,-51.05C481.33,-40.45 512.09,-27.51 531.97,-19.14"/>
<polygon fill="#63b8ff" stroke="#63b8ff" points="454.65,-47.88 446.79,-54.99 457.37,-54.33 454.65,-47.88"/>
</a>
</g>
</g>
<!-- Node14&#45;&gt;Node3 -->
<g id="edge19_Node000014_Node000003" class="edge">
<title>Node14&#45;&gt;Node3</title>
<g id="a_edge19_Node000014_Node000003"><a xlink:title=" ">
<path fill="none" stroke="#63b8ff" d="M853.5,-182.25C853.5,-171.81 853.5,-159.99 853.5,-151.04"/>
<polygon fill="#63b8ff" stroke="#63b8ff" points="850,-182.44 853.5,-192.44 857,-182.44 850,-182.44"/>
</a>
</g>
</g>
<!-- Node14&#45;&gt;Node8 -->
<g id="edge25_Node000014_Node000008" class="edge">
<title>Node14&#45;&gt;Node8</title>
<g id="a_edge25_Node000014_Node000008"><a xlink:title=" ">
<path fill="none" stroke="#63b8ff" d="M773.34,-196.86C709.29,-188.08 617.63,-173.08 539.5,-151 504.55,-141.12 497.92,-132.56 463.5,-121 407.07,-102.05 370.49,-132.41 334.5,-85 318.17,-63.49 345.44,-33.65 361.33,-19.13"/>
<polygon fill="#63b8ff" stroke="#63b8ff" points="773,-200.34 783.37,-198.22 773.93,-193.41 773,-200.34"/>
</a>
</g>
</g>
<!-- Node14&#45;&gt;Node9 -->
<g id="edge24_Node000014_Node000009" class="edge">
<title>Node14&#45;&gt;Node9</title>
<g id="a_edge24_Node000014_Node000009"><a xlink:title=" ">
<path fill="none" stroke="#63b8ff" d="M796.43,-189.55C749.56,-175.63 685.13,-156.49 648.35,-145.57"/>
<polygon fill="#63b8ff" stroke="#63b8ff" points="795.56,-192.94 806.15,-192.44 797.56,-186.23 795.56,-192.94"/>
</a>
</g>
</g>
<!-- Node14&#45;&gt;Node11 -->
<g id="edge26_Node000014_Node000011" class="edge">
<title>Node14&#45;&gt;Node11</title>
<g id="a_edge26_Node000014_Node000011"><a xlink:title=" ">
<path fill="none" stroke="#63b8ff" d="M933.79,-200.7C1003.36,-193.8 1096.39,-179.44 1119.5,-151 1167.59,-91.84 1037.3,-39.17 978.55,-19.11"/>
<polygon fill="#63b8ff" stroke="#63b8ff" points="933.33,-197.22 923.71,-201.66 933.99,-204.19 933.33,-197.22"/>
</a>
</g>
</g>
<!-- Node14&#45;&gt;Node13 -->
<g id="edge27_Node000014_Node000013" class="edge">
<title>Node14&#45;&gt;Node13</title>
<g id="a_edge27_Node000014_Node000013"><a xlink:title=" ">
<path fill="none" stroke="#63b8ff" d="M821.82,-186.7C807.45,-176.91 790.75,-164.35 777.5,-151 740.49,-113.71 751.49,-85.22 708.5,-55 681.77,-36.21 647.24,-25.31 617.46,-19.01"/>
<polygon fill="#63b8ff" stroke="#63b8ff" points="820.15,-189.79 830.41,-192.42 824.02,-183.97 820.15,-189.79"/>
</a>
</g>
</g>
<!-- Node15 -->
<g id="Node000015" class="node">
<title>Node15</title>
<g id="a_Node000015"><a xlink:href="FPSOverlay_8cpp.html" target="_top" xlink:title=" ">
<polygon fill="white" stroke="#666666" points="1110,-145.5 939,-145.5 939,-126.5 1110,-126.5 1110,-145.5"/>
<text text-anchor="middle" x="1024.5" y="-133.5" font-family="Helvetica,sans-Serif" font-size="10.00">src/overlays/src/FPSOverlay.cpp</text>
</a>
</g>
</g>
<!-- Node14&#45;&gt;Node15 -->
<g id="edge20_Node000014_Node000015" class="edge">
<title>Node14&#45;&gt;Node15</title>
<g id="a_edge20_Node000014_Node000015"><a xlink:title=" ">
<path fill="none" stroke="#63b8ff" d="M897.37,-188.67C931.41,-174.83 977.1,-156.26 1003.42,-145.57"/>
<polygon fill="#63b8ff" stroke="#63b8ff" points="896.05,-185.43 888.1,-192.44 898.69,-191.91 896.05,-185.43"/>
</a>
</g>
</g>
<!-- Node16 -->
<g id="Node000016" class="node">
<title>Node16</title>
<g id="a_Node000016"><a xlink:href="ControllerPanelFPSOverlayItem_8hpp.html" target="_top" xlink:title=" ">
<polygon fill="white" stroke="#666666" points="1310.5,-151 1166.5,-151 1166.5,-121 1310.5,-121 1310.5,-151"/>
<text text-anchor="start" x="1174.5" y="-139" font-family="Helvetica,sans-Serif" font-size="10.00">src/ui/include/ui/Controller</text>
<text text-anchor="middle" x="1238.5" y="-128" font-family="Helvetica,sans-Serif" font-size="10.00">PanelFPSOverlayItem.hpp</text>
</a>
</g>
</g>
<!-- Node14&#45;&gt;Node16 -->
<g id="edge21_Node000014_Node000016" class="edge">
<title>Node14&#45;&gt;Node16</title>
<g id="a_edge21_Node000014_Node000016"><a xlink:title=" ">
<path fill="none" stroke="#63b8ff" d="M933.56,-192.05C1002.12,-179.67 1099.98,-162.01 1166.2,-150.05"/>
<polygon fill="#63b8ff" stroke="#63b8ff" points="932.89,-188.61 923.67,-193.83 934.13,-195.5 932.89,-188.61"/>
</a>
</g>
</g>
<!-- Node16&#45;&gt;Node6 -->
<g id="edge22_Node000016_Node000006" class="edge">
<title>Node16&#45;&gt;Node6</title>
<g id="a_edge22_Node000016_Node000006"><a xlink:title=" ">
<path fill="none" stroke="#63b8ff" d="M1241.17,-110.6C1242.35,-99.8 1243.66,-87.78 1244.53,-79.84"/>
<polygon fill="#63b8ff" stroke="#63b8ff" points="1237.66,-110.48 1240.05,-120.8 1244.62,-111.24 1237.66,-110.48"/>
</a>
</g>
</g>
<!-- Node16&#45;&gt;Node17 -->
<g id="edge23_Node000016_Node000017" class="edge">
<title>Node16&#45;&gt;Node17</title>
<g id="a_edge23_Node000016_Node000017"><a xlink:title=" ">
<path fill="none" stroke="#63b8ff" d="M1321.06,-120.93C1419.56,-105.24 1521.27,-90.29 1586.78,-80.83"/>
<polygon fill="#63b8ff" stroke="#63b8ff" points="1320.25,-117.52 1310.92,-122.55 1321.35,-124.43 1320.25,-117.52"/>
</a>
</g>
</g>
<!-- Node18&#45;&gt;Node3 -->
<g id="edge29_Node000018_Node000003" class="edge">
<title>Node18&#45;&gt;Node3</title>
<g id="a_edge29_Node000018_Node000003"><a xlink:title=" ">
<path fill="none" stroke="#63b8ff" d="M1387.54,-199.74C1279.93,-190.88 1091.22,-173.77 930.5,-151 927.41,-150.56 924.25,-150.09 921.06,-149.59"/>
<polygon fill="#63b8ff" stroke="#63b8ff" points="1387.44,-203.24 1397.69,-200.57 1388.01,-196.26 1387.44,-203.24"/>
</a>
</g>
</g>
<!-- Node18&#45;&gt;Node8 -->
<g id="edge35_Node000018_Node000008" class="edge">
<title>Node18&#45;&gt;Node8</title>
<g id="a_edge35_Node000018_Node000008"><a xlink:title=" ">
<path fill="none" stroke="#63b8ff" d="M1499.04,-178.6C1504.94,-170.27 1510.42,-160.75 1513.5,-151 1526.5,-109.89 1532.52,-82.72 1499.5,-55 1455.6,-18.15 525.71,-22.5 468.5,-19 460.74,-18.52 452.63,-17.95 444.56,-17.32"/>
<polygon fill="#63b8ff" stroke="#63b8ff" points="1496.08,-176.72 1492.83,-186.8 1501.66,-180.94 1496.08,-176.72"/>
</a>
</g>
</g>
<!-- Node18&#45;&gt;Node9 -->
<g id="edge34_Node000018_Node000009" class="edge">
<title>Node18&#45;&gt;Node9</title>
<g id="a_edge34_Node000018_Node000009"><a xlink:title=" ">
<path fill="none" stroke="#63b8ff" d="M1387.86,-199.85C1256.04,-189.68 997.22,-169.48 777.5,-151 749.24,-148.62 718.14,-145.89 691.06,-143.48"/>
<polygon fill="#63b8ff" stroke="#63b8ff" points="1387.66,-203.35 1397.9,-200.63 1388.2,-196.37 1387.66,-203.35"/>
</a>
</g>
</g>
<!-- Node18&#45;&gt;Node11 -->
<g id="edge36_Node000018_Node000011" class="edge">
<title>Node18&#45;&gt;Node11</title>
<g id="a_edge36_Node000018_Node000011"><a xlink:title=" ">
<path fill="none" stroke="#63b8ff" d="M1561.07,-203.53C1644.89,-198.61 1763.44,-185.58 1792.5,-151 1819.95,-118.34 1821.86,-85.96 1792.5,-55 1766.78,-27.88 1245.49,-15.69 1036.79,-11.89"/>
<polygon fill="#63b8ff" stroke="#63b8ff" points="1560.82,-200.04 1551.03,-204.09 1561.21,-207.03 1560.82,-200.04"/>
</a>
</g>
</g>
<!-- Node18&#45;&gt;Node13 -->
<g id="edge37_Node000018_Node000013" class="edge">
<title>Node18&#45;&gt;Node13</title>
<g id="a_edge37_Node000018_Node000013"><a xlink:title=" ">
<path fill="none" stroke="#63b8ff" d="M1561.49,-197.16C1623.45,-188.68 1699.48,-173.94 1721.5,-151 1751.27,-119.98 1763.33,-85.97 1733.5,-55 1723.88,-45.01 886.83,-20.12 627.93,-12.65"/>
<polygon fill="#63b8ff" stroke="#63b8ff" points="1560.74,-193.73 1551.28,-198.52 1561.66,-200.67 1560.74,-193.73"/>
</a>
</g>
</g>
<!-- Node19 -->
<g id="Node000019" class="node">
<title>Node19</title>
<g id="a_Node000019"><a xlink:href="OrientationMarkerOverlay_8cpp.html" target="_top" xlink:title=" ">
<polygon fill="white" stroke="#666666" points="1712,-151 1561,-151 1561,-121 1712,-121 1712,-151"/>
<text text-anchor="start" x="1569" y="-139" font-family="Helvetica,sans-Serif" font-size="10.00">src/overlays/src/Orientation</text>
<text text-anchor="middle" x="1636.5" y="-128" font-family="Helvetica,sans-Serif" font-size="10.00">MarkerOverlay.cpp</text>
</a>
</g>
</g>
<!-- Node18&#45;&gt;Node19 -->
<g id="edge30_Node000018_Node000019" class="edge">
<title>Node18&#45;&gt;Node19</title>
<g id="a_edge30_Node000018_Node000019"><a xlink:title=" ">
<path fill="none" stroke="#63b8ff" d="M1529.34,-182.97C1554.1,-172.35 1582.51,-160.16 1603.86,-151"/>
<polygon fill="#63b8ff" stroke="#63b8ff" points="1527.87,-179.8 1520.06,-186.96 1530.63,-186.23 1527.87,-179.8"/>
</a>
</g>
</g>
<!-- Node20 -->
<g id="Node000020" class="node">
<title>Node20</title>
<g id="a_Node000020"><a xlink:href="ControllerPanelOrientationMarkerItem_8hpp.html" target="_top" xlink:title=" ">
<polygon fill="white" stroke="#666666" points="1504,-151 1329,-151 1329,-121 1504,-121 1504,-151"/>
<text text-anchor="start" x="1337" y="-139" font-family="Helvetica,sans-Serif" font-size="10.00">src/ui/include/ui/Controller</text>
<text text-anchor="middle" x="1416.5" y="-128" font-family="Helvetica,sans-Serif" font-size="10.00">PanelOrientationMarkerItem.hpp</text>
</a>
</g>
</g>
<!-- Node18&#45;&gt;Node20 -->
<g id="edge31_Node000018_Node000020" class="edge">
<title>Node18&#45;&gt;Node20</title>
<g id="a_edge31_Node000018_Node000020"><a xlink:title=" ">
<path fill="none" stroke="#63b8ff" d="M1451.53,-178.98C1443.54,-169.4 1434.91,-159.06 1428.22,-151.04"/>
<polygon fill="#63b8ff" stroke="#63b8ff" points="1448.94,-181.33 1458.03,-186.77 1454.31,-176.85 1448.94,-181.33"/>
</a>
</g>
</g>
<!-- Node20&#45;&gt;Node6 -->
<g id="edge32_Node000020_Node000006" class="edge">
<title>Node20&#45;&gt;Node6</title>
<g id="a_edge32_Node000020_Node000006"><a xlink:title=" ">
<path fill="none" stroke="#63b8ff" d="M1369.52,-117.42C1336.58,-105.09 1293.99,-89.15 1268.26,-79.52"/>
<polygon fill="#63b8ff" stroke="#63b8ff" points="1368.38,-120.73 1378.97,-120.95 1370.83,-114.17 1368.38,-120.73"/>
</a>
</g>
</g>
<!-- Node21 -->
<g id="Node000021" class="node">
<title>Node21</title>
<g id="a_Node000021"><a xlink:href="ControllerPanelOrientationMarkerItem_8cpp.html" target="_top" xlink:title=" ">
<polygon fill="white" stroke="#666666" points="1490.5,-85 1342.5,-85 1342.5,-55 1490.5,-55 1490.5,-85"/>
<text text-anchor="start" x="1350.5" y="-73" font-family="Helvetica,sans-Serif" font-size="10.00">src/ui/src/ControllerPanel</text>
<text text-anchor="middle" x="1416.5" y="-62" font-family="Helvetica,sans-Serif" font-size="10.00">OrientationMarkerItem.cpp</text>
</a>
</g>
</g>
<!-- Node20&#45;&gt;Node21 -->
<g id="edge33_Node000020_Node000021" class="edge">
<title>Node20&#45;&gt;Node21</title>
<g id="a_edge33_Node000020_Node000021"><a xlink:title=" ">
<path fill="none" stroke="#63b8ff" d="M1416.5,-110.54C1416.5,-101.96 1416.5,-92.61 1416.5,-85.16"/>
<polygon fill="#63b8ff" stroke="#63b8ff" points="1413,-110.8 1416.5,-120.8 1420,-110.8 1413,-110.8"/>
</a>
</g>
</g>
</g>
</svg>

<g id="navigator" transform="translate(0 0)" fill="#404254">
  <rect fill="#f2f5e9" fill-opacity="0.5" stroke="#606060" stroke-width=".5" x="0" y="0" width="60" height="60"/>
  <use id="zoomplus" xlink:href="#zoomPlus" x="17" y="9" onmousedown="handleZoom(evt,'in')"/>
  <use id="zoomminus" xlink:href="#zoomMin" x="42" y="9" onmousedown="handleZoom(evt,'out')"/>
  <use id="reset" xlink:href="#resetDef" x="30" y="36" onmousedown="handleReset()"/>
   <use id="arrowup" xlink:href="#arrowUp" x="0" y="0" onmousedown="handlePan(0,-1)"/>
  <use id="arrowright" xlink:href="#arrowRight" x="0" y="0" onmousedown="handlePan(1,0)"/>
  <use id="arrowdown" xlink:href="#arrowDown" x="0" y="0" onmousedown="handlePan(0,1)"/>
  <use id="arrowleft" xlink:href="#arrowLeft" x="0" y="0" onmousedown="handlePan(-1,0)"/>
</g>
<svg viewBox="0 0 15 15" width="100%" height="30px" preserveAspectRatio="xMaxYMin meet">
 <g id="arrow_out" transform="scale(0.3 0.3)">
  <a xlink:href="IOverlay_8hpp__dep__incl_org.svg" target="_base">
   <rect id="button" ry="5" rx="5" y="6" x="6" height="38" width="38"
        fill="#f2f5e9" fill-opacity="0.5" stroke="#606060" stroke-width="1.0"/>
   <path id="arrow"
     d="M 11.500037,31.436501 C 11.940474,20.09759 22.043105,11.32322 32.158766,21.979434 L 37.068811,17.246167 C 37.068811,17.246167 37.088388,32 37.088388,32 L 22.160133,31.978069 C 22.160133,31.978069 26.997745,27.140456 26.997745,27.140456 C 18.528582,18.264221 13.291696,25.230495 11.500037,31.436501 z"
     style="fill:#404040;"/>
  </a>
 </g>
</svg>

<style type='text/css'>
<![CDATA[
[data-mouse-over-selected='false'] { opacity: 0.7; }
[data-mouse-over-selected='true']  { opacity: 1.0; }
]]>
</style>
<script type="application/ecmascript"><![CDATA[
document.addEventListener('DOMContentLoaded', (event) => {
  highlightEdges();
  highlightAdjacentNodes();
});
]]></script>
</svg>
