<?xml version="1.0" encoding="UTF-8" standalone="no"?>
<!DOCTYPE svg PUBLIC "-//W3C//DTD SVG 1.1//EN"
 "http://www.w3.org/Graphics/SVG/1.1/DTD/svg11.dtd">
<!-- Generated by graphviz version 2.43.0 (0)
 -->
<!-- Title: src/render/include/render/IRenderTarget.hpp Pages: 1 -->
<svg width="632pt" height="170pt"
 viewBox="0.00 0.00 631.50 170.00" xmlns="http://www.w3.org/2000/svg" xmlns:xlink="http://www.w3.org/1999/xlink">
<g id="graph0" class="graph" transform="scale(1 1) rotate(0) translate(4 166)">
<title>src/render/include/render/IRenderTarget.hpp</title>
<!-- Node1 -->
<g id="Node000001" class="node">
<title>Node1</title>
<g id="a_Node000001"><a xlink:title=" ">
<polygon fill="#999999" stroke="#666666" points="414.5,-162 271.5,-162 271.5,-132 414.5,-132 414.5,-162"/>
<text text-anchor="start" x="279.5" y="-150" font-family="Helvetica,sans-Serif" font-size="10.00">src/render/include</text>
<text text-anchor="middle" x="343" y="-139" font-family="Helvetica,sans-Serif" font-size="10.00">/render/IRenderTarget.hpp</text>
</a>
</g>
</g>
<!-- Node2 -->
<g id="Node000002" class="node">
<title>Node2</title>
<g id="a_Node000002"><a xlink:href="RivRenderTarget_8hpp.html" target="_top" xlink:title=" ">
<polygon fill="white" stroke="#666666" points="235.5,-96 80.5,-96 80.5,-66 235.5,-66 235.5,-96"/>
<text text-anchor="start" x="88.5" y="-84" font-family="Helvetica,sans-Serif" font-size="10.00">src/render/include</text>
<text text-anchor="middle" x="158" y="-73" font-family="Helvetica,sans-Serif" font-size="10.00">/render/RivRenderTarget.hpp</text>
</a>
</g>
</g>
<!-- Node1&#45;&gt;Node2 -->
<g id="edge1_Node000001_Node000002" class="edge">
<title>Node1&#45;&gt;Node2</title>
<g id="a_edge1_Node000001_Node000002"><a xlink:title=" ">
<path fill="none" stroke="#63b8ff" d="M292.67,-128.59C263.1,-118.36 226.2,-105.59 198.5,-96.01"/>
<polygon fill="#63b8ff" stroke="#63b8ff" points="291.81,-131.99 302.4,-131.95 294.09,-125.38 291.81,-131.99"/>
</a>
</g>
</g>
<!-- Node5 -->
<g id="Node000005" class="node">
<title>Node5</title>
<g id="a_Node000005"><a xlink:href="WindowRenderTarget_8hpp.html" target="_top" xlink:title=" ">
<polygon fill="white" stroke="#666666" points="432.5,-96 253.5,-96 253.5,-66 432.5,-66 432.5,-96"/>
<text text-anchor="start" x="261.5" y="-84" font-family="Helvetica,sans-Serif" font-size="10.00">src/render/include</text>
<text text-anchor="middle" x="343" y="-73" font-family="Helvetica,sans-Serif" font-size="10.00">/render/WindowRenderTarget.hpp</text>
</a>
</g>
</g>
<!-- Node1&#45;&gt;Node5 -->
<g id="edge4_Node000001_Node000005" class="edge">
<title>Node1&#45;&gt;Node5</title>
<g id="a_edge4_Node000001_Node000005"><a xlink:title=" ">
<path fill="none" stroke="#63b8ff" d="M343,-121.54C343,-112.96 343,-103.61 343,-96.16"/>
<polygon fill="#63b8ff" stroke="#63b8ff" points="339.5,-121.8 343,-131.8 346.5,-121.8 339.5,-121.8"/>
</a>
</g>
</g>
<!-- Node7 -->
<g id="Node000007" class="node">
<title>Node7</title>
<g id="a_Node000007"><a xlink:href="IRenderTarget_8cpp.html" target="_top" xlink:title=" ">
<polygon fill="white" stroke="#666666" points="623.5,-90.5 450.5,-90.5 450.5,-71.5 623.5,-71.5 623.5,-90.5"/>
<text text-anchor="middle" x="537" y="-78.5" font-family="Helvetica,sans-Serif" font-size="10.00">src/render/src/IRenderTarget.cpp</text>
</a>
</g>
</g>
<!-- Node1&#45;&gt;Node7 -->
<g id="edge7_Node000001_Node000007" class="edge">
<title>Node1&#45;&gt;Node7</title>
<g id="a_edge7_Node000001_Node000007"><a xlink:title=" ">
<path fill="none" stroke="#63b8ff" d="M395.33,-128.74C432.84,-116.36 481.74,-100.23 511.18,-90.52"/>
<polygon fill="#63b8ff" stroke="#63b8ff" points="393.97,-125.5 385.57,-131.95 396.17,-132.15 393.97,-125.5"/>
</a>
</g>
</g>
<!-- Node3 -->
<g id="Node000003" class="node">
<title>Node3</title>
<g id="a_Node000003"><a xlink:href="RenderScheduler_8cpp.html" target="_top" xlink:title=" ">
<polygon fill="white" stroke="#666666" points="342,-24.5 154,-24.5 154,-5.5 342,-5.5 342,-24.5"/>
<text text-anchor="middle" x="248" y="-12.5" font-family="Helvetica,sans-Serif" font-size="10.00">src/render/src/RenderScheduler.cpp</text>
</a>
</g>
</g>
<!-- Node2&#45;&gt;Node3 -->
<g id="edge2_Node000002_Node000003" class="edge">
<title>Node2&#45;&gt;Node3</title>
<g id="a_edge2_Node000002_Node000003"><a xlink:title=" ">
<path fill="none" stroke="#63b8ff" d="M186.3,-59.87C202.96,-48.03 223.18,-33.65 235.82,-24.66"/>
<polygon fill="#63b8ff" stroke="#63b8ff" points="184.1,-57.15 177.97,-65.8 188.15,-62.85 184.1,-57.15"/>
</a>
</g>
</g>
<!-- Node4 -->
<g id="Node000004" class="node">
<title>Node4</title>
<g id="a_Node000004"><a xlink:href="RivRenderTarget_8cpp.html" target="_top" xlink:title=" ">
<polygon fill="white" stroke="#666666" points="136,-30 0,-30 0,0 136,0 136,-30"/>
<text text-anchor="start" x="8" y="-18" font-family="Helvetica,sans-Serif" font-size="10.00">src/render/src/RivRender</text>
<text text-anchor="middle" x="68" y="-7" font-family="Helvetica,sans-Serif" font-size="10.00">Target.cpp</text>
</a>
</g>
</g>
<!-- Node2&#45;&gt;Node4 -->
<g id="edge3_Node000002_Node000004" class="edge">
<title>Node2&#45;&gt;Node4</title>
<g id="a_edge3_Node000002_Node000004"><a xlink:title=" ">
<path fill="none" stroke="#63b8ff" d="M129.53,-59.75C115.99,-50.13 100.14,-38.86 87.92,-30.16"/>
<polygon fill="#63b8ff" stroke="#63b8ff" points="127.85,-62.85 138.03,-65.8 131.9,-57.15 127.85,-62.85"/>
</a>
</g>
</g>
<!-- Node5&#45;&gt;Node3 -->
<g id="edge5_Node000005_Node000003" class="edge">
<title>Node5&#45;&gt;Node3</title>
<g id="a_edge5_Node000005_Node000003"><a xlink:title=" ">
<path fill="none" stroke="#63b8ff" d="M313.61,-60.2C295.93,-48.29 274.32,-33.73 260.85,-24.66"/>
<polygon fill="#63b8ff" stroke="#63b8ff" points="311.67,-63.11 321.92,-65.8 315.58,-57.31 311.67,-63.11"/>
</a>
</g>
</g>
<!-- Node6 -->
<g id="Node000006" class="node">
<title>Node6</title>
<g id="a_Node000006"><a xlink:href="WindowRenderTarget_8cpp.html" target="_top" xlink:title=" ">
<polygon fill="white" stroke="#666666" points="519.5,-30 360.5,-30 360.5,0 519.5,0 519.5,-30"/>
<text text-anchor="start" x="368.5" y="-18" font-family="Helvetica,sans-Serif" font-size="10.00">src/render/src/WindowRender</text>
<text text-anchor="middle" x="440" y="-7" font-family="Helvetica,sans-Serif" font-size="10.00">Target.cpp</text>
</a>
</g>
</g>
<!-- Node5&#45;&gt;Node6 -->
<g id="edge6_Node000005_Node000006" class="edge">
<title>Node5&#45;&gt;Node6</title>
<g id="a_edge6_Node000005_Node000006"><a xlink:title=" ">
<path fill="none" stroke="#63b8ff" d="M373.27,-60.03C387.95,-50.34 405.23,-38.94 418.53,-30.16"/>
<polygon fill="#63b8ff" stroke="#63b8ff" points="370.95,-57.37 364.53,-65.8 374.8,-63.21 370.95,-57.37"/>
</a>
</g>
</g>
</g>
</svg>
