<?xml version="1.0" encoding="UTF-8" standalone="no"?>
<!DOCTYPE svg PUBLIC "-//W3C//DTD SVG 1.1//EN"
 "http://www.w3.org/Graphics/SVG/1.1/DTD/svg11.dtd">
<!-- Generated by graphviz version 2.43.0 (0)
 -->
<!-- Title: src/ui/include/ui/IView.hpp Pages: 1 -->
<!--zoomable 203 -->

<svg id="main" version="1.1" xmlns="http://www.w3.org/2000/svg" xmlns:xlink="http://www.w3.org/1999/xlink" xml:space="preserve" onload="init(evt)">
<style type="text/css"><![CDATA[
.node, .edge {opacity: 0.7;}
.node.selected, .edge.selected {opacity: 1;}
.edge:hover path { stroke: red; }
.edge:hover polygon { stroke: red; fill: red; }
]]></style>

<defs>
  <circle id="rim" cx="0" cy="0" r="7"/>
  <circle id="rim2" cx="0" cy="0" r="3.5"/>
  <g id="zoomPlus">
    <use xlink:href="#rim" fill="#404040"><set attributeName="fill" to="#808080" begin="zoomplus.mouseover" end="zoomplus.mouseout"/></use>
    <path d="M-4,0h8M0,-4v8" fill="none" stroke="white" stroke-width="1.5" pointer-events="none"/>
  </g>
  <g id="zoomMin">
    <use xlink:href="#rim" fill="#404040"><set attributeName="fill" to="#808080" begin="zoomminus.mouseover" end="zoomminus.mouseout"/></use>
    <path d="M-4,0h8" fill="none" stroke="white" stroke-width="1.5" pointer-events="none"/>
  </g>
  <g id="arrowUp" transform="translate(30 24)">
    <use xlink:href="#rim"/>
    <path pointer-events="none" fill="none" stroke="white" stroke-width="1.5" d="M0,-3.0v7 M-2.5,-0.5L0,-3.0L2.5,-0.5"/>
  </g>
  <g id="arrowRight" transform="rotate(90) translate(36 -43)">
    <use xlink:href="#rim"/>
    <path pointer-events="none" fill="none" stroke="white" stroke-width="1.5" d="M0,-3.0v7 M-2.5,-0.5L0,-3.0L2.5,-0.5"/>
  </g>
  <g id="arrowDown" transform="rotate(180) translate(-30 -48)">
    <use xlink:href="#rim"/>
    <path pointer-events="none" fill="none" stroke="white" stroke-width="1.5" d="M0,-3.0v7 M-2.5,-0.5L0,-3.0L2.5,-0.5"/>
  </g>
  <g id="arrowLeft" transform="rotate(270) translate(-36 17)">
    <use xlink:href="#rim"/>
    <path pointer-events="none" fill="none" stroke="white" stroke-width="1.5" d="M0,-3.0v7 M-2.5,-0.5L0,-3.0L2.5,-0.5"/>
  </g>
  <g id="resetDef">
    <use xlink:href="#rim2" fill="#404040"><set attributeName="fill" to="#808080" begin="reset.mouseover" end="reset.mouseout"/></use>
  </g>
</defs>
<script type="application/ecmascript">
var viewWidth = 854;
var viewHeight = 203;
var sectionId = 'dynsection-0';
</script>
<script type="application/ecmascript" xlink:href="svg.min.js"/>
<svg id="graph" class="graph">
<g id="viewport">
<title>src/ui/include/ui/IView.hpp</title>
<!-- Node1 -->
<g id="Node000001" class="node">
<title>Node1</title>
<g id="a_Node000001"><a xlink:title=" ">
<polygon fill="#999999" stroke="#666666" points="388.5,-195 245.5,-195 245.5,-176 388.5,-176 388.5,-195"/>
<text text-anchor="middle" x="317" y="-183" font-family="Helvetica,sans-Serif" font-size="10.00">src/ui/include/ui/IView.hpp</text>
</a>
</g>
</g>
<!-- Node2 -->
<g id="Node000002" class="node">
<title>Node2</title>
<g id="a_Node000002"><a xlink:title=" ">
<polygon fill="#e0e0e0" stroke="#999999" points="104,-134.5 0,-134.5 0,-115.5 104,-115.5 104,-134.5"/>
<text text-anchor="middle" x="52" y="-122.5" font-family="Helvetica,sans-Serif" font-size="10.00">vtkSmartPointer.h</text>
</a>
</g>
</g>
<!-- Node1&#45;&gt;Node2 -->
<g id="edge1_Node000001_Node000002" class="edge">
<title>Node1&#45;&gt;Node2</title>
<g id="a_edge1_Node000001_Node000002"><a xlink:title=" ">
<path fill="none" stroke="#63b8ff" d="M278.47,-175.99C231.36,-165.6 151.62,-147.99 100.42,-136.69"/>
<polygon fill="#63b8ff" stroke="#63b8ff" points="101.1,-133.25 90.58,-134.52 99.59,-140.09 101.1,-133.25"/>
</a>
</g>
</g>
<!-- Node3 -->
<g id="Node000003" class="node">
<title>Node3</title>
<g id="a_Node000003"><a xlink:title=" ">
<polygon fill="#e0e0e0" stroke="#999999" points="155.5,-74 96.5,-74 96.5,-55 155.5,-55 155.5,-74"/>
<text text-anchor="middle" x="126" y="-62" font-family="Helvetica,sans-Serif" font-size="10.00">QWidget</text>
</a>
</g>
</g>
<!-- Node1&#45;&gt;Node3 -->
<g id="edge2_Node000001_Node000003" class="edge">
<title>Node1&#45;&gt;Node3</title>
<g id="a_edge2_Node000001_Node000003"><a xlink:title=" ">
<path fill="none" stroke="#63b8ff" d="M245.41,-180.47C212.98,-175.16 176.33,-163.81 151,-140 135.65,-125.58 129.73,-101.46 127.44,-84.58"/>
<polygon fill="#63b8ff" stroke="#63b8ff" points="130.88,-83.85 126.36,-74.26 123.92,-84.57 130.88,-83.85"/>
</a>
</g>
</g>
<!-- Node4 -->
<g id="Node000004" class="node">
<title>Node4</title>
<g id="a_Node000004"><a xlink:title=" ">
<polygon fill="#e0e0e0" stroke="#999999" points="696.5,-134.5 649.5,-134.5 649.5,-115.5 696.5,-115.5 696.5,-134.5"/>
<text text-anchor="middle" x="673" y="-122.5" font-family="Helvetica,sans-Serif" font-size="10.00">vector</text>
</a>
</g>
</g>
<!-- Node1&#45;&gt;Node4 -->
<g id="edge3_Node000001_Node000004" class="edge">
<title>Node1&#45;&gt;Node4</title>
<g id="a_edge3_Node000001_Node000004"><a xlink:title=" ">
<path fill="none" stroke="#63b8ff" d="M388.62,-180.35C455.06,-175.17 556.15,-163.89 641,-140 642.69,-139.53 644.4,-138.98 646.11,-138.39"/>
<polygon fill="#63b8ff" stroke="#63b8ff" points="647.7,-141.52 655.71,-134.6 645.13,-135.01 647.7,-141.52"/>
</a>
</g>
</g>
<!-- Node5 -->
<g id="Node000005" class="node">
<title>Node5</title>
<g id="a_Node000005"><a xlink:href="CornerAnnotationOverlay_8hpp.html" target="_top" xlink:title=" ">
<polygon fill="white" stroke="#666666" points="307.5,-140 160.5,-140 160.5,-110 307.5,-110 307.5,-140"/>
<text text-anchor="start" x="168.5" y="-128" font-family="Helvetica,sans-Serif" font-size="10.00">overlays/CornerAnnotation</text>
<text text-anchor="middle" x="234" y="-117" font-family="Helvetica,sans-Serif" font-size="10.00">Overlay.hpp</text>
</a>
</g>
</g>
<!-- Node1&#45;&gt;Node5 -->
<g id="edge4_Node000001_Node000005" class="edge">
<title>Node1&#45;&gt;Node5</title>
<g id="a_edge4_Node000001_Node000005"><a xlink:title=" ">
<path fill="none" stroke="#63b8ff" d="M304.75,-175.87C293.6,-168 276.7,-156.09 262.21,-145.89"/>
<polygon fill="#63b8ff" stroke="#63b8ff" points="264.22,-143.01 254.03,-140.11 260.18,-148.74 264.22,-143.01"/>
</a>
</g>
</g>
<!-- Node12 -->
<g id="Node000012" class="node">
<title>Node12</title>
<g id="a_Node000012"><a xlink:href="FPSOverlay_8hpp.html" target="_top" xlink:title=" ">
<polygon fill="white" stroke="#666666" points="631.5,-134.5 494.5,-134.5 494.5,-115.5 631.5,-115.5 631.5,-134.5"/>
<text text-anchor="middle" x="563" y="-122.5" font-family="Helvetica,sans-Serif" font-size="10.00">overlays/FPSOverlay.hpp</text>
</a>
</g>
</g>
<!-- Node1&#45;&gt;Node12 -->
<g id="edge13_Node000001_Node000012" class="edge">
<title>Node1&#45;&gt;Node12</title>
<g id="a_edge13_Node000001_Node000012"><a xlink:title=" ">
<path fill="none" stroke="#63b8ff" d="M352.77,-175.99C396.31,-165.64 469.9,-148.14 517.45,-136.83"/>
<polygon fill="#63b8ff" stroke="#63b8ff" points="518.27,-140.24 527.19,-134.52 516.65,-133.43 518.27,-140.24"/>
</a>
</g>
</g>
<!-- Node16 -->
<g id="Node000016" class="node">
<title>Node16</title>
<g id="a_Node000016"><a xlink:href="OrientationMarkerOverlay_8hpp.html" target="_top" xlink:title=" ">
<polygon fill="white" stroke="#666666" points="476,-140 326,-140 326,-110 476,-110 476,-140"/>
<text text-anchor="start" x="334" y="-128" font-family="Helvetica,sans-Serif" font-size="10.00">overlays/OrientationMarker</text>
<text text-anchor="middle" x="401" y="-117" font-family="Helvetica,sans-Serif" font-size="10.00">Overlay.hpp</text>
</a>
</g>
</g>
<!-- Node1&#45;&gt;Node16 -->
<g id="edge19_Node000001_Node000016" class="edge">
<title>Node1&#45;&gt;Node16</title>
<g id="a_edge19_Node000001_Node000016"><a xlink:title=" ">
<path fill="none" stroke="#63b8ff" d="M329.39,-175.87C340.69,-168 357.79,-156.09 372.45,-145.89"/>
<polygon fill="#63b8ff" stroke="#63b8ff" points="374.53,-148.7 380.73,-140.11 370.53,-142.96 374.53,-148.7"/>
</a>
</g>
</g>
<!-- Node5&#45;&gt;Node3 -->
<g id="edge9_Node000005_Node000003" class="edge">
<title>Node5&#45;&gt;Node3</title>
<g id="a_edge9_Node000005_Node000003"><a xlink:title=" ">
<path fill="none" stroke="#63b8ff" d="M208.13,-109.99C190.76,-100.58 167.99,-88.24 150.83,-78.95"/>
<polygon fill="#63b8ff" stroke="#63b8ff" points="152.41,-75.82 141.95,-74.14 149.08,-81.98 152.41,-75.82"/>
</a>
</g>
</g>
<!-- Node6 -->
<g id="Node000006" class="node">
<title>Node6</title>
<g id="a_Node000006"><a xlink:title=" ">
<polygon fill="#e0e0e0" stroke="#999999" points="425,-74 375,-74 375,-55 425,-55 425,-74"/>
<text text-anchor="middle" x="400" y="-62" font-family="Helvetica,sans-Serif" font-size="10.00">QColor</text>
</a>
</g>
</g>
<!-- Node5&#45;&gt;Node6 -->
<g id="edge5_Node000005_Node000006" class="edge">
<title>Node5&#45;&gt;Node6</title>
<g id="a_edge5_Node000005_Node000006"><a xlink:title=" ">
<path fill="none" stroke="#63b8ff" d="M273.76,-109.99C301.83,-100.1 339.05,-86.98 365.79,-77.56"/>
<polygon fill="#63b8ff" stroke="#63b8ff" points="367.22,-80.76 375.49,-74.14 364.89,-74.16 367.22,-80.76"/>
</a>
</g>
</g>
<!-- Node7 -->
<g id="Node000007" class="node">
<title>Node7</title>
<g id="a_Node000007"><a xlink:title=" ">
<polygon fill="#e0e0e0" stroke="#999999" points="257.5,-74 212.5,-74 212.5,-55 257.5,-55 257.5,-74"/>
<text text-anchor="middle" x="235" y="-62" font-family="Helvetica,sans-Serif" font-size="10.00">QFont</text>
</a>
</g>
</g>
<!-- Node5&#45;&gt;Node7 -->
<g id="edge6_Node000005_Node000007" class="edge">
<title>Node5&#45;&gt;Node7</title>
<g id="a_edge6_Node000005_Node000007"><a xlink:title=" ">
<path fill="none" stroke="#63b8ff" d="M234.24,-109.84C234.37,-102.21 234.53,-92.7 234.68,-84.45"/>
<polygon fill="#63b8ff" stroke="#63b8ff" points="238.18,-84.32 234.85,-74.27 231.18,-84.2 238.18,-84.32"/>
</a>
</g>
</g>
<!-- Node8 -->
<g id="Node000008" class="node">
<title>Node8</title>
<g id="a_Node000008"><a xlink:title=" ">
<polygon fill="#e0e0e0" stroke="#999999" points="356.5,-74 275.5,-74 275.5,-55 356.5,-55 356.5,-74"/>
<text text-anchor="middle" x="316" y="-62" font-family="Helvetica,sans-Serif" font-size="10.00">QFontMetrics</text>
</a>
</g>
</g>
<!-- Node5&#45;&gt;Node8 -->
<g id="edge7_Node000005_Node000008" class="edge">
<title>Node5&#45;&gt;Node8</title>
<g id="a_edge7_Node000005_Node000008"><a xlink:title=" ">
<path fill="none" stroke="#63b8ff" d="M253.85,-109.84C266.48,-100.83 282.8,-89.18 295.55,-80.09"/>
<polygon fill="#63b8ff" stroke="#63b8ff" points="297.6,-82.92 303.71,-74.27 293.54,-77.22 297.6,-82.92"/>
</a>
</g>
</g>
<!-- Node9 -->
<g id="Node000009" class="node">
<title>Node9</title>
<g id="a_Node000009"><a xlink:title=" ">
<polygon fill="#e0e0e0" stroke="#999999" points="479.5,-19 426.5,-19 426.5,0 479.5,0 479.5,-19"/>
<text text-anchor="middle" x="453" y="-7" font-family="Helvetica,sans-Serif" font-size="10.00">QString</text>
</a>
</g>
</g>
<!-- Node5&#45;&gt;Node9 -->
<g id="edge8_Node000005_Node000009" class="edge">
<title>Node5&#45;&gt;Node9</title>
<g id="a_edge8_Node000005_Node000009"><a xlink:title=" ">
<path fill="none" stroke="#63b8ff" d="M219.26,-109.79C205.58,-94.9 189.25,-71.41 203,-55 229.76,-23.05 353.35,-14.02 416.15,-11.48"/>
<polygon fill="#63b8ff" stroke="#63b8ff" points="416.55,-14.97 426.41,-11.11 416.29,-7.98 416.55,-14.97"/>
</a>
</g>
</g>
<!-- Node10 -->
<g id="Node000010" class="node">
<title>Node10</title>
<g id="a_Node000010"><a xlink:href="IOverlay_8hpp.html" target="_top" xlink:title=" ">
<polygon fill="white" stroke="#666666" points="603,-74 481,-74 481,-55 603,-55 603,-74"/>
<text text-anchor="middle" x="542" y="-62" font-family="Helvetica,sans-Serif" font-size="10.00">overlays/IOverlay.hpp</text>
</a>
</g>
</g>
<!-- Node5&#45;&gt;Node10 -->
<g id="edge10_Node000005_Node000010" class="edge">
<title>Node5&#45;&gt;Node10</title>
<g id="a_edge10_Node000005_Node000010"><a xlink:title=" ">
<path fill="none" stroke="#63b8ff" d="M307.77,-109.99C362.88,-99.52 437.01,-85.44 486.99,-75.95"/>
<polygon fill="#63b8ff" stroke="#63b8ff" points="487.79,-79.36 496.97,-74.05 486.49,-72.48 487.79,-79.36"/>
</a>
</g>
</g>
<!-- Node10&#45;&gt;Node9 -->
<g id="edge12_Node000010_Node000009" class="edge">
<title>Node10&#45;&gt;Node9</title>
<g id="a_edge12_Node000010_Node000009"><a xlink:title=" ">
<path fill="none" stroke="#63b8ff" d="M527.7,-54.98C513.9,-46.77 492.76,-34.18 476.49,-24.49"/>
<polygon fill="#63b8ff" stroke="#63b8ff" points="477.94,-21.28 467.56,-19.17 474.36,-27.29 477.94,-21.28"/>
</a>
</g>
</g>
<!-- Node11 -->
<g id="Node000011" class="node">
<title>Node11</title>
<g id="a_Node000011"><a xlink:title=" ">
<polygon fill="#e0e0e0" stroke="#999999" points="562.5,-19 521.5,-19 521.5,0 562.5,0 562.5,-19"/>
<text text-anchor="middle" x="542" y="-7" font-family="Helvetica,sans-Serif" font-size="10.00">QList</text>
</a>
</g>
</g>
<!-- Node10&#45;&gt;Node11 -->
<g id="edge11_Node000010_Node000011" class="edge">
<title>Node10&#45;&gt;Node11</title>
<g id="a_edge11_Node000010_Node000011"><a xlink:title=" ">
<path fill="none" stroke="#63b8ff" d="M542,-54.75C542,-47.8 542,-37.85 542,-29.13"/>
<polygon fill="#63b8ff" stroke="#63b8ff" points="545.5,-29.09 542,-19.09 538.5,-29.09 545.5,-29.09"/>
</a>
</g>
</g>
<!-- Node12&#45;&gt;Node6 -->
<g id="edge15_Node000012_Node000006" class="edge">
<title>Node12&#45;&gt;Node6</title>
<g id="a_edge15_Node000012_Node000006"><a xlink:title=" ">
<path fill="none" stroke="#63b8ff" d="M539.3,-115.49C511.41,-105.49 464.93,-88.8 433.4,-77.49"/>
<polygon fill="#63b8ff" stroke="#63b8ff" points="434.32,-74.1 423.73,-74.02 431.96,-80.69 434.32,-74.1"/>
</a>
</g>
</g>
<!-- Node12&#45;&gt;Node10 -->
<g id="edge18_Node000012_Node000010" class="edge">
<title>Node12&#45;&gt;Node10</title>
<g id="a_edge18_Node000012_Node000010"><a xlink:title=" ">
<path fill="none" stroke="#63b8ff" d="M559.9,-115.37C556.92,-107.07 552.33,-94.28 548.54,-83.72"/>
<polygon fill="#63b8ff" stroke="#63b8ff" points="551.78,-82.4 545.11,-74.17 545.2,-84.76 551.78,-82.4"/>
</a>
</g>
</g>
<!-- Node13 -->
<g id="Node000013" class="node">
<title>Node13</title>
<g id="a_Node000013"><a xlink:title=" ">
<polygon fill="#e0e0e0" stroke="#999999" points="668.5,-74 621.5,-74 621.5,-55 668.5,-55 668.5,-74"/>
<text text-anchor="middle" x="645" y="-62" font-family="Helvetica,sans-Serif" font-size="10.00">deque</text>
</a>
</g>
</g>
<!-- Node12&#45;&gt;Node13 -->
<g id="edge14_Node000012_Node000013" class="edge">
<title>Node12&#45;&gt;Node13</title>
<g id="a_edge14_Node000012_Node000013"><a xlink:title=" ">
<path fill="none" stroke="#63b8ff" d="M575.1,-115.37C588.06,-106.12 608.86,-91.28 624.4,-80.19"/>
<polygon fill="#63b8ff" stroke="#63b8ff" points="626.74,-82.82 632.85,-74.17 622.68,-77.13 626.74,-82.82"/>
</a>
</g>
</g>
<!-- Node14 -->
<g id="Node000014" class="node">
<title>Node14</title>
<g id="a_Node000014"><a xlink:title=" ">
<polygon fill="#e0e0e0" stroke="#999999" points="777.5,-74 686.5,-74 686.5,-55 777.5,-55 777.5,-74"/>
<text text-anchor="middle" x="732" y="-62" font-family="Helvetica,sans-Serif" font-size="10.00">QElapsedTimer</text>
</a>
</g>
</g>
<!-- Node12&#45;&gt;Node14 -->
<g id="edge16_Node000012_Node000014" class="edge">
<title>Node12&#45;&gt;Node14</title>
<g id="a_edge16_Node000012_Node000014"><a xlink:title=" ">
<path fill="none" stroke="#63b8ff" d="M587.57,-115.49C616.61,-105.44 665.1,-88.66 697.8,-77.34"/>
<polygon fill="#63b8ff" stroke="#63b8ff" points="699.09,-80.6 707.4,-74.02 696.8,-73.98 699.09,-80.6"/>
</a>
</g>
</g>
<!-- Node15 -->
<g id="Node000015" class="node">
<title>Node15</title>
<g id="a_Node000015"><a xlink:title=" ">
<polygon fill="#e0e0e0" stroke="#999999" points="846,-74 796,-74 796,-55 846,-55 846,-74"/>
<text text-anchor="middle" x="821" y="-62" font-family="Helvetica,sans-Serif" font-size="10.00">QLabel</text>
</a>
</g>
</g>
<!-- Node12&#45;&gt;Node15 -->
<g id="edge17_Node000012_Node000015" class="edge">
<title>Node12&#45;&gt;Node15</title>
<g id="a_edge17_Node000012_Node000015"><a xlink:title=" ">
<path fill="none" stroke="#63b8ff" d="M602.72,-115.45C645.54,-106.17 715.95,-90.7 785.9,-74.22"/>
<polygon fill="#63b8ff" stroke="#63b8ff" points="786.84,-77.59 795.77,-71.88 785.23,-70.78 786.84,-77.59"/>
</a>
</g>
</g>
<!-- Node16&#45;&gt;Node3 -->
<g id="edge24_Node000016_Node000003" class="edge">
<title>Node16&#45;&gt;Node3</title>
<g id="a_edge24_Node000016_Node000003"><a xlink:title=" ">
<path fill="none" stroke="#63b8ff" d="M335.13,-109.99C282.21,-98.73 209.64,-83.29 165.39,-73.88"/>
<polygon fill="#63b8ff" stroke="#63b8ff" points="166.09,-70.45 155.58,-71.79 164.63,-77.3 166.09,-70.45"/>
</a>
</g>
</g>
<!-- Node16&#45;&gt;Node6 -->
<g id="edge20_Node000016_Node000006" class="edge">
<title>Node16&#45;&gt;Node6</title>
<g id="a_edge20_Node000016_Node000006"><a xlink:title=" ">
<path fill="none" stroke="#63b8ff" d="M400.76,-109.84C400.63,-102.21 400.47,-92.7 400.32,-84.45"/>
<polygon fill="#63b8ff" stroke="#63b8ff" points="403.82,-84.2 400.15,-74.27 396.82,-84.32 403.82,-84.2"/>
</a>
</g>
</g>
<!-- Node16&#45;&gt;Node7 -->
<g id="edge21_Node000016_Node000007" class="edge">
<title>Node16&#45;&gt;Node7</title>
<g id="a_edge21_Node000016_Node000007"><a xlink:title=" ">
<path fill="none" stroke="#63b8ff" d="M361.24,-109.99C332.49,-99.86 294.14,-86.34 267.28,-76.88"/>
<polygon fill="#63b8ff" stroke="#63b8ff" points="268.19,-73.49 257.6,-73.46 265.86,-80.09 268.19,-73.49"/>
</a>
</g>
</g>
<!-- Node16&#45;&gt;Node8 -->
<g id="edge22_Node000016_Node000008" class="edge">
<title>Node16&#45;&gt;Node8</title>
<g id="a_edge22_Node000016_Node000008"><a xlink:title=" ">
<path fill="none" stroke="#63b8ff" d="M380.42,-109.84C367.33,-100.83 350.41,-89.18 337.2,-80.09"/>
<polygon fill="#63b8ff" stroke="#63b8ff" points="338.96,-77.05 328.74,-74.27 334.99,-82.82 338.96,-77.05"/>
</a>
</g>
</g>
<!-- Node16&#45;&gt;Node9 -->
<g id="edge23_Node000016_Node000009" class="edge">
<title>Node16&#45;&gt;Node9</title>
<g id="a_edge23_Node000016_Node000009"><a xlink:title=" ">
<path fill="none" stroke="#63b8ff" d="M412.01,-109.79C419.07,-100.13 428.01,-86.82 434,-74 440.78,-59.49 445.81,-41.98 448.98,-29.03"/>
<polygon fill="#63b8ff" stroke="#63b8ff" points="452.45,-29.54 451.29,-19 445.63,-27.96 452.45,-29.54"/>
</a>
</g>
</g>
<!-- Node16&#45;&gt;Node10 -->
<g id="edge25_Node000016_Node000010" class="edge">
<title>Node16&#45;&gt;Node10</title>
<g id="a_edge25_Node000016_Node000010"><a xlink:title=" ">
<path fill="none" stroke="#63b8ff" d="M434.77,-109.99C458.19,-100.27 489.12,-87.44 511.73,-78.06"/>
<polygon fill="#63b8ff" stroke="#63b8ff" points="513.28,-81.2 521.18,-74.14 510.6,-74.74 513.28,-81.2"/>
</a>
</g>
</g>
</g>
</svg>

<g id="navigator" transform="translate(0 0)" fill="#404254">
  <rect fill="#f2f5e9" fill-opacity="0.5" stroke="#606060" stroke-width=".5" x="0" y="0" width="60" height="60"/>
  <use id="zoomplus" xlink:href="#zoomPlus" x="17" y="9" onmousedown="handleZoom(evt,'in')"/>
  <use id="zoomminus" xlink:href="#zoomMin" x="42" y="9" onmousedown="handleZoom(evt,'out')"/>
  <use id="reset" xlink:href="#resetDef" x="30" y="36" onmousedown="handleReset()"/>
   <use id="arrowup" xlink:href="#arrowUp" x="0" y="0" onmousedown="handlePan(0,-1)"/>
  <use id="arrowright" xlink:href="#arrowRight" x="0" y="0" onmousedown="handlePan(1,0)"/>
  <use id="arrowdown" xlink:href="#arrowDown" x="0" y="0" onmousedown="handlePan(0,1)"/>
  <use id="arrowleft" xlink:href="#arrowLeft" x="0" y="0" onmousedown="handlePan(-1,0)"/>
</g>
<svg viewBox="0 0 15 15" width="100%" height="30px" preserveAspectRatio="xMaxYMin meet">
 <g id="arrow_out" transform="scale(0.3 0.3)">
  <a xlink:href="IView_8hpp__incl_org.svg" target="_base">
   <rect id="button" ry="5" rx="5" y="6" x="6" height="38" width="38"
        fill="#f2f5e9" fill-opacity="0.5" stroke="#606060" stroke-width="1.0"/>
   <path id="arrow"
     d="M 11.500037,31.436501 C 11.940474,20.09759 22.043105,11.32322 32.158766,21.979434 L 37.068811,17.246167 C 37.068811,17.246167 37.088388,32 37.088388,32 L 22.160133,31.978069 C 22.160133,31.978069 26.997745,27.140456 26.997745,27.140456 C 18.528582,18.264221 13.291696,25.230495 11.500037,31.436501 z"
     style="fill:#404040;"/>
  </a>
 </g>
</svg>

<style type='text/css'>
<![CDATA[
[data-mouse-over-selected='false'] { opacity: 0.7; }
[data-mouse-over-selected='true']  { opacity: 1.0; }
]]>
</style>
<script type="application/ecmascript"><![CDATA[
document.addEventListener('DOMContentLoaded', (event) => {
  highlightEdges();
  highlightAdjacentNodes();
});
]]></script>
</svg>
