<?xml version="1.0" encoding="UTF-8" standalone="no"?>
<!DOCTYPE svg PUBLIC "-//W3C//DTD SVG 1.1//EN"
 "http://www.w3.org/Graphics/SVG/1.1/DTD/svg11.dtd">
<!-- Generated by graphviz version 2.43.0 (0)
 -->
<!-- Title: src/controllers/src/IViewController.cpp Pages: 1 -->
<svg width="947pt" height="258pt"
 viewBox="0.00 0.00 946.50 258.00" xmlns="http://www.w3.org/2000/svg" xmlns:xlink="http://www.w3.org/1999/xlink">
<g id="graph0" class="graph" transform="scale(1 1) rotate(0) translate(4 254)">
<title>src/controllers/src/IViewController.cpp</title>
<!-- Node1 -->
<g id="Node000001" class="node">
<title>Node1</title>
<g id="a_Node000001"><a xlink:title=" ">
<polygon fill="#999999" stroke="#666666" points="533.5,-250 419.5,-250 419.5,-220 533.5,-220 533.5,-250"/>
<text text-anchor="start" x="427.5" y="-238" font-family="Helvetica,sans-Serif" font-size="10.00">src/controllers/src</text>
<text text-anchor="middle" x="476.5" y="-227" font-family="Helvetica,sans-Serif" font-size="10.00">/IViewController.cpp</text>
</a>
</g>
</g>
<!-- Node2 -->
<g id="Node000002" class="node">
<title>Node2</title>
<g id="a_Node000002"><a xlink:href="IViewController_8hpp.html" target="_top" xlink:title=" ">
<polygon fill="white" stroke="#666666" points="560,-184 393,-184 393,-165 560,-165 560,-184"/>
<text text-anchor="middle" x="476.5" y="-172" font-family="Helvetica,sans-Serif" font-size="10.00">controllers/IViewController.hpp</text>
</a>
</g>
</g>
<!-- Node1&#45;&gt;Node2 -->
<g id="edge1_Node000001_Node000002" class="edge">
<title>Node1&#45;&gt;Node2</title>
<g id="a_edge1_Node000001_Node000002"><a xlink:title=" ">
<path fill="none" stroke="#63b8ff" d="M476.5,-219.84C476.5,-212.21 476.5,-202.7 476.5,-194.45"/>
<polygon fill="#63b8ff" stroke="#63b8ff" points="480,-194.27 476.5,-184.27 473,-194.27 480,-194.27"/>
</a>
</g>
</g>
<!-- Node3 -->
<g id="Node000003" class="node">
<title>Node3</title>
<g id="a_Node000003"><a xlink:title=" ">
<polygon fill="#e0e0e0" stroke="#999999" points="95,-129 0,-129 0,-110 95,-110 95,-129"/>
<text text-anchor="middle" x="47.5" y="-117" font-family="Helvetica,sans-Serif" font-size="10.00">vtkImageData.h</text>
</a>
</g>
</g>
<!-- Node2&#45;&gt;Node3 -->
<g id="edge2_Node000002_Node000003" class="edge">
<title>Node2&#45;&gt;Node3</title>
<g id="a_edge2_Node000002_Node000003"><a xlink:title=" ">
<path fill="none" stroke="#63b8ff" d="M403.34,-164.97C329.24,-156.25 211.35,-142.16 109.5,-129 108.2,-128.83 106.88,-128.66 105.55,-128.49"/>
<polygon fill="#63b8ff" stroke="#63b8ff" points="105.59,-124.96 95.22,-127.12 104.67,-131.9 105.59,-124.96"/>
</a>
</g>
</g>
<!-- Node4 -->
<g id="Node000004" class="node">
<title>Node4</title>
<g id="a_Node000004"><a xlink:title=" ">
<polygon fill="#e0e0e0" stroke="#999999" points="258.5,-74 154.5,-74 154.5,-55 258.5,-55 258.5,-74"/>
<text text-anchor="middle" x="206.5" y="-62" font-family="Helvetica,sans-Serif" font-size="10.00">vtkSmartPointer.h</text>
</a>
</g>
</g>
<!-- Node2&#45;&gt;Node4 -->
<g id="edge3_Node000002_Node000004" class="edge">
<title>Node2&#45;&gt;Node4</title>
<g id="a_edge3_Node000002_Node000004"><a xlink:title=" ">
<path fill="none" stroke="#63b8ff" d="M392.64,-168.02C299.13,-161.03 158.78,-147.59 142.5,-129 126.48,-110.7 153.48,-91.22 177.18,-78.74"/>
<polygon fill="#63b8ff" stroke="#63b8ff" points="178.96,-81.76 186.34,-74.16 175.83,-75.5 178.96,-81.76"/>
</a>
</g>
</g>
<!-- Node5 -->
<g id="Node000005" class="node">
<title>Node5</title>
<g id="a_Node000005"><a xlink:title=" ">
<polygon fill="#e0e0e0" stroke="#999999" points="644.5,-74 586.5,-74 586.5,-55 644.5,-55 644.5,-74"/>
<text text-anchor="middle" x="615.5" y="-62" font-family="Helvetica,sans-Serif" font-size="10.00">memory</text>
</a>
</g>
</g>
<!-- Node2&#45;&gt;Node5 -->
<g id="edge4_Node000002_Node000005" class="edge">
<title>Node2&#45;&gt;Node5</title>
<g id="a_edge4_Node000002_Node000005"><a xlink:title=" ">
<path fill="none" stroke="#63b8ff" d="M492.27,-165C507.28,-156.62 530.22,-143.07 548.5,-129 567.43,-114.43 587.03,-95.3 600.1,-81.86"/>
<polygon fill="#63b8ff" stroke="#63b8ff" points="602.94,-83.95 607.33,-74.31 597.89,-79.11 602.94,-83.95"/>
</a>
</g>
</g>
<!-- Node6 -->
<g id="Node000006" class="node">
<title>Node6</title>
<g id="a_Node000006"><a xlink:title=" ">
<polygon fill="#e0e0e0" stroke="#999999" points="568,-74 521,-74 521,-55 568,-55 568,-74"/>
<text text-anchor="middle" x="544.5" y="-62" font-family="Helvetica,sans-Serif" font-size="10.00">vector</text>
</a>
</g>
</g>
<!-- Node2&#45;&gt;Node6 -->
<g id="edge5_Node000002_Node000006" class="edge">
<title>Node2&#45;&gt;Node6</title>
<g id="a_edge5_Node000002_Node000006"><a xlink:title=" ">
<path fill="none" stroke="#63b8ff" d="M491.71,-164.92C504.08,-157.15 520.99,-144.54 530.5,-129 538.71,-115.6 542.13,-97.99 543.54,-84.72"/>
<polygon fill="#63b8ff" stroke="#63b8ff" points="547.06,-84.62 544.34,-74.38 540.08,-84.09 547.06,-84.62"/>
</a>
</g>
</g>
<!-- Node7 -->
<g id="Node000007" class="node">
<title>Node7</title>
<g id="a_Node000007"><a xlink:href="IControllerBase_8hpp.html" target="_top" xlink:title=" ">
<polygon fill="white" stroke="#666666" points="503,-74 336,-74 336,-55 503,-55 503,-74"/>
<text text-anchor="middle" x="419.5" y="-62" font-family="Helvetica,sans-Serif" font-size="10.00">controllers/IControllerBase.hpp</text>
</a>
</g>
</g>
<!-- Node2&#45;&gt;Node7 -->
<g id="edge6_Node000002_Node000007" class="edge">
<title>Node2&#45;&gt;Node7</title>
<g id="a_edge6_Node000002_Node000007"><a xlink:title=" ">
<path fill="none" stroke="#63b8ff" d="M488.09,-164.99C503.34,-152.72 526.84,-129.41 514.5,-110 504.62,-94.45 487.71,-84.25 470.88,-77.58"/>
<polygon fill="#63b8ff" stroke="#63b8ff" points="471.62,-74.13 461.03,-74.06 469.26,-80.72 471.62,-74.13"/>
</a>
</g>
</g>
<!-- Node9 -->
<g id="Node000009" class="node">
<title>Node9</title>
<g id="a_Node000009"><a xlink:href="SliceController_8hpp.html" target="_top" xlink:title=" ">
<polygon fill="white" stroke="#666666" points="315,-129 152,-129 152,-110 315,-110 315,-129"/>
<text text-anchor="middle" x="233.5" y="-117" font-family="Helvetica,sans-Serif" font-size="10.00">controllers/SliceController.hpp</text>
</a>
</g>
</g>
<!-- Node2&#45;&gt;Node9 -->
<g id="edge8_Node000002_Node000009" class="edge">
<title>Node2&#45;&gt;Node9</title>
<g id="a_edge8_Node000002_Node000009"><a xlink:title=" ">
<path fill="none" stroke="#63b8ff" d="M437.46,-164.98C395.42,-155.82 328.46,-141.21 282.82,-131.26"/>
<polygon fill="#63b8ff" stroke="#63b8ff" points="283.36,-127.79 272.85,-129.08 281.87,-134.63 283.36,-127.79"/>
</a>
</g>
</g>
<!-- Node11 -->
<g id="Node000011" class="node">
<title>Node11</title>
<g id="a_Node000011"><a xlink:href="SphereController_8hpp.html" target="_top" xlink:title=" ">
<polygon fill="white" stroke="#666666" points="506,-129 333,-129 333,-110 506,-110 506,-129"/>
<text text-anchor="middle" x="419.5" y="-117" font-family="Helvetica,sans-Serif" font-size="10.00">controllers/SphereController.hpp</text>
</a>
</g>
</g>
<!-- Node2&#45;&gt;Node11 -->
<g id="edge13_Node000002_Node000011" class="edge">
<title>Node2&#45;&gt;Node11</title>
<g id="a_edge13_Node000002_Node000011"><a xlink:title=" ">
<path fill="none" stroke="#63b8ff" d="M467.34,-164.98C459,-157.23 446.47,-145.58 436.32,-136.14"/>
<polygon fill="#63b8ff" stroke="#63b8ff" points="438.53,-133.42 428.82,-129.17 433.76,-138.54 438.53,-133.42"/>
</a>
</g>
</g>
<!-- Node12 -->
<g id="Node000012" class="node">
<title>Node12</title>
<g id="a_Node000012"><a xlink:href="RenderScheduler_8hpp.html" target="_top" xlink:title=" ">
<polygon fill="white" stroke="#666666" points="792.5,-129 638.5,-129 638.5,-110 792.5,-110 792.5,-129"/>
<text text-anchor="middle" x="715.5" y="-117" font-family="Helvetica,sans-Serif" font-size="10.00">render/RenderScheduler.hpp</text>
</a>
</g>
</g>
<!-- Node2&#45;&gt;Node12 -->
<g id="edge18_Node000002_Node000012" class="edge">
<title>Node2&#45;&gt;Node12</title>
<g id="a_edge18_Node000002_Node000012"><a xlink:title=" ">
<path fill="none" stroke="#63b8ff" d="M514.9,-164.98C556.24,-155.82 622.1,-141.21 666.99,-131.26"/>
<polygon fill="#63b8ff" stroke="#63b8ff" points="667.79,-134.66 676.8,-129.08 666.28,-127.83 667.79,-134.66"/>
</a>
</g>
</g>
<!-- Node8 -->
<g id="Node000008" class="node">
<title>Node8</title>
<g id="a_Node000008"><a xlink:title=" ">
<polygon fill="#e0e0e0" stroke="#999999" points="447.5,-19 391.5,-19 391.5,0 447.5,0 447.5,-19"/>
<text text-anchor="middle" x="419.5" y="-7" font-family="Helvetica,sans-Serif" font-size="10.00">QObject</text>
</a>
</g>
</g>
<!-- Node7&#45;&gt;Node8 -->
<g id="edge7_Node000007_Node000008" class="edge">
<title>Node7&#45;&gt;Node8</title>
<g id="a_edge7_Node000007_Node000008"><a xlink:title=" ">
<path fill="none" stroke="#63b8ff" d="M419.5,-54.75C419.5,-47.8 419.5,-37.85 419.5,-29.13"/>
<polygon fill="#63b8ff" stroke="#63b8ff" points="423,-29.09 419.5,-19.09 416,-29.09 423,-29.09"/>
</a>
</g>
</g>
<!-- Node9&#45;&gt;Node4 -->
<g id="edge9_Node000009_Node000004" class="edge">
<title>Node9&#45;&gt;Node4</title>
<g id="a_edge9_Node000009_Node000004"><a xlink:title=" ">
<path fill="none" stroke="#63b8ff" d="M229.04,-109.75C225.38,-102.57 220.09,-92.18 215.55,-83.27"/>
<polygon fill="#63b8ff" stroke="#63b8ff" points="218.53,-81.41 210.88,-74.09 212.3,-84.59 218.53,-81.41"/>
</a>
</g>
</g>
<!-- Node9&#45;&gt;Node6 -->
<g id="edge11_Node000009_Node000006" class="edge">
<title>Node9&#45;&gt;Node6</title>
<g id="a_edge11_Node000009_Node000006"><a xlink:title=" ">
<path fill="none" stroke="#63b8ff" d="M297.57,-109.98C351.8,-102.37 431.76,-90.23 510.65,-74"/>
<polygon fill="#63b8ff" stroke="#63b8ff" points="511.69,-77.36 520.77,-71.89 510.27,-70.51 511.69,-77.36"/>
</a>
</g>
</g>
<!-- Node9&#45;&gt;Node7 -->
<g id="edge12_Node000009_Node000007" class="edge">
<title>Node9&#45;&gt;Node7</title>
<g id="a_edge12_Node000009_Node000007"><a xlink:title=" ">
<path fill="none" stroke="#63b8ff" d="M263.38,-109.98C294.88,-101.01 344.67,-86.82 379.53,-76.89"/>
<polygon fill="#63b8ff" stroke="#63b8ff" points="380.72,-80.19 389.38,-74.08 378.81,-73.46 380.72,-80.19"/>
</a>
</g>
</g>
<!-- Node10 -->
<g id="Node000010" class="node">
<title>Node10</title>
<g id="a_Node000010"><a xlink:title=" ">
<polygon fill="#e0e0e0" stroke="#999999" points="318.5,-74 276.5,-74 276.5,-55 318.5,-55 318.5,-74"/>
<text text-anchor="middle" x="297.5" y="-62" font-family="Helvetica,sans-Serif" font-size="10.00">array</text>
</a>
</g>
</g>
<!-- Node9&#45;&gt;Node10 -->
<g id="edge10_Node000009_Node000010" class="edge">
<title>Node9&#45;&gt;Node10</title>
<g id="a_edge10_Node000009_Node000010"><a xlink:title=" ">
<path fill="none" stroke="#63b8ff" d="M243.78,-109.98C253.34,-102.07 267.78,-90.11 279.28,-80.58"/>
<polygon fill="#63b8ff" stroke="#63b8ff" points="281.56,-83.24 287.03,-74.17 277.1,-77.85 281.56,-83.24"/>
</a>
</g>
</g>
<!-- Node11&#45;&gt;Node4 -->
<g id="edge14_Node000011_Node000004" class="edge">
<title>Node11&#45;&gt;Node4</title>
<g id="a_edge14_Node000011_Node000004"><a xlink:title=" ">
<path fill="none" stroke="#63b8ff" d="M385.28,-109.98C348.74,-100.89 290.72,-86.46 250.74,-76.51"/>
<polygon fill="#63b8ff" stroke="#63b8ff" points="251.54,-73.1 240.99,-74.08 249.85,-79.89 251.54,-73.1"/>
</a>
</g>
</g>
<!-- Node11&#45;&gt;Node6 -->
<g id="edge16_Node000011_Node000006" class="edge">
<title>Node11&#45;&gt;Node6</title>
<g id="a_edge16_Node000011_Node000006"><a xlink:title=" ">
<path fill="none" stroke="#63b8ff" d="M439.58,-109.98C459.87,-101.38 491.46,-87.99 514.67,-78.15"/>
<polygon fill="#63b8ff" stroke="#63b8ff" points="516.21,-81.3 524.05,-74.17 513.48,-74.85 516.21,-81.3"/>
</a>
</g>
</g>
<!-- Node11&#45;&gt;Node7 -->
<g id="edge17_Node000011_Node000007" class="edge">
<title>Node11&#45;&gt;Node7</title>
<g id="a_edge17_Node000011_Node000007"><a xlink:title=" ">
<path fill="none" stroke="#63b8ff" d="M419.5,-109.75C419.5,-102.8 419.5,-92.85 419.5,-84.13"/>
<polygon fill="#63b8ff" stroke="#63b8ff" points="423,-84.09 419.5,-74.09 416,-84.09 423,-84.09"/>
</a>
</g>
</g>
<!-- Node11&#45;&gt;Node10 -->
<g id="edge15_Node000011_Node000010" class="edge">
<title>Node11&#45;&gt;Node10</title>
<g id="a_edge15_Node000011_Node000010"><a xlink:title=" ">
<path fill="none" stroke="#63b8ff" d="M399.9,-109.98C380.18,-101.42 349.55,-88.11 326.92,-78.28"/>
<polygon fill="#63b8ff" stroke="#63b8ff" points="328.02,-74.94 317.46,-74.17 325.24,-81.37 328.02,-74.94"/>
</a>
</g>
</g>
<!-- Node12&#45;&gt;Node5 -->
<g id="edge20_Node000012_Node000005" class="edge">
<title>Node12&#45;&gt;Node5</title>
<g id="a_edge20_Node000012_Node000005"><a xlink:title=" ">
<path fill="none" stroke="#63b8ff" d="M699.43,-109.98C683.64,-101.61 659.28,-88.7 640.87,-78.95"/>
<polygon fill="#63b8ff" stroke="#63b8ff" points="642.33,-75.76 631.86,-74.17 639.06,-81.95 642.33,-75.76"/>
</a>
</g>
</g>
<!-- Node12&#45;&gt;Node6 -->
<g id="edge22_Node000012_Node000006" class="edge">
<title>Node12&#45;&gt;Node6</title>
<g id="a_edge22_Node000012_Node000006"><a xlink:title=" ">
<path fill="none" stroke="#63b8ff" d="M688.03,-109.98C658.04,-100.69 610.02,-85.81 577.89,-75.85"/>
<polygon fill="#63b8ff" stroke="#63b8ff" points="578.64,-72.42 568.05,-72.8 576.57,-79.1 578.64,-72.42"/>
</a>
</g>
</g>
<!-- Node13 -->
<g id="Node000013" class="node">
<title>Node13</title>
<g id="a_Node000013"><a xlink:title=" ">
<polygon fill="#e0e0e0" stroke="#999999" points="746,-19 693,-19 693,0 746,0 746,-19"/>
<text text-anchor="middle" x="719.5" y="-7" font-family="Helvetica,sans-Serif" font-size="10.00">cstddef</text>
</a>
</g>
</g>
<!-- Node12&#45;&gt;Node13 -->
<g id="edge19_Node000012_Node000013" class="edge">
<title>Node12&#45;&gt;Node13</title>
<g id="a_edge19_Node000012_Node000013"><a xlink:title=" ">
<path fill="none" stroke="#63b8ff" d="M708.25,-109.61C699.25,-97.47 685.75,-74.93 691.5,-55 694.37,-45.06 700.18,-35.2 705.78,-27.29"/>
<polygon fill="#63b8ff" stroke="#63b8ff" points="708.58,-29.39 711.83,-19.3 703,-25.16 708.58,-29.39"/>
</a>
</g>
</g>
<!-- Node14 -->
<g id="Node000014" class="node">
<title>Node14</title>
<g id="a_Node000014"><a xlink:title=" ">
<polygon fill="#e0e0e0" stroke="#999999" points="938.5,-74 852.5,-74 852.5,-55 938.5,-55 938.5,-74"/>
<text text-anchor="middle" x="895.5" y="-62" font-family="Helvetica,sans-Serif" font-size="10.00">unordered_set</text>
</a>
</g>
</g>
<!-- Node12&#45;&gt;Node14 -->
<g id="edge21_Node000012_Node000014" class="edge">
<title>Node12&#45;&gt;Node14</title>
<g id="a_edge21_Node000012_Node000014"><a xlink:title=" ">
<path fill="none" stroke="#63b8ff" d="M744.42,-109.98C774.77,-101.05 822.67,-86.94 856.38,-77.02"/>
<polygon fill="#63b8ff" stroke="#63b8ff" points="857.75,-80.26 866.35,-74.08 855.77,-73.55 857.75,-80.26"/>
</a>
</g>
</g>
<!-- Node15 -->
<g id="Node000015" class="node">
<title>Node15</title>
<g id="a_Node000015"><a xlink:href="RenderTypes_8hpp.html" target="_top" xlink:title=" ">
<polygon fill="white" stroke="#666666" points="834.5,-74 700.5,-74 700.5,-55 834.5,-55 834.5,-74"/>
<text text-anchor="middle" x="767.5" y="-62" font-family="Helvetica,sans-Serif" font-size="10.00">render/RenderTypes.hpp</text>
</a>
</g>
</g>
<!-- Node12&#45;&gt;Node15 -->
<g id="edge23_Node000012_Node000015" class="edge">
<title>Node12&#45;&gt;Node15</title>
<g id="a_edge23_Node000012_Node000015"><a xlink:title=" ">
<path fill="none" stroke="#63b8ff" d="M724.09,-109.75C731.66,-102.03 742.88,-90.6 752.01,-81.28"/>
<polygon fill="#63b8ff" stroke="#63b8ff" points="754.57,-83.68 759.07,-74.09 749.57,-78.78 754.57,-83.68"/>
</a>
</g>
</g>
<!-- Node15&#45;&gt;Node13 -->
<g id="edge24_Node000015_Node000013" class="edge">
<title>Node15&#45;&gt;Node13</title>
<g id="a_edge24_Node000015_Node000013"><a xlink:title=" ">
<path fill="none" stroke="#63b8ff" d="M759.57,-54.75C752.65,-47.11 742.43,-35.82 734.05,-26.56"/>
<polygon fill="#63b8ff" stroke="#63b8ff" points="736.59,-24.15 727.28,-19.09 731.4,-28.85 736.59,-24.15"/>
</a>
</g>
</g>
</g>
</svg>
