<?xml version="1.0" encoding="UTF-8" standalone="no"?>
<!DOCTYPE svg PUBLIC "-//W3C//DTD SVG 1.1//EN"
 "http://www.w3.org/Graphics/SVG/1.1/DTD/svg11.dtd">
<!-- Generated by graphviz version 2.43.0 (0)
 -->
<!-- Title: src/controllers/include/controllers/IViewController.hpp Pages: 1 -->
<svg width="947pt" height="203pt"
 viewBox="0.00 0.00 946.50 203.00" xmlns="http://www.w3.org/2000/svg" xmlns:xlink="http://www.w3.org/1999/xlink">
<g id="graph0" class="graph" transform="scale(1 1) rotate(0) translate(4 199)">
<title>src/controllers/include/controllers/IViewController.hpp</title>
<!-- Node1 -->
<g id="Node000001" class="node">
<title>Node1</title>
<g id="a_Node000001"><a xlink:title=" ">
<polygon fill="#999999" stroke="#666666" points="561.5,-195 391.5,-195 391.5,-165 561.5,-165 561.5,-195"/>
<text text-anchor="start" x="399.5" y="-183" font-family="Helvetica,sans-Serif" font-size="10.00">src/controllers/include</text>
<text text-anchor="middle" x="476.5" y="-172" font-family="Helvetica,sans-Serif" font-size="10.00">/controllers/IViewController.hpp</text>
</a>
</g>
</g>
<!-- Node2 -->
<g id="Node000002" class="node">
<title>Node2</title>
<g id="a_Node000002"><a xlink:title=" ">
<polygon fill="#e0e0e0" stroke="#999999" points="95,-129 0,-129 0,-110 95,-110 95,-129"/>
<text text-anchor="middle" x="47.5" y="-117" font-family="Helvetica,sans-Serif" font-size="10.00">vtkImageData.h</text>
</a>
</g>
</g>
<!-- Node1&#45;&gt;Node2 -->
<g id="edge1_Node000001_Node000002" class="edge">
<title>Node1&#45;&gt;Node2</title>
<g id="a_edge1_Node000001_Node000002"><a xlink:title=" ">
<path fill="none" stroke="#63b8ff" d="M391.22,-167.4C316.83,-157.28 206.02,-142.19 109.5,-129 108.2,-128.82 106.88,-128.64 105.55,-128.46"/>
<polygon fill="#63b8ff" stroke="#63b8ff" points="105.61,-124.94 95.23,-127.05 104.66,-131.87 105.61,-124.94"/>
</a>
</g>
</g>
<!-- Node3 -->
<g id="Node000003" class="node">
<title>Node3</title>
<g id="a_Node000003"><a xlink:title=" ">
<polygon fill="#e0e0e0" stroke="#999999" points="258.5,-74 154.5,-74 154.5,-55 258.5,-55 258.5,-74"/>
<text text-anchor="middle" x="206.5" y="-62" font-family="Helvetica,sans-Serif" font-size="10.00">vtkSmartPointer.h</text>
</a>
</g>
</g>
<!-- Node1&#45;&gt;Node3 -->
<g id="edge2_Node000001_Node000003" class="edge">
<title>Node1&#45;&gt;Node3</title>
<g id="a_edge2_Node000001_Node000003"><a xlink:title=" ">
<path fill="none" stroke="#63b8ff" d="M391.46,-178.42C303.3,-175.79 174.02,-165.59 142.5,-129 126.63,-110.57 153.6,-91.12 177.25,-78.68"/>
<polygon fill="#63b8ff" stroke="#63b8ff" points="179.01,-81.71 186.39,-74.11 175.88,-75.45 179.01,-81.71"/>
</a>
</g>
</g>
<!-- Node4 -->
<g id="Node000004" class="node">
<title>Node4</title>
<g id="a_Node000004"><a xlink:title=" ">
<polygon fill="#e0e0e0" stroke="#999999" points="644.5,-74 586.5,-74 586.5,-55 644.5,-55 644.5,-74"/>
<text text-anchor="middle" x="615.5" y="-62" font-family="Helvetica,sans-Serif" font-size="10.00">memory</text>
</a>
</g>
</g>
<!-- Node1&#45;&gt;Node4 -->
<g id="edge3_Node000001_Node000004" class="edge">
<title>Node1&#45;&gt;Node4</title>
<g id="a_edge3_Node000001_Node000004"><a xlink:title=" ">
<path fill="none" stroke="#63b8ff" d="M498.54,-164.95C513.13,-155.35 532.44,-142.06 548.5,-129 567.03,-113.93 586.7,-94.88 599.9,-81.59"/>
<polygon fill="#63b8ff" stroke="#63b8ff" points="602.69,-83.74 607.21,-74.15 597.7,-78.83 602.69,-83.74"/>
</a>
</g>
</g>
<!-- Node5 -->
<g id="Node000005" class="node">
<title>Node5</title>
<g id="a_Node000005"><a xlink:title=" ">
<polygon fill="#e0e0e0" stroke="#999999" points="568,-74 521,-74 521,-55 568,-55 568,-74"/>
<text text-anchor="middle" x="544.5" y="-62" font-family="Helvetica,sans-Serif" font-size="10.00">vector</text>
</a>
</g>
</g>
<!-- Node1&#45;&gt;Node5 -->
<g id="edge4_Node000001_Node000005" class="edge">
<title>Node1&#45;&gt;Node5</title>
<g id="a_edge4_Node000001_Node000005"><a xlink:title=" ">
<path fill="none" stroke="#63b8ff" d="M497.13,-164.85C508.66,-155.88 522.3,-143.3 530.5,-129 538.31,-115.36 541.77,-97.78 543.3,-84.57"/>
<polygon fill="#63b8ff" stroke="#63b8ff" points="546.81,-84.57 544.2,-74.31 539.84,-83.96 546.81,-84.57"/>
</a>
</g>
</g>
<!-- Node6 -->
<g id="Node000006" class="node">
<title>Node6</title>
<g id="a_Node000006"><a xlink:href="IControllerBase_8hpp.html" target="_top" xlink:title=" ">
<polygon fill="white" stroke="#666666" points="503,-74 336,-74 336,-55 503,-55 503,-74"/>
<text text-anchor="middle" x="419.5" y="-62" font-family="Helvetica,sans-Serif" font-size="10.00">controllers/IControllerBase.hpp</text>
</a>
</g>
</g>
<!-- Node1&#45;&gt;Node6 -->
<g id="edge5_Node000001_Node000006" class="edge">
<title>Node1&#45;&gt;Node6</title>
<g id="a_edge5_Node000001_Node000006"><a xlink:title=" ">
<path fill="none" stroke="#63b8ff" d="M493.48,-164.96C508.46,-150.8 526.24,-128.46 514.5,-110 504.62,-94.45 487.71,-84.25 470.88,-77.58"/>
<polygon fill="#63b8ff" stroke="#63b8ff" points="471.62,-74.13 461.03,-74.06 469.26,-80.72 471.62,-74.13"/>
</a>
</g>
</g>
<!-- Node8 -->
<g id="Node000008" class="node">
<title>Node8</title>
<g id="a_Node000008"><a xlink:href="SliceController_8hpp.html" target="_top" xlink:title=" ">
<polygon fill="white" stroke="#666666" points="315,-129 152,-129 152,-110 315,-110 315,-129"/>
<text text-anchor="middle" x="233.5" y="-117" font-family="Helvetica,sans-Serif" font-size="10.00">controllers/SliceController.hpp</text>
</a>
</g>
</g>
<!-- Node1&#45;&gt;Node8 -->
<g id="edge7_Node000001_Node000008" class="edge">
<title>Node1&#45;&gt;Node8</title>
<g id="a_edge7_Node000001_Node000008"><a xlink:title=" ">
<path fill="none" stroke="#63b8ff" d="M418.3,-164.99C375.54,-154.7 318.28,-140.91 278.89,-131.43"/>
<polygon fill="#63b8ff" stroke="#63b8ff" points="279.57,-127.99 269.03,-129.05 277.93,-134.8 279.57,-127.99"/>
</a>
</g>
</g>
<!-- Node10 -->
<g id="Node000010" class="node">
<title>Node10</title>
<g id="a_Node000010"><a xlink:href="SphereController_8hpp.html" target="_top" xlink:title=" ">
<polygon fill="white" stroke="#666666" points="506,-129 333,-129 333,-110 506,-110 506,-129"/>
<text text-anchor="middle" x="419.5" y="-117" font-family="Helvetica,sans-Serif" font-size="10.00">controllers/SphereController.hpp</text>
</a>
</g>
</g>
<!-- Node1&#45;&gt;Node10 -->
<g id="edge12_Node000001_Node000010" class="edge">
<title>Node1&#45;&gt;Node10</title>
<g id="a_edge12_Node000001_Node000010"><a xlink:title=" ">
<path fill="none" stroke="#63b8ff" d="M462.7,-164.84C454.43,-156.35 443.88,-145.52 435.27,-136.69"/>
<polygon fill="#63b8ff" stroke="#63b8ff" points="437.53,-133.99 428.04,-129.27 432.51,-138.87 437.53,-133.99"/>
</a>
</g>
</g>
<!-- Node11 -->
<g id="Node000011" class="node">
<title>Node11</title>
<g id="a_Node000011"><a xlink:href="RenderScheduler_8hpp.html" target="_top" xlink:title=" ">
<polygon fill="white" stroke="#666666" points="792.5,-129 638.5,-129 638.5,-110 792.5,-110 792.5,-129"/>
<text text-anchor="middle" x="715.5" y="-117" font-family="Helvetica,sans-Serif" font-size="10.00">render/RenderScheduler.hpp</text>
</a>
</g>
</g>
<!-- Node1&#45;&gt;Node11 -->
<g id="edge17_Node000001_Node000011" class="edge">
<title>Node1&#45;&gt;Node11</title>
<g id="a_edge17_Node000001_Node000011"><a xlink:title=" ">
<path fill="none" stroke="#63b8ff" d="M533.75,-164.99C575.71,-154.72 631.88,-140.97 670.61,-131.49"/>
<polygon fill="#63b8ff" stroke="#63b8ff" points="671.67,-134.83 680.55,-129.05 670.01,-128.03 671.67,-134.83"/>
</a>
</g>
</g>
<!-- Node7 -->
<g id="Node000007" class="node">
<title>Node7</title>
<g id="a_Node000007"><a xlink:title=" ">
<polygon fill="#e0e0e0" stroke="#999999" points="447.5,-19 391.5,-19 391.5,0 447.5,0 447.5,-19"/>
<text text-anchor="middle" x="419.5" y="-7" font-family="Helvetica,sans-Serif" font-size="10.00">QObject</text>
</a>
</g>
</g>
<!-- Node6&#45;&gt;Node7 -->
<g id="edge6_Node000006_Node000007" class="edge">
<title>Node6&#45;&gt;Node7</title>
<g id="a_edge6_Node000006_Node000007"><a xlink:title=" ">
<path fill="none" stroke="#63b8ff" d="M419.5,-54.75C419.5,-47.8 419.5,-37.85 419.5,-29.13"/>
<polygon fill="#63b8ff" stroke="#63b8ff" points="423,-29.09 419.5,-19.09 416,-29.09 423,-29.09"/>
</a>
</g>
</g>
<!-- Node8&#45;&gt;Node3 -->
<g id="edge8_Node000008_Node000003" class="edge">
<title>Node8&#45;&gt;Node3</title>
<g id="a_edge8_Node000008_Node000003"><a xlink:title=" ">
<path fill="none" stroke="#63b8ff" d="M229.04,-109.75C225.38,-102.57 220.09,-92.18 215.55,-83.27"/>
<polygon fill="#63b8ff" stroke="#63b8ff" points="218.53,-81.41 210.88,-74.09 212.3,-84.59 218.53,-81.41"/>
</a>
</g>
</g>
<!-- Node8&#45;&gt;Node5 -->
<g id="edge10_Node000008_Node000005" class="edge">
<title>Node8&#45;&gt;Node5</title>
<g id="a_edge10_Node000008_Node000005"><a xlink:title=" ">
<path fill="none" stroke="#63b8ff" d="M297.57,-109.98C351.8,-102.37 431.76,-90.23 510.65,-74"/>
<polygon fill="#63b8ff" stroke="#63b8ff" points="511.69,-77.36 520.77,-71.89 510.27,-70.51 511.69,-77.36"/>
</a>
</g>
</g>
<!-- Node8&#45;&gt;Node6 -->
<g id="edge11_Node000008_Node000006" class="edge">
<title>Node8&#45;&gt;Node6</title>
<g id="a_edge11_Node000008_Node000006"><a xlink:title=" ">
<path fill="none" stroke="#63b8ff" d="M263.38,-109.98C294.88,-101.01 344.67,-86.82 379.53,-76.89"/>
<polygon fill="#63b8ff" stroke="#63b8ff" points="380.72,-80.19 389.38,-74.08 378.81,-73.46 380.72,-80.19"/>
</a>
</g>
</g>
<!-- Node9 -->
<g id="Node000009" class="node">
<title>Node9</title>
<g id="a_Node000009"><a xlink:title=" ">
<polygon fill="#e0e0e0" stroke="#999999" points="318.5,-74 276.5,-74 276.5,-55 318.5,-55 318.5,-74"/>
<text text-anchor="middle" x="297.5" y="-62" font-family="Helvetica,sans-Serif" font-size="10.00">array</text>
</a>
</g>
</g>
<!-- Node8&#45;&gt;Node9 -->
<g id="edge9_Node000008_Node000009" class="edge">
<title>Node8&#45;&gt;Node9</title>
<g id="a_edge9_Node000008_Node000009"><a xlink:title=" ">
<path fill="none" stroke="#63b8ff" d="M243.78,-109.98C253.34,-102.07 267.78,-90.11 279.28,-80.58"/>
<polygon fill="#63b8ff" stroke="#63b8ff" points="281.56,-83.24 287.03,-74.17 277.1,-77.85 281.56,-83.24"/>
</a>
</g>
</g>
<!-- Node10&#45;&gt;Node3 -->
<g id="edge13_Node000010_Node000003" class="edge">
<title>Node10&#45;&gt;Node3</title>
<g id="a_edge13_Node000010_Node000003"><a xlink:title=" ">
<path fill="none" stroke="#63b8ff" d="M385.28,-109.98C348.74,-100.89 290.72,-86.46 250.74,-76.51"/>
<polygon fill="#63b8ff" stroke="#63b8ff" points="251.54,-73.1 240.99,-74.08 249.85,-79.89 251.54,-73.1"/>
</a>
</g>
</g>
<!-- Node10&#45;&gt;Node5 -->
<g id="edge15_Node000010_Node000005" class="edge">
<title>Node10&#45;&gt;Node5</title>
<g id="a_edge15_Node000010_Node000005"><a xlink:title=" ">
<path fill="none" stroke="#63b8ff" d="M439.58,-109.98C459.87,-101.38 491.46,-87.99 514.67,-78.15"/>
<polygon fill="#63b8ff" stroke="#63b8ff" points="516.21,-81.3 524.05,-74.17 513.48,-74.85 516.21,-81.3"/>
</a>
</g>
</g>
<!-- Node10&#45;&gt;Node6 -->
<g id="edge16_Node000010_Node000006" class="edge">
<title>Node10&#45;&gt;Node6</title>
<g id="a_edge16_Node000010_Node000006"><a xlink:title=" ">
<path fill="none" stroke="#63b8ff" d="M419.5,-109.75C419.5,-102.8 419.5,-92.85 419.5,-84.13"/>
<polygon fill="#63b8ff" stroke="#63b8ff" points="423,-84.09 419.5,-74.09 416,-84.09 423,-84.09"/>
</a>
</g>
</g>
<!-- Node10&#45;&gt;Node9 -->
<g id="edge14_Node000010_Node000009" class="edge">
<title>Node10&#45;&gt;Node9</title>
<g id="a_edge14_Node000010_Node000009"><a xlink:title=" ">
<path fill="none" stroke="#63b8ff" d="M399.9,-109.98C380.18,-101.42 349.55,-88.11 326.92,-78.28"/>
<polygon fill="#63b8ff" stroke="#63b8ff" points="328.02,-74.94 317.46,-74.17 325.24,-81.37 328.02,-74.94"/>
</a>
</g>
</g>
<!-- Node11&#45;&gt;Node4 -->
<g id="edge19_Node000011_Node000004" class="edge">
<title>Node11&#45;&gt;Node4</title>
<g id="a_edge19_Node000011_Node000004"><a xlink:title=" ">
<path fill="none" stroke="#63b8ff" d="M699.43,-109.98C683.64,-101.61 659.28,-88.7 640.87,-78.95"/>
<polygon fill="#63b8ff" stroke="#63b8ff" points="642.33,-75.76 631.86,-74.17 639.06,-81.95 642.33,-75.76"/>
</a>
</g>
</g>
<!-- Node11&#45;&gt;Node5 -->
<g id="edge21_Node000011_Node000005" class="edge">
<title>Node11&#45;&gt;Node5</title>
<g id="a_edge21_Node000011_Node000005"><a xlink:title=" ">
<path fill="none" stroke="#63b8ff" d="M688.03,-109.98C658.04,-100.69 610.02,-85.81 577.89,-75.85"/>
<polygon fill="#63b8ff" stroke="#63b8ff" points="578.64,-72.42 568.05,-72.8 576.57,-79.1 578.64,-72.42"/>
</a>
</g>
</g>
<!-- Node12 -->
<g id="Node000012" class="node">
<title>Node12</title>
<g id="a_Node000012"><a xlink:title=" ">
<polygon fill="#e0e0e0" stroke="#999999" points="746,-19 693,-19 693,0 746,0 746,-19"/>
<text text-anchor="middle" x="719.5" y="-7" font-family="Helvetica,sans-Serif" font-size="10.00">cstddef</text>
</a>
</g>
</g>
<!-- Node11&#45;&gt;Node12 -->
<g id="edge18_Node000011_Node000012" class="edge">
<title>Node11&#45;&gt;Node12</title>
<g id="a_edge18_Node000011_Node000012"><a xlink:title=" ">
<path fill="none" stroke="#63b8ff" d="M708.25,-109.61C699.25,-97.47 685.75,-74.93 691.5,-55 694.37,-45.06 700.18,-35.2 705.78,-27.29"/>
<polygon fill="#63b8ff" stroke="#63b8ff" points="708.58,-29.39 711.83,-19.3 703,-25.16 708.58,-29.39"/>
</a>
</g>
</g>
<!-- Node13 -->
<g id="Node000013" class="node">
<title>Node13</title>
<g id="a_Node000013"><a xlink:title=" ">
<polygon fill="#e0e0e0" stroke="#999999" points="938.5,-74 852.5,-74 852.5,-55 938.5,-55 938.5,-74"/>
<text text-anchor="middle" x="895.5" y="-62" font-family="Helvetica,sans-Serif" font-size="10.00">unordered_set</text>
</a>
</g>
</g>
<!-- Node11&#45;&gt;Node13 -->
<g id="edge20_Node000011_Node000013" class="edge">
<title>Node11&#45;&gt;Node13</title>
<g id="a_edge20_Node000011_Node000013"><a xlink:title=" ">
<path fill="none" stroke="#63b8ff" d="M744.42,-109.98C774.77,-101.05 822.67,-86.94 856.38,-77.02"/>
<polygon fill="#63b8ff" stroke="#63b8ff" points="857.75,-80.26 866.35,-74.08 855.77,-73.55 857.75,-80.26"/>
</a>
</g>
</g>
<!-- Node14 -->
<g id="Node000014" class="node">
<title>Node14</title>
<g id="a_Node000014"><a xlink:href="RenderTypes_8hpp.html" target="_top" xlink:title=" ">
<polygon fill="white" stroke="#666666" points="834.5,-74 700.5,-74 700.5,-55 834.5,-55 834.5,-74"/>
<text text-anchor="middle" x="767.5" y="-62" font-family="Helvetica,sans-Serif" font-size="10.00">render/RenderTypes.hpp</text>
</a>
</g>
</g>
<!-- Node11&#45;&gt;Node14 -->
<g id="edge22_Node000011_Node000014" class="edge">
<title>Node11&#45;&gt;Node14</title>
<g id="a_edge22_Node000011_Node000014"><a xlink:title=" ">
<path fill="none" stroke="#63b8ff" d="M724.09,-109.75C731.66,-102.03 742.88,-90.6 752.01,-81.28"/>
<polygon fill="#63b8ff" stroke="#63b8ff" points="754.57,-83.68 759.07,-74.09 749.57,-78.78 754.57,-83.68"/>
</a>
</g>
</g>
<!-- Node14&#45;&gt;Node12 -->
<g id="edge23_Node000014_Node000012" class="edge">
<title>Node14&#45;&gt;Node12</title>
<g id="a_edge23_Node000014_Node000012"><a xlink:title=" ">
<path fill="none" stroke="#63b8ff" d="M759.57,-54.75C752.65,-47.11 742.43,-35.82 734.05,-26.56"/>
<polygon fill="#63b8ff" stroke="#63b8ff" points="736.59,-24.15 727.28,-19.09 731.4,-28.85 736.59,-24.15"/>
</a>
</g>
</g>
</g>
</svg>
