<?xml version="1.0" encoding="UTF-8" standalone="no"?>
<!DOCTYPE svg PUBLIC "-//W3C//DTD SVG 1.1//EN"
 "http://www.w3.org/Graphics/SVG/1.1/DTD/svg11.dtd">
<!-- Generated by graphviz version 2.43.0 (0)
 -->
<!-- Title: src/controllers/src/MultiWindowController.cpp Pages: 1 -->
<svg width="1650pt" height="313pt"
 viewBox="0.00 0.00 1650.00 313.00" xmlns="http://www.w3.org/2000/svg" xmlns:xlink="http://www.w3.org/1999/xlink">
<g id="graph0" class="graph" transform="scale(1 1) rotate(0) translate(4 309)">
<title>src/controllers/src/MultiWindowController.cpp</title>
<!-- Node1 -->
<g id="Node000001" class="node">
<title>Node1</title>
<g id="a_Node000001"><a xlink:title=" ">
<polygon fill="#999999" stroke="#666666" points="869,-305 718,-305 718,-275 869,-275 869,-305"/>
<text text-anchor="start" x="726" y="-293" font-family="Helvetica,sans-Serif" font-size="10.00">src/controllers/src</text>
<text text-anchor="middle" x="793.5" y="-282" font-family="Helvetica,sans-Serif" font-size="10.00">/MultiWindowController.cpp</text>
</a>
</g>
</g>
<!-- Node2 -->
<g id="Node000002" class="node">
<title>Node2</title>
<g id="a_Node000002"><a xlink:href="MultiWindowController_8hpp.html" target="_top" xlink:title=" ">
<polygon fill="white" stroke="#666666" points="565,-239 362,-239 362,-220 565,-220 565,-239"/>
<text text-anchor="middle" x="463.5" y="-227" font-family="Helvetica,sans-Serif" font-size="10.00">controllers/MultiWindowController.hpp</text>
</a>
</g>
</g>
<!-- Node1&#45;&gt;Node2 -->
<g id="edge1_Node000001_Node000002" class="edge">
<title>Node1&#45;&gt;Node2</title>
<g id="a_edge1_Node000001_Node000002"><a xlink:title=" ">
<path fill="none" stroke="#63b8ff" d="M717.79,-275.58C658.14,-265 576.2,-250.48 521.64,-240.81"/>
<polygon fill="#63b8ff" stroke="#63b8ff" points="522.23,-237.36 511.78,-239.06 521.01,-244.25 522.23,-237.36"/>
</a>
</g>
</g>
<!-- Node4 -->
<g id="Node000004" class="node">
<title>Node4</title>
<g id="a_Node000004"><a xlink:title=" ">
<polygon fill="#e0e0e0" stroke="#999999" points="95,-129 0,-129 0,-110 95,-110 95,-129"/>
<text text-anchor="middle" x="47.5" y="-117" font-family="Helvetica,sans-Serif" font-size="10.00">vtkImageData.h</text>
</a>
</g>
</g>
<!-- Node1&#45;&gt;Node4 -->
<g id="edge28_Node000001_Node000004" class="edge">
<title>Node1&#45;&gt;Node4</title>
<g id="a_edge28_Node000001_Node000004"><a xlink:title=" ">
<path fill="none" stroke="#63b8ff" d="M717.94,-286.34C629.28,-281.87 478.37,-270.03 352.5,-239 245.76,-212.68 126.1,-158.43 74.06,-133.52"/>
<polygon fill="#63b8ff" stroke="#63b8ff" points="75.38,-130.28 64.86,-129.09 72.34,-136.59 75.38,-130.28"/>
</a>
</g>
</g>
<!-- Node11 -->
<g id="Node000011" class="node">
<title>Node11</title>
<g id="a_Node000011"><a xlink:title=" ">
<polygon fill="#e0e0e0" stroke="#999999" points="478.5,-74 436.5,-74 436.5,-55 478.5,-55 478.5,-74"/>
<text text-anchor="middle" x="457.5" y="-62" font-family="Helvetica,sans-Serif" font-size="10.00">array</text>
</a>
</g>
</g>
<!-- Node1&#45;&gt;Node11 -->
<g id="edge33_Node000001_Node000011" class="edge">
<title>Node1&#45;&gt;Node11</title>
<g id="a_edge33_Node000001_Node000011"><a xlink:title=" ">
<path fill="none" stroke="#63b8ff" d="M761.32,-274.95C741.86,-265.84 716.94,-253.08 696.5,-239 625.74,-190.25 624.17,-157.4 552.5,-110 532.32,-96.65 507.5,-85.18 488.29,-77.22"/>
<polygon fill="#63b8ff" stroke="#63b8ff" points="489.4,-73.89 478.81,-73.39 486.77,-80.38 489.4,-73.89"/>
</a>
</g>
</g>
<!-- Node12 -->
<g id="Node000012" class="node">
<title>Node12</title>
<g id="a_Node000012"><a xlink:href="SphereController_8hpp.html" target="_top" xlink:title=" ">
<polygon fill="white" stroke="#666666" points="544,-129 371,-129 371,-110 544,-110 544,-129"/>
<text text-anchor="middle" x="457.5" y="-117" font-family="Helvetica,sans-Serif" font-size="10.00">controllers/SphereController.hpp</text>
</a>
</g>
</g>
<!-- Node1&#45;&gt;Node12 -->
<g id="edge34_Node000001_Node000012" class="edge">
<title>Node1&#45;&gt;Node12</title>
<g id="a_edge34_Node000001_Node000012"><a xlink:title=" ">
<path fill="none" stroke="#63b8ff" d="M727.97,-274.9C698.26,-266.9 663.41,-255.19 634.5,-239 590.8,-214.53 591.3,-192.59 549.5,-165 530.3,-152.32 506.94,-141.07 488.56,-133.05"/>
<polygon fill="#63b8ff" stroke="#63b8ff" points="489.76,-129.76 479.19,-129.05 487.02,-136.2 489.76,-129.76"/>
</a>
</g>
</g>
<!-- Node13 -->
<g id="Node000013" class="node">
<title>Node13</title>
<g id="a_Node000013"><a xlink:href="RenderScheduler_8hpp.html" target="_top" xlink:title=" ">
<polygon fill="white" stroke="#666666" points="830.5,-129 676.5,-129 676.5,-110 830.5,-110 830.5,-129"/>
<text text-anchor="middle" x="753.5" y="-117" font-family="Helvetica,sans-Serif" font-size="10.00">render/RenderScheduler.hpp</text>
</a>
</g>
</g>
<!-- Node1&#45;&gt;Node13 -->
<g id="edge35_Node000001_Node000013" class="edge">
<title>Node1&#45;&gt;Node13</title>
<g id="a_edge35_Node000001_Node000013"><a xlink:title=" ">
<path fill="none" stroke="#63b8ff" d="M749.3,-274.85C732.52,-267.08 715.13,-255.55 705.5,-239 685.51,-204.66 716.95,-160.4 737.67,-136.89"/>
<polygon fill="#63b8ff" stroke="#63b8ff" points="740.52,-138.95 744.7,-129.22 735.36,-134.22 740.52,-138.95"/>
</a>
</g>
</g>
<!-- Node17 -->
<g id="Node000017" class="node">
<title>Node17</title>
<g id="a_Node000017"><a xlink:title=" ">
<polygon fill="#e0e0e0" stroke="#999999" points="872,-239 715,-239 715,-220 872,-220 872,-239"/>
<text text-anchor="middle" x="793.5" y="-227" font-family="Helvetica,sans-Serif" font-size="10.00">QVTKOpenGLNativeWidget.h</text>
</a>
</g>
</g>
<!-- Node1&#45;&gt;Node17 -->
<g id="edge26_Node000001_Node000017" class="edge">
<title>Node1&#45;&gt;Node17</title>
<g id="a_edge26_Node000001_Node000017"><a xlink:title=" ">
<path fill="none" stroke="#63b8ff" d="M793.5,-274.84C793.5,-267.21 793.5,-257.7 793.5,-249.45"/>
<polygon fill="#63b8ff" stroke="#63b8ff" points="797,-249.27 793.5,-239.27 790,-249.27 797,-249.27"/>
</a>
</g>
</g>
<!-- Node18 -->
<g id="Node000018" class="node">
<title>Node18</title>
<g id="a_Node000018"><a xlink:title=" ">
<polygon fill="#e0e0e0" stroke="#999999" points="1080.5,-239 890.5,-239 890.5,-220 1080.5,-220 1080.5,-239"/>
<text text-anchor="middle" x="985.5" y="-227" font-family="Helvetica,sans-Serif" font-size="10.00">vtkGenericOpenGLRenderWindow.h</text>
</a>
</g>
</g>
<!-- Node1&#45;&gt;Node18 -->
<g id="edge27_Node000001_Node000018" class="edge">
<title>Node1&#45;&gt;Node18</title>
<g id="a_edge27_Node000001_Node000018"><a xlink:title=" ">
<path fill="none" stroke="#63b8ff" d="M839.49,-274.99C872.62,-264.89 916.79,-251.44 947.84,-241.98"/>
<polygon fill="#63b8ff" stroke="#63b8ff" points="948.88,-245.32 957.43,-239.05 946.84,-238.62 948.88,-245.32"/>
</a>
</g>
</g>
<!-- Node19 -->
<g id="Node000019" class="node">
<title>Node19</title>
<g id="a_Node000019"><a xlink:title=" ">
<polygon fill="#e0e0e0" stroke="#999999" points="1260,-239 1099,-239 1099,-220 1260,-220 1260,-239"/>
<text text-anchor="middle" x="1179.5" y="-227" font-family="Helvetica,sans-Serif" font-size="10.00">vtkRenderWindowInteractor.h</text>
</a>
</g>
</g>
<!-- Node1&#45;&gt;Node19 -->
<g id="edge29_Node000001_Node000019" class="edge">
<title>Node1&#45;&gt;Node19</title>
<g id="a_edge29_Node000001_Node000019"><a xlink:title=" ">
<path fill="none" stroke="#63b8ff" d="M869.3,-277.51C940.31,-266.75 1045.37,-250.83 1113.14,-240.56"/>
<polygon fill="#63b8ff" stroke="#63b8ff" points="1113.91,-243.98 1123.27,-239.02 1112.86,-237.06 1113.91,-243.98"/>
</a>
</g>
</g>
<!-- Node20 -->
<g id="Node000020" class="node">
<title>Node20</title>
<g id="a_Node000020"><a xlink:title=" ">
<polygon fill="#e0e0e0" stroke="#999999" points="1412.5,-239 1278.5,-239 1278.5,-220 1412.5,-220 1412.5,-239"/>
<text text-anchor="middle" x="1345.5" y="-227" font-family="Helvetica,sans-Serif" font-size="10.00">vtkRendererCollection.h</text>
</a>
</g>
</g>
<!-- Node1&#45;&gt;Node20 -->
<g id="edge30_Node000001_Node000020" class="edge">
<title>Node1&#45;&gt;Node20</title>
<g id="a_edge30_Node000001_Node000020"><a xlink:title=" ">
<path fill="none" stroke="#63b8ff" d="M869.36,-281.19C961.2,-271.7 1120.87,-255.09 1268.23,-239.13"/>
<polygon fill="#63b8ff" stroke="#63b8ff" points="1268.8,-242.59 1278.37,-238.03 1268.05,-235.63 1268.8,-242.59"/>
</a>
</g>
</g>
<!-- Node21 -->
<g id="Node000021" class="node">
<title>Node21</title>
<g id="a_Node000021"><a xlink:title=" ">
<polygon fill="#e0e0e0" stroke="#999999" points="1570.5,-239 1430.5,-239 1430.5,-220 1570.5,-220 1570.5,-239"/>
<text text-anchor="middle" x="1500.5" y="-227" font-family="Helvetica,sans-Serif" font-size="10.00">vtkResliceImageViewer.h</text>
</a>
</g>
</g>
<!-- Node1&#45;&gt;Node21 -->
<g id="edge31_Node000001_Node000021" class="edge">
<title>Node1&#45;&gt;Node21</title>
<g id="a_edge31_Node000001_Node000021"><a xlink:title=" ">
<path fill="none" stroke="#63b8ff" d="M869.44,-283.64C985.68,-275.28 1214.95,-258.19 1420.23,-239.1"/>
<polygon fill="#63b8ff" stroke="#63b8ff" points="1420.67,-242.57 1430.3,-238.16 1420.02,-235.6 1420.67,-242.57"/>
</a>
</g>
</g>
<!-- Node22 -->
<g id="Node000022" class="node">
<title>Node22</title>
<g id="a_Node000022"><a xlink:title=" ">
<polygon fill="#e0e0e0" stroke="#999999" points="1642,-239 1589,-239 1589,-220 1642,-220 1642,-239"/>
<text text-anchor="middle" x="1615.5" y="-227" font-family="Helvetica,sans-Serif" font-size="10.00">QString</text>
</a>
</g>
</g>
<!-- Node1&#45;&gt;Node22 -->
<g id="edge32_Node000001_Node000022" class="edge">
<title>Node1&#45;&gt;Node22</title>
<g id="a_edge32_Node000001_Node000022"><a xlink:title=" ">
<path fill="none" stroke="#63b8ff" d="M869.27,-288.41C1008.19,-286.4 1312.98,-277.71 1578.63,-238.83"/>
<polygon fill="#63b8ff" stroke="#63b8ff" points="1579.48,-242.24 1588.86,-237.32 1578.46,-235.32 1579.48,-242.24"/>
</a>
</g>
</g>
<!-- Node3 -->
<g id="Node000003" class="node">
<title>Node3</title>
<g id="a_Node000003"><a xlink:href="IViewController_8hpp.html" target="_top" xlink:title=" ">
<polygon fill="white" stroke="#666666" points="541,-184 374,-184 374,-165 541,-165 541,-184"/>
<text text-anchor="middle" x="457.5" y="-172" font-family="Helvetica,sans-Serif" font-size="10.00">controllers/IViewController.hpp</text>
</a>
</g>
</g>
<!-- Node2&#45;&gt;Node3 -->
<g id="edge2_Node000002_Node000003" class="edge">
<title>Node2&#45;&gt;Node3</title>
<g id="a_edge2_Node000002_Node000003"><a xlink:title=" ">
<path fill="none" stroke="#63b8ff" d="M462.51,-219.75C461.72,-212.8 460.6,-202.85 459.61,-194.13"/>
<polygon fill="#63b8ff" stroke="#63b8ff" points="463.08,-193.63 458.47,-184.09 456.12,-194.42 463.08,-193.63"/>
</a>
</g>
</g>
<!-- Node3&#45;&gt;Node4 -->
<g id="edge3_Node000003_Node000004" class="edge">
<title>Node3&#45;&gt;Node4</title>
<g id="a_edge3_Node000003_Node000004"><a xlink:title=" ">
<path fill="none" stroke="#63b8ff" d="M389.46,-164.98C319.29,-156.16 206.71,-141.88 109.5,-129 108.2,-128.83 106.88,-128.65 105.55,-128.47"/>
<polygon fill="#63b8ff" stroke="#63b8ff" points="105.6,-124.95 95.22,-127.09 104.67,-131.89 105.6,-124.95"/>
</a>
</g>
</g>
<!-- Node5 -->
<g id="Node000005" class="node">
<title>Node5</title>
<g id="a_Node000005"><a xlink:title=" ">
<polygon fill="#e0e0e0" stroke="#999999" points="204.5,-74 100.5,-74 100.5,-55 204.5,-55 204.5,-74"/>
<text text-anchor="middle" x="152.5" y="-62" font-family="Helvetica,sans-Serif" font-size="10.00">vtkSmartPointer.h</text>
</a>
</g>
</g>
<!-- Node3&#45;&gt;Node5 -->
<g id="edge4_Node000003_Node000005" class="edge">
<title>Node3&#45;&gt;Node5</title>
<g id="a_edge4_Node000003_Node000005"><a xlink:title=" ">
<path fill="none" stroke="#63b8ff" d="M373.82,-170.36C300.09,-165.88 199.96,-155.06 170.5,-129 158.04,-117.98 153.92,-99.03 152.69,-84.7"/>
<polygon fill="#63b8ff" stroke="#63b8ff" points="156.18,-84.26 152.22,-74.43 149.18,-84.58 156.18,-84.26"/>
</a>
</g>
</g>
<!-- Node6 -->
<g id="Node000006" class="node">
<title>Node6</title>
<g id="a_Node000006"><a xlink:title=" ">
<polygon fill="#e0e0e0" stroke="#999999" points="639.5,-74 581.5,-74 581.5,-55 639.5,-55 639.5,-74"/>
<text text-anchor="middle" x="610.5" y="-62" font-family="Helvetica,sans-Serif" font-size="10.00">memory</text>
</a>
</g>
</g>
<!-- Node3&#45;&gt;Node6 -->
<g id="edge5_Node000003_Node000006" class="edge">
<title>Node3&#45;&gt;Node6</title>
<g id="a_edge5_Node000003_Node000006"><a xlink:title=" ">
<path fill="none" stroke="#63b8ff" d="M493.89,-164.94C517.09,-158.11 546.77,-146.71 568.5,-129 583.67,-116.64 595.34,-97.33 602.49,-83.25"/>
<polygon fill="#63b8ff" stroke="#63b8ff" points="605.71,-84.63 606.88,-74.1 599.4,-81.6 605.71,-84.63"/>
</a>
</g>
</g>
<!-- Node7 -->
<g id="Node000007" class="node">
<title>Node7</title>
<g id="a_Node000007"><a xlink:title=" ">
<polygon fill="#e0e0e0" stroke="#999999" points="554,-74 507,-74 507,-55 554,-55 554,-74"/>
<text text-anchor="middle" x="530.5" y="-62" font-family="Helvetica,sans-Serif" font-size="10.00">vector</text>
</a>
</g>
</g>
<!-- Node3&#45;&gt;Node7 -->
<g id="edge6_Node000003_Node000007" class="edge">
<title>Node3&#45;&gt;Node7</title>
<g id="a_edge6_Node000003_Node000007"><a xlink:title=" ">
<path fill="none" stroke="#63b8ff" d="M499.03,-164.94C518.81,-158.55 540.68,-147.6 552.5,-129 561.66,-114.6 553.17,-95.93 544.21,-82.57"/>
<polygon fill="#63b8ff" stroke="#63b8ff" points="546.88,-80.28 538.15,-74.28 541.23,-84.42 546.88,-80.28"/>
</a>
</g>
</g>
<!-- Node8 -->
<g id="Node000008" class="node">
<title>Node8</title>
<g id="a_Node000008"><a xlink:href="IControllerBase_8hpp.html" target="_top" xlink:title=" ">
<polygon fill="white" stroke="#666666" points="390,-74 223,-74 223,-55 390,-55 390,-74"/>
<text text-anchor="middle" x="306.5" y="-62" font-family="Helvetica,sans-Serif" font-size="10.00">controllers/IControllerBase.hpp</text>
</a>
</g>
</g>
<!-- Node3&#45;&gt;Node8 -->
<g id="edge7_Node000003_Node000008" class="edge">
<title>Node3&#45;&gt;Node8</title>
<g id="a_edge7_Node000003_Node000008"><a xlink:title=" ">
<path fill="none" stroke="#63b8ff" d="M373.95,-171.62C301.68,-168.02 205.02,-157.78 180.5,-129 157.85,-102.42 199.51,-85.75 240.87,-76.2"/>
<polygon fill="#63b8ff" stroke="#63b8ff" points="241.75,-79.59 250.78,-74.03 240.26,-72.75 241.75,-79.59"/>
</a>
</g>
</g>
<!-- Node10 -->
<g id="Node000010" class="node">
<title>Node10</title>
<g id="a_Node000010"><a xlink:href="SliceController_8hpp.html" target="_top" xlink:title=" ">
<polygon fill="white" stroke="#666666" points="353,-129 190,-129 190,-110 353,-110 353,-129"/>
<text text-anchor="middle" x="271.5" y="-117" font-family="Helvetica,sans-Serif" font-size="10.00">controllers/SliceController.hpp</text>
</a>
</g>
</g>
<!-- Node3&#45;&gt;Node10 -->
<g id="edge9_Node000003_Node000010" class="edge">
<title>Node3&#45;&gt;Node10</title>
<g id="a_edge9_Node000003_Node000010"><a xlink:title=" ">
<path fill="none" stroke="#63b8ff" d="M427.62,-164.98C396.12,-156.01 346.33,-141.82 311.47,-131.89"/>
<polygon fill="#63b8ff" stroke="#63b8ff" points="312.19,-128.46 301.62,-129.08 310.28,-135.19 312.19,-128.46"/>
</a>
</g>
</g>
<!-- Node3&#45;&gt;Node12 -->
<g id="edge14_Node000003_Node000012" class="edge">
<title>Node3&#45;&gt;Node12</title>
<g id="a_edge14_Node000003_Node000012"><a xlink:title=" ">
<path fill="none" stroke="#63b8ff" d="M457.5,-164.75C457.5,-157.8 457.5,-147.85 457.5,-139.13"/>
<polygon fill="#63b8ff" stroke="#63b8ff" points="461,-139.09 457.5,-129.09 454,-139.09 461,-139.09"/>
</a>
</g>
</g>
<!-- Node3&#45;&gt;Node13 -->
<g id="edge19_Node000003_Node000013" class="edge">
<title>Node3&#45;&gt;Node13</title>
<g id="a_edge19_Node000003_Node000013"><a xlink:title=" ">
<path fill="none" stroke="#63b8ff" d="M505.06,-164.98C556.9,-155.7 639.89,-140.84 695.51,-130.88"/>
<polygon fill="#63b8ff" stroke="#63b8ff" points="696.34,-134.29 705.57,-129.08 695.11,-127.4 696.34,-134.29"/>
</a>
</g>
</g>
<!-- Node9 -->
<g id="Node000009" class="node">
<title>Node9</title>
<g id="a_Node000009"><a xlink:title=" ">
<polygon fill="#e0e0e0" stroke="#999999" points="334.5,-19 278.5,-19 278.5,0 334.5,0 334.5,-19"/>
<text text-anchor="middle" x="306.5" y="-7" font-family="Helvetica,sans-Serif" font-size="10.00">QObject</text>
</a>
</g>
</g>
<!-- Node8&#45;&gt;Node9 -->
<g id="edge8_Node000008_Node000009" class="edge">
<title>Node8&#45;&gt;Node9</title>
<g id="a_edge8_Node000008_Node000009"><a xlink:title=" ">
<path fill="none" stroke="#63b8ff" d="M306.5,-54.75C306.5,-47.8 306.5,-37.85 306.5,-29.13"/>
<polygon fill="#63b8ff" stroke="#63b8ff" points="310,-29.09 306.5,-19.09 303,-29.09 310,-29.09"/>
</a>
</g>
</g>
<!-- Node10&#45;&gt;Node5 -->
<g id="edge10_Node000010_Node000005" class="edge">
<title>Node10&#45;&gt;Node5</title>
<g id="a_edge10_Node000010_Node000005"><a xlink:title=" ">
<path fill="none" stroke="#63b8ff" d="M252.38,-109.98C233.15,-101.42 203.27,-88.11 181.19,-78.28"/>
<polygon fill="#63b8ff" stroke="#63b8ff" points="182.53,-75.04 171.97,-74.17 179.68,-81.44 182.53,-75.04"/>
</a>
</g>
</g>
<!-- Node10&#45;&gt;Node7 -->
<g id="edge12_Node000010_Node000007" class="edge">
<title>Node10&#45;&gt;Node7</title>
<g id="a_edge12_Node000010_Node000007"><a xlink:title=" ">
<path fill="none" stroke="#63b8ff" d="M313.11,-109.98C364.16,-99.54 449.71,-82.03 496.83,-72.39"/>
<polygon fill="#63b8ff" stroke="#63b8ff" points="497.73,-75.78 506.83,-70.34 496.33,-68.92 497.73,-75.78"/>
</a>
</g>
</g>
<!-- Node10&#45;&gt;Node8 -->
<g id="edge13_Node000010_Node000008" class="edge">
<title>Node10&#45;&gt;Node8</title>
<g id="a_edge13_Node000010_Node000008"><a xlink:title=" ">
<path fill="none" stroke="#63b8ff" d="M277.28,-109.75C282.12,-102.42 289.18,-91.73 295.14,-82.7"/>
<polygon fill="#63b8ff" stroke="#63b8ff" points="298.24,-84.36 300.83,-74.09 292.4,-80.5 298.24,-84.36"/>
</a>
</g>
</g>
<!-- Node10&#45;&gt;Node11 -->
<g id="edge11_Node000010_Node000011" class="edge">
<title>Node10&#45;&gt;Node11</title>
<g id="a_edge11_Node000010_Node000011"><a xlink:title=" ">
<path fill="none" stroke="#63b8ff" d="M301.38,-109.98C335.78,-100.18 391.98,-84.17 426.74,-74.26"/>
<polygon fill="#63b8ff" stroke="#63b8ff" points="427.71,-77.63 436.37,-71.52 425.79,-70.9 427.71,-77.63"/>
</a>
</g>
</g>
<!-- Node12&#45;&gt;Node5 -->
<g id="edge15_Node000012_Node000005" class="edge">
<title>Node12&#45;&gt;Node5</title>
<g id="a_edge15_Node000012_Node000005"><a xlink:title=" ">
<path fill="none" stroke="#63b8ff" d="M408.5,-109.98C354.88,-100.67 268.96,-85.74 211.64,-75.78"/>
<polygon fill="#63b8ff" stroke="#63b8ff" points="212.09,-72.3 201.63,-74.04 210.89,-79.2 212.09,-72.3"/>
</a>
</g>
</g>
<!-- Node12&#45;&gt;Node7 -->
<g id="edge17_Node000012_Node000007" class="edge">
<title>Node12&#45;&gt;Node7</title>
<g id="a_edge17_Node000012_Node000007"><a xlink:title=" ">
<path fill="none" stroke="#63b8ff" d="M469.23,-109.98C480.23,-102 496.92,-89.88 510.1,-80.31"/>
<polygon fill="#63b8ff" stroke="#63b8ff" points="512.52,-82.88 518.56,-74.17 508.41,-77.21 512.52,-82.88"/>
</a>
</g>
</g>
<!-- Node12&#45;&gt;Node8 -->
<g id="edge18_Node000012_Node000008" class="edge">
<title>Node12&#45;&gt;Node8</title>
<g id="a_edge18_Node000012_Node000008"><a xlink:title=" ">
<path fill="none" stroke="#63b8ff" d="M433.24,-109.98C408.18,-101.19 368.87,-87.39 340.67,-77.49"/>
<polygon fill="#63b8ff" stroke="#63b8ff" points="341.8,-74.18 331.2,-74.17 339.48,-80.78 341.8,-74.18"/>
</a>
</g>
</g>
<!-- Node12&#45;&gt;Node11 -->
<g id="edge16_Node000012_Node000011" class="edge">
<title>Node12&#45;&gt;Node11</title>
<g id="a_edge16_Node000012_Node000011"><a xlink:title=" ">
<path fill="none" stroke="#63b8ff" d="M457.5,-109.75C457.5,-102.8 457.5,-92.85 457.5,-84.13"/>
<polygon fill="#63b8ff" stroke="#63b8ff" points="461,-84.09 457.5,-74.09 454,-84.09 461,-84.09"/>
</a>
</g>
</g>
<!-- Node13&#45;&gt;Node6 -->
<g id="edge21_Node000013_Node000006" class="edge">
<title>Node13&#45;&gt;Node6</title>
<g id="a_edge21_Node000013_Node000006"><a xlink:title=" ">
<path fill="none" stroke="#63b8ff" d="M730.52,-109.98C707,-101.27 670.21,-87.63 643.56,-77.75"/>
<polygon fill="#63b8ff" stroke="#63b8ff" points="644.49,-74.36 633.89,-74.17 642.05,-80.93 644.49,-74.36"/>
</a>
</g>
</g>
<!-- Node13&#45;&gt;Node7 -->
<g id="edge23_Node000013_Node000007" class="edge">
<title>Node13&#45;&gt;Node7</title>
<g id="a_edge23_Node000013_Node000007"><a xlink:title=" ">
<path fill="none" stroke="#63b8ff" d="M717.67,-109.98C675.34,-99.92 605.44,-83.31 564.1,-73.49"/>
<polygon fill="#63b8ff" stroke="#63b8ff" points="564.78,-70.05 554.24,-71.14 563.16,-76.86 564.78,-70.05"/>
</a>
</g>
</g>
<!-- Node14 -->
<g id="Node000014" class="node">
<title>Node14</title>
<g id="a_Node000014"><a xlink:title=" ">
<polygon fill="#e0e0e0" stroke="#999999" points="741,-19 688,-19 688,0 741,0 741,-19"/>
<text text-anchor="middle" x="714.5" y="-7" font-family="Helvetica,sans-Serif" font-size="10.00">cstddef</text>
</a>
</g>
</g>
<!-- Node13&#45;&gt;Node14 -->
<g id="edge20_Node000013_Node000014" class="edge">
<title>Node13&#45;&gt;Node14</title>
<g id="a_edge20_Node000013_Node000014"><a xlink:title=" ">
<path fill="none" stroke="#63b8ff" d="M730.39,-109.98C714.91,-102.92 695.74,-91.23 686.5,-74 678.19,-58.5 688.46,-40.02 698.83,-27.01"/>
<polygon fill="#63b8ff" stroke="#63b8ff" points="701.58,-29.18 705.46,-19.33 696.28,-24.61 701.58,-29.18"/>
</a>
</g>
</g>
<!-- Node15 -->
<g id="Node000015" class="node">
<title>Node15</title>
<g id="a_Node000015"><a xlink:title=" ">
<polygon fill="#e0e0e0" stroke="#999999" points="933.5,-74 847.5,-74 847.5,-55 933.5,-55 933.5,-74"/>
<text text-anchor="middle" x="890.5" y="-62" font-family="Helvetica,sans-Serif" font-size="10.00">unordered_set</text>
</a>
</g>
</g>
<!-- Node13&#45;&gt;Node15 -->
<g id="edge22_Node000013_Node000015" class="edge">
<title>Node13&#45;&gt;Node15</title>
<g id="a_edge22_Node000013_Node000015"><a xlink:title=" ">
<path fill="none" stroke="#63b8ff" d="M775.51,-109.98C797.95,-101.3 832.98,-87.75 858.49,-77.88"/>
<polygon fill="#63b8ff" stroke="#63b8ff" points="860.02,-81.04 868.09,-74.17 857.5,-74.51 860.02,-81.04"/>
</a>
</g>
</g>
<!-- Node16 -->
<g id="Node000016" class="node">
<title>Node16</title>
<g id="a_Node000016"><a xlink:href="RenderTypes_8hpp.html" target="_top" xlink:title=" ">
<polygon fill="white" stroke="#666666" points="829.5,-74 695.5,-74 695.5,-55 829.5,-55 829.5,-74"/>
<text text-anchor="middle" x="762.5" y="-62" font-family="Helvetica,sans-Serif" font-size="10.00">render/RenderTypes.hpp</text>
</a>
</g>
</g>
<!-- Node13&#45;&gt;Node16 -->
<g id="edge24_Node000013_Node000016" class="edge">
<title>Node13&#45;&gt;Node16</title>
<g id="a_edge24_Node000013_Node000016"><a xlink:title=" ">
<path fill="none" stroke="#63b8ff" d="M754.99,-109.75C756.17,-102.8 757.86,-92.85 759.34,-84.13"/>
<polygon fill="#63b8ff" stroke="#63b8ff" points="762.82,-84.53 761.04,-74.09 755.92,-83.36 762.82,-84.53"/>
</a>
</g>
</g>
<!-- Node16&#45;&gt;Node14 -->
<g id="edge25_Node000016_Node000014" class="edge">
<title>Node16&#45;&gt;Node14</title>
<g id="a_edge25_Node000016_Node000014"><a xlink:title=" ">
<path fill="none" stroke="#63b8ff" d="M754.57,-54.75C747.65,-47.11 737.43,-35.82 729.05,-26.56"/>
<polygon fill="#63b8ff" stroke="#63b8ff" points="731.59,-24.15 722.28,-19.09 726.4,-28.85 731.59,-24.15"/>
</a>
</g>
</g>
</g>
</svg>
