<?xml version="1.0" encoding="UTF-8" standalone="no"?>
<!DOCTYPE svg PUBLIC "-//W3C//DTD SVG 1.1//EN"
 "http://www.w3.org/Graphics/SVG/1.1/DTD/svg11.dtd">
<!-- Generated by graphviz version 2.43.0 (0)
 -->
<!-- Title: src/ui/include/ui/MultiWindowView.hpp Pages: 1 -->
<svg width="342pt" height="93pt"
 viewBox="0.00 0.00 342.00 93.00" xmlns="http://www.w3.org/2000/svg" xmlns:xlink="http://www.w3.org/1999/xlink">
<g id="graph0" class="graph" transform="scale(1 1) rotate(0) translate(4 89)">
<title>src/ui/include/ui/MultiWindowView.hpp</title>
<!-- Node1 -->
<g id="Node000001" class="node">
<title>Node1</title>
<g id="a_Node000001"><a xlink:title=" ">
<polygon fill="#999999" stroke="#666666" points="241,-85 81,-85 81,-55 241,-55 241,-85"/>
<text text-anchor="start" x="89" y="-73" font-family="Helvetica,sans-Serif" font-size="10.00">src/ui/include/ui/MultiWindow</text>
<text text-anchor="middle" x="161" y="-62" font-family="Helvetica,sans-Serif" font-size="10.00">View.hpp</text>
</a>
</g>
</g>
<!-- Node2 -->
<g id="Node000002" class="node">
<title>Node2</title>
<g id="a_Node000002"><a xlink:href="MainWindow_8cpp.html" target="_top" xlink:title=" ">
<polygon fill="white" stroke="#666666" points="146,-19 0,-19 0,0 146,0 146,-19"/>
<text text-anchor="middle" x="73" y="-7" font-family="Helvetica,sans-Serif" font-size="10.00">src/ui/src/MainWindow.cpp</text>
</a>
</g>
</g>
<!-- Node1&#45;&gt;Node2 -->
<g id="edge1_Node000001_Node000002" class="edge">
<title>Node1&#45;&gt;Node2</title>
<g id="a_edge1_Node000001_Node000002"><a xlink:title=" ">
<path fill="none" stroke="#63b8ff" d="M131.01,-49.06C115.65,-38.85 97.74,-26.95 85.93,-19.09"/>
<polygon fill="#63b8ff" stroke="#63b8ff" points="129.43,-52.22 139.7,-54.84 133.31,-46.39 129.43,-52.22"/>
</a>
</g>
</g>
<!-- Node3 -->
<g id="Node000003" class="node">
<title>Node3</title>
<g id="a_Node000003"><a xlink:href="MultiWindowView_8cpp.html" target="_top" xlink:title=" ">
<polygon fill="white" stroke="#666666" points="334,-19 164,-19 164,0 334,0 334,-19"/>
<text text-anchor="middle" x="249" y="-7" font-family="Helvetica,sans-Serif" font-size="10.00">src/ui/src/MultiWindowView.cpp</text>
</a>
</g>
</g>
<!-- Node1&#45;&gt;Node3 -->
<g id="edge2_Node000001_Node000003" class="edge">
<title>Node1&#45;&gt;Node3</title>
<g id="a_edge2_Node000001_Node000003"><a xlink:title=" ">
<path fill="none" stroke="#63b8ff" d="M190.99,-49.06C206.35,-38.85 224.26,-26.95 236.07,-19.09"/>
<polygon fill="#63b8ff" stroke="#63b8ff" points="188.69,-46.39 182.3,-54.84 192.57,-52.22 188.69,-46.39"/>
</a>
</g>
</g>
</g>
</svg>
