<?xml version="1.0" encoding="UTF-8" standalone="no"?>
<!DOCTYPE svg PUBLIC "-//W3C//DTD SVG 1.1//EN"
 "http://www.w3.org/Graphics/SVG/1.1/DTD/svg11.dtd">
<!-- Generated by graphviz version 2.43.0 (0)
 -->
<!-- Title: src/overlays/src/OrientationMarkerOverlay.cpp Pages: 1 -->
<svg width="807pt" height="214pt"
 viewBox="0.00 0.00 807.00 214.00" xmlns="http://www.w3.org/2000/svg" xmlns:xlink="http://www.w3.org/1999/xlink">
<g id="graph0" class="graph" transform="scale(1 1) rotate(0) translate(4 210)">
<title>src/overlays/src/OrientationMarkerOverlay.cpp</title>
<!-- Node1 -->
<g id="Node000001" class="node">
<title>Node1</title>
<g id="a_Node000001"><a xlink:title=" ">
<polygon fill="#999999" stroke="#666666" points="612.5,-206 461.5,-206 461.5,-176 612.5,-176 612.5,-206"/>
<text text-anchor="start" x="469.5" y="-194" font-family="Helvetica,sans-Serif" font-size="10.00">src/overlays/src/Orientation</text>
<text text-anchor="middle" x="537" y="-183" font-family="Helvetica,sans-Serif" font-size="10.00">MarkerOverlay.cpp</text>
</a>
</g>
</g>
<!-- Node2 -->
<g id="Node000002" class="node">
<title>Node2</title>
<g id="a_Node000002"><a xlink:href="OrientationMarkerOverlay_8hpp.html" target="_top" xlink:title=" ">
<polygon fill="white" stroke="#666666" points="281,-140 131,-140 131,-110 281,-110 281,-140"/>
<text text-anchor="start" x="139" y="-128" font-family="Helvetica,sans-Serif" font-size="10.00">overlays/OrientationMarker</text>
<text text-anchor="middle" x="206" y="-117" font-family="Helvetica,sans-Serif" font-size="10.00">Overlay.hpp</text>
</a>
</g>
</g>
<!-- Node1&#45;&gt;Node2 -->
<g id="edge1_Node000001_Node000002" class="edge">
<title>Node1&#45;&gt;Node2</title>
<g id="a_edge1_Node000001_Node000002"><a xlink:title=" ">
<path fill="none" stroke="#63b8ff" d="M464.36,-175.95C412.41,-165.91 342.4,-152.37 288.37,-141.93"/>
<polygon fill="#63b8ff" stroke="#63b8ff" points="288.95,-138.47 278.47,-140.01 287.62,-145.35 288.95,-138.47"/>
</a>
</g>
</g>
<!-- Node10 -->
<g id="Node000010" class="node">
<title>Node10</title>
<g id="a_Node000010"><a xlink:title=" ">
<polygon fill="#e0e0e0" stroke="#999999" points="456.5,-134.5 299.5,-134.5 299.5,-115.5 456.5,-115.5 456.5,-134.5"/>
<text text-anchor="middle" x="378" y="-122.5" font-family="Helvetica,sans-Serif" font-size="10.00">QVTKOpenGLNativeWidget.h</text>
</a>
</g>
</g>
<!-- Node1&#45;&gt;Node10 -->
<g id="edge10_Node000001_Node000010" class="edge">
<title>Node1&#45;&gt;Node10</title>
<g id="a_edge10_Node000001_Node000010"><a xlink:title=" ">
<path fill="none" stroke="#63b8ff" d="M502.11,-175.95C474.22,-164.73 435.51,-149.15 408.77,-138.39"/>
<polygon fill="#63b8ff" stroke="#63b8ff" points="409.74,-135 399.16,-134.52 407.13,-141.5 409.74,-135"/>
</a>
</g>
</g>
<!-- Node11 -->
<g id="Node000011" class="node">
<title>Node11</title>
<g id="a_Node000011"><a xlink:title=" ">
<polygon fill="#e0e0e0" stroke="#999999" points="527,-134.5 475,-134.5 475,-115.5 527,-115.5 527,-134.5"/>
<text text-anchor="middle" x="501" y="-122.5" font-family="Helvetica,sans-Serif" font-size="10.00">QEvent</text>
</a>
</g>
</g>
<!-- Node1&#45;&gt;Node11 -->
<g id="edge11_Node000001_Node000011" class="edge">
<title>Node1&#45;&gt;Node11</title>
<g id="a_edge11_Node000001_Node000011"><a xlink:title=" ">
<path fill="none" stroke="#63b8ff" d="M529.01,-175.8C523.67,-166.31 516.61,-153.76 510.92,-143.63"/>
<polygon fill="#63b8ff" stroke="#63b8ff" points="513.93,-141.84 505.97,-134.84 507.83,-145.28 513.93,-141.84"/>
</a>
</g>
</g>
<!-- Node12 -->
<g id="Node000012" class="node">
<title>Node12</title>
<g id="a_Node000012"><a xlink:title=" ">
<polygon fill="#e0e0e0" stroke="#999999" points="603,-134.5 545,-134.5 545,-115.5 603,-115.5 603,-134.5"/>
<text text-anchor="middle" x="574" y="-122.5" font-family="Helvetica,sans-Serif" font-size="10.00">QPainter</text>
</a>
</g>
</g>
<!-- Node1&#45;&gt;Node12 -->
<g id="edge12_Node000001_Node000012" class="edge">
<title>Node1&#45;&gt;Node12</title>
<g id="a_edge12_Node000001_Node000012"><a xlink:title=" ">
<path fill="none" stroke="#63b8ff" d="M545.21,-175.8C550.7,-166.31 557.95,-153.76 563.81,-143.63"/>
<polygon fill="#63b8ff" stroke="#63b8ff" points="566.91,-145.25 568.89,-134.84 560.85,-141.75 566.91,-145.25"/>
</a>
</g>
</g>
<!-- Node13 -->
<g id="Node000013" class="node">
<title>Node13</title>
<g id="a_Node000013"><a xlink:title=" ">
<polygon fill="#e0e0e0" stroke="#999999" points="697,-134.5 621,-134.5 621,-115.5 697,-115.5 697,-134.5"/>
<text text-anchor="middle" x="659" y="-122.5" font-family="Helvetica,sans-Serif" font-size="10.00">QPaintEvent</text>
</a>
</g>
</g>
<!-- Node1&#45;&gt;Node13 -->
<g id="edge13_Node000001_Node000013" class="edge">
<title>Node1&#45;&gt;Node13</title>
<g id="a_edge13_Node000001_Node000013"><a xlink:title=" ">
<path fill="none" stroke="#63b8ff" d="M563.77,-175.95C584.6,-165.03 613.31,-149.97 633.74,-139.25"/>
<polygon fill="#63b8ff" stroke="#63b8ff" points="635.53,-142.26 642.76,-134.52 632.28,-136.06 635.53,-142.26"/>
</a>
</g>
</g>
<!-- Node14 -->
<g id="Node000014" class="node">
<title>Node14</title>
<g id="a_Node000014"><a xlink:title=" ">
<polygon fill="#e0e0e0" stroke="#999999" points="799,-134.5 715,-134.5 715,-115.5 799,-115.5 799,-134.5"/>
<text text-anchor="middle" x="757" y="-122.5" font-family="Helvetica,sans-Serif" font-size="10.00">QResizeEvent</text>
</a>
</g>
</g>
<!-- Node1&#45;&gt;Node14 -->
<g id="edge14_Node000001_Node000014" class="edge">
<title>Node1&#45;&gt;Node14</title>
<g id="a_edge14_Node000001_Node000014"><a xlink:title=" ">
<path fill="none" stroke="#63b8ff" d="M585.28,-175.95C625.05,-164.38 680.74,-148.18 717.79,-137.41"/>
<polygon fill="#63b8ff" stroke="#63b8ff" points="719.1,-140.67 727.72,-134.52 717.14,-133.95 719.1,-140.67"/>
</a>
</g>
</g>
<!-- Node3 -->
<g id="Node000003" class="node">
<title>Node3</title>
<g id="a_Node000003"><a xlink:title=" ">
<polygon fill="#e0e0e0" stroke="#999999" points="50,-74 0,-74 0,-55 50,-55 50,-74"/>
<text text-anchor="middle" x="25" y="-62" font-family="Helvetica,sans-Serif" font-size="10.00">QColor</text>
</a>
</g>
</g>
<!-- Node2&#45;&gt;Node3 -->
<g id="edge2_Node000002_Node000003" class="edge">
<title>Node2&#45;&gt;Node3</title>
<g id="a_edge2_Node000002_Node000003"><a xlink:title=" ">
<path fill="none" stroke="#63b8ff" d="M162.65,-109.99C131.21,-99.83 89.25,-86.27 59.95,-76.8"/>
<polygon fill="#63b8ff" stroke="#63b8ff" points="60.75,-73.38 50.16,-73.63 58.59,-80.04 60.75,-73.38"/>
</a>
</g>
</g>
<!-- Node4 -->
<g id="Node000004" class="node">
<title>Node4</title>
<g id="a_Node000004"><a xlink:title=" ">
<polygon fill="#e0e0e0" stroke="#999999" points="113.5,-74 68.5,-74 68.5,-55 113.5,-55 113.5,-74"/>
<text text-anchor="middle" x="91" y="-62" font-family="Helvetica,sans-Serif" font-size="10.00">QFont</text>
</a>
</g>
</g>
<!-- Node2&#45;&gt;Node4 -->
<g id="edge3_Node000002_Node000004" class="edge">
<title>Node2&#45;&gt;Node4</title>
<g id="a_edge3_Node000002_Node000004"><a xlink:title=" ">
<path fill="none" stroke="#63b8ff" d="M178.45,-109.99C159.78,-100.49 135.26,-88.02 116.94,-78.69"/>
<polygon fill="#63b8ff" stroke="#63b8ff" points="118.48,-75.55 107.98,-74.14 115.31,-81.79 118.48,-75.55"/>
</a>
</g>
</g>
<!-- Node5 -->
<g id="Node000005" class="node">
<title>Node5</title>
<g id="a_Node000005"><a xlink:title=" ">
<polygon fill="#e0e0e0" stroke="#999999" points="212.5,-74 131.5,-74 131.5,-55 212.5,-55 212.5,-74"/>
<text text-anchor="middle" x="172" y="-62" font-family="Helvetica,sans-Serif" font-size="10.00">QFontMetrics</text>
</a>
</g>
</g>
<!-- Node2&#45;&gt;Node5 -->
<g id="edge4_Node000002_Node000005" class="edge">
<title>Node2&#45;&gt;Node5</title>
<g id="a_edge4_Node000002_Node000005"><a xlink:title=" ">
<path fill="none" stroke="#63b8ff" d="M197.77,-109.84C193.09,-101.78 187.18,-91.62 182.2,-83.06"/>
<polygon fill="#63b8ff" stroke="#63b8ff" points="185.15,-81.15 177.09,-74.27 179.09,-84.67 185.15,-81.15"/>
</a>
</g>
</g>
<!-- Node6 -->
<g id="Node000006" class="node">
<title>Node6</title>
<g id="a_Node000006"><a xlink:title=" ">
<polygon fill="#e0e0e0" stroke="#999999" points="318.5,-19 265.5,-19 265.5,0 318.5,0 318.5,-19"/>
<text text-anchor="middle" x="292" y="-7" font-family="Helvetica,sans-Serif" font-size="10.00">QString</text>
</a>
</g>
</g>
<!-- Node2&#45;&gt;Node6 -->
<g id="edge5_Node000002_Node000006" class="edge">
<title>Node2&#45;&gt;Node6</title>
<g id="a_edge5_Node000002_Node000006"><a xlink:title=" ">
<path fill="none" stroke="#63b8ff" d="M216.89,-109.63C232.78,-88.65 262.26,-49.75 279.18,-27.42"/>
<polygon fill="#63b8ff" stroke="#63b8ff" points="282.14,-29.31 285.39,-19.23 276.56,-25.09 282.14,-29.31"/>
</a>
</g>
</g>
<!-- Node7 -->
<g id="Node000007" class="node">
<title>Node7</title>
<g id="a_Node000007"><a xlink:title=" ">
<polygon fill="#e0e0e0" stroke="#999999" points="328.5,-74 269.5,-74 269.5,-55 328.5,-55 328.5,-74"/>
<text text-anchor="middle" x="299" y="-62" font-family="Helvetica,sans-Serif" font-size="10.00">QWidget</text>
</a>
</g>
</g>
<!-- Node2&#45;&gt;Node7 -->
<g id="edge6_Node000002_Node000007" class="edge">
<title>Node2&#45;&gt;Node7</title>
<g id="a_edge6_Node000002_Node000007"><a xlink:title=" ">
<path fill="none" stroke="#63b8ff" d="M228.51,-109.84C243.06,-100.68 261.93,-88.82 276.49,-79.66"/>
<polygon fill="#63b8ff" stroke="#63b8ff" points="278.74,-82.38 285.34,-74.09 275.01,-76.46 278.74,-82.38"/>
</a>
</g>
</g>
<!-- Node8 -->
<g id="Node000008" class="node">
<title>Node8</title>
<g id="a_Node000008"><a xlink:href="IOverlay_8hpp.html" target="_top" xlink:title=" ">
<polygon fill="white" stroke="#666666" points="469,-74 347,-74 347,-55 469,-55 469,-74"/>
<text text-anchor="middle" x="408" y="-62" font-family="Helvetica,sans-Serif" font-size="10.00">overlays/IOverlay.hpp</text>
</a>
</g>
</g>
<!-- Node2&#45;&gt;Node8 -->
<g id="edge7_Node000002_Node000008" class="edge">
<title>Node2&#45;&gt;Node8</title>
<g id="a_edge7_Node000002_Node000008"><a xlink:title=" ">
<path fill="none" stroke="#63b8ff" d="M254.38,-109.99C289.4,-99.85 336.11,-86.32 368.8,-76.85"/>
<polygon fill="#63b8ff" stroke="#63b8ff" points="369.83,-80.2 378.46,-74.05 367.89,-73.47 369.83,-80.2"/>
</a>
</g>
</g>
<!-- Node8&#45;&gt;Node6 -->
<g id="edge9_Node000008_Node000006" class="edge">
<title>Node8&#45;&gt;Node6</title>
<g id="a_edge9_Node000008_Node000006"><a xlink:title=" ">
<path fill="none" stroke="#63b8ff" d="M389.36,-54.98C370.7,-46.46 341.75,-33.23 320.26,-23.41"/>
<polygon fill="#63b8ff" stroke="#63b8ff" points="321.53,-20.14 310.98,-19.17 318.62,-26.51 321.53,-20.14"/>
</a>
</g>
</g>
<!-- Node9 -->
<g id="Node000009" class="node">
<title>Node9</title>
<g id="a_Node000009"><a xlink:title=" ">
<polygon fill="#e0e0e0" stroke="#999999" points="428.5,-19 387.5,-19 387.5,0 428.5,0 428.5,-19"/>
<text text-anchor="middle" x="408" y="-7" font-family="Helvetica,sans-Serif" font-size="10.00">QList</text>
</a>
</g>
</g>
<!-- Node8&#45;&gt;Node9 -->
<g id="edge8_Node000008_Node000009" class="edge">
<title>Node8&#45;&gt;Node9</title>
<g id="a_edge8_Node000008_Node000009"><a xlink:title=" ">
<path fill="none" stroke="#63b8ff" d="M408,-54.75C408,-47.8 408,-37.85 408,-29.13"/>
<polygon fill="#63b8ff" stroke="#63b8ff" points="411.5,-29.09 408,-19.09 404.5,-29.09 411.5,-29.09"/>
</a>
</g>
</g>
</g>
</svg>
