<?xml version="1.0" encoding="UTF-8" standalone="no"?>
<!DOCTYPE svg PUBLIC "-//W3C//DTD SVG 1.1//EN"
 "http://www.w3.org/Graphics/SVG/1.1/DTD/svg11.dtd">
<!-- Generated by graphviz version 2.43.0 (0)
 -->
<!-- Title: src/overlays/include/overlays/OrientationMarkerOverlay.hpp Pages: 1 -->
<svg width="1021pt" height="236pt"
 viewBox="0.00 0.00 1020.50 236.00" xmlns="http://www.w3.org/2000/svg" xmlns:xlink="http://www.w3.org/1999/xlink">
<g id="graph0" class="graph" transform="scale(1 1) rotate(0) translate(4 232)">
<title>src/overlays/include/overlays/OrientationMarkerOverlay.hpp</title>
<!-- Node1 -->
<g id="Node000001" class="node">
<title>Node1</title>
<g id="a_Node000001"><a xlink:title=" ">
<polygon fill="#999999" stroke="#666666" points="602,-228 449,-228 449,-187 602,-187 602,-228"/>
<text text-anchor="start" x="457" y="-216" font-family="Helvetica,sans-Serif" font-size="10.00">src/overlays/include</text>
<text text-anchor="start" x="457" y="-205" font-family="Helvetica,sans-Serif" font-size="10.00">/overlays/OrientationMarker</text>
<text text-anchor="middle" x="525.5" y="-194" font-family="Helvetica,sans-Serif" font-size="10.00">Overlay.hpp</text>
</a>
</g>
</g>
<!-- Node2 -->
<g id="Node000002" class="node">
<title>Node2</title>
<g id="a_Node000002"><a xlink:href="OverlayLayoutAdapter_8cpp.html" target="_top" xlink:title=" ">
<polygon fill="white" stroke="#666666" points="135,-151 0,-151 0,-121 135,-121 135,-151"/>
<text text-anchor="start" x="8" y="-139" font-family="Helvetica,sans-Serif" font-size="10.00">src/adapters/src/Overlay</text>
<text text-anchor="middle" x="67.5" y="-128" font-family="Helvetica,sans-Serif" font-size="10.00">LayoutAdapter.cpp</text>
</a>
</g>
</g>
<!-- Node1&#45;&gt;Node2 -->
<g id="edge1_Node000001_Node000002" class="edge">
<title>Node1&#45;&gt;Node2</title>
<g id="a_edge1_Node000001_Node000002"><a xlink:title=" ">
<path fill="none" stroke="#63b8ff" d="M438.7,-194.84C361.18,-184.21 244.6,-167.65 143.5,-151 140.72,-150.54 137.88,-150.07 135.02,-149.58"/>
<polygon fill="#63b8ff" stroke="#63b8ff" points="438.52,-198.35 448.9,-196.24 439.47,-191.42 438.52,-198.35"/>
</a>
</g>
</g>
<!-- Node3 -->
<g id="Node000003" class="node">
<title>Node3</title>
<g id="a_Node000003"><a xlink:href="OrientationMarkerOverlay_8cpp.html" target="_top" xlink:title=" ">
<polygon fill="white" stroke="#666666" points="304,-151 153,-151 153,-121 304,-121 304,-151"/>
<text text-anchor="start" x="161" y="-139" font-family="Helvetica,sans-Serif" font-size="10.00">src/overlays/src/Orientation</text>
<text text-anchor="middle" x="228.5" y="-128" font-family="Helvetica,sans-Serif" font-size="10.00">MarkerOverlay.cpp</text>
</a>
</g>
</g>
<!-- Node1&#45;&gt;Node3 -->
<g id="edge2_Node000001_Node000003" class="edge">
<title>Node1&#45;&gt;Node3</title>
<g id="a_edge2_Node000001_Node000003"><a xlink:title=" ">
<path fill="none" stroke="#63b8ff" d="M438.82,-186.22C390.61,-174.93 331.81,-161.18 288.65,-151.08"/>
<polygon fill="#63b8ff" stroke="#63b8ff" points="438.09,-189.64 448.63,-188.51 439.69,-182.83 438.09,-189.64"/>
</a>
</g>
</g>
<!-- Node4 -->
<g id="Node000004" class="node">
<title>Node4</title>
<g id="a_Node000004"><a xlink:href="ControllerPanelOrientationMarkerItem_8hpp.html" target="_top" xlink:title=" ">
<polygon fill="white" stroke="#666666" points="497,-151 322,-151 322,-121 497,-121 497,-151"/>
<text text-anchor="start" x="330" y="-139" font-family="Helvetica,sans-Serif" font-size="10.00">src/ui/include/ui/Controller</text>
<text text-anchor="middle" x="409.5" y="-128" font-family="Helvetica,sans-Serif" font-size="10.00">PanelOrientationMarkerItem.hpp</text>
</a>
</g>
</g>
<!-- Node1&#45;&gt;Node4 -->
<g id="edge3_Node000001_Node000004" class="edge">
<title>Node1&#45;&gt;Node4</title>
<g id="a_edge3_Node000001_Node000004"><a xlink:title=" ">
<path fill="none" stroke="#63b8ff" d="M484.14,-181.72C466.99,-171.44 447.72,-159.9 433.06,-151.11"/>
<polygon fill="#63b8ff" stroke="#63b8ff" points="482.5,-184.82 492.88,-186.96 486.1,-178.81 482.5,-184.82"/>
</a>
</g>
</g>
<!-- Node7 -->
<g id="Node000007" class="node">
<title>Node7</title>
<g id="a_Node000007"><a xlink:href="IView_8hpp.html" target="_top" xlink:title=" ">
<polygon fill="white" stroke="#666666" points="705,-145.5 562,-145.5 562,-126.5 705,-126.5 705,-145.5"/>
<text text-anchor="middle" x="633.5" y="-133.5" font-family="Helvetica,sans-Serif" font-size="10.00">src/ui/include/ui/IView.hpp</text>
</a>
</g>
</g>
<!-- Node1&#45;&gt;Node7 -->
<g id="edge6_Node000001_Node000007" class="edge">
<title>Node1&#45;&gt;Node7</title>
<g id="a_edge6_Node000001_Node000007"><a xlink:title=" ">
<path fill="none" stroke="#63b8ff" d="M564.34,-181.51C583.93,-168.9 606.41,-154.43 620.29,-145.5"/>
<polygon fill="#63b8ff" stroke="#63b8ff" points="562.39,-178.6 555.87,-186.96 566.17,-184.49 562.39,-178.6"/>
</a>
</g>
</g>
<!-- Node9 -->
<g id="Node000009" class="node">
<title>Node9</title>
<g id="a_Node000009"><a xlink:href="MainWindow_8cpp.html" target="_top" xlink:title=" ">
<polygon fill="white" stroke="#666666" points="656.5,-19 510.5,-19 510.5,0 656.5,0 656.5,-19"/>
<text text-anchor="middle" x="583.5" y="-7" font-family="Helvetica,sans-Serif" font-size="10.00">src/ui/src/MainWindow.cpp</text>
</a>
</g>
</g>
<!-- Node1&#45;&gt;Node9 -->
<g id="edge13_Node000001_Node000009" class="edge">
<title>Node1&#45;&gt;Node9</title>
<g id="a_edge13_Node000001_Node000009"><a xlink:title=" ">
<path fill="none" stroke="#63b8ff" d="M524.19,-176.54C523.94,-144.94 526.82,-94.37 544.5,-55 550.98,-40.57 563.78,-27.4 572.95,-19.19"/>
<polygon fill="#63b8ff" stroke="#63b8ff" points="520.7,-176.94 524.39,-186.87 527.7,-176.81 520.7,-176.94"/>
</a>
</g>
</g>
<!-- Node10 -->
<g id="Node000010" class="node">
<title>Node10</title>
<g id="a_Node000010"><a xlink:href="MultiWindowView_8cpp.html" target="_top" xlink:title=" ">
<polygon fill="white" stroke="#666666" points="844.5,-19 674.5,-19 674.5,0 844.5,0 844.5,-19"/>
<text text-anchor="middle" x="759.5" y="-7" font-family="Helvetica,sans-Serif" font-size="10.00">src/ui/src/MultiWindowView.cpp</text>
</a>
</g>
</g>
<!-- Node1&#45;&gt;Node10 -->
<g id="edge14_Node000001_Node000010" class="edge">
<title>Node1&#45;&gt;Node10</title>
<g id="a_edge14_Node000001_Node000010"><a xlink:title=" ">
<path fill="none" stroke="#63b8ff" d="M612.38,-204.51C697.2,-197.3 821.8,-171.5 880.5,-85 887.99,-73.97 888.13,-65.93 880.5,-55 867.37,-36.18 845.36,-25.3 823.68,-19.02"/>
<polygon fill="#63b8ff" stroke="#63b8ff" points="611.94,-201.03 602.24,-205.3 612.48,-208.01 611.94,-201.03"/>
</a>
</g>
</g>
<!-- Node12 -->
<g id="Node000012" class="node">
<title>Node12</title>
<g id="a_Node000012"><a xlink:href="ViewportView_8cpp.html" target="_top" xlink:title=" ">
<polygon fill="white" stroke="#666666" points="1012.5,-19 862.5,-19 862.5,0 1012.5,0 1012.5,-19"/>
<text text-anchor="middle" x="937.5" y="-7" font-family="Helvetica,sans-Serif" font-size="10.00">src/ui/src/ViewportView.cpp</text>
</a>
</g>
</g>
<!-- Node1&#45;&gt;Node12 -->
<g id="edge15_Node000001_Node000012" class="edge">
<title>Node1&#45;&gt;Node12</title>
<g id="a_edge15_Node000001_Node000012"><a xlink:title=" ">
<path fill="none" stroke="#63b8ff" d="M612.24,-198.02C691.99,-189.02 803.42,-173.05 841.5,-151 895.44,-119.76 925.68,-44.57 934.64,-19.1"/>
<polygon fill="#63b8ff" stroke="#63b8ff" points="611.74,-194.56 602.19,-199.14 612.52,-201.51 611.74,-194.56"/>
</a>
</g>
</g>
<!-- Node5 -->
<g id="Node000005" class="node">
<title>Node5</title>
<g id="a_Node000005"><a xlink:href="ControllerPanel_8cpp.html" target="_top" xlink:title=" ">
<polygon fill="white" stroke="#666666" points="492.5,-79.5 334.5,-79.5 334.5,-60.5 492.5,-60.5 492.5,-79.5"/>
<text text-anchor="middle" x="413.5" y="-67.5" font-family="Helvetica,sans-Serif" font-size="10.00">src/ui/src/ControllerPanel.cpp</text>
</a>
</g>
</g>
<!-- Node4&#45;&gt;Node5 -->
<g id="edge4_Node000004_Node000005" class="edge">
<title>Node4&#45;&gt;Node5</title>
<g id="a_edge4_Node000004_Node000005"><a xlink:title=" ">
<path fill="none" stroke="#63b8ff" d="M411.02,-110.6C411.7,-99.8 412.45,-87.78 412.95,-79.84"/>
<polygon fill="#63b8ff" stroke="#63b8ff" points="407.52,-110.6 410.39,-120.8 414.5,-111.03 407.52,-110.6"/>
</a>
</g>
</g>
<!-- Node6 -->
<g id="Node000006" class="node">
<title>Node6</title>
<g id="a_Node000006"><a xlink:href="ControllerPanelOrientationMarkerItem_8cpp.html" target="_top" xlink:title=" ">
<polygon fill="white" stroke="#666666" points="316.5,-85 168.5,-85 168.5,-55 316.5,-55 316.5,-85"/>
<text text-anchor="start" x="176.5" y="-73" font-family="Helvetica,sans-Serif" font-size="10.00">src/ui/src/ControllerPanel</text>
<text text-anchor="middle" x="242.5" y="-62" font-family="Helvetica,sans-Serif" font-size="10.00">OrientationMarkerItem.cpp</text>
</a>
</g>
</g>
<!-- Node4&#45;&gt;Node6 -->
<g id="edge5_Node000004_Node000006" class="edge">
<title>Node4&#45;&gt;Node6</title>
<g id="a_edge5_Node000004_Node000006"><a xlink:title=" ">
<path fill="none" stroke="#63b8ff" d="M363.37,-117.32C336.79,-107.14 303.84,-94.51 279.06,-85.01"/>
<polygon fill="#63b8ff" stroke="#63b8ff" points="362.26,-120.64 372.85,-120.95 364.77,-114.11 362.26,-120.64"/>
</a>
</g>
</g>
<!-- Node8 -->
<g id="Node000008" class="node">
<title>Node8</title>
<g id="a_Node000008"><a xlink:href="MultiWindowView_8hpp.html" target="_top" xlink:title=" ">
<polygon fill="white" stroke="#666666" points="713.5,-85 553.5,-85 553.5,-55 713.5,-55 713.5,-85"/>
<text text-anchor="start" x="561.5" y="-73" font-family="Helvetica,sans-Serif" font-size="10.00">src/ui/include/ui/MultiWindow</text>
<text text-anchor="middle" x="633.5" y="-62" font-family="Helvetica,sans-Serif" font-size="10.00">View.hpp</text>
</a>
</g>
</g>
<!-- Node7&#45;&gt;Node8 -->
<g id="edge7_Node000007_Node000008" class="edge">
<title>Node7&#45;&gt;Node8</title>
<g id="a_edge7_Node000007_Node000008"><a xlink:title=" ">
<path fill="none" stroke="#63b8ff" d="M633.5,-116.35C633.5,-106.47 633.5,-94.51 633.5,-85.36"/>
<polygon fill="#63b8ff" stroke="#63b8ff" points="630,-116.37 633.5,-126.37 637,-116.37 630,-116.37"/>
</a>
</g>
</g>
<!-- Node11 -->
<g id="Node000011" class="node">
<title>Node11</title>
<g id="a_Node000011"><a xlink:href="ViewportView_8hpp.html" target="_top" xlink:title=" ">
<polygon fill="white" stroke="#666666" points="871.5,-85 731.5,-85 731.5,-55 871.5,-55 871.5,-85"/>
<text text-anchor="start" x="739.5" y="-73" font-family="Helvetica,sans-Serif" font-size="10.00">src/ui/include/ui/Viewport</text>
<text text-anchor="middle" x="801.5" y="-62" font-family="Helvetica,sans-Serif" font-size="10.00">View.hpp</text>
</a>
</g>
</g>
<!-- Node7&#45;&gt;Node11 -->
<g id="edge10_Node000007_Node000011" class="edge">
<title>Node7&#45;&gt;Node11</title>
<g id="a_edge10_Node000007_Node000011"><a xlink:title=" ">
<path fill="none" stroke="#63b8ff" d="M665.56,-122.79C693.77,-112.04 734.84,-96.4 764.45,-85.12"/>
<polygon fill="#63b8ff" stroke="#63b8ff" points="664.26,-119.54 656.16,-126.37 666.75,-126.08 664.26,-119.54"/>
</a>
</g>
</g>
<!-- Node8&#45;&gt;Node9 -->
<g id="edge8_Node000008_Node000009" class="edge">
<title>Node8&#45;&gt;Node9</title>
<g id="a_edge8_Node000008_Node000009"><a xlink:title=" ">
<path fill="none" stroke="#63b8ff" d="M614.77,-47.09C606.51,-37.42 597.27,-26.61 590.99,-19.27"/>
<polygon fill="#63b8ff" stroke="#63b8ff" points="612.24,-49.51 621.4,-54.84 617.56,-44.96 612.24,-49.51"/>
</a>
</g>
</g>
<!-- Node8&#45;&gt;Node10 -->
<g id="edge9_Node000008_Node000010" class="edge">
<title>Node8&#45;&gt;Node10</title>
<g id="a_edge9_Node000008_Node000010"><a xlink:title=" ">
<path fill="none" stroke="#63b8ff" d="M672.76,-50.77C695.48,-40.22 723.03,-27.43 740.89,-19.14"/>
<polygon fill="#63b8ff" stroke="#63b8ff" points="671.28,-47.6 663.68,-54.99 674.22,-53.95 671.28,-47.6"/>
</a>
</g>
</g>
<!-- Node11&#45;&gt;Node9 -->
<g id="edge11_Node000011_Node000009" class="edge">
<title>Node11&#45;&gt;Node9</title>
<g id="a_edge11_Node000011_Node000009"><a xlink:title=" ">
<path fill="none" stroke="#63b8ff" d="M739.5,-52.36C699.02,-41.5 647.84,-27.77 615.38,-19.05"/>
<polygon fill="#63b8ff" stroke="#63b8ff" points="738.72,-55.78 749.28,-54.99 740.53,-49.02 738.72,-55.78"/>
</a>
</g>
</g>
<!-- Node11&#45;&gt;Node12 -->
<g id="edge12_Node000011_Node000012" class="edge">
<title>Node11&#45;&gt;Node12</title>
<g id="a_edge12_Node000011_Node000012"><a xlink:title=" ">
<path fill="none" stroke="#63b8ff" d="M843.55,-50.91C868.13,-40.34 898.05,-27.47 917.42,-19.14"/>
<polygon fill="#63b8ff" stroke="#63b8ff" points="841.88,-47.82 834.08,-54.99 844.64,-54.25 841.88,-47.82"/>
</a>
</g>
</g>
</g>
</svg>
