<?xml version="1.0" encoding="UTF-8" standalone="no"?>
<!DOCTYPE svg PUBLIC "-//W3C//DTD SVG 1.1//EN"
 "http://www.w3.org/Graphics/SVG/1.1/DTD/svg11.dtd">
<!-- Generated by graphviz version 2.43.0 (0)
 -->
<!-- Title: src/adapters/include/adapters/OverlayLayoutAdapter.hpp Pages: 1 -->
<svg width="403pt" height="170pt"
 viewBox="0.00 0.00 402.50 170.00" xmlns="http://www.w3.org/2000/svg" xmlns:xlink="http://www.w3.org/1999/xlink">
<g id="graph0" class="graph" transform="scale(1 1) rotate(0) translate(4 166)">
<title>src/adapters/include/adapters/OverlayLayoutAdapter.hpp</title>
<!-- Node1 -->
<g id="Node000001" class="node">
<title>Node1</title>
<g id="a_Node000001"><a xlink:title=" ">
<polygon fill="#999999" stroke="#666666" points="261,-162 66,-162 66,-132 261,-132 261,-162"/>
<text text-anchor="start" x="74" y="-150" font-family="Helvetica,sans-Serif" font-size="10.00">src/adapters/include</text>
<text text-anchor="middle" x="163.5" y="-139" font-family="Helvetica,sans-Serif" font-size="10.00">/adapters/OverlayLayoutAdapter.hpp</text>
</a>
</g>
</g>
<!-- Node2 -->
<g id="Node000002" class="node">
<title>Node2</title>
<g id="a_Node000002"><a xlink:href="OverlayLayoutAdapter_8cpp.html" target="_top" xlink:title=" ">
<polygon fill="white" stroke="#666666" points="135,-96 0,-96 0,-66 135,-66 135,-96"/>
<text text-anchor="start" x="8" y="-84" font-family="Helvetica,sans-Serif" font-size="10.00">src/adapters/src/Overlay</text>
<text text-anchor="middle" x="67.5" y="-73" font-family="Helvetica,sans-Serif" font-size="10.00">LayoutAdapter.cpp</text>
</a>
</g>
</g>
<!-- Node1&#45;&gt;Node2 -->
<g id="edge1_Node000001_Node000002" class="edge">
<title>Node1&#45;&gt;Node2</title>
<g id="a_edge1_Node000001_Node000002"><a xlink:title=" ">
<path fill="none" stroke="#63b8ff" d="M133.54,-126.03C119.01,-116.34 101.91,-104.94 88.75,-96.16"/>
<polygon fill="#63b8ff" stroke="#63b8ff" points="131.93,-129.16 142.19,-131.8 135.82,-123.34 131.93,-129.16"/>
</a>
</g>
</g>
<!-- Node3 -->
<g id="Node000003" class="node">
<title>Node3</title>
<g id="a_Node000003"><a xlink:href="ViewportLayoutManager_8hpp.html" target="_top" xlink:title=" ">
<polygon fill="white" stroke="#666666" points="331.5,-96 191.5,-96 191.5,-66 331.5,-66 331.5,-96"/>
<text text-anchor="start" x="199.5" y="-84" font-family="Helvetica,sans-Serif" font-size="10.00">src/ui/include/ui/Viewport</text>
<text text-anchor="middle" x="261.5" y="-73" font-family="Helvetica,sans-Serif" font-size="10.00">LayoutManager.hpp</text>
</a>
</g>
</g>
<!-- Node1&#45;&gt;Node3 -->
<g id="edge2_Node000001_Node000003" class="edge">
<title>Node1&#45;&gt;Node3</title>
<g id="a_edge2_Node000001_Node000003"><a xlink:title=" ">
<path fill="none" stroke="#63b8ff" d="M193.66,-126.3C208.58,-116.56 226.25,-105.02 239.81,-96.16"/>
<polygon fill="#63b8ff" stroke="#63b8ff" points="191.71,-123.4 185.25,-131.8 195.54,-129.26 191.71,-123.4"/>
</a>
</g>
</g>
<!-- Node4 -->
<g id="Node000004" class="node">
<title>Node4</title>
<g id="a_Node000004"><a xlink:href="MainWindow_8cpp.html" target="_top" xlink:title=" ">
<polygon fill="white" stroke="#666666" points="236.5,-24.5 90.5,-24.5 90.5,-5.5 236.5,-5.5 236.5,-24.5"/>
<text text-anchor="middle" x="163.5" y="-12.5" font-family="Helvetica,sans-Serif" font-size="10.00">src/ui/src/MainWindow.cpp</text>
</a>
</g>
</g>
<!-- Node1&#45;&gt;Node4 -->
<g id="edge5_Node000001_Node000004" class="edge">
<title>Node1&#45;&gt;Node4</title>
<g id="a_edge5_Node000001_Node000004"><a xlink:title=" ">
<path fill="none" stroke="#63b8ff" d="M163.5,-121.57C163.5,-92.17 163.5,-44.31 163.5,-24.75"/>
<polygon fill="#63b8ff" stroke="#63b8ff" points="160,-121.84 163.5,-131.84 167,-121.84 160,-121.84"/>
</a>
</g>
</g>
<!-- Node3&#45;&gt;Node4 -->
<g id="edge3_Node000003_Node000004" class="edge">
<title>Node3&#45;&gt;Node4</title>
<g id="a_edge3_Node000003_Node000004"><a xlink:title=" ">
<path fill="none" stroke="#63b8ff" d="M231.18,-60.2C212.94,-48.29 190.65,-33.73 176.76,-24.66"/>
<polygon fill="#63b8ff" stroke="#63b8ff" points="229.46,-63.26 239.75,-65.8 233.29,-57.4 229.46,-63.26"/>
</a>
</g>
</g>
<!-- Node5 -->
<g id="Node000005" class="node">
<title>Node5</title>
<g id="a_Node000005"><a xlink:href="ViewportLayoutManager_8cpp.html" target="_top" xlink:title=" ">
<polygon fill="white" stroke="#666666" points="394.5,-30 254.5,-30 254.5,0 394.5,0 394.5,-30"/>
<text text-anchor="start" x="262.5" y="-18" font-family="Helvetica,sans-Serif" font-size="10.00">src/ui/src/ViewportLayout</text>
<text text-anchor="middle" x="324.5" y="-7" font-family="Helvetica,sans-Serif" font-size="10.00">Manager.cpp</text>
</a>
</g>
</g>
<!-- Node3&#45;&gt;Node5 -->
<g id="edge4_Node000003_Node000005" class="edge">
<title>Node3&#45;&gt;Node5</title>
<g id="a_edge4_Node000003_Node000005"><a xlink:title=" ">
<path fill="none" stroke="#63b8ff" d="M282.52,-58.65C291.75,-49.27 302.33,-38.53 310.56,-30.16"/>
<polygon fill="#63b8ff" stroke="#63b8ff" points="280,-56.21 275.48,-65.8 284.99,-61.13 280,-56.21"/>
</a>
</g>
</g>
</g>
</svg>
