<?xml version="1.0" encoding="UTF-8" standalone="no"?>
<!DOCTYPE svg PUBLIC "-//W3C//DTD SVG 1.1//EN"
 "http://www.w3.org/Graphics/SVG/1.1/DTD/svg11.dtd">
<!-- Generated by graphviz version 2.43.0 (0)
 -->
<!-- Title: src/adapters/src/OverlayLayoutAdapter.cpp Pages: 1 -->
<!--zoomable 269 -->

<svg id="main" version="1.1" xmlns="http://www.w3.org/2000/svg" xmlns:xlink="http://www.w3.org/1999/xlink" xml:space="preserve" onload="init(evt)">
<style type="text/css"><![CDATA[
.node, .edge {opacity: 0.7;}
.node.selected, .edge.selected {opacity: 1;}
.edge:hover path { stroke: red; }
.edge:hover polygon { stroke: red; fill: red; }
]]></style>

<defs>
  <circle id="rim" cx="0" cy="0" r="7"/>
  <circle id="rim2" cx="0" cy="0" r="3.5"/>
  <g id="zoomPlus">
    <use xlink:href="#rim" fill="#404040"><set attributeName="fill" to="#808080" begin="zoomplus.mouseover" end="zoomplus.mouseout"/></use>
    <path d="M-4,0h8M0,-4v8" fill="none" stroke="white" stroke-width="1.5" pointer-events="none"/>
  </g>
  <g id="zoomMin">
    <use xlink:href="#rim" fill="#404040"><set attributeName="fill" to="#808080" begin="zoomminus.mouseover" end="zoomminus.mouseout"/></use>
    <path d="M-4,0h8" fill="none" stroke="white" stroke-width="1.5" pointer-events="none"/>
  </g>
  <g id="arrowUp" transform="translate(30 24)">
    <use xlink:href="#rim"/>
    <path pointer-events="none" fill="none" stroke="white" stroke-width="1.5" d="M0,-3.0v7 M-2.5,-0.5L0,-3.0L2.5,-0.5"/>
  </g>
  <g id="arrowRight" transform="rotate(90) translate(36 -43)">
    <use xlink:href="#rim"/>
    <path pointer-events="none" fill="none" stroke="white" stroke-width="1.5" d="M0,-3.0v7 M-2.5,-0.5L0,-3.0L2.5,-0.5"/>
  </g>
  <g id="arrowDown" transform="rotate(180) translate(-30 -48)">
    <use xlink:href="#rim"/>
    <path pointer-events="none" fill="none" stroke="white" stroke-width="1.5" d="M0,-3.0v7 M-2.5,-0.5L0,-3.0L2.5,-0.5"/>
  </g>
  <g id="arrowLeft" transform="rotate(270) translate(-36 17)">
    <use xlink:href="#rim"/>
    <path pointer-events="none" fill="none" stroke="white" stroke-width="1.5" d="M0,-3.0v7 M-2.5,-0.5L0,-3.0L2.5,-0.5"/>
  </g>
  <g id="resetDef">
    <use xlink:href="#rim2" fill="#404040"><set attributeName="fill" to="#808080" begin="reset.mouseover" end="reset.mouseout"/></use>
  </g>
</defs>
<script type="application/ecmascript">
var viewWidth = 1069;
var viewHeight = 269;
var sectionId = 'dynsection-0';
</script>
<script type="application/ecmascript" xlink:href="svg.min.js"/>
<svg id="graph" class="graph">
<g id="viewport">
<title>src/adapters/src/OverlayLayoutAdapter.cpp</title>
<!-- Node1 -->
<g id="Node000001" class="node">
<title>Node1</title>
<g id="a_Node000001"><a xlink:title=" ">
<polygon fill="#999999" stroke="#666666" points="593.5,-261 458.5,-261 458.5,-231 593.5,-231 593.5,-261"/>
<text text-anchor="start" x="466.5" y="-249" font-family="Helvetica,sans-Serif" font-size="10.00">src/adapters/src/Overlay</text>
<text text-anchor="middle" x="526" y="-238" font-family="Helvetica,sans-Serif" font-size="10.00">LayoutAdapter.cpp</text>
</a>
</g>
</g>
<!-- Node2 -->
<g id="Node000002" class="node">
<title>Node2</title>
<g id="a_Node000002"><a xlink:href="OverlayLayoutAdapter_8hpp.html" target="_top" xlink:title=" ">
<polygon fill="white" stroke="#666666" points="318,-189.5 126,-189.5 126,-170.5 318,-170.5 318,-189.5"/>
<text text-anchor="middle" x="222" y="-177.5" font-family="Helvetica,sans-Serif" font-size="10.00">adapters/OverlayLayoutAdapter.hpp</text>
</a>
</g>
</g>
<!-- Node1&#45;&gt;Node2 -->
<g id="edge1_Node000001_Node000002" class="edge">
<title>Node1&#45;&gt;Node2</title>
<g id="a_edge1_Node000001_Node000002"><a xlink:title=" ">
<path fill="none" stroke="#63b8ff" d="M459.29,-230.95C402.92,-219.09 323.42,-202.35 272.29,-191.59"/>
<polygon fill="#63b8ff" stroke="#63b8ff" points="272.96,-188.15 262.46,-189.52 271.52,-195 272.96,-188.15"/>
</a>
</g>
</g>
<!-- Node9 -->
<g id="Node000009" class="node">
<title>Node9</title>
<g id="a_Node000009"><a xlink:href="CornerAnnotationOverlay_8hpp.html" target="_top" xlink:title=" ">
<polygon fill="white" stroke="#666666" points="683.5,-195 536.5,-195 536.5,-165 683.5,-165 683.5,-195"/>
<text text-anchor="start" x="544.5" y="-183" font-family="Helvetica,sans-Serif" font-size="10.00">overlays/CornerAnnotation</text>
<text text-anchor="middle" x="610" y="-172" font-family="Helvetica,sans-Serif" font-size="10.00">Overlay.hpp</text>
</a>
</g>
</g>
<!-- Node1&#45;&gt;Node9 -->
<g id="edge12_Node000001_Node000009" class="edge">
<title>Node1&#45;&gt;Node9</title>
<g id="a_edge12_Node000001_Node000009"><a xlink:title=" ">
<path fill="none" stroke="#63b8ff" d="M544.64,-230.8C555.95,-222.18 570.58,-211.04 583.12,-201.48"/>
<polygon fill="#63b8ff" stroke="#63b8ff" points="585.58,-204.01 591.41,-195.16 581.33,-198.44 585.58,-204.01"/>
</a>
</g>
</g>
<!-- Node17 -->
<g id="Node000017" class="node">
<title>Node17</title>
<g id="a_Node000017"><a xlink:href="FPSOverlay_8hpp.html" target="_top" xlink:title=" ">
<polygon fill="white" stroke="#666666" points="888.5,-189.5 751.5,-189.5 751.5,-170.5 888.5,-170.5 888.5,-189.5"/>
<text text-anchor="middle" x="820" y="-177.5" font-family="Helvetica,sans-Serif" font-size="10.00">overlays/FPSOverlay.hpp</text>
</a>
</g>
</g>
<!-- Node1&#45;&gt;Node17 -->
<g id="edge21_Node000001_Node000017" class="edge">
<title>Node1&#45;&gt;Node17</title>
<g id="a_edge21_Node000001_Node000017"><a xlink:title=" ">
<path fill="none" stroke="#63b8ff" d="M590.52,-230.95C644.92,-219.11 721.6,-202.42 771.06,-191.65"/>
<polygon fill="#63b8ff" stroke="#63b8ff" points="771.85,-195.06 780.87,-189.52 770.36,-188.22 771.85,-195.06"/>
</a>
</g>
</g>
<!-- Node21 -->
<g id="Node000021" class="node">
<title>Node21</title>
<g id="a_Node000021"><a xlink:href="OrientationMarkerOverlay_8hpp.html" target="_top" xlink:title=" ">
<polygon fill="white" stroke="#666666" points="518,-195 368,-195 368,-165 518,-165 518,-195"/>
<text text-anchor="start" x="376" y="-183" font-family="Helvetica,sans-Serif" font-size="10.00">overlays/OrientationMarker</text>
<text text-anchor="middle" x="443" y="-172" font-family="Helvetica,sans-Serif" font-size="10.00">Overlay.hpp</text>
</a>
</g>
</g>
<!-- Node1&#45;&gt;Node21 -->
<g id="edge27_Node000001_Node000021" class="edge">
<title>Node1&#45;&gt;Node21</title>
<g id="a_edge27_Node000001_Node000021"><a xlink:title=" ">
<path fill="none" stroke="#63b8ff" d="M507.58,-230.8C496.4,-222.18 481.95,-211.04 469.56,-201.48"/>
<polygon fill="#63b8ff" stroke="#63b8ff" points="471.43,-198.5 461.37,-195.16 467.15,-204.04 471.43,-198.5"/>
</a>
</g>
</g>
<!-- Node3 -->
<g id="Node000003" class="node">
<title>Node3</title>
<g id="a_Node000003"><a xlink:title=" ">
<polygon fill="#e0e0e0" stroke="#999999" points="42,-19 0,-19 0,0 42,0 42,-19"/>
<text text-anchor="middle" x="21" y="-7" font-family="Helvetica,sans-Serif" font-size="10.00">array</text>
</a>
</g>
</g>
<!-- Node2&#45;&gt;Node3 -->
<g id="edge2_Node000002_Node000003" class="edge">
<title>Node2&#45;&gt;Node3</title>
<g id="a_edge2_Node000002_Node000003"><a xlink:title=" ">
<path fill="none" stroke="#63b8ff" d="M177.46,-170.49C129.04,-158.5 54.62,-131.33 25,-74 17.94,-60.34 17.38,-42.75 18.33,-29.56"/>
<polygon fill="#63b8ff" stroke="#63b8ff" points="21.85,-29.61 19.44,-19.3 14.89,-28.86 21.85,-29.61"/>
</a>
</g>
</g>
<!-- Node4 -->
<g id="Node000004" class="node">
<title>Node4</title>
<g id="a_Node000004"><a xlink:title=" ">
<polygon fill="#e0e0e0" stroke="#999999" points="342.5,-74 295.5,-74 295.5,-55 342.5,-55 342.5,-74"/>
<text text-anchor="middle" x="319" y="-62" font-family="Helvetica,sans-Serif" font-size="10.00">vector</text>
</a>
</g>
</g>
<!-- Node2&#45;&gt;Node4 -->
<g id="edge3_Node000002_Node000004" class="edge">
<title>Node2&#45;&gt;Node4</title>
<g id="a_edge3_Node000002_Node000004"><a xlink:title=" ">
<path fill="none" stroke="#63b8ff" d="M229.63,-170.16C238.23,-160.18 252.65,-143.44 265,-129 278.6,-113.09 294.07,-94.89 304.95,-82.07"/>
<polygon fill="#63b8ff" stroke="#63b8ff" points="307.88,-84.03 311.68,-74.14 302.54,-79.5 307.88,-84.03"/>
</a>
</g>
</g>
<!-- Node5 -->
<g id="Node000005" class="node">
<title>Node5</title>
<g id="a_Node000005"><a xlink:href="ViewportLayoutTypes_8hpp.html" target="_top" xlink:title=" ">
<polygon fill="white" stroke="#666666" points="256,-129 102,-129 102,-110 256,-110 256,-129"/>
<text text-anchor="middle" x="179" y="-117" font-family="Helvetica,sans-Serif" font-size="10.00">ui/ViewportLayoutTypes.hpp</text>
</a>
</g>
</g>
<!-- Node2&#45;&gt;Node5 -->
<g id="edge4_Node000002_Node000005" class="edge">
<title>Node2&#45;&gt;Node5</title>
<g id="a_edge4_Node000002_Node000005"><a xlink:title=" ">
<path fill="none" stroke="#63b8ff" d="M215.66,-170.37C209.3,-161.73 199.36,-148.2 191.43,-137.42"/>
<polygon fill="#63b8ff" stroke="#63b8ff" points="194.11,-135.15 185.37,-129.17 188.47,-139.3 194.11,-135.15"/>
</a>
</g>
</g>
<!-- Node5&#45;&gt;Node3 -->
<g id="edge5_Node000005_Node000003" class="edge">
<title>Node5&#45;&gt;Node3</title>
<g id="a_edge5_Node000005_Node000003"><a xlink:title=" ">
<path fill="none" stroke="#63b8ff" d="M109.7,-109.96C84.86,-103.68 58.45,-92.81 40,-74 28.3,-62.07 23.76,-43.25 22.02,-29.19"/>
<polygon fill="#63b8ff" stroke="#63b8ff" points="25.5,-28.81 21.14,-19.16 18.53,-29.42 25.5,-28.81"/>
</a>
</g>
</g>
<!-- Node5&#45;&gt;Node4 -->
<g id="edge7_Node000005_Node000004" class="edge">
<title>Node5&#45;&gt;Node4</title>
<g id="a_edge7_Node000005_Node000004"><a xlink:title=" ">
<path fill="none" stroke="#63b8ff" d="M201.49,-109.98C224.52,-101.27 260.54,-87.63 286.63,-77.75"/>
<polygon fill="#63b8ff" stroke="#63b8ff" points="287.98,-80.98 296.1,-74.17 285.51,-74.44 287.98,-80.98"/>
</a>
</g>
</g>
<!-- Node6 -->
<g id="Node000006" class="node">
<title>Node6</title>
<g id="a_Node000006"><a xlink:title=" ">
<polygon fill="#e0e0e0" stroke="#999999" points="284,-19 240,-19 240,0 284,0 284,-19"/>
<text text-anchor="middle" x="262" y="-7" font-family="Helvetica,sans-Serif" font-size="10.00">string</text>
</a>
</g>
</g>
<!-- Node5&#45;&gt;Node6 -->
<g id="edge6_Node000005_Node000006" class="edge">
<title>Node5&#45;&gt;Node6</title>
<g id="a_edge6_Node000005_Node000006"><a xlink:title=" ">
<path fill="none" stroke="#63b8ff" d="M199.96,-109.95C215.28,-102.63 235.33,-90.63 247,-74 256.25,-60.81 259.85,-42.69 261.23,-29.17"/>
<polygon fill="#63b8ff" stroke="#63b8ff" points="264.72,-29.34 261.93,-19.12 257.74,-28.85 264.72,-29.34"/>
</a>
</g>
</g>
<!-- Node7 -->
<g id="Node000007" class="node">
<title>Node7</title>
<g id="a_Node000007"><a xlink:href="ViewportConfig_8hpp.html" target="_top" xlink:title=" ">
<polygon fill="white" stroke="#666666" points="238.5,-74 49.5,-74 49.5,-55 238.5,-55 238.5,-74"/>
<text text-anchor="middle" x="144" y="-62" font-family="Helvetica,sans-Serif" font-size="10.00">XQVtkViewport/ViewportConfig.hpp</text>
</a>
</g>
</g>
<!-- Node5&#45;&gt;Node7 -->
<g id="edge8_Node000005_Node000007" class="edge">
<title>Node5&#45;&gt;Node7</title>
<g id="a_edge8_Node000005_Node000007"><a xlink:title=" ">
<path fill="none" stroke="#63b8ff" d="M173.22,-109.75C168.38,-102.42 161.32,-91.73 155.36,-82.7"/>
<polygon fill="#63b8ff" stroke="#63b8ff" points="158.1,-80.5 149.67,-74.09 152.26,-84.36 158.1,-80.5"/>
</a>
</g>
</g>
<!-- Node7&#45;&gt;Node3 -->
<g id="edge9_Node000007_Node000003" class="edge">
<title>Node7&#45;&gt;Node3</title>
<g id="a_edge9_Node000007_Node000003"><a xlink:title=" ">
<path fill="none" stroke="#63b8ff" d="M124.24,-54.98C104.27,-46.38 73.2,-32.99 50.35,-23.15"/>
<polygon fill="#63b8ff" stroke="#63b8ff" points="51.69,-19.91 41.12,-19.17 48.92,-26.34 51.69,-19.91"/>
</a>
</g>
</g>
<!-- Node7&#45;&gt;Node6 -->
<g id="edge10_Node000007_Node000006" class="edge">
<title>Node7&#45;&gt;Node6</title>
<g id="a_edge10_Node000007_Node000006"><a xlink:title=" ">
<path fill="none" stroke="#63b8ff" d="M162.96,-54.98C182.03,-46.42 211.66,-33.11 233.55,-23.28"/>
<polygon fill="#63b8ff" stroke="#63b8ff" points="235.01,-26.46 242.7,-19.17 232.14,-20.07 235.01,-26.46"/>
</a>
</g>
</g>
<!-- Node8 -->
<g id="Node000008" class="node">
<title>Node8</title>
<g id="a_Node000008"><a xlink:title=" ">
<polygon fill="#e0e0e0" stroke="#999999" points="218.5,-19 69.5,-19 69.5,0 218.5,0 218.5,-19"/>
<text text-anchor="middle" x="144" y="-7" font-family="Helvetica,sans-Serif" font-size="10.00">XQVtkViewport_export.hpp</text>
</a>
</g>
</g>
<!-- Node7&#45;&gt;Node8 -->
<g id="edge11_Node000007_Node000008" class="edge">
<title>Node7&#45;&gt;Node8</title>
<g id="a_edge11_Node000007_Node000008"><a xlink:title=" ">
<path fill="none" stroke="#63b8ff" d="M144,-54.75C144,-47.8 144,-37.85 144,-29.13"/>
<polygon fill="#63b8ff" stroke="#63b8ff" points="147.5,-29.09 144,-19.09 140.5,-29.09 147.5,-29.09"/>
</a>
</g>
</g>
<!-- Node10 -->
<g id="Node000010" class="node">
<title>Node10</title>
<g id="a_Node000010"><a xlink:title=" ">
<polygon fill="#e0e0e0" stroke="#999999" points="678,-129 628,-129 628,-110 678,-110 678,-129"/>
<text text-anchor="middle" x="653" y="-117" font-family="Helvetica,sans-Serif" font-size="10.00">QColor</text>
</a>
</g>
</g>
<!-- Node9&#45;&gt;Node10 -->
<g id="edge13_Node000009_Node000010" class="edge">
<title>Node9&#45;&gt;Node10</title>
<g id="a_edge13_Node000009_Node000010"><a xlink:title=" ">
<path fill="none" stroke="#63b8ff" d="M620.41,-164.84C626.46,-156.61 634.12,-146.18 640.5,-137.51"/>
<polygon fill="#63b8ff" stroke="#63b8ff" points="643.45,-139.4 646.56,-129.27 637.81,-135.25 643.45,-139.4"/>
</a>
</g>
</g>
<!-- Node11 -->
<g id="Node000011" class="node">
<title>Node11</title>
<g id="a_Node000011"><a xlink:title=" ">
<polygon fill="#e0e0e0" stroke="#999999" points="395.5,-129 350.5,-129 350.5,-110 395.5,-110 395.5,-129"/>
<text text-anchor="middle" x="373" y="-117" font-family="Helvetica,sans-Serif" font-size="10.00">QFont</text>
</a>
</g>
</g>
<!-- Node9&#45;&gt;Node11 -->
<g id="edge14_Node000009_Node000011" class="edge">
<title>Node9&#45;&gt;Node11</title>
<g id="a_edge14_Node000009_Node000011"><a xlink:title=" ">
<path fill="none" stroke="#63b8ff" d="M549.94,-164.92C511.12,-155.7 459.27,-143.18 405.39,-129.31"/>
<polygon fill="#63b8ff" stroke="#63b8ff" points="406.22,-125.91 395.67,-126.8 404.47,-132.69 406.22,-125.91"/>
</a>
</g>
</g>
<!-- Node12 -->
<g id="Node000012" class="node">
<title>Node12</title>
<g id="a_Node000012"><a xlink:title=" ">
<polygon fill="#e0e0e0" stroke="#999999" points="494.5,-129 413.5,-129 413.5,-110 494.5,-110 494.5,-129"/>
<text text-anchor="middle" x="454" y="-117" font-family="Helvetica,sans-Serif" font-size="10.00">QFontMetrics</text>
</a>
</g>
</g>
<!-- Node9&#45;&gt;Node12 -->
<g id="edge15_Node000009_Node000012" class="edge">
<title>Node9&#45;&gt;Node12</title>
<g id="a_edge15_Node000009_Node000012"><a xlink:title=" ">
<path fill="none" stroke="#63b8ff" d="M572.63,-164.99C546.37,-155.14 511.59,-142.1 486.48,-132.68"/>
<polygon fill="#63b8ff" stroke="#63b8ff" points="487.63,-129.37 477.04,-129.14 485.17,-135.93 487.63,-129.37"/>
</a>
</g>
</g>
<!-- Node13 -->
<g id="Node000013" class="node">
<title>Node13</title>
<g id="a_Node000013"><a xlink:title=" ">
<polygon fill="#e0e0e0" stroke="#999999" points="626.5,-74 573.5,-74 573.5,-55 626.5,-55 626.5,-74"/>
<text text-anchor="middle" x="600" y="-62" font-family="Helvetica,sans-Serif" font-size="10.00">QString</text>
</a>
</g>
</g>
<!-- Node9&#45;&gt;Node13 -->
<g id="edge16_Node000009_Node000013" class="edge">
<title>Node9&#45;&gt;Node13</title>
<g id="a_edge16_Node000009_Node000013"><a xlink:title=" ">
<path fill="none" stroke="#63b8ff" d="M608.73,-164.63C606.94,-144.21 603.64,-106.81 601.65,-84.24"/>
<polygon fill="#63b8ff" stroke="#63b8ff" points="605.13,-83.88 600.77,-74.23 598.16,-84.5 605.13,-83.88"/>
</a>
</g>
</g>
<!-- Node14 -->
<g id="Node000014" class="node">
<title>Node14</title>
<g id="a_Node000014"><a xlink:title=" ">
<polygon fill="#e0e0e0" stroke="#999999" points="571.5,-129 512.5,-129 512.5,-110 571.5,-110 571.5,-129"/>
<text text-anchor="middle" x="542" y="-117" font-family="Helvetica,sans-Serif" font-size="10.00">QWidget</text>
</a>
</g>
</g>
<!-- Node9&#45;&gt;Node14 -->
<g id="edge17_Node000009_Node000014" class="edge">
<title>Node9&#45;&gt;Node14</title>
<g id="a_edge17_Node000009_Node000014"><a xlink:title=" ">
<path fill="none" stroke="#63b8ff" d="M593.54,-164.84C583.37,-156.09 570.31,-144.85 559.88,-135.88"/>
<polygon fill="#63b8ff" stroke="#63b8ff" points="562.05,-133.13 552.19,-129.27 557.49,-138.44 562.05,-133.13"/>
</a>
</g>
</g>
<!-- Node15 -->
<g id="Node000015" class="node">
<title>Node15</title>
<g id="a_Node000015"><a xlink:href="IOverlay_8hpp.html" target="_top" xlink:title=" ">
<polygon fill="white" stroke="#666666" points="818,-129 696,-129 696,-110 818,-110 818,-129"/>
<text text-anchor="middle" x="757" y="-117" font-family="Helvetica,sans-Serif" font-size="10.00">overlays/IOverlay.hpp</text>
</a>
</g>
</g>
<!-- Node9&#45;&gt;Node15 -->
<g id="edge18_Node000009_Node000015" class="edge">
<title>Node9&#45;&gt;Node15</title>
<g id="a_edge18_Node000009_Node000015"><a xlink:title=" ">
<path fill="none" stroke="#63b8ff" d="M645.21,-164.99C669.74,-155.23 702.15,-142.33 725.76,-132.93"/>
<polygon fill="#63b8ff" stroke="#63b8ff" points="727.29,-136.09 735.29,-129.14 724.71,-129.58 727.29,-136.09"/>
</a>
</g>
</g>
<!-- Node15&#45;&gt;Node13 -->
<g id="edge20_Node000015_Node000013" class="edge">
<title>Node15&#45;&gt;Node13</title>
<g id="a_edge20_Node000015_Node000013"><a xlink:title=" ">
<path fill="none" stroke="#63b8ff" d="M731.78,-109.98C705.64,-101.16 664.6,-87.31 635.27,-77.41"/>
<polygon fill="#63b8ff" stroke="#63b8ff" points="636.02,-73.96 625.42,-74.08 633.78,-80.6 636.02,-73.96"/>
</a>
</g>
</g>
<!-- Node16 -->
<g id="Node000016" class="node">
<title>Node16</title>
<g id="a_Node000016"><a xlink:title=" ">
<polygon fill="#e0e0e0" stroke="#999999" points="777.5,-74 736.5,-74 736.5,-55 777.5,-55 777.5,-74"/>
<text text-anchor="middle" x="757" y="-62" font-family="Helvetica,sans-Serif" font-size="10.00">QList</text>
</a>
</g>
</g>
<!-- Node15&#45;&gt;Node16 -->
<g id="edge19_Node000015_Node000016" class="edge">
<title>Node15&#45;&gt;Node16</title>
<g id="a_edge19_Node000015_Node000016"><a xlink:title=" ">
<path fill="none" stroke="#63b8ff" d="M757,-109.75C757,-102.8 757,-92.85 757,-84.13"/>
<polygon fill="#63b8ff" stroke="#63b8ff" points="760.5,-84.09 757,-74.09 753.5,-84.09 760.5,-84.09"/>
</a>
</g>
</g>
<!-- Node17&#45;&gt;Node10 -->
<g id="edge23_Node000017_Node000010" class="edge">
<title>Node17&#45;&gt;Node10</title>
<g id="a_edge23_Node000017_Node000010"><a xlink:title=" ">
<path fill="none" stroke="#63b8ff" d="M795.72,-170.49C767.02,-160.44 719.11,-143.66 686.8,-132.34"/>
<polygon fill="#63b8ff" stroke="#63b8ff" points="687.91,-129.02 677.31,-129.02 685.59,-135.63 687.91,-129.02"/>
</a>
</g>
</g>
<!-- Node17&#45;&gt;Node15 -->
<g id="edge26_Node000017_Node000015" class="edge">
<title>Node17&#45;&gt;Node15</title>
<g id="a_edge26_Node000017_Node000015"><a xlink:title=" ">
<path fill="none" stroke="#63b8ff" d="M810.7,-170.37C801.03,-161.38 785.66,-147.11 773.84,-136.14"/>
<polygon fill="#63b8ff" stroke="#63b8ff" points="776.04,-133.41 766.33,-129.17 771.28,-138.54 776.04,-133.41"/>
</a>
</g>
</g>
<!-- Node18 -->
<g id="Node000018" class="node">
<title>Node18</title>
<g id="a_Node000018"><a xlink:title=" ">
<polygon fill="#e0e0e0" stroke="#999999" points="883.5,-129 836.5,-129 836.5,-110 883.5,-110 883.5,-129"/>
<text text-anchor="middle" x="860" y="-117" font-family="Helvetica,sans-Serif" font-size="10.00">deque</text>
</a>
</g>
</g>
<!-- Node17&#45;&gt;Node18 -->
<g id="edge22_Node000017_Node000018" class="edge">
<title>Node17&#45;&gt;Node18</title>
<g id="a_edge22_Node000017_Node000018"><a xlink:title=" ">
<path fill="none" stroke="#63b8ff" d="M825.9,-170.37C831.75,-161.81 840.87,-148.47 848.21,-137.74"/>
<polygon fill="#63b8ff" stroke="#63b8ff" points="851.32,-139.4 854.07,-129.17 845.54,-135.45 851.32,-139.4"/>
</a>
</g>
</g>
<!-- Node19 -->
<g id="Node000019" class="node">
<title>Node19</title>
<g id="a_Node000019"><a xlink:title=" ">
<polygon fill="#e0e0e0" stroke="#999999" points="992.5,-129 901.5,-129 901.5,-110 992.5,-110 992.5,-129"/>
<text text-anchor="middle" x="947" y="-117" font-family="Helvetica,sans-Serif" font-size="10.00">QElapsedTimer</text>
</a>
</g>
</g>
<!-- Node17&#45;&gt;Node19 -->
<g id="edge24_Node000017_Node000019" class="edge">
<title>Node17&#45;&gt;Node19</title>
<g id="a_edge24_Node000017_Node000019"><a xlink:title=" ">
<path fill="none" stroke="#63b8ff" d="M838.47,-170.49C859.72,-160.7 894.85,-144.52 919.37,-133.23"/>
<polygon fill="#63b8ff" stroke="#63b8ff" points="920.89,-136.38 928.51,-129.02 917.96,-130.02 920.89,-136.38"/>
</a>
</g>
</g>
<!-- Node20 -->
<g id="Node000020" class="node">
<title>Node20</title>
<g id="a_Node000020"><a xlink:title=" ">
<polygon fill="#e0e0e0" stroke="#999999" points="1061,-129 1011,-129 1011,-110 1061,-110 1061,-129"/>
<text text-anchor="middle" x="1036" y="-117" font-family="Helvetica,sans-Serif" font-size="10.00">QLabel</text>
</a>
</g>
</g>
<!-- Node17&#45;&gt;Node20 -->
<g id="edge25_Node000017_Node000020" class="edge">
<title>Node17&#45;&gt;Node20</title>
<g id="a_edge25_Node000017_Node000020"><a xlink:title=" ">
<path fill="none" stroke="#63b8ff" d="M851.41,-170.49C891.29,-159.69 959.9,-141.11 1001.3,-129.9"/>
<polygon fill="#63b8ff" stroke="#63b8ff" points="1002.21,-133.28 1010.95,-127.28 1000.38,-126.52 1002.21,-133.28"/>
</a>
</g>
</g>
<!-- Node21&#45;&gt;Node10 -->
<g id="edge28_Node000021_Node000010" class="edge">
<title>Node21&#45;&gt;Node10</title>
<g id="a_edge28_Node000021_Node000010"><a xlink:title=" ">
<path fill="none" stroke="#63b8ff" d="M493.3,-164.99C531.79,-154.27 583.88,-139.75 617.95,-130.26"/>
<polygon fill="#63b8ff" stroke="#63b8ff" points="619.21,-133.54 627.91,-127.49 617.34,-126.8 619.21,-133.54"/>
</a>
</g>
</g>
<!-- Node21&#45;&gt;Node11 -->
<g id="edge29_Node000021_Node000011" class="edge">
<title>Node21&#45;&gt;Node11</title>
<g id="a_edge29_Node000021_Node000011"><a xlink:title=" ">
<path fill="none" stroke="#63b8ff" d="M426.05,-164.84C415.58,-156.09 402.14,-144.85 391.41,-135.88"/>
<polygon fill="#63b8ff" stroke="#63b8ff" points="393.41,-132.99 383.49,-129.27 388.92,-138.36 393.41,-132.99"/>
</a>
</g>
</g>
<!-- Node21&#45;&gt;Node12 -->
<g id="edge30_Node000021_Node000012" class="edge">
<title>Node21&#45;&gt;Node12</title>
<g id="a_edge30_Node000021_Node000012"><a xlink:title=" ">
<path fill="none" stroke="#63b8ff" d="M445.66,-164.84C447.11,-157.13 448.93,-147.49 450.49,-139.17"/>
<polygon fill="#63b8ff" stroke="#63b8ff" points="453.94,-139.74 452.35,-129.27 447.06,-138.45 453.94,-139.74"/>
</a>
</g>
</g>
<!-- Node21&#45;&gt;Node13 -->
<g id="edge31_Node000021_Node000013" class="edge">
<title>Node21&#45;&gt;Node13</title>
<g id="a_edge31_Node000021_Node000013"><a xlink:title=" ">
<path fill="none" stroke="#63b8ff" d="M391.54,-164.95C356.89,-152.95 320.88,-133.87 341,-110 368.99,-76.79 498.62,-68.36 563.21,-66.23"/>
<polygon fill="#63b8ff" stroke="#63b8ff" points="563.47,-69.72 573.36,-65.92 563.26,-62.72 563.47,-69.72"/>
</a>
</g>
</g>
<!-- Node21&#45;&gt;Node14 -->
<g id="edge32_Node000021_Node000014" class="edge">
<title>Node21&#45;&gt;Node14</title>
<g id="a_edge32_Node000021_Node000014"><a xlink:title=" ">
<path fill="none" stroke="#63b8ff" d="M466.71,-164.99C482.35,-155.75 502.74,-143.7 518.36,-134.47"/>
<polygon fill="#63b8ff" stroke="#63b8ff" points="520.55,-137.24 527.38,-129.14 516.99,-131.21 520.55,-137.24"/>
</a>
</g>
</g>
<!-- Node21&#45;&gt;Node15 -->
<g id="edge33_Node000021_Node000015" class="edge">
<title>Node21&#45;&gt;Node15</title>
<g id="a_edge33_Node000021_Node000015"><a xlink:title=" ">
<path fill="none" stroke="#63b8ff" d="M518.21,-164.99C574.51,-154.5 650.28,-140.38 701.24,-130.89"/>
<polygon fill="#63b8ff" stroke="#63b8ff" points="701.9,-134.33 711.09,-129.05 700.62,-127.44 701.9,-134.33"/>
</a>
</g>
</g>
</g>
</svg>

<g id="navigator" transform="translate(0 0)" fill="#404254">
  <rect fill="#f2f5e9" fill-opacity="0.5" stroke="#606060" stroke-width=".5" x="0" y="0" width="60" height="60"/>
  <use id="zoomplus" xlink:href="#zoomPlus" x="17" y="9" onmousedown="handleZoom(evt,'in')"/>
  <use id="zoomminus" xlink:href="#zoomMin" x="42" y="9" onmousedown="handleZoom(evt,'out')"/>
  <use id="reset" xlink:href="#resetDef" x="30" y="36" onmousedown="handleReset()"/>
   <use id="arrowup" xlink:href="#arrowUp" x="0" y="0" onmousedown="handlePan(0,-1)"/>
  <use id="arrowright" xlink:href="#arrowRight" x="0" y="0" onmousedown="handlePan(1,0)"/>
  <use id="arrowdown" xlink:href="#arrowDown" x="0" y="0" onmousedown="handlePan(0,1)"/>
  <use id="arrowleft" xlink:href="#arrowLeft" x="0" y="0" onmousedown="handlePan(-1,0)"/>
</g>
<svg viewBox="0 0 15 15" width="100%" height="30px" preserveAspectRatio="xMaxYMin meet">
 <g id="arrow_out" transform="scale(0.3 0.3)">
  <a xlink:href="OverlayLayoutAdapter_8cpp__incl_org.svg" target="_base">
   <rect id="button" ry="5" rx="5" y="6" x="6" height="38" width="38"
        fill="#f2f5e9" fill-opacity="0.5" stroke="#606060" stroke-width="1.0"/>
   <path id="arrow"
     d="M 11.500037,31.436501 C 11.940474,20.09759 22.043105,11.32322 32.158766,21.979434 L 37.068811,17.246167 C 37.068811,17.246167 37.088388,32 37.088388,32 L 22.160133,31.978069 C 22.160133,31.978069 26.997745,27.140456 26.997745,27.140456 C 18.528582,18.264221 13.291696,25.230495 11.500037,31.436501 z"
     style="fill:#404040;"/>
  </a>
 </g>
</svg>

<style type='text/css'>
<![CDATA[
[data-mouse-over-selected='false'] { opacity: 0.7; }
[data-mouse-over-selected='true']  { opacity: 1.0; }
]]>
</style>
<script type="application/ecmascript"><![CDATA[
document.addEventListener('DOMContentLoaded', (event) => {
  highlightEdges();
  highlightAdjacentNodes();
});
]]></script>
</svg>
