<?xml version="1.0" encoding="UTF-8" standalone="no"?>
<!DOCTYPE svg PUBLIC "-//W3C//DTD SVG 1.1//EN"
 "http://www.w3.org/Graphics/SVG/1.1/DTD/svg11.dtd">
<!-- Generated by graphviz version 2.43.0 (0)
 -->
<!-- Title: src/render/include/render/RenderScheduler.hpp Pages: 1 -->
<svg width="403pt" height="148pt"
 viewBox="0.00 0.00 403.05 148.00" xmlns="http://www.w3.org/2000/svg" xmlns:xlink="http://www.w3.org/1999/xlink">

<svg id="main" version="1.1" xmlns="http://www.w3.org/2000/svg" xmlns:xlink="http://www.w3.org/1999/xlink" xml:space="preserve" onload="init(evt)">
<style type="text/css"><![CDATA[
.node, .edge {opacity: 0.7;}
.node.selected, .edge.selected {opacity: 1;}
.edge:hover path { stroke: red; }
.edge:hover polygon { stroke: red; fill: red; }
]]></style>
<script type="application/ecmascript" xlink:href="svg.min.js"/>
<svg id="graph" class="graph">
<g id="graph0" class="graph" transform="scale(1 1) rotate(0) translate(4 144)">
<title>src/render/include/render/RenderScheduler.hpp</title>
<!-- Node1 -->
<g id="Node000001" class="node">
<title>Node1</title>
<g id="a_Node000001"><a xlink:title=" ">
<polygon fill="#999999" stroke="#666666" points="212.55,-140 55.55,-140 55.55,-110 212.55,-110 212.55,-140"/>
<text text-anchor="start" x="63.55" y="-128" font-family="Helvetica,sans-Serif" font-size="10.00">src/render/include</text>
<text text-anchor="middle" x="134.05" y="-117" font-family="Helvetica,sans-Serif" font-size="10.00">/render/RenderScheduler.hpp</text>
</a>
</g>
</g>
<!-- Node2 -->
<g id="Node000002" class="node">
<title>Node2</title>
<g id="a_Node000002"><a xlink:title=" ">
<polygon fill="#e0e0e0" stroke="#999999" points="183.55,-19 130.55,-19 130.55,0 183.55,0 183.55,-19"/>
<text text-anchor="middle" x="157.05" y="-7" font-family="Helvetica,sans-Serif" font-size="10.00">cstddef</text>
</a>
</g>
</g>
<!-- Node1&#45;&gt;Node2 -->
<g id="edge1_Node000001_Node000002" class="edge">
<title>Node1&#45;&gt;Node2</title>
<g id="a_edge1_Node000001_Node000002"><a xlink:title=" ">
<path fill="none" stroke="#63b8ff" d="M59,-109.9C20.74,-99.2 -13.91,-81.69 6.05,-55 32.26,-19.94 84.79,-11.33 120.44,-9.8"/>
<polygon fill="#63b8ff" stroke="#63b8ff" points="120.56,-13.3 130.46,-9.54 120.37,-6.3 120.56,-13.3"/>
</a>
</g>
</g>
<!-- Node3 -->
<g id="Node000003" class="node">
<title>Node3</title>
<g id="a_Node000003"><a xlink:title=" ">
<polygon fill="#e0e0e0" stroke="#999999" points="73.05,-74 15.05,-74 15.05,-55 73.05,-55 73.05,-74"/>
<text text-anchor="middle" x="44.05" y="-62" font-family="Helvetica,sans-Serif" font-size="10.00">memory</text>
</a>
</g>
</g>
<!-- Node1&#45;&gt;Node3 -->
<g id="edge2_Node000001_Node000003" class="edge">
<title>Node1&#45;&gt;Node3</title>
<g id="a_edge2_Node000001_Node000003"><a xlink:title=" ">
<path fill="none" stroke="#63b8ff" d="M112.26,-109.84C98.18,-100.68 79.92,-88.82 65.83,-79.66"/>
<polygon fill="#63b8ff" stroke="#63b8ff" points="67.56,-76.61 57.27,-74.09 63.74,-82.48 67.56,-76.61"/>
</a>
</g>
</g>
<!-- Node4 -->
<g id="Node000004" class="node">
<title>Node4</title>
<g id="a_Node000004"><a xlink:title=" ">
<polygon fill="#e0e0e0" stroke="#999999" points="177.05,-74 91.05,-74 91.05,-55 177.05,-55 177.05,-74"/>
<text text-anchor="middle" x="134.05" y="-62" font-family="Helvetica,sans-Serif" font-size="10.00">unordered_set</text>
</a>
</g>
</g>
<!-- Node1&#45;&gt;Node4 -->
<g id="edge3_Node000001_Node000004" class="edge">
<title>Node1&#45;&gt;Node4</title>
<g id="a_edge3_Node000001_Node000004"><a xlink:title=" ">
<path fill="none" stroke="#63b8ff" d="M134.05,-109.84C134.05,-102.21 134.05,-92.7 134.05,-84.45"/>
<polygon fill="#63b8ff" stroke="#63b8ff" points="137.55,-84.27 134.05,-74.27 130.55,-84.27 137.55,-84.27"/>
</a>
</g>
</g>
<!-- Node5 -->
<g id="Node000005" class="node">
<title>Node5</title>
<g id="a_Node000005"><a xlink:title=" ">
<polygon fill="#e0e0e0" stroke="#999999" points="242.55,-74 195.55,-74 195.55,-55 242.55,-55 242.55,-74"/>
<text text-anchor="middle" x="219.05" y="-62" font-family="Helvetica,sans-Serif" font-size="10.00">vector</text>
</a>
</g>
</g>
<!-- Node1&#45;&gt;Node5 -->
<g id="edge4_Node000001_Node000005" class="edge">
<title>Node1&#45;&gt;Node5</title>
<g id="a_edge4_Node000001_Node000005"><a xlink:title=" ">
<path fill="none" stroke="#63b8ff" d="M154.62,-109.84C167.72,-100.83 184.63,-89.18 197.85,-80.09"/>
<polygon fill="#63b8ff" stroke="#63b8ff" points="200.06,-82.82 206.31,-74.27 196.09,-77.05 200.06,-82.82"/>
</a>
</g>
</g>
<!-- Node6 -->
<g id="Node000006" class="node">
<title>Node6</title>
<g id="a_Node000006"><a xlink:href="RenderTypes_8hpp.html" target="_top" xlink:title=" ">
<polygon fill="white" stroke="#666666" points="395.05,-74 261.05,-74 261.05,-55 395.05,-55 395.05,-74"/>
<text text-anchor="middle" x="328.05" y="-62" font-family="Helvetica,sans-Serif" font-size="10.00">render/RenderTypes.hpp</text>
</a>
</g>
</g>
<!-- Node1&#45;&gt;Node6 -->
<g id="edge5_Node000001_Node000006" class="edge">
<title>Node1&#45;&gt;Node6</title>
<g id="a_edge5_Node000001_Node000006"><a xlink:title=" ">
<path fill="none" stroke="#63b8ff" d="M180.51,-109.99C213.99,-99.89 258.62,-86.44 289.99,-76.98"/>
<polygon fill="#63b8ff" stroke="#63b8ff" points="291.12,-80.29 299.68,-74.05 289.09,-73.59 291.12,-80.29"/>
</a>
</g>
</g>
<!-- Node6&#45;&gt;Node2 -->
<g id="edge6_Node000006_Node000002" class="edge">
<title>Node6&#45;&gt;Node2</title>
<g id="a_edge6_Node000006_Node000002"><a xlink:title=" ">
<path fill="none" stroke="#63b8ff" d="M300.57,-54.98C271.52,-45.98 225.55,-31.73 193.49,-21.8"/>
<polygon fill="#63b8ff" stroke="#63b8ff" points="194.19,-18.35 183.61,-18.73 192.12,-25.04 194.19,-18.35"/>
</a>
</g>
</g>
</g>
</svg>
</svg>

<style type='text/css'>
<![CDATA[
[data-mouse-over-selected='false'] { opacity: 0.7; }
[data-mouse-over-selected='true']  { opacity: 1.0; }
]]>
</style>
<script type="application/ecmascript"><![CDATA[
document.addEventListener('DOMContentLoaded', (event) => {
  highlightEdges();
  highlightAdjacentNodes();
});
]]></script>
</svg>
