<?xml version="1.0" encoding="UTF-8" standalone="no"?>
<!DOCTYPE svg PUBLIC "-//W3C//DTD SVG 1.1//EN"
 "http://www.w3.org/Graphics/SVG/1.1/DTD/svg11.dtd">
<!-- Generated by graphviz version 2.43.0 (0)
 -->
<!-- Title: lib/include/XQVtkViewport/RenderStats.hpp Pages: 1 -->
<svg width="498pt" height="225pt"
 viewBox="0.00 0.00 498.00 225.00" xmlns="http://www.w3.org/2000/svg" xmlns:xlink="http://www.w3.org/1999/xlink">
<g id="graph0" class="graph" transform="scale(1 1) rotate(0) translate(4 221)">
<title>lib/include/XQVtkViewport/RenderStats.hpp</title>
<!-- Node1 -->
<g id="Node000001" class="node">
<title>Node1</title>
<g id="a_Node000001"><a xlink:title=" ">
<polygon fill="#999999" stroke="#666666" points="294,-217 150,-217 150,-187 294,-187 294,-217"/>
<text text-anchor="start" x="158" y="-205" font-family="Helvetica,sans-Serif" font-size="10.00">lib/include/XQVtkViewport</text>
<text text-anchor="middle" x="222" y="-194" font-family="Helvetica,sans-Serif" font-size="10.00">/RenderStats.hpp</text>
</a>
</g>
</g>
<!-- Node2 -->
<g id="Node000002" class="node">
<title>Node2</title>
<g id="a_Node000002"><a xlink:href="IViewportObserver_8hpp.html" target="_top" xlink:title=" ">
<polygon fill="white" stroke="#666666" points="144,-151 0,-151 0,-121 144,-121 144,-151"/>
<text text-anchor="start" x="8" y="-139" font-family="Helvetica,sans-Serif" font-size="10.00">lib/include/XQVtkViewport</text>
<text text-anchor="middle" x="72" y="-128" font-family="Helvetica,sans-Serif" font-size="10.00">/IViewportObserver.hpp</text>
</a>
</g>
</g>
<!-- Node1&#45;&gt;Node2 -->
<g id="edge1_Node000001_Node000002" class="edge">
<title>Node1&#45;&gt;Node2</title>
<g id="a_edge1_Node000001_Node000002"><a xlink:title=" ">
<path fill="none" stroke="#63b8ff" d="M179.62,-182.92C155.92,-172.8 126.81,-160.38 104.84,-151.01"/>
<polygon fill="#63b8ff" stroke="#63b8ff" points="178.51,-186.25 189.08,-186.95 181.26,-179.81 178.51,-186.25"/>
</a>
</g>
</g>
<!-- Node3 -->
<g id="Node000003" class="node">
<title>Node3</title>
<g id="a_Node000003"><a xlink:href="ViewportManager_8hpp.html" target="_top" xlink:title=" ">
<polygon fill="white" stroke="#666666" points="194,-85 50,-85 50,-55 194,-55 194,-85"/>
<text text-anchor="start" x="58" y="-73" font-family="Helvetica,sans-Serif" font-size="10.00">lib/include/XQVtkViewport</text>
<text text-anchor="middle" x="122" y="-62" font-family="Helvetica,sans-Serif" font-size="10.00">/ViewportManager.hpp</text>
</a>
</g>
</g>
<!-- Node1&#45;&gt;Node3 -->
<g id="edge7_Node000001_Node000003" class="edge">
<title>Node1&#45;&gt;Node3</title>
<g id="a_edge7_Node000001_Node000003"><a xlink:title=" ">
<path fill="none" stroke="#63b8ff" d="M204.92,-178.8C184.3,-151.99 150.23,-107.7 132.88,-85.14"/>
<polygon fill="#63b8ff" stroke="#63b8ff" points="202.24,-181.05 211.11,-186.84 207.78,-176.78 202.24,-181.05"/>
</a>
</g>
</g>
<!-- Node5 -->
<g id="Node000005" class="node">
<title>Node5</title>
<g id="a_Node000005"><a xlink:href="RenderStatsOverlay_8hpp.html" target="_top" xlink:title=" ">
<polygon fill="white" stroke="#666666" points="344,-151 200,-151 200,-121 344,-121 344,-151"/>
<text text-anchor="start" x="208" y="-139" font-family="Helvetica,sans-Serif" font-size="10.00">lib/include/XQVtkViewport</text>
<text text-anchor="middle" x="272" y="-128" font-family="Helvetica,sans-Serif" font-size="10.00">/RenderStatsOverlay.hpp</text>
</a>
</g>
</g>
<!-- Node1&#45;&gt;Node5 -->
<g id="edge4_Node000001_Node000005" class="edge">
<title>Node1&#45;&gt;Node5</title>
<g id="a_edge4_Node000001_Node000005"><a xlink:title=" ">
<path fill="none" stroke="#63b8ff" d="M239.34,-178.81C246.5,-169.64 254.6,-159.28 260.93,-151.16"/>
<polygon fill="#63b8ff" stroke="#63b8ff" points="236.5,-176.76 233.1,-186.8 242.01,-181.07 236.5,-176.76"/>
</a>
</g>
</g>
<!-- Node7 -->
<g id="Node000007" class="node">
<title>Node7</title>
<g id="a_Node000007"><a xlink:href="RenderStats_8cpp.html" target="_top" xlink:title=" ">
<polygon fill="white" stroke="#666666" points="490,-145.5 362,-145.5 362,-126.5 490,-126.5 490,-145.5"/>
<text text-anchor="middle" x="426" y="-133.5" font-family="Helvetica,sans-Serif" font-size="10.00">lib/src/RenderStats.cpp</text>
</a>
</g>
</g>
<!-- Node1&#45;&gt;Node7 -->
<g id="edge8_Node000001_Node000007" class="edge">
<title>Node1&#45;&gt;Node7</title>
<g id="a_edge8_Node000001_Node000007"><a xlink:title=" ">
<path fill="none" stroke="#63b8ff" d="M276.53,-183.89C316.03,-171.5 367.76,-155.27 398.85,-145.52"/>
<polygon fill="#63b8ff" stroke="#63b8ff" points="275.26,-180.62 266.77,-186.95 277.36,-187.3 275.26,-180.62"/>
</a>
</g>
</g>
<!-- Node2&#45;&gt;Node3 -->
<g id="edge2_Node000002_Node000003" class="edge">
<title>Node2&#45;&gt;Node3</title>
<g id="a_edge2_Node000002_Node000003"><a xlink:title=" ">
<path fill="none" stroke="#63b8ff" d="M89.34,-112.81C96.5,-103.64 104.6,-93.28 110.93,-85.16"/>
<polygon fill="#63b8ff" stroke="#63b8ff" points="86.5,-110.76 83.1,-120.8 92.01,-115.07 86.5,-110.76"/>
</a>
</g>
</g>
<!-- Node4 -->
<g id="Node000004" class="node">
<title>Node4</title>
<g id="a_Node000004"><a xlink:href="ViewportManager_8cpp.html" target="_top" xlink:title=" ">
<polygon fill="white" stroke="#666666" points="249.5,-19 94.5,-19 94.5,0 249.5,0 249.5,-19"/>
<text text-anchor="middle" x="172" y="-7" font-family="Helvetica,sans-Serif" font-size="10.00">lib/src/ViewportManager.cpp</text>
</a>
</g>
</g>
<!-- Node3&#45;&gt;Node4 -->
<g id="edge3_Node000003_Node000004" class="edge">
<title>Node3&#45;&gt;Node4</title>
<g id="a_edge3_Node000003_Node000004"><a xlink:title=" ">
<path fill="none" stroke="#63b8ff" d="M140.73,-47.09C148.99,-37.42 158.23,-26.61 164.51,-19.27"/>
<polygon fill="#63b8ff" stroke="#63b8ff" points="137.94,-44.96 134.1,-54.84 143.26,-49.51 137.94,-44.96"/>
</a>
</g>
</g>
<!-- Node5&#45;&gt;Node4 -->
<g id="edge6_Node000005_Node000004" class="edge">
<title>Node5&#45;&gt;Node4</title>
<g id="a_edge6_Node000005_Node000004"><a xlink:title=" ">
<path fill="none" stroke="#63b8ff" d="M254.08,-112.69C231.62,-84.73 194.22,-38.17 178.88,-19.07"/>
<polygon fill="#63b8ff" stroke="#63b8ff" points="251.54,-115.11 260.53,-120.72 257,-110.73 251.54,-115.11"/>
</a>
</g>
</g>
<!-- Node6 -->
<g id="Node000006" class="node">
<title>Node6</title>
<g id="a_Node000006"><a xlink:href="RenderStatsOverlay_8cpp.html" target="_top" xlink:title=" ">
<polygon fill="white" stroke="#666666" points="415.5,-79.5 250.5,-79.5 250.5,-60.5 415.5,-60.5 415.5,-79.5"/>
<text text-anchor="middle" x="333" y="-67.5" font-family="Helvetica,sans-Serif" font-size="10.00">lib/src/RenderStatsOverlay.cpp</text>
</a>
</g>
</g>
<!-- Node5&#45;&gt;Node6 -->
<g id="edge5_Node000005_Node000006" class="edge">
<title>Node5&#45;&gt;Node6</title>
<g id="a_edge5_Node000005_Node000006"><a xlink:title=" ">
<path fill="none" stroke="#63b8ff" d="M292.71,-113.27C303.61,-101.84 316.38,-88.44 324.57,-79.84"/>
<polygon fill="#63b8ff" stroke="#63b8ff" points="289.9,-111.14 285.54,-120.8 294.97,-115.97 289.9,-111.14"/>
</a>
</g>
</g>
</g>
</svg>
