<?xml version="1.0" encoding="UTF-8" standalone="no"?>
<!DOCTYPE svg PUBLIC "-//W3C//DTD SVG 1.1//EN"
 "http://www.w3.org/Graphics/SVG/1.1/DTD/svg11.dtd">
<!-- Generated by graphviz version 2.43.0 (0)
 -->
<!-- Title: src/render/src/RenderScheduler.cpp Pages: 1 -->
<svg width="823pt" height="192pt"
 viewBox="0.00 0.00 822.95 192.00" xmlns="http://www.w3.org/2000/svg" xmlns:xlink="http://www.w3.org/1999/xlink">
<g id="graph0" class="graph" transform="scale(1 1) rotate(0) translate(4 188)">
<title>src/render/src/RenderScheduler.cpp</title>
<!-- Node1 -->
<g id="Node000001" class="node">
<title>Node1</title>
<g id="a_Node000001"><a xlink:title=" ">
<polygon fill="#999999" stroke="#666666" points="512.95,-184 324.95,-184 324.95,-165 512.95,-165 512.95,-184"/>
<text text-anchor="middle" x="418.95" y="-172" font-family="Helvetica,sans-Serif" font-size="10.00">src/render/src/RenderScheduler.cpp</text>
</a>
</g>
</g>
<!-- Node2 -->
<g id="Node000002" class="node">
<title>Node2</title>
<g id="a_Node000002"><a xlink:href="RenderScheduler_8hpp.html" target="_top" xlink:title=" ">
<polygon fill="white" stroke="#666666" points="210.95,-129 56.95,-129 56.95,-110 210.95,-110 210.95,-129"/>
<text text-anchor="middle" x="133.95" y="-117" font-family="Helvetica,sans-Serif" font-size="10.00">render/RenderScheduler.hpp</text>
</a>
</g>
</g>
<!-- Node1&#45;&gt;Node2 -->
<g id="edge1_Node000001_Node000002" class="edge">
<title>Node1&#45;&gt;Node2</title>
<g id="a_edge1_Node000001_Node000002"><a xlink:title=" ">
<path fill="none" stroke="#63b8ff" d="M373.16,-164.98C323.34,-155.72 243.67,-140.9 190.11,-130.94"/>
<polygon fill="#63b8ff" stroke="#63b8ff" points="190.57,-127.47 180.1,-129.08 189.29,-134.35 190.57,-127.47"/>
</a>
</g>
</g>
<!-- Node8 -->
<g id="Node000008" class="node">
<title>Node8</title>
<g id="a_Node000008"><a xlink:title=" ">
<polygon fill="#e0e0e0" stroke="#999999" points="368.95,-129 228.95,-129 228.95,-110 368.95,-110 368.95,-129"/>
<text text-anchor="middle" x="298.95" y="-117" font-family="Helvetica,sans-Serif" font-size="10.00">vtkResliceImageViewer.h</text>
</a>
</g>
</g>
<!-- Node1&#45;&gt;Node8 -->
<g id="edge8_Node000001_Node000008" class="edge">
<title>Node1&#45;&gt;Node8</title>
<g id="a_edge8_Node000001_Node000008"><a xlink:title=" ">
<path fill="none" stroke="#63b8ff" d="M399.67,-164.98C380.28,-156.42 350.14,-143.11 327.88,-133.28"/>
<polygon fill="#63b8ff" stroke="#63b8ff" points="329.14,-130.01 318.58,-129.17 326.31,-136.41 329.14,-130.01"/>
</a>
</g>
</g>
<!-- Node9 -->
<g id="Node000009" class="node">
<title>Node9</title>
<g id="a_Node000009"><a xlink:title=" ">
<polygon fill="#e0e0e0" stroke="#999999" points="450.95,-129 386.95,-129 386.95,-110 450.95,-110 450.95,-129"/>
<text text-anchor="middle" x="418.95" y="-117" font-family="Helvetica,sans-Serif" font-size="10.00">algorithm</text>
</a>
</g>
</g>
<!-- Node1&#45;&gt;Node9 -->
<g id="edge9_Node000001_Node000009" class="edge">
<title>Node1&#45;&gt;Node9</title>
<g id="a_edge9_Node000001_Node000009"><a xlink:title=" ">
<path fill="none" stroke="#63b8ff" d="M418.95,-164.75C418.95,-157.8 418.95,-147.85 418.95,-139.13"/>
<polygon fill="#63b8ff" stroke="#63b8ff" points="422.45,-139.09 418.95,-129.09 415.45,-139.09 422.45,-139.09"/>
</a>
</g>
</g>
<!-- Node10 -->
<g id="Node000010" class="node">
<title>Node10</title>
<g id="a_Node000010"><a xlink:href="RivRenderTarget_8hpp.html" target="_top" xlink:title=" ">
<polygon fill="white" stroke="#666666" points="620.95,-129 468.95,-129 468.95,-110 620.95,-110 620.95,-129"/>
<text text-anchor="middle" x="544.95" y="-117" font-family="Helvetica,sans-Serif" font-size="10.00">render/RivRenderTarget.hpp</text>
</a>
</g>
</g>
<!-- Node1&#45;&gt;Node10 -->
<g id="edge10_Node000001_Node000010" class="edge">
<title>Node1&#45;&gt;Node10</title>
<g id="a_edge10_Node000001_Node000010"><a xlink:title=" ">
<path fill="none" stroke="#63b8ff" d="M439.19,-164.98C459.64,-156.38 491.48,-142.99 514.88,-133.15"/>
<polygon fill="#63b8ff" stroke="#63b8ff" points="516.48,-136.27 524.34,-129.17 513.76,-129.82 516.48,-136.27"/>
</a>
</g>
</g>
<!-- Node12 -->
<g id="Node000012" class="node">
<title>Node12</title>
<g id="a_Node000012"><a xlink:href="WindowRenderTarget_8hpp.html" target="_top" xlink:title=" ">
<polygon fill="white" stroke="#666666" points="814.95,-129 638.95,-129 638.95,-110 814.95,-110 814.95,-129"/>
<text text-anchor="middle" x="726.95" y="-117" font-family="Helvetica,sans-Serif" font-size="10.00">render/WindowRenderTarget.hpp</text>
</a>
</g>
</g>
<!-- Node1&#45;&gt;Node12 -->
<g id="edge12_Node000001_Node000012" class="edge">
<title>Node1&#45;&gt;Node12</title>
<g id="a_edge12_Node000001_Node000012"><a xlink:title=" ">
<path fill="none" stroke="#63b8ff" d="M468.43,-164.98C522.57,-155.67 609.35,-140.74 667.23,-130.78"/>
<polygon fill="#63b8ff" stroke="#63b8ff" points="668.07,-134.18 677.33,-129.04 666.88,-127.28 668.07,-134.18"/>
</a>
</g>
</g>
<!-- Node3 -->
<g id="Node000003" class="node">
<title>Node3</title>
<g id="a_Node000003"><a xlink:title=" ">
<polygon fill="#e0e0e0" stroke="#999999" points="183.45,-19 130.45,-19 130.45,0 183.45,0 183.45,-19"/>
<text text-anchor="middle" x="156.95" y="-7" font-family="Helvetica,sans-Serif" font-size="10.00">cstddef</text>
</a>
</g>
</g>
<!-- Node2&#45;&gt;Node3 -->
<g id="edge2_Node000002_Node000003" class="edge">
<title>Node2&#45;&gt;Node3</title>
<g id="a_edge2_Node000002_Node000003"><a xlink:title=" ">
<path fill="none" stroke="#63b8ff" d="M73.52,-109.92C30.49,-101.14 -16.11,-84.5 5.95,-55 32.17,-19.94 84.7,-11.33 120.34,-9.8"/>
<polygon fill="#63b8ff" stroke="#63b8ff" points="120.46,-13.3 130.37,-9.54 120.28,-6.3 120.46,-13.3"/>
</a>
</g>
</g>
<!-- Node4 -->
<g id="Node000004" class="node">
<title>Node4</title>
<g id="a_Node000004"><a xlink:title=" ">
<polygon fill="#e0e0e0" stroke="#999999" points="72.95,-74 14.95,-74 14.95,-55 72.95,-55 72.95,-74"/>
<text text-anchor="middle" x="43.95" y="-62" font-family="Helvetica,sans-Serif" font-size="10.00">memory</text>
</a>
</g>
</g>
<!-- Node2&#45;&gt;Node4 -->
<g id="edge3_Node000002_Node000004" class="edge">
<title>Node2&#45;&gt;Node4</title>
<g id="a_edge3_Node000002_Node000004"><a xlink:title=" ">
<path fill="none" stroke="#63b8ff" d="M119.49,-109.98C105.53,-101.77 84.15,-89.18 67.7,-79.49"/>
<polygon fill="#63b8ff" stroke="#63b8ff" points="69.06,-76.23 58.67,-74.17 65.51,-82.26 69.06,-76.23"/>
</a>
</g>
</g>
<!-- Node5 -->
<g id="Node000005" class="node">
<title>Node5</title>
<g id="a_Node000005"><a xlink:title=" ">
<polygon fill="#e0e0e0" stroke="#999999" points="176.95,-74 90.95,-74 90.95,-55 176.95,-55 176.95,-74"/>
<text text-anchor="middle" x="133.95" y="-62" font-family="Helvetica,sans-Serif" font-size="10.00">unordered_set</text>
</a>
</g>
</g>
<!-- Node2&#45;&gt;Node5 -->
<g id="edge4_Node000002_Node000005" class="edge">
<title>Node2&#45;&gt;Node5</title>
<g id="a_edge4_Node000002_Node000005"><a xlink:title=" ">
<path fill="none" stroke="#63b8ff" d="M133.95,-109.75C133.95,-102.8 133.95,-92.85 133.95,-84.13"/>
<polygon fill="#63b8ff" stroke="#63b8ff" points="137.45,-84.09 133.95,-74.09 130.45,-84.09 137.45,-84.09"/>
</a>
</g>
</g>
<!-- Node6 -->
<g id="Node000006" class="node">
<title>Node6</title>
<g id="a_Node000006"><a xlink:title=" ">
<polygon fill="#e0e0e0" stroke="#999999" points="242.45,-74 195.45,-74 195.45,-55 242.45,-55 242.45,-74"/>
<text text-anchor="middle" x="218.95" y="-62" font-family="Helvetica,sans-Serif" font-size="10.00">vector</text>
</a>
</g>
</g>
<!-- Node2&#45;&gt;Node6 -->
<g id="edge5_Node000002_Node000006" class="edge">
<title>Node2&#45;&gt;Node6</title>
<g id="a_edge5_Node000002_Node000006"><a xlink:title=" ">
<path fill="none" stroke="#63b8ff" d="M147.61,-109.98C160.79,-101.77 180.98,-89.18 196.52,-79.49"/>
<polygon fill="#63b8ff" stroke="#63b8ff" points="198.41,-82.43 205.04,-74.17 194.71,-76.49 198.41,-82.43"/>
</a>
</g>
</g>
<!-- Node7 -->
<g id="Node000007" class="node">
<title>Node7</title>
<g id="a_Node000007"><a xlink:href="RenderTypes_8hpp.html" target="_top" xlink:title=" ">
<polygon fill="white" stroke="#666666" points="394.95,-74 260.95,-74 260.95,-55 394.95,-55 394.95,-74"/>
<text text-anchor="middle" x="327.95" y="-62" font-family="Helvetica,sans-Serif" font-size="10.00">render/RenderTypes.hpp</text>
</a>
</g>
</g>
<!-- Node2&#45;&gt;Node7 -->
<g id="edge6_Node000002_Node000007" class="edge">
<title>Node2&#45;&gt;Node7</title>
<g id="a_edge6_Node000002_Node000007"><a xlink:title=" ">
<path fill="none" stroke="#63b8ff" d="M165.12,-109.98C198.11,-100.97 250.34,-86.7 286.72,-76.76"/>
<polygon fill="#63b8ff" stroke="#63b8ff" points="287.81,-80.09 296.53,-74.08 285.97,-73.34 287.81,-80.09"/>
</a>
</g>
</g>
<!-- Node7&#45;&gt;Node3 -->
<g id="edge7_Node000007_Node000003" class="edge">
<title>Node7&#45;&gt;Node3</title>
<g id="a_edge7_Node000007_Node000003"><a xlink:title=" ">
<path fill="none" stroke="#63b8ff" d="M300.47,-54.98C271.42,-45.98 225.45,-31.73 193.39,-21.8"/>
<polygon fill="#63b8ff" stroke="#63b8ff" points="194.1,-18.35 183.51,-18.73 192.03,-25.04 194.1,-18.35"/>
</a>
</g>
</g>
<!-- Node11 -->
<g id="Node000011" class="node">
<title>Node11</title>
<g id="a_Node000011"><a xlink:href="IRenderTarget_8hpp.html" target="_top" xlink:title=" ">
<polygon fill="white" stroke="#666666" points="705.95,-74 565.95,-74 565.95,-55 705.95,-55 705.95,-74"/>
<text text-anchor="middle" x="635.95" y="-62" font-family="Helvetica,sans-Serif" font-size="10.00">render/IRenderTarget.hpp</text>
</a>
</g>
</g>
<!-- Node10&#45;&gt;Node11 -->
<g id="edge11_Node000010_Node000011" class="edge">
<title>Node10&#45;&gt;Node11</title>
<g id="a_edge11_Node000010_Node000011"><a xlink:title=" ">
<path fill="none" stroke="#63b8ff" d="M559.57,-109.98C573.81,-101.69 595.7,-88.94 612.4,-79.22"/>
<polygon fill="#63b8ff" stroke="#63b8ff" points="614.18,-82.23 621.06,-74.17 610.66,-76.18 614.18,-82.23"/>
</a>
</g>
</g>
<!-- Node12&#45;&gt;Node11 -->
<g id="edge13_Node000012_Node000011" class="edge">
<title>Node12&#45;&gt;Node11</title>
<g id="a_edge13_Node000012_Node000011"><a xlink:title=" ">
<path fill="none" stroke="#63b8ff" d="M712.33,-109.98C698.08,-101.69 676.2,-88.94 659.5,-79.22"/>
<polygon fill="#63b8ff" stroke="#63b8ff" points="661.24,-76.18 650.84,-74.17 657.71,-82.23 661.24,-76.18"/>
</a>
</g>
</g>
</g>
</svg>
