<?xml version="1.0" encoding="UTF-8" standalone="no"?>
<!DOCTYPE svg PUBLIC "-//W3C//DTD SVG 1.1//EN"
 "http://www.w3.org/Graphics/SVG/1.1/DTD/svg11.dtd">
<!-- Generated by graphviz version 2.43.0 (0)
 -->
<!-- Title: lib/src/RenderStatsOverlay.cpp Pages: 1 -->
<svg width="826pt" height="203pt"
 viewBox="0.00 0.00 826.00 203.00" xmlns="http://www.w3.org/2000/svg" xmlns:xlink="http://www.w3.org/1999/xlink">
<g id="graph0" class="graph" transform="scale(1 1) rotate(0) translate(4 199)">
<title>lib/src/RenderStatsOverlay.cpp</title>
<!-- Node1 -->
<g id="Node000001" class="node">
<title>Node1</title>
<g id="a_Node000001"><a xlink:title=" ">
<polygon fill="#999999" stroke="#666666" points="621.5,-195 456.5,-195 456.5,-176 621.5,-176 621.5,-195"/>
<text text-anchor="middle" x="539" y="-183" font-family="Helvetica,sans-Serif" font-size="10.00">lib/src/RenderStatsOverlay.cpp</text>
</a>
</g>
</g>
<!-- Node2 -->
<g id="Node000002" class="node">
<title>Node2</title>
<g id="a_Node000002"><a xlink:href="RenderStatsOverlay_8hpp.html" target="_top" xlink:title=" ">
<polygon fill="white" stroke="#666666" points="324.5,-140 171.5,-140 171.5,-110 324.5,-110 324.5,-140"/>
<text text-anchor="start" x="179.5" y="-128" font-family="Helvetica,sans-Serif" font-size="10.00">XQVtkViewport/RenderStats</text>
<text text-anchor="middle" x="248" y="-117" font-family="Helvetica,sans-Serif" font-size="10.00">Overlay.hpp</text>
</a>
</g>
</g>
<!-- Node1&#45;&gt;Node2 -->
<g id="edge1_Node000001_Node000002" class="edge">
<title>Node1&#45;&gt;Node2</title>
<g id="a_edge1_Node000001_Node000002"><a xlink:title=" ">
<path fill="none" stroke="#63b8ff" d="M496.69,-175.99C452.54,-167.12 382.28,-152.99 327.68,-142.02"/>
<polygon fill="#63b8ff" stroke="#63b8ff" points="328.17,-138.55 317.68,-140.01 326.79,-145.41 328.17,-138.55"/>
</a>
</g>
</g>
<!-- Node8 -->
<g id="Node000008" class="node">
<title>Node8</title>
<g id="a_Node000008"><a xlink:title=" ">
<polygon fill="#e0e0e0" stroke="#999999" points="432,-19 388,-19 388,0 432,0 432,-19"/>
<text text-anchor="middle" x="410" y="-7" font-family="Helvetica,sans-Serif" font-size="10.00">string</text>
</a>
</g>
</g>
<!-- Node1&#45;&gt;Node8 -->
<g id="edge14_Node000001_Node000008" class="edge">
<title>Node1&#45;&gt;Node8</title>
<g id="a_edge14_Node000001_Node000008"><a xlink:title=" ">
<path fill="none" stroke="#63b8ff" d="M495.45,-175.94C474.16,-169.54 449.98,-158.58 435,-140 409.09,-107.87 407.27,-56.79 408.47,-29.37"/>
<polygon fill="#63b8ff" stroke="#63b8ff" points="411.97,-29.39 409.1,-19.19 404.99,-28.95 411.97,-29.39"/>
</a>
</g>
</g>
<!-- Node9 -->
<g id="Node000009" class="node">
<title>Node9</title>
<g id="a_Node000009"><a xlink:title=" ">
<polygon fill="#e0e0e0" stroke="#999999" points="529.5,-134.5 444.5,-134.5 444.5,-115.5 529.5,-115.5 529.5,-134.5"/>
<text text-anchor="middle" x="487" y="-122.5" font-family="Helvetica,sans-Serif" font-size="10.00">vtkRenderer.h</text>
</a>
</g>
</g>
<!-- Node1&#45;&gt;Node9 -->
<g id="edge10_Node000001_Node000009" class="edge">
<title>Node1&#45;&gt;Node9</title>
<g id="a_edge10_Node000001_Node000009"><a xlink:title=" ">
<path fill="none" stroke="#63b8ff" d="M531.33,-175.87C523.49,-167.05 511.14,-153.16 501.46,-142.27"/>
<polygon fill="#63b8ff" stroke="#63b8ff" points="503.96,-139.82 494.7,-134.67 498.73,-144.47 503.96,-139.82"/>
</a>
</g>
</g>
<!-- Node10 -->
<g id="Node000010" class="node">
<title>Node10</title>
<g id="a_Node000010"><a xlink:title=" ">
<polygon fill="#e0e0e0" stroke="#999999" points="634,-134.5 548,-134.5 548,-115.5 634,-115.5 634,-134.5"/>
<text text-anchor="middle" x="591" y="-122.5" font-family="Helvetica,sans-Serif" font-size="10.00">vtkTextActor.h</text>
</a>
</g>
</g>
<!-- Node1&#45;&gt;Node10 -->
<g id="edge11_Node000001_Node000010" class="edge">
<title>Node1&#45;&gt;Node10</title>
<g id="a_edge11_Node000001_Node000010"><a xlink:title=" ">
<path fill="none" stroke="#63b8ff" d="M546.67,-175.87C554.51,-167.05 566.86,-153.16 576.54,-142.27"/>
<polygon fill="#63b8ff" stroke="#63b8ff" points="579.27,-144.47 583.3,-134.67 574.04,-139.82 579.27,-144.47"/>
</a>
</g>
</g>
<!-- Node11 -->
<g id="Node000011" class="node">
<title>Node11</title>
<g id="a_Node000011"><a xlink:title=" ">
<polygon fill="#e0e0e0" stroke="#999999" points="753.5,-134.5 652.5,-134.5 652.5,-115.5 753.5,-115.5 753.5,-134.5"/>
<text text-anchor="middle" x="703" y="-122.5" font-family="Helvetica,sans-Serif" font-size="10.00">vtkTextProperty.h</text>
</a>
</g>
</g>
<!-- Node1&#45;&gt;Node11 -->
<g id="edge12_Node000001_Node000011" class="edge">
<title>Node1&#45;&gt;Node11</title>
<g id="a_edge12_Node000001_Node000011"><a xlink:title=" ">
<path fill="none" stroke="#63b8ff" d="M562.85,-175.99C590.9,-165.99 637.67,-149.3 669.4,-137.99"/>
<polygon fill="#63b8ff" stroke="#63b8ff" points="670.88,-141.17 679.12,-134.52 668.53,-134.58 670.88,-141.17"/>
</a>
</g>
</g>
<!-- Node12 -->
<g id="Node000012" class="node">
<title>Node12</title>
<g id="a_Node000012"><a xlink:title=" ">
<polygon fill="#e0e0e0" stroke="#999999" points="818,-134.5 772,-134.5 772,-115.5 818,-115.5 818,-134.5"/>
<text text-anchor="middle" x="795" y="-122.5" font-family="Helvetica,sans-Serif" font-size="10.00">cstdio</text>
</a>
</g>
</g>
<!-- Node1&#45;&gt;Node12 -->
<g id="edge13_Node000001_Node000012" class="edge">
<title>Node1&#45;&gt;Node12</title>
<g id="a_edge13_Node000001_Node000012"><a xlink:title=" ">
<path fill="none" stroke="#63b8ff" d="M600.26,-176C645.8,-168.8 709.1,-156.93 763,-140 764.63,-139.49 766.29,-138.92 767.95,-138.31"/>
<polygon fill="#63b8ff" stroke="#63b8ff" points="769.35,-141.52 777.32,-134.55 766.74,-135.03 769.35,-141.52"/>
</a>
</g>
</g>
<!-- Node3 -->
<g id="Node000003" class="node">
<title>Node3</title>
<g id="a_Node000003"><a xlink:title=" ">
<polygon fill="#e0e0e0" stroke="#999999" points="104,-74 0,-74 0,-55 104,-55 104,-74"/>
<text text-anchor="middle" x="52" y="-62" font-family="Helvetica,sans-Serif" font-size="10.00">vtkSmartPointer.h</text>
</a>
</g>
</g>
<!-- Node2&#45;&gt;Node3 -->
<g id="edge2_Node000002_Node000003" class="edge">
<title>Node2&#45;&gt;Node3</title>
<g id="a_edge2_Node000002_Node000003"><a xlink:title=" ">
<path fill="none" stroke="#63b8ff" d="M201.05,-109.99C167.23,-99.89 122.14,-86.44 90.45,-76.98"/>
<polygon fill="#63b8ff" stroke="#63b8ff" points="91.24,-73.56 80.66,-74.05 89.24,-80.27 91.24,-73.56"/>
</a>
</g>
</g>
<!-- Node4 -->
<g id="Node000004" class="node">
<title>Node4</title>
<g id="a_Node000004"><a xlink:href="RenderStats_8hpp.html" target="_top" xlink:title=" ">
<polygon fill="white" stroke="#666666" points="219.5,-74 122.5,-74 122.5,-55 219.5,-55 219.5,-74"/>
<text text-anchor="middle" x="171" y="-62" font-family="Helvetica,sans-Serif" font-size="10.00">RenderStats.hpp</text>
</a>
</g>
</g>
<!-- Node2&#45;&gt;Node4 -->
<g id="edge3_Node000002_Node000004" class="edge">
<title>Node2&#45;&gt;Node4</title>
<g id="a_edge3_Node000002_Node000004"><a xlink:title=" ">
<path fill="none" stroke="#63b8ff" d="M229.36,-109.84C217.61,-100.91 202.47,-89.41 190.55,-80.35"/>
<polygon fill="#63b8ff" stroke="#63b8ff" points="192.62,-77.53 182.54,-74.27 188.38,-83.1 192.62,-77.53"/>
</a>
</g>
</g>
<!-- Node5 -->
<g id="Node000005" class="node">
<title>Node5</title>
<g id="a_Node000005"><a xlink:title=" ">
<polygon fill="#e0e0e0" stroke="#999999" points="299.5,-19 150.5,-19 150.5,0 299.5,0 299.5,-19"/>
<text text-anchor="middle" x="225" y="-7" font-family="Helvetica,sans-Serif" font-size="10.00">XQVtkViewport_export.hpp</text>
</a>
</g>
</g>
<!-- Node2&#45;&gt;Node5 -->
<g id="edge9_Node000002_Node000005" class="edge">
<title>Node2&#45;&gt;Node5</title>
<g id="a_edge9_Node000002_Node000005"><a xlink:title=" ">
<path fill="none" stroke="#63b8ff" d="M245.09,-109.63C240.95,-89.21 233.37,-51.81 228.8,-29.24"/>
<polygon fill="#63b8ff" stroke="#63b8ff" points="232.19,-28.34 226.77,-19.23 225.32,-29.73 232.19,-28.34"/>
</a>
</g>
</g>
<!-- Node6 -->
<g id="Node000006" class="node">
<title>Node6</title>
<g id="a_Node000006"><a xlink:href="ViewportConfig_8hpp.html" target="_top" xlink:title=" ">
<polygon fill="white" stroke="#666666" points="388,-74 276,-74 276,-55 388,-55 388,-74"/>
<text text-anchor="middle" x="332" y="-62" font-family="Helvetica,sans-Serif" font-size="10.00">ViewportConfig.hpp</text>
</a>
</g>
</g>
<!-- Node2&#45;&gt;Node6 -->
<g id="edge5_Node000002_Node000006" class="edge">
<title>Node2&#45;&gt;Node6</title>
<g id="a_edge5_Node000002_Node000006"><a xlink:title=" ">
<path fill="none" stroke="#63b8ff" d="M268.33,-109.84C281.27,-100.83 297.99,-89.18 311.05,-80.09"/>
<polygon fill="#63b8ff" stroke="#63b8ff" points="313.21,-82.85 319.41,-74.27 309.21,-77.11 313.21,-82.85"/>
</a>
</g>
</g>
<!-- Node4&#45;&gt;Node5 -->
<g id="edge4_Node000004_Node000005" class="edge">
<title>Node4&#45;&gt;Node5</title>
<g id="a_edge4_Node000004_Node000005"><a xlink:title=" ">
<path fill="none" stroke="#63b8ff" d="M179.92,-54.75C187.78,-47.03 199.43,-35.6 208.92,-26.28"/>
<polygon fill="#63b8ff" stroke="#63b8ff" points="211.56,-28.59 216.25,-19.09 206.66,-23.6 211.56,-28.59"/>
</a>
</g>
</g>
<!-- Node6&#45;&gt;Node5 -->
<g id="edge8_Node000006_Node000005" class="edge">
<title>Node6&#45;&gt;Node5</title>
<g id="a_edge8_Node000006_Node000005"><a xlink:title=" ">
<path fill="none" stroke="#63b8ff" d="M314.81,-54.98C297.75,-46.54 271.37,-33.47 251.6,-23.68"/>
<polygon fill="#63b8ff" stroke="#63b8ff" points="253.02,-20.47 242.5,-19.17 249.91,-26.75 253.02,-20.47"/>
</a>
</g>
</g>
<!-- Node7 -->
<g id="Node000007" class="node">
<title>Node7</title>
<g id="a_Node000007"><a xlink:title=" ">
<polygon fill="#e0e0e0" stroke="#999999" points="359,-19 317,-19 317,0 359,0 359,-19"/>
<text text-anchor="middle" x="338" y="-7" font-family="Helvetica,sans-Serif" font-size="10.00">array</text>
</a>
</g>
</g>
<!-- Node6&#45;&gt;Node7 -->
<g id="edge6_Node000006_Node000007" class="edge">
<title>Node6&#45;&gt;Node7</title>
<g id="a_edge6_Node000006_Node000007"><a xlink:title=" ">
<path fill="none" stroke="#63b8ff" d="M332.99,-54.75C333.78,-47.8 334.9,-37.85 335.89,-29.13"/>
<polygon fill="#63b8ff" stroke="#63b8ff" points="339.38,-29.42 337.03,-19.09 332.42,-28.63 339.38,-29.42"/>
</a>
</g>
</g>
<!-- Node6&#45;&gt;Node8 -->
<g id="edge7_Node000006_Node000008" class="edge">
<title>Node6&#45;&gt;Node8</title>
<g id="a_edge7_Node000006_Node000008"><a xlink:title=" ">
<path fill="none" stroke="#63b8ff" d="M344.53,-54.98C356.4,-46.92 374.46,-34.65 388.61,-25.03"/>
<polygon fill="#63b8ff" stroke="#63b8ff" points="390.94,-27.69 397.24,-19.17 387,-21.9 390.94,-27.69"/>
</a>
</g>
</g>
</g>
</svg>
