<?xml version="1.0" encoding="UTF-8" standalone="no"?>
<!DOCTYPE svg PUBLIC "-//W3C//DTD SVG 1.1//EN"
 "http://www.w3.org/Graphics/SVG/1.1/DTD/svg11.dtd">
<!-- Generated by graphviz version 2.43.0 (0)
 -->
<!-- Title: src/render/include/render/RenderTypes.hpp Pages: 1 -->
<svg width="1563pt" height="368pt"
 viewBox="0.00 0.00 1562.50 368.00" xmlns="http://www.w3.org/2000/svg" xmlns:xlink="http://www.w3.org/1999/xlink">
<g id="graph0" class="graph" transform="scale(1 1) rotate(0) translate(4 364)">
<title>src/render/include/render/RenderTypes.hpp</title>
<!-- Node1 -->
<g id="Node000001" class="node">
<title>Node1</title>
<g id="a_Node000001"><a xlink:title=" ">
<polygon fill="#999999" stroke="#666666" points="970,-360 833,-360 833,-330 970,-330 970,-360"/>
<text text-anchor="start" x="841" y="-348" font-family="Helvetica,sans-Serif" font-size="10.00">src/render/include</text>
<text text-anchor="middle" x="901.5" y="-337" font-family="Helvetica,sans-Serif" font-size="10.00">/render/RenderTypes.hpp</text>
</a>
</g>
</g>
<!-- Node2 -->
<g id="Node000002" class="node">
<title>Node2</title>
<g id="a_Node000002"><a xlink:href="RenderScheduler_8hpp.html" target="_top" xlink:title=" ">
<polygon fill="white" stroke="#666666" points="980,-294 823,-294 823,-264 980,-264 980,-294"/>
<text text-anchor="start" x="831" y="-282" font-family="Helvetica,sans-Serif" font-size="10.00">src/render/include</text>
<text text-anchor="middle" x="901.5" y="-271" font-family="Helvetica,sans-Serif" font-size="10.00">/render/RenderScheduler.hpp</text>
</a>
</g>
</g>
<!-- Node1&#45;&gt;Node2 -->
<g id="edge1_Node000001_Node000002" class="edge">
<title>Node1&#45;&gt;Node2</title>
<g id="a_edge1_Node000001_Node000002"><a xlink:title=" ">
<path fill="none" stroke="#63b8ff" d="M901.5,-319.54C901.5,-310.96 901.5,-301.61 901.5,-294.16"/>
<polygon fill="#63b8ff" stroke="#63b8ff" points="898,-319.8 901.5,-329.8 905,-319.8 898,-319.8"/>
</a>
</g>
</g>
<!-- Node3 -->
<g id="Node000003" class="node">
<title>Node3</title>
<g id="a_Node000003"><a xlink:href="IViewController_8hpp.html" target="_top" xlink:title=" ">
<polygon fill="white" stroke="#666666" points="614.5,-222.5 444.5,-222.5 444.5,-192.5 614.5,-192.5 614.5,-222.5"/>
<text text-anchor="start" x="452.5" y="-210.5" font-family="Helvetica,sans-Serif" font-size="10.00">src/controllers/include</text>
<text text-anchor="middle" x="529.5" y="-199.5" font-family="Helvetica,sans-Serif" font-size="10.00">/controllers/IViewController.hpp</text>
</a>
</g>
</g>
<!-- Node2&#45;&gt;Node3 -->
<g id="edge2_Node000002_Node000003" class="edge">
<title>Node2&#45;&gt;Node3</title>
<g id="a_edge2_Node000002_Node000003"><a xlink:title=" ">
<path fill="none" stroke="#63b8ff" d="M816.18,-262.06C752.36,-250.14 665.9,-233.98 604.67,-222.54"/>
<polygon fill="#63b8ff" stroke="#63b8ff" points="815.75,-265.54 826.22,-263.94 817.03,-258.66 815.75,-265.54"/>
</a>
</g>
</g>
<!-- Node5 -->
<g id="Node000005" class="node">
<title>Node5</title>
<g id="a_Node000005"><a xlink:href="MultiWindowController_8cpp.html" target="_top" xlink:title=" ">
<polygon fill="white" stroke="#666666" points="151,-85 0,-85 0,-55 151,-55 151,-85"/>
<text text-anchor="start" x="8" y="-73" font-family="Helvetica,sans-Serif" font-size="10.00">src/controllers/src</text>
<text text-anchor="middle" x="75.5" y="-62" font-family="Helvetica,sans-Serif" font-size="10.00">/MultiWindowController.cpp</text>
</a>
</g>
</g>
<!-- Node2&#45;&gt;Node5 -->
<g id="edge14_Node000002_Node000005" class="edge">
<title>Node2&#45;&gt;Node5</title>
<g id="a_edge14_Node000002_Node000005"><a xlink:title=" ">
<path fill="none" stroke="#63b8ff" d="M812.64,-273.17C633.4,-261.88 236.31,-228.63 127.5,-151 104.04,-134.26 88.45,-103.32 80.87,-85.21"/>
<polygon fill="#63b8ff" stroke="#63b8ff" points="812.63,-276.67 822.83,-273.8 813.07,-269.69 812.63,-276.67"/>
</a>
</g>
</g>
<!-- Node9 -->
<g id="Node000009" class="node">
<title>Node9</title>
<g id="a_Node000009"><a xlink:href="ViewportController_8cpp.html" target="_top" xlink:title=" ">
<polygon fill="white" stroke="#666666" points="742,-85 611,-85 611,-55 742,-55 742,-85"/>
<text text-anchor="start" x="619" y="-73" font-family="Helvetica,sans-Serif" font-size="10.00">src/controllers/src</text>
<text text-anchor="middle" x="676.5" y="-62" font-family="Helvetica,sans-Serif" font-size="10.00">/ViewportController.cpp</text>
</a>
</g>
</g>
<!-- Node2&#45;&gt;Node9 -->
<g id="edge18_Node000002_Node000009" class="edge">
<title>Node2&#45;&gt;Node9</title>
<g id="a_edge18_Node000002_Node000009"><a xlink:title=" ">
<path fill="none" stroke="#63b8ff" d="M813.08,-268.66C783.7,-261.59 752.82,-249.3 730.5,-228 729.82,-227.35 694.43,-123.62 681.32,-85.14"/>
<polygon fill="#63b8ff" stroke="#63b8ff" points="812.45,-272.1 822.97,-270.86 813.97,-265.27 812.45,-272.1"/>
</a>
</g>
</g>
<!-- Node13 -->
<g id="Node000013" class="node">
<title>Node13</title>
<g id="a_Node000013"><a xlink:href="ResliceImageViewerInteractorStyle_8cpp.html" target="_top" xlink:title=" ">
<polygon fill="white" stroke="#666666" points="907,-228 740,-228 740,-187 907,-187 907,-228"/>
<text text-anchor="start" x="748" y="-216" font-family="Helvetica,sans-Serif" font-size="10.00">src/controllers/src</text>
<text text-anchor="start" x="748" y="-205" font-family="Helvetica,sans-Serif" font-size="10.00">/ResliceImageViewerInteractor</text>
<text text-anchor="middle" x="823.5" y="-194" font-family="Helvetica,sans-Serif" font-size="10.00">Style.cpp</text>
</a>
</g>
</g>
<!-- Node2&#45;&gt;Node13 -->
<g id="edge15_Node000002_Node000013" class="edge">
<title>Node2&#45;&gt;Node13</title>
<g id="a_edge15_Node000002_Node000013"><a xlink:title=" ">
<path fill="none" stroke="#63b8ff" d="M878.19,-257.23C867.82,-247.99 855.68,-237.17 845.47,-228.07"/>
<polygon fill="#63b8ff" stroke="#63b8ff" points="875.92,-259.9 885.72,-263.94 880.58,-254.67 875.92,-259.9"/>
</a>
</g>
</g>
<!-- Node14 -->
<g id="Node000014" class="node">
<title>Node14</title>
<g id="a_Node000014"><a xlink:href="SliceController_8cpp.html" target="_top" xlink:title=" ">
<polygon fill="white" stroke="#666666" points="1035.5,-222.5 925.5,-222.5 925.5,-192.5 1035.5,-192.5 1035.5,-222.5"/>
<text text-anchor="start" x="933.5" y="-210.5" font-family="Helvetica,sans-Serif" font-size="10.00">src/controllers/src</text>
<text text-anchor="middle" x="980.5" y="-199.5" font-family="Helvetica,sans-Serif" font-size="10.00">/SliceController.cpp</text>
</a>
</g>
</g>
<!-- Node2&#45;&gt;Node14 -->
<g id="edge16_Node000002_Node000014" class="edge">
<title>Node2&#45;&gt;Node14</title>
<g id="a_edge16_Node000002_Node000014"><a xlink:title=" ">
<path fill="none" stroke="#63b8ff" d="M925.02,-257.31C937.77,-246.09 953.19,-232.52 964.54,-222.54"/>
<polygon fill="#63b8ff" stroke="#63b8ff" points="922.68,-254.7 917.49,-263.94 927.31,-259.96 922.68,-254.7"/>
</a>
</g>
</g>
<!-- Node15 -->
<g id="Node000015" class="node">
<title>Node15</title>
<g id="a_Node000015"><a xlink:href="SphereController_8cpp.html" target="_top" xlink:title=" ">
<polygon fill="white" stroke="#666666" points="1175,-222.5 1054,-222.5 1054,-192.5 1175,-192.5 1175,-222.5"/>
<text text-anchor="start" x="1062" y="-210.5" font-family="Helvetica,sans-Serif" font-size="10.00">src/controllers/src</text>
<text text-anchor="middle" x="1114.5" y="-199.5" font-family="Helvetica,sans-Serif" font-size="10.00">/SphereController.cpp</text>
</a>
</g>
</g>
<!-- Node2&#45;&gt;Node15 -->
<g id="edge17_Node000002_Node000015" class="edge">
<title>Node2&#45;&gt;Node15</title>
<g id="a_edge17_Node000002_Node000015"><a xlink:title=" ">
<path fill="none" stroke="#63b8ff" d="M954.47,-260.72C990.54,-248.95 1037.7,-233.56 1071.46,-222.54"/>
<polygon fill="#63b8ff" stroke="#63b8ff" points="953.02,-257.51 944.6,-263.94 955.2,-264.16 953.02,-257.51"/>
</a>
</g>
</g>
<!-- Node16 -->
<g id="Node000016" class="node">
<title>Node16</title>
<g id="a_Node000016"><a xlink:href="ViewportInteractorStyle_8cpp.html" target="_top" xlink:title=" ">
<polygon fill="white" stroke="#666666" points="1348,-222.5 1193,-222.5 1193,-192.5 1348,-192.5 1348,-222.5"/>
<text text-anchor="start" x="1201" y="-210.5" font-family="Helvetica,sans-Serif" font-size="10.00">src/controllers/src</text>
<text text-anchor="middle" x="1270.5" y="-199.5" font-family="Helvetica,sans-Serif" font-size="10.00">/ViewportInteractorStyle.cpp</text>
</a>
</g>
</g>
<!-- Node2&#45;&gt;Node16 -->
<g id="edge19_Node000002_Node000016" class="edge">
<title>Node2&#45;&gt;Node16</title>
<g id="a_edge19_Node000002_Node000016"><a xlink:title=" ">
<path fill="none" stroke="#63b8ff" d="M989.94,-263.5C1045.85,-254.05 1119.56,-241.09 1184.5,-228 1192.9,-226.31 1201.75,-224.42 1210.43,-222.51"/>
<polygon fill="#63b8ff" stroke="#63b8ff" points="989.35,-260.05 980.07,-265.16 990.51,-266.95 989.35,-260.05"/>
</a>
</g>
</g>
<!-- Node17 -->
<g id="Node000017" class="node">
<title>Node17</title>
<g id="a_Node000017"><a xlink:href="RenderScheduler_8cpp.html" target="_top" xlink:title=" ">
<polygon fill="white" stroke="#666666" points="1554.5,-217 1366.5,-217 1366.5,-198 1554.5,-198 1554.5,-217"/>
<text text-anchor="middle" x="1460.5" y="-205" font-family="Helvetica,sans-Serif" font-size="10.00">src/render/src/RenderScheduler.cpp</text>
</a>
</g>
</g>
<!-- Node2&#45;&gt;Node17 -->
<g id="edge20_Node000002_Node000017" class="edge">
<title>Node2&#45;&gt;Node17</title>
<g id="a_edge20_Node000002_Node000017"><a xlink:title=" ">
<path fill="none" stroke="#63b8ff" d="M990.12,-270.34C1082.2,-261.91 1230.33,-246.98 1357.5,-228 1378.02,-224.94 1400.69,-220.74 1419.53,-217.02"/>
<polygon fill="#63b8ff" stroke="#63b8ff" points="989.65,-266.87 980.01,-271.27 990.28,-273.84 989.65,-266.87"/>
</a>
</g>
</g>
<!-- Node4 -->
<g id="Node000004" class="node">
<title>Node4</title>
<g id="a_Node000004"><a xlink:href="MultiWindowController_8hpp.html" target="_top" xlink:title=" ">
<polygon fill="white" stroke="#666666" points="342.5,-151 136.5,-151 136.5,-121 342.5,-121 342.5,-151"/>
<text text-anchor="start" x="144.5" y="-139" font-family="Helvetica,sans-Serif" font-size="10.00">src/controllers/include</text>
<text text-anchor="middle" x="239.5" y="-128" font-family="Helvetica,sans-Serif" font-size="10.00">/controllers/MultiWindowController.hpp</text>
</a>
</g>
</g>
<!-- Node3&#45;&gt;Node4 -->
<g id="edge3_Node000003_Node000004" class="edge">
<title>Node3&#45;&gt;Node4</title>
<g id="a_edge3_Node000003_Node000004"><a xlink:title=" ">
<path fill="none" stroke="#63b8ff" d="M460.83,-190.04C411.3,-178.17 345.15,-162.32 298.1,-151.04"/>
<polygon fill="#63b8ff" stroke="#63b8ff" points="460.27,-193.51 470.81,-192.44 461.91,-186.7 460.27,-193.51"/>
</a>
</g>
</g>
<!-- Node8 -->
<g id="Node000008" class="node">
<title>Node8</title>
<g id="a_Node000008"><a xlink:href="ViewportController_8hpp.html" target="_top" xlink:title=" ">
<polygon fill="white" stroke="#666666" points="552.5,-151 366.5,-151 366.5,-121 552.5,-121 552.5,-151"/>
<text text-anchor="start" x="374.5" y="-139" font-family="Helvetica,sans-Serif" font-size="10.00">src/controllers/include</text>
<text text-anchor="middle" x="459.5" y="-128" font-family="Helvetica,sans-Serif" font-size="10.00">/controllers/ViewportController.hpp</text>
</a>
</g>
</g>
<!-- Node3&#45;&gt;Node8 -->
<g id="edge7_Node000003_Node000008" class="edge">
<title>Node3&#45;&gt;Node8</title>
<g id="a_edge7_Node000003_Node000008"><a xlink:title=" ">
<path fill="none" stroke="#63b8ff" d="M508.02,-185.17C496.85,-174.08 483.51,-160.84 473.64,-151.04"/>
<polygon fill="#63b8ff" stroke="#63b8ff" points="505.77,-187.87 515.33,-192.44 510.7,-182.91 505.77,-187.87"/>
</a>
</g>
</g>
<!-- Node12 -->
<g id="Node000012" class="node">
<title>Node12</title>
<g id="a_Node000012"><a xlink:href="IViewController_8cpp.html" target="_top" xlink:title=" ">
<polygon fill="white" stroke="#666666" points="684.5,-151 570.5,-151 570.5,-121 684.5,-121 684.5,-151"/>
<text text-anchor="start" x="578.5" y="-139" font-family="Helvetica,sans-Serif" font-size="10.00">src/controllers/src</text>
<text text-anchor="middle" x="627.5" y="-128" font-family="Helvetica,sans-Serif" font-size="10.00">/IViewController.cpp</text>
</a>
</g>
</g>
<!-- Node3&#45;&gt;Node12 -->
<g id="edge13_Node000003_Node000012" class="edge">
<title>Node3&#45;&gt;Node12</title>
<g id="a_edge13_Node000003_Node000012"><a xlink:title=" ">
<path fill="none" stroke="#63b8ff" d="M557.79,-186.44C573.77,-175.1 593.36,-161.21 607.7,-151.04"/>
<polygon fill="#63b8ff" stroke="#63b8ff" points="555.46,-183.8 549.33,-192.44 559.51,-189.51 555.46,-183.8"/>
</a>
</g>
</g>
<!-- Node4&#45;&gt;Node5 -->
<g id="edge4_Node000004_Node000005" class="edge">
<title>Node4&#45;&gt;Node5</title>
<g id="a_edge4_Node000004_Node000005"><a xlink:title=" ">
<path fill="none" stroke="#63b8ff" d="M193.86,-117.19C167.81,-107.02 135.63,-94.47 111.41,-85.01"/>
<polygon fill="#63b8ff" stroke="#63b8ff" points="192.92,-120.58 203.51,-120.95 195.47,-114.06 192.92,-120.58"/>
</a>
</g>
</g>
<!-- Node6 -->
<g id="Node000006" class="node">
<title>Node6</title>
<g id="a_Node000006"><a xlink:href="MainWindow_8cpp.html" target="_top" xlink:title=" ">
<polygon fill="white" stroke="#666666" points="361.5,-19 215.5,-19 215.5,0 361.5,0 361.5,-19"/>
<text text-anchor="middle" x="288.5" y="-7" font-family="Helvetica,sans-Serif" font-size="10.00">src/ui/src/MainWindow.cpp</text>
</a>
</g>
</g>
<!-- Node4&#45;&gt;Node6 -->
<g id="edge5_Node000004_Node000006" class="edge">
<title>Node4&#45;&gt;Node6</title>
<g id="a_edge5_Node000004_Node000006"><a xlink:title=" ">
<path fill="none" stroke="#63b8ff" d="M215.86,-113.26C201,-96.86 186.68,-74.03 198.5,-55 209.9,-36.64 231.38,-25.63 250.49,-19.15"/>
<polygon fill="#63b8ff" stroke="#63b8ff" points="213.63,-115.98 223.09,-120.74 218.66,-111.12 213.63,-115.98"/>
</a>
</g>
</g>
<!-- Node7 -->
<g id="Node000007" class="node">
<title>Node7</title>
<g id="a_Node000007"><a xlink:href="MultiWindowView_8cpp.html" target="_top" xlink:title=" ">
<polygon fill="white" stroke="#666666" points="377.5,-79.5 207.5,-79.5 207.5,-60.5 377.5,-60.5 377.5,-79.5"/>
<text text-anchor="middle" x="292.5" y="-67.5" font-family="Helvetica,sans-Serif" font-size="10.00">src/ui/src/MultiWindowView.cpp</text>
</a>
</g>
</g>
<!-- Node4&#45;&gt;Node7 -->
<g id="edge6_Node000004_Node000007" class="edge">
<title>Node4&#45;&gt;Node7</title>
<g id="a_edge6_Node000004_Node000007"><a xlink:title=" ">
<path fill="none" stroke="#63b8ff" d="M257.77,-112.94C267.18,-101.58 278.13,-88.36 285.18,-79.84"/>
<polygon fill="#63b8ff" stroke="#63b8ff" points="254.94,-110.86 251.26,-120.8 260.34,-115.33 254.94,-110.86"/>
</a>
</g>
</g>
<!-- Node8&#45;&gt;Node9 -->
<g id="edge8_Node000008_Node000009" class="edge">
<title>Node8&#45;&gt;Node9</title>
<g id="a_edge8_Node000008_Node000009"><a xlink:title=" ">
<path fill="none" stroke="#63b8ff" d="M516.73,-118.12C551.72,-107.8 595.94,-94.76 628.99,-85.01"/>
<polygon fill="#63b8ff" stroke="#63b8ff" points="515.72,-114.77 507.12,-120.95 517.7,-121.48 515.72,-114.77"/>
</a>
</g>
</g>
<!-- Node10 -->
<g id="Node000010" class="node">
<title>Node10</title>
<g id="a_Node000010"><a xlink:href="ViewportView_8hpp.html" target="_top" xlink:title=" ">
<polygon fill="white" stroke="#666666" points="535.5,-85 395.5,-85 395.5,-55 535.5,-55 535.5,-85"/>
<text text-anchor="start" x="403.5" y="-73" font-family="Helvetica,sans-Serif" font-size="10.00">src/ui/include/ui/Viewport</text>
<text text-anchor="middle" x="465.5" y="-62" font-family="Helvetica,sans-Serif" font-size="10.00">View.hpp</text>
</a>
</g>
</g>
<!-- Node8&#45;&gt;Node10 -->
<g id="edge9_Node000008_Node000010" class="edge">
<title>Node8&#45;&gt;Node10</title>
<g id="a_edge9_Node000008_Node000010"><a xlink:title=" ">
<path fill="none" stroke="#63b8ff" d="M461.77,-110.83C462.58,-102.17 463.47,-92.7 464.17,-85.16"/>
<polygon fill="#63b8ff" stroke="#63b8ff" points="458.28,-110.51 460.83,-120.8 465.25,-111.17 458.28,-110.51"/>
</a>
</g>
</g>
<!-- Node11 -->
<g id="Node000011" class="node">
<title>Node11</title>
<g id="a_Node000011"><a xlink:href="ViewportView_8cpp.html" target="_top" xlink:title=" ">
<polygon fill="white" stroke="#666666" points="589.5,-19 439.5,-19 439.5,0 589.5,0 589.5,-19"/>
<text text-anchor="middle" x="514.5" y="-7" font-family="Helvetica,sans-Serif" font-size="10.00">src/ui/src/ViewportView.cpp</text>
</a>
</g>
</g>
<!-- Node8&#45;&gt;Node11 -->
<g id="edge12_Node000008_Node000011" class="edge">
<title>Node8&#45;&gt;Node11</title>
<g id="a_edge12_Node000008_Node000011"><a xlink:title=" ">
<path fill="none" stroke="#63b8ff" d="M510.25,-116.33C523.77,-108.76 536.76,-98.53 544.5,-85 557.38,-62.49 535.7,-33.36 522.89,-19.11"/>
<polygon fill="#63b8ff" stroke="#63b8ff" points="508.62,-113.23 501.34,-120.93 511.83,-119.45 508.62,-113.23"/>
</a>
</g>
</g>
<!-- Node10&#45;&gt;Node6 -->
<g id="edge10_Node000010_Node000006" class="edge">
<title>Node10&#45;&gt;Node6</title>
<g id="a_edge10_Node000010_Node000006"><a xlink:title=" ">
<path fill="none" stroke="#63b8ff" d="M413.28,-51.74C380.72,-40.98 340.24,-27.6 314.38,-19.05"/>
<polygon fill="#63b8ff" stroke="#63b8ff" points="412.51,-55.17 423.1,-54.99 414.71,-48.53 412.51,-55.17"/>
</a>
</g>
</g>
<!-- Node10&#45;&gt;Node11 -->
<g id="edge11_Node000010_Node000011" class="edge">
<title>Node10&#45;&gt;Node11</title>
<g id="a_edge11_Node000010_Node000011"><a xlink:title=" ">
<path fill="none" stroke="#63b8ff" d="M483.85,-47.09C491.95,-37.42 501,-26.61 507.16,-19.27"/>
<polygon fill="#63b8ff" stroke="#63b8ff" points="481.1,-44.93 477.36,-54.84 486.47,-49.42 481.1,-44.93"/>
</a>
</g>
</g>
</g>
</svg>
