<?xml version="1.0" encoding="UTF-8" standalone="no"?>
<!DOCTYPE svg PUBLIC "-//W3C//DTD SVG 1.1//EN"
 "http://www.w3.org/Graphics/SVG/1.1/DTD/svg11.dtd">
<!-- Generated by graphviz version 2.43.0 (0)
 -->
<!-- Title: src/render/include/render/RivRenderTarget.hpp Pages: 1 -->
<svg width="350pt" height="104pt"
 viewBox="0.00 0.00 350.00 104.00" xmlns="http://www.w3.org/2000/svg" xmlns:xlink="http://www.w3.org/1999/xlink">
<g id="graph0" class="graph" transform="scale(1 1) rotate(0) translate(4 100)">
<title>src/render/include/render/RivRenderTarget.hpp</title>
<!-- Node1 -->
<g id="Node000001" class="node">
<title>Node1</title>
<g id="a_Node000001"><a xlink:title=" ">
<polygon fill="#999999" stroke="#666666" points="261.5,-96 106.5,-96 106.5,-66 261.5,-66 261.5,-96"/>
<text text-anchor="start" x="114.5" y="-84" font-family="Helvetica,sans-Serif" font-size="10.00">src/render/include</text>
<text text-anchor="middle" x="184" y="-73" font-family="Helvetica,sans-Serif" font-size="10.00">/render/RivRenderTarget.hpp</text>
</a>
</g>
</g>
<!-- Node2 -->
<g id="Node000002" class="node">
<title>Node2</title>
<g id="a_Node000002"><a xlink:href="RenderScheduler_8cpp.html" target="_top" xlink:title=" ">
<polygon fill="white" stroke="#666666" points="188,-24.5 0,-24.5 0,-5.5 188,-5.5 188,-24.5"/>
<text text-anchor="middle" x="94" y="-12.5" font-family="Helvetica,sans-Serif" font-size="10.00">src/render/src/RenderScheduler.cpp</text>
</a>
</g>
</g>
<!-- Node1&#45;&gt;Node2 -->
<g id="edge1_Node000001_Node000002" class="edge">
<title>Node1&#45;&gt;Node2</title>
<g id="a_edge1_Node000001_Node000002"><a xlink:title=" ">
<path fill="none" stroke="#63b8ff" d="M155.7,-59.87C139.04,-48.03 118.82,-33.65 106.18,-24.66"/>
<polygon fill="#63b8ff" stroke="#63b8ff" points="153.85,-62.85 164.03,-65.8 157.9,-57.15 153.85,-62.85"/>
</a>
</g>
</g>
<!-- Node3 -->
<g id="Node000003" class="node">
<title>Node3</title>
<g id="a_Node000003"><a xlink:href="RivRenderTarget_8cpp.html" target="_top" xlink:title=" ">
<polygon fill="white" stroke="#666666" points="342,-30 206,-30 206,0 342,0 342,-30"/>
<text text-anchor="start" x="214" y="-18" font-family="Helvetica,sans-Serif" font-size="10.00">src/render/src/RivRender</text>
<text text-anchor="middle" x="274" y="-7" font-family="Helvetica,sans-Serif" font-size="10.00">Target.cpp</text>
</a>
</g>
</g>
<!-- Node1&#45;&gt;Node3 -->
<g id="edge2_Node000001_Node000003" class="edge">
<title>Node1&#45;&gt;Node3</title>
<g id="a_edge2_Node000001_Node000003"><a xlink:title=" ">
<path fill="none" stroke="#63b8ff" d="M212.47,-59.75C226.01,-50.13 241.86,-38.86 254.08,-30.16"/>
<polygon fill="#63b8ff" stroke="#63b8ff" points="210.1,-57.15 203.97,-65.8 214.15,-62.85 210.1,-57.15"/>
</a>
</g>
</g>
</g>
</svg>
