<?xml version="1.0" encoding="UTF-8" standalone="no"?>
<!DOCTYPE svg PUBLIC "-//W3C//DTD SVG 1.1//EN"
 "http://www.w3.org/Graphics/SVG/1.1/DTD/svg11.dtd">
<!-- Generated by graphviz version 2.43.0 (0)
 -->
<!-- Title: src/controllers/src/SliceController.cpp Pages: 1 -->
<!--zoomable 214 -->

<svg id="main" version="1.1" xmlns="http://www.w3.org/2000/svg" xmlns:xlink="http://www.w3.org/1999/xlink" xml:space="preserve" onload="init(evt)">
<style type="text/css"><![CDATA[
.node, .edge {opacity: 0.7;}
.node.selected, .edge.selected {opacity: 1;}
.edge:hover path { stroke: red; }
.edge:hover polygon { stroke: red; fill: red; }
]]></style>

<defs>
  <circle id="rim" cx="0" cy="0" r="7"/>
  <circle id="rim2" cx="0" cy="0" r="3.5"/>
  <g id="zoomPlus">
    <use xlink:href="#rim" fill="#404040"><set attributeName="fill" to="#808080" begin="zoomplus.mouseover" end="zoomplus.mouseout"/></use>
    <path d="M-4,0h8M0,-4v8" fill="none" stroke="white" stroke-width="1.5" pointer-events="none"/>
  </g>
  <g id="zoomMin">
    <use xlink:href="#rim" fill="#404040"><set attributeName="fill" to="#808080" begin="zoomminus.mouseover" end="zoomminus.mouseout"/></use>
    <path d="M-4,0h8" fill="none" stroke="white" stroke-width="1.5" pointer-events="none"/>
  </g>
  <g id="arrowUp" transform="translate(30 24)">
    <use xlink:href="#rim"/>
    <path pointer-events="none" fill="none" stroke="white" stroke-width="1.5" d="M0,-3.0v7 M-2.5,-0.5L0,-3.0L2.5,-0.5"/>
  </g>
  <g id="arrowRight" transform="rotate(90) translate(36 -43)">
    <use xlink:href="#rim"/>
    <path pointer-events="none" fill="none" stroke="white" stroke-width="1.5" d="M0,-3.0v7 M-2.5,-0.5L0,-3.0L2.5,-0.5"/>
  </g>
  <g id="arrowDown" transform="rotate(180) translate(-30 -48)">
    <use xlink:href="#rim"/>
    <path pointer-events="none" fill="none" stroke="white" stroke-width="1.5" d="M0,-3.0v7 M-2.5,-0.5L0,-3.0L2.5,-0.5"/>
  </g>
  <g id="arrowLeft" transform="rotate(270) translate(-36 17)">
    <use xlink:href="#rim"/>
    <path pointer-events="none" fill="none" stroke="white" stroke-width="1.5" d="M0,-3.0v7 M-2.5,-0.5L0,-3.0L2.5,-0.5"/>
  </g>
  <g id="resetDef">
    <use xlink:href="#rim2" fill="#404040"><set attributeName="fill" to="#808080" begin="reset.mouseover" end="reset.mouseout"/></use>
  </g>
</defs>
<script type="application/ecmascript">
var viewWidth = 2635;
var viewHeight = 214;
var sectionId = 'dynsection-0';
</script>
<script type="application/ecmascript" xlink:href="svg.min.js"/>
<svg id="graph" class="graph">
<g id="viewport">
<title>src/controllers/src/SliceController.cpp</title>
<!-- Node1 -->
<g id="Node000001" class="node">
<title>Node1</title>
<g id="a_Node000001"><a xlink:title=" ">
<polygon fill="#999999" stroke="#666666" points="1553.87,-206 1443.87,-206 1443.87,-176 1553.87,-176 1553.87,-206"/>
<text text-anchor="start" x="1451.87" y="-194" font-family="Helvetica,sans-Serif" font-size="10.00">src/controllers/src</text>
<text text-anchor="middle" x="1498.87" y="-183" font-family="Helvetica,sans-Serif" font-size="10.00">/SliceController.cpp</text>
</a>
</g>
</g>
<!-- Node2 -->
<g id="Node000002" class="node">
<title>Node2</title>
<g id="a_Node000002"><a xlink:href="SliceController_8hpp.html" target="_top" xlink:title=" ">
<polygon fill="white" stroke="#666666" points="1044.37,-134.5 881.37,-134.5 881.37,-115.5 1044.37,-115.5 1044.37,-134.5"/>
<text text-anchor="middle" x="962.87" y="-122.5" font-family="Helvetica,sans-Serif" font-size="10.00">controllers/SliceController.hpp</text>
</a>
</g>
</g>
<!-- Node1&#45;&gt;Node2 -->
<g id="edge1_Node000001_Node000002" class="edge">
<title>Node1&#45;&gt;Node2</title>
<g id="a_edge1_Node000001_Node000002"><a xlink:title=" ">
<path fill="none" stroke="#63b8ff" d="M1443.84,-184.59C1359.55,-176.14 1193.42,-158.8 1052.87,-140 1043.89,-138.8 1034.42,-137.43 1025.14,-136.04"/>
<polygon fill="#63b8ff" stroke="#63b8ff" points="1025.57,-132.57 1015.16,-134.52 1024.52,-139.49 1025.57,-132.57"/>
</a>
</g>
</g>
<!-- Node8 -->
<g id="Node000008" class="node">
<title>Node8</title>
<g id="a_Node000008"><a xlink:title=" ">
<polygon fill="#e0e0e0" stroke="#999999" points="1219.37,-134.5 1062.37,-134.5 1062.37,-115.5 1219.37,-115.5 1219.37,-134.5"/>
<text text-anchor="middle" x="1140.87" y="-122.5" font-family="Helvetica,sans-Serif" font-size="10.00">QVTKOpenGLNativeWidget.h</text>
</a>
</g>
</g>
<!-- Node1&#45;&gt;Node8 -->
<g id="edge7_Node000001_Node000008" class="edge">
<title>Node1&#45;&gt;Node8</title>
<g id="a_edge7_Node000001_Node000008"><a xlink:title=" ">
<path fill="none" stroke="#63b8ff" d="M1443.71,-180.14C1377.3,-168.27 1266.27,-148.42 1198.68,-136.34"/>
<polygon fill="#63b8ff" stroke="#63b8ff" points="1199.09,-132.85 1188.63,-134.54 1197.86,-139.74 1199.09,-132.85"/>
</a>
</g>
</g>
<!-- Node9 -->
<g id="Node000009" class="node">
<title>Node9</title>
<g id="a_Node000009"><a xlink:title=" ">
<polygon fill="#e0e0e0" stroke="#999999" points="1317.87,-134.5 1237.87,-134.5 1237.87,-115.5 1317.87,-115.5 1317.87,-134.5"/>
<text text-anchor="middle" x="1277.87" y="-122.5" font-family="Helvetica,sans-Serif" font-size="10.00">vtkCamera.h</text>
</a>
</g>
</g>
<!-- Node1&#45;&gt;Node9 -->
<g id="edge8_Node000001_Node000009" class="edge">
<title>Node1&#45;&gt;Node9</title>
<g id="a_edge8_Node000001_Node000009"><a xlink:title=" ">
<path fill="none" stroke="#63b8ff" d="M1450.37,-175.95C1410.41,-164.38 1354.47,-148.18 1317.25,-137.41"/>
<polygon fill="#63b8ff" stroke="#63b8ff" points="1317.86,-133.94 1307.28,-134.52 1315.91,-140.66 1317.86,-133.94"/>
</a>
</g>
</g>
<!-- Node10 -->
<g id="Node000010" class="node">
<title>Node10</title>
<g id="a_Node000010"><a xlink:title=" ">
<polygon fill="#e0e0e0" stroke="#999999" points="764.87,-74 672.87,-74 672.87,-55 764.87,-55 764.87,-74"/>
<text text-anchor="middle" x="718.87" y="-62" font-family="Helvetica,sans-Serif" font-size="10.00">vtkCommand.h</text>
</a>
</g>
</g>
<!-- Node1&#45;&gt;Node10 -->
<g id="edge9_Node000001_Node000010" class="edge">
<title>Node1&#45;&gt;Node10</title>
<g id="a_edge9_Node000001_Node000010"><a xlink:title=" ">
<path fill="none" stroke="#63b8ff" d="M1443.74,-188.78C1308.25,-185.3 961.99,-173.33 851.87,-140 840.24,-136.48 776.88,-99.69 741.98,-79.16"/>
<polygon fill="#63b8ff" stroke="#63b8ff" points="743.75,-76.15 733.36,-74.08 740.2,-82.18 743.75,-76.15"/>
</a>
</g>
</g>
<!-- Node11 -->
<g id="Node000011" class="node">
<title>Node11</title>
<g id="a_Node000011"><a xlink:title=" ">
<polygon fill="#e0e0e0" stroke="#999999" points="1433.37,-134.5 1336.37,-134.5 1336.37,-115.5 1433.37,-115.5 1433.37,-134.5"/>
<text text-anchor="middle" x="1384.87" y="-122.5" font-family="Helvetica,sans-Serif" font-size="10.00">vtkImageActor.h</text>
</a>
</g>
</g>
<!-- Node1&#45;&gt;Node11 -->
<g id="edge10_Node000001_Node000011" class="edge">
<title>Node1&#45;&gt;Node11</title>
<g id="a_edge10_Node000001_Node000011"><a xlink:title=" ">
<path fill="none" stroke="#63b8ff" d="M1473.85,-175.95C1454.56,-165.13 1428.05,-150.24 1408.99,-139.54"/>
<polygon fill="#63b8ff" stroke="#63b8ff" points="1410.47,-136.36 1400.04,-134.52 1407.04,-142.46 1410.47,-136.36"/>
</a>
</g>
</g>
<!-- Node12 -->
<g id="Node000012" class="node">
<title>Node12</title>
<g id="a_Node000012"><a xlink:title=" ">
<polygon fill="#e0e0e0" stroke="#999999" points="1546.37,-134.5 1451.37,-134.5 1451.37,-115.5 1546.37,-115.5 1546.37,-134.5"/>
<text text-anchor="middle" x="1498.87" y="-122.5" font-family="Helvetica,sans-Serif" font-size="10.00">vtkImageData.h</text>
</a>
</g>
</g>
<!-- Node1&#45;&gt;Node12 -->
<g id="edge11_Node000001_Node000012" class="edge">
<title>Node1&#45;&gt;Node12</title>
<g id="a_edge11_Node000001_Node000012"><a xlink:title=" ">
<path fill="none" stroke="#63b8ff" d="M1498.87,-175.8C1498.87,-166.7 1498.87,-154.79 1498.87,-144.9"/>
<polygon fill="#63b8ff" stroke="#63b8ff" points="1502.37,-144.84 1498.87,-134.84 1495.37,-144.84 1502.37,-144.84"/>
</a>
</g>
</g>
<!-- Node13 -->
<g id="Node000013" class="node">
<title>Node13</title>
<g id="a_Node000013"><a xlink:title=" ">
<polygon fill="#e0e0e0" stroke="#999999" points="1676.87,-134.5 1564.87,-134.5 1564.87,-115.5 1676.87,-115.5 1676.87,-134.5"/>
<text text-anchor="middle" x="1620.87" y="-122.5" font-family="Helvetica,sans-Serif" font-size="10.00">vtkImageProperty.h</text>
</a>
</g>
</g>
<!-- Node1&#45;&gt;Node13 -->
<g id="edge12_Node000001_Node000013" class="edge">
<title>Node1&#45;&gt;Node13</title>
<g id="a_edge12_Node000001_Node000013"><a xlink:title=" ">
<path fill="none" stroke="#63b8ff" d="M1525.64,-175.95C1546.47,-165.03 1575.17,-149.97 1595.61,-139.25"/>
<polygon fill="#63b8ff" stroke="#63b8ff" points="1597.4,-142.26 1604.63,-134.52 1594.15,-136.06 1597.4,-142.26"/>
</a>
</g>
</g>
<!-- Node14 -->
<g id="Node000014" class="node">
<title>Node14</title>
<g id="a_Node000014"><a xlink:title=" ">
<polygon fill="#e0e0e0" stroke="#999999" points="1806.87,-134.5 1694.87,-134.5 1694.87,-115.5 1806.87,-115.5 1806.87,-134.5"/>
<text text-anchor="middle" x="1750.87" y="-122.5" font-family="Helvetica,sans-Serif" font-size="10.00">vtkImageViewer2.h</text>
</a>
</g>
</g>
<!-- Node1&#45;&gt;Node14 -->
<g id="edge13_Node000001_Node000014" class="edge">
<title>Node1&#45;&gt;Node14</title>
<g id="a_edge13_Node000001_Node000014"><a xlink:title=" ">
<path fill="none" stroke="#63b8ff" d="M1554.17,-175.95C1600.31,-164.24 1665.15,-147.77 1707.58,-136.99"/>
<polygon fill="#63b8ff" stroke="#63b8ff" points="1708.5,-140.37 1717.33,-134.52 1706.78,-133.59 1708.5,-140.37"/>
</a>
</g>
</g>
<!-- Node15 -->
<g id="Node000015" class="node">
<title>Node15</title>
<g id="a_Node000015"><a xlink:title=" ">
<polygon fill="#e0e0e0" stroke="#999999" points="1968.87,-134.5 1824.87,-134.5 1824.87,-115.5 1968.87,-115.5 1968.87,-134.5"/>
<text text-anchor="middle" x="1896.87" y="-122.5" font-family="Helvetica,sans-Serif" font-size="10.00">vtkInteractorStyleImage.h</text>
</a>
</g>
</g>
<!-- Node1&#45;&gt;Node15 -->
<g id="edge14_Node000001_Node000015" class="edge">
<title>Node1&#45;&gt;Node15</title>
<g id="a_edge14_Node000001_Node000015"><a xlink:title=" ">
<path fill="none" stroke="#63b8ff" d="M1553.88,-181.57C1617.14,-171.83 1724.07,-155.17 1815.87,-140 1823.03,-138.82 1830.55,-137.55 1837.99,-136.28"/>
<polygon fill="#63b8ff" stroke="#63b8ff" points="1838.79,-139.69 1848.06,-134.56 1837.61,-132.79 1838.79,-139.69"/>
</a>
</g>
</g>
<!-- Node16 -->
<g id="Node000016" class="node">
<title>Node16</title>
<g id="a_Node000016"><a xlink:title=" ">
<polygon fill="#e0e0e0" stroke="#999999" points="2100.87,-134.5 1986.87,-134.5 1986.87,-115.5 2100.87,-115.5 2100.87,-134.5"/>
<text text-anchor="middle" x="2043.87" y="-122.5" font-family="Helvetica,sans-Serif" font-size="10.00">vtkRenderWindow.h</text>
</a>
</g>
</g>
<!-- Node1&#45;&gt;Node16 -->
<g id="edge15_Node000001_Node000016" class="edge">
<title>Node1&#45;&gt;Node16</title>
<g id="a_edge15_Node000001_Node000016"><a xlink:title=" ">
<path fill="none" stroke="#63b8ff" d="M1554.07,-186.13C1643.46,-179.44 1825.28,-164.08 1977.87,-140 1984.09,-139.02 1990.62,-137.83 1997.04,-136.57"/>
<polygon fill="#63b8ff" stroke="#63b8ff" points="1997.89,-139.96 2006.99,-134.54 1996.49,-133.11 1997.89,-139.96"/>
</a>
</g>
</g>
<!-- Node17 -->
<g id="Node000017" class="node">
<title>Node17</title>
<g id="a_Node000017"><a xlink:title=" ">
<polygon fill="#e0e0e0" stroke="#999999" points="2280.37,-134.5 2119.37,-134.5 2119.37,-115.5 2280.37,-115.5 2280.37,-134.5"/>
<text text-anchor="middle" x="2199.87" y="-122.5" font-family="Helvetica,sans-Serif" font-size="10.00">vtkRenderWindowInteractor.h</text>
</a>
</g>
</g>
<!-- Node1&#45;&gt;Node17 -->
<g id="edge16_Node000001_Node000017" class="edge">
<title>Node1&#45;&gt;Node17</title>
<g id="a_edge16_Node000001_Node000017"><a xlink:title=" ">
<path fill="none" stroke="#63b8ff" d="M1554.19,-186.82C1661.56,-180.36 1905.62,-164.21 2109.87,-140 2119.31,-138.88 2129.28,-137.52 2139.01,-136.08"/>
<polygon fill="#63b8ff" stroke="#63b8ff" points="2139.66,-139.52 2149.03,-134.57 2138.62,-132.6 2139.66,-139.52"/>
</a>
</g>
</g>
<!-- Node18 -->
<g id="Node000018" class="node">
<title>Node18</title>
<g id="a_Node000018"><a xlink:title=" ">
<polygon fill="#e0e0e0" stroke="#999999" points="2383.37,-134.5 2298.37,-134.5 2298.37,-115.5 2383.37,-115.5 2383.37,-134.5"/>
<text text-anchor="middle" x="2340.87" y="-122.5" font-family="Helvetica,sans-Serif" font-size="10.00">vtkRenderer.h</text>
</a>
</g>
</g>
<!-- Node1&#45;&gt;Node18 -->
<g id="edge17_Node000001_Node000018" class="edge">
<title>Node1&#45;&gt;Node18</title>
<g id="a_edge17_Node000001_Node000018"><a xlink:title=" ">
<path fill="none" stroke="#63b8ff" d="M1553.97,-190.38C1683.37,-190.43 2016.39,-185.68 2289.87,-140 2294.42,-139.24 2299.16,-138.24 2303.82,-137.12"/>
<polygon fill="#63b8ff" stroke="#63b8ff" points="2305.03,-140.42 2313.83,-134.53 2303.28,-133.64 2305.03,-140.42"/>
</a>
</g>
</g>
<!-- Node19 -->
<g id="Node000019" class="node">
<title>Node19</title>
<g id="a_Node000019"><a xlink:title=" ">
<polygon fill="#e0e0e0" stroke="#999999" points="2544.37,-134.5 2401.37,-134.5 2401.37,-115.5 2544.37,-115.5 2544.37,-134.5"/>
<text text-anchor="middle" x="2472.87" y="-122.5" font-family="Helvetica,sans-Serif" font-size="10.00">vtkResliceCursorWidget.h</text>
</a>
</g>
</g>
<!-- Node1&#45;&gt;Node19 -->
<g id="edge18_Node000001_Node000019" class="edge">
<title>Node1&#45;&gt;Node19</title>
<g id="a_edge18_Node000001_Node000019"><a xlink:title=" ">
<path fill="none" stroke="#63b8ff" d="M1553.99,-189.17C1694.38,-186.55 2076.67,-176.38 2392.87,-140 2401.52,-139 2410.65,-137.67 2419.53,-136.23"/>
<polygon fill="#63b8ff" stroke="#63b8ff" points="2420.13,-139.68 2429.41,-134.56 2418.96,-132.78 2420.13,-139.68"/>
</a>
</g>
</g>
<!-- Node20 -->
<g id="Node000020" class="node">
<title>Node20</title>
<g id="a_Node000020"><a xlink:title=" ">
<polygon fill="#e0e0e0" stroke="#999999" points="922.87,-74 782.87,-74 782.87,-55 922.87,-55 922.87,-74"/>
<text text-anchor="middle" x="852.87" y="-62" font-family="Helvetica,sans-Serif" font-size="10.00">vtkResliceImageViewer.h</text>
</a>
</g>
</g>
<!-- Node1&#45;&gt;Node20 -->
<g id="edge19_Node000001_Node000020" class="edge">
<title>Node1&#45;&gt;Node20</title>
<g id="a_edge19_Node000001_Node000020"><a xlink:title=" ">
<path fill="none" stroke="#63b8ff" d="M1443.76,-189.21C1298.82,-186.65 915.1,-176.44 871.87,-140 855.79,-126.45 852.3,-101.37 852,-84.08"/>
<polygon fill="#63b8ff" stroke="#63b8ff" points="855.5,-84.1 852.16,-74.04 848.5,-83.99 855.5,-84.1"/>
</a>
</g>
</g>
<!-- Node21 -->
<g id="Node000021" class="node">
<title>Node21</title>
<g id="a_Node000021"><a xlink:title=" ">
<polygon fill="#e0e0e0" stroke="#999999" points="2626.87,-134.5 2562.87,-134.5 2562.87,-115.5 2626.87,-115.5 2626.87,-134.5"/>
<text text-anchor="middle" x="2594.87" y="-122.5" font-family="Helvetica,sans-Serif" font-size="10.00">algorithm</text>
</a>
</g>
</g>
<!-- Node1&#45;&gt;Node21 -->
<g id="edge20_Node000001_Node000021" class="edge">
<title>Node1&#45;&gt;Node21</title>
<g id="a_edge20_Node000001_Node000021"><a xlink:title=" ">
<path fill="none" stroke="#63b8ff" d="M1554.17,-189.43C1742.72,-187.16 2359.44,-177.03 2553.87,-140 2557.12,-139.38 2560.46,-138.56 2563.77,-137.63"/>
<polygon fill="#63b8ff" stroke="#63b8ff" points="2564.98,-140.92 2573.47,-134.57 2562.88,-134.24 2564.98,-140.92"/>
</a>
</g>
</g>
<!-- Node22 -->
<g id="Node000022" class="node">
<title>Node22</title>
<g id="a_Node000022"><a xlink:href="ResliceImageViewerInteractorStyle_8hpp.html" target="_top" xlink:title=" ">
<polygon fill="white" stroke="#666666" points="786.37,-140 643.37,-140 643.37,-110 786.37,-110 786.37,-140"/>
<text text-anchor="start" x="651.37" y="-128" font-family="Helvetica,sans-Serif" font-size="10.00">controllers/ResliceImage</text>
<text text-anchor="middle" x="714.87" y="-117" font-family="Helvetica,sans-Serif" font-size="10.00">ViewerInteractorStyle.hpp</text>
</a>
</g>
</g>
<!-- Node1&#45;&gt;Node22 -->
<g id="edge21_Node000001_Node000022" class="edge">
<title>Node1&#45;&gt;Node22</title>
<g id="a_edge21_Node000001_Node000022"><a xlink:title=" ">
<path fill="none" stroke="#63b8ff" d="M1443.51,-187.73C1325.23,-182.5 1039.19,-167.88 800.87,-140 799.56,-139.85 798.24,-139.69 796.91,-139.52"/>
<polygon fill="#63b8ff" stroke="#63b8ff" points="796.97,-136 786.6,-138.17 796.06,-142.94 796.97,-136"/>
</a>
</g>
</g>
<!-- Node25 -->
<g id="Node000025" class="node">
<title>Node25</title>
<g id="a_Node000025"><a xlink:href="RenderScheduler_8hpp.html" target="_top" xlink:title=" ">
<polygon fill="white" stroke="#666666" points="316.87,-134.5 162.87,-134.5 162.87,-115.5 316.87,-115.5 316.87,-134.5"/>
<text text-anchor="middle" x="239.87" y="-122.5" font-family="Helvetica,sans-Serif" font-size="10.00">render/RenderScheduler.hpp</text>
</a>
</g>
</g>
<!-- Node1&#45;&gt;Node25 -->
<g id="edge28_Node000001_Node000025" class="edge">
<title>Node1&#45;&gt;Node25</title>
<g id="a_edge28_Node000001_Node000025"><a xlink:title=" ">
<path fill="none" stroke="#63b8ff" d="M1443.55,-187.19C1245.29,-177.11 569.24,-142.74 327.06,-130.43"/>
<polygon fill="#63b8ff" stroke="#63b8ff" points="327.06,-126.93 316.9,-129.92 326.71,-133.92 327.06,-126.93"/>
</a>
</g>
</g>
<!-- Node3 -->
<g id="Node000003" class="node">
<title>Node3</title>
<g id="a_Node000003"><a xlink:title=" ">
<polygon fill="#e0e0e0" stroke="#999999" points="1044.87,-74 940.87,-74 940.87,-55 1044.87,-55 1044.87,-74"/>
<text text-anchor="middle" x="992.87" y="-62" font-family="Helvetica,sans-Serif" font-size="10.00">vtkSmartPointer.h</text>
</a>
</g>
</g>
<!-- Node2&#45;&gt;Node3 -->
<g id="edge2_Node000002_Node000003" class="edge">
<title>Node2&#45;&gt;Node3</title>
<g id="a_edge2_Node000002_Node000003"><a xlink:title=" ">
<path fill="none" stroke="#63b8ff" d="M967.29,-115.37C971.64,-106.9 978.38,-93.74 983.86,-83.07"/>
<polygon fill="#63b8ff" stroke="#63b8ff" points="986.97,-84.66 988.42,-74.17 980.74,-81.47 986.97,-84.66"/>
</a>
</g>
</g>
<!-- Node4 -->
<g id="Node000004" class="node">
<title>Node4</title>
<g id="a_Node000004"><a xlink:title=" ">
<polygon fill="#e0e0e0" stroke="#999999" points="1289.87,-74 1247.87,-74 1247.87,-55 1289.87,-55 1289.87,-74"/>
<text text-anchor="middle" x="1268.87" y="-62" font-family="Helvetica,sans-Serif" font-size="10.00">array</text>
</a>
</g>
</g>
<!-- Node2&#45;&gt;Node4 -->
<g id="edge3_Node000002_Node000004" class="edge">
<title>Node2&#45;&gt;Node4</title>
<g id="a_edge3_Node000002_Node000004"><a xlink:title=" ">
<path fill="none" stroke="#63b8ff" d="M1018.96,-115.47C1072.77,-106.93 1156.46,-92.67 1237.73,-74.08"/>
<polygon fill="#63b8ff" stroke="#63b8ff" points="1238.67,-77.46 1247.63,-71.79 1237.1,-70.64 1238.67,-77.46"/>
</a>
</g>
</g>
<!-- Node5 -->
<g id="Node000005" class="node">
<title>Node5</title>
<g id="a_Node000005"><a xlink:title=" ">
<polygon fill="#e0e0e0" stroke="#999999" points="543.37,-74 496.37,-74 496.37,-55 543.37,-55 543.37,-74"/>
<text text-anchor="middle" x="519.87" y="-62" font-family="Helvetica,sans-Serif" font-size="10.00">vector</text>
</a>
</g>
</g>
<!-- Node2&#45;&gt;Node5 -->
<g id="edge4_Node000002_Node000005" class="edge">
<title>Node2&#45;&gt;Node5</title>
<g id="a_edge4_Node000002_Node000005"><a xlink:title=" ">
<path fill="none" stroke="#63b8ff" d="M881.25,-117.43C800.22,-110.14 672.38,-96.59 553.55,-74.1"/>
<polygon fill="#63b8ff" stroke="#63b8ff" points="554.03,-70.63 543.55,-72.18 552.71,-77.5 554.03,-70.63"/>
</a>
</g>
</g>
<!-- Node6 -->
<g id="Node000006" class="node">
<title>Node6</title>
<g id="a_Node000006"><a xlink:href="IControllerBase_8hpp.html" target="_top" xlink:title=" ">
<polygon fill="white" stroke="#666666" points="1230.37,-74 1063.37,-74 1063.37,-55 1230.37,-55 1230.37,-74"/>
<text text-anchor="middle" x="1146.87" y="-62" font-family="Helvetica,sans-Serif" font-size="10.00">controllers/IControllerBase.hpp</text>
</a>
</g>
</g>
<!-- Node2&#45;&gt;Node6 -->
<g id="edge5_Node000002_Node000006" class="edge">
<title>Node2&#45;&gt;Node6</title>
<g id="a_edge5_Node000002_Node000006"><a xlink:title=" ">
<path fill="none" stroke="#63b8ff" d="M989.62,-115.49C1021.51,-105.36 1074.94,-88.37 1110.54,-77.05"/>
<polygon fill="#63b8ff" stroke="#63b8ff" points="1111.61,-80.38 1120.08,-74.02 1109.49,-73.71 1111.61,-80.38"/>
</a>
</g>
</g>
<!-- Node7 -->
<g id="Node000007" class="node">
<title>Node7</title>
<g id="a_Node000007"><a xlink:title=" ">
<polygon fill="#e0e0e0" stroke="#999999" points="1174.87,-19 1118.87,-19 1118.87,0 1174.87,0 1174.87,-19"/>
<text text-anchor="middle" x="1146.87" y="-7" font-family="Helvetica,sans-Serif" font-size="10.00">QObject</text>
</a>
</g>
</g>
<!-- Node6&#45;&gt;Node7 -->
<g id="edge6_Node000006_Node000007" class="edge">
<title>Node6&#45;&gt;Node7</title>
<g id="a_edge6_Node000006_Node000007"><a xlink:title=" ">
<path fill="none" stroke="#63b8ff" d="M1146.87,-54.75C1146.87,-47.8 1146.87,-37.85 1146.87,-29.13"/>
<polygon fill="#63b8ff" stroke="#63b8ff" points="1150.37,-29.09 1146.87,-19.09 1143.37,-29.09 1150.37,-29.09"/>
</a>
</g>
</g>
<!-- Node22&#45;&gt;Node3 -->
<g id="edge25_Node000022_Node000003" class="edge">
<title>Node22&#45;&gt;Node3</title>
<g id="a_edge25_Node000022_Node000003"><a xlink:title=" ">
<path fill="none" stroke="#63b8ff" d="M781.45,-109.99C830.89,-99.59 897.27,-85.62 942.37,-76.13"/>
<polygon fill="#63b8ff" stroke="#63b8ff" points="943.15,-79.54 952.22,-74.05 941.71,-72.69 943.15,-79.54"/>
</a>
</g>
</g>
<!-- Node22&#45;&gt;Node5 -->
<g id="edge27_Node000022_Node000005" class="edge">
<title>Node22&#45;&gt;Node5</title>
<g id="a_edge27_Node000022_Node000005"><a xlink:title=" ">
<path fill="none" stroke="#63b8ff" d="M668.16,-109.99C632.68,-99.34 584.74,-84.96 553.1,-75.47"/>
<polygon fill="#63b8ff" stroke="#63b8ff" points="554.01,-72.09 543.43,-72.57 552,-78.79 554.01,-72.09"/>
</a>
</g>
</g>
<!-- Node22&#45;&gt;Node10 -->
<g id="edge22_Node000022_Node000010" class="edge">
<title>Node22&#45;&gt;Node10</title>
<g id="a_edge22_Node000022_Node000010"><a xlink:title=" ">
<path fill="none" stroke="#63b8ff" d="M715.84,-109.84C716.36,-102.21 717.01,-92.7 717.57,-84.45"/>
<polygon fill="#63b8ff" stroke="#63b8ff" points="721.08,-84.48 718.27,-74.27 714.09,-84 721.08,-84.48"/>
</a>
</g>
</g>
<!-- Node22&#45;&gt;Node20 -->
<g id="edge24_Node000022_Node000020" class="edge">
<title>Node22&#45;&gt;Node20</title>
<g id="a_edge24_Node000022_Node000020"><a xlink:title=" ">
<path fill="none" stroke="#63b8ff" d="M747.92,-109.99C770.84,-100.27 801.11,-87.44 823.24,-78.06"/>
<polygon fill="#63b8ff" stroke="#63b8ff" points="824.65,-81.26 832.49,-74.14 821.91,-74.82 824.65,-81.26"/>
</a>
</g>
</g>
<!-- Node23 -->
<g id="Node000023" class="node">
<title>Node23</title>
<g id="a_Node000023"><a xlink:title=" ">
<polygon fill="#e0e0e0" stroke="#999999" points="477.87,-74 345.87,-74 345.87,-55 477.87,-55 477.87,-74"/>
<text text-anchor="middle" x="411.87" y="-62" font-family="Helvetica,sans-Serif" font-size="10.00">vtkInteractorObserver.h</text>
</a>
</g>
</g>
<!-- Node22&#45;&gt;Node23 -->
<g id="edge23_Node000022_Node000023" class="edge">
<title>Node22&#45;&gt;Node23</title>
<g id="a_edge23_Node000022_Node000023"><a xlink:title=" ">
<path fill="none" stroke="#63b8ff" d="M643.06,-110.14C588.7,-99.64 515.21,-85.45 465.81,-75.91"/>
<polygon fill="#63b8ff" stroke="#63b8ff" points="466.44,-72.47 455.96,-74.01 465.11,-79.34 466.44,-72.47"/>
</a>
</g>
</g>
<!-- Node24 -->
<g id="Node000024" class="node">
<title>Node24</title>
<g id="a_Node000024"><a xlink:title=" ">
<polygon fill="#e0e0e0" stroke="#999999" points="654.37,-74 561.37,-74 561.37,-55 654.37,-55 654.37,-74"/>
<text text-anchor="middle" x="607.87" y="-62" font-family="Helvetica,sans-Serif" font-size="10.00">unordered_map</text>
</a>
</g>
</g>
<!-- Node22&#45;&gt;Node24 -->
<g id="edge26_Node000022_Node000024" class="edge">
<title>Node22&#45;&gt;Node24</title>
<g id="a_edge26_Node000022_Node000024"><a xlink:title=" ">
<path fill="none" stroke="#63b8ff" d="M689.24,-109.99C672.02,-100.58 649.47,-88.24 632.47,-78.95"/>
<polygon fill="#63b8ff" stroke="#63b8ff" points="634.12,-75.87 623.67,-74.14 630.76,-82.01 634.12,-75.87"/>
</a>
</g>
</g>
<!-- Node25&#45;&gt;Node5 -->
<g id="edge32_Node000025_Node000005" class="edge">
<title>Node25&#45;&gt;Node5</title>
<g id="a_edge32_Node000025_Node000005"><a xlink:title=" ">
<path fill="none" stroke="#63b8ff" d="M285.54,-115.5C333.2,-106.46 410.29,-91.37 486.36,-74.02"/>
<polygon fill="#63b8ff" stroke="#63b8ff" points="487.15,-77.43 496.11,-71.78 485.58,-70.6 487.15,-77.43"/>
</a>
</g>
</g>
<!-- Node26 -->
<g id="Node000026" class="node">
<title>Node26</title>
<g id="a_Node000026"><a xlink:title=" ">
<polygon fill="#e0e0e0" stroke="#999999" points="60.37,-19 7.37,-19 7.37,0 60.37,0 60.37,-19"/>
<text text-anchor="middle" x="33.87" y="-7" font-family="Helvetica,sans-Serif" font-size="10.00">cstddef</text>
</a>
</g>
</g>
<!-- Node25&#45;&gt;Node26 -->
<g id="edge29_Node000025_Node000026" class="edge">
<title>Node25&#45;&gt;Node26</title>
<g id="a_edge29_Node000025_Node000026"><a xlink:title=" ">
<path fill="none" stroke="#63b8ff" d="M162.79,-117.92C102.11,-111.34 24.58,-98.35 4.87,-74 -6.63,-59.8 5.46,-40.31 17.35,-26.68"/>
<polygon fill="#63b8ff" stroke="#63b8ff" points="20.23,-28.74 24.52,-19.05 15.12,-23.95 20.23,-28.74"/>
</a>
</g>
</g>
<!-- Node27 -->
<g id="Node000027" class="node">
<title>Node27</title>
<g id="a_Node000027"><a xlink:title=" ">
<polygon fill="#e0e0e0" stroke="#999999" points="223.87,-74 165.87,-74 165.87,-55 223.87,-55 223.87,-74"/>
<text text-anchor="middle" x="194.87" y="-62" font-family="Helvetica,sans-Serif" font-size="10.00">memory</text>
</a>
</g>
</g>
<!-- Node25&#45;&gt;Node27 -->
<g id="edge30_Node000025_Node000027" class="edge">
<title>Node25&#45;&gt;Node27</title>
<g id="a_edge30_Node000025_Node000027"><a xlink:title=" ">
<path fill="none" stroke="#63b8ff" d="M233.23,-115.37C226.58,-106.73 216.18,-93.2 207.88,-82.42"/>
<polygon fill="#63b8ff" stroke="#63b8ff" points="210.41,-79.96 201.53,-74.17 204.86,-84.23 210.41,-79.96"/>
</a>
</g>
</g>
<!-- Node28 -->
<g id="Node000028" class="node">
<title>Node28</title>
<g id="a_Node000028"><a xlink:title=" ">
<polygon fill="#e0e0e0" stroke="#999999" points="327.87,-74 241.87,-74 241.87,-55 327.87,-55 327.87,-74"/>
<text text-anchor="middle" x="284.87" y="-62" font-family="Helvetica,sans-Serif" font-size="10.00">unordered_set</text>
</a>
</g>
</g>
<!-- Node25&#45;&gt;Node28 -->
<g id="edge31_Node000025_Node000028" class="edge">
<title>Node25&#45;&gt;Node28</title>
<g id="a_edge31_Node000025_Node000028"><a xlink:title=" ">
<path fill="none" stroke="#63b8ff" d="M246.51,-115.37C253.15,-106.73 263.56,-93.2 271.85,-82.42"/>
<polygon fill="#63b8ff" stroke="#63b8ff" points="274.88,-84.23 278.2,-74.17 269.33,-79.96 274.88,-84.23"/>
</a>
</g>
</g>
<!-- Node29 -->
<g id="Node000029" class="node">
<title>Node29</title>
<g id="a_Node000029"><a xlink:href="RenderTypes_8hpp.html" target="_top" xlink:title=" ">
<polygon fill="white" stroke="#666666" points="147.87,-74 13.87,-74 13.87,-55 147.87,-55 147.87,-74"/>
<text text-anchor="middle" x="80.87" y="-62" font-family="Helvetica,sans-Serif" font-size="10.00">render/RenderTypes.hpp</text>
</a>
</g>
</g>
<!-- Node25&#45;&gt;Node29 -->
<g id="edge33_Node000025_Node000029" class="edge">
<title>Node25&#45;&gt;Node29</title>
<g id="a_edge33_Node000025_Node000029"><a xlink:title=" ">
<path fill="none" stroke="#63b8ff" d="M216.75,-115.49C189.55,-105.49 144.2,-88.8 113.45,-77.49"/>
<polygon fill="#63b8ff" stroke="#63b8ff" points="114.61,-74.18 104.01,-74.02 112.19,-80.75 114.61,-74.18"/>
</a>
</g>
</g>
<!-- Node29&#45;&gt;Node26 -->
<g id="edge34_Node000029_Node000026" class="edge">
<title>Node29&#45;&gt;Node26</title>
<g id="a_edge34_Node000029_Node000026"><a xlink:title=" ">
<path fill="none" stroke="#63b8ff" d="M73.11,-54.75C66.4,-47.18 56.53,-36.05 48.36,-26.84"/>
<polygon fill="#63b8ff" stroke="#63b8ff" points="50.74,-24.25 41.48,-19.09 45.5,-28.89 50.74,-24.25"/>
</a>
</g>
</g>
</g>
</svg>

<g id="navigator" transform="translate(0 0)" fill="#404254">
  <rect fill="#f2f5e9" fill-opacity="0.5" stroke="#606060" stroke-width=".5" x="0" y="0" width="60" height="60"/>
  <use id="zoomplus" xlink:href="#zoomPlus" x="17" y="9" onmousedown="handleZoom(evt,'in')"/>
  <use id="zoomminus" xlink:href="#zoomMin" x="42" y="9" onmousedown="handleZoom(evt,'out')"/>
  <use id="reset" xlink:href="#resetDef" x="30" y="36" onmousedown="handleReset()"/>
   <use id="arrowup" xlink:href="#arrowUp" x="0" y="0" onmousedown="handlePan(0,-1)"/>
  <use id="arrowright" xlink:href="#arrowRight" x="0" y="0" onmousedown="handlePan(1,0)"/>
  <use id="arrowdown" xlink:href="#arrowDown" x="0" y="0" onmousedown="handlePan(0,1)"/>
  <use id="arrowleft" xlink:href="#arrowLeft" x="0" y="0" onmousedown="handlePan(-1,0)"/>
</g>
<svg viewBox="0 0 15 15" width="100%" height="30px" preserveAspectRatio="xMaxYMin meet">
 <g id="arrow_out" transform="scale(0.3 0.3)">
  <a xlink:href="SliceController_8cpp__incl_org.svg" target="_base">
   <rect id="button" ry="5" rx="5" y="6" x="6" height="38" width="38"
        fill="#f2f5e9" fill-opacity="0.5" stroke="#606060" stroke-width="1.0"/>
   <path id="arrow"
     d="M 11.500037,31.436501 C 11.940474,20.09759 22.043105,11.32322 32.158766,21.979434 L 37.068811,17.246167 C 37.068811,17.246167 37.088388,32 37.088388,32 L 22.160133,31.978069 C 22.160133,31.978069 26.997745,27.140456 26.997745,27.140456 C 18.528582,18.264221 13.291696,25.230495 11.500037,31.436501 z"
     style="fill:#404040;"/>
  </a>
 </g>
</svg>

<style type='text/css'>
<![CDATA[
[data-mouse-over-selected='false'] { opacity: 0.7; }
[data-mouse-over-selected='true']  { opacity: 1.0; }
]]>
</style>
<script type="application/ecmascript"><![CDATA[
document.addEventListener('DOMContentLoaded', (event) => {
  highlightEdges();
  highlightAdjacentNodes();
});
]]></script>
</svg>
