<?xml version="1.0" encoding="UTF-8" standalone="no"?>
<!DOCTYPE svg PUBLIC "-//W3C//DTD SVG 1.1//EN"
 "http://www.w3.org/Graphics/SVG/1.1/DTD/svg11.dtd">
<!-- Generated by graphviz version 2.43.0 (0)
 -->
<!-- Title: src/controllers/src/SphereController.cpp Pages: 1 -->
<!--zoomable 203 -->

<svg id="main" version="1.1" xmlns="http://www.w3.org/2000/svg" xmlns:xlink="http://www.w3.org/1999/xlink" xml:space="preserve" onload="init(evt)">
<style type="text/css"><![CDATA[
.node, .edge {opacity: 0.7;}
.node.selected, .edge.selected {opacity: 1;}
.edge:hover path { stroke: red; }
.edge:hover polygon { stroke: red; fill: red; }
]]></style>

<defs>
  <circle id="rim" cx="0" cy="0" r="7"/>
  <circle id="rim2" cx="0" cy="0" r="3.5"/>
  <g id="zoomPlus">
    <use xlink:href="#rim" fill="#404040"><set attributeName="fill" to="#808080" begin="zoomplus.mouseover" end="zoomplus.mouseout"/></use>
    <path d="M-4,0h8M0,-4v8" fill="none" stroke="white" stroke-width="1.5" pointer-events="none"/>
  </g>
  <g id="zoomMin">
    <use xlink:href="#rim" fill="#404040"><set attributeName="fill" to="#808080" begin="zoomminus.mouseover" end="zoomminus.mouseout"/></use>
    <path d="M-4,0h8" fill="none" stroke="white" stroke-width="1.5" pointer-events="none"/>
  </g>
  <g id="arrowUp" transform="translate(30 24)">
    <use xlink:href="#rim"/>
    <path pointer-events="none" fill="none" stroke="white" stroke-width="1.5" d="M0,-3.0v7 M-2.5,-0.5L0,-3.0L2.5,-0.5"/>
  </g>
  <g id="arrowRight" transform="rotate(90) translate(36 -43)">
    <use xlink:href="#rim"/>
    <path pointer-events="none" fill="none" stroke="white" stroke-width="1.5" d="M0,-3.0v7 M-2.5,-0.5L0,-3.0L2.5,-0.5"/>
  </g>
  <g id="arrowDown" transform="rotate(180) translate(-30 -48)">
    <use xlink:href="#rim"/>
    <path pointer-events="none" fill="none" stroke="white" stroke-width="1.5" d="M0,-3.0v7 M-2.5,-0.5L0,-3.0L2.5,-0.5"/>
  </g>
  <g id="arrowLeft" transform="rotate(270) translate(-36 17)">
    <use xlink:href="#rim"/>
    <path pointer-events="none" fill="none" stroke="white" stroke-width="1.5" d="M0,-3.0v7 M-2.5,-0.5L0,-3.0L2.5,-0.5"/>
  </g>
  <g id="resetDef">
    <use xlink:href="#rim2" fill="#404040"><set attributeName="fill" to="#808080" begin="reset.mouseover" end="reset.mouseout"/></use>
  </g>
</defs>
<script type="application/ecmascript">
var viewWidth = 1976;
var viewHeight = 203;
var sectionId = 'dynsection-0';
</script>
<script type="application/ecmascript" xlink:href="svg.min.js"/>
<svg id="graph" class="graph">
<g id="viewport">
<title>src/controllers/src/SphereController.cpp</title>
<!-- Node1 -->
<g id="Node000001" class="node">
<title>Node1</title>
<g id="a_Node000001"><a xlink:title=" ">
<polygon fill="#999999" stroke="#666666" points="969.5,-195 848.5,-195 848.5,-165 969.5,-165 969.5,-195"/>
<text text-anchor="start" x="856.5" y="-183" font-family="Helvetica,sans-Serif" font-size="10.00">src/controllers/src</text>
<text text-anchor="middle" x="909" y="-172" font-family="Helvetica,sans-Serif" font-size="10.00">/SphereController.cpp</text>
</a>
</g>
</g>
<!-- Node2 -->
<g id="Node000002" class="node">
<title>Node2</title>
<g id="a_Node000002"><a xlink:href="SphereController_8hpp.html" target="_top" xlink:title=" ">
<polygon fill="white" stroke="#666666" points="229.5,-129 56.5,-129 56.5,-110 229.5,-110 229.5,-129"/>
<text text-anchor="middle" x="143" y="-117" font-family="Helvetica,sans-Serif" font-size="10.00">controllers/SphereController.hpp</text>
</a>
</g>
</g>
<!-- Node1&#45;&gt;Node2 -->
<g id="edge1_Node000001_Node000002" class="edge">
<title>Node1&#45;&gt;Node2</title>
<g id="a_edge1_Node000001_Node000002"><a xlink:title=" ">
<path fill="none" stroke="#63b8ff" d="M848.46,-174.76C732.66,-166.6 471.46,-147.89 239.91,-129.06"/>
<polygon fill="#63b8ff" stroke="#63b8ff" points="239.85,-125.55 229.6,-128.22 239.29,-132.52 239.85,-125.55"/>
</a>
</g>
</g>
<!-- Node8 -->
<g id="Node000008" class="node">
<title>Node8</title>
<g id="a_Node000008"><a xlink:title=" ">
<polygon fill="#e0e0e0" stroke="#999999" points="314,-129 248,-129 248,-110 314,-110 314,-129"/>
<text text-anchor="middle" x="281" y="-117" font-family="Helvetica,sans-Serif" font-size="10.00">vtkActor.h</text>
</a>
</g>
</g>
<!-- Node1&#45;&gt;Node8 -->
<g id="edge7_Node000001_Node000008" class="edge">
<title>Node1&#45;&gt;Node8</title>
<g id="a_edge7_Node000001_Node000008"><a xlink:title=" ">
<path fill="none" stroke="#63b8ff" d="M848.42,-176.12C743.56,-170.64 521.31,-156.82 324.36,-129.04"/>
<polygon fill="#63b8ff" stroke="#63b8ff" points="324.8,-125.57 314.41,-127.62 323.82,-132.5 324.8,-125.57"/>
</a>
</g>
</g>
<!-- Node9 -->
<g id="Node000009" class="node">
<title>Node9</title>
<g id="a_Node000009"><a xlink:title=" ">
<polygon fill="#e0e0e0" stroke="#999999" points="466,-129 332,-129 332,-110 466,-110 466,-129"/>
<text text-anchor="middle" x="399" y="-117" font-family="Helvetica,sans-Serif" font-size="10.00">vtkCallbackCommand.h</text>
</a>
</g>
</g>
<!-- Node1&#45;&gt;Node9 -->
<g id="edge8_Node000001_Node000009" class="edge">
<title>Node1&#45;&gt;Node9</title>
<g id="a_edge8_Node000001_Node000009"><a xlink:title=" ">
<path fill="none" stroke="#63b8ff" d="M848.49,-172.06C755.77,-161.42 578.56,-141.1 476.54,-129.39"/>
<polygon fill="#63b8ff" stroke="#63b8ff" points="476.63,-125.88 466.3,-128.22 475.83,-132.84 476.63,-125.88"/>
</a>
</g>
</g>
<!-- Node10 -->
<g id="Node000010" class="node">
<title>Node10</title>
<g id="a_Node000010"><a xlink:title=" ">
<polygon fill="#e0e0e0" stroke="#999999" points="573.5,-129 484.5,-129 484.5,-110 573.5,-110 573.5,-129"/>
<text text-anchor="middle" x="529" y="-117" font-family="Helvetica,sans-Serif" font-size="10.00">vtkCellPicker.h</text>
</a>
</g>
</g>
<!-- Node1&#45;&gt;Node10 -->
<g id="edge9_Node000001_Node000010" class="edge">
<title>Node1&#45;&gt;Node10</title>
<g id="a_edge9_Node000001_Node000010"><a xlink:title=" ">
<path fill="none" stroke="#63b8ff" d="M848.31,-169.76C785,-160.11 682.59,-144.46 583.94,-129.14"/>
<polygon fill="#63b8ff" stroke="#63b8ff" points="584.21,-125.64 573.79,-127.56 583.13,-132.56 584.21,-125.64"/>
</a>
</g>
</g>
<!-- Node11 -->
<g id="Node000011" class="node">
<title>Node11</title>
<g id="a_Node000011"><a xlink:title=" ">
<polygon fill="#e0e0e0" stroke="#999999" points="684,-129 592,-129 592,-110 684,-110 684,-129"/>
<text text-anchor="middle" x="638" y="-117" font-family="Helvetica,sans-Serif" font-size="10.00">vtkCommand.h</text>
</a>
</g>
</g>
<!-- Node1&#45;&gt;Node11 -->
<g id="edge10_Node000001_Node000011" class="edge">
<title>Node1&#45;&gt;Node11</title>
<g id="a_edge10_Node000001_Node000011"><a xlink:title=" ">
<path fill="none" stroke="#63b8ff" d="M848.18,-165.87C799.73,-155.41 732.74,-140.95 687.52,-131.19"/>
<polygon fill="#63b8ff" stroke="#63b8ff" points="688.16,-127.75 677.65,-129.06 686.68,-134.59 688.16,-127.75"/>
</a>
</g>
</g>
<!-- Node12 -->
<g id="Node000012" class="node">
<title>Node12</title>
<g id="a_Node000012"><a xlink:title=" ">
<polygon fill="#e0e0e0" stroke="#999999" points="770,-129 702,-129 702,-110 770,-110 770,-129"/>
<text text-anchor="middle" x="736" y="-117" font-family="Helvetica,sans-Serif" font-size="10.00">vtkPlane.h</text>
</a>
</g>
</g>
<!-- Node1&#45;&gt;Node12 -->
<g id="edge11_Node000001_Node000012" class="edge">
<title>Node1&#45;&gt;Node12</title>
<g id="a_edge11_Node000001_Node000012"><a xlink:title=" ">
<path fill="none" stroke="#63b8ff" d="M867.56,-164.99C838.09,-155.02 798.94,-141.78 771.03,-132.35"/>
<polygon fill="#63b8ff" stroke="#63b8ff" points="771.89,-128.94 761.3,-129.05 769.65,-135.57 771.89,-128.94"/>
</a>
</g>
</g>
<!-- Node13 -->
<g id="Node000013" class="node">
<title>Node13</title>
<g id="a_Node000013"><a xlink:title=" ">
<polygon fill="#e0e0e0" stroke="#999999" points="910,-129 788,-129 788,-110 910,-110 910,-129"/>
<text text-anchor="middle" x="849" y="-117" font-family="Helvetica,sans-Serif" font-size="10.00">vtkPolyDataMapper.h</text>
</a>
</g>
</g>
<!-- Node1&#45;&gt;Node13 -->
<g id="edge12_Node000001_Node000013" class="edge">
<title>Node1&#45;&gt;Node13</title>
<g id="a_edge12_Node000001_Node000013"><a xlink:title=" ">
<path fill="none" stroke="#63b8ff" d="M894.48,-164.84C885.68,-156.26 874.43,-145.3 865.33,-136.42"/>
<polygon fill="#63b8ff" stroke="#63b8ff" points="867.59,-133.74 857.99,-129.27 862.71,-138.75 867.59,-133.74"/>
</a>
</g>
</g>
<!-- Node14 -->
<g id="Node000014" class="node">
<title>Node14</title>
<g id="a_Node000014"><a xlink:title=" ">
<polygon fill="#e0e0e0" stroke="#999999" points="1009.5,-129 928.5,-129 928.5,-110 1009.5,-110 1009.5,-129"/>
<text text-anchor="middle" x="969" y="-117" font-family="Helvetica,sans-Serif" font-size="10.00">vtkProperty.h</text>
</a>
</g>
</g>
<!-- Node1&#45;&gt;Node14 -->
<g id="edge13_Node000001_Node000014" class="edge">
<title>Node1&#45;&gt;Node14</title>
<g id="a_edge13_Node000001_Node000014"><a xlink:title=" ">
<path fill="none" stroke="#63b8ff" d="M923.52,-164.84C932.32,-156.26 943.57,-145.3 952.67,-136.42"/>
<polygon fill="#63b8ff" stroke="#63b8ff" points="955.29,-138.75 960.01,-129.27 950.41,-133.74 955.29,-138.75"/>
</a>
</g>
</g>
<!-- Node15 -->
<g id="Node000015" class="node">
<title>Node15</title>
<g id="a_Node000015"><a xlink:title=" ">
<polygon fill="#e0e0e0" stroke="#999999" points="1142,-129 1028,-129 1028,-110 1142,-110 1142,-129"/>
<text text-anchor="middle" x="1085" y="-117" font-family="Helvetica,sans-Serif" font-size="10.00">vtkRenderWindow.h</text>
</a>
</g>
</g>
<!-- Node1&#45;&gt;Node15 -->
<g id="edge14_Node000001_Node000015" class="edge">
<title>Node1&#45;&gt;Node15</title>
<g id="a_edge14_Node000001_Node000015"><a xlink:title=" ">
<path fill="none" stroke="#63b8ff" d="M951.16,-164.99C981.27,-154.98 1021.31,-141.67 1049.73,-132.22"/>
<polygon fill="#63b8ff" stroke="#63b8ff" points="1050.88,-135.53 1059.27,-129.05 1048.67,-128.89 1050.88,-135.53"/>
</a>
</g>
</g>
<!-- Node16 -->
<g id="Node000016" class="node">
<title>Node16</title>
<g id="a_Node000016"><a xlink:title=" ">
<polygon fill="#e0e0e0" stroke="#999999" points="1321.5,-129 1160.5,-129 1160.5,-110 1321.5,-110 1321.5,-129"/>
<text text-anchor="middle" x="1241" y="-117" font-family="Helvetica,sans-Serif" font-size="10.00">vtkRenderWindowInteractor.h</text>
</a>
</g>
</g>
<!-- Node1&#45;&gt;Node16 -->
<g id="edge15_Node000001_Node000016" class="edge">
<title>Node1&#45;&gt;Node16</title>
<g id="a_edge15_Node000001_Node000016"><a xlink:title=" ">
<path fill="none" stroke="#63b8ff" d="M969.51,-168.34C1030.15,-157.65 1122.87,-141.32 1182.71,-130.77"/>
<polygon fill="#63b8ff" stroke="#63b8ff" points="1183.52,-134.18 1192.76,-129 1182.3,-127.29 1183.52,-134.18"/>
</a>
</g>
</g>
<!-- Node17 -->
<g id="Node000017" class="node">
<title>Node17</title>
<g id="a_Node000017"><a xlink:title=" ">
<polygon fill="#e0e0e0" stroke="#999999" points="1424.5,-129 1339.5,-129 1339.5,-110 1424.5,-110 1424.5,-129"/>
<text text-anchor="middle" x="1382" y="-117" font-family="Helvetica,sans-Serif" font-size="10.00">vtkRenderer.h</text>
</a>
</g>
</g>
<!-- Node1&#45;&gt;Node17 -->
<g id="edge16_Node000001_Node000017" class="edge">
<title>Node1&#45;&gt;Node17</title>
<g id="a_edge16_Node000001_Node000017"><a xlink:title=" ">
<path fill="none" stroke="#63b8ff" d="M969.57,-172.73C1049.62,-164.25 1195.3,-148.1 1329.4,-129.17"/>
<polygon fill="#63b8ff" stroke="#63b8ff" points="1330.04,-132.62 1339.45,-127.75 1329.05,-125.69 1330.04,-132.62"/>
</a>
</g>
</g>
<!-- Node18 -->
<g id="Node000018" class="node">
<title>Node18</title>
<g id="a_Node000018"><a xlink:title=" ">
<polygon fill="#e0e0e0" stroke="#999999" points="1551,-129 1443,-129 1443,-110 1551,-110 1551,-129"/>
<text text-anchor="middle" x="1497" y="-117" font-family="Helvetica,sans-Serif" font-size="10.00">vtkSphereSource.h</text>
</a>
</g>
</g>
<!-- Node1&#45;&gt;Node18 -->
<g id="edge17_Node000001_Node000018" class="edge">
<title>Node1&#45;&gt;Node18</title>
<g id="a_edge17_Node000001_Node000018"><a xlink:title=" ">
<path fill="none" stroke="#63b8ff" d="M969.71,-174C1065.7,-165.91 1258.65,-148.97 1432.61,-129.12"/>
<polygon fill="#63b8ff" stroke="#63b8ff" points="1433.18,-132.58 1442.72,-127.96 1432.39,-125.62 1433.18,-132.58"/>
</a>
</g>
</g>
<!-- Node19 -->
<g id="Node000019" class="node">
<title>Node19</title>
<g id="a_Node000019"><a xlink:title=" ">
<polygon fill="#e0e0e0" stroke="#999999" points="1633,-129 1569,-129 1569,-110 1633,-110 1633,-129"/>
<text text-anchor="middle" x="1601" y="-117" font-family="Helvetica,sans-Serif" font-size="10.00">algorithm</text>
</a>
</g>
</g>
<!-- Node1&#45;&gt;Node19 -->
<g id="edge18_Node000001_Node000019" class="edge">
<title>Node1&#45;&gt;Node19</title>
<g id="a_edge18_Node000001_Node000019"><a xlink:title=" ">
<path fill="none" stroke="#63b8ff" d="M969.86,-176.92C1083.64,-172.47 1336.42,-159.91 1558.62,-129.01"/>
<polygon fill="#63b8ff" stroke="#63b8ff" points="1559.42,-132.43 1568.84,-127.57 1558.45,-125.5 1559.42,-132.43"/>
</a>
</g>
</g>
<!-- Node20 -->
<g id="Node000020" class="node">
<title>Node20</title>
<g id="a_Node000020"><a xlink:href="RenderScheduler_8hpp.html" target="_top" xlink:title=" ">
<polygon fill="white" stroke="#666666" points="1805,-129 1651,-129 1651,-110 1805,-110 1805,-129"/>
<text text-anchor="middle" x="1728" y="-117" font-family="Helvetica,sans-Serif" font-size="10.00">render/RenderScheduler.hpp</text>
</a>
</g>
</g>
<!-- Node1&#45;&gt;Node20 -->
<g id="edge19_Node000001_Node000020" class="edge">
<title>Node1&#45;&gt;Node20</title>
<g id="a_edge19_Node000001_Node000020"><a xlink:title=" ">
<path fill="none" stroke="#63b8ff" d="M969.86,-175.48C1093.89,-168.16 1385.05,-150.28 1640.44,-129.11"/>
<polygon fill="#63b8ff" stroke="#63b8ff" points="1640.98,-132.57 1650.66,-128.26 1640.4,-125.6 1640.98,-132.57"/>
</a>
</g>
</g>
<!-- Node3 -->
<g id="Node000003" class="node">
<title>Node3</title>
<g id="a_Node000003"><a xlink:title=" ">
<polygon fill="#e0e0e0" stroke="#999999" points="104,-74 0,-74 0,-55 104,-55 104,-74"/>
<text text-anchor="middle" x="52" y="-62" font-family="Helvetica,sans-Serif" font-size="10.00">vtkSmartPointer.h</text>
</a>
</g>
</g>
<!-- Node2&#45;&gt;Node3 -->
<g id="edge2_Node000002_Node000003" class="edge">
<title>Node2&#45;&gt;Node3</title>
<g id="a_edge2_Node000002_Node000003"><a xlink:title=" ">
<path fill="none" stroke="#63b8ff" d="M128.38,-109.98C114.14,-101.69 92.25,-88.94 75.55,-79.22"/>
<polygon fill="#63b8ff" stroke="#63b8ff" points="77.29,-76.18 66.89,-74.17 73.77,-82.23 77.29,-76.18"/>
</a>
</g>
</g>
<!-- Node4 -->
<g id="Node000004" class="node">
<title>Node4</title>
<g id="a_Node000004"><a xlink:title=" ">
<polygon fill="#e0e0e0" stroke="#999999" points="164,-74 122,-74 122,-55 164,-55 164,-74"/>
<text text-anchor="middle" x="143" y="-62" font-family="Helvetica,sans-Serif" font-size="10.00">array</text>
</a>
</g>
</g>
<!-- Node2&#45;&gt;Node4 -->
<g id="edge3_Node000002_Node000004" class="edge">
<title>Node2&#45;&gt;Node4</title>
<g id="a_edge3_Node000002_Node000004"><a xlink:title=" ">
<path fill="none" stroke="#63b8ff" d="M143,-109.75C143,-102.8 143,-92.85 143,-84.13"/>
<polygon fill="#63b8ff" stroke="#63b8ff" points="146.5,-84.09 143,-74.09 139.5,-84.09 146.5,-84.09"/>
</a>
</g>
</g>
<!-- Node5 -->
<g id="Node000005" class="node">
<title>Node5</title>
<g id="a_Node000005"><a xlink:title=" ">
<polygon fill="#e0e0e0" stroke="#999999" points="1028.5,-74 981.5,-74 981.5,-55 1028.5,-55 1028.5,-74"/>
<text text-anchor="middle" x="1005" y="-62" font-family="Helvetica,sans-Serif" font-size="10.00">vector</text>
</a>
</g>
</g>
<!-- Node2&#45;&gt;Node5 -->
<g id="edge4_Node000002_Node000005" class="edge">
<title>Node2&#45;&gt;Node5</title>
<g id="a_edge4_Node000002_Node000005"><a xlink:title=" ">
<path fill="none" stroke="#63b8ff" d="M229.6,-110.71C232.77,-110.46 235.91,-110.23 239,-110 521.9,-89.26 864.14,-72.24 971.28,-67.09"/>
<polygon fill="#63b8ff" stroke="#63b8ff" points="971.66,-70.58 981.48,-66.61 971.32,-63.59 971.66,-70.58"/>
</a>
</g>
</g>
<!-- Node6 -->
<g id="Node000006" class="node">
<title>Node6</title>
<g id="a_Node000006"><a xlink:href="IControllerBase_8hpp.html" target="_top" xlink:title=" ">
<polygon fill="white" stroke="#666666" points="348.5,-74 181.5,-74 181.5,-55 348.5,-55 348.5,-74"/>
<text text-anchor="middle" x="265" y="-62" font-family="Helvetica,sans-Serif" font-size="10.00">controllers/IControllerBase.hpp</text>
</a>
</g>
</g>
<!-- Node2&#45;&gt;Node6 -->
<g id="edge5_Node000002_Node000006" class="edge">
<title>Node2&#45;&gt;Node6</title>
<g id="a_edge5_Node000002_Node000006"><a xlink:title=" ">
<path fill="none" stroke="#63b8ff" d="M162.6,-109.98C182.32,-101.42 212.95,-88.11 235.58,-78.28"/>
<polygon fill="#63b8ff" stroke="#63b8ff" points="237.26,-81.37 245.04,-74.17 234.48,-74.94 237.26,-81.37"/>
</a>
</g>
</g>
<!-- Node7 -->
<g id="Node000007" class="node">
<title>Node7</title>
<g id="a_Node000007"><a xlink:title=" ">
<polygon fill="#e0e0e0" stroke="#999999" points="293,-19 237,-19 237,0 293,0 293,-19"/>
<text text-anchor="middle" x="265" y="-7" font-family="Helvetica,sans-Serif" font-size="10.00">QObject</text>
</a>
</g>
</g>
<!-- Node6&#45;&gt;Node7 -->
<g id="edge6_Node000006_Node000007" class="edge">
<title>Node6&#45;&gt;Node7</title>
<g id="a_edge6_Node000006_Node000007"><a xlink:title=" ">
<path fill="none" stroke="#63b8ff" d="M265,-54.75C265,-47.8 265,-37.85 265,-29.13"/>
<polygon fill="#63b8ff" stroke="#63b8ff" points="268.5,-29.09 265,-19.09 261.5,-29.09 268.5,-29.09"/>
</a>
</g>
</g>
<!-- Node20&#45;&gt;Node5 -->
<g id="edge23_Node000020_Node000005" class="edge">
<title>Node20&#45;&gt;Node5</title>
<g id="a_edge23_Node000020_Node000005"><a xlink:title=" ">
<path fill="none" stroke="#63b8ff" d="M1650.65,-110.75C1647.73,-110.49 1644.84,-110.24 1642,-110 1411.71,-90.58 1134.08,-73.28 1038.91,-67.52"/>
<polygon fill="#63b8ff" stroke="#63b8ff" points="1038.93,-64.02 1028.73,-66.91 1038.51,-71.01 1038.93,-64.02"/>
</a>
</g>
</g>
<!-- Node21 -->
<g id="Node000021" class="node">
<title>Node21</title>
<g id="a_Node000021"><a xlink:title=" ">
<polygon fill="#e0e0e0" stroke="#999999" points="1789.5,-19 1736.5,-19 1736.5,0 1789.5,0 1789.5,-19"/>
<text text-anchor="middle" x="1763" y="-7" font-family="Helvetica,sans-Serif" font-size="10.00">cstddef</text>
</a>
</g>
</g>
<!-- Node20&#45;&gt;Node21 -->
<g id="edge20_Node000020_Node000021" class="edge">
<title>Node20&#45;&gt;Node21</title>
<g id="a_edge20_Node000020_Node000021"><a xlink:title=" ">
<path fill="none" stroke="#63b8ff" d="M1698.9,-109.94C1668.58,-99.47 1627.71,-79.99 1645,-55 1663.17,-28.73 1698.94,-17.95 1726.36,-13.54"/>
<polygon fill="#63b8ff" stroke="#63b8ff" points="1726.98,-16.98 1736.4,-12.14 1726.02,-10.05 1726.98,-16.98"/>
</a>
</g>
</g>
<!-- Node22 -->
<g id="Node000022" class="node">
<title>Node22</title>
<g id="a_Node000022"><a xlink:title=" ">
<polygon fill="#e0e0e0" stroke="#999999" points="1712,-74 1654,-74 1654,-55 1712,-55 1712,-74"/>
<text text-anchor="middle" x="1683" y="-62" font-family="Helvetica,sans-Serif" font-size="10.00">memory</text>
</a>
</g>
</g>
<!-- Node20&#45;&gt;Node22 -->
<g id="edge21_Node000020_Node000022" class="edge">
<title>Node20&#45;&gt;Node22</title>
<g id="a_edge21_Node000020_Node000022"><a xlink:title=" ">
<path fill="none" stroke="#63b8ff" d="M1720.57,-109.75C1714.15,-102.18 1704.69,-91.05 1696.88,-81.84"/>
<polygon fill="#63b8ff" stroke="#63b8ff" points="1699.43,-79.45 1690.29,-74.09 1694.1,-83.98 1699.43,-79.45"/>
</a>
</g>
</g>
<!-- Node23 -->
<g id="Node000023" class="node">
<title>Node23</title>
<g id="a_Node000023"><a xlink:title=" ">
<polygon fill="#e0e0e0" stroke="#999999" points="1816,-74 1730,-74 1730,-55 1816,-55 1816,-74"/>
<text text-anchor="middle" x="1773" y="-62" font-family="Helvetica,sans-Serif" font-size="10.00">unordered_set</text>
</a>
</g>
</g>
<!-- Node20&#45;&gt;Node23 -->
<g id="edge22_Node000020_Node000023" class="edge">
<title>Node20&#45;&gt;Node23</title>
<g id="a_edge22_Node000020_Node000023"><a xlink:title=" ">
<path fill="none" stroke="#63b8ff" d="M1735.43,-109.75C1741.85,-102.18 1751.31,-91.05 1759.12,-81.84"/>
<polygon fill="#63b8ff" stroke="#63b8ff" points="1761.9,-83.98 1765.71,-74.09 1756.57,-79.45 1761.9,-83.98"/>
</a>
</g>
</g>
<!-- Node24 -->
<g id="Node000024" class="node">
<title>Node24</title>
<g id="a_Node000024"><a xlink:href="RenderTypes_8hpp.html" target="_top" xlink:title=" ">
<polygon fill="white" stroke="#666666" points="1968,-74 1834,-74 1834,-55 1968,-55 1968,-74"/>
<text text-anchor="middle" x="1901" y="-62" font-family="Helvetica,sans-Serif" font-size="10.00">render/RenderTypes.hpp</text>
</a>
</g>
</g>
<!-- Node20&#45;&gt;Node24 -->
<g id="edge24_Node000020_Node000024" class="edge">
<title>Node20&#45;&gt;Node24</title>
<g id="a_edge24_Node000020_Node000024"><a xlink:title=" ">
<path fill="none" stroke="#63b8ff" d="M1755.8,-109.98C1784.97,-101.05 1831,-86.94 1863.4,-77.02"/>
<polygon fill="#63b8ff" stroke="#63b8ff" points="1864.45,-80.36 1872.99,-74.08 1862.4,-73.66 1864.45,-80.36"/>
</a>
</g>
</g>
<!-- Node24&#45;&gt;Node21 -->
<g id="edge25_Node000024_Node000021" class="edge">
<title>Node24&#45;&gt;Node21</title>
<g id="a_edge25_Node000024_Node000021"><a xlink:title=" ">
<path fill="none" stroke="#63b8ff" d="M1878.83,-54.98C1856.23,-46.3 1820.94,-32.75 1795.25,-22.88"/>
<polygon fill="#63b8ff" stroke="#63b8ff" points="1796.17,-19.49 1785.58,-19.17 1793.66,-26.02 1796.17,-19.49"/>
</a>
</g>
</g>
</g>
</svg>

<g id="navigator" transform="translate(0 0)" fill="#404254">
  <rect fill="#f2f5e9" fill-opacity="0.5" stroke="#606060" stroke-width=".5" x="0" y="0" width="60" height="60"/>
  <use id="zoomplus" xlink:href="#zoomPlus" x="17" y="9" onmousedown="handleZoom(evt,'in')"/>
  <use id="zoomminus" xlink:href="#zoomMin" x="42" y="9" onmousedown="handleZoom(evt,'out')"/>
  <use id="reset" xlink:href="#resetDef" x="30" y="36" onmousedown="handleReset()"/>
   <use id="arrowup" xlink:href="#arrowUp" x="0" y="0" onmousedown="handlePan(0,-1)"/>
  <use id="arrowright" xlink:href="#arrowRight" x="0" y="0" onmousedown="handlePan(1,0)"/>
  <use id="arrowdown" xlink:href="#arrowDown" x="0" y="0" onmousedown="handlePan(0,1)"/>
  <use id="arrowleft" xlink:href="#arrowLeft" x="0" y="0" onmousedown="handlePan(-1,0)"/>
</g>
<svg viewBox="0 0 15 15" width="100%" height="30px" preserveAspectRatio="xMaxYMin meet">
 <g id="arrow_out" transform="scale(0.3 0.3)">
  <a xlink:href="SphereController_8cpp__incl_org.svg" target="_base">
   <rect id="button" ry="5" rx="5" y="6" x="6" height="38" width="38"
        fill="#f2f5e9" fill-opacity="0.5" stroke="#606060" stroke-width="1.0"/>
   <path id="arrow"
     d="M 11.500037,31.436501 C 11.940474,20.09759 22.043105,11.32322 32.158766,21.979434 L 37.068811,17.246167 C 37.068811,17.246167 37.088388,32 37.088388,32 L 22.160133,31.978069 C 22.160133,31.978069 26.997745,27.140456 26.997745,27.140456 C 18.528582,18.264221 13.291696,25.230495 11.500037,31.436501 z"
     style="fill:#404040;"/>
  </a>
 </g>
</svg>

<style type='text/css'>
<![CDATA[
[data-mouse-over-selected='false'] { opacity: 0.7; }
[data-mouse-over-selected='true']  { opacity: 1.0; }
]]>
</style>
<script type="application/ecmascript"><![CDATA[
document.addEventListener('DOMContentLoaded', (event) => {
  highlightEdges();
  highlightAdjacentNodes();
});
]]></script>
</svg>
