<?xml version="1.0" encoding="UTF-8" standalone="no"?>
<!DOCTYPE svg PUBLIC "-//W3C//DTD SVG 1.1//EN"
 "http://www.w3.org/Graphics/SVG/1.1/DTD/svg11.dtd">
<!-- Generated by graphviz version 2.43.0 (0)
 -->
<!-- Title: src/controllers/include/controllers/SphereController.hpp Pages: 1 -->
<!--zoomable 291 -->

<svg id="main" version="1.1" xmlns="http://www.w3.org/2000/svg" xmlns:xlink="http://www.w3.org/1999/xlink" xml:space="preserve" onload="init(evt)">
<style type="text/css"><![CDATA[
.node, .edge {opacity: 0.7;}
.node.selected, .edge.selected {opacity: 1;}
.edge:hover path { stroke: red; }
.edge:hover polygon { stroke: red; fill: red; }
]]></style>

<defs>
  <circle id="rim" cx="0" cy="0" r="7"/>
  <circle id="rim2" cx="0" cy="0" r="3.5"/>
  <g id="zoomPlus">
    <use xlink:href="#rim" fill="#404040"><set attributeName="fill" to="#808080" begin="zoomplus.mouseover" end="zoomplus.mouseout"/></use>
    <path d="M-4,0h8M0,-4v8" fill="none" stroke="white" stroke-width="1.5" pointer-events="none"/>
  </g>
  <g id="zoomMin">
    <use xlink:href="#rim" fill="#404040"><set attributeName="fill" to="#808080" begin="zoomminus.mouseover" end="zoomminus.mouseout"/></use>
    <path d="M-4,0h8" fill="none" stroke="white" stroke-width="1.5" pointer-events="none"/>
  </g>
  <g id="arrowUp" transform="translate(30 24)">
    <use xlink:href="#rim"/>
    <path pointer-events="none" fill="none" stroke="white" stroke-width="1.5" d="M0,-3.0v7 M-2.5,-0.5L0,-3.0L2.5,-0.5"/>
  </g>
  <g id="arrowRight" transform="rotate(90) translate(36 -43)">
    <use xlink:href="#rim"/>
    <path pointer-events="none" fill="none" stroke="white" stroke-width="1.5" d="M0,-3.0v7 M-2.5,-0.5L0,-3.0L2.5,-0.5"/>
  </g>
  <g id="arrowDown" transform="rotate(180) translate(-30 -48)">
    <use xlink:href="#rim"/>
    <path pointer-events="none" fill="none" stroke="white" stroke-width="1.5" d="M0,-3.0v7 M-2.5,-0.5L0,-3.0L2.5,-0.5"/>
  </g>
  <g id="arrowLeft" transform="rotate(270) translate(-36 17)">
    <use xlink:href="#rim"/>
    <path pointer-events="none" fill="none" stroke="white" stroke-width="1.5" d="M0,-3.0v7 M-2.5,-0.5L0,-3.0L2.5,-0.5"/>
  </g>
  <g id="resetDef">
    <use xlink:href="#rim2" fill="#404040"><set attributeName="fill" to="#808080" begin="reset.mouseover" end="reset.mouseout"/></use>
  </g>
</defs>
<script type="application/ecmascript">
var viewWidth = 870;
var viewHeight = 291;
var sectionId = 'dynsection-1';
</script>
<script type="application/ecmascript" xlink:href="svg.min.js"/>
<svg id="graph" class="graph">
<g id="viewport">
<title>src/controllers/include/controllers/SphereController.hpp</title>
<!-- Node1 -->
<g id="Node000001" class="node">
<title>Node1</title>
<g id="a_Node000001"><a xlink:title=" ">
<polygon fill="#999999" stroke="#666666" points="736.5,-283 560.5,-283 560.5,-253 736.5,-253 736.5,-283"/>
<text text-anchor="start" x="568.5" y="-271" font-family="Helvetica,sans-Serif" font-size="10.00">src/controllers/include</text>
<text text-anchor="middle" x="648.5" y="-260" font-family="Helvetica,sans-Serif" font-size="10.00">/controllers/SphereController.hpp</text>
</a>
</g>
</g>
<!-- Node2 -->
<g id="Node000002" class="node">
<title>Node2</title>
<g id="a_Node000002"><a xlink:href="IViewController_8hpp.html" target="_top" xlink:title=" ">
<polygon fill="white" stroke="#666666" points="607.5,-217 437.5,-217 437.5,-187 607.5,-187 607.5,-217"/>
<text text-anchor="start" x="445.5" y="-205" font-family="Helvetica,sans-Serif" font-size="10.00">src/controllers/include</text>
<text text-anchor="middle" x="522.5" y="-194" font-family="Helvetica,sans-Serif" font-size="10.00">/controllers/IViewController.hpp</text>
</a>
</g>
</g>
<!-- Node1&#45;&gt;Node2 -->
<g id="edge1_Node000001_Node000002" class="edge">
<title>Node1&#45;&gt;Node2</title>
<g id="a_edge1_Node000001_Node000002"><a xlink:title=" ">
<path fill="none" stroke="#63b8ff" d="M611.84,-248.38C592.12,-238.36 568.21,-226.22 550.09,-217.01"/>
<polygon fill="#63b8ff" stroke="#63b8ff" points="610.35,-251.55 620.85,-252.95 613.52,-245.31 610.35,-251.55"/>
</a>
</g>
</g>
<!-- Node4 -->
<g id="Node000004" class="node">
<title>Node4</title>
<g id="a_Node000004"><a xlink:href="MultiWindowController_8cpp.html" target="_top" xlink:title=" ">
<polygon fill="white" stroke="#666666" points="151,-85 0,-85 0,-55 151,-55 151,-85"/>
<text text-anchor="start" x="8" y="-73" font-family="Helvetica,sans-Serif" font-size="10.00">src/controllers/src</text>
<text text-anchor="middle" x="75.5" y="-62" font-family="Helvetica,sans-Serif" font-size="10.00">/MultiWindowController.cpp</text>
</a>
</g>
</g>
<!-- Node1&#45;&gt;Node4 -->
<g id="edge13_Node000001_Node000004" class="edge">
<title>Node1&#45;&gt;Node4</title>
<g id="a_edge13_Node000001_Node000004"><a xlink:title=" ">
<path fill="none" stroke="#63b8ff" d="M550.03,-266.71C438.22,-261.79 254.84,-239.39 127.5,-151 103.82,-134.57 88.31,-103.51 80.8,-85.31"/>
<polygon fill="#63b8ff" stroke="#63b8ff" points="550.15,-270.22 560.29,-267.12 550.43,-263.22 550.15,-270.22"/>
</a>
</g>
</g>
<!-- Node8 -->
<g id="Node000008" class="node">
<title>Node8</title>
<g id="a_Node000008"><a xlink:href="ViewportController_8cpp.html" target="_top" xlink:title=" ">
<polygon fill="white" stroke="#666666" points="742,-85 611,-85 611,-55 742,-55 742,-85"/>
<text text-anchor="start" x="619" y="-73" font-family="Helvetica,sans-Serif" font-size="10.00">src/controllers/src</text>
<text text-anchor="middle" x="676.5" y="-62" font-family="Helvetica,sans-Serif" font-size="10.00">/ViewportController.cpp</text>
</a>
</g>
</g>
<!-- Node1&#45;&gt;Node8 -->
<g id="edge15_Node000001_Node000008" class="edge">
<title>Node1&#45;&gt;Node8</title>
<g id="a_edge15_Node000001_Node000008"><a xlink:title=" ">
<path fill="none" stroke="#63b8ff" d="M660.54,-243.62C671.62,-220.72 687.23,-184.48 693.5,-151 695.95,-137.89 695.68,-134.15 693.5,-121 691.44,-108.52 686.66,-94.96 682.69,-85.12"/>
<polygon fill="#63b8ff" stroke="#63b8ff" points="657.27,-242.35 655.97,-252.86 663.54,-245.45 657.27,-242.35"/>
</a>
</g>
</g>
<!-- Node12 -->
<g id="Node000012" class="node">
<title>Node12</title>
<g id="a_Node000012"><a xlink:href="SphereController_8cpp.html" target="_top" xlink:title=" ">
<polygon fill="white" stroke="#666666" points="862,-217 741,-217 741,-187 862,-187 862,-217"/>
<text text-anchor="start" x="749" y="-205" font-family="Helvetica,sans-Serif" font-size="10.00">src/controllers/src</text>
<text text-anchor="middle" x="801.5" y="-194" font-family="Helvetica,sans-Serif" font-size="10.00">/SphereController.cpp</text>
</a>
</g>
</g>
<!-- Node1&#45;&gt;Node12 -->
<g id="edge14_Node000001_Node000012" class="edge">
<title>Node1&#45;&gt;Node12</title>
<g id="a_edge14_Node000001_Node000012"><a xlink:title=" ">
<path fill="none" stroke="#63b8ff" d="M691.4,-249.05C715.64,-238.91 745.5,-226.43 768,-217.01"/>
<polygon fill="#63b8ff" stroke="#63b8ff" points="689.95,-245.87 682.08,-252.95 692.65,-252.32 689.95,-245.87"/>
</a>
</g>
</g>
<!-- Node3 -->
<g id="Node000003" class="node">
<title>Node3</title>
<g id="a_Node000003"><a xlink:href="MultiWindowController_8hpp.html" target="_top" xlink:title=" ">
<polygon fill="white" stroke="#666666" points="342.5,-151 136.5,-151 136.5,-121 342.5,-121 342.5,-151"/>
<text text-anchor="start" x="144.5" y="-139" font-family="Helvetica,sans-Serif" font-size="10.00">src/controllers/include</text>
<text text-anchor="middle" x="239.5" y="-128" font-family="Helvetica,sans-Serif" font-size="10.00">/controllers/MultiWindowController.hpp</text>
</a>
</g>
</g>
<!-- Node2&#45;&gt;Node3 -->
<g id="edge2_Node000002_Node000003" class="edge">
<title>Node2&#45;&gt;Node3</title>
<g id="a_edge2_Node000002_Node000003"><a xlink:title=" ">
<path fill="none" stroke="#63b8ff" d="M450.48,-184.71C404.46,-174.31 345.39,-160.95 301.46,-151.01"/>
<polygon fill="#63b8ff" stroke="#63b8ff" points="449.87,-188.16 460.39,-186.95 451.41,-181.34 449.87,-188.16"/>
</a>
</g>
</g>
<!-- Node7 -->
<g id="Node000007" class="node">
<title>Node7</title>
<g id="a_Node000007"><a xlink:href="ViewportController_8hpp.html" target="_top" xlink:title=" ">
<polygon fill="white" stroke="#666666" points="552.5,-151 366.5,-151 366.5,-121 552.5,-121 552.5,-151"/>
<text text-anchor="start" x="374.5" y="-139" font-family="Helvetica,sans-Serif" font-size="10.00">src/controllers/include</text>
<text text-anchor="middle" x="459.5" y="-128" font-family="Helvetica,sans-Serif" font-size="10.00">/controllers/ViewportController.hpp</text>
</a>
</g>
</g>
<!-- Node2&#45;&gt;Node7 -->
<g id="edge6_Node000002_Node000007" class="edge">
<title>Node2&#45;&gt;Node7</title>
<g id="a_edge6_Node000002_Node000007"><a xlink:title=" ">
<path fill="none" stroke="#63b8ff" d="M501.48,-179.65C492.25,-170.27 481.67,-159.53 473.44,-151.16"/>
<polygon fill="#63b8ff" stroke="#63b8ff" points="499.01,-182.13 508.52,-186.8 504,-177.21 499.01,-182.13"/>
</a>
</g>
</g>
<!-- Node11 -->
<g id="Node000011" class="node">
<title>Node11</title>
<g id="a_Node000011"><a xlink:href="IViewController_8cpp.html" target="_top" xlink:title=" ">
<polygon fill="white" stroke="#666666" points="684.5,-151 570.5,-151 570.5,-121 684.5,-121 684.5,-151"/>
<text text-anchor="start" x="578.5" y="-139" font-family="Helvetica,sans-Serif" font-size="10.00">src/controllers/src</text>
<text text-anchor="middle" x="627.5" y="-128" font-family="Helvetica,sans-Serif" font-size="10.00">/IViewController.cpp</text>
</a>
</g>
</g>
<!-- Node2&#45;&gt;Node11 -->
<g id="edge12_Node000002_Node000011" class="edge">
<title>Node2&#45;&gt;Node11</title>
<g id="a_edge12_Node000002_Node000011"><a xlink:title=" ">
<path fill="none" stroke="#63b8ff" d="M554.17,-181.69C570.38,-171.82 589.75,-160.01 604.51,-151.01"/>
<polygon fill="#63b8ff" stroke="#63b8ff" points="552.26,-178.76 545.54,-186.95 555.9,-184.74 552.26,-178.76"/>
</a>
</g>
</g>
<!-- Node3&#45;&gt;Node4 -->
<g id="edge3_Node000003_Node000004" class="edge">
<title>Node3&#45;&gt;Node4</title>
<g id="a_edge3_Node000003_Node000004"><a xlink:title=" ">
<path fill="none" stroke="#63b8ff" d="M193.86,-117.19C167.81,-107.02 135.63,-94.47 111.41,-85.01"/>
<polygon fill="#63b8ff" stroke="#63b8ff" points="192.92,-120.58 203.51,-120.95 195.47,-114.06 192.92,-120.58"/>
</a>
</g>
</g>
<!-- Node5 -->
<g id="Node000005" class="node">
<title>Node5</title>
<g id="a_Node000005"><a xlink:href="MainWindow_8cpp.html" target="_top" xlink:title=" ">
<polygon fill="white" stroke="#666666" points="361.5,-19 215.5,-19 215.5,0 361.5,0 361.5,-19"/>
<text text-anchor="middle" x="288.5" y="-7" font-family="Helvetica,sans-Serif" font-size="10.00">src/ui/src/MainWindow.cpp</text>
</a>
</g>
</g>
<!-- Node3&#45;&gt;Node5 -->
<g id="edge4_Node000003_Node000005" class="edge">
<title>Node3&#45;&gt;Node5</title>
<g id="a_edge4_Node000003_Node000005"><a xlink:title=" ">
<path fill="none" stroke="#63b8ff" d="M215.86,-113.26C201,-96.86 186.68,-74.03 198.5,-55 209.9,-36.64 231.38,-25.63 250.49,-19.15"/>
<polygon fill="#63b8ff" stroke="#63b8ff" points="213.63,-115.98 223.09,-120.74 218.66,-111.12 213.63,-115.98"/>
</a>
</g>
</g>
<!-- Node6 -->
<g id="Node000006" class="node">
<title>Node6</title>
<g id="a_Node000006"><a xlink:href="MultiWindowView_8cpp.html" target="_top" xlink:title=" ">
<polygon fill="white" stroke="#666666" points="377.5,-79.5 207.5,-79.5 207.5,-60.5 377.5,-60.5 377.5,-79.5"/>
<text text-anchor="middle" x="292.5" y="-67.5" font-family="Helvetica,sans-Serif" font-size="10.00">src/ui/src/MultiWindowView.cpp</text>
</a>
</g>
</g>
<!-- Node3&#45;&gt;Node6 -->
<g id="edge5_Node000003_Node000006" class="edge">
<title>Node3&#45;&gt;Node6</title>
<g id="a_edge5_Node000003_Node000006"><a xlink:title=" ">
<path fill="none" stroke="#63b8ff" d="M257.77,-112.94C267.18,-101.58 278.13,-88.36 285.18,-79.84"/>
<polygon fill="#63b8ff" stroke="#63b8ff" points="254.94,-110.86 251.26,-120.8 260.34,-115.33 254.94,-110.86"/>
</a>
</g>
</g>
<!-- Node7&#45;&gt;Node8 -->
<g id="edge7_Node000007_Node000008" class="edge">
<title>Node7&#45;&gt;Node8</title>
<g id="a_edge7_Node000007_Node000008"><a xlink:title=" ">
<path fill="none" stroke="#63b8ff" d="M516.73,-118.12C551.72,-107.8 595.94,-94.76 628.99,-85.01"/>
<polygon fill="#63b8ff" stroke="#63b8ff" points="515.72,-114.77 507.12,-120.95 517.7,-121.48 515.72,-114.77"/>
</a>
</g>
</g>
<!-- Node9 -->
<g id="Node000009" class="node">
<title>Node9</title>
<g id="a_Node000009"><a xlink:href="ViewportView_8hpp.html" target="_top" xlink:title=" ">
<polygon fill="white" stroke="#666666" points="535.5,-85 395.5,-85 395.5,-55 535.5,-55 535.5,-85"/>
<text text-anchor="start" x="403.5" y="-73" font-family="Helvetica,sans-Serif" font-size="10.00">src/ui/include/ui/Viewport</text>
<text text-anchor="middle" x="465.5" y="-62" font-family="Helvetica,sans-Serif" font-size="10.00">View.hpp</text>
</a>
</g>
</g>
<!-- Node7&#45;&gt;Node9 -->
<g id="edge8_Node000007_Node000009" class="edge">
<title>Node7&#45;&gt;Node9</title>
<g id="a_edge8_Node000007_Node000009"><a xlink:title=" ">
<path fill="none" stroke="#63b8ff" d="M461.77,-110.83C462.58,-102.17 463.47,-92.7 464.17,-85.16"/>
<polygon fill="#63b8ff" stroke="#63b8ff" points="458.28,-110.51 460.83,-120.8 465.25,-111.17 458.28,-110.51"/>
</a>
</g>
</g>
<!-- Node10 -->
<g id="Node000010" class="node">
<title>Node10</title>
<g id="a_Node000010"><a xlink:href="ViewportView_8cpp.html" target="_top" xlink:title=" ">
<polygon fill="white" stroke="#666666" points="589.5,-19 439.5,-19 439.5,0 589.5,0 589.5,-19"/>
<text text-anchor="middle" x="514.5" y="-7" font-family="Helvetica,sans-Serif" font-size="10.00">src/ui/src/ViewportView.cpp</text>
</a>
</g>
</g>
<!-- Node7&#45;&gt;Node10 -->
<g id="edge11_Node000007_Node000010" class="edge">
<title>Node7&#45;&gt;Node10</title>
<g id="a_edge11_Node000007_Node000010"><a xlink:title=" ">
<path fill="none" stroke="#63b8ff" d="M510.25,-116.33C523.77,-108.76 536.76,-98.53 544.5,-85 557.38,-62.49 535.7,-33.36 522.89,-19.11"/>
<polygon fill="#63b8ff" stroke="#63b8ff" points="508.62,-113.23 501.34,-120.93 511.83,-119.45 508.62,-113.23"/>
</a>
</g>
</g>
<!-- Node9&#45;&gt;Node5 -->
<g id="edge9_Node000009_Node000005" class="edge">
<title>Node9&#45;&gt;Node5</title>
<g id="a_edge9_Node000009_Node000005"><a xlink:title=" ">
<path fill="none" stroke="#63b8ff" d="M413.28,-51.74C380.72,-40.98 340.24,-27.6 314.38,-19.05"/>
<polygon fill="#63b8ff" stroke="#63b8ff" points="412.51,-55.17 423.1,-54.99 414.71,-48.53 412.51,-55.17"/>
</a>
</g>
</g>
<!-- Node9&#45;&gt;Node10 -->
<g id="edge10_Node000009_Node000010" class="edge">
<title>Node9&#45;&gt;Node10</title>
<g id="a_edge10_Node000009_Node000010"><a xlink:title=" ">
<path fill="none" stroke="#63b8ff" d="M483.85,-47.09C491.95,-37.42 501,-26.61 507.16,-19.27"/>
<polygon fill="#63b8ff" stroke="#63b8ff" points="481.1,-44.93 477.36,-54.84 486.47,-49.42 481.1,-44.93"/>
</a>
</g>
</g>
</g>
</svg>

<g id="navigator" transform="translate(0 0)" fill="#404254">
  <rect fill="#f2f5e9" fill-opacity="0.5" stroke="#606060" stroke-width=".5" x="0" y="0" width="60" height="60"/>
  <use id="zoomplus" xlink:href="#zoomPlus" x="17" y="9" onmousedown="handleZoom(evt,'in')"/>
  <use id="zoomminus" xlink:href="#zoomMin" x="42" y="9" onmousedown="handleZoom(evt,'out')"/>
  <use id="reset" xlink:href="#resetDef" x="30" y="36" onmousedown="handleReset()"/>
   <use id="arrowup" xlink:href="#arrowUp" x="0" y="0" onmousedown="handlePan(0,-1)"/>
  <use id="arrowright" xlink:href="#arrowRight" x="0" y="0" onmousedown="handlePan(1,0)"/>
  <use id="arrowdown" xlink:href="#arrowDown" x="0" y="0" onmousedown="handlePan(0,1)"/>
  <use id="arrowleft" xlink:href="#arrowLeft" x="0" y="0" onmousedown="handlePan(-1,0)"/>
</g>
<svg viewBox="0 0 15 15" width="100%" height="30px" preserveAspectRatio="xMaxYMin meet">
 <g id="arrow_out" transform="scale(0.3 0.3)">
  <a xlink:href="SphereController_8hpp__dep__incl_org.svg" target="_base">
   <rect id="button" ry="5" rx="5" y="6" x="6" height="38" width="38"
        fill="#f2f5e9" fill-opacity="0.5" stroke="#606060" stroke-width="1.0"/>
   <path id="arrow"
     d="M 11.500037,31.436501 C 11.940474,20.09759 22.043105,11.32322 32.158766,21.979434 L 37.068811,17.246167 C 37.068811,17.246167 37.088388,32 37.088388,32 L 22.160133,31.978069 C 22.160133,31.978069 26.997745,27.140456 26.997745,27.140456 C 18.528582,18.264221 13.291696,25.230495 11.500037,31.436501 z"
     style="fill:#404040;"/>
  </a>
 </g>
</svg>

<style type='text/css'>
<![CDATA[
[data-mouse-over-selected='false'] { opacity: 0.7; }
[data-mouse-over-selected='true']  { opacity: 1.0; }
]]>
</style>
<script type="application/ecmascript"><![CDATA[
document.addEventListener('DOMContentLoaded', (event) => {
  highlightEdges();
  highlightAdjacentNodes();
});
]]></script>
</svg>
