<?xml version="1.0" encoding="UTF-8" standalone="no"?>
<!DOCTYPE svg PUBLIC "-//W3C//DTD SVG 1.1//EN"
 "http://www.w3.org/Graphics/SVG/1.1/DTD/svg11.dtd">
<!-- Generated by graphviz version 2.43.0 (0)
 -->
<!-- Title: qvv::detail::ViewportSlot Pages: 1 -->
<svg width="240pt" height="93pt"
 viewBox="0.00 0.00 239.50 93.00" xmlns="http://www.w3.org/2000/svg" xmlns:xlink="http://www.w3.org/1999/xlink">
<g id="graph0" class="graph" transform="scale(1 1) rotate(0) translate(4 89)">
<title>qvv::detail::ViewportSlot</title>
<!-- Node1 -->
<g id="Node000001" class="node">
<title>Node1</title>
<g id="a_Node000001"><a xlink:title=" ">
<polygon fill="#999999" stroke="#666666" points="187,-19 51,-19 51,0 187,0 187,-19"/>
<text text-anchor="middle" x="119" y="-7" font-family="Helvetica,sans-Serif" font-size="10.00">qvv::detail::ViewportSlot</text>
</a>
</g>
</g>
<!-- Node2 -->
<g id="Node000002" class="node">
<title>Node2</title>
<g id="a_Node000002"><a xlink:href="structqvv_1_1ViewportConfig.html" target="_top" xlink:title="Normalised coordinate and display settings for a single viewport.">
<polygon fill="white" stroke="#666666" points="114,-85 0,-85 0,-66 114,-66 114,-85"/>
<text text-anchor="middle" x="57" y="-73" font-family="Helvetica,sans-Serif" font-size="10.00">qvv::ViewportConfig</text>
</a>
</g>
</g>
<!-- Node2&#45;&gt;Node1 -->
<g id="edge1_Node000001_Node000002" class="edge">
<title>Node2&#45;&gt;Node1</title>
<g id="a_edge1_Node000001_Node000002"><a xlink:title=" ">
<path fill="none" stroke="#9a32cd" stroke-dasharray="5,2" d="M72.52,-58.48C84.49,-46.12 100.6,-29.49 110.37,-19.41"/>
<polygon fill="#9a32cd" stroke="#9a32cd" points="69.81,-56.25 65.36,-65.87 74.83,-61.12 69.81,-56.25"/>
</a>
</g>
<text text-anchor="middle" x="108.5" y="-40" font-family="Helvetica,sans-Serif" font-size="10.00" fill="grey"> config</text>
</g>
<!-- Node3 -->
<g id="Node000003" class="node">
<title>Node3</title>
<g id="a_Node000003"><a xlink:href="structqvv_1_1RenderStats.html" target="_top" xlink:title="Per&#45;viewport render performance statistics.">
<polygon fill="white" stroke="#666666" points="231.5,-85 132.5,-85 132.5,-66 231.5,-66 231.5,-85"/>
<text text-anchor="middle" x="182" y="-73" font-family="Helvetica,sans-Serif" font-size="10.00">qvv::RenderStats</text>
</a>
</g>
</g>
<!-- Node3&#45;&gt;Node1 -->
<g id="edge2_Node000001_Node000003" class="edge">
<title>Node3&#45;&gt;Node1</title>
<g id="a_edge2_Node000001_Node000003"><a xlink:title=" ">
<path fill="none" stroke="#9a32cd" stroke-dasharray="5,2" d="M166.23,-58.48C154.06,-46.12 137.69,-29.49 127.77,-19.41"/>
<polygon fill="#9a32cd" stroke="#9a32cd" points="163.99,-61.2 173.5,-65.87 168.98,-56.29 163.99,-61.2"/>
</a>
</g>
<text text-anchor="middle" x="168" y="-40" font-family="Helvetica,sans-Serif" font-size="10.00" fill="grey"> stats</text>
</g>
</g>
</svg>
