<?xml version="1.0" encoding="UTF-8" standalone="no"?>
<!DOCTYPE svg PUBLIC "-//W3C//DTD SVG 1.1//EN"
 "http://www.w3.org/Graphics/SVG/1.1/DTD/svg11.dtd">
<!-- Generated by graphviz version 2.43.0 (0)
 -->
<!-- Title: src/controllers/src/ViewportController.cpp Pages: 1 -->
<!--zoomable 324 -->

<svg id="main" version="1.1" xmlns="http://www.w3.org/2000/svg" xmlns:xlink="http://www.w3.org/1999/xlink" xml:space="preserve" onload="init(evt)">
<style type="text/css"><![CDATA[
.node, .edge {opacity: 0.7;}
.node.selected, .edge.selected {opacity: 1;}
.edge:hover path { stroke: red; }
.edge:hover polygon { stroke: red; fill: red; }
]]></style>

<defs>
  <circle id="rim" cx="0" cy="0" r="7"/>
  <circle id="rim2" cx="0" cy="0" r="3.5"/>
  <g id="zoomPlus">
    <use xlink:href="#rim" fill="#404040"><set attributeName="fill" to="#808080" begin="zoomplus.mouseover" end="zoomplus.mouseout"/></use>
    <path d="M-4,0h8M0,-4v8" fill="none" stroke="white" stroke-width="1.5" pointer-events="none"/>
  </g>
  <g id="zoomMin">
    <use xlink:href="#rim" fill="#404040"><set attributeName="fill" to="#808080" begin="zoomminus.mouseover" end="zoomminus.mouseout"/></use>
    <path d="M-4,0h8" fill="none" stroke="white" stroke-width="1.5" pointer-events="none"/>
  </g>
  <g id="arrowUp" transform="translate(30 24)">
    <use xlink:href="#rim"/>
    <path pointer-events="none" fill="none" stroke="white" stroke-width="1.5" d="M0,-3.0v7 M-2.5,-0.5L0,-3.0L2.5,-0.5"/>
  </g>
  <g id="arrowRight" transform="rotate(90) translate(36 -43)">
    <use xlink:href="#rim"/>
    <path pointer-events="none" fill="none" stroke="white" stroke-width="1.5" d="M0,-3.0v7 M-2.5,-0.5L0,-3.0L2.5,-0.5"/>
  </g>
  <g id="arrowDown" transform="rotate(180) translate(-30 -48)">
    <use xlink:href="#rim"/>
    <path pointer-events="none" fill="none" stroke="white" stroke-width="1.5" d="M0,-3.0v7 M-2.5,-0.5L0,-3.0L2.5,-0.5"/>
  </g>
  <g id="arrowLeft" transform="rotate(270) translate(-36 17)">
    <use xlink:href="#rim"/>
    <path pointer-events="none" fill="none" stroke="white" stroke-width="1.5" d="M0,-3.0v7 M-2.5,-0.5L0,-3.0L2.5,-0.5"/>
  </g>
  <g id="resetDef">
    <use xlink:href="#rim2" fill="#404040"><set attributeName="fill" to="#808080" begin="reset.mouseover" end="reset.mouseout"/></use>
  </g>
</defs>
<script type="application/ecmascript">
var viewWidth = 1819;
var viewHeight = 324;
var sectionId = 'dynsection-0';
</script>
<script type="application/ecmascript" xlink:href="svg.min.js"/>
<svg id="graph" class="graph">
<g id="viewport">
<title>src/controllers/src/ViewportController.cpp</title>
<!-- Node1 -->
<g id="Node000001" class="node">
<title>Node1</title>
<g id="a_Node000001"><a xlink:title=" ">
<polygon fill="#999999" stroke="#666666" points="1151.5,-316 1020.5,-316 1020.5,-286 1151.5,-286 1151.5,-316"/>
<text text-anchor="start" x="1028.5" y="-304" font-family="Helvetica,sans-Serif" font-size="10.00">src/controllers/src</text>
<text text-anchor="middle" x="1086" y="-293" font-family="Helvetica,sans-Serif" font-size="10.00">/ViewportController.cpp</text>
</a>
</g>
</g>
<!-- Node2 -->
<g id="Node000002" class="node">
<title>Node2</title>
<g id="a_Node000002"><a xlink:href="ViewportController_8hpp.html" target="_top" xlink:title=" ">
<polygon fill="white" stroke="#666666" points="965.5,-250 782.5,-250 782.5,-231 965.5,-231 965.5,-250"/>
<text text-anchor="middle" x="874" y="-238" font-family="Helvetica,sans-Serif" font-size="10.00">controllers/ViewportController.hpp</text>
</a>
</g>
</g>
<!-- Node1&#45;&gt;Node2 -->
<g id="edge1_Node000001_Node000002" class="edge">
<title>Node1&#45;&gt;Node2</title>
<g id="a_edge1_Node000001_Node000002"><a xlink:title=" ">
<path fill="none" stroke="#63b8ff" d="M1035.22,-285.99C998.32,-275.8 949.02,-262.2 914.7,-252.73"/>
<polygon fill="#63b8ff" stroke="#63b8ff" points="915.57,-249.34 905,-250.05 913.71,-256.09 915.57,-249.34"/>
</a>
</g>
</g>
<!-- Node10 -->
<g id="Node000010" class="node">
<title>Node10</title>
<g id="a_Node000010"><a xlink:title=" ">
<polygon fill="#e0e0e0" stroke="#999999" points="801.5,-134.5 706.5,-134.5 706.5,-115.5 801.5,-115.5 801.5,-134.5"/>
<text text-anchor="middle" x="754" y="-122.5" font-family="Helvetica,sans-Serif" font-size="10.00">vtkImageData.h</text>
</a>
</g>
</g>
<!-- Node1&#45;&gt;Node10 -->
<g id="edge33_Node000001_Node000010" class="edge">
<title>Node1&#45;&gt;Node10</title>
<g id="a_edge33_Node000001_Node000010"><a xlink:title=" ">
<path fill="none" stroke="#63b8ff" d="M1020.27,-298.33C938.84,-294.82 806.7,-283.91 773,-250 745.33,-222.15 747.21,-172.05 750.74,-144.83"/>
<polygon fill="#63b8ff" stroke="#63b8ff" points="754.24,-145.11 752.27,-134.7 747.31,-144.06 754.24,-145.11"/>
</a>
</g>
</g>
<!-- Node14 -->
<g id="Node000014" class="node">
<title>Node14</title>
<g id="a_Node000014"><a xlink:href="SliceController_8hpp.html" target="_top" xlink:title=" ">
<polygon fill="white" stroke="#666666" points="611.5,-134.5 448.5,-134.5 448.5,-115.5 611.5,-115.5 611.5,-134.5"/>
<text text-anchor="middle" x="530" y="-122.5" font-family="Helvetica,sans-Serif" font-size="10.00">controllers/SliceController.hpp</text>
</a>
</g>
</g>
<!-- Node1&#45;&gt;Node14 -->
<g id="edge42_Node000001_Node000014" class="edge">
<title>Node1&#45;&gt;Node14</title>
<g id="a_edge42_Node000001_Node000014"><a xlink:title=" ">
<path fill="none" stroke="#63b8ff" d="M1020.08,-296.14C891.39,-287.22 613.54,-260.68 548,-195 534.77,-181.74 530.89,-160.06 529.93,-144.54"/>
<polygon fill="#63b8ff" stroke="#63b8ff" points="533.43,-144.43 529.66,-134.53 526.43,-144.62 533.43,-144.43"/>
</a>
</g>
</g>
<!-- Node15 -->
<g id="Node000015" class="node">
<title>Node15</title>
<g id="a_Node000015"><a xlink:href="SphereController_8hpp.html" target="_top" xlink:title=" ">
<polygon fill="white" stroke="#666666" points="391.5,-134.5 218.5,-134.5 218.5,-115.5 391.5,-115.5 391.5,-134.5"/>
<text text-anchor="middle" x="305" y="-122.5" font-family="Helvetica,sans-Serif" font-size="10.00">controllers/SphereController.hpp</text>
</a>
</g>
</g>
<!-- Node1&#45;&gt;Node15 -->
<g id="edge43_Node000001_Node000015" class="edge">
<title>Node1&#45;&gt;Node15</title>
<g id="a_edge43_Node000001_Node000015"><a xlink:title=" ">
<path fill="none" stroke="#63b8ff" d="M1020.16,-298.6C928.52,-295.39 757.9,-284.82 617,-250 506.69,-222.74 383.47,-165.1 330.96,-139.15"/>
<polygon fill="#63b8ff" stroke="#63b8ff" points="332.22,-135.87 321.71,-134.54 329.1,-142.13 332.22,-135.87"/>
</a>
</g>
</g>
<!-- Node16 -->
<g id="Node000016" class="node">
<title>Node16</title>
<g id="a_Node000016"><a xlink:href="RenderScheduler_8hpp.html" target="_top" xlink:title=" ">
<polygon fill="white" stroke="#666666" points="1354,-134.5 1200,-134.5 1200,-115.5 1354,-115.5 1354,-134.5"/>
<text text-anchor="middle" x="1277" y="-122.5" font-family="Helvetica,sans-Serif" font-size="10.00">render/RenderScheduler.hpp</text>
</a>
</g>
</g>
<!-- Node1&#45;&gt;Node16 -->
<g id="edge48_Node000001_Node000016" class="edge">
<title>Node1&#45;&gt;Node16</title>
<g id="a_edge48_Node000001_Node000016"><a xlink:title=" ">
<path fill="none" stroke="#63b8ff" d="M1127.78,-285.94C1148.31,-277.66 1172.54,-265.69 1191,-250 1227.13,-219.3 1255.16,-170.03 1268.48,-143.8"/>
<polygon fill="#63b8ff" stroke="#63b8ff" points="1271.7,-145.18 1272.99,-134.66 1265.43,-142.08 1271.7,-145.18"/>
</a>
</g>
</g>
<!-- Node20 -->
<g id="Node000020" class="node">
<title>Node20</title>
<g id="a_Node000020"><a xlink:title=" ">
<polygon fill="#e0e0e0" stroke="#999999" points="1395.5,-250 1238.5,-250 1238.5,-231 1395.5,-231 1395.5,-250"/>
<text text-anchor="middle" x="1317" y="-238" font-family="Helvetica,sans-Serif" font-size="10.00">QVTKOpenGLNativeWidget.h</text>
</a>
</g>
</g>
<!-- Node1&#45;&gt;Node20 -->
<g id="edge32_Node000001_Node000020" class="edge">
<title>Node1&#45;&gt;Node20</title>
<g id="a_edge32_Node000001_Node000020"><a xlink:title=" ">
<path fill="none" stroke="#63b8ff" d="M1141.33,-285.99C1181.71,-275.76 1235.71,-262.09 1273.13,-252.61"/>
<polygon fill="#63b8ff" stroke="#63b8ff" points="1274.39,-255.9 1283.22,-250.05 1272.67,-249.12 1274.39,-255.9"/>
</a>
</g>
</g>
<!-- Node21 -->
<g id="Node000021" class="node">
<title>Node21</title>
<g id="a_Node000021"><a xlink:title=" ">
<polygon fill="#e0e0e0" stroke="#999999" points="1528,-250 1414,-250 1414,-231 1528,-231 1528,-250"/>
<text text-anchor="middle" x="1471" y="-238" font-family="Helvetica,sans-Serif" font-size="10.00">vtkRenderWindow.h</text>
</a>
</g>
</g>
<!-- Node1&#45;&gt;Node21 -->
<g id="edge34_Node000001_Node000021" class="edge">
<title>Node1&#45;&gt;Node21</title>
<g id="a_edge34_Node000001_Node000021"><a xlink:title=" ">
<path fill="none" stroke="#63b8ff" d="M1151.75,-290.01C1222.37,-279.28 1333.96,-262.32 1404.77,-251.56"/>
<polygon fill="#63b8ff" stroke="#63b8ff" points="1405.55,-254.99 1414.91,-250.02 1404.5,-248.06 1405.55,-254.99"/>
</a>
</g>
</g>
<!-- Node22 -->
<g id="Node000022" class="node">
<title>Node22</title>
<g id="a_Node000022"><a xlink:title=" ">
<polygon fill="#e0e0e0" stroke="#999999" points="1707.5,-250 1546.5,-250 1546.5,-231 1707.5,-231 1707.5,-250"/>
<text text-anchor="middle" x="1627" y="-238" font-family="Helvetica,sans-Serif" font-size="10.00">vtkRenderWindowInteractor.h</text>
</a>
</g>
</g>
<!-- Node1&#45;&gt;Node22 -->
<g id="edge35_Node000001_Node000022" class="edge">
<title>Node1&#45;&gt;Node22</title>
<g id="a_edge35_Node000001_Node000022"><a xlink:title=" ">
<path fill="none" stroke="#63b8ff" d="M1151.53,-292.91C1248.23,-282.46 1429.43,-262.86 1538.06,-251.12"/>
<polygon fill="#63b8ff" stroke="#63b8ff" points="1538.45,-254.6 1548.01,-250.04 1537.69,-247.64 1538.45,-254.6"/>
</a>
</g>
</g>
<!-- Node23 -->
<g id="Node000023" class="node">
<title>Node23</title>
<g id="a_Node000023"><a xlink:title=" ">
<polygon fill="#e0e0e0" stroke="#999999" points="1810.5,-250 1725.5,-250 1725.5,-231 1810.5,-231 1810.5,-250"/>
<text text-anchor="middle" x="1768" y="-238" font-family="Helvetica,sans-Serif" font-size="10.00">vtkRenderer.h</text>
</a>
</g>
</g>
<!-- Node1&#45;&gt;Node23 -->
<g id="edge36_Node000001_Node000023" class="edge">
<title>Node1&#45;&gt;Node23</title>
<g id="a_edge36_Node000001_Node000023"><a xlink:title=" ">
<path fill="none" stroke="#63b8ff" d="M1151.59,-296.67C1264.67,-290.51 1503.77,-275.7 1715.41,-250.1"/>
<polygon fill="#63b8ff" stroke="#63b8ff" points="1715.96,-253.56 1725.46,-248.87 1715.11,-246.61 1715.96,-253.56"/>
</a>
</g>
</g>
<!-- Node24 -->
<g id="Node000024" class="node">
<title>Node24</title>
<g id="a_Node000024"><a xlink:href="ViewportLayout_8hpp.html" target="_top" xlink:title=" ">
<polygon fill="white" stroke="#666666" points="1181.5,-250 990.5,-250 990.5,-231 1181.5,-231 1181.5,-250"/>
<text text-anchor="middle" x="1086" y="-238" font-family="Helvetica,sans-Serif" font-size="10.00">XQVtkViewport/ViewportLayout.hpp</text>
</a>
</g>
</g>
<!-- Node1&#45;&gt;Node24 -->
<g id="edge37_Node000001_Node000024" class="edge">
<title>Node1&#45;&gt;Node24</title>
<g id="a_edge37_Node000001_Node000024"><a xlink:title=" ">
<path fill="none" stroke="#63b8ff" d="M1086,-285.84C1086,-278.21 1086,-268.7 1086,-260.45"/>
<polygon fill="#63b8ff" stroke="#63b8ff" points="1089.5,-260.27 1086,-250.27 1082.5,-260.27 1089.5,-260.27"/>
</a>
</g>
</g>
<!-- Node25 -->
<g id="Node000025" class="node">
<title>Node25</title>
<g id="a_Node000025"><a xlink:href="ViewportInteractorStyle_8hpp.html" target="_top" xlink:title=" ">
<polygon fill="white" stroke="#666666" points="162,-140 0,-140 0,-110 162,-110 162,-140"/>
<text text-anchor="start" x="8" y="-128" font-family="Helvetica,sans-Serif" font-size="10.00">controllers/ViewportInteractor</text>
<text text-anchor="middle" x="81" y="-117" font-family="Helvetica,sans-Serif" font-size="10.00">Style.hpp</text>
</a>
</g>
</g>
<!-- Node1&#45;&gt;Node25 -->
<g id="edge44_Node000001_Node000025" class="edge">
<title>Node1&#45;&gt;Node25</title>
<g id="a_edge44_Node000001_Node000025"><a xlink:title=" ">
<path fill="none" stroke="#63b8ff" d="M1020.47,-297.36C919.15,-292.49 718.63,-279.74 551,-250 397.38,-222.75 220.52,-170.19 134.11,-143.09"/>
<polygon fill="#63b8ff" stroke="#63b8ff" points="135.11,-139.73 124.52,-140.07 133.01,-146.41 135.11,-139.73"/>
</a>
</g>
</g>
<!-- Node3 -->
<g id="Node000003" class="node">
<title>Node3</title>
<g id="a_Node000003"><a xlink:title=" ">
<polygon fill="#e0e0e0" stroke="#999999" points="691,-19 635,-19 635,0 691,0 691,-19"/>
<text text-anchor="middle" x="663" y="-7" font-family="Helvetica,sans-Serif" font-size="10.00">QObject</text>
</a>
</g>
</g>
<!-- Node2&#45;&gt;Node3 -->
<g id="edge2_Node000002_Node000003" class="edge">
<title>Node2&#45;&gt;Node3</title>
<g id="a_edge2_Node000002_Node000003"><a xlink:title=" ">
<path fill="none" stroke="#63b8ff" d="M872.47,-230.66C866.53,-197.46 844.11,-80.72 818,-55 786.91,-24.38 736.22,-14.55 701.32,-11.54"/>
<polygon fill="#63b8ff" stroke="#63b8ff" points="701.25,-8.03 691.03,-10.81 700.76,-15.01 701.25,-8.03"/>
</a>
</g>
</g>
<!-- Node4 -->
<g id="Node000004" class="node">
<title>Node4</title>
<g id="a_Node000004"><a xlink:title=" ">
<polygon fill="#e0e0e0" stroke="#999999" points="663.5,-74 616.5,-74 616.5,-55 663.5,-55 663.5,-74"/>
<text text-anchor="middle" x="640" y="-62" font-family="Helvetica,sans-Serif" font-size="10.00">vector</text>
</a>
</g>
</g>
<!-- Node2&#45;&gt;Node4 -->
<g id="edge3_Node000002_Node000004" class="edge">
<title>Node2&#45;&gt;Node4</title>
<g id="a_edge3_Node000002_Node000004"><a xlink:title=" ">
<path fill="none" stroke="#63b8ff" d="M864.62,-230.79C856.07,-222.38 843.62,-208.89 836,-195 817,-160.36 838.5,-137.36 810,-110 773.19,-74.66 711.9,-66.5 673.84,-65.1"/>
<polygon fill="#63b8ff" stroke="#63b8ff" points="673.84,-61.59 663.76,-64.86 673.68,-68.59 673.84,-61.59"/>
</a>
</g>
</g>
<!-- Node5 -->
<g id="Node000005" class="node">
<title>Node5</title>
<g id="a_Node000005"><a xlink:href="ViewportConfig_8hpp.html" target="_top" xlink:title=" ">
<polygon fill="white" stroke="#666666" points="1067.5,-195 878.5,-195 878.5,-176 1067.5,-176 1067.5,-195"/>
<text text-anchor="middle" x="973" y="-183" font-family="Helvetica,sans-Serif" font-size="10.00">XQVtkViewport/ViewportConfig.hpp</text>
</a>
</g>
</g>
<!-- Node2&#45;&gt;Node5 -->
<g id="edge4_Node000002_Node000005" class="edge">
<title>Node2&#45;&gt;Node5</title>
<g id="a_edge4_Node000002_Node000005"><a xlink:title=" ">
<path fill="none" stroke="#63b8ff" d="M889.91,-230.98C905.55,-222.61 929.66,-209.7 947.88,-199.95"/>
<polygon fill="#63b8ff" stroke="#63b8ff" points="949.64,-202.98 956.8,-195.17 946.34,-196.8 949.64,-202.98"/>
</a>
</g>
</g>
<!-- Node9 -->
<g id="Node000009" class="node">
<title>Node9</title>
<g id="a_Node000009"><a xlink:href="IViewController_8hpp.html" target="_top" xlink:title=" ">
<polygon fill="white" stroke="#666666" points="724.5,-195 557.5,-195 557.5,-176 724.5,-176 724.5,-195"/>
<text text-anchor="middle" x="641" y="-183" font-family="Helvetica,sans-Serif" font-size="10.00">controllers/IViewController.hpp</text>
</a>
</g>
</g>
<!-- Node2&#45;&gt;Node9 -->
<g id="edge8_Node000002_Node000009" class="edge">
<title>Node2&#45;&gt;Node9</title>
<g id="a_edge8_Node000002_Node000009"><a xlink:title=" ">
<path fill="none" stroke="#63b8ff" d="M836.56,-230.98C796.35,-221.84 732.32,-207.27 688.56,-197.32"/>
<polygon fill="#63b8ff" stroke="#63b8ff" points="689.26,-193.89 678.73,-195.08 687.7,-200.71 689.26,-193.89"/>
</a>
</g>
</g>
<!-- Node6 -->
<g id="Node000006" class="node">
<title>Node6</title>
<g id="a_Node000006"><a xlink:title=" ">
<polygon fill="#e0e0e0" stroke="#999999" points="563,-74 521,-74 521,-55 563,-55 563,-74"/>
<text text-anchor="middle" x="542" y="-62" font-family="Helvetica,sans-Serif" font-size="10.00">array</text>
</a>
</g>
</g>
<!-- Node5&#45;&gt;Node6 -->
<g id="edge5_Node000005_Node000006" class="edge">
<title>Node5&#45;&gt;Node6</title>
<g id="a_edge5_Node000005_Node000006"><a xlink:title=" ">
<path fill="none" stroke="#63b8ff" d="M957.8,-175.89C929.6,-160.29 866.83,-127.37 810,-110 766.17,-96.6 634.45,-77.9 573.53,-69.67"/>
<polygon fill="#63b8ff" stroke="#63b8ff" points="573.74,-66.17 563.36,-68.3 572.81,-73.1 573.74,-66.17"/>
</a>
</g>
</g>
<!-- Node7 -->
<g id="Node000007" class="node">
<title>Node7</title>
<g id="a_Node000007"><a xlink:title=" ">
<polygon fill="#e0e0e0" stroke="#999999" points="978,-134.5 934,-134.5 934,-115.5 978,-115.5 978,-134.5"/>
<text text-anchor="middle" x="956" y="-122.5" font-family="Helvetica,sans-Serif" font-size="10.00">string</text>
</a>
</g>
</g>
<!-- Node5&#45;&gt;Node7 -->
<g id="edge6_Node000005_Node000007" class="edge">
<title>Node5&#45;&gt;Node7</title>
<g id="a_edge6_Node000005_Node000007"><a xlink:title=" ">
<path fill="none" stroke="#63b8ff" d="M970.49,-175.87C968.11,-167.66 964.44,-155.04 961.39,-144.55"/>
<polygon fill="#63b8ff" stroke="#63b8ff" points="964.67,-143.29 958.52,-134.67 957.95,-145.25 964.67,-143.29"/>
</a>
</g>
</g>
<!-- Node8 -->
<g id="Node000008" class="node">
<title>Node8</title>
<g id="a_Node000008"><a xlink:title=" ">
<polygon fill="#e0e0e0" stroke="#999999" points="1144.5,-134.5 995.5,-134.5 995.5,-115.5 1144.5,-115.5 1144.5,-134.5"/>
<text text-anchor="middle" x="1070" y="-122.5" font-family="Helvetica,sans-Serif" font-size="10.00">XQVtkViewport_export.hpp</text>
</a>
</g>
</g>
<!-- Node5&#45;&gt;Node8 -->
<g id="edge7_Node000005_Node000008" class="edge">
<title>Node5&#45;&gt;Node8</title>
<g id="a_edge7_Node000005_Node000008"><a xlink:title=" ">
<path fill="none" stroke="#63b8ff" d="M987.31,-175.87C1003,-166.41 1028.4,-151.09 1046.91,-139.92"/>
<polygon fill="#63b8ff" stroke="#63b8ff" points="1048.87,-142.83 1055.63,-134.67 1045.26,-136.83 1048.87,-142.83"/>
</a>
</g>
</g>
<!-- Node9&#45;&gt;Node4 -->
<g id="edge12_Node000009_Node000004" class="edge">
<title>Node9&#45;&gt;Node4</title>
<g id="a_edge12_Node000009_Node000004"><a xlink:title=" ">
<path fill="none" stroke="#63b8ff" d="M640.93,-175.94C640.77,-156.91 640.38,-110.69 640.16,-84.47"/>
<polygon fill="#63b8ff" stroke="#63b8ff" points="643.66,-84.27 640.07,-74.3 636.66,-84.33 643.66,-84.27"/>
</a>
</g>
</g>
<!-- Node9&#45;&gt;Node10 -->
<g id="edge9_Node000009_Node000010" class="edge">
<title>Node9&#45;&gt;Node10</title>
<g id="a_edge9_Node000009_Node000010"><a xlink:title=" ">
<path fill="none" stroke="#63b8ff" d="M657.67,-175.87C676.28,-166.23 706.62,-150.53 728.28,-139.31"/>
<polygon fill="#63b8ff" stroke="#63b8ff" points="729.99,-142.37 737.26,-134.67 726.77,-136.16 729.99,-142.37"/>
</a>
</g>
</g>
<!-- Node11 -->
<g id="Node000011" class="node">
<title>Node11</title>
<g id="a_Node000011"><a xlink:title=" ">
<polygon fill="#e0e0e0" stroke="#999999" points="297,-74 193,-74 193,-55 297,-55 297,-74"/>
<text text-anchor="middle" x="245" y="-62" font-family="Helvetica,sans-Serif" font-size="10.00">vtkSmartPointer.h</text>
</a>
</g>
</g>
<!-- Node9&#45;&gt;Node11 -->
<g id="edge10_Node000009_Node000011" class="edge">
<title>Node9&#45;&gt;Node11</title>
<g id="a_edge10_Node000009_Node000011"><a xlink:title=" ">
<path fill="none" stroke="#63b8ff" d="M557.37,-181.8C438.35,-177.09 231.86,-165.33 209,-140 193.45,-122.77 211.87,-97.61 227.57,-81.4"/>
<polygon fill="#63b8ff" stroke="#63b8ff" points="230.2,-83.73 234.9,-74.23 225.3,-78.72 230.2,-83.73"/>
</a>
</g>
</g>
<!-- Node12 -->
<g id="Node000012" class="node">
<title>Node12</title>
<g id="a_Node000012"><a xlink:title=" ">
<polygon fill="#e0e0e0" stroke="#999999" points="809,-74 751,-74 751,-55 809,-55 809,-74"/>
<text text-anchor="middle" x="780" y="-62" font-family="Helvetica,sans-Serif" font-size="10.00">memory</text>
</a>
</g>
</g>
<!-- Node9&#45;&gt;Node12 -->
<g id="edge11_Node000009_Node000012" class="edge">
<title>Node9&#45;&gt;Node12</title>
<g id="a_edge11_Node000009_Node000012"><a xlink:title=" ">
<path fill="none" stroke="#63b8ff" d="M645.87,-175.72C654.53,-160.7 673.91,-129.81 697,-110 712.45,-96.74 732.52,-85.85 749.05,-78.16"/>
<polygon fill="#63b8ff" stroke="#63b8ff" points="750.62,-81.29 758.31,-74.01 747.75,-74.9 750.62,-81.29"/>
</a>
</g>
</g>
<!-- Node13 -->
<g id="Node000013" class="node">
<title>Node13</title>
<g id="a_Node000013"><a xlink:href="IControllerBase_8hpp.html" target="_top" xlink:title=" ">
<polygon fill="white" stroke="#666666" points="503.5,-74 336.5,-74 336.5,-55 503.5,-55 503.5,-74"/>
<text text-anchor="middle" x="420" y="-62" font-family="Helvetica,sans-Serif" font-size="10.00">controllers/IControllerBase.hpp</text>
</a>
</g>
</g>
<!-- Node9&#45;&gt;Node13 -->
<g id="edge13_Node000009_Node000013" class="edge">
<title>Node9&#45;&gt;Node13</title>
<g id="a_edge13_Node000009_Node000013"><a xlink:title=" ">
<path fill="none" stroke="#63b8ff" d="M564.23,-175.99C514.95,-168.98 456.94,-157.36 439,-140 424.19,-125.67 420.33,-101.53 419.6,-84.63"/>
<polygon fill="#63b8ff" stroke="#63b8ff" points="423.1,-84.25 419.5,-74.29 416.1,-84.32 423.1,-84.25"/>
</a>
</g>
</g>
<!-- Node9&#45;&gt;Node14 -->
<g id="edge15_Node000009_Node000014" class="edge">
<title>Node9&#45;&gt;Node14</title>
<g id="a_edge15_Node000009_Node000014"><a xlink:title=" ">
<path fill="none" stroke="#63b8ff" d="M624.62,-175.87C606.42,-166.28 576.8,-150.67 555.55,-139.47"/>
<polygon fill="#63b8ff" stroke="#63b8ff" points="556.92,-136.23 546.45,-134.67 553.66,-142.43 556.92,-136.23"/>
</a>
</g>
</g>
<!-- Node9&#45;&gt;Node15 -->
<g id="edge20_Node000009_Node000015" class="edge">
<title>Node9&#45;&gt;Node15</title>
<g id="a_edge20_Node000009_Node000015"><a xlink:title=" ">
<path fill="none" stroke="#63b8ff" d="M592.14,-175.99C531.67,-165.47 428.78,-147.55 363.98,-136.27"/>
<polygon fill="#63b8ff" stroke="#63b8ff" points="364.37,-132.78 353.92,-134.52 363.17,-139.68 364.37,-132.78"/>
</a>
</g>
</g>
<!-- Node9&#45;&gt;Node16 -->
<g id="edge25_Node000009_Node000016" class="edge">
<title>Node9&#45;&gt;Node16</title>
<g id="a_edge25_Node000009_Node000016"><a xlink:title=" ">
<path fill="none" stroke="#63b8ff" d="M724.59,-177.94C826.18,-169.81 1002.78,-155.16 1154,-140 1167.21,-138.68 1181.2,-137.18 1194.83,-135.66"/>
<polygon fill="#63b8ff" stroke="#63b8ff" points="1195.62,-139.1 1205.17,-134.5 1194.84,-132.14 1195.62,-139.1"/>
</a>
</g>
</g>
<!-- Node13&#45;&gt;Node3 -->
<g id="edge14_Node000013_Node000003" class="edge">
<title>Node13&#45;&gt;Node3</title>
<g id="a_edge14_Node000013_Node000003"><a xlink:title=" ">
<path fill="none" stroke="#63b8ff" d="M459.04,-54.98C504.6,-45.05 579.43,-28.73 624.68,-18.86"/>
<polygon fill="#63b8ff" stroke="#63b8ff" points="625.66,-22.23 634.68,-16.68 624.17,-15.39 625.66,-22.23"/>
</a>
</g>
</g>
<!-- Node14&#45;&gt;Node4 -->
<g id="edge18_Node000014_Node000004" class="edge">
<title>Node14&#45;&gt;Node4</title>
<g id="a_edge18_Node000014_Node000004"><a xlink:title=" ">
<path fill="none" stroke="#63b8ff" d="M546.23,-115.37C564.27,-105.78 593.62,-90.17 614.68,-78.97"/>
<polygon fill="#63b8ff" stroke="#63b8ff" points="616.52,-81.95 623.7,-74.17 613.23,-75.77 616.52,-81.95"/>
</a>
</g>
</g>
<!-- Node14&#45;&gt;Node6 -->
<g id="edge17_Node000014_Node000006" class="edge">
<title>Node14&#45;&gt;Node6</title>
<g id="a_edge17_Node000014_Node000006"><a xlink:title=" ">
<path fill="none" stroke="#63b8ff" d="M531.77,-115.37C533.45,-107.16 536.04,-94.54 538.19,-84.05"/>
<polygon fill="#63b8ff" stroke="#63b8ff" points="541.64,-84.67 540.22,-74.17 534.78,-83.26 541.64,-84.67"/>
</a>
</g>
</g>
<!-- Node14&#45;&gt;Node11 -->
<g id="edge16_Node000014_Node000011" class="edge">
<title>Node14&#45;&gt;Node11</title>
<g id="a_edge16_Node000014_Node000011"><a xlink:title=" ">
<path fill="none" stroke="#63b8ff" d="M488.56,-115.49C437.69,-105.05 351.43,-87.35 296.39,-76.05"/>
<polygon fill="#63b8ff" stroke="#63b8ff" points="296.99,-72.6 286.49,-74.02 295.58,-79.46 296.99,-72.6"/>
</a>
</g>
</g>
<!-- Node14&#45;&gt;Node13 -->
<g id="edge19_Node000014_Node000013" class="edge">
<title>Node14&#45;&gt;Node13</title>
<g id="a_edge19_Node000014_Node000013"><a xlink:title=" ">
<path fill="none" stroke="#63b8ff" d="M513.77,-115.37C495.73,-105.78 466.38,-90.17 445.32,-78.97"/>
<polygon fill="#63b8ff" stroke="#63b8ff" points="446.77,-75.77 436.3,-74.17 443.48,-81.95 446.77,-75.77"/>
</a>
</g>
</g>
<!-- Node15&#45;&gt;Node4 -->
<g id="edge23_Node000015_Node000004" class="edge">
<title>Node15&#45;&gt;Node4</title>
<g id="a_edge23_Node000015_Node000004"><a xlink:title=" ">
<path fill="none" stroke="#63b8ff" d="M353.71,-115.49C422.53,-103.48 546.46,-81.83 606.11,-71.42"/>
<polygon fill="#63b8ff" stroke="#63b8ff" points="606.89,-74.84 616.14,-69.67 605.68,-67.94 606.89,-74.84"/>
</a>
</g>
</g>
<!-- Node15&#45;&gt;Node6 -->
<g id="edge22_Node000015_Node000006" class="edge">
<title>Node15&#45;&gt;Node6</title>
<g id="a_edge22_Node000015_Node000006"><a xlink:title=" ">
<path fill="none" stroke="#63b8ff" d="M342.13,-115.49C381.61,-106.34 446.13,-91.11 510.77,-74.25"/>
<polygon fill="#63b8ff" stroke="#63b8ff" points="511.94,-77.56 520.72,-71.64 510.16,-70.79 511.94,-77.56"/>
</a>
</g>
</g>
<!-- Node15&#45;&gt;Node11 -->
<g id="edge21_Node000015_Node000011" class="edge">
<title>Node15&#45;&gt;Node11</title>
<g id="a_edge21_Node000015_Node000011"><a xlink:title=" ">
<path fill="none" stroke="#63b8ff" d="M296.15,-115.37C287.02,-106.47 272.58,-92.39 261.36,-81.45"/>
<polygon fill="#63b8ff" stroke="#63b8ff" points="263.49,-78.64 253.89,-74.17 258.61,-83.65 263.49,-78.64"/>
</a>
</g>
</g>
<!-- Node15&#45;&gt;Node13 -->
<g id="edge24_Node000015_Node000013" class="edge">
<title>Node15&#45;&gt;Node13</title>
<g id="a_edge24_Node000015_Node000013"><a xlink:title=" ">
<path fill="none" stroke="#63b8ff" d="M321.97,-115.37C340.91,-105.73 371.79,-90.03 393.83,-78.81"/>
<polygon fill="#63b8ff" stroke="#63b8ff" points="395.64,-81.82 402.96,-74.17 392.46,-75.58 395.64,-81.82"/>
</a>
</g>
</g>
<!-- Node16&#45;&gt;Node4 -->
<g id="edge29_Node000016_Node000004" class="edge">
<title>Node16&#45;&gt;Node4</title>
<g id="a_edge29_Node000016_Node000004"><a xlink:title=" ">
<path fill="none" stroke="#63b8ff" d="M1225.59,-115.43C1212.69,-113.46 1198.86,-111.51 1186,-110 989.37,-86.93 939.32,-90.22 742,-74 719.33,-72.14 693.83,-70.01 674,-68.35"/>
<polygon fill="#63b8ff" stroke="#63b8ff" points="674.16,-64.85 663.91,-67.51 673.58,-71.83 674.16,-64.85"/>
</a>
</g>
</g>
<!-- Node16&#45;&gt;Node12 -->
<g id="edge27_Node000016_Node000012" class="edge">
<title>Node16&#45;&gt;Node12</title>
<g id="a_edge27_Node000016_Node000012"><a xlink:title=" ">
<path fill="none" stroke="#63b8ff" d="M1224.12,-115.47C1211.64,-113.56 1198.36,-111.63 1186,-110 1051.65,-92.31 891.64,-76.23 819.15,-69.22"/>
<polygon fill="#63b8ff" stroke="#63b8ff" points="819.39,-65.73 809.1,-68.25 818.72,-72.69 819.39,-65.73"/>
</a>
</g>
</g>
<!-- Node17 -->
<g id="Node000017" class="node">
<title>Node17</title>
<g id="a_Node000017"><a xlink:title=" ">
<polygon fill="#e0e0e0" stroke="#999999" points="1255.5,-19 1202.5,-19 1202.5,0 1255.5,0 1255.5,-19"/>
<text text-anchor="middle" x="1229" y="-7" font-family="Helvetica,sans-Serif" font-size="10.00">cstddef</text>
</a>
</g>
</g>
<!-- Node16&#45;&gt;Node17 -->
<g id="edge26_Node000016_Node000017" class="edge">
<title>Node16&#45;&gt;Node17</title>
<g id="a_edge26_Node000016_Node000017"><a xlink:title=" ">
<path fill="none" stroke="#63b8ff" d="M1253.02,-115.48C1235.12,-107.71 1211.94,-94.3 1201,-74 1192.65,-58.51 1202.94,-40.04 1213.31,-27.02"/>
<polygon fill="#63b8ff" stroke="#63b8ff" points="1216.06,-29.19 1219.95,-19.34 1210.76,-24.61 1216.06,-29.19"/>
</a>
</g>
</g>
<!-- Node18 -->
<g id="Node000018" class="node">
<title>Node18</title>
<g id="a_Node000018"><a xlink:title=" ">
<polygon fill="#e0e0e0" stroke="#999999" points="1448,-74 1362,-74 1362,-55 1448,-55 1448,-74"/>
<text text-anchor="middle" x="1405" y="-62" font-family="Helvetica,sans-Serif" font-size="10.00">unordered_set</text>
</a>
</g>
</g>
<!-- Node16&#45;&gt;Node18 -->
<g id="edge28_Node000016_Node000018" class="edge">
<title>Node16&#45;&gt;Node18</title>
<g id="a_edge28_Node000016_Node000018"><a xlink:title=" ">
<path fill="none" stroke="#63b8ff" d="M1295.61,-115.49C1317.04,-105.7 1352.44,-89.52 1377.15,-78.23"/>
<polygon fill="#63b8ff" stroke="#63b8ff" points="1378.72,-81.36 1386.37,-74.02 1375.82,-74.99 1378.72,-81.36"/>
</a>
</g>
</g>
<!-- Node19 -->
<g id="Node000019" class="node">
<title>Node19</title>
<g id="a_Node000019"><a xlink:href="RenderTypes_8hpp.html" target="_top" xlink:title=" ">
<polygon fill="white" stroke="#666666" points="1344,-74 1210,-74 1210,-55 1344,-55 1344,-74"/>
<text text-anchor="middle" x="1277" y="-62" font-family="Helvetica,sans-Serif" font-size="10.00">render/RenderTypes.hpp</text>
</a>
</g>
</g>
<!-- Node16&#45;&gt;Node19 -->
<g id="edge30_Node000016_Node000019" class="edge">
<title>Node16&#45;&gt;Node19</title>
<g id="a_edge30_Node000016_Node000019"><a xlink:title=" ">
<path fill="none" stroke="#63b8ff" d="M1277,-115.37C1277,-107.25 1277,-94.81 1277,-84.39"/>
<polygon fill="#63b8ff" stroke="#63b8ff" points="1280.5,-84.17 1277,-74.17 1273.5,-84.17 1280.5,-84.17"/>
</a>
</g>
</g>
<!-- Node19&#45;&gt;Node17 -->
<g id="edge31_Node000019_Node000017" class="edge">
<title>Node19&#45;&gt;Node17</title>
<g id="a_edge31_Node000019_Node000017"><a xlink:title=" ">
<path fill="none" stroke="#63b8ff" d="M1269.07,-54.75C1262.15,-47.11 1251.93,-35.82 1243.55,-26.56"/>
<polygon fill="#63b8ff" stroke="#63b8ff" points="1246.09,-24.15 1236.78,-19.09 1240.9,-28.85 1246.09,-24.15"/>
</a>
</g>
</g>
<!-- Node24&#45;&gt;Node4 -->
<g id="edge39_Node000024_Node000004" class="edge">
<title>Node24&#45;&gt;Node4</title>
<g id="a_edge39_Node000024_Node000004"><a xlink:title=" ">
<path fill="none" stroke="#63b8ff" d="M1097.21,-230.7C1124.41,-208.33 1189.19,-148.36 1154,-110 1152.98,-108.89 788.47,-78.03 673.99,-68.37"/>
<polygon fill="#63b8ff" stroke="#63b8ff" points="673.97,-64.85 663.71,-67.5 673.38,-71.83 673.97,-64.85"/>
</a>
</g>
</g>
<!-- Node24&#45;&gt;Node5 -->
<g id="edge40_Node000024_Node000005" class="edge">
<title>Node24&#45;&gt;Node5</title>
<g id="a_edge40_Node000024_Node000005"><a xlink:title=" ">
<path fill="none" stroke="#63b8ff" d="M1067.84,-230.98C1049.75,-222.5 1021.72,-209.35 1000.81,-199.54"/>
<polygon fill="#63b8ff" stroke="#63b8ff" points="1002.03,-196.25 991.49,-195.17 999.05,-202.59 1002.03,-196.25"/>
</a>
</g>
</g>
<!-- Node24&#45;&gt;Node7 -->
<g id="edge38_Node000024_Node000007" class="edge">
<title>Node24&#45;&gt;Node7</title>
<g id="a_edge38_Node000024_Node000007"><a xlink:title=" ">
<path fill="none" stroke="#63b8ff" d="M1087.32,-230.65C1088.78,-217.31 1089.51,-191.94 1077,-176 1050.4,-142.11 1026.64,-156.87 987,-140 985.99,-139.57 984.97,-139.13 983.94,-138.69"/>
<polygon fill="#63b8ff" stroke="#63b8ff" points="985.19,-135.41 974.63,-134.57 982.36,-141.82 985.19,-135.41"/>
</a>
</g>
</g>
<!-- Node24&#45;&gt;Node8 -->
<g id="edge41_Node000024_Node000008" class="edge">
<title>Node24&#45;&gt;Node8</title>
<g id="a_edge41_Node000024_Node000008"><a xlink:title=" ">
<path fill="none" stroke="#63b8ff" d="M1093.26,-230.92C1102.63,-218.76 1116.94,-195.8 1110,-176 1105.45,-163.02 1095.95,-150.9 1087.35,-141.85"/>
<polygon fill="#63b8ff" stroke="#63b8ff" points="1089.74,-139.29 1080.17,-134.74 1084.81,-144.26 1089.74,-139.29"/>
</a>
</g>
</g>
<!-- Node25&#45;&gt;Node4 -->
<g id="edge47_Node000025_Node000004" class="edge">
<title>Node25&#45;&gt;Node4</title>
<g id="a_edge47_Node000025_Node000004"><a xlink:title=" ">
<path fill="none" stroke="#63b8ff" d="M162.24,-114.99C177.76,-113.3 193.88,-111.58 209,-110 370.25,-93.19 410.88,-92.06 572,-74 583.2,-72.74 595.42,-71.25 606.38,-69.88"/>
<polygon fill="#63b8ff" stroke="#63b8ff" points="606.94,-73.33 616.42,-68.6 606.05,-66.39 606.94,-73.33"/>
</a>
</g>
</g>
<!-- Node25&#45;&gt;Node11 -->
<g id="edge46_Node000025_Node000011" class="edge">
<title>Node25&#45;&gt;Node11</title>
<g id="a_edge46_Node000025_Node000011"><a xlink:title=" ">
<path fill="none" stroke="#63b8ff" d="M120.28,-109.99C148.01,-100.1 184.78,-86.98 211.2,-77.56"/>
<polygon fill="#63b8ff" stroke="#63b8ff" points="212.54,-80.8 220.78,-74.14 210.19,-74.2 212.54,-80.8"/>
</a>
</g>
</g>
<!-- Node26 -->
<g id="Node000026" class="node">
<title>Node26</title>
<g id="a_Node000026"><a xlink:title=" ">
<polygon fill="#e0e0e0" stroke="#999999" points="153,-74 9,-74 9,-55 153,-55 153,-74"/>
<text text-anchor="middle" x="81" y="-62" font-family="Helvetica,sans-Serif" font-size="10.00">vtkInteractorStyleImage.h</text>
</a>
</g>
</g>
<!-- Node25&#45;&gt;Node26 -->
<g id="edge45_Node000025_Node000026" class="edge">
<title>Node25&#45;&gt;Node26</title>
<g id="a_edge45_Node000025_Node000026"><a xlink:title=" ">
<path fill="none" stroke="#63b8ff" d="M81,-109.84C81,-102.21 81,-92.7 81,-84.45"/>
<polygon fill="#63b8ff" stroke="#63b8ff" points="84.5,-84.27 81,-74.27 77.5,-84.27 84.5,-84.27"/>
</a>
</g>
</g>
</g>
</svg>

<g id="navigator" transform="translate(0 0)" fill="#404254">
  <rect fill="#f2f5e9" fill-opacity="0.5" stroke="#606060" stroke-width=".5" x="0" y="0" width="60" height="60"/>
  <use id="zoomplus" xlink:href="#zoomPlus" x="17" y="9" onmousedown="handleZoom(evt,'in')"/>
  <use id="zoomminus" xlink:href="#zoomMin" x="42" y="9" onmousedown="handleZoom(evt,'out')"/>
  <use id="reset" xlink:href="#resetDef" x="30" y="36" onmousedown="handleReset()"/>
   <use id="arrowup" xlink:href="#arrowUp" x="0" y="0" onmousedown="handlePan(0,-1)"/>
  <use id="arrowright" xlink:href="#arrowRight" x="0" y="0" onmousedown="handlePan(1,0)"/>
  <use id="arrowdown" xlink:href="#arrowDown" x="0" y="0" onmousedown="handlePan(0,1)"/>
  <use id="arrowleft" xlink:href="#arrowLeft" x="0" y="0" onmousedown="handlePan(-1,0)"/>
</g>
<svg viewBox="0 0 15 15" width="100%" height="30px" preserveAspectRatio="xMaxYMin meet">
 <g id="arrow_out" transform="scale(0.3 0.3)">
  <a xlink:href="ViewportController_8cpp__incl_org.svg" target="_base">
   <rect id="button" ry="5" rx="5" y="6" x="6" height="38" width="38"
        fill="#f2f5e9" fill-opacity="0.5" stroke="#606060" stroke-width="1.0"/>
   <path id="arrow"
     d="M 11.500037,31.436501 C 11.940474,20.09759 22.043105,11.32322 32.158766,21.979434 L 37.068811,17.246167 C 37.068811,17.246167 37.088388,32 37.088388,32 L 22.160133,31.978069 C 22.160133,31.978069 26.997745,27.140456 26.997745,27.140456 C 18.528582,18.264221 13.291696,25.230495 11.500037,31.436501 z"
     style="fill:#404040;"/>
  </a>
 </g>
</svg>

<style type='text/css'>
<![CDATA[
[data-mouse-over-selected='false'] { opacity: 0.7; }
[data-mouse-over-selected='true']  { opacity: 1.0; }
]]>
</style>
<script type="application/ecmascript"><![CDATA[
document.addEventListener('DOMContentLoaded', (event) => {
  highlightEdges();
  highlightAdjacentNodes();
});
]]></script>
</svg>
