<?xml version="1.0" encoding="UTF-8" standalone="no"?>
<!DOCTYPE svg PUBLIC "-//W3C//DTD SVG 1.1//EN"
 "http://www.w3.org/Graphics/SVG/1.1/DTD/svg11.dtd">
<!-- Generated by graphviz version 2.43.0 (0)
 -->
<!-- Title: src/ui/include/ui/ViewportLayoutTypes.hpp Pages: 1 -->
<svg width="346pt" height="148pt"
 viewBox="0.00 0.00 345.50 148.00" xmlns="http://www.w3.org/2000/svg" xmlns:xlink="http://www.w3.org/1999/xlink">

<svg id="main" version="1.1" xmlns="http://www.w3.org/2000/svg" xmlns:xlink="http://www.w3.org/1999/xlink" xml:space="preserve" onload="init(evt)">
<style type="text/css"><![CDATA[
.node, .edge {opacity: 0.7;}
.node.selected, .edge.selected {opacity: 1;}
.edge:hover path { stroke: red; }
.edge:hover polygon { stroke: red; fill: red; }
]]></style>
<script type="application/ecmascript" xlink:href="svg.min.js"/>
<svg id="graph" class="graph">
<g id="graph0" class="graph" transform="scale(1 1) rotate(0) translate(4 144)">
<title>src/ui/include/ui/ViewportLayoutTypes.hpp</title>
<!-- Node1 -->
<g id="Node000001" class="node">
<title>Node1</title>
<g id="a_Node000001"><a xlink:title=" ">
<polygon fill="#999999" stroke="#666666" points="270,-140 130,-140 130,-110 270,-110 270,-140"/>
<text text-anchor="start" x="138" y="-128" font-family="Helvetica,sans-Serif" font-size="10.00">src/ui/include/ui/Viewport</text>
<text text-anchor="middle" x="200" y="-117" font-family="Helvetica,sans-Serif" font-size="10.00">LayoutTypes.hpp</text>
</a>
</g>
</g>
<!-- Node2 -->
<g id="Node000002" class="node">
<title>Node2</title>
<g id="a_Node000002"><a xlink:title=" ">
<polygon fill="#e0e0e0" stroke="#999999" points="42,-19 0,-19 0,0 42,0 42,-19"/>
<text text-anchor="middle" x="21" y="-7" font-family="Helvetica,sans-Serif" font-size="10.00">array</text>
</a>
</g>
</g>
<!-- Node1&#45;&gt;Node2 -->
<g id="edge1_Node000001_Node000002" class="edge">
<title>Node1&#45;&gt;Node2</title>
<g id="a_edge1_Node000001_Node000002"><a xlink:title=" ">
<path fill="none" stroke="#63b8ff" d="M129.6,-118.83C96.55,-112.78 59.2,-100.14 35,-74 23.87,-61.97 20.86,-43.16 20.34,-29.13"/>
<polygon fill="#63b8ff" stroke="#63b8ff" points="23.84,-29.13 20.35,-19.13 16.84,-29.12 23.84,-29.13"/>
</a>
</g>
</g>
<!-- Node3 -->
<g id="Node000003" class="node">
<title>Node3</title>
<g id="a_Node000003"><a xlink:title=" ">
<polygon fill="#e0e0e0" stroke="#999999" points="279,-19 235,-19 235,0 279,0 279,-19"/>
<text text-anchor="middle" x="257" y="-7" font-family="Helvetica,sans-Serif" font-size="10.00">string</text>
</a>
</g>
</g>
<!-- Node1&#45;&gt;Node3 -->
<g id="edge2_Node000001_Node000003" class="edge">
<title>Node1&#45;&gt;Node3</title>
<g id="a_edge2_Node000001_Node000003"><a xlink:title=" ">
<path fill="none" stroke="#63b8ff" d="M215.74,-109.69C225.02,-100.39 236.24,-87.52 243,-74 250.03,-59.94 253.55,-42.4 255.31,-29.31"/>
<polygon fill="#63b8ff" stroke="#63b8ff" points="258.81,-29.49 256.43,-19.16 251.85,-28.71 258.81,-29.49"/>
</a>
</g>
</g>
<!-- Node4 -->
<g id="Node000004" class="node">
<title>Node4</title>
<g id="a_Node000004"><a xlink:title=" ">
<polygon fill="#e0e0e0" stroke="#999999" points="337.5,-74 290.5,-74 290.5,-55 337.5,-55 337.5,-74"/>
<text text-anchor="middle" x="314" y="-62" font-family="Helvetica,sans-Serif" font-size="10.00">vector</text>
</a>
</g>
</g>
<!-- Node1&#45;&gt;Node4 -->
<g id="edge3_Node000001_Node000004" class="edge">
<title>Node1&#45;&gt;Node4</title>
<g id="a_edge3_Node000001_Node000004"><a xlink:title=" ">
<path fill="none" stroke="#63b8ff" d="M227.31,-109.99C245.65,-100.58 269.68,-88.24 287.79,-78.95"/>
<polygon fill="#63b8ff" stroke="#63b8ff" points="289.87,-81.82 297.16,-74.14 286.67,-75.59 289.87,-81.82"/>
</a>
</g>
</g>
<!-- Node5 -->
<g id="Node000005" class="node">
<title>Node5</title>
<g id="a_Node000005"><a xlink:href="ViewportConfig_8hpp.html" target="_top" xlink:title=" ">
<polygon fill="white" stroke="#666666" points="233.5,-74 44.5,-74 44.5,-55 233.5,-55 233.5,-74"/>
<text text-anchor="middle" x="139" y="-62" font-family="Helvetica,sans-Serif" font-size="10.00">XQVtkViewport/ViewportConfig.hpp</text>
</a>
</g>
</g>
<!-- Node1&#45;&gt;Node5 -->
<g id="edge4_Node000001_Node000005" class="edge">
<title>Node1&#45;&gt;Node5</title>
<g id="a_edge4_Node000001_Node000005"><a xlink:title=" ">
<path fill="none" stroke="#63b8ff" d="M185.23,-109.84C176.29,-101.26 164.86,-90.3 155.6,-81.42"/>
<polygon fill="#63b8ff" stroke="#63b8ff" points="157.78,-78.66 148.14,-74.27 152.94,-83.71 157.78,-78.66"/>
</a>
</g>
</g>
<!-- Node5&#45;&gt;Node2 -->
<g id="edge5_Node000005_Node000002" class="edge">
<title>Node5&#45;&gt;Node2</title>
<g id="a_edge5_Node000005_Node000002"><a xlink:title=" ">
<path fill="none" stroke="#63b8ff" d="M120.04,-54.98C100.97,-46.42 71.34,-33.11 49.45,-23.28"/>
<polygon fill="#63b8ff" stroke="#63b8ff" points="50.86,-20.07 40.3,-19.17 47.99,-26.46 50.86,-20.07"/>
</a>
</g>
</g>
<!-- Node5&#45;&gt;Node3 -->
<g id="edge6_Node000005_Node000003" class="edge">
<title>Node5&#45;&gt;Node3</title>
<g id="a_edge6_Node000005_Node000003"><a xlink:title=" ">
<path fill="none" stroke="#63b8ff" d="M157.96,-54.98C177.03,-46.42 206.66,-33.11 228.55,-23.28"/>
<polygon fill="#63b8ff" stroke="#63b8ff" points="230.01,-26.46 237.7,-19.17 227.14,-20.07 230.01,-26.46"/>
</a>
</g>
</g>
<!-- Node6 -->
<g id="Node000006" class="node">
<title>Node6</title>
<g id="a_Node000006"><a xlink:title=" ">
<polygon fill="#e0e0e0" stroke="#999999" points="213.5,-19 64.5,-19 64.5,0 213.5,0 213.5,-19"/>
<text text-anchor="middle" x="139" y="-7" font-family="Helvetica,sans-Serif" font-size="10.00">XQVtkViewport_export.hpp</text>
</a>
</g>
</g>
<!-- Node5&#45;&gt;Node6 -->
<g id="edge7_Node000005_Node000006" class="edge">
<title>Node5&#45;&gt;Node6</title>
<g id="a_edge7_Node000005_Node000006"><a xlink:title=" ">
<path fill="none" stroke="#63b8ff" d="M139,-54.75C139,-47.8 139,-37.85 139,-29.13"/>
<polygon fill="#63b8ff" stroke="#63b8ff" points="142.5,-29.09 139,-19.09 135.5,-29.09 142.5,-29.09"/>
</a>
</g>
</g>
</g>
</svg>
</svg>

<style type='text/css'>
<![CDATA[
[data-mouse-over-selected='false'] { opacity: 0.7; }
[data-mouse-over-selected='true']  { opacity: 1.0; }
]]>
</style>
<script type="application/ecmascript"><![CDATA[
document.addEventListener('DOMContentLoaded', (event) => {
  highlightEdges();
  highlightAdjacentNodes();
});
]]></script>
</svg>
