<?xml version="1.0" encoding="UTF-8" standalone="no"?>
<!DOCTYPE svg PUBLIC "-//W3C//DTD SVG 1.1//EN"
 "http://www.w3.org/Graphics/SVG/1.1/DTD/svg11.dtd">
<!-- Generated by graphviz version 2.43.0 (0)
 -->
<!-- Title: lib/include/XQVtkViewport/ViewportLayout.hpp Pages: 1 -->
<svg width="309pt" height="148pt"
 viewBox="0.00 0.00 308.50 148.00" xmlns="http://www.w3.org/2000/svg" xmlns:xlink="http://www.w3.org/1999/xlink">
<g id="graph0" class="graph" transform="scale(1 1) rotate(0) translate(4 144)">
<title>lib/include/XQVtkViewport/ViewportLayout.hpp</title>
<!-- Node1 -->
<g id="Node000001" class="node">
<title>Node1</title>
<g id="a_Node000001"><a xlink:title=" ">
<polygon fill="#999999" stroke="#666666" points="165,-140 21,-140 21,-110 165,-110 165,-140"/>
<text text-anchor="start" x="29" y="-128" font-family="Helvetica,sans-Serif" font-size="10.00">lib/include/XQVtkViewport</text>
<text text-anchor="middle" x="93" y="-117" font-family="Helvetica,sans-Serif" font-size="10.00">/ViewportLayout.hpp</text>
</a>
</g>
</g>
<!-- Node2 -->
<g id="Node000002" class="node">
<title>Node2</title>
<g id="a_Node000002"><a xlink:title=" ">
<polygon fill="#e0e0e0" stroke="#999999" points="44,-19 0,-19 0,0 44,0 44,-19"/>
<text text-anchor="middle" x="22" y="-7" font-family="Helvetica,sans-Serif" font-size="10.00">string</text>
</a>
</g>
</g>
<!-- Node1&#45;&gt;Node2 -->
<g id="edge1_Node000001_Node000002" class="edge">
<title>Node1&#45;&gt;Node2</title>
<g id="a_edge1_Node000001_Node000002"><a xlink:title=" ">
<path fill="none" stroke="#63b8ff" d="M53.03,-109.79C36.98,-101.89 20.14,-90.28 11,-74 3.22,-60.14 7.46,-42.12 12.77,-28.81"/>
<polygon fill="#63b8ff" stroke="#63b8ff" points="16.13,-29.88 17.06,-19.32 9.75,-27 16.13,-29.88"/>
</a>
</g>
</g>
<!-- Node3 -->
<g id="Node000003" class="node">
<title>Node3</title>
<g id="a_Node000003"><a xlink:title=" ">
<polygon fill="#e0e0e0" stroke="#999999" points="67.5,-74 20.5,-74 20.5,-55 67.5,-55 67.5,-74"/>
<text text-anchor="middle" x="44" y="-62" font-family="Helvetica,sans-Serif" font-size="10.00">vector</text>
</a>
</g>
</g>
<!-- Node1&#45;&gt;Node3 -->
<g id="edge2_Node000001_Node000003" class="edge">
<title>Node1&#45;&gt;Node3</title>
<g id="a_edge2_Node000001_Node000003"><a xlink:title=" ">
<path fill="none" stroke="#63b8ff" d="M81.14,-109.84C74.1,-101.43 65.14,-90.74 57.79,-81.96"/>
<polygon fill="#63b8ff" stroke="#63b8ff" points="60.45,-79.68 51.34,-74.27 55.08,-84.18 60.45,-79.68"/>
</a>
</g>
</g>
<!-- Node4 -->
<g id="Node000004" class="node">
<title>Node4</title>
<g id="a_Node000004"><a xlink:href="ViewportConfig_8hpp.html" target="_top" xlink:title=" ">
<polygon fill="white" stroke="#666666" points="198,-74 86,-74 86,-55 198,-55 198,-74"/>
<text text-anchor="middle" x="142" y="-62" font-family="Helvetica,sans-Serif" font-size="10.00">ViewportConfig.hpp</text>
</a>
</g>
</g>
<!-- Node1&#45;&gt;Node4 -->
<g id="edge3_Node000001_Node000004" class="edge">
<title>Node1&#45;&gt;Node4</title>
<g id="a_edge3_Node000001_Node000004"><a xlink:title=" ">
<path fill="none" stroke="#63b8ff" d="M104.86,-109.84C111.9,-101.43 120.86,-90.74 128.21,-81.96"/>
<polygon fill="#63b8ff" stroke="#63b8ff" points="130.92,-84.18 134.66,-74.27 125.55,-79.68 130.92,-84.18"/>
</a>
</g>
</g>
<!-- Node6 -->
<g id="Node000006" class="node">
<title>Node6</title>
<g id="a_Node000006"><a xlink:title=" ">
<polygon fill="#e0e0e0" stroke="#999999" points="300.5,-19 151.5,-19 151.5,0 300.5,0 300.5,-19"/>
<text text-anchor="middle" x="226" y="-7" font-family="Helvetica,sans-Serif" font-size="10.00">XQVtkViewport_export.hpp</text>
</a>
</g>
</g>
<!-- Node1&#45;&gt;Node6 -->
<g id="edge7_Node000001_Node000006" class="edge">
<title>Node1&#45;&gt;Node6</title>
<g id="a_edge7_Node000001_Node000006"><a xlink:title=" ">
<path fill="none" stroke="#63b8ff" d="M149.8,-109.97C170.3,-102.36 192.04,-90.92 207,-74 217.84,-61.74 222.5,-43.51 224.5,-29.73"/>
<polygon fill="#63b8ff" stroke="#63b8ff" points="228.02,-29.74 225.63,-19.42 221.06,-28.98 228.02,-29.74"/>
</a>
</g>
</g>
<!-- Node4&#45;&gt;Node2 -->
<g id="edge5_Node000004_Node000002" class="edge">
<title>Node4&#45;&gt;Node2</title>
<g id="a_edge5_Node000004_Node000002"><a xlink:title=" ">
<path fill="none" stroke="#63b8ff" d="M122.72,-54.98C103.33,-46.42 73.19,-33.11 50.93,-23.28"/>
<polygon fill="#63b8ff" stroke="#63b8ff" points="52.19,-20.01 41.63,-19.17 49.36,-26.41 52.19,-20.01"/>
</a>
</g>
</g>
<!-- Node5 -->
<g id="Node000005" class="node">
<title>Node5</title>
<g id="a_Node000005"><a xlink:title=" ">
<polygon fill="#e0e0e0" stroke="#999999" points="134,-19 92,-19 92,0 134,0 134,-19"/>
<text text-anchor="middle" x="113" y="-7" font-family="Helvetica,sans-Serif" font-size="10.00">array</text>
</a>
</g>
</g>
<!-- Node4&#45;&gt;Node5 -->
<g id="edge4_Node000004_Node000005" class="edge">
<title>Node4&#45;&gt;Node5</title>
<g id="a_edge4_Node000004_Node000005"><a xlink:title=" ">
<path fill="none" stroke="#63b8ff" d="M137.21,-54.75C133.24,-47.49 127.47,-36.95 122.57,-27.98"/>
<polygon fill="#63b8ff" stroke="#63b8ff" points="125.57,-26.18 117.7,-19.09 119.43,-29.54 125.57,-26.18"/>
</a>
</g>
</g>
<!-- Node4&#45;&gt;Node6 -->
<g id="edge6_Node000004_Node000006" class="edge">
<title>Node4&#45;&gt;Node6</title>
<g id="a_edge6_Node000004_Node000006"><a xlink:title=" ">
<path fill="none" stroke="#63b8ff" d="M155.5,-54.98C168.4,-46.84 188.1,-34.41 203.4,-24.76"/>
<polygon fill="#63b8ff" stroke="#63b8ff" points="205.67,-27.47 212.26,-19.17 201.93,-21.55 205.67,-27.47"/>
</a>
</g>
</g>
</g>
</svg>
