<?xml version="1.0" encoding="UTF-8" standalone="no"?>
<!DOCTYPE svg PUBLIC "-//W3C//DTD SVG 1.1//EN"
 "http://www.w3.org/Graphics/SVG/1.1/DTD/svg11.dtd">
<!-- Generated by graphviz version 2.43.0 (0)
 -->
<!-- Title: src/ui/include/ui/ViewportLayoutItem.hpp Pages: 1 -->
<svg width="448pt" height="203pt"
 viewBox="0.00 0.00 447.50 203.00" xmlns="http://www.w3.org/2000/svg" xmlns:xlink="http://www.w3.org/1999/xlink">

<svg id="main" version="1.1" xmlns="http://www.w3.org/2000/svg" xmlns:xlink="http://www.w3.org/1999/xlink" xml:space="preserve" onload="init(evt)">
<style type="text/css"><![CDATA[
.node, .edge {opacity: 0.7;}
.node.selected, .edge.selected {opacity: 1;}
.edge:hover path { stroke: red; }
.edge:hover polygon { stroke: red; fill: red; }
]]></style>
<script type="application/ecmascript" xlink:href="svg.min.js"/>
<svg id="graph" class="graph">
<g id="graph0" class="graph" transform="scale(1 1) rotate(0) translate(4 199)">
<title>src/ui/include/ui/ViewportLayoutItem.hpp</title>
<!-- Node1 -->
<g id="Node000001" class="node">
<title>Node1</title>
<g id="a_Node000001"><a xlink:title=" ">
<polygon fill="#999999" stroke="#666666" points="195.5,-195 55.5,-195 55.5,-165 195.5,-165 195.5,-195"/>
<text text-anchor="start" x="63.5" y="-183" font-family="Helvetica,sans-Serif" font-size="10.00">src/ui/include/ui/Viewport</text>
<text text-anchor="middle" x="125.5" y="-172" font-family="Helvetica,sans-Serif" font-size="10.00">LayoutItem.hpp</text>
</a>
</g>
</g>
<!-- Node2 -->
<g id="Node000002" class="node">
<title>Node2</title>
<g id="a_Node000002"><a xlink:title=" ">
<polygon fill="#e0e0e0" stroke="#999999" points="97,-129 0,-129 0,-110 97,-110 97,-129"/>
<text text-anchor="middle" x="48.5" y="-117" font-family="Helvetica,sans-Serif" font-size="10.00">QAbstractButton</text>
</a>
</g>
</g>
<!-- Node1&#45;&gt;Node2 -->
<g id="edge1_Node000001_Node000002" class="edge">
<title>Node1&#45;&gt;Node2</title>
<g id="a_edge1_Node000001_Node000002"><a xlink:title=" ">
<path fill="none" stroke="#63b8ff" d="M106.86,-164.84C95.11,-155.91 79.97,-144.41 68.05,-135.35"/>
<polygon fill="#63b8ff" stroke="#63b8ff" points="70.12,-132.53 60.04,-129.27 65.88,-138.1 70.12,-132.53"/>
</a>
</g>
</g>
<!-- Node3 -->
<g id="Node000003" class="node">
<title>Node3</title>
<g id="a_Node000003"><a xlink:title=" ">
<polygon fill="#e0e0e0" stroke="#999999" points="149,-74 102,-74 102,-55 149,-55 149,-74"/>
<text text-anchor="middle" x="125.5" y="-62" font-family="Helvetica,sans-Serif" font-size="10.00">vector</text>
</a>
</g>
</g>
<!-- Node1&#45;&gt;Node3 -->
<g id="edge2_Node000001_Node000003" class="edge">
<title>Node1&#45;&gt;Node3</title>
<g id="a_edge2_Node000001_Node000003"><a xlink:title=" ">
<path fill="none" stroke="#63b8ff" d="M125.5,-164.63C125.5,-144.21 125.5,-106.81 125.5,-84.24"/>
<polygon fill="#63b8ff" stroke="#63b8ff" points="129,-84.23 125.5,-74.23 122,-84.23 129,-84.23"/>
</a>
</g>
</g>
<!-- Node4 -->
<g id="Node000004" class="node">
<title>Node4</title>
<g id="a_Node000004"><a xlink:href="ViewportLayoutTypes_8hpp.html" target="_top" xlink:title=" ">
<polygon fill="white" stroke="#666666" points="307.5,-129 153.5,-129 153.5,-110 307.5,-110 307.5,-129"/>
<text text-anchor="middle" x="230.5" y="-117" font-family="Helvetica,sans-Serif" font-size="10.00">ui/ViewportLayoutTypes.hpp</text>
</a>
</g>
</g>
<!-- Node1&#45;&gt;Node4 -->
<g id="edge3_Node000001_Node000004" class="edge">
<title>Node1&#45;&gt;Node4</title>
<g id="a_edge3_Node000001_Node000004"><a xlink:title=" ">
<path fill="none" stroke="#63b8ff" d="M150.65,-164.99C167.39,-155.66 189.27,-143.47 205.89,-134.21"/>
<polygon fill="#63b8ff" stroke="#63b8ff" points="207.96,-137.06 214.99,-129.14 204.55,-130.95 207.96,-137.06"/>
</a>
</g>
</g>
<!-- Node4&#45;&gt;Node3 -->
<g id="edge6_Node000004_Node000003" class="edge">
<title>Node4&#45;&gt;Node3</title>
<g id="a_edge6_Node000004_Node000003"><a xlink:title=" ">
<path fill="none" stroke="#63b8ff" d="M213.63,-109.98C196.89,-101.54 171,-88.47 151.61,-78.68"/>
<polygon fill="#63b8ff" stroke="#63b8ff" points="153.18,-75.55 142.68,-74.17 150.03,-81.8 153.18,-75.55"/>
</a>
</g>
</g>
<!-- Node5 -->
<g id="Node000005" class="node">
<title>Node5</title>
<g id="a_Node000005"><a xlink:title=" ">
<polygon fill="#e0e0e0" stroke="#999999" points="439.5,-19 397.5,-19 397.5,0 439.5,0 439.5,-19"/>
<text text-anchor="middle" x="418.5" y="-7" font-family="Helvetica,sans-Serif" font-size="10.00">array</text>
</a>
</g>
</g>
<!-- Node4&#45;&gt;Node5 -->
<g id="edge4_Node000004_Node000005" class="edge">
<title>Node4&#45;&gt;Node5</title>
<g id="a_edge4_Node000004_Node000005"><a xlink:title=" ">
<path fill="none" stroke="#63b8ff" d="M290.5,-109.97C334.31,-102.53 388.68,-90.36 404.5,-74 415.89,-62.22 418.87,-43.38 419.31,-29.27"/>
<polygon fill="#63b8ff" stroke="#63b8ff" points="422.81,-29.17 419.23,-19.2 415.81,-29.23 422.81,-29.17"/>
</a>
</g>
</g>
<!-- Node6 -->
<g id="Node000006" class="node">
<title>Node6</title>
<g id="a_Node000006"><a xlink:title=" ">
<polygon fill="#e0e0e0" stroke="#999999" points="204.5,-19 160.5,-19 160.5,0 204.5,0 204.5,-19"/>
<text text-anchor="middle" x="182.5" y="-7" font-family="Helvetica,sans-Serif" font-size="10.00">string</text>
</a>
</g>
</g>
<!-- Node4&#45;&gt;Node6 -->
<g id="edge5_Node000004_Node000006" class="edge">
<title>Node4&#45;&gt;Node6</title>
<g id="a_edge5_Node000004_Node000006"><a xlink:title=" ">
<path fill="none" stroke="#63b8ff" d="M221.91,-109.73C214.12,-101.27 202.89,-87.76 196.5,-74 189.88,-59.75 186.32,-42.21 184.45,-29.19"/>
<polygon fill="#63b8ff" stroke="#63b8ff" points="187.9,-28.59 183.21,-19.09 180.96,-29.45 187.9,-28.59"/>
</a>
</g>
</g>
<!-- Node7 -->
<g id="Node000007" class="node">
<title>Node7</title>
<g id="a_Node000007"><a xlink:href="ViewportConfig_8hpp.html" target="_top" xlink:title=" ">
<polygon fill="white" stroke="#666666" points="395,-74 206,-74 206,-55 395,-55 395,-74"/>
<text text-anchor="middle" x="300.5" y="-62" font-family="Helvetica,sans-Serif" font-size="10.00">XQVtkViewport/ViewportConfig.hpp</text>
</a>
</g>
</g>
<!-- Node4&#45;&gt;Node7 -->
<g id="edge7_Node000004_Node000007" class="edge">
<title>Node4&#45;&gt;Node7</title>
<g id="a_edge7_Node000004_Node000007"><a xlink:title=" ">
<path fill="none" stroke="#63b8ff" d="M241.75,-109.98C252.3,-102 268.3,-89.88 280.94,-80.31"/>
<polygon fill="#63b8ff" stroke="#63b8ff" points="283.19,-83 289.05,-74.17 278.96,-77.42 283.19,-83"/>
</a>
</g>
</g>
<!-- Node7&#45;&gt;Node5 -->
<g id="edge8_Node000007_Node000005" class="edge">
<title>Node7&#45;&gt;Node5</title>
<g id="a_edge8_Node000007_Node000005"><a xlink:title=" ">
<path fill="none" stroke="#63b8ff" d="M319.46,-54.98C338.53,-46.42 368.16,-33.11 390.05,-23.28"/>
<polygon fill="#63b8ff" stroke="#63b8ff" points="391.51,-26.46 399.2,-19.17 388.64,-20.07 391.51,-26.46"/>
</a>
</g>
</g>
<!-- Node7&#45;&gt;Node6 -->
<g id="edge9_Node000007_Node000006" class="edge">
<title>Node7&#45;&gt;Node6</title>
<g id="a_edge9_Node000007_Node000006"><a xlink:title=" ">
<path fill="none" stroke="#63b8ff" d="M281.54,-54.98C262.47,-46.42 232.84,-33.11 210.95,-23.28"/>
<polygon fill="#63b8ff" stroke="#63b8ff" points="212.36,-20.07 201.8,-19.17 209.49,-26.46 212.36,-20.07"/>
</a>
</g>
</g>
<!-- Node8 -->
<g id="Node000008" class="node">
<title>Node8</title>
<g id="a_Node000008"><a xlink:title=" ">
<polygon fill="#e0e0e0" stroke="#999999" points="375,-19 226,-19 226,0 375,0 375,-19"/>
<text text-anchor="middle" x="300.5" y="-7" font-family="Helvetica,sans-Serif" font-size="10.00">XQVtkViewport_export.hpp</text>
</a>
</g>
</g>
<!-- Node7&#45;&gt;Node8 -->
<g id="edge10_Node000007_Node000008" class="edge">
<title>Node7&#45;&gt;Node8</title>
<g id="a_edge10_Node000007_Node000008"><a xlink:title=" ">
<path fill="none" stroke="#63b8ff" d="M300.5,-54.75C300.5,-47.8 300.5,-37.85 300.5,-29.13"/>
<polygon fill="#63b8ff" stroke="#63b8ff" points="304,-29.09 300.5,-19.09 297,-29.09 304,-29.09"/>
</a>
</g>
</g>
</g>
</svg>
</svg>

<style type='text/css'>
<![CDATA[
[data-mouse-over-selected='false'] { opacity: 0.7; }
[data-mouse-over-selected='true']  { opacity: 1.0; }
]]>
</style>
<script type="application/ecmascript"><![CDATA[
document.addEventListener('DOMContentLoaded', (event) => {
  highlightEdges();
  highlightAdjacentNodes();
});
]]></script>
</svg>
