<?xml version="1.0" encoding="UTF-8" standalone="no"?>
<!DOCTYPE svg PUBLIC "-//W3C//DTD SVG 1.1//EN"
 "http://www.w3.org/Graphics/SVG/1.1/DTD/svg11.dtd">
<!-- Generated by graphviz version 2.43.0 (0)
 -->
<!-- Title: src/ui/include/ui/ViewportLayoutManager.hpp Pages: 1 -->
<svg width="593pt" height="258pt"
 viewBox="0.00 0.00 593.00 258.00" xmlns="http://www.w3.org/2000/svg" xmlns:xlink="http://www.w3.org/1999/xlink">
<g id="graph0" class="graph" transform="scale(1 1) rotate(0) translate(4 254)">
<title>src/ui/include/ui/ViewportLayoutManager.hpp</title>
<!-- Node1 -->
<g id="Node000001" class="node">
<title>Node1</title>
<g id="a_Node000001"><a xlink:title=" ">
<polygon fill="#999999" stroke="#666666" points="230,-250 90,-250 90,-220 230,-220 230,-250"/>
<text text-anchor="start" x="98" y="-238" font-family="Helvetica,sans-Serif" font-size="10.00">src/ui/include/ui/Viewport</text>
<text text-anchor="middle" x="160" y="-227" font-family="Helvetica,sans-Serif" font-size="10.00">LayoutManager.hpp</text>
</a>
</g>
</g>
<!-- Node2 -->
<g id="Node000002" class="node">
<title>Node2</title>
<g id="a_Node000002"><a xlink:title=" ">
<polygon fill="#e0e0e0" stroke="#999999" points="56,-184 0,-184 0,-165 56,-165 56,-184"/>
<text text-anchor="middle" x="28" y="-172" font-family="Helvetica,sans-Serif" font-size="10.00">QObject</text>
</a>
</g>
</g>
<!-- Node1&#45;&gt;Node2 -->
<g id="edge1_Node000001_Node000002" class="edge">
<title>Node1&#45;&gt;Node2</title>
<g id="a_edge1_Node000001_Node000002"><a xlink:title=" ">
<path fill="none" stroke="#63b8ff" d="M128.38,-219.99C106.65,-210.36 78.03,-197.67 56.91,-188.31"/>
<polygon fill="#63b8ff" stroke="#63b8ff" points="58.05,-184.99 47.49,-184.14 55.22,-191.39 58.05,-184.99"/>
</a>
</g>
</g>
<!-- Node3 -->
<g id="Node000003" class="node">
<title>Node3</title>
<g id="a_Node000003"><a xlink:title=" ">
<polygon fill="#e0e0e0" stroke="#999999" points="132,-184 74,-184 74,-165 132,-165 132,-184"/>
<text text-anchor="middle" x="103" y="-172" font-family="Helvetica,sans-Serif" font-size="10.00">memory</text>
</a>
</g>
</g>
<!-- Node1&#45;&gt;Node3 -->
<g id="edge2_Node000001_Node000003" class="edge">
<title>Node1&#45;&gt;Node3</title>
<g id="a_edge2_Node000001_Node000003"><a xlink:title=" ">
<path fill="none" stroke="#63b8ff" d="M146.2,-219.84C137.93,-211.35 127.38,-200.52 118.77,-191.69"/>
<polygon fill="#63b8ff" stroke="#63b8ff" points="121.03,-188.99 111.54,-184.27 116.01,-193.87 121.03,-188.99"/>
</a>
</g>
</g>
<!-- Node4 -->
<g id="Node000004" class="node">
<title>Node4</title>
<g id="a_Node000004"><a xlink:title=" ">
<polygon fill="#e0e0e0" stroke="#999999" points="255.5,-74 208.5,-74 208.5,-55 255.5,-55 255.5,-74"/>
<text text-anchor="middle" x="232" y="-62" font-family="Helvetica,sans-Serif" font-size="10.00">vector</text>
</a>
</g>
</g>
<!-- Node1&#45;&gt;Node4 -->
<g id="edge3_Node000001_Node000004" class="edge">
<title>Node1&#45;&gt;Node4</title>
<g id="a_edge3_Node000001_Node000004"><a xlink:title=" ">
<path fill="none" stroke="#63b8ff" d="M162.91,-219.96C166.06,-205.8 171.64,-183.47 179,-165 190.96,-134.98 209.54,-102.29 221.22,-82.87"/>
<polygon fill="#63b8ff" stroke="#63b8ff" points="224.27,-84.6 226.49,-74.24 218.29,-80.95 224.27,-84.6"/>
</a>
</g>
</g>
<!-- Node5 -->
<g id="Node000005" class="node">
<title>Node5</title>
<g id="a_Node000005"><a xlink:href="OverlayLayoutAdapter_8hpp.html" target="_top" xlink:title=" ">
<polygon fill="white" stroke="#666666" points="380,-184 188,-184 188,-165 380,-165 380,-184"/>
<text text-anchor="middle" x="284" y="-172" font-family="Helvetica,sans-Serif" font-size="10.00">adapters/OverlayLayoutAdapter.hpp</text>
</a>
</g>
</g>
<!-- Node1&#45;&gt;Node5 -->
<g id="edge4_Node000001_Node000005" class="edge">
<title>Node1&#45;&gt;Node5</title>
<g id="a_edge4_Node000001_Node000005"><a xlink:title=" ">
<path fill="none" stroke="#63b8ff" d="M189.7,-219.99C210.02,-210.4 236.76,-197.79 256.58,-188.44"/>
<polygon fill="#63b8ff" stroke="#63b8ff" points="258.14,-191.57 265.69,-184.14 255.15,-185.24 258.14,-191.57"/>
</a>
</g>
</g>
<!-- Node7 -->
<g id="Node000007" class="node">
<title>Node7</title>
<g id="a_Node000007"><a xlink:href="ViewportLayoutTypes_8hpp.html" target="_top" xlink:title=" ">
<polygon fill="white" stroke="#666666" points="475,-129 321,-129 321,-110 475,-110 475,-129"/>
<text text-anchor="middle" x="398" y="-117" font-family="Helvetica,sans-Serif" font-size="10.00">ui/ViewportLayoutTypes.hpp</text>
</a>
</g>
</g>
<!-- Node1&#45;&gt;Node7 -->
<g id="edge15_Node000001_Node000007" class="edge">
<title>Node1&#45;&gt;Node7</title>
<g id="a_edge15_Node000001_Node000007"><a xlink:title=" ">
<path fill="none" stroke="#63b8ff" d="M230.23,-227.41C289.4,-220.35 367.71,-206.93 389,-184 400,-172.15 401.42,-153.32 400.58,-139.23"/>
<polygon fill="#63b8ff" stroke="#63b8ff" points="404.06,-138.78 399.57,-129.18 397.09,-139.48 404.06,-138.78"/>
</a>
</g>
</g>
<!-- Node5&#45;&gt;Node4 -->
<g id="edge6_Node000005_Node000004" class="edge">
<title>Node5&#45;&gt;Node4</title>
<g id="a_edge6_Node000005_Node000004"><a xlink:title=" ">
<path fill="none" stroke="#63b8ff" d="M279.74,-164.66C271.21,-146.93 251.85,-106.73 240.58,-83.32"/>
<polygon fill="#63b8ff" stroke="#63b8ff" points="243.66,-81.65 236.17,-74.16 237.35,-84.69 243.66,-81.65"/>
</a>
</g>
</g>
<!-- Node6 -->
<g id="Node000006" class="node">
<title>Node6</title>
<g id="a_Node000006"><a xlink:title=" ">
<polygon fill="#e0e0e0" stroke="#999999" points="343,-19 301,-19 301,0 343,0 343,-19"/>
<text text-anchor="middle" x="322" y="-7" font-family="Helvetica,sans-Serif" font-size="10.00">array</text>
</a>
</g>
</g>
<!-- Node5&#45;&gt;Node6 -->
<g id="edge5_Node000005_Node000006" class="edge">
<title>Node5&#45;&gt;Node6</title>
<g id="a_edge5_Node000005_Node000006"><a xlink:title=" ">
<path fill="none" stroke="#63b8ff" d="M286.04,-164.74C292,-139.2 309.43,-64.43 317.63,-29.23"/>
<polygon fill="#63b8ff" stroke="#63b8ff" points="321.08,-29.84 319.95,-19.31 314.27,-28.25 321.08,-29.84"/>
</a>
</g>
</g>
<!-- Node5&#45;&gt;Node7 -->
<g id="edge7_Node000005_Node000007" class="edge">
<title>Node5&#45;&gt;Node7</title>
<g id="a_edge7_Node000005_Node000007"><a xlink:title=" ">
<path fill="none" stroke="#63b8ff" d="M302.32,-164.98C320.66,-156.46 349.11,-143.23 370.23,-133.41"/>
<polygon fill="#63b8ff" stroke="#63b8ff" points="371.76,-136.56 379.35,-129.17 368.81,-130.21 371.76,-136.56"/>
</a>
</g>
</g>
<!-- Node7&#45;&gt;Node4 -->
<g id="edge10_Node000007_Node000004" class="edge">
<title>Node7&#45;&gt;Node4</title>
<g id="a_edge10_Node000007_Node000004"><a xlink:title=" ">
<path fill="none" stroke="#63b8ff" d="M371.33,-109.98C342.47,-100.77 296.4,-86.06 265.21,-76.1"/>
<polygon fill="#63b8ff" stroke="#63b8ff" points="266.24,-72.76 255.65,-73.05 264.11,-79.43 266.24,-72.76"/>
</a>
</g>
</g>
<!-- Node7&#45;&gt;Node6 -->
<g id="edge8_Node000007_Node000006" class="edge">
<title>Node7&#45;&gt;Node6</title>
<g id="a_edge8_Node000007_Node000006"><a xlink:title=" ">
<path fill="none" stroke="#63b8ff" d="M382.24,-109.93C369.37,-102.15 351.62,-89.55 341,-74 331.77,-60.49 326.93,-42.4 324.45,-28.98"/>
<polygon fill="#63b8ff" stroke="#63b8ff" points="327.9,-28.35 322.88,-19.02 320.98,-29.44 327.9,-28.35"/>
</a>
</g>
</g>
<!-- Node8 -->
<g id="Node000008" class="node">
<title>Node8</title>
<g id="a_Node000008"><a xlink:title=" ">
<polygon fill="#e0e0e0" stroke="#999999" points="585,-19 541,-19 541,0 585,0 585,-19"/>
<text text-anchor="middle" x="563" y="-7" font-family="Helvetica,sans-Serif" font-size="10.00">string</text>
</a>
</g>
</g>
<!-- Node7&#45;&gt;Node8 -->
<g id="edge9_Node000007_Node000008" class="edge">
<title>Node7&#45;&gt;Node8</title>
<g id="a_edge9_Node000007_Node000008"><a xlink:title=" ">
<path fill="none" stroke="#63b8ff" d="M475.15,-111.78C501.88,-105.7 529.89,-94.49 549,-74 560.18,-62.01 563.18,-43.2 563.69,-29.16"/>
<polygon fill="#63b8ff" stroke="#63b8ff" points="567.19,-29.13 563.66,-19.14 560.19,-29.15 567.19,-29.13"/>
</a>
</g>
</g>
<!-- Node9 -->
<g id="Node000009" class="node">
<title>Node9</title>
<g id="a_Node000009"><a xlink:href="ViewportConfig_8hpp.html" target="_top" xlink:title=" ">
<polygon fill="white" stroke="#666666" points="539.5,-74 350.5,-74 350.5,-55 539.5,-55 539.5,-74"/>
<text text-anchor="middle" x="445" y="-62" font-family="Helvetica,sans-Serif" font-size="10.00">XQVtkViewport/ViewportConfig.hpp</text>
</a>
</g>
</g>
<!-- Node7&#45;&gt;Node9 -->
<g id="edge11_Node000007_Node000009" class="edge">
<title>Node7&#45;&gt;Node9</title>
<g id="a_edge11_Node000007_Node000009"><a xlink:title=" ">
<path fill="none" stroke="#63b8ff" d="M405.76,-109.75C412.47,-102.18 422.34,-91.05 430.51,-81.84"/>
<polygon fill="#63b8ff" stroke="#63b8ff" points="433.37,-83.89 437.38,-74.09 428.13,-79.25 433.37,-83.89"/>
</a>
</g>
</g>
<!-- Node9&#45;&gt;Node6 -->
<g id="edge12_Node000009_Node000006" class="edge">
<title>Node9&#45;&gt;Node6</title>
<g id="a_edge12_Node000009_Node000006"><a xlink:title=" ">
<path fill="none" stroke="#63b8ff" d="M425.24,-54.98C405.27,-46.38 374.2,-32.99 351.35,-23.15"/>
<polygon fill="#63b8ff" stroke="#63b8ff" points="352.69,-19.91 342.12,-19.17 349.92,-26.34 352.69,-19.91"/>
</a>
</g>
</g>
<!-- Node9&#45;&gt;Node8 -->
<g id="edge13_Node000009_Node000008" class="edge">
<title>Node9&#45;&gt;Node8</title>
<g id="a_edge13_Node000009_Node000008"><a xlink:title=" ">
<path fill="none" stroke="#63b8ff" d="M463.96,-54.98C483.03,-46.42 512.66,-33.11 534.55,-23.28"/>
<polygon fill="#63b8ff" stroke="#63b8ff" points="536.01,-26.46 543.7,-19.17 533.14,-20.07 536.01,-26.46"/>
</a>
</g>
</g>
<!-- Node10 -->
<g id="Node000010" class="node">
<title>Node10</title>
<g id="a_Node000010"><a xlink:title=" ">
<polygon fill="#e0e0e0" stroke="#999999" points="519.5,-19 370.5,-19 370.5,0 519.5,0 519.5,-19"/>
<text text-anchor="middle" x="445" y="-7" font-family="Helvetica,sans-Serif" font-size="10.00">XQVtkViewport_export.hpp</text>
</a>
</g>
</g>
<!-- Node9&#45;&gt;Node10 -->
<g id="edge14_Node000009_Node000010" class="edge">
<title>Node9&#45;&gt;Node10</title>
<g id="a_edge14_Node000009_Node000010"><a xlink:title=" ">
<path fill="none" stroke="#63b8ff" d="M445,-54.75C445,-47.8 445,-37.85 445,-29.13"/>
<polygon fill="#63b8ff" stroke="#63b8ff" points="448.5,-29.09 445,-19.09 441.5,-29.09 448.5,-29.09"/>
</a>
</g>
</g>
</g>
</svg>
