<?xml version="1.0" encoding="UTF-8" standalone="no"?>
<!DOCTYPE svg PUBLIC "-//W3C//DTD SVG 1.1//EN"
 "http://www.w3.org/Graphics/SVG/1.1/DTD/svg11.dtd">
<!-- Generated by graphviz version 2.43.0 (0)
 -->
<!-- Title: src/controllers/include/controllers/ViewportController.hpp Pages: 1 -->
<!--zoomable 258 -->

<svg id="main" version="1.1" xmlns="http://www.w3.org/2000/svg" xmlns:xlink="http://www.w3.org/1999/xlink" xml:space="preserve" onload="init(evt)">
<style type="text/css"><![CDATA[
.node, .edge {opacity: 0.7;}
.node.selected, .edge.selected {opacity: 1;}
.edge:hover path { stroke: red; }
.edge:hover polygon { stroke: red; fill: red; }
]]></style>

<defs>
  <circle id="rim" cx="0" cy="0" r="7"/>
  <circle id="rim2" cx="0" cy="0" r="3.5"/>
  <g id="zoomPlus">
    <use xlink:href="#rim" fill="#404040"><set attributeName="fill" to="#808080" begin="zoomplus.mouseover" end="zoomplus.mouseout"/></use>
    <path d="M-4,0h8M0,-4v8" fill="none" stroke="white" stroke-width="1.5" pointer-events="none"/>
  </g>
  <g id="zoomMin">
    <use xlink:href="#rim" fill="#404040"><set attributeName="fill" to="#808080" begin="zoomminus.mouseover" end="zoomminus.mouseout"/></use>
    <path d="M-4,0h8" fill="none" stroke="white" stroke-width="1.5" pointer-events="none"/>
  </g>
  <g id="arrowUp" transform="translate(30 24)">
    <use xlink:href="#rim"/>
    <path pointer-events="none" fill="none" stroke="white" stroke-width="1.5" d="M0,-3.0v7 M-2.5,-0.5L0,-3.0L2.5,-0.5"/>
  </g>
  <g id="arrowRight" transform="rotate(90) translate(36 -43)">
    <use xlink:href="#rim"/>
    <path pointer-events="none" fill="none" stroke="white" stroke-width="1.5" d="M0,-3.0v7 M-2.5,-0.5L0,-3.0L2.5,-0.5"/>
  </g>
  <g id="arrowDown" transform="rotate(180) translate(-30 -48)">
    <use xlink:href="#rim"/>
    <path pointer-events="none" fill="none" stroke="white" stroke-width="1.5" d="M0,-3.0v7 M-2.5,-0.5L0,-3.0L2.5,-0.5"/>
  </g>
  <g id="arrowLeft" transform="rotate(270) translate(-36 17)">
    <use xlink:href="#rim"/>
    <path pointer-events="none" fill="none" stroke="white" stroke-width="1.5" d="M0,-3.0v7 M-2.5,-0.5L0,-3.0L2.5,-0.5"/>
  </g>
  <g id="resetDef">
    <use xlink:href="#rim2" fill="#404040"><set attributeName="fill" to="#808080" begin="reset.mouseover" end="reset.mouseout"/></use>
  </g>
</defs>
<script type="application/ecmascript">
var viewWidth = 1218;
var viewHeight = 258;
var sectionId = 'dynsection-0';
</script>
<script type="application/ecmascript" xlink:href="svg.min.js"/>
<svg id="graph" class="graph">
<g id="viewport">
<title>src/controllers/include/controllers/ViewportController.hpp</title>
<!-- Node1 -->
<g id="Node000001" class="node">
<title>Node1</title>
<g id="a_Node000001"><a xlink:title=" ">
<polygon fill="#999999" stroke="#666666" points="819.71,-250 633.71,-250 633.71,-220 819.71,-220 819.71,-250"/>
<text text-anchor="start" x="641.71" y="-238" font-family="Helvetica,sans-Serif" font-size="10.00">src/controllers/include</text>
<text text-anchor="middle" x="726.71" y="-227" font-family="Helvetica,sans-Serif" font-size="10.00">/controllers/ViewportController.hpp</text>
</a>
</g>
</g>
<!-- Node2 -->
<g id="Node000002" class="node">
<title>Node2</title>
<g id="a_Node000002"><a xlink:title=" ">
<polygon fill="#e0e0e0" stroke="#999999" points="950.71,-19 894.71,-19 894.71,0 950.71,0 950.71,-19"/>
<text text-anchor="middle" x="922.71" y="-7" font-family="Helvetica,sans-Serif" font-size="10.00">QObject</text>
</a>
</g>
</g>
<!-- Node1&#45;&gt;Node2 -->
<g id="edge1_Node000001_Node000002" class="edge">
<title>Node1&#45;&gt;Node2</title>
<g id="a_edge1_Node000001_Node000002"><a xlink:title=" ">
<path fill="none" stroke="#63b8ff" d="M819.92,-228.31C945.86,-218.27 1159.33,-192.16 1199.71,-129 1256.85,-39.65 1049.72,-17.5 961.09,-12.15"/>
<polygon fill="#63b8ff" stroke="#63b8ff" points="961.07,-8.64 950.89,-11.58 960.68,-15.63 961.07,-8.64"/>
</a>
</g>
</g>
<!-- Node3 -->
<g id="Node000003" class="node">
<title>Node3</title>
<g id="a_Node000003"><a xlink:title=" ">
<polygon fill="#e0e0e0" stroke="#999999" points="393.21,-74 346.21,-74 346.21,-55 393.21,-55 393.21,-74"/>
<text text-anchor="middle" x="369.71" y="-62" font-family="Helvetica,sans-Serif" font-size="10.00">vector</text>
</a>
</g>
</g>
<!-- Node1&#45;&gt;Node3 -->
<g id="edge2_Node000001_Node000003" class="edge">
<title>Node1&#45;&gt;Node3</title>
<g id="a_edge2_Node000001_Node000003"><a xlink:title=" ">
<path fill="none" stroke="#63b8ff" d="M633.44,-225.93C554.52,-217.9 448.42,-203.88 410.71,-184 380.96,-168.31 371.15,-160.26 358.71,-129 352.9,-114.38 356.79,-96.66 361.48,-83.66"/>
<polygon fill="#63b8ff" stroke="#63b8ff" points="364.88,-84.6 365.41,-74.02 358.39,-81.96 364.88,-84.6"/>
</a>
</g>
</g>
<!-- Node4 -->
<g id="Node000004" class="node">
<title>Node4</title>
<g id="a_Node000004"><a xlink:href="ViewportConfig_8hpp.html" target="_top" xlink:title=" ">
<polygon fill="white" stroke="#666666" points="1071.21,-184 882.21,-184 882.21,-165 1071.21,-165 1071.21,-184"/>
<text text-anchor="middle" x="976.71" y="-172" font-family="Helvetica,sans-Serif" font-size="10.00">XQVtkViewport/ViewportConfig.hpp</text>
</a>
</g>
</g>
<!-- Node1&#45;&gt;Node4 -->
<g id="edge3_Node000001_Node000004" class="edge">
<title>Node1&#45;&gt;Node4</title>
<g id="a_edge3_Node000001_Node000004"><a xlink:title=" ">
<path fill="none" stroke="#63b8ff" d="M786.59,-219.99C830.67,-209.67 889.74,-195.85 930.27,-186.37"/>
<polygon fill="#63b8ff" stroke="#63b8ff" points="931.22,-189.74 940.16,-184.05 929.63,-182.92 931.22,-189.74"/>
</a>
</g>
</g>
<!-- Node8 -->
<g id="Node000008" class="node">
<title>Node8</title>
<g id="a_Node000008"><a xlink:href="IViewController_8hpp.html" target="_top" xlink:title=" ">
<polygon fill="white" stroke="#666666" points="586.21,-184 419.21,-184 419.21,-165 586.21,-165 586.21,-184"/>
<text text-anchor="middle" x="502.71" y="-172" font-family="Helvetica,sans-Serif" font-size="10.00">controllers/IViewController.hpp</text>
</a>
</g>
</g>
<!-- Node1&#45;&gt;Node8 -->
<g id="edge7_Node000001_Node000008" class="edge">
<title>Node1&#45;&gt;Node8</title>
<g id="a_edge7_Node000001_Node000008"><a xlink:title=" ">
<path fill="none" stroke="#63b8ff" d="M673.06,-219.99C633.9,-209.76 581.54,-196.09 545.25,-186.61"/>
<polygon fill="#63b8ff" stroke="#63b8ff" points="546.03,-183.19 535.47,-184.05 544.26,-189.97 546.03,-183.19"/>
</a>
</g>
</g>
<!-- Node5 -->
<g id="Node000005" class="node">
<title>Node5</title>
<g id="a_Node000005"><a xlink:title=" ">
<polygon fill="#e0e0e0" stroke="#999999" points="902.71,-74 860.71,-74 860.71,-55 902.71,-55 902.71,-74"/>
<text text-anchor="middle" x="881.71" y="-62" font-family="Helvetica,sans-Serif" font-size="10.00">array</text>
</a>
</g>
</g>
<!-- Node4&#45;&gt;Node5 -->
<g id="edge4_Node000004_Node000005" class="edge">
<title>Node4&#45;&gt;Node5</title>
<g id="a_edge4_Node000004_Node000005"><a xlink:title=" ">
<path fill="none" stroke="#63b8ff" d="M970.74,-164.97C961.86,-152.49 944.42,-128.68 927.71,-110 918.75,-99.98 907.99,-89.49 899.13,-81.22"/>
<polygon fill="#63b8ff" stroke="#63b8ff" points="901.36,-78.51 891.63,-74.32 896.62,-83.66 901.36,-78.51"/>
</a>
</g>
</g>
<!-- Node6 -->
<g id="Node000006" class="node">
<title>Node6</title>
<g id="a_Node000006"><a xlink:title=" ">
<polygon fill="#e0e0e0" stroke="#999999" points="1023.71,-129 979.71,-129 979.71,-110 1023.71,-110 1023.71,-129"/>
<text text-anchor="middle" x="1001.71" y="-117" font-family="Helvetica,sans-Serif" font-size="10.00">string</text>
</a>
</g>
</g>
<!-- Node4&#45;&gt;Node6 -->
<g id="edge5_Node000004_Node000006" class="edge">
<title>Node4&#45;&gt;Node6</title>
<g id="a_edge5_Node000004_Node000006"><a xlink:title=" ">
<path fill="none" stroke="#63b8ff" d="M980.84,-164.75C984.23,-157.57 989.13,-147.18 993.33,-138.27"/>
<polygon fill="#63b8ff" stroke="#63b8ff" points="996.56,-139.63 997.66,-129.09 990.23,-136.64 996.56,-139.63"/>
</a>
</g>
</g>
<!-- Node7 -->
<g id="Node000007" class="node">
<title>Node7</title>
<g id="a_Node000007"><a xlink:title=" ">
<polygon fill="#e0e0e0" stroke="#999999" points="1190.21,-129 1041.21,-129 1041.21,-110 1190.21,-110 1190.21,-129"/>
<text text-anchor="middle" x="1115.71" y="-117" font-family="Helvetica,sans-Serif" font-size="10.00">XQVtkViewport_export.hpp</text>
</a>
</g>
</g>
<!-- Node4&#45;&gt;Node7 -->
<g id="edge6_Node000004_Node000007" class="edge">
<title>Node4&#45;&gt;Node7</title>
<g id="a_edge6_Node000004_Node000007"><a xlink:title=" ">
<path fill="none" stroke="#63b8ff" d="M999.05,-164.98C1021.91,-156.27 1057.67,-142.63 1083.58,-132.75"/>
<polygon fill="#63b8ff" stroke="#63b8ff" points="1084.88,-136 1092.97,-129.17 1082.38,-129.46 1084.88,-136"/>
</a>
</g>
</g>
<!-- Node8&#45;&gt;Node3 -->
<g id="edge11_Node000008_Node000003" class="edge">
<title>Node8&#45;&gt;Node3</title>
<g id="a_edge11_Node000008_Node000003"><a xlink:title=" ">
<path fill="none" stroke="#63b8ff" d="M428.18,-164.95C406.16,-158.58 384.33,-147.65 370.71,-129 361.38,-116.21 362.2,-97.79 364.72,-84.08"/>
<polygon fill="#63b8ff" stroke="#63b8ff" points="368.14,-84.81 366.95,-74.29 361.32,-83.26 368.14,-84.81"/>
</a>
</g>
</g>
<!-- Node9 -->
<g id="Node000009" class="node">
<title>Node9</title>
<g id="a_Node000009"><a xlink:title=" ">
<polygon fill="#e0e0e0" stroke="#999999" points="474.21,-129 379.21,-129 379.21,-110 474.21,-110 474.21,-129"/>
<text text-anchor="middle" x="426.71" y="-117" font-family="Helvetica,sans-Serif" font-size="10.00">vtkImageData.h</text>
</a>
</g>
</g>
<!-- Node8&#45;&gt;Node9 -->
<g id="edge8_Node000008_Node000009" class="edge">
<title>Node8&#45;&gt;Node9</title>
<g id="a_edge8_Node000008_Node000009"><a xlink:title=" ">
<path fill="none" stroke="#63b8ff" d="M490.5,-164.98C478.94,-156.92 461.34,-144.65 447.55,-135.03"/>
<polygon fill="#63b8ff" stroke="#63b8ff" points="449.35,-132.02 439.15,-129.17 445.35,-137.76 449.35,-132.02"/>
</a>
</g>
</g>
<!-- Node10 -->
<g id="Node000010" class="node">
<title>Node10</title>
<g id="a_Node000010"><a xlink:title=" ">
<polygon fill="#e0e0e0" stroke="#999999" points="842.71,-74 738.71,-74 738.71,-55 842.71,-55 842.71,-74"/>
<text text-anchor="middle" x="790.71" y="-62" font-family="Helvetica,sans-Serif" font-size="10.00">vtkSmartPointer.h</text>
</a>
</g>
</g>
<!-- Node8&#45;&gt;Node10 -->
<g id="edge9_Node000008_Node000010" class="edge">
<title>Node8&#45;&gt;Node10</title>
<g id="a_edge9_Node000008_Node000010"><a xlink:title=" ">
<path fill="none" stroke="#63b8ff" d="M586.36,-169.84C695.37,-164.19 874.56,-151.58 894.71,-129 915.9,-105.27 876.32,-87.51 840.05,-76.89"/>
<polygon fill="#63b8ff" stroke="#63b8ff" points="840.53,-73.39 829.96,-74.09 838.65,-80.14 840.53,-73.39"/>
</a>
</g>
</g>
<!-- Node11 -->
<g id="Node000011" class="node">
<title>Node11</title>
<g id="a_Node000011"><a xlink:title=" ">
<polygon fill="#e0e0e0" stroke="#999999" points="327.71,-74 269.71,-74 269.71,-55 327.71,-55 327.71,-74"/>
<text text-anchor="middle" x="298.71" y="-62" font-family="Helvetica,sans-Serif" font-size="10.00">memory</text>
</a>
</g>
</g>
<!-- Node8&#45;&gt;Node11 -->
<g id="edge10_Node000008_Node000011" class="edge">
<title>Node8&#45;&gt;Node11</title>
<g id="a_edge10_Node000008_Node000011"><a xlink:title=" ">
<path fill="none" stroke="#63b8ff" d="M454.06,-164.99C424.84,-158.34 387.82,-147.11 358.71,-129 339.09,-116.79 321.57,-96.62 310.6,-82.29"/>
<polygon fill="#63b8ff" stroke="#63b8ff" points="313.42,-80.21 304.66,-74.24 307.79,-84.37 313.42,-80.21"/>
</a>
</g>
</g>
<!-- Node12 -->
<g id="Node000012" class="node">
<title>Node12</title>
<g id="a_Node000012"><a xlink:href="IControllerBase_8hpp.html" target="_top" xlink:title=" ">
<polygon fill="white" stroke="#666666" points="712.21,-74 545.21,-74 545.21,-55 712.21,-55 712.21,-74"/>
<text text-anchor="middle" x="628.71" y="-62" font-family="Helvetica,sans-Serif" font-size="10.00">controllers/IControllerBase.hpp</text>
</a>
</g>
</g>
<!-- Node8&#45;&gt;Node12 -->
<g id="edge12_Node000008_Node000012" class="edge">
<title>Node8&#45;&gt;Node12</title>
<g id="a_edge12_Node000008_Node000012"><a xlink:title=" ">
<path fill="none" stroke="#63b8ff" d="M503.17,-164.99C504.32,-151.64 508.39,-125.72 522.71,-110 537.09,-94.23 557.95,-83.87 577.37,-77.15"/>
<polygon fill="#63b8ff" stroke="#63b8ff" points="578.6,-80.43 587.05,-74.05 576.46,-73.77 578.6,-80.43"/>
</a>
</g>
</g>
<!-- Node13 -->
<g id="Node000013" class="node">
<title>Node13</title>
<g id="a_Node000013"><a xlink:href="SliceController_8hpp.html" target="_top" xlink:title=" ">
<polygon fill="white" stroke="#666666" points="694.21,-129 531.21,-129 531.21,-110 694.21,-110 694.21,-129"/>
<text text-anchor="middle" x="612.71" y="-117" font-family="Helvetica,sans-Serif" font-size="10.00">controllers/SliceController.hpp</text>
</a>
</g>
</g>
<!-- Node8&#45;&gt;Node13 -->
<g id="edge14_Node000008_Node000013" class="edge">
<title>Node8&#45;&gt;Node13</title>
<g id="a_edge14_Node000008_Node000013"><a xlink:title=" ">
<path fill="none" stroke="#63b8ff" d="M520.39,-164.98C538,-156.5 565.29,-143.35 585.64,-133.54"/>
<polygon fill="#63b8ff" stroke="#63b8ff" points="587.23,-136.66 594.72,-129.17 584.19,-130.36 587.23,-136.66"/>
</a>
</g>
</g>
<!-- Node14 -->
<g id="Node000014" class="node">
<title>Node14</title>
<g id="a_Node000014"><a xlink:href="SphereController_8hpp.html" target="_top" xlink:title=" ">
<polygon fill="white" stroke="#666666" points="885.21,-129 712.21,-129 712.21,-110 885.21,-110 885.21,-129"/>
<text text-anchor="middle" x="798.71" y="-117" font-family="Helvetica,sans-Serif" font-size="10.00">controllers/SphereController.hpp</text>
</a>
</g>
</g>
<!-- Node8&#45;&gt;Node14 -->
<g id="edge19_Node000008_Node000014" class="edge">
<title>Node8&#45;&gt;Node14</title>
<g id="a_edge19_Node000008_Node000014"><a xlink:title=" ">
<path fill="none" stroke="#63b8ff" d="M550.27,-164.98C602.12,-155.7 685.1,-140.84 740.73,-130.88"/>
<polygon fill="#63b8ff" stroke="#63b8ff" points="741.56,-134.29 750.78,-129.08 740.32,-127.4 741.56,-134.29"/>
</a>
</g>
</g>
<!-- Node15 -->
<g id="Node000015" class="node">
<title>Node15</title>
<g id="a_Node000015"><a xlink:href="RenderScheduler_8hpp.html" target="_top" xlink:title=" ">
<polygon fill="white" stroke="#666666" points="246.71,-129 92.71,-129 92.71,-110 246.71,-110 246.71,-129"/>
<text text-anchor="middle" x="169.71" y="-117" font-family="Helvetica,sans-Serif" font-size="10.00">render/RenderScheduler.hpp</text>
</a>
</g>
</g>
<!-- Node8&#45;&gt;Node15 -->
<g id="edge24_Node000008_Node000015" class="edge">
<title>Node8&#45;&gt;Node15</title>
<g id="a_edge24_Node000008_Node000015"><a xlink:title=" ">
<path fill="none" stroke="#63b8ff" d="M449.21,-164.98C390.43,-155.63 296.08,-140.61 233.5,-130.65"/>
<polygon fill="#63b8ff" stroke="#63b8ff" points="233.78,-127.15 223.36,-129.04 232.68,-134.07 233.78,-127.15"/>
</a>
</g>
</g>
<!-- Node12&#45;&gt;Node2 -->
<g id="edge13_Node000012_Node000002" class="edge">
<title>Node12&#45;&gt;Node2</title>
<g id="a_edge13_Node000012_Node000002"><a xlink:title=" ">
<path fill="none" stroke="#63b8ff" d="M675.95,-54.98C733.93,-44.53 831.11,-27.01 884.58,-17.37"/>
<polygon fill="#63b8ff" stroke="#63b8ff" points="885.44,-20.78 894.66,-15.56 884.2,-13.89 885.44,-20.78"/>
</a>
</g>
</g>
<!-- Node13&#45;&gt;Node3 -->
<g id="edge17_Node000013_Node000003" class="edge">
<title>Node13&#45;&gt;Node3</title>
<g id="a_edge17_Node000013_Node000003"><a xlink:title=" ">
<path fill="none" stroke="#63b8ff" d="M573.67,-109.98C526.47,-99.69 447.84,-82.54 403.26,-72.82"/>
<polygon fill="#63b8ff" stroke="#63b8ff" points="403.74,-69.34 393.23,-70.63 402.25,-76.18 403.74,-69.34"/>
</a>
</g>
</g>
<!-- Node13&#45;&gt;Node5 -->
<g id="edge16_Node000013_Node000005" class="edge">
<title>Node13&#45;&gt;Node5</title>
<g id="a_edge16_Node000013_Node000005"><a xlink:title=" ">
<path fill="none" stroke="#63b8ff" d="M666.16,-110C712.52,-102.29 781.58,-90.04 850.33,-74.15"/>
<polygon fill="#63b8ff" stroke="#63b8ff" points="851.53,-77.46 860.47,-71.78 849.94,-70.65 851.53,-77.46"/>
</a>
</g>
</g>
<!-- Node13&#45;&gt;Node10 -->
<g id="edge15_Node000013_Node000010" class="edge">
<title>Node13&#45;&gt;Node10</title>
<g id="a_edge15_Node000013_Node000010"><a xlink:title=" ">
<path fill="none" stroke="#63b8ff" d="M641.31,-109.98C671.33,-101.05 718.69,-86.94 752.03,-77.02"/>
<polygon fill="#63b8ff" stroke="#63b8ff" points="753.31,-80.29 761.89,-74.08 751.31,-73.58 753.31,-80.29"/>
</a>
</g>
</g>
<!-- Node13&#45;&gt;Node12 -->
<g id="edge18_Node000013_Node000012" class="edge">
<title>Node13&#45;&gt;Node12</title>
<g id="a_edge18_Node000013_Node000012"><a xlink:title=" ">
<path fill="none" stroke="#63b8ff" d="M615.36,-109.75C617.48,-102.72 620.53,-92.62 623.18,-83.84"/>
<polygon fill="#63b8ff" stroke="#63b8ff" points="626.58,-84.67 626.12,-74.09 619.88,-82.65 626.58,-84.67"/>
</a>
</g>
</g>
<!-- Node14&#45;&gt;Node3 -->
<g id="edge22_Node000014_Node000003" class="edge">
<title>Node14&#45;&gt;Node3</title>
<g id="a_edge22_Node000014_Node000003"><a xlink:title=" ">
<path fill="none" stroke="#63b8ff" d="M729.79,-109.98C636.52,-98.46 473.72,-78.35 403.52,-69.68"/>
<polygon fill="#63b8ff" stroke="#63b8ff" points="403.82,-66.19 393.46,-68.43 402.96,-73.13 403.82,-66.19"/>
</a>
</g>
</g>
<!-- Node14&#45;&gt;Node5 -->
<g id="edge21_Node000014_Node000005" class="edge">
<title>Node14&#45;&gt;Node5</title>
<g id="a_edge21_Node000014_Node000005"><a xlink:title=" ">
<path fill="none" stroke="#63b8ff" d="M812.05,-109.98C824.8,-101.84 844.27,-89.41 859.38,-79.76"/>
<polygon fill="#63b8ff" stroke="#63b8ff" points="861.59,-82.5 868.14,-74.17 857.82,-76.6 861.59,-82.5"/>
</a>
</g>
</g>
<!-- Node14&#45;&gt;Node10 -->
<g id="edge20_Node000014_Node000010" class="edge">
<title>Node14&#45;&gt;Node10</title>
<g id="a_edge20_Node000014_Node000010"><a xlink:title=" ">
<path fill="none" stroke="#63b8ff" d="M797.39,-109.75C796.34,-102.8 794.84,-92.85 793.53,-84.13"/>
<polygon fill="#63b8ff" stroke="#63b8ff" points="796.96,-83.45 792.01,-74.09 790.04,-84.5 796.96,-83.45"/>
</a>
</g>
</g>
<!-- Node14&#45;&gt;Node12 -->
<g id="edge23_Node000014_Node000012" class="edge">
<title>Node14&#45;&gt;Node12</title>
<g id="a_edge23_Node000014_Node000012"><a xlink:title=" ">
<path fill="none" stroke="#63b8ff" d="M771.4,-109.98C742.86,-101.09 697.89,-87.07 666.07,-77.15"/>
<polygon fill="#63b8ff" stroke="#63b8ff" points="666.83,-73.72 656.24,-74.08 664.75,-80.4 666.83,-73.72"/>
</a>
</g>
</g>
<!-- Node15&#45;&gt;Node3 -->
<g id="edge28_Node000015_Node000003" class="edge">
<title>Node15&#45;&gt;Node3</title>
<g id="a_edge28_Node000015_Node000003"><a xlink:title=" ">
<path fill="none" stroke="#63b8ff" d="M201.85,-109.98C238.69,-100.22 298.79,-84.29 336.2,-74.38"/>
<polygon fill="#63b8ff" stroke="#63b8ff" points="337.34,-77.7 346.11,-71.75 335.55,-70.93 337.34,-77.7"/>
</a>
</g>
</g>
<!-- Node15&#45;&gt;Node11 -->
<g id="edge26_Node000015_Node000011" class="edge">
<title>Node15&#45;&gt;Node11</title>
<g id="a_edge26_Node000015_Node000011"><a xlink:title=" ">
<path fill="none" stroke="#63b8ff" d="M190.44,-109.98C211.47,-101.34 244.26,-87.87 268.25,-78.02"/>
<polygon fill="#63b8ff" stroke="#63b8ff" points="269.69,-81.21 277.61,-74.17 267.03,-74.73 269.69,-81.21"/>
</a>
</g>
</g>
<!-- Node16 -->
<g id="Node000016" class="node">
<title>Node16</title>
<g id="a_Node000016"><a xlink:title=" ">
<polygon fill="#e0e0e0" stroke="#999999" points="112.21,-19 59.21,-19 59.21,0 112.21,0 112.21,-19"/>
<text text-anchor="middle" x="85.71" y="-7" font-family="Helvetica,sans-Serif" font-size="10.00">cstddef</text>
</a>
</g>
</g>
<!-- Node15&#45;&gt;Node16 -->
<g id="edge25_Node000015_Node000016" class="edge">
<title>Node15&#45;&gt;Node16</title>
<g id="a_edge25_Node000015_Node000016"><a xlink:title=" ">
<path fill="none" stroke="#63b8ff" d="M109.19,-109.99C67.59,-102.75 17.61,-90.84 4.71,-74 -12.03,-52.14 20.73,-33.59 49.46,-22.29"/>
<polygon fill="#63b8ff" stroke="#63b8ff" points="50.83,-25.51 58.97,-18.74 48.38,-18.95 50.83,-25.51"/>
</a>
</g>
</g>
<!-- Node17 -->
<g id="Node000017" class="node">
<title>Node17</title>
<g id="a_Node000017"><a xlink:title=" ">
<polygon fill="#e0e0e0" stroke="#999999" points="99.71,-74 13.71,-74 13.71,-55 99.71,-55 99.71,-74"/>
<text text-anchor="middle" x="56.71" y="-62" font-family="Helvetica,sans-Serif" font-size="10.00">unordered_set</text>
</a>
</g>
</g>
<!-- Node15&#45;&gt;Node17 -->
<g id="edge27_Node000015_Node000017" class="edge">
<title>Node15&#45;&gt;Node17</title>
<g id="a_edge27_Node000015_Node000017"><a xlink:title=" ">
<path fill="none" stroke="#63b8ff" d="M151.56,-109.98C133.46,-101.5 105.43,-88.35 84.53,-78.54"/>
<polygon fill="#63b8ff" stroke="#63b8ff" points="85.74,-75.25 75.2,-74.17 82.77,-81.59 85.74,-75.25"/>
</a>
</g>
</g>
<!-- Node18 -->
<g id="Node000018" class="node">
<title>Node18</title>
<g id="a_Node000018"><a xlink:href="RenderTypes_8hpp.html" target="_top" xlink:title=" ">
<polygon fill="white" stroke="#666666" points="251.71,-74 117.71,-74 117.71,-55 251.71,-55 251.71,-74"/>
<text text-anchor="middle" x="184.71" y="-62" font-family="Helvetica,sans-Serif" font-size="10.00">render/RenderTypes.hpp</text>
</a>
</g>
</g>
<!-- Node15&#45;&gt;Node18 -->
<g id="edge29_Node000015_Node000018" class="edge">
<title>Node15&#45;&gt;Node18</title>
<g id="a_edge29_Node000015_Node000018"><a xlink:title=" ">
<path fill="none" stroke="#63b8ff" d="M172.19,-109.75C174.18,-102.72 177.04,-92.62 179.52,-83.84"/>
<polygon fill="#63b8ff" stroke="#63b8ff" points="182.93,-84.66 182.28,-74.09 176.19,-82.76 182.93,-84.66"/>
</a>
</g>
</g>
<!-- Node18&#45;&gt;Node16 -->
<g id="edge30_Node000018_Node000016" class="edge">
<title>Node18&#45;&gt;Node16</title>
<g id="a_edge30_Node000018_Node000016"><a xlink:title=" ">
<path fill="none" stroke="#63b8ff" d="M168.81,-54.98C153.17,-46.61 129.06,-33.7 110.83,-23.95"/>
<polygon fill="#63b8ff" stroke="#63b8ff" points="112.38,-20.8 101.91,-19.17 109.07,-26.98 112.38,-20.8"/>
</a>
</g>
</g>
</g>
</svg>

<g id="navigator" transform="translate(0 0)" fill="#404254">
  <rect fill="#f2f5e9" fill-opacity="0.5" stroke="#606060" stroke-width=".5" x="0" y="0" width="60" height="60"/>
  <use id="zoomplus" xlink:href="#zoomPlus" x="17" y="9" onmousedown="handleZoom(evt,'in')"/>
  <use id="zoomminus" xlink:href="#zoomMin" x="42" y="9" onmousedown="handleZoom(evt,'out')"/>
  <use id="reset" xlink:href="#resetDef" x="30" y="36" onmousedown="handleReset()"/>
   <use id="arrowup" xlink:href="#arrowUp" x="0" y="0" onmousedown="handlePan(0,-1)"/>
  <use id="arrowright" xlink:href="#arrowRight" x="0" y="0" onmousedown="handlePan(1,0)"/>
  <use id="arrowdown" xlink:href="#arrowDown" x="0" y="0" onmousedown="handlePan(0,1)"/>
  <use id="arrowleft" xlink:href="#arrowLeft" x="0" y="0" onmousedown="handlePan(-1,0)"/>
</g>
<svg viewBox="0 0 15 15" width="100%" height="30px" preserveAspectRatio="xMaxYMin meet">
 <g id="arrow_out" transform="scale(0.3 0.3)">
  <a xlink:href="ViewportController_8hpp__incl_org.svg" target="_base">
   <rect id="button" ry="5" rx="5" y="6" x="6" height="38" width="38"
        fill="#f2f5e9" fill-opacity="0.5" stroke="#606060" stroke-width="1.0"/>
   <path id="arrow"
     d="M 11.500037,31.436501 C 11.940474,20.09759 22.043105,11.32322 32.158766,21.979434 L 37.068811,17.246167 C 37.068811,17.246167 37.088388,32 37.088388,32 L 22.160133,31.978069 C 22.160133,31.978069 26.997745,27.140456 26.997745,27.140456 C 18.528582,18.264221 13.291696,25.230495 11.500037,31.436501 z"
     style="fill:#404040;"/>
  </a>
 </g>
</svg>

<style type='text/css'>
<![CDATA[
[data-mouse-over-selected='false'] { opacity: 0.7; }
[data-mouse-over-selected='true']  { opacity: 1.0; }
]]>
</style>
<script type="application/ecmascript"><![CDATA[
document.addEventListener('DOMContentLoaded', (event) => {
  highlightEdges();
  highlightAdjacentNodes();
});
]]></script>
</svg>
