<?xml version="1.0" encoding="UTF-8" standalone="no"?>
<!DOCTYPE svg PUBLIC "-//W3C//DTD SVG 1.1//EN"
 "http://www.w3.org/Graphics/SVG/1.1/DTD/svg11.dtd">
<!-- Generated by graphviz version 2.43.0 (0)
 -->
<!-- Title: src/ui/src/ViewportLayoutTypes.cpp Pages: 1 -->
<svg width="346pt" height="203pt"
 viewBox="0.00 0.00 345.50 203.00" xmlns="http://www.w3.org/2000/svg" xmlns:xlink="http://www.w3.org/1999/xlink">
<g id="graph0" class="graph" transform="scale(1 1) rotate(0) translate(4 199)">
<title>src/ui/src/ViewportLayoutTypes.cpp</title>
<!-- Node1 -->
<g id="Node000001" class="node">
<title>Node1</title>
<g id="a_Node000001"><a xlink:title=" ">
<polygon fill="#999999" stroke="#666666" points="270,-195 130,-195 130,-165 270,-165 270,-195"/>
<text text-anchor="start" x="138" y="-183" font-family="Helvetica,sans-Serif" font-size="10.00">src/ui/src/ViewportLayout</text>
<text text-anchor="middle" x="200" y="-172" font-family="Helvetica,sans-Serif" font-size="10.00">Types.cpp</text>
</a>
</g>
</g>
<!-- Node2 -->
<g id="Node000002" class="node">
<title>Node2</title>
<g id="a_Node000002"><a xlink:href="ViewportLayoutTypes_8hpp.html" target="_top" xlink:title=" ">
<polygon fill="white" stroke="#666666" points="277,-129 123,-129 123,-110 277,-110 277,-129"/>
<text text-anchor="middle" x="200" y="-117" font-family="Helvetica,sans-Serif" font-size="10.00">ui/ViewportLayoutTypes.hpp</text>
</a>
</g>
</g>
<!-- Node1&#45;&gt;Node2 -->
<g id="edge1_Node000001_Node000002" class="edge">
<title>Node1&#45;&gt;Node2</title>
<g id="a_edge1_Node000001_Node000002"><a xlink:title=" ">
<path fill="none" stroke="#63b8ff" d="M200,-164.84C200,-157.21 200,-147.7 200,-139.45"/>
<polygon fill="#63b8ff" stroke="#63b8ff" points="203.5,-139.27 200,-129.27 196.5,-139.27 203.5,-139.27"/>
</a>
</g>
</g>
<!-- Node3 -->
<g id="Node000003" class="node">
<title>Node3</title>
<g id="a_Node000003"><a xlink:title=" ">
<polygon fill="#e0e0e0" stroke="#999999" points="42,-19 0,-19 0,0 42,0 42,-19"/>
<text text-anchor="middle" x="21" y="-7" font-family="Helvetica,sans-Serif" font-size="10.00">array</text>
</a>
</g>
</g>
<!-- Node2&#45;&gt;Node3 -->
<g id="edge2_Node000002_Node000003" class="edge">
<title>Node2&#45;&gt;Node3</title>
<g id="a_edge2_Node000002_Node000003"><a xlink:title=" ">
<path fill="none" stroke="#63b8ff" d="M122.62,-114.7C91.47,-109.25 57.64,-97.71 35,-74 23.68,-62.14 20.7,-43.31 20.24,-29.23"/>
<polygon fill="#63b8ff" stroke="#63b8ff" points="23.74,-29.2 20.3,-19.18 16.74,-29.16 23.74,-29.2"/>
</a>
</g>
</g>
<!-- Node4 -->
<g id="Node000004" class="node">
<title>Node4</title>
<g id="a_Node000004"><a xlink:title=" ">
<polygon fill="#e0e0e0" stroke="#999999" points="279,-19 235,-19 235,0 279,0 279,-19"/>
<text text-anchor="middle" x="257" y="-7" font-family="Helvetica,sans-Serif" font-size="10.00">string</text>
</a>
</g>
</g>
<!-- Node2&#45;&gt;Node4 -->
<g id="edge3_Node000002_Node000004" class="edge">
<title>Node2&#45;&gt;Node4</title>
<g id="a_edge3_Node000002_Node000004"><a xlink:title=" ">
<path fill="none" stroke="#63b8ff" d="M211.31,-109.88C221.2,-101.72 235.18,-88.58 243,-74 250.43,-60.15 253.92,-42.59 255.56,-29.44"/>
<polygon fill="#63b8ff" stroke="#63b8ff" points="259.07,-29.53 256.57,-19.23 252.1,-28.84 259.07,-29.53"/>
</a>
</g>
</g>
<!-- Node5 -->
<g id="Node000005" class="node">
<title>Node5</title>
<g id="a_Node000005"><a xlink:title=" ">
<polygon fill="#e0e0e0" stroke="#999999" points="337.5,-74 290.5,-74 290.5,-55 337.5,-55 337.5,-74"/>
<text text-anchor="middle" x="314" y="-62" font-family="Helvetica,sans-Serif" font-size="10.00">vector</text>
</a>
</g>
</g>
<!-- Node2&#45;&gt;Node5 -->
<g id="edge4_Node000002_Node000005" class="edge">
<title>Node2&#45;&gt;Node5</title>
<g id="a_edge4_Node000002_Node000005"><a xlink:title=" ">
<path fill="none" stroke="#63b8ff" d="M218.32,-109.98C236.66,-101.46 265.11,-88.23 286.23,-78.41"/>
<polygon fill="#63b8ff" stroke="#63b8ff" points="287.76,-81.56 295.35,-74.17 284.81,-75.21 287.76,-81.56"/>
</a>
</g>
</g>
<!-- Node6 -->
<g id="Node000006" class="node">
<title>Node6</title>
<g id="a_Node000006"><a xlink:href="ViewportConfig_8hpp.html" target="_top" xlink:title=" ">
<polygon fill="white" stroke="#666666" points="233.5,-74 44.5,-74 44.5,-55 233.5,-55 233.5,-74"/>
<text text-anchor="middle" x="139" y="-62" font-family="Helvetica,sans-Serif" font-size="10.00">XQVtkViewport/ViewportConfig.hpp</text>
</a>
</g>
</g>
<!-- Node2&#45;&gt;Node6 -->
<g id="edge5_Node000002_Node000006" class="edge">
<title>Node2&#45;&gt;Node6</title>
<g id="a_edge5_Node000002_Node000006"><a xlink:title=" ">
<path fill="none" stroke="#63b8ff" d="M190.2,-109.98C181.18,-102.15 167.59,-90.34 156.68,-80.86"/>
<polygon fill="#63b8ff" stroke="#63b8ff" points="158.82,-78.09 148.98,-74.17 154.23,-83.37 158.82,-78.09"/>
</a>
</g>
</g>
<!-- Node6&#45;&gt;Node3 -->
<g id="edge6_Node000006_Node000003" class="edge">
<title>Node6&#45;&gt;Node3</title>
<g id="a_edge6_Node000006_Node000003"><a xlink:title=" ">
<path fill="none" stroke="#63b8ff" d="M120.04,-54.98C100.97,-46.42 71.34,-33.11 49.45,-23.28"/>
<polygon fill="#63b8ff" stroke="#63b8ff" points="50.86,-20.07 40.3,-19.17 47.99,-26.46 50.86,-20.07"/>
</a>
</g>
</g>
<!-- Node6&#45;&gt;Node4 -->
<g id="edge7_Node000006_Node000004" class="edge">
<title>Node6&#45;&gt;Node4</title>
<g id="a_edge7_Node000006_Node000004"><a xlink:title=" ">
<path fill="none" stroke="#63b8ff" d="M157.96,-54.98C177.03,-46.42 206.66,-33.11 228.55,-23.28"/>
<polygon fill="#63b8ff" stroke="#63b8ff" points="230.01,-26.46 237.7,-19.17 227.14,-20.07 230.01,-26.46"/>
</a>
</g>
</g>
<!-- Node7 -->
<g id="Node000007" class="node">
<title>Node7</title>
<g id="a_Node000007"><a xlink:title=" ">
<polygon fill="#e0e0e0" stroke="#999999" points="213.5,-19 64.5,-19 64.5,0 213.5,0 213.5,-19"/>
<text text-anchor="middle" x="139" y="-7" font-family="Helvetica,sans-Serif" font-size="10.00">XQVtkViewport_export.hpp</text>
</a>
</g>
</g>
<!-- Node6&#45;&gt;Node7 -->
<g id="edge8_Node000006_Node000007" class="edge">
<title>Node6&#45;&gt;Node7</title>
<g id="a_edge8_Node000006_Node000007"><a xlink:title=" ">
<path fill="none" stroke="#63b8ff" d="M139,-54.75C139,-47.8 139,-37.85 139,-29.13"/>
<polygon fill="#63b8ff" stroke="#63b8ff" points="142.5,-29.09 139,-19.09 135.5,-29.09 142.5,-29.09"/>
</a>
</g>
</g>
</g>
</svg>
