<?xml version="1.0" encoding="UTF-8" standalone="no"?>
<!DOCTYPE svg PUBLIC "-//W3C//DTD SVG 1.1//EN"
 "http://www.w3.org/Graphics/SVG/1.1/DTD/svg11.dtd">
<!-- Generated by graphviz version 2.43.0 (0)
 -->
<!-- Title: lib/src/ViewportLayout.cpp Pages: 1 -->
<svg width="311pt" height="192pt"
 viewBox="0.00 0.00 311.00 192.00" xmlns="http://www.w3.org/2000/svg" xmlns:xlink="http://www.w3.org/1999/xlink">
<g id="graph0" class="graph" transform="scale(1 1) rotate(0) translate(4 188)">
<title>lib/src/ViewportLayout.cpp</title>
<!-- Node1 -->
<g id="Node000001" class="node">
<title>Node1</title>
<g id="a_Node000001"><a xlink:title=" ">
<polygon fill="#999999" stroke="#666666" points="168.5,-184 22.5,-184 22.5,-165 168.5,-165 168.5,-184"/>
<text text-anchor="middle" x="95.5" y="-172" font-family="Helvetica,sans-Serif" font-size="10.00">lib/src/ViewportLayout.cpp</text>
</a>
</g>
</g>
<!-- Node2 -->
<g id="Node000002" class="node">
<title>Node2</title>
<g id="a_Node000002"><a xlink:href="ViewportLayout_8hpp.html" target="_top" xlink:title=" ">
<polygon fill="white" stroke="#666666" points="191,-129 0,-129 0,-110 191,-110 191,-129"/>
<text text-anchor="middle" x="95.5" y="-117" font-family="Helvetica,sans-Serif" font-size="10.00">XQVtkViewport/ViewportLayout.hpp</text>
</a>
</g>
</g>
<!-- Node1&#45;&gt;Node2 -->
<g id="edge1_Node000001_Node000002" class="edge">
<title>Node1&#45;&gt;Node2</title>
<g id="a_edge1_Node000001_Node000002"><a xlink:title=" ">
<path fill="none" stroke="#63b8ff" d="M95.5,-164.75C95.5,-157.8 95.5,-147.85 95.5,-139.13"/>
<polygon fill="#63b8ff" stroke="#63b8ff" points="99,-139.09 95.5,-129.09 92,-139.09 99,-139.09"/>
</a>
</g>
</g>
<!-- Node3 -->
<g id="Node000003" class="node">
<title>Node3</title>
<g id="a_Node000003"><a xlink:title=" ">
<polygon fill="#e0e0e0" stroke="#999999" points="46.5,-19 2.5,-19 2.5,0 46.5,0 46.5,-19"/>
<text text-anchor="middle" x="24.5" y="-7" font-family="Helvetica,sans-Serif" font-size="10.00">string</text>
</a>
</g>
</g>
<!-- Node2&#45;&gt;Node3 -->
<g id="edge2_Node000002_Node000003" class="edge">
<title>Node2&#45;&gt;Node3</title>
<g id="a_edge2_Node000002_Node000003"><a xlink:title=" ">
<path fill="none" stroke="#63b8ff" d="M63.29,-109.92C45.25,-103.29 24.27,-92.09 13.5,-74 5.29,-60.21 9.74,-41.94 15.23,-28.54"/>
<polygon fill="#63b8ff" stroke="#63b8ff" points="18.44,-29.94 19.44,-19.39 12.08,-27.01 18.44,-29.94"/>
</a>
</g>
</g>
<!-- Node4 -->
<g id="Node000004" class="node">
<title>Node4</title>
<g id="a_Node000004"><a xlink:title=" ">
<polygon fill="#e0e0e0" stroke="#999999" points="70,-74 23,-74 23,-55 70,-55 70,-74"/>
<text text-anchor="middle" x="46.5" y="-62" font-family="Helvetica,sans-Serif" font-size="10.00">vector</text>
</a>
</g>
</g>
<!-- Node2&#45;&gt;Node4 -->
<g id="edge3_Node000002_Node000004" class="edge">
<title>Node2&#45;&gt;Node4</title>
<g id="a_edge3_Node000002_Node000004"><a xlink:title=" ">
<path fill="none" stroke="#63b8ff" d="M87.41,-109.75C80.34,-102.11 69.91,-90.82 61.35,-81.56"/>
<polygon fill="#63b8ff" stroke="#63b8ff" points="63.8,-79.06 54.44,-74.09 58.66,-83.81 63.8,-79.06"/>
</a>
</g>
</g>
<!-- Node5 -->
<g id="Node000005" class="node">
<title>Node5</title>
<g id="a_Node000005"><a xlink:href="ViewportConfig_8hpp.html" target="_top" xlink:title=" ">
<polygon fill="white" stroke="#666666" points="200.5,-74 88.5,-74 88.5,-55 200.5,-55 200.5,-74"/>
<text text-anchor="middle" x="144.5" y="-62" font-family="Helvetica,sans-Serif" font-size="10.00">ViewportConfig.hpp</text>
</a>
</g>
</g>
<!-- Node2&#45;&gt;Node5 -->
<g id="edge4_Node000002_Node000005" class="edge">
<title>Node2&#45;&gt;Node5</title>
<g id="a_edge4_Node000002_Node000005"><a xlink:title=" ">
<path fill="none" stroke="#63b8ff" d="M103.59,-109.75C110.66,-102.11 121.09,-90.82 129.65,-81.56"/>
<polygon fill="#63b8ff" stroke="#63b8ff" points="132.34,-83.81 136.56,-74.09 127.2,-79.06 132.34,-83.81"/>
</a>
</g>
</g>
<!-- Node7 -->
<g id="Node000007" class="node">
<title>Node7</title>
<g id="a_Node000007"><a xlink:title=" ">
<polygon fill="#e0e0e0" stroke="#999999" points="303,-19 154,-19 154,0 303,0 303,-19"/>
<text text-anchor="middle" x="228.5" y="-7" font-family="Helvetica,sans-Serif" font-size="10.00">XQVtkViewport_export.hpp</text>
</a>
</g>
</g>
<!-- Node2&#45;&gt;Node7 -->
<g id="edge8_Node000002_Node000007" class="edge">
<title>Node2&#45;&gt;Node7</title>
<g id="a_edge8_Node000002_Node000007"><a xlink:title=" ">
<path fill="none" stroke="#63b8ff" d="M143.49,-109.96C166.31,-103.6 192.29,-92.67 209.5,-74 220.71,-61.84 225.32,-43.31 227.21,-29.4"/>
<polygon fill="#63b8ff" stroke="#63b8ff" points="230.73,-29.35 228.24,-19.05 223.77,-28.65 230.73,-29.35"/>
</a>
</g>
</g>
<!-- Node5&#45;&gt;Node3 -->
<g id="edge6_Node000005_Node000003" class="edge">
<title>Node5&#45;&gt;Node3</title>
<g id="a_edge6_Node000005_Node000003"><a xlink:title=" ">
<path fill="none" stroke="#63b8ff" d="M125.22,-54.98C105.83,-46.42 75.69,-33.11 53.43,-23.28"/>
<polygon fill="#63b8ff" stroke="#63b8ff" points="54.69,-20.01 44.13,-19.17 51.86,-26.41 54.69,-20.01"/>
</a>
</g>
</g>
<!-- Node6 -->
<g id="Node000006" class="node">
<title>Node6</title>
<g id="a_Node000006"><a xlink:title=" ">
<polygon fill="#e0e0e0" stroke="#999999" points="136.5,-19 94.5,-19 94.5,0 136.5,0 136.5,-19"/>
<text text-anchor="middle" x="115.5" y="-7" font-family="Helvetica,sans-Serif" font-size="10.00">array</text>
</a>
</g>
</g>
<!-- Node5&#45;&gt;Node6 -->
<g id="edge5_Node000005_Node000006" class="edge">
<title>Node5&#45;&gt;Node6</title>
<g id="a_edge5_Node000005_Node000006"><a xlink:title=" ">
<path fill="none" stroke="#63b8ff" d="M139.71,-54.75C135.74,-47.49 129.97,-36.95 125.07,-27.98"/>
<polygon fill="#63b8ff" stroke="#63b8ff" points="128.07,-26.18 120.2,-19.09 121.93,-29.54 128.07,-26.18"/>
</a>
</g>
</g>
<!-- Node5&#45;&gt;Node7 -->
<g id="edge7_Node000005_Node000007" class="edge">
<title>Node5&#45;&gt;Node7</title>
<g id="a_edge7_Node000005_Node000007"><a xlink:title=" ">
<path fill="none" stroke="#63b8ff" d="M158,-54.98C170.9,-46.84 190.6,-34.41 205.9,-24.76"/>
<polygon fill="#63b8ff" stroke="#63b8ff" points="208.17,-27.47 214.76,-19.17 204.43,-21.55 208.17,-27.47"/>
</a>
</g>
</g>
</g>
</svg>
