<?xml version="1.0" encoding="UTF-8" standalone="no"?>
<!DOCTYPE svg PUBLIC "-//W3C//DTD SVG 1.1//EN"
 "http://www.w3.org/Graphics/SVG/1.1/DTD/svg11.dtd">
<!-- Generated by graphviz version 2.43.0 (0)
 -->
<!-- Title: lib/include/XQVtkViewport/ViewportConfig.hpp Pages: 1 -->
<svg width="2068pt" height="302pt"
 viewBox="0.00 0.00 2067.50 302.00" xmlns="http://www.w3.org/2000/svg" xmlns:xlink="http://www.w3.org/1999/xlink">
<g id="graph0" class="graph" transform="scale(1 1) rotate(0) translate(4 298)">
<title>lib/include/XQVtkViewport/ViewportConfig.hpp</title>
<!-- Node1 -->
<g id="Node000001" class="node">
<title>Node1</title>
<g id="a_Node000001"><a xlink:title=" ">
<polygon fill="#999999" stroke="#666666" points="569.5,-294 425.5,-294 425.5,-264 569.5,-264 569.5,-294"/>
<text text-anchor="start" x="433.5" y="-282" font-family="Helvetica,sans-Serif" font-size="10.00">lib/include/XQVtkViewport</text>
<text text-anchor="middle" x="497.5" y="-271" font-family="Helvetica,sans-Serif" font-size="10.00">/ViewportConfig.hpp</text>
</a>
</g>
</g>
<!-- Node2 -->
<g id="Node000002" class="node">
<title>Node2</title>
<g id="a_Node000002"><a xlink:href="RenderStatsOverlay_8hpp.html" target="_top" xlink:title=" ">
<polygon fill="white" stroke="#666666" points="245.5,-228 101.5,-228 101.5,-198 245.5,-198 245.5,-228"/>
<text text-anchor="start" x="109.5" y="-216" font-family="Helvetica,sans-Serif" font-size="10.00">lib/include/XQVtkViewport</text>
<text text-anchor="middle" x="173.5" y="-205" font-family="Helvetica,sans-Serif" font-size="10.00">/RenderStatsOverlay.hpp</text>
</a>
</g>
</g>
<!-- Node1&#45;&gt;Node2 -->
<g id="edge1_Node000001_Node000002" class="edge">
<title>Node1&#45;&gt;Node2</title>
<g id="a_edge1_Node000001_Node000002"><a xlink:title=" ">
<path fill="none" stroke="#63b8ff" d="M416.37,-261.98C363.49,-251.53 295.15,-238.03 244.44,-228.01"/>
<polygon fill="#63b8ff" stroke="#63b8ff" points="415.91,-265.45 426.4,-263.95 417.26,-258.58 415.91,-265.45"/>
</a>
</g>
</g>
<!-- Node5 -->
<g id="Node000005" class="node">
<title>Node5</title>
<g id="a_Node000005"><a xlink:href="ViewportLayout_8hpp.html" target="_top" xlink:title=" ">
<polygon fill="white" stroke="#666666" points="569.5,-228 425.5,-228 425.5,-198 569.5,-198 569.5,-228"/>
<text text-anchor="start" x="433.5" y="-216" font-family="Helvetica,sans-Serif" font-size="10.00">lib/include/XQVtkViewport</text>
<text text-anchor="middle" x="497.5" y="-205" font-family="Helvetica,sans-Serif" font-size="10.00">/ViewportLayout.hpp</text>
</a>
</g>
</g>
<!-- Node1&#45;&gt;Node5 -->
<g id="edge4_Node000001_Node000005" class="edge">
<title>Node1&#45;&gt;Node5</title>
<g id="a_edge4_Node000001_Node000005"><a xlink:title=" ">
<path fill="none" stroke="#63b8ff" d="M497.5,-253.54C497.5,-244.96 497.5,-235.61 497.5,-228.16"/>
<polygon fill="#63b8ff" stroke="#63b8ff" points="494,-253.8 497.5,-263.8 501,-253.8 494,-253.8"/>
</a>
</g>
</g>
<!-- Node8 -->
<g id="Node000008" class="node">
<title>Node8</title>
<g id="a_Node000008"><a xlink:href="ViewportManager_8hpp.html" target="_top" xlink:title=" ">
<polygon fill="white" stroke="#666666" points="407.5,-228 263.5,-228 263.5,-198 407.5,-198 407.5,-228"/>
<text text-anchor="start" x="271.5" y="-216" font-family="Helvetica,sans-Serif" font-size="10.00">lib/include/XQVtkViewport</text>
<text text-anchor="middle" x="335.5" y="-205" font-family="Helvetica,sans-Serif" font-size="10.00">/ViewportManager.hpp</text>
</a>
</g>
</g>
<!-- Node1&#45;&gt;Node8 -->
<g id="edge7_Node000001_Node000008" class="edge">
<title>Node1&#45;&gt;Node8</title>
<g id="a_edge7_Node000001_Node000008"><a xlink:title=" ">
<path fill="none" stroke="#63b8ff" d="M452.41,-260.19C426.69,-250.02 394.9,-237.47 370.97,-228.01"/>
<polygon fill="#63b8ff" stroke="#63b8ff" points="451.36,-263.54 461.95,-263.95 453.93,-257.03 451.36,-263.54"/>
</a>
</g>
</g>
<!-- Node9 -->
<g id="Node000009" class="node">
<title>Node9</title>
<g id="a_Node000009"><a xlink:href="ViewportController_8hpp.html" target="_top" xlink:title=" ">
<polygon fill="white" stroke="#666666" points="773.5,-228 587.5,-228 587.5,-198 773.5,-198 773.5,-228"/>
<text text-anchor="start" x="595.5" y="-216" font-family="Helvetica,sans-Serif" font-size="10.00">src/controllers/include</text>
<text text-anchor="middle" x="680.5" y="-205" font-family="Helvetica,sans-Serif" font-size="10.00">/controllers/ViewportController.hpp</text>
</a>
</g>
</g>
<!-- Node1&#45;&gt;Node9 -->
<g id="edge9_Node000001_Node000009" class="edge">
<title>Node1&#45;&gt;Node9</title>
<g id="a_edge9_Node000001_Node000009"><a xlink:title=" ">
<path fill="none" stroke="#63b8ff" d="M547.28,-260.59C576.54,-250.36 613.04,-237.59 640.43,-228.01"/>
<polygon fill="#63b8ff" stroke="#63b8ff" points="545.94,-257.35 537.66,-263.95 548.25,-263.96 545.94,-257.35"/>
</a>
</g>
</g>
<!-- Node13 -->
<g id="Node000013" class="node">
<title>Node13</title>
<g id="a_Node000013"><a xlink:href="ViewportLayoutTypes_8hpp.html" target="_top" xlink:title=" ">
<polygon fill="white" stroke="#666666" points="1365.5,-228 1225.5,-228 1225.5,-198 1365.5,-198 1365.5,-228"/>
<text text-anchor="start" x="1233.5" y="-216" font-family="Helvetica,sans-Serif" font-size="10.00">src/ui/include/ui/Viewport</text>
<text text-anchor="middle" x="1295.5" y="-205" font-family="Helvetica,sans-Serif" font-size="10.00">LayoutTypes.hpp</text>
</a>
</g>
</g>
<!-- Node1&#45;&gt;Node13 -->
<g id="edge15_Node000001_Node000013" class="edge">
<title>Node1&#45;&gt;Node13</title>
<g id="a_edge15_Node000001_Node000013"><a xlink:title=" ">
<path fill="none" stroke="#63b8ff" d="M579.82,-271.4C737.2,-258.78 1078.18,-231.43 1225.44,-219.62"/>
<polygon fill="#63b8ff" stroke="#63b8ff" points="579.41,-267.92 569.72,-272.21 579.97,-274.9 579.41,-267.92"/>
</a>
</g>
</g>
<!-- Node3 -->
<g id="Node000003" class="node">
<title>Node3</title>
<g id="a_Node000003"><a xlink:href="RenderStatsOverlay_8cpp.html" target="_top" xlink:title=" ">
<polygon fill="white" stroke="#666666" points="165,-156.5 0,-156.5 0,-137.5 165,-137.5 165,-156.5"/>
<text text-anchor="middle" x="82.5" y="-144.5" font-family="Helvetica,sans-Serif" font-size="10.00">lib/src/RenderStatsOverlay.cpp</text>
</a>
</g>
</g>
<!-- Node2&#45;&gt;Node3 -->
<g id="edge2_Node000002_Node000003" class="edge">
<title>Node2&#45;&gt;Node3</title>
<g id="a_edge2_Node000002_Node000003"><a xlink:title=" ">
<path fill="none" stroke="#63b8ff" d="M144.88,-191.87C128.04,-180.03 107.59,-165.65 94.81,-156.66"/>
<polygon fill="#63b8ff" stroke="#63b8ff" points="143.11,-194.91 153.3,-197.8 147.14,-189.18 143.11,-194.91"/>
</a>
</g>
</g>
<!-- Node4 -->
<g id="Node000004" class="node">
<title>Node4</title>
<g id="a_Node000004"><a xlink:href="ViewportManager_8cpp.html" target="_top" xlink:title=" ">
<polygon fill="white" stroke="#666666" points="338,-156.5 183,-156.5 183,-137.5 338,-137.5 338,-156.5"/>
<text text-anchor="middle" x="260.5" y="-144.5" font-family="Helvetica,sans-Serif" font-size="10.00">lib/src/ViewportManager.cpp</text>
</a>
</g>
</g>
<!-- Node2&#45;&gt;Node4 -->
<g id="edge3_Node000002_Node000004" class="edge">
<title>Node2&#45;&gt;Node4</title>
<g id="a_edge3_Node000002_Node000004"><a xlink:title=" ">
<path fill="none" stroke="#63b8ff" d="M201.3,-191.55C217.32,-179.76 236.62,-165.57 248.73,-156.66"/>
<polygon fill="#63b8ff" stroke="#63b8ff" points="198.79,-189.05 192.81,-197.8 202.94,-194.69 198.79,-189.05"/>
</a>
</g>
</g>
<!-- Node6 -->
<g id="Node000006" class="node">
<title>Node6</title>
<g id="a_Node000006"><a xlink:href="ViewportLayout_8cpp.html" target="_top" xlink:title=" ">
<polygon fill="white" stroke="#666666" points="502.5,-156.5 356.5,-156.5 356.5,-137.5 502.5,-137.5 502.5,-156.5"/>
<text text-anchor="middle" x="429.5" y="-144.5" font-family="Helvetica,sans-Serif" font-size="10.00">lib/src/ViewportLayout.cpp</text>
</a>
</g>
</g>
<!-- Node5&#45;&gt;Node6 -->
<g id="edge5_Node000005_Node000006" class="edge">
<title>Node5&#45;&gt;Node6</title>
<g id="a_edge5_Node000005_Node000006"><a xlink:title=" ">
<path fill="none" stroke="#63b8ff" d="M475.12,-190.93C462.81,-179.35 448.21,-165.61 438.9,-156.84"/>
<polygon fill="#63b8ff" stroke="#63b8ff" points="472.73,-193.49 482.41,-197.8 477.53,-188.39 472.73,-193.49"/>
</a>
</g>
</g>
<!-- Node7 -->
<g id="Node000007" class="node">
<title>Node7</title>
<g id="a_Node000007"><a xlink:href="ViewportController_8cpp.html" target="_top" xlink:title=" ">
<polygon fill="white" stroke="#666666" points="652,-162 521,-162 521,-132 652,-132 652,-162"/>
<text text-anchor="start" x="529" y="-150" font-family="Helvetica,sans-Serif" font-size="10.00">src/controllers/src</text>
<text text-anchor="middle" x="586.5" y="-139" font-family="Helvetica,sans-Serif" font-size="10.00">/ViewportController.cpp</text>
</a>
</g>
</g>
<!-- Node5&#45;&gt;Node7 -->
<g id="edge6_Node000005_Node000007" class="edge">
<title>Node5&#45;&gt;Node7</title>
<g id="a_edge6_Node000005_Node000007"><a xlink:title=" ">
<path fill="none" stroke="#63b8ff" d="M525.66,-191.75C539.04,-182.13 554.72,-170.86 566.8,-162.16"/>
<polygon fill="#63b8ff" stroke="#63b8ff" points="523.33,-189.12 517.25,-197.8 527.41,-194.8 523.33,-189.12"/>
</a>
</g>
</g>
<!-- Node8&#45;&gt;Node4 -->
<g id="edge8_Node000008_Node000004" class="edge">
<title>Node8&#45;&gt;Node4</title>
<g id="a_edge8_Node000008_Node000004"><a xlink:title=" ">
<path fill="none" stroke="#63b8ff" d="M311.19,-191.26C297.55,-179.61 281.23,-165.69 270.86,-156.84"/>
<polygon fill="#63b8ff" stroke="#63b8ff" points="308.98,-193.97 318.86,-197.8 313.52,-188.64 308.98,-193.97"/>
</a>
</g>
</g>
<!-- Node9&#45;&gt;Node7 -->
<g id="edge10_Node000009_Node000007" class="edge">
<title>Node9&#45;&gt;Node7</title>
<g id="a_edge10_Node000009_Node000007"><a xlink:title=" ">
<path fill="none" stroke="#63b8ff" d="M651.17,-192.03C636.94,-182.34 620.19,-170.94 607.3,-162.16"/>
<polygon fill="#63b8ff" stroke="#63b8ff" points="649.4,-195.06 659.64,-197.8 653.34,-189.28 649.4,-195.06"/>
</a>
</g>
</g>
<!-- Node10 -->
<g id="Node000010" class="node">
<title>Node10</title>
<g id="a_Node000010"><a xlink:href="ViewportView_8hpp.html" target="_top" xlink:title=" ">
<polygon fill="white" stroke="#666666" points="905.5,-96 765.5,-96 765.5,-66 905.5,-66 905.5,-96"/>
<text text-anchor="start" x="773.5" y="-84" font-family="Helvetica,sans-Serif" font-size="10.00">src/ui/include/ui/Viewport</text>
<text text-anchor="middle" x="835.5" y="-73" font-family="Helvetica,sans-Serif" font-size="10.00">View.hpp</text>
</a>
</g>
</g>
<!-- Node9&#45;&gt;Node10 -->
<g id="edge11_Node000009_Node000010" class="edge">
<title>Node9&#45;&gt;Node10</title>
<g id="a_edge11_Node000009_Node000010"><a xlink:title=" ">
<path fill="none" stroke="#63b8ff" d="M705.33,-191.18C737.1,-164.53 791.28,-119.09 818.64,-96.14"/>
<polygon fill="#63b8ff" stroke="#63b8ff" points="702.8,-188.73 697.38,-197.84 707.29,-194.1 702.8,-188.73"/>
</a>
</g>
</g>
<!-- Node12 -->
<g id="Node000012" class="node">
<title>Node12</title>
<g id="a_Node000012"><a xlink:href="ViewportView_8cpp.html" target="_top" xlink:title=" ">
<polygon fill="white" stroke="#666666" points="812.5,-24.5 662.5,-24.5 662.5,-5.5 812.5,-5.5 812.5,-24.5"/>
<text text-anchor="middle" x="737.5" y="-12.5" font-family="Helvetica,sans-Serif" font-size="10.00">src/ui/src/ViewportView.cpp</text>
</a>
</g>
</g>
<!-- Node9&#45;&gt;Node12 -->
<g id="edge14_Node000009_Node000012" class="edge">
<title>Node9&#45;&gt;Node12</title>
<g id="a_edge14_Node000009_Node000012"><a xlink:title=" ">
<path fill="none" stroke="#63b8ff" d="M687.45,-188.11C700.17,-144.36 726.67,-53.24 734.96,-24.73"/>
<polygon fill="#63b8ff" stroke="#63b8ff" points="684.03,-187.32 684.6,-197.9 690.75,-189.28 684.03,-187.32"/>
</a>
</g>
</g>
<!-- Node11 -->
<g id="Node000011" class="node">
<title>Node11</title>
<g id="a_Node000011"><a xlink:href="MainWindow_8cpp.html" target="_top" xlink:title=" ">
<polygon fill="white" stroke="#666666" points="1408.5,-24.5 1262.5,-24.5 1262.5,-5.5 1408.5,-5.5 1408.5,-24.5"/>
<text text-anchor="middle" x="1335.5" y="-12.5" font-family="Helvetica,sans-Serif" font-size="10.00">src/ui/src/MainWindow.cpp</text>
</a>
</g>
</g>
<!-- Node10&#45;&gt;Node11 -->
<g id="edge12_Node000010_Node000011" class="edge">
<title>Node10&#45;&gt;Node11</title>
<g id="a_edge12_Node000010_Node000011"><a xlink:title=" ">
<path fill="none" stroke="#63b8ff" d="M915.89,-70.24C996.5,-60.38 1124.15,-44.56 1234.5,-30 1247.57,-28.27 1261.59,-26.37 1274.9,-24.53"/>
<polygon fill="#63b8ff" stroke="#63b8ff" points="915.31,-66.78 905.81,-71.47 916.16,-73.73 915.31,-66.78"/>
</a>
</g>
</g>
<!-- Node10&#45;&gt;Node12 -->
<g id="edge13_Node000010_Node000012" class="edge">
<title>Node10&#45;&gt;Node12</title>
<g id="a_edge13_Node000010_Node000012"><a xlink:title=" ">
<path fill="none" stroke="#63b8ff" d="M805.18,-60.2C786.94,-48.29 764.65,-33.73 750.76,-24.66"/>
<polygon fill="#63b8ff" stroke="#63b8ff" points="803.46,-63.26 813.75,-65.8 807.29,-57.4 803.46,-63.26"/>
</a>
</g>
</g>
<!-- Node13&#45;&gt;Node11 -->
<g id="edge35_Node000013_Node000011" class="edge">
<title>Node13&#45;&gt;Node11</title>
<g id="a_edge35_Node000013_Node000011"><a xlink:title=" ">
<path fill="none" stroke="#63b8ff" d="M1376.1,-209.57C1517.92,-204.57 1800.39,-191.06 1834.5,-162 1857.56,-142.36 1847.69,-126.05 1851.5,-96 1853.18,-82.77 1860.46,-75.87 1851.5,-66 1822.31,-33.85 1543.85,-21.76 1408.57,-17.75"/>
<polygon fill="#63b8ff" stroke="#63b8ff" points="1375.6,-206.09 1365.72,-209.93 1375.84,-213.08 1375.6,-206.09"/>
</a>
</g>
</g>
<!-- Node13&#45;&gt;Node12 -->
<g id="edge38_Node000013_Node000012" class="edge">
<title>Node13&#45;&gt;Node12</title>
<g id="a_edge38_Node000013_Node000012"><a xlink:title=" ">
<path fill="none" stroke="#63b8ff" d="M1215.2,-205.92C1080.39,-193.96 817.3,-162.54 756.5,-96 738.01,-75.77 736.57,-40.88 737,-24.71"/>
<polygon fill="#63b8ff" stroke="#63b8ff" points="1215.2,-209.43 1225.47,-206.81 1215.81,-202.46 1215.2,-209.43"/>
</a>
</g>
</g>
<!-- Node14 -->
<g id="Node000014" class="node">
<title>Node14</title>
<g id="a_Node000014"><a xlink:href="OverlayLayoutAdapter_8hpp.html" target="_top" xlink:title=" ">
<polygon fill="white" stroke="#666666" points="1456,-162 1261,-162 1261,-132 1456,-132 1456,-162"/>
<text text-anchor="start" x="1269" y="-150" font-family="Helvetica,sans-Serif" font-size="10.00">src/adapters/include</text>
<text text-anchor="middle" x="1358.5" y="-139" font-family="Helvetica,sans-Serif" font-size="10.00">/adapters/OverlayLayoutAdapter.hpp</text>
</a>
</g>
</g>
<!-- Node13&#45;&gt;Node14 -->
<g id="edge16_Node000013_Node000014" class="edge">
<title>Node13&#45;&gt;Node14</title>
<g id="a_edge16_Node000013_Node000014"><a xlink:title=" ">
<path fill="none" stroke="#63b8ff" d="M1316.52,-190.65C1325.75,-181.27 1336.33,-170.53 1344.56,-162.16"/>
<polygon fill="#63b8ff" stroke="#63b8ff" points="1314,-188.21 1309.48,-197.8 1318.99,-193.13 1314,-188.21"/>
</a>
</g>
</g>
<!-- Node16 -->
<g id="Node000016" class="node">
<title>Node16</title>
<g id="a_Node000016"><a xlink:href="ViewportLayoutManager_8hpp.html" target="_top" xlink:title=" ">
<polygon fill="white" stroke="#666666" points="1317.5,-96 1177.5,-96 1177.5,-66 1317.5,-66 1317.5,-96"/>
<text text-anchor="start" x="1185.5" y="-84" font-family="Helvetica,sans-Serif" font-size="10.00">src/ui/include/ui/Viewport</text>
<text text-anchor="middle" x="1247.5" y="-73" font-family="Helvetica,sans-Serif" font-size="10.00">LayoutManager.hpp</text>
</a>
</g>
</g>
<!-- Node13&#45;&gt;Node16 -->
<g id="edge31_Node000013_Node000016" class="edge">
<title>Node13&#45;&gt;Node16</title>
<g id="a_edge31_Node000013_Node000016"><a xlink:title=" ">
<path fill="none" stroke="#63b8ff" d="M1270.66,-190.25C1263.14,-182.19 1255.74,-172.45 1251.5,-162 1242.71,-140.35 1243.73,-112.67 1245.48,-96.19"/>
<polygon fill="#63b8ff" stroke="#63b8ff" points="1268.58,-193.11 1278.13,-197.71 1273.53,-188.16 1268.58,-193.11"/>
</a>
</g>
</g>
<!-- Node18 -->
<g id="Node000018" class="node">
<title>Node18</title>
<g id="a_Node000018"><a xlink:href="ILayoutTarget_8hpp.html" target="_top" xlink:title=" ">
<polygon fill="white" stroke="#666666" points="1119.5,-162 987.5,-162 987.5,-132 1119.5,-132 1119.5,-162"/>
<text text-anchor="start" x="995.5" y="-150" font-family="Helvetica,sans-Serif" font-size="10.00">src/ui/include/ui/ILayout</text>
<text text-anchor="middle" x="1053.5" y="-139" font-family="Helvetica,sans-Serif" font-size="10.00">Target.hpp</text>
</a>
</g>
</g>
<!-- Node13&#45;&gt;Node18 -->
<g id="edge22_Node000013_Node000018" class="edge">
<title>Node13&#45;&gt;Node18</title>
<g id="a_edge22_Node000013_Node000018"><a xlink:title=" ">
<path fill="none" stroke="#63b8ff" d="M1232.68,-195.39C1193.5,-185.03 1143.65,-171.84 1106.48,-162.01"/>
<polygon fill="#63b8ff" stroke="#63b8ff" points="1231.83,-198.78 1242.39,-197.95 1233.62,-192.01 1231.83,-198.78"/>
</a>
</g>
</g>
<!-- Node20 -->
<g id="Node000020" class="node">
<title>Node20</title>
<g id="a_Node000020"><a xlink:href="MultiWindowView_8cpp.html" target="_top" xlink:title=" ">
<polygon fill="white" stroke="#666666" points="1028.5,-24.5 858.5,-24.5 858.5,-5.5 1028.5,-5.5 1028.5,-24.5"/>
<text text-anchor="middle" x="943.5" y="-12.5" font-family="Helvetica,sans-Serif" font-size="10.00">src/ui/src/MultiWindowView.cpp</text>
</a>
</g>
</g>
<!-- Node13&#45;&gt;Node20 -->
<g id="edge36_Node000013_Node000020" class="edge">
<title>Node13&#45;&gt;Node20</title>
<g id="a_edge36_Node000013_Node000020"><a xlink:title=" ">
<path fill="none" stroke="#63b8ff" d="M1215.34,-209.29C1132.94,-204.83 1012.08,-193.04 978.5,-162 938.3,-124.85 940.5,-50.4 942.59,-24.85"/>
<polygon fill="#63b8ff" stroke="#63b8ff" points="1215.27,-212.8 1225.44,-209.82 1215.63,-205.81 1215.27,-212.8"/>
</a>
</g>
</g>
<!-- Node21 -->
<g id="Node000021" class="node">
<title>Node21</title>
<g id="a_Node000021"><a xlink:href="ViewportLayoutItem_8hpp.html" target="_top" xlink:title=" ">
<polygon fill="white" stroke="#666666" points="1667.5,-162 1527.5,-162 1527.5,-132 1667.5,-132 1667.5,-162"/>
<text text-anchor="start" x="1535.5" y="-150" font-family="Helvetica,sans-Serif" font-size="10.00">src/ui/include/ui/Viewport</text>
<text text-anchor="middle" x="1597.5" y="-139" font-family="Helvetica,sans-Serif" font-size="10.00">LayoutItem.hpp</text>
</a>
</g>
</g>
<!-- Node13&#45;&gt;Node21 -->
<g id="edge28_Node000013_Node000021" class="edge">
<title>Node13&#45;&gt;Node21</title>
<g id="a_edge28_Node000013_Node000021"><a xlink:title=" ">
<path fill="none" stroke="#63b8ff" d="M1371.73,-195.84C1420.94,-185.42 1484.31,-171.99 1531.38,-162.01"/>
<polygon fill="#63b8ff" stroke="#63b8ff" points="1370.83,-192.46 1361.78,-197.95 1372.28,-199.31 1370.83,-192.46"/>
</a>
</g>
</g>
<!-- Node24 -->
<g id="Node000024" class="node">
<title>Node24</title>
<g id="a_Node000024"><a xlink:href="ViewportLayoutSelector_8hpp.html" target="_top" xlink:title=" ">
<polygon fill="white" stroke="#666666" points="1825.5,-162 1685.5,-162 1685.5,-132 1825.5,-132 1825.5,-162"/>
<text text-anchor="start" x="1693.5" y="-150" font-family="Helvetica,sans-Serif" font-size="10.00">src/ui/include/ui/Viewport</text>
<text text-anchor="middle" x="1755.5" y="-139" font-family="Helvetica,sans-Serif" font-size="10.00">LayoutSelector.hpp</text>
</a>
</g>
</g>
<!-- Node13&#45;&gt;Node24 -->
<g id="edge32_Node000013_Node000024" class="edge">
<title>Node13&#45;&gt;Node24</title>
<g id="a_edge32_Node000013_Node000024"><a xlink:title=" ">
<path fill="none" stroke="#63b8ff" d="M1375.64,-202.54C1452.84,-193.18 1572.86,-177.98 1676.5,-162 1679.39,-161.55 1682.34,-161.09 1685.32,-160.61"/>
<polygon fill="#63b8ff" stroke="#63b8ff" points="1375.01,-199.09 1365.51,-203.77 1375.85,-206.04 1375.01,-199.09"/>
</a>
</g>
</g>
<!-- Node25 -->
<g id="Node000025" class="node">
<title>Node25</title>
<g id="a_Node000025"><a xlink:href="ViewportLayoutTypes_8cpp.html" target="_top" xlink:title=" ">
<polygon fill="white" stroke="#666666" points="2059.5,-162 1919.5,-162 1919.5,-132 2059.5,-132 2059.5,-162"/>
<text text-anchor="start" x="1927.5" y="-150" font-family="Helvetica,sans-Serif" font-size="10.00">src/ui/src/ViewportLayout</text>
<text text-anchor="middle" x="1989.5" y="-139" font-family="Helvetica,sans-Serif" font-size="10.00">Types.cpp</text>
</a>
</g>
</g>
<!-- Node13&#45;&gt;Node25 -->
<g id="edge37_Node000013_Node000025" class="edge">
<title>Node13&#45;&gt;Node25</title>
<g id="a_edge37_Node000013_Node000025"><a xlink:title=" ">
<path fill="none" stroke="#63b8ff" d="M1375.97,-207.55C1492.88,-200.59 1716.39,-185.47 1905.5,-162 1910.05,-161.44 1914.73,-160.8 1919.44,-160.13"/>
<polygon fill="#63b8ff" stroke="#63b8ff" points="1375.46,-204.07 1365.68,-208.15 1375.87,-211.06 1375.46,-204.07"/>
</a>
</g>
</g>
<!-- Node14&#45;&gt;Node11 -->
<g id="edge21_Node000014_Node000011" class="edge">
<title>Node14&#45;&gt;Node11</title>
<g id="a_edge21_Node000014_Node000011"><a xlink:title=" ">
<path fill="none" stroke="#63b8ff" d="M1354.25,-121.96C1349.05,-92.59 1340.52,-44.39 1337.05,-24.75"/>
<polygon fill="#63b8ff" stroke="#63b8ff" points="1350.81,-122.6 1355.99,-131.84 1357.7,-121.38 1350.81,-122.6"/>
</a>
</g>
</g>
<!-- Node15 -->
<g id="Node000015" class="node">
<title>Node15</title>
<g id="a_Node000015"><a xlink:href="OverlayLayoutAdapter_8cpp.html" target="_top" xlink:title=" ">
<polygon fill="white" stroke="#666666" points="1509,-96 1374,-96 1374,-66 1509,-66 1509,-96"/>
<text text-anchor="start" x="1382" y="-84" font-family="Helvetica,sans-Serif" font-size="10.00">src/adapters/src/Overlay</text>
<text text-anchor="middle" x="1441.5" y="-73" font-family="Helvetica,sans-Serif" font-size="10.00">LayoutAdapter.cpp</text>
</a>
</g>
</g>
<!-- Node14&#45;&gt;Node15 -->
<g id="edge17_Node000014_Node000015" class="edge">
<title>Node14&#45;&gt;Node15</title>
<g id="a_edge17_Node000014_Node000015"><a xlink:title=" ">
<path fill="none" stroke="#63b8ff" d="M1385.11,-125.48C1397.52,-115.91 1411.97,-104.77 1423.13,-96.16"/>
<polygon fill="#63b8ff" stroke="#63b8ff" points="1382.7,-122.92 1376.92,-131.8 1386.98,-128.46 1382.7,-122.92"/>
</a>
</g>
</g>
<!-- Node14&#45;&gt;Node16 -->
<g id="edge18_Node000014_Node000016" class="edge">
<title>Node14&#45;&gt;Node16</title>
<g id="a_edge18_Node000014_Node000016"><a xlink:title=" ">
<path fill="none" stroke="#63b8ff" d="M1325.02,-126.69C1307.88,-116.82 1287.41,-105.01 1271.8,-96.01"/>
<polygon fill="#63b8ff" stroke="#63b8ff" points="1323.73,-129.99 1334.14,-131.95 1327.23,-123.93 1323.73,-129.99"/>
</a>
</g>
</g>
<!-- Node16&#45;&gt;Node11 -->
<g id="edge19_Node000016_Node000011" class="edge">
<title>Node16&#45;&gt;Node11</title>
<g id="a_edge19_Node000016_Node000011"><a xlink:title=" ">
<path fill="none" stroke="#63b8ff" d="M1275.17,-59.87C1291.46,-48.03 1311.23,-33.65 1323.59,-24.66"/>
<polygon fill="#63b8ff" stroke="#63b8ff" points="1273.06,-57.08 1267.03,-65.8 1277.18,-62.75 1273.06,-57.08"/>
</a>
</g>
</g>
<!-- Node17 -->
<g id="Node000017" class="node">
<title>Node17</title>
<g id="a_Node000017"><a xlink:href="ViewportLayoutManager_8cpp.html" target="_top" xlink:title=" ">
<polygon fill="white" stroke="#666666" points="1225.5,-30 1085.5,-30 1085.5,0 1225.5,0 1225.5,-30"/>
<text text-anchor="start" x="1093.5" y="-18" font-family="Helvetica,sans-Serif" font-size="10.00">src/ui/src/ViewportLayout</text>
<text text-anchor="middle" x="1155.5" y="-7" font-family="Helvetica,sans-Serif" font-size="10.00">Manager.cpp</text>
</a>
</g>
</g>
<!-- Node16&#45;&gt;Node17 -->
<g id="edge20_Node000016_Node000017" class="edge">
<title>Node16&#45;&gt;Node17</title>
<g id="a_edge20_Node000016_Node000017"><a xlink:title=" ">
<path fill="none" stroke="#63b8ff" d="M1218.79,-60.03C1204.87,-50.34 1188.47,-38.94 1175.86,-30.16"/>
<polygon fill="#63b8ff" stroke="#63b8ff" points="1216.87,-62.96 1227.08,-65.8 1220.87,-57.21 1216.87,-62.96"/>
</a>
</g>
</g>
<!-- Node18&#45;&gt;Node10 -->
<g id="edge26_Node000018_Node000010" class="edge">
<title>Node18&#45;&gt;Node10</title>
<g id="a_edge26_Node000018_Node000010"><a xlink:title=" ">
<path fill="none" stroke="#63b8ff" d="M996.01,-129.12C960.86,-118.8 916.43,-105.76 883.23,-96.01"/>
<polygon fill="#63b8ff" stroke="#63b8ff" points="995.08,-132.5 1005.66,-131.95 997.05,-125.78 995.08,-132.5"/>
</a>
</g>
</g>
<!-- Node18&#45;&gt;Node17 -->
<g id="edge27_Node000018_Node000017" class="edge">
<title>Node18&#45;&gt;Node17</title>
<g id="a_edge27_Node000018_Node000017"><a xlink:title=" ">
<path fill="none" stroke="#63b8ff" d="M1020.22,-125.97C997.87,-109.93 975.09,-86.77 990.5,-66 1012.26,-36.67 1050.75,-23.94 1085.09,-18.65"/>
<polygon fill="#63b8ff" stroke="#63b8ff" points="1018.46,-129 1028.69,-131.74 1022.4,-123.21 1018.46,-129"/>
</a>
</g>
</g>
<!-- Node19 -->
<g id="Node000019" class="node">
<title>Node19</title>
<g id="a_Node000019"><a xlink:href="MultiWindowView_8hpp.html" target="_top" xlink:title=" ">
<polygon fill="white" stroke="#666666" points="1159.5,-96 999.5,-96 999.5,-66 1159.5,-66 1159.5,-96"/>
<text text-anchor="start" x="1007.5" y="-84" font-family="Helvetica,sans-Serif" font-size="10.00">src/ui/include/ui/MultiWindow</text>
<text text-anchor="middle" x="1079.5" y="-73" font-family="Helvetica,sans-Serif" font-size="10.00">View.hpp</text>
</a>
</g>
</g>
<!-- Node18&#45;&gt;Node19 -->
<g id="edge23_Node000018_Node000019" class="edge">
<title>Node18&#45;&gt;Node19</title>
<g id="a_edge23_Node000018_Node000019"><a xlink:title=" ">
<path fill="none" stroke="#63b8ff" d="M1063.09,-122.39C1066.67,-113.59 1070.62,-103.86 1073.75,-96.16"/>
<polygon fill="#63b8ff" stroke="#63b8ff" points="1059.79,-121.21 1059.27,-131.8 1066.28,-123.85 1059.79,-121.21"/>
</a>
</g>
</g>
<!-- Node19&#45;&gt;Node11 -->
<g id="edge24_Node000019_Node000011" class="edge">
<title>Node19&#45;&gt;Node11</title>
<g id="a_edge24_Node000019_Node000011"><a xlink:title=" ">
<path fill="none" stroke="#63b8ff" d="M1145.42,-63.52C1195.29,-51.05 1261.75,-34.44 1301.43,-24.52"/>
<polygon fill="#63b8ff" stroke="#63b8ff" points="1144.53,-60.13 1135.68,-65.95 1146.23,-66.92 1144.53,-60.13"/>
</a>
</g>
</g>
<!-- Node19&#45;&gt;Node20 -->
<g id="edge25_Node000019_Node000020" class="edge">
<title>Node19&#45;&gt;Node20</title>
<g id="a_edge25_Node000019_Node000020"><a xlink:title=" ">
<path fill="none" stroke="#63b8ff" d="M1040.44,-61.62C1014.49,-49.41 981.62,-33.94 961.6,-24.52"/>
<polygon fill="#63b8ff" stroke="#63b8ff" points="1039.12,-64.86 1049.65,-65.95 1042.1,-58.53 1039.12,-64.86"/>
</a>
</g>
</g>
<!-- Node22 -->
<g id="Node000022" class="node">
<title>Node22</title>
<g id="a_Node000022"><a xlink:href="ViewportLayoutItem_8cpp.html" target="_top" xlink:title=" ">
<polygon fill="white" stroke="#666666" points="1667.5,-96 1527.5,-96 1527.5,-66 1667.5,-66 1667.5,-96"/>
<text text-anchor="start" x="1535.5" y="-84" font-family="Helvetica,sans-Serif" font-size="10.00">src/ui/src/ViewportLayout</text>
<text text-anchor="middle" x="1597.5" y="-73" font-family="Helvetica,sans-Serif" font-size="10.00">Item.cpp</text>
</a>
</g>
</g>
<!-- Node21&#45;&gt;Node22 -->
<g id="edge29_Node000021_Node000022" class="edge">
<title>Node21&#45;&gt;Node22</title>
<g id="a_edge29_Node000021_Node000022"><a xlink:title=" ">
<path fill="none" stroke="#63b8ff" d="M1597.5,-121.54C1597.5,-112.96 1597.5,-103.61 1597.5,-96.16"/>
<polygon fill="#63b8ff" stroke="#63b8ff" points="1594,-121.8 1597.5,-131.8 1601,-121.8 1594,-121.8"/>
</a>
</g>
</g>
<!-- Node23 -->
<g id="Node000023" class="node">
<title>Node23</title>
<g id="a_Node000023"><a xlink:href="ViewportLayoutSelector_8cpp.html" target="_top" xlink:title=" ">
<polygon fill="white" stroke="#666666" points="1825.5,-96 1685.5,-96 1685.5,-66 1825.5,-66 1825.5,-96"/>
<text text-anchor="start" x="1693.5" y="-84" font-family="Helvetica,sans-Serif" font-size="10.00">src/ui/src/ViewportLayout</text>
<text text-anchor="middle" x="1755.5" y="-73" font-family="Helvetica,sans-Serif" font-size="10.00">Selector.cpp</text>
</a>
</g>
</g>
<!-- Node21&#45;&gt;Node23 -->
<g id="edge30_Node000021_Node000023" class="edge">
<title>Node21&#45;&gt;Node23</title>
<g id="a_edge30_Node000021_Node000023"><a xlink:title=" ">
<path fill="none" stroke="#63b8ff" d="M1641.47,-128.19C1666.56,-118.02 1697.57,-105.47 1720.91,-96.01"/>
<polygon fill="#63b8ff" stroke="#63b8ff" points="1640.13,-124.96 1632.17,-131.95 1642.76,-131.44 1640.13,-124.96"/>
</a>
</g>
</g>
<!-- Node24&#45;&gt;Node11 -->
<g id="edge33_Node000024_Node000011" class="edge">
<title>Node24&#45;&gt;Node11</title>
<g id="a_edge33_Node000024_Node000011"><a xlink:title=" ">
<path fill="none" stroke="#63b8ff" d="M1795.66,-127.02C1824.1,-111.09 1854,-87.55 1834.5,-66 1806.5,-35.05 1540.49,-22.41 1408.73,-18.02"/>
<polygon fill="#63b8ff" stroke="#63b8ff" points="1793.7,-124.1 1786.54,-131.91 1797.01,-130.27 1793.7,-124.1"/>
</a>
</g>
</g>
<!-- Node24&#45;&gt;Node23 -->
<g id="edge34_Node000024_Node000023" class="edge">
<title>Node24&#45;&gt;Node23</title>
<g id="a_edge34_Node000024_Node000023"><a xlink:title=" ">
<path fill="none" stroke="#63b8ff" d="M1755.5,-121.54C1755.5,-112.96 1755.5,-103.61 1755.5,-96.16"/>
<polygon fill="#63b8ff" stroke="#63b8ff" points="1752,-121.8 1755.5,-131.8 1759,-121.8 1752,-121.8"/>
</a>
</g>
</g>
</g>
</svg>
