<?xml version="1.0" encoding="UTF-8" standalone="no"?>
<!DOCTYPE svg PUBLIC "-//W3C//DTD SVG 1.1//EN"
 "http://www.w3.org/Graphics/SVG/1.1/DTD/svg11.dtd">
<!-- Generated by graphviz version 2.43.0 (0)
 -->
<!-- Title: src/ui/include/ui/ViewportLayoutTypes.hpp Pages: 1 -->
<svg width="1340pt" height="236pt"
 viewBox="0.00 0.00 1340.00 236.00" xmlns="http://www.w3.org/2000/svg" xmlns:xlink="http://www.w3.org/1999/xlink">
<g id="graph0" class="graph" transform="scale(1 1) rotate(0) translate(4 232)">
<title>src/ui/include/ui/ViewportLayoutTypes.hpp</title>
<!-- Node1 -->
<g id="Node000001" class="node">
<title>Node1</title>
<g id="a_Node000001"><a xlink:title=" ">
<polygon fill="#999999" stroke="#666666" points="842,-228 702,-228 702,-198 842,-198 842,-228"/>
<text text-anchor="start" x="710" y="-216" font-family="Helvetica,sans-Serif" font-size="10.00">src/ui/include/ui/Viewport</text>
<text text-anchor="middle" x="772" y="-205" font-family="Helvetica,sans-Serif" font-size="10.00">LayoutTypes.hpp</text>
</a>
</g>
</g>
<!-- Node2 -->
<g id="Node000002" class="node">
<title>Node2</title>
<g id="a_Node000002"><a xlink:href="OverlayLayoutAdapter_8hpp.html" target="_top" xlink:title=" ">
<polygon fill="white" stroke="#666666" points="328.5,-162 133.5,-162 133.5,-132 328.5,-132 328.5,-162"/>
<text text-anchor="start" x="141.5" y="-150" font-family="Helvetica,sans-Serif" font-size="10.00">src/adapters/include</text>
<text text-anchor="middle" x="231" y="-139" font-family="Helvetica,sans-Serif" font-size="10.00">/adapters/OverlayLayoutAdapter.hpp</text>
</a>
</g>
</g>
<!-- Node1&#45;&gt;Node2 -->
<g id="edge1_Node000001_Node000002" class="edge">
<title>Node1&#45;&gt;Node2</title>
<g id="a_edge1_Node000001_Node000002"><a xlink:title=" ">
<path fill="none" stroke="#63b8ff" d="M691.71,-202.68C606.06,-192.72 466.43,-176.4 346,-162 340.31,-161.32 334.46,-160.62 328.56,-159.91"/>
<polygon fill="#63b8ff" stroke="#63b8ff" points="691.55,-206.19 701.88,-203.86 692.36,-199.23 691.55,-206.19"/>
</a>
</g>
</g>
<!-- Node4 -->
<g id="Node000004" class="node">
<title>Node4</title>
<g id="a_Node000004"><a xlink:href="ViewportLayoutManager_8hpp.html" target="_top" xlink:title=" ">
<polygon fill="white" stroke="#666666" points="140,-96 0,-96 0,-66 140,-66 140,-96"/>
<text text-anchor="start" x="8" y="-84" font-family="Helvetica,sans-Serif" font-size="10.00">src/ui/include/ui/Viewport</text>
<text text-anchor="middle" x="70" y="-73" font-family="Helvetica,sans-Serif" font-size="10.00">LayoutManager.hpp</text>
</a>
</g>
</g>
<!-- Node1&#45;&gt;Node4 -->
<g id="edge18_Node000001_Node000004" class="edge">
<title>Node1&#45;&gt;Node4</title>
<g id="a_edge18_Node000001_Node000004"><a xlink:title=" ">
<path fill="none" stroke="#63b8ff" d="M691.47,-209.69C528.71,-204.45 171.95,-189.91 124,-162 98.51,-147.17 82.55,-114.92 75.06,-96.21"/>
<polygon fill="#63b8ff" stroke="#63b8ff" points="691.8,-213.2 701.91,-210.02 692.02,-206.2 691.8,-213.2"/>
</a>
</g>
</g>
<!-- Node5 -->
<g id="Node000005" class="node">
<title>Node5</title>
<g id="a_Node000005"><a xlink:href="MainWindow_8cpp.html" target="_top" xlink:title=" ">
<polygon fill="white" stroke="#666666" points="489,-24.5 343,-24.5 343,-5.5 489,-5.5 489,-24.5"/>
<text text-anchor="middle" x="416" y="-12.5" font-family="Helvetica,sans-Serif" font-size="10.00">src/ui/src/MainWindow.cpp</text>
</a>
</g>
</g>
<!-- Node1&#45;&gt;Node5 -->
<g id="edge22_Node000001_Node000005" class="edge">
<title>Node1&#45;&gt;Node5</title>
<g id="a_edge22_Node000001_Node000005"><a xlink:title=" ">
<path fill="none" stroke="#63b8ff" d="M691.65,-210.17C632.32,-205.99 551.1,-194.14 487,-162 448.78,-142.83 434.19,-135.15 417,-96 406.5,-72.09 410.88,-40.15 413.95,-24.87"/>
<polygon fill="#63b8ff" stroke="#63b8ff" points="691.51,-213.67 701.72,-210.83 691.96,-206.69 691.51,-213.67"/>
</a>
</g>
</g>
<!-- Node7 -->
<g id="Node000007" class="node">
<title>Node7</title>
<g id="a_Node000007"><a xlink:href="ILayoutTarget_8hpp.html" target="_top" xlink:title=" ">
<polygon fill="white" stroke="#666666" points="628,-162 496,-162 496,-132 628,-132 628,-162"/>
<text text-anchor="start" x="504" y="-150" font-family="Helvetica,sans-Serif" font-size="10.00">src/ui/include/ui/ILayout</text>
<text text-anchor="middle" x="562" y="-139" font-family="Helvetica,sans-Serif" font-size="10.00">Target.hpp</text>
</a>
</g>
</g>
<!-- Node1&#45;&gt;Node7 -->
<g id="edge7_Node000001_Node000007" class="edge">
<title>Node1&#45;&gt;Node7</title>
<g id="a_edge7_Node000001_Node000007"><a xlink:title=" ">
<path fill="none" stroke="#63b8ff" d="M716.18,-194.99C682.39,-184.69 639.82,-171.72 607.98,-162.01"/>
<polygon fill="#63b8ff" stroke="#63b8ff" points="715.33,-198.39 725.91,-197.95 717.37,-191.69 715.33,-198.39"/>
</a>
</g>
</g>
<!-- Node9 -->
<g id="Node000009" class="node">
<title>Node9</title>
<g id="a_Node000009"><a xlink:href="MultiWindowView_8cpp.html" target="_top" xlink:title=" ">
<polygon fill="white" stroke="#666666" points="902,-24.5 732,-24.5 732,-5.5 902,-5.5 902,-24.5"/>
<text text-anchor="middle" x="817" y="-12.5" font-family="Helvetica,sans-Serif" font-size="10.00">src/ui/src/MultiWindowView.cpp</text>
</a>
</g>
</g>
<!-- Node1&#45;&gt;Node9 -->
<g id="edge23_Node000001_Node000009" class="edge">
<title>Node1&#45;&gt;Node9</title>
<g id="a_edge23_Node000001_Node000009"><a xlink:title=" ">
<path fill="none" stroke="#63b8ff" d="M852.19,-202.91C899.22,-195.68 959.03,-183.15 1009,-162 1057.36,-141.54 1082.33,-142.36 1107,-96 1113.26,-84.23 1115.59,-76.2 1107,-66 1081.2,-35.38 978.27,-23.51 902.34,-18.91"/>
<polygon fill="#63b8ff" stroke="#63b8ff" points="851.43,-199.48 842.05,-204.41 852.46,-206.41 851.43,-199.48"/>
</a>
</g>
</g>
<!-- Node11 -->
<g id="Node000011" class="node">
<title>Node11</title>
<g id="a_Node000011"><a xlink:href="ViewportView_8cpp.html" target="_top" xlink:title=" ">
<polygon fill="white" stroke="#666666" points="1182,-24.5 1032,-24.5 1032,-5.5 1182,-5.5 1182,-24.5"/>
<text text-anchor="middle" x="1107" y="-12.5" font-family="Helvetica,sans-Serif" font-size="10.00">src/ui/src/ViewportView.cpp</text>
</a>
</g>
</g>
<!-- Node1&#45;&gt;Node11 -->
<g id="edge25_Node000001_Node000011" class="edge">
<title>Node1&#45;&gt;Node11</title>
<g id="a_edge25_Node000001_Node000011"><a xlink:title=" ">
<path fill="none" stroke="#63b8ff" d="M852.28,-210.53C911.5,-206.52 992.48,-194.75 1056,-162 1093.15,-142.84 1106.86,-134.56 1123,-96 1133.28,-71.44 1119.83,-39.81 1111.96,-24.74"/>
<polygon fill="#63b8ff" stroke="#63b8ff" points="851.99,-207.04 842.23,-211.15 852.43,-214.03 851.99,-207.04"/>
</a>
</g>
</g>
<!-- Node12 -->
<g id="Node000012" class="node">
<title>Node12</title>
<g id="a_Node000012"><a xlink:href="ViewportLayoutItem_8hpp.html" target="_top" xlink:title=" ">
<polygon fill="white" stroke="#666666" points="1000,-162 860,-162 860,-132 1000,-132 1000,-162"/>
<text text-anchor="start" x="868" y="-150" font-family="Helvetica,sans-Serif" font-size="10.00">src/ui/include/ui/Viewport</text>
<text text-anchor="middle" x="930" y="-139" font-family="Helvetica,sans-Serif" font-size="10.00">LayoutItem.hpp</text>
</a>
</g>
</g>
<!-- Node1&#45;&gt;Node12 -->
<g id="edge15_Node000001_Node000012" class="edge">
<title>Node1&#45;&gt;Node12</title>
<g id="a_edge15_Node000001_Node000012"><a xlink:title=" ">
<path fill="none" stroke="#63b8ff" d="M815.97,-194.19C841.06,-184.02 872.07,-171.47 895.41,-162.01"/>
<polygon fill="#63b8ff" stroke="#63b8ff" points="814.63,-190.96 806.67,-197.95 817.26,-197.44 814.63,-190.96"/>
</a>
</g>
</g>
<!-- Node15 -->
<g id="Node000015" class="node">
<title>Node15</title>
<g id="a_Node000015"><a xlink:href="ViewportLayoutSelector_8hpp.html" target="_top" xlink:title=" ">
<polygon fill="white" stroke="#666666" points="842,-162 702,-162 702,-132 842,-132 842,-162"/>
<text text-anchor="start" x="710" y="-150" font-family="Helvetica,sans-Serif" font-size="10.00">src/ui/include/ui/Viewport</text>
<text text-anchor="middle" x="772" y="-139" font-family="Helvetica,sans-Serif" font-size="10.00">LayoutSelector.hpp</text>
</a>
</g>
</g>
<!-- Node1&#45;&gt;Node15 -->
<g id="edge19_Node000001_Node000015" class="edge">
<title>Node1&#45;&gt;Node15</title>
<g id="a_edge19_Node000001_Node000015"><a xlink:title=" ">
<path fill="none" stroke="#63b8ff" d="M772,-187.54C772,-178.96 772,-169.61 772,-162.16"/>
<polygon fill="#63b8ff" stroke="#63b8ff" points="768.5,-187.8 772,-197.8 775.5,-187.8 768.5,-187.8"/>
</a>
</g>
</g>
<!-- Node16 -->
<g id="Node000016" class="node">
<title>Node16</title>
<g id="a_Node000016"><a xlink:href="ViewportLayoutTypes_8cpp.html" target="_top" xlink:title=" ">
<polygon fill="white" stroke="#666666" points="1332,-162 1192,-162 1192,-132 1332,-132 1332,-162"/>
<text text-anchor="start" x="1200" y="-150" font-family="Helvetica,sans-Serif" font-size="10.00">src/ui/src/ViewportLayout</text>
<text text-anchor="middle" x="1262" y="-139" font-family="Helvetica,sans-Serif" font-size="10.00">Types.cpp</text>
</a>
</g>
</g>
<!-- Node1&#45;&gt;Node16 -->
<g id="edge24_Node000001_Node000016" class="edge">
<title>Node1&#45;&gt;Node16</title>
<g id="a_edge24_Node000001_Node000016"><a xlink:title=" ">
<path fill="none" stroke="#63b8ff" d="M852.17,-203.15C934.16,-193.85 1065.15,-178.34 1178,-162 1182.54,-161.34 1187.2,-160.64 1191.91,-159.91"/>
<polygon fill="#63b8ff" stroke="#63b8ff" points="851.71,-199.68 842.17,-204.28 852.5,-206.63 851.71,-199.68"/>
</a>
</g>
</g>
<!-- Node3 -->
<g id="Node000003" class="node">
<title>Node3</title>
<g id="a_Node000003"><a xlink:href="OverlayLayoutAdapter_8cpp.html" target="_top" xlink:title=" ">
<polygon fill="white" stroke="#666666" points="293.5,-96 158.5,-96 158.5,-66 293.5,-66 293.5,-96"/>
<text text-anchor="start" x="166.5" y="-84" font-family="Helvetica,sans-Serif" font-size="10.00">src/adapters/src/Overlay</text>
<text text-anchor="middle" x="226" y="-73" font-family="Helvetica,sans-Serif" font-size="10.00">LayoutAdapter.cpp</text>
</a>
</g>
</g>
<!-- Node2&#45;&gt;Node3 -->
<g id="edge2_Node000002_Node000003" class="edge">
<title>Node2&#45;&gt;Node3</title>
<g id="a_edge2_Node000002_Node000003"><a xlink:title=" ">
<path fill="none" stroke="#63b8ff" d="M229.11,-121.83C228.44,-113.17 227.7,-103.7 227.11,-96.16"/>
<polygon fill="#63b8ff" stroke="#63b8ff" points="225.62,-122.1 229.89,-131.8 232.6,-121.55 225.62,-122.1"/>
</a>
</g>
</g>
<!-- Node2&#45;&gt;Node4 -->
<g id="edge3_Node000002_Node000004" class="edge">
<title>Node2&#45;&gt;Node4</title>
<g id="a_edge3_Node000002_Node000004"><a xlink:title=" ">
<path fill="none" stroke="#63b8ff" d="M186.19,-128.19C160.63,-118.02 129.03,-105.47 105.25,-96.01"/>
<polygon fill="#63b8ff" stroke="#63b8ff" points="185.08,-131.51 195.67,-131.95 187.67,-125.01 185.08,-131.51"/>
</a>
</g>
</g>
<!-- Node2&#45;&gt;Node5 -->
<g id="edge6_Node000002_Node000005" class="edge">
<title>Node2&#45;&gt;Node5</title>
<g id="a_edge6_Node000002_Node000005"><a xlink:title=" ">
<path fill="none" stroke="#63b8ff" d="M259.36,-126.07C300.29,-97.31 374.24,-45.34 403.55,-24.75"/>
<polygon fill="#63b8ff" stroke="#63b8ff" points="257.32,-123.23 251.15,-131.84 261.34,-128.95 257.32,-123.23"/>
</a>
</g>
</g>
<!-- Node4&#45;&gt;Node5 -->
<g id="edge4_Node000004_Node000005" class="edge">
<title>Node4&#45;&gt;Node5</title>
<g id="a_edge4_Node000004_Node000005"><a xlink:title=" ">
<path fill="none" stroke="#63b8ff" d="M149.87,-65.23C218.04,-52.62 313.71,-34.92 369.84,-24.54"/>
<polygon fill="#63b8ff" stroke="#63b8ff" points="149.21,-61.79 140.02,-67.05 150.49,-68.67 149.21,-61.79"/>
</a>
</g>
</g>
<!-- Node6 -->
<g id="Node000006" class="node">
<title>Node6</title>
<g id="a_Node000006"><a xlink:href="ViewportLayoutManager_8cpp.html" target="_top" xlink:title=" ">
<polygon fill="white" stroke="#666666" points="261,-30 121,-30 121,0 261,0 261,-30"/>
<text text-anchor="start" x="129" y="-18" font-family="Helvetica,sans-Serif" font-size="10.00">src/ui/src/ViewportLayout</text>
<text text-anchor="middle" x="191" y="-7" font-family="Helvetica,sans-Serif" font-size="10.00">Manager.cpp</text>
</a>
</g>
</g>
<!-- Node4&#45;&gt;Node6 -->
<g id="edge5_Node000004_Node000006" class="edge">
<title>Node4&#45;&gt;Node6</title>
<g id="a_edge5_Node000004_Node000006"><a xlink:title=" ">
<path fill="none" stroke="#63b8ff" d="M105.47,-61.24C124.35,-51.25 147.18,-39.18 164.51,-30.01"/>
<polygon fill="#63b8ff" stroke="#63b8ff" points="103.76,-58.19 96.55,-65.95 107.03,-64.37 103.76,-58.19"/>
</a>
</g>
</g>
<!-- Node7&#45;&gt;Node6 -->
<g id="edge14_Node000007_Node000006" class="edge">
<title>Node7&#45;&gt;Node6</title>
<g id="a_edge14_Node000007_Node000006"><a xlink:title=" ">
<path fill="none" stroke="#63b8ff" d="M511.49,-128.7C483.61,-119.12 448.37,-106.96 417,-96 351.58,-73.14 275.66,-46.18 230.57,-30.12"/>
<polygon fill="#63b8ff" stroke="#63b8ff" points="510.44,-132.03 521.03,-131.97 512.71,-125.41 510.44,-132.03"/>
</a>
</g>
</g>
<!-- Node8 -->
<g id="Node000008" class="node">
<title>Node8</title>
<g id="a_Node000008"><a xlink:href="MultiWindowView_8hpp.html" target="_top" xlink:title=" ">
<polygon fill="white" stroke="#666666" points="586,-96 426,-96 426,-66 586,-66 586,-96"/>
<text text-anchor="start" x="434" y="-84" font-family="Helvetica,sans-Serif" font-size="10.00">src/ui/include/ui/MultiWindow</text>
<text text-anchor="middle" x="506" y="-73" font-family="Helvetica,sans-Serif" font-size="10.00">View.hpp</text>
</a>
</g>
</g>
<!-- Node7&#45;&gt;Node8 -->
<g id="edge8_Node000007_Node000008" class="edge">
<title>Node7&#45;&gt;Node8</title>
<g id="a_edge8_Node000007_Node000008"><a xlink:title=" ">
<path fill="none" stroke="#63b8ff" d="M542.83,-124.09C534.74,-114.85 525.56,-104.36 518.39,-96.16"/>
<polygon fill="#63b8ff" stroke="#63b8ff" points="540.35,-126.58 549.57,-131.8 545.62,-121.97 540.35,-126.58"/>
</a>
</g>
</g>
<!-- Node10 -->
<g id="Node000010" class="node">
<title>Node10</title>
<g id="a_Node000010"><a xlink:href="ViewportView_8hpp.html" target="_top" xlink:title=" ">
<polygon fill="white" stroke="#666666" points="744,-96 604,-96 604,-66 744,-66 744,-96"/>
<text text-anchor="start" x="612" y="-84" font-family="Helvetica,sans-Serif" font-size="10.00">src/ui/include/ui/Viewport</text>
<text text-anchor="middle" x="674" y="-73" font-family="Helvetica,sans-Serif" font-size="10.00">View.hpp</text>
</a>
</g>
</g>
<!-- Node7&#45;&gt;Node10 -->
<g id="edge11_Node000007_Node000010" class="edge">
<title>Node7&#45;&gt;Node10</title>
<g id="a_edge11_Node000007_Node000010"><a xlink:title=" ">
<path fill="none" stroke="#63b8ff" d="M595.31,-126.97C612.69,-117.03 633.59,-105.09 649.48,-96.01"/>
<polygon fill="#63b8ff" stroke="#63b8ff" points="593.52,-123.95 586.58,-131.95 597,-130.03 593.52,-123.95"/>
</a>
</g>
</g>
<!-- Node8&#45;&gt;Node5 -->
<g id="edge9_Node000008_Node000005" class="edge">
<title>Node8&#45;&gt;Node5</title>
<g id="a_edge9_Node000008_Node000005"><a xlink:title=" ">
<path fill="none" stroke="#63b8ff" d="M477.7,-59.87C461.04,-48.03 440.82,-33.65 428.18,-24.66"/>
<polygon fill="#63b8ff" stroke="#63b8ff" points="475.85,-62.85 486.03,-65.8 479.9,-57.15 475.85,-62.85"/>
</a>
</g>
</g>
<!-- Node8&#45;&gt;Node9 -->
<g id="edge10_Node000008_Node000009" class="edge">
<title>Node8&#45;&gt;Node9</title>
<g id="a_edge10_Node000008_Node000009"><a xlink:title=" ">
<path fill="none" stroke="#63b8ff" d="M584.2,-63.91C644.98,-51.4 726.91,-34.54 775.61,-24.52"/>
<polygon fill="#63b8ff" stroke="#63b8ff" points="583.34,-60.51 574.25,-65.95 584.75,-67.37 583.34,-60.51"/>
</a>
</g>
</g>
<!-- Node10&#45;&gt;Node5 -->
<g id="edge12_Node000010_Node000005" class="edge">
<title>Node10&#45;&gt;Node5</title>
<g id="a_edge12_Node000010_Node000005"><a xlink:title=" ">
<path fill="none" stroke="#63b8ff" d="M607.56,-63.52C557.3,-51.05 490.32,-34.44 450.34,-24.52"/>
<polygon fill="#63b8ff" stroke="#63b8ff" points="606.83,-66.94 617.38,-65.95 608.52,-60.15 606.83,-66.94"/>
</a>
</g>
</g>
<!-- Node10&#45;&gt;Node11 -->
<g id="edge13_Node000010_Node000011" class="edge">
<title>Node10&#45;&gt;Node11</title>
<g id="a_edge13_Node000010_Node000011"><a xlink:title=" ">
<path fill="none" stroke="#63b8ff" d="M753.98,-68.18C839.58,-55.53 973.26,-35.77 1049.18,-24.55"/>
<polygon fill="#63b8ff" stroke="#63b8ff" points="753.43,-64.72 744.05,-69.65 754.45,-71.65 753.43,-64.72"/>
</a>
</g>
</g>
<!-- Node13 -->
<g id="Node000013" class="node">
<title>Node13</title>
<g id="a_Node000013"><a xlink:href="ViewportLayoutItem_8cpp.html" target="_top" xlink:title=" ">
<polygon fill="white" stroke="#666666" points="1098,-96 958,-96 958,-66 1098,-66 1098,-96"/>
<text text-anchor="start" x="966" y="-84" font-family="Helvetica,sans-Serif" font-size="10.00">src/ui/src/ViewportLayout</text>
<text text-anchor="middle" x="1028" y="-73" font-family="Helvetica,sans-Serif" font-size="10.00">Item.cpp</text>
</a>
</g>
</g>
<!-- Node12&#45;&gt;Node13 -->
<g id="edge16_Node000012_Node000013" class="edge">
<title>Node12&#45;&gt;Node13</title>
<g id="a_edge16_Node000012_Node000013"><a xlink:title=" ">
<path fill="none" stroke="#63b8ff" d="M960.16,-126.3C975.08,-116.56 992.75,-105.02 1006.31,-96.16"/>
<polygon fill="#63b8ff" stroke="#63b8ff" points="958.21,-123.4 951.75,-131.8 962.04,-129.26 958.21,-123.4"/>
</a>
</g>
</g>
<!-- Node14 -->
<g id="Node000014" class="node">
<title>Node14</title>
<g id="a_Node000014"><a xlink:href="ViewportLayoutSelector_8cpp.html" target="_top" xlink:title=" ">
<polygon fill="white" stroke="#666666" points="940,-96 800,-96 800,-66 940,-66 940,-96"/>
<text text-anchor="start" x="808" y="-84" font-family="Helvetica,sans-Serif" font-size="10.00">src/ui/src/ViewportLayout</text>
<text text-anchor="middle" x="870" y="-73" font-family="Helvetica,sans-Serif" font-size="10.00">Selector.cpp</text>
</a>
</g>
</g>
<!-- Node12&#45;&gt;Node14 -->
<g id="edge17_Node000012_Node000014" class="edge">
<title>Node12&#45;&gt;Node14</title>
<g id="a_edge17_Node000012_Node000014"><a xlink:title=" ">
<path fill="none" stroke="#63b8ff" d="M909.72,-124.37C900.99,-115.06 891.04,-104.44 883.28,-96.16"/>
<polygon fill="#63b8ff" stroke="#63b8ff" points="907.29,-126.89 916.68,-131.8 912.4,-122.11 907.29,-126.89"/>
</a>
</g>
</g>
<!-- Node15&#45;&gt;Node5 -->
<g id="edge20_Node000015_Node000005" class="edge">
<title>Node15&#45;&gt;Node5</title>
<g id="a_edge20_Node000015_Node000005"><a xlink:title=" ">
<path fill="none" stroke="#63b8ff" d="M772.98,-121.73C772.31,-103.73 768.23,-79.97 753,-66 715.58,-31.66 576.68,-20.89 489.31,-17.52"/>
<polygon fill="#63b8ff" stroke="#63b8ff" points="769.48,-121.82 773.03,-131.8 776.48,-121.78 769.48,-121.82"/>
</a>
</g>
</g>
<!-- Node15&#45;&gt;Node14 -->
<g id="edge21_Node000015_Node000014" class="edge">
<title>Node15&#45;&gt;Node14</title>
<g id="a_edge21_Node000015_Node000014"><a xlink:title=" ">
<path fill="none" stroke="#63b8ff" d="M802.16,-126.3C817.08,-116.56 834.75,-105.02 848.31,-96.16"/>
<polygon fill="#63b8ff" stroke="#63b8ff" points="800.21,-123.4 793.75,-131.8 804.04,-129.26 800.21,-123.4"/>
</a>
</g>
</g>
</g>
</svg>
