<?xml version="1.0" encoding="UTF-8" standalone="no"?>
<!DOCTYPE svg PUBLIC "-//W3C//DTD SVG 1.1//EN"
 "http://www.w3.org/Graphics/SVG/1.1/DTD/svg11.dtd">
<!-- Generated by graphviz version 2.43.0 (0)
 -->
<!-- Title: lib/src/ViewportManager.cpp Pages: 1 -->
<!--zoomable 258 -->

<svg id="main" version="1.1" xmlns="http://www.w3.org/2000/svg" xmlns:xlink="http://www.w3.org/1999/xlink" xml:space="preserve" onload="init(evt)">
<style type="text/css"><![CDATA[
.node, .edge {opacity: 0.7;}
.node.selected, .edge.selected {opacity: 1;}
.edge:hover path { stroke: red; }
.edge:hover polygon { stroke: red; fill: red; }
]]></style>

<defs>
  <circle id="rim" cx="0" cy="0" r="7"/>
  <circle id="rim2" cx="0" cy="0" r="3.5"/>
  <g id="zoomPlus">
    <use xlink:href="#rim" fill="#404040"><set attributeName="fill" to="#808080" begin="zoomplus.mouseover" end="zoomplus.mouseout"/></use>
    <path d="M-4,0h8M0,-4v8" fill="none" stroke="white" stroke-width="1.5" pointer-events="none"/>
  </g>
  <g id="zoomMin">
    <use xlink:href="#rim" fill="#404040"><set attributeName="fill" to="#808080" begin="zoomminus.mouseover" end="zoomminus.mouseout"/></use>
    <path d="M-4,0h8" fill="none" stroke="white" stroke-width="1.5" pointer-events="none"/>
  </g>
  <g id="arrowUp" transform="translate(30 24)">
    <use xlink:href="#rim"/>
    <path pointer-events="none" fill="none" stroke="white" stroke-width="1.5" d="M0,-3.0v7 M-2.5,-0.5L0,-3.0L2.5,-0.5"/>
  </g>
  <g id="arrowRight" transform="rotate(90) translate(36 -43)">
    <use xlink:href="#rim"/>
    <path pointer-events="none" fill="none" stroke="white" stroke-width="1.5" d="M0,-3.0v7 M-2.5,-0.5L0,-3.0L2.5,-0.5"/>
  </g>
  <g id="arrowDown" transform="rotate(180) translate(-30 -48)">
    <use xlink:href="#rim"/>
    <path pointer-events="none" fill="none" stroke="white" stroke-width="1.5" d="M0,-3.0v7 M-2.5,-0.5L0,-3.0L2.5,-0.5"/>
  </g>
  <g id="arrowLeft" transform="rotate(270) translate(-36 17)">
    <use xlink:href="#rim"/>
    <path pointer-events="none" fill="none" stroke="white" stroke-width="1.5" d="M0,-3.0v7 M-2.5,-0.5L0,-3.0L2.5,-0.5"/>
  </g>
  <g id="resetDef">
    <use xlink:href="#rim2" fill="#404040"><set attributeName="fill" to="#808080" begin="reset.mouseover" end="reset.mouseout"/></use>
  </g>
</defs>
<script type="application/ecmascript">
var viewWidth = 1401;
var viewHeight = 258;
var sectionId = 'dynsection-0';
</script>
<script type="application/ecmascript" xlink:href="svg.min.js"/>
<svg id="graph" class="graph">
<g id="viewport">
<title>lib/src/ViewportManager.cpp</title>
<!-- Node1 -->
<g id="Node000001" class="node">
<title>Node1</title>
<g id="a_Node000001"><a xlink:title=" ">
<polygon fill="#999999" stroke="#666666" points="923.5,-250 768.5,-250 768.5,-231 923.5,-231 923.5,-250"/>
<text text-anchor="middle" x="846" y="-238" font-family="Helvetica,sans-Serif" font-size="10.00">lib/src/ViewportManager.cpp</text>
</a>
</g>
</g>
<!-- Node2 -->
<g id="Node000002" class="node">
<title>Node2</title>
<g id="a_Node000002"><a xlink:href="ViewportManager_8hpp.html" target="_top" xlink:title=" ">
<polygon fill="white" stroke="#666666" points="352,-189.5 152,-189.5 152,-170.5 352,-170.5 352,-189.5"/>
<text text-anchor="middle" x="252" y="-177.5" font-family="Helvetica,sans-Serif" font-size="10.00">XQVtkViewport/ViewportManager.hpp</text>
</a>
</g>
</g>
<!-- Node1&#45;&gt;Node2 -->
<g id="edge1_Node000001_Node000002" class="edge">
<title>Node1&#45;&gt;Node2</title>
<g id="a_edge1_Node000001_Node000002"><a xlink:title=" ">
<path fill="none" stroke="#63b8ff" d="M768.46,-232.42C675.95,-223.91 516.63,-209 380,-195 366.49,-193.62 352.18,-192.1 338.22,-190.59"/>
<polygon fill="#63b8ff" stroke="#63b8ff" points="338.45,-187.1 328.13,-189.5 337.69,-194.06 338.45,-187.1"/>
</a>
</g>
</g>
<!-- Node4 -->
<g id="Node000004" class="node">
<title>Node4</title>
<g id="a_Node000004"><a xlink:title=" ">
<polygon fill="#e0e0e0" stroke="#999999" points="58,-129 0,-129 0,-110 58,-110 58,-129"/>
<text text-anchor="middle" x="29" y="-117" font-family="Helvetica,sans-Serif" font-size="10.00">memory</text>
</a>
</g>
</g>
<!-- Node1&#45;&gt;Node4 -->
<g id="edge21_Node000001_Node000004" class="edge">
<title>Node1&#45;&gt;Node4</title>
<g id="a_edge21_Node000001_Node000004"><a xlink:title=" ">
<path fill="none" stroke="#63b8ff" d="M768.2,-239.55C610.19,-238.84 257.01,-232.91 143,-195 104.94,-182.35 67.27,-153.75 46.18,-135.9"/>
<polygon fill="#63b8ff" stroke="#63b8ff" points="48.3,-133.1 38.45,-129.2 43.71,-138.39 48.3,-133.1"/>
</a>
</g>
</g>
<!-- Node11 -->
<g id="Node000011" class="node">
<title>Node11</title>
<g id="a_Node000011"><a xlink:title=" ">
<polygon fill="#e0e0e0" stroke="#999999" points="733,-189.5 599,-189.5 599,-170.5 733,-170.5 733,-189.5"/>
<text text-anchor="middle" x="666" y="-177.5" font-family="Helvetica,sans-Serif" font-size="10.00">vtkCallbackCommand.h</text>
</a>
</g>
</g>
<!-- Node1&#45;&gt;Node11 -->
<g id="edge14_Node000001_Node000011" class="edge">
<title>Node1&#45;&gt;Node11</title>
<g id="a_edge14_Node000001_Node000011"><a xlink:title=" ">
<path fill="none" stroke="#63b8ff" d="M819.83,-230.99C788.77,-220.9 736.81,-204.01 701.98,-192.69"/>
<polygon fill="#63b8ff" stroke="#63b8ff" points="702.8,-189.28 692.21,-189.52 700.63,-195.94 702.8,-189.28"/>
</a>
</g>
</g>
<!-- Node12 -->
<g id="Node000012" class="node">
<title>Node12</title>
<g id="a_Node000012"><a xlink:title=" ">
<polygon fill="#e0e0e0" stroke="#999999" points="941,-189.5 751,-189.5 751,-170.5 941,-170.5 941,-189.5"/>
<text text-anchor="middle" x="846" y="-177.5" font-family="Helvetica,sans-Serif" font-size="10.00">vtkGenericOpenGLRenderWindow.h</text>
</a>
</g>
</g>
<!-- Node1&#45;&gt;Node12 -->
<g id="edge15_Node000001_Node000012" class="edge">
<title>Node1&#45;&gt;Node12</title>
<g id="a_edge15_Node000001_Node000012"><a xlink:title=" ">
<path fill="none" stroke="#63b8ff" d="M846,-230.87C846,-222.75 846,-210.31 846,-199.89"/>
<polygon fill="#63b8ff" stroke="#63b8ff" points="849.5,-199.67 846,-189.67 842.5,-199.67 849.5,-199.67"/>
</a>
</g>
</g>
<!-- Node13 -->
<g id="Node000013" class="node">
<title>Node13</title>
<g id="a_Node000013"><a xlink:title=" ">
<polygon fill="#e0e0e0" stroke="#999999" points="1073,-189.5 959,-189.5 959,-170.5 1073,-170.5 1073,-189.5"/>
<text text-anchor="middle" x="1016" y="-177.5" font-family="Helvetica,sans-Serif" font-size="10.00">vtkRenderWindow.h</text>
</a>
</g>
</g>
<!-- Node1&#45;&gt;Node13 -->
<g id="edge16_Node000001_Node000013" class="edge">
<title>Node1&#45;&gt;Node13</title>
<g id="a_edge16_Node000001_Node000013"><a xlink:title=" ">
<path fill="none" stroke="#63b8ff" d="M870.72,-230.99C899.93,-220.94 948.7,-204.16 981.59,-192.84"/>
<polygon fill="#63b8ff" stroke="#63b8ff" points="982.93,-196.08 991.25,-189.52 980.66,-189.46 982.93,-196.08"/>
</a>
</g>
</g>
<!-- Node14 -->
<g id="Node000014" class="node">
<title>Node14</title>
<g id="a_Node000014"><a xlink:title=" ">
<polygon fill="#e0e0e0" stroke="#999999" points="1176.5,-189.5 1091.5,-189.5 1091.5,-170.5 1176.5,-170.5 1176.5,-189.5"/>
<text text-anchor="middle" x="1134" y="-177.5" font-family="Helvetica,sans-Serif" font-size="10.00">vtkRenderer.h</text>
</a>
</g>
</g>
<!-- Node1&#45;&gt;Node14 -->
<g id="edge17_Node000001_Node000014" class="edge">
<title>Node1&#45;&gt;Node14</title>
<g id="a_edge17_Node000001_Node000014"><a xlink:title=" ">
<path fill="none" stroke="#63b8ff" d="M897.33,-230.99C945.3,-222.76 1018.8,-209.44 1082,-195 1085.89,-194.11 1089.92,-193.13 1093.95,-192.11"/>
<polygon fill="#63b8ff" stroke="#63b8ff" points="1095.05,-195.44 1103.85,-189.54 1093.29,-188.67 1095.05,-195.44"/>
</a>
</g>
</g>
<!-- Node15 -->
<g id="Node000015" class="node">
<title>Node15</title>
<g id="a_Node000015"><a xlink:title=" ">
<polygon fill="#e0e0e0" stroke="#999999" points="682,-129 578,-129 578,-110 682,-110 682,-129"/>
<text text-anchor="middle" x="630" y="-117" font-family="Helvetica,sans-Serif" font-size="10.00">vtkSmartPointer.h</text>
</a>
</g>
</g>
<!-- Node1&#45;&gt;Node15 -->
<g id="edge18_Node000001_Node000015" class="edge">
<title>Node1&#45;&gt;Node15</title>
<g id="a_edge18_Node000001_Node000015"><a xlink:title=" ">
<path fill="none" stroke="#63b8ff" d="M768.41,-236.68C701.61,-232.42 612.5,-221.75 590,-195 574.73,-176.85 594.67,-151.94 611.45,-136.02"/>
<polygon fill="#63b8ff" stroke="#63b8ff" points="614.17,-138.29 619.27,-129.01 609.49,-133.08 614.17,-138.29"/>
</a>
</g>
</g>
<!-- Node16 -->
<g id="Node000016" class="node">
<title>Node16</title>
<g id="a_Node000016"><a xlink:title=" ">
<polygon fill="#e0e0e0" stroke="#999999" points="1259,-189.5 1195,-189.5 1195,-170.5 1259,-170.5 1259,-189.5"/>
<text text-anchor="middle" x="1227" y="-177.5" font-family="Helvetica,sans-Serif" font-size="10.00">algorithm</text>
</a>
</g>
</g>
<!-- Node1&#45;&gt;Node16 -->
<g id="edge19_Node000001_Node000016" class="edge">
<title>Node1&#45;&gt;Node16</title>
<g id="a_edge19_Node000001_Node000016"><a xlink:title=" ">
<path fill="none" stroke="#63b8ff" d="M923.76,-233.75C993.18,-227.58 1097.31,-215.73 1186,-195 1188.98,-194.3 1192.05,-193.47 1195.1,-192.57"/>
<polygon fill="#63b8ff" stroke="#63b8ff" points="1196.21,-195.89 1204.68,-189.52 1194.09,-189.22 1196.21,-195.89"/>
</a>
</g>
</g>
<!-- Node17 -->
<g id="Node000017" class="node">
<title>Node17</title>
<g id="a_Node000017"><a xlink:title=" ">
<polygon fill="#e0e0e0" stroke="#999999" points="1327,-189.5 1277,-189.5 1277,-170.5 1327,-170.5 1327,-189.5"/>
<text text-anchor="middle" x="1302" y="-177.5" font-family="Helvetica,sans-Serif" font-size="10.00">chrono</text>
</a>
</g>
</g>
<!-- Node1&#45;&gt;Node17 -->
<g id="edge20_Node000001_Node000017" class="edge">
<title>Node1&#45;&gt;Node17</title>
<g id="a_edge20_Node000001_Node000017"><a xlink:title=" ">
<path fill="none" stroke="#63b8ff" d="M923.78,-237.92C1009.34,-234.66 1150.34,-224.77 1268,-195 1270.16,-194.45 1272.37,-193.79 1274.56,-193.07"/>
<polygon fill="#63b8ff" stroke="#63b8ff" points="1275.84,-196.33 1283.97,-189.54 1273.38,-189.77 1275.84,-196.33"/>
</a>
</g>
</g>
<!-- Node18 -->
<g id="Node000018" class="node">
<title>Node18</title>
<g id="a_Node000018"><a xlink:title=" ">
<polygon fill="#e0e0e0" stroke="#999999" points="1392.5,-189.5 1345.5,-189.5 1345.5,-170.5 1392.5,-170.5 1392.5,-189.5"/>
<text text-anchor="middle" x="1369" y="-177.5" font-family="Helvetica,sans-Serif" font-size="10.00">vector</text>
</a>
</g>
</g>
<!-- Node1&#45;&gt;Node18 -->
<g id="edge22_Node000001_Node000018" class="edge">
<title>Node1&#45;&gt;Node18</title>
<g id="a_edge22_Node000001_Node000018"><a xlink:title=" ">
<path fill="none" stroke="#63b8ff" d="M923.62,-239.82C1021.29,-238.56 1193.5,-230.76 1336,-195 1337.95,-194.51 1339.93,-193.92 1341.9,-193.27"/>
<polygon fill="#63b8ff" stroke="#63b8ff" points="1343.44,-196.43 1351.54,-189.6 1340.95,-189.89 1343.44,-196.43"/>
</a>
</g>
</g>
<!-- Node19 -->
<g id="Node000019" class="node">
<title>Node19</title>
<g id="a_Node000019"><a xlink:href="RenderStatsOverlay_8hpp.html" target="_top" xlink:title=" ">
<polygon fill="white" stroke="#666666" points="542.5,-195 389.5,-195 389.5,-165 542.5,-165 542.5,-195"/>
<text text-anchor="start" x="397.5" y="-183" font-family="Helvetica,sans-Serif" font-size="10.00">XQVtkViewport/RenderStats</text>
<text text-anchor="middle" x="466" y="-172" font-family="Helvetica,sans-Serif" font-size="10.00">Overlay.hpp</text>
</a>
</g>
</g>
<!-- Node1&#45;&gt;Node19 -->
<g id="edge23_Node000001_Node000019" class="edge">
<title>Node1&#45;&gt;Node19</title>
<g id="a_edge23_Node000001_Node000019"><a xlink:title=" ">
<path fill="none" stroke="#63b8ff" d="M790.74,-230.99C728.33,-221.38 625.93,-205.62 552.81,-194.36"/>
<polygon fill="#63b8ff" stroke="#63b8ff" points="553.11,-190.87 542.69,-192.81 552.04,-197.79 553.11,-190.87"/>
</a>
</g>
</g>
<!-- Node3 -->
<g id="Node000003" class="node">
<title>Node3</title>
<g id="a_Node000003"><a xlink:title=" ">
<polygon fill="#e0e0e0" stroke="#999999" points="132,-129 76,-129 76,-110 132,-110 132,-129"/>
<text text-anchor="middle" x="104" y="-117" font-family="Helvetica,sans-Serif" font-size="10.00">QObject</text>
</a>
</g>
</g>
<!-- Node2&#45;&gt;Node3 -->
<g id="edge2_Node000002_Node000003" class="edge">
<title>Node2&#45;&gt;Node3</title>
<g id="a_edge2_Node000002_Node000003"><a xlink:title=" ">
<path fill="none" stroke="#63b8ff" d="M230.48,-170.49C205.38,-160.57 163.68,-144.09 135.07,-132.78"/>
<polygon fill="#63b8ff" stroke="#63b8ff" points="136.13,-129.44 125.55,-129.02 133.56,-135.95 136.13,-129.44"/>
</a>
</g>
</g>
<!-- Node2&#45;&gt;Node4 -->
<g id="edge3_Node000002_Node000004" class="edge">
<title>Node2&#45;&gt;Node4</title>
<g id="a_edge3_Node000002_Node000004"><a xlink:title=" ">
<path fill="none" stroke="#63b8ff" d="M219.57,-170.49C179.43,-159.96 111.1,-142.04 68.09,-130.76"/>
<polygon fill="#63b8ff" stroke="#63b8ff" points="68.83,-127.33 58.27,-128.18 67.05,-134.1 68.83,-127.33"/>
</a>
</g>
</g>
<!-- Node5 -->
<g id="Node000005" class="node">
<title>Node5</title>
<g id="a_Node000005"><a xlink:href="IViewportObserver_8hpp.html" target="_top" xlink:title=" ">
<polygon fill="white" stroke="#666666" points="316,-129 188,-129 188,-110 316,-110 316,-129"/>
<text text-anchor="middle" x="252" y="-117" font-family="Helvetica,sans-Serif" font-size="10.00">IViewportObserver.hpp</text>
</a>
</g>
</g>
<!-- Node2&#45;&gt;Node5 -->
<g id="edge4_Node000002_Node000005" class="edge">
<title>Node2&#45;&gt;Node5</title>
<g id="a_edge4_Node000002_Node000005"><a xlink:title=" ">
<path fill="none" stroke="#63b8ff" d="M252,-170.37C252,-162.25 252,-149.81 252,-139.39"/>
<polygon fill="#63b8ff" stroke="#63b8ff" points="255.5,-139.17 252,-129.17 248.5,-139.17 255.5,-139.17"/>
</a>
</g>
</g>
<!-- Node6 -->
<g id="Node000006" class="node">
<title>Node6</title>
<g id="a_Node000006"><a xlink:href="RenderStats_8hpp.html" target="_top" xlink:title=" ">
<polygon fill="white" stroke="#666666" points="361.5,-74 264.5,-74 264.5,-55 361.5,-55 361.5,-74"/>
<text text-anchor="middle" x="313" y="-62" font-family="Helvetica,sans-Serif" font-size="10.00">RenderStats.hpp</text>
</a>
</g>
</g>
<!-- Node2&#45;&gt;Node6 -->
<g id="edge8_Node000002_Node000006" class="edge">
<title>Node2&#45;&gt;Node6</title>
<g id="a_edge8_Node000002_Node000006"><a xlink:title=" ">
<path fill="none" stroke="#63b8ff" d="M274.71,-170.39C291.96,-162.5 314.47,-148.98 325,-129 332.43,-114.9 327.92,-96.9 322.44,-83.67"/>
<polygon fill="#63b8ff" stroke="#63b8ff" points="325.44,-81.82 318.03,-74.24 319.09,-84.78 325.44,-81.82"/>
</a>
</g>
</g>
<!-- Node7 -->
<g id="Node000007" class="node">
<title>Node7</title>
<g id="a_Node000007"><a xlink:title=" ">
<polygon fill="#e0e0e0" stroke="#999999" points="387.5,-19 238.5,-19 238.5,0 387.5,0 387.5,-19"/>
<text text-anchor="middle" x="313" y="-7" font-family="Helvetica,sans-Serif" font-size="10.00">XQVtkViewport_export.hpp</text>
</a>
</g>
</g>
<!-- Node2&#45;&gt;Node7 -->
<g id="edge13_Node000002_Node000007" class="edge">
<title>Node2&#45;&gt;Node7</title>
<g id="a_edge13_Node000002_Node000007"><a xlink:title=" ">
<path fill="none" stroke="#63b8ff" d="M229.44,-170.35C203.54,-158.94 166.18,-137.12 179,-110 199.35,-66.97 248.77,-38.19 281.56,-23.09"/>
<polygon fill="#63b8ff" stroke="#63b8ff" points="283.02,-26.27 290.74,-19.02 280.18,-19.87 283.02,-26.27"/>
</a>
</g>
</g>
<!-- Node8 -->
<g id="Node000008" class="node">
<title>Node8</title>
<g id="a_Node000008"><a xlink:href="ViewportConfig_8hpp.html" target="_top" xlink:title=" ">
<polygon fill="white" stroke="#666666" points="522,-129 410,-129 410,-110 522,-110 522,-129"/>
<text text-anchor="middle" x="466" y="-117" font-family="Helvetica,sans-Serif" font-size="10.00">ViewportConfig.hpp</text>
</a>
</g>
</g>
<!-- Node2&#45;&gt;Node8 -->
<g id="edge9_Node000002_Node000008" class="edge">
<title>Node2&#45;&gt;Node8</title>
<g id="a_edge9_Node000002_Node000008"><a xlink:title=" ">
<path fill="none" stroke="#63b8ff" d="M283.12,-170.49C320.6,-160.25 383.68,-143 425.07,-131.69"/>
<polygon fill="#63b8ff" stroke="#63b8ff" points="426.12,-135.03 434.85,-129.02 424.28,-128.28 426.12,-135.03"/>
</a>
</g>
</g>
<!-- Node5&#45;&gt;Node6 -->
<g id="edge5_Node000005_Node000006" class="edge">
<title>Node5&#45;&gt;Node6</title>
<g id="a_edge5_Node000005_Node000006"><a xlink:title=" ">
<path fill="none" stroke="#63b8ff" d="M261.8,-109.98C270.82,-102.15 284.41,-90.34 295.32,-80.86"/>
<polygon fill="#63b8ff" stroke="#63b8ff" points="297.77,-83.37 303.02,-74.17 293.18,-78.09 297.77,-83.37"/>
</a>
</g>
</g>
<!-- Node5&#45;&gt;Node7 -->
<g id="edge7_Node000005_Node000007" class="edge">
<title>Node5&#45;&gt;Node7</title>
<g id="a_edge7_Node000005_Node000007"><a xlink:title=" ">
<path fill="none" stroke="#63b8ff" d="M250.2,-109.69C248.05,-96.85 245.79,-72.6 255,-55 261.8,-42 274.27,-31.67 285.92,-24.25"/>
<polygon fill="#63b8ff" stroke="#63b8ff" points="287.73,-27.25 294.55,-19.15 284.16,-21.22 287.73,-27.25"/>
</a>
</g>
</g>
<!-- Node6&#45;&gt;Node7 -->
<g id="edge6_Node000006_Node000007" class="edge">
<title>Node6&#45;&gt;Node7</title>
<g id="a_edge6_Node000006_Node000007"><a xlink:title=" ">
<path fill="none" stroke="#63b8ff" d="M313,-54.75C313,-47.8 313,-37.85 313,-29.13"/>
<polygon fill="#63b8ff" stroke="#63b8ff" points="316.5,-29.09 313,-19.09 309.5,-29.09 316.5,-29.09"/>
</a>
</g>
</g>
<!-- Node8&#45;&gt;Node7 -->
<g id="edge12_Node000008_Node000007" class="edge">
<title>Node8&#45;&gt;Node7</title>
<g id="a_edge12_Node000008_Node000007"><a xlink:title=" ">
<path fill="none" stroke="#63b8ff" d="M453.74,-109.84C427.55,-91.36 365.93,-47.86 333.61,-25.05"/>
<polygon fill="#63b8ff" stroke="#63b8ff" points="335.51,-22.1 325.32,-19.2 331.47,-27.82 335.51,-22.1"/>
</a>
</g>
</g>
<!-- Node9 -->
<g id="Node000009" class="node">
<title>Node9</title>
<g id="a_Node000009"><a xlink:title=" ">
<polygon fill="#e0e0e0" stroke="#999999" points="522,-74 480,-74 480,-55 522,-55 522,-74"/>
<text text-anchor="middle" x="501" y="-62" font-family="Helvetica,sans-Serif" font-size="10.00">array</text>
</a>
</g>
</g>
<!-- Node8&#45;&gt;Node9 -->
<g id="edge10_Node000008_Node000009" class="edge">
<title>Node8&#45;&gt;Node9</title>
<g id="a_edge10_Node000008_Node000009"><a xlink:title=" ">
<path fill="none" stroke="#63b8ff" d="M471.78,-109.75C476.62,-102.42 483.68,-91.73 489.64,-82.7"/>
<polygon fill="#63b8ff" stroke="#63b8ff" points="492.74,-84.36 495.33,-74.09 486.9,-80.5 492.74,-84.36"/>
</a>
</g>
</g>
<!-- Node10 -->
<g id="Node000010" class="node">
<title>Node10</title>
<g id="a_Node000010"><a xlink:title=" ">
<polygon fill="#e0e0e0" stroke="#999999" points="462,-74 418,-74 418,-55 462,-55 462,-74"/>
<text text-anchor="middle" x="440" y="-62" font-family="Helvetica,sans-Serif" font-size="10.00">string</text>
</a>
</g>
</g>
<!-- Node8&#45;&gt;Node10 -->
<g id="edge11_Node000008_Node000010" class="edge">
<title>Node8&#45;&gt;Node10</title>
<g id="a_edge11_Node000008_Node000010"><a xlink:title=" ">
<path fill="none" stroke="#63b8ff" d="M461.71,-109.75C458.19,-102.57 453.09,-92.18 448.72,-83.27"/>
<polygon fill="#63b8ff" stroke="#63b8ff" points="451.76,-81.53 444.21,-74.09 445.48,-84.61 451.76,-81.53"/>
</a>
</g>
</g>
<!-- Node19&#45;&gt;Node6 -->
<g id="edge25_Node000019_Node000006" class="edge">
<title>Node19&#45;&gt;Node6</title>
<g id="a_edge25_Node000019_Node000006"><a xlink:title=" ">
<path fill="none" stroke="#63b8ff" d="M446.93,-164.85C417.89,-143.31 362.84,-102.47 333.16,-80.46"/>
<polygon fill="#63b8ff" stroke="#63b8ff" points="334.94,-77.42 324.82,-74.27 330.77,-83.04 334.94,-77.42"/>
</a>
</g>
</g>
<!-- Node19&#45;&gt;Node7 -->
<g id="edge27_Node000019_Node000007" class="edge">
<title>Node19&#45;&gt;Node7</title>
<g id="a_edge27_Node000019_Node000007"><a xlink:title=" ">
<path fill="none" stroke="#63b8ff" d="M494.81,-164.84C508.45,-156.47 523.39,-144.45 531,-129 545.53,-99.49 551.8,-80.48 531,-55 514.07,-34.27 451.6,-22.94 397.85,-16.91"/>
<polygon fill="#63b8ff" stroke="#63b8ff" points="397.89,-13.4 387.58,-15.81 397.15,-20.36 397.89,-13.4"/>
</a>
</g>
</g>
<!-- Node19&#45;&gt;Node8 -->
<g id="edge26_Node000019_Node000008" class="edge">
<title>Node19&#45;&gt;Node8</title>
<g id="a_edge26_Node000019_Node000008"><a xlink:title=" ">
<path fill="none" stroke="#63b8ff" d="M466,-164.84C466,-157.21 466,-147.7 466,-139.45"/>
<polygon fill="#63b8ff" stroke="#63b8ff" points="469.5,-139.27 466,-129.27 462.5,-139.27 469.5,-139.27"/>
</a>
</g>
</g>
<!-- Node19&#45;&gt;Node15 -->
<g id="edge24_Node000019_Node000015" class="edge">
<title>Node19&#45;&gt;Node15</title>
<g id="a_edge24_Node000019_Node000015"><a xlink:title=" ">
<path fill="none" stroke="#63b8ff" d="M505.28,-164.99C533.01,-155.1 569.78,-141.98 596.2,-132.56"/>
<polygon fill="#63b8ff" stroke="#63b8ff" points="597.54,-135.8 605.78,-129.14 595.19,-129.2 597.54,-135.8"/>
</a>
</g>
</g>
</g>
</svg>

<g id="navigator" transform="translate(0 0)" fill="#404254">
  <rect fill="#f2f5e9" fill-opacity="0.5" stroke="#606060" stroke-width=".5" x="0" y="0" width="60" height="60"/>
  <use id="zoomplus" xlink:href="#zoomPlus" x="17" y="9" onmousedown="handleZoom(evt,'in')"/>
  <use id="zoomminus" xlink:href="#zoomMin" x="42" y="9" onmousedown="handleZoom(evt,'out')"/>
  <use id="reset" xlink:href="#resetDef" x="30" y="36" onmousedown="handleReset()"/>
   <use id="arrowup" xlink:href="#arrowUp" x="0" y="0" onmousedown="handlePan(0,-1)"/>
  <use id="arrowright" xlink:href="#arrowRight" x="0" y="0" onmousedown="handlePan(1,0)"/>
  <use id="arrowdown" xlink:href="#arrowDown" x="0" y="0" onmousedown="handlePan(0,1)"/>
  <use id="arrowleft" xlink:href="#arrowLeft" x="0" y="0" onmousedown="handlePan(-1,0)"/>
</g>
<svg viewBox="0 0 15 15" width="100%" height="30px" preserveAspectRatio="xMaxYMin meet">
 <g id="arrow_out" transform="scale(0.3 0.3)">
  <a xlink:href="ViewportManager_8cpp__incl_org.svg" target="_base">
   <rect id="button" ry="5" rx="5" y="6" x="6" height="38" width="38"
        fill="#f2f5e9" fill-opacity="0.5" stroke="#606060" stroke-width="1.0"/>
   <path id="arrow"
     d="M 11.500037,31.436501 C 11.940474,20.09759 22.043105,11.32322 32.158766,21.979434 L 37.068811,17.246167 C 37.068811,17.246167 37.088388,32 37.088388,32 L 22.160133,31.978069 C 22.160133,31.978069 26.997745,27.140456 26.997745,27.140456 C 18.528582,18.264221 13.291696,25.230495 11.500037,31.436501 z"
     style="fill:#404040;"/>
  </a>
 </g>
</svg>

<style type='text/css'>
<![CDATA[
[data-mouse-over-selected='false'] { opacity: 0.7; }
[data-mouse-over-selected='true']  { opacity: 1.0; }
]]>
</style>
<script type="application/ecmascript"><![CDATA[
document.addEventListener('DOMContentLoaded', (event) => {
  highlightEdges();
  highlightAdjacentNodes();
});
]]></script>
</svg>
