<?xml version="1.0" encoding="UTF-8" standalone="no"?>
<!DOCTYPE svg PUBLIC "-//W3C//DTD SVG 1.1//EN"
 "http://www.w3.org/Graphics/SVG/1.1/DTD/svg11.dtd">
<!-- Generated by graphviz version 2.43.0 (0)
 -->
<!-- Title: src/controllers/src/ViewportInteractorStyle.cpp Pages: 1 -->
<svg width="1512pt" height="214pt"
 viewBox="0.00 0.00 1512.00 214.00" xmlns="http://www.w3.org/2000/svg" xmlns:xlink="http://www.w3.org/1999/xlink">
<g id="graph0" class="graph" transform="scale(1 1) rotate(0) translate(4 210)">
<title>src/controllers/src/ViewportInteractorStyle.cpp</title>
<!-- Node1 -->
<g id="Node000001" class="node">
<title>Node1</title>
<g id="a_Node000001"><a xlink:title=" ">
<polygon fill="#999999" stroke="#666666" points="748.5,-206 593.5,-206 593.5,-176 748.5,-176 748.5,-206"/>
<text text-anchor="start" x="601.5" y="-194" font-family="Helvetica,sans-Serif" font-size="10.00">src/controllers/src</text>
<text text-anchor="middle" x="671" y="-183" font-family="Helvetica,sans-Serif" font-size="10.00">/ViewportInteractorStyle.cpp</text>
</a>
</g>
</g>
<!-- Node2 -->
<g id="Node000002" class="node">
<title>Node2</title>
<g id="a_Node000002"><a xlink:href="ViewportInteractorStyle_8hpp.html" target="_top" xlink:title=" ">
<polygon fill="white" stroke="#666666" points="224,-140 62,-140 62,-110 224,-110 224,-140"/>
<text text-anchor="start" x="70" y="-128" font-family="Helvetica,sans-Serif" font-size="10.00">controllers/ViewportInteractor</text>
<text text-anchor="middle" x="143" y="-117" font-family="Helvetica,sans-Serif" font-size="10.00">Style.hpp</text>
</a>
</g>
</g>
<!-- Node1&#45;&gt;Node2 -->
<g id="edge1_Node000001_Node000002" class="edge">
<title>Node1&#45;&gt;Node2</title>
<g id="a_edge1_Node000001_Node000002"><a xlink:title=" ">
<path fill="none" stroke="#63b8ff" d="M593.34,-182.1C507.92,-173.19 366.33,-157.78 234.68,-140.19"/>
<polygon fill="#63b8ff" stroke="#63b8ff" points="234.79,-136.68 224.41,-138.82 233.86,-143.62 234.79,-136.68"/>
</a>
</g>
</g>
<!-- Node6 -->
<g id="Node000006" class="node">
<title>Node6</title>
<g id="a_Node000006"><a xlink:title=" ">
<polygon fill="#e0e0e0" stroke="#999999" points="339.5,-134.5 242.5,-134.5 242.5,-115.5 339.5,-115.5 339.5,-134.5"/>
<text text-anchor="middle" x="291" y="-122.5" font-family="Helvetica,sans-Serif" font-size="10.00">vtkImageActor.h</text>
</a>
</g>
</g>
<!-- Node1&#45;&gt;Node6 -->
<g id="edge5_Node000001_Node000006" class="edge">
<title>Node1&#45;&gt;Node6</title>
<g id="a_edge5_Node000001_Node000006"><a xlink:title=" ">
<path fill="none" stroke="#63b8ff" d="M593.26,-179.77C527.84,-170.72 431.97,-156.43 349,-140 344.23,-139.06 339.27,-137.99 334.33,-136.87"/>
<polygon fill="#63b8ff" stroke="#63b8ff" points="334.86,-133.4 324.33,-134.54 333.27,-140.22 334.86,-133.4"/>
</a>
</g>
</g>
<!-- Node7 -->
<g id="Node000007" class="node">
<title>Node7</title>
<g id="a_Node000007"><a xlink:title=" ">
<polygon fill="#e0e0e0" stroke="#999999" points="470,-134.5 358,-134.5 358,-115.5 470,-115.5 470,-134.5"/>
<text text-anchor="middle" x="414" y="-122.5" font-family="Helvetica,sans-Serif" font-size="10.00">vtkImageProperty.h</text>
</a>
</g>
</g>
<!-- Node1&#45;&gt;Node7 -->
<g id="edge6_Node000001_Node000007" class="edge">
<title>Node1&#45;&gt;Node7</title>
<g id="a_edge6_Node000001_Node000007"><a xlink:title=" ">
<path fill="none" stroke="#63b8ff" d="M614.6,-175.95C567.54,-164.24 501.42,-147.77 458.15,-136.99"/>
<polygon fill="#63b8ff" stroke="#63b8ff" points="458.75,-133.54 448.2,-134.52 457.06,-140.33 458.75,-133.54"/>
</a>
</g>
</g>
<!-- Node8 -->
<g id="Node000008" class="node">
<title>Node8</title>
<g id="a_Node000008"><a xlink:title=" ">
<polygon fill="#e0e0e0" stroke="#999999" points="595.5,-134.5 488.5,-134.5 488.5,-115.5 595.5,-115.5 595.5,-134.5"/>
<text text-anchor="middle" x="542" y="-122.5" font-family="Helvetica,sans-Serif" font-size="10.00">vtkObjectFactory.h</text>
</a>
</g>
</g>
<!-- Node1&#45;&gt;Node8 -->
<g id="edge7_Node000001_Node000008" class="edge">
<title>Node1&#45;&gt;Node8</title>
<g id="a_edge7_Node000001_Node000008"><a xlink:title=" ">
<path fill="none" stroke="#63b8ff" d="M642.69,-175.95C620.57,-164.98 590.04,-149.83 568.42,-139.11"/>
<polygon fill="#63b8ff" stroke="#63b8ff" points="569.68,-135.83 559.17,-134.52 566.57,-142.1 569.68,-135.83"/>
</a>
</g>
</g>
<!-- Node9 -->
<g id="Node000009" class="node">
<title>Node9</title>
<g id="a_Node000009"><a xlink:title=" ">
<polygon fill="#e0e0e0" stroke="#999999" points="728,-134.5 614,-134.5 614,-115.5 728,-115.5 728,-134.5"/>
<text text-anchor="middle" x="671" y="-122.5" font-family="Helvetica,sans-Serif" font-size="10.00">vtkRenderWindow.h</text>
</a>
</g>
</g>
<!-- Node1&#45;&gt;Node9 -->
<g id="edge8_Node000001_Node000009" class="edge">
<title>Node1&#45;&gt;Node9</title>
<g id="a_edge8_Node000001_Node000009"><a xlink:title=" ">
<path fill="none" stroke="#63b8ff" d="M671,-175.8C671,-166.7 671,-154.79 671,-144.9"/>
<polygon fill="#63b8ff" stroke="#63b8ff" points="674.5,-144.84 671,-134.84 667.5,-144.84 674.5,-144.84"/>
</a>
</g>
</g>
<!-- Node10 -->
<g id="Node000010" class="node">
<title>Node10</title>
<g id="a_Node000010"><a xlink:title=" ">
<polygon fill="#e0e0e0" stroke="#999999" points="907.5,-134.5 746.5,-134.5 746.5,-115.5 907.5,-115.5 907.5,-134.5"/>
<text text-anchor="middle" x="827" y="-122.5" font-family="Helvetica,sans-Serif" font-size="10.00">vtkRenderWindowInteractor.h</text>
</a>
</g>
</g>
<!-- Node1&#45;&gt;Node10 -->
<g id="edge9_Node000001_Node000010" class="edge">
<title>Node1&#45;&gt;Node10</title>
<g id="a_edge9_Node000001_Node000010"><a xlink:title=" ">
<path fill="none" stroke="#63b8ff" d="M705.23,-175.95C732.59,-164.73 770.57,-149.15 796.81,-138.39"/>
<polygon fill="#63b8ff" stroke="#63b8ff" points="798.32,-141.55 806.24,-134.52 795.66,-135.07 798.32,-141.55"/>
</a>
</g>
</g>
<!-- Node11 -->
<g id="Node000011" class="node">
<title>Node11</title>
<g id="a_Node000011"><a xlink:title=" ">
<polygon fill="#e0e0e0" stroke="#999999" points="1010.5,-134.5 925.5,-134.5 925.5,-115.5 1010.5,-115.5 1010.5,-134.5"/>
<text text-anchor="middle" x="968" y="-122.5" font-family="Helvetica,sans-Serif" font-size="10.00">vtkRenderer.h</text>
</a>
</g>
</g>
<!-- Node1&#45;&gt;Node11 -->
<g id="edge10_Node000001_Node000011" class="edge">
<title>Node1&#45;&gt;Node11</title>
<g id="a_edge10_Node000001_Node000011"><a xlink:title=" ">
<path fill="none" stroke="#63b8ff" d="M745.78,-175.98C794.43,-166.55 859.18,-153.43 916,-140 919.83,-139.09 923.81,-138.11 927.78,-137.09"/>
<polygon fill="#63b8ff" stroke="#63b8ff" points="928.77,-140.45 937.56,-134.53 927,-133.68 928.77,-140.45"/>
</a>
</g>
</g>
<!-- Node12 -->
<g id="Node000012" class="node">
<title>Node12</title>
<g id="a_Node000012"><a xlink:title=" ">
<polygon fill="#e0e0e0" stroke="#999999" points="1169,-134.5 1029,-134.5 1029,-115.5 1169,-115.5 1169,-134.5"/>
<text text-anchor="middle" x="1099" y="-122.5" font-family="Helvetica,sans-Serif" font-size="10.00">vtkResliceImageViewer.h</text>
</a>
</g>
</g>
<!-- Node1&#45;&gt;Node12 -->
<g id="edge11_Node000001_Node000012" class="edge">
<title>Node1&#45;&gt;Node12</title>
<g id="a_edge11_Node000001_Node000012"><a xlink:title=" ">
<path fill="none" stroke="#63b8ff" d="M748.5,-179.56C819.1,-169.88 926.17,-154.79 1019,-140 1026.36,-138.83 1034.09,-137.54 1041.72,-136.24"/>
<polygon fill="#63b8ff" stroke="#63b8ff" points="1042.4,-139.68 1051.66,-134.53 1041.21,-132.78 1042.4,-139.68"/>
</a>
</g>
</g>
<!-- Node13 -->
<g id="Node000013" class="node">
<title>Node13</title>
<g id="a_Node000013"><a xlink:href="RenderScheduler_8hpp.html" target="_top" xlink:title=" ">
<polygon fill="white" stroke="#666666" points="1341,-134.5 1187,-134.5 1187,-115.5 1341,-115.5 1341,-134.5"/>
<text text-anchor="middle" x="1264" y="-122.5" font-family="Helvetica,sans-Serif" font-size="10.00">render/RenderScheduler.hpp</text>
</a>
</g>
</g>
<!-- Node1&#45;&gt;Node13 -->
<g id="edge12_Node000001_Node000013" class="edge">
<title>Node1&#45;&gt;Node13</title>
<g id="a_edge12_Node000001_Node000013"><a xlink:title=" ">
<path fill="none" stroke="#63b8ff" d="M748.91,-183.85C848.59,-175.63 1026.49,-159.78 1178,-140 1186.72,-138.86 1195.91,-137.52 1204.91,-136.12"/>
<polygon fill="#63b8ff" stroke="#63b8ff" points="1205.63,-139.55 1214.96,-134.53 1204.54,-132.64 1205.63,-139.55"/>
</a>
</g>
</g>
<!-- Node3 -->
<g id="Node000003" class="node">
<title>Node3</title>
<g id="a_Node000003"><a xlink:title=" ">
<polygon fill="#e0e0e0" stroke="#999999" points="144,-74 0,-74 0,-55 144,-55 144,-74"/>
<text text-anchor="middle" x="72" y="-62" font-family="Helvetica,sans-Serif" font-size="10.00">vtkInteractorStyleImage.h</text>
</a>
</g>
</g>
<!-- Node2&#45;&gt;Node3 -->
<g id="edge2_Node000002_Node000003" class="edge">
<title>Node2&#45;&gt;Node3</title>
<g id="a_edge2_Node000002_Node000003"><a xlink:title=" ">
<path fill="none" stroke="#63b8ff" d="M125.81,-109.84C115.19,-101.09 101.56,-89.85 90.67,-80.88"/>
<polygon fill="#63b8ff" stroke="#63b8ff" points="92.58,-77.92 82.64,-74.27 88.13,-83.33 92.58,-77.92"/>
</a>
</g>
</g>
<!-- Node4 -->
<g id="Node000004" class="node">
<title>Node4</title>
<g id="a_Node000004"><a xlink:title=" ">
<polygon fill="#e0e0e0" stroke="#999999" points="266,-74 162,-74 162,-55 266,-55 266,-74"/>
<text text-anchor="middle" x="214" y="-62" font-family="Helvetica,sans-Serif" font-size="10.00">vtkSmartPointer.h</text>
</a>
</g>
</g>
<!-- Node2&#45;&gt;Node4 -->
<g id="edge3_Node000002_Node000004" class="edge">
<title>Node2&#45;&gt;Node4</title>
<g id="a_edge3_Node000002_Node000004"><a xlink:title=" ">
<path fill="none" stroke="#63b8ff" d="M160.19,-109.84C170.81,-101.09 184.44,-89.85 195.33,-80.88"/>
<polygon fill="#63b8ff" stroke="#63b8ff" points="197.87,-83.33 203.36,-74.27 193.42,-77.92 197.87,-83.33"/>
</a>
</g>
</g>
<!-- Node5 -->
<g id="Node000005" class="node">
<title>Node5</title>
<g id="a_Node000005"><a xlink:title=" ">
<polygon fill="#e0e0e0" stroke="#999999" points="755.5,-74 708.5,-74 708.5,-55 755.5,-55 755.5,-74"/>
<text text-anchor="middle" x="732" y="-62" font-family="Helvetica,sans-Serif" font-size="10.00">vector</text>
</a>
</g>
</g>
<!-- Node2&#45;&gt;Node5 -->
<g id="edge4_Node000002_Node000005" class="edge">
<title>Node2&#45;&gt;Node5</title>
<g id="a_edge4_Node000002_Node000005"><a xlink:title=" ">
<path fill="none" stroke="#63b8ff" d="M224.4,-111.09C227.3,-110.71 230.17,-110.35 233,-110 407.54,-88.66 617.62,-73.27 698.24,-67.75"/>
<polygon fill="#63b8ff" stroke="#63b8ff" points="698.57,-71.23 708.31,-67.06 698.09,-64.25 698.57,-71.23"/>
</a>
</g>
</g>
<!-- Node13&#45;&gt;Node5 -->
<g id="edge16_Node000013_Node000005" class="edge">
<title>Node13&#45;&gt;Node5</title>
<g id="a_edge16_Node000013_Node000005"><a xlink:title=" ">
<path fill="none" stroke="#63b8ff" d="M1214.96,-115.48C1202.9,-113.53 1190,-111.57 1178,-110 1024.67,-89.89 840.63,-74.19 765.96,-68.17"/>
<polygon fill="#63b8ff" stroke="#63b8ff" points="766,-64.66 755.75,-67.35 765.44,-71.64 766,-64.66"/>
</a>
</g>
</g>
<!-- Node14 -->
<g id="Node000014" class="node">
<title>Node14</title>
<g id="a_Node000014"><a xlink:title=" ">
<polygon fill="#e0e0e0" stroke="#999999" points="1325.5,-19 1272.5,-19 1272.5,0 1325.5,0 1325.5,-19"/>
<text text-anchor="middle" x="1299" y="-7" font-family="Helvetica,sans-Serif" font-size="10.00">cstddef</text>
</a>
</g>
</g>
<!-- Node13&#45;&gt;Node14 -->
<g id="edge13_Node000013_Node000014" class="edge">
<title>Node13&#45;&gt;Node14</title>
<g id="a_edge13_Node000013_Node000014"><a xlink:title=" ">
<path fill="none" stroke="#63b8ff" d="M1237.93,-115.45C1207.2,-103.93 1162.51,-81.74 1181,-55 1199.17,-28.73 1234.94,-17.95 1262.36,-13.54"/>
<polygon fill="#63b8ff" stroke="#63b8ff" points="1262.98,-16.98 1272.4,-12.14 1262.02,-10.05 1262.98,-16.98"/>
</a>
</g>
</g>
<!-- Node15 -->
<g id="Node000015" class="node">
<title>Node15</title>
<g id="a_Node000015"><a xlink:title=" ">
<polygon fill="#e0e0e0" stroke="#999999" points="1248,-74 1190,-74 1190,-55 1248,-55 1248,-74"/>
<text text-anchor="middle" x="1219" y="-62" font-family="Helvetica,sans-Serif" font-size="10.00">memory</text>
</a>
</g>
</g>
<!-- Node13&#45;&gt;Node15 -->
<g id="edge14_Node000013_Node000015" class="edge">
<title>Node13&#45;&gt;Node15</title>
<g id="a_edge14_Node000013_Node000015"><a xlink:title=" ">
<path fill="none" stroke="#63b8ff" d="M1257.36,-115.37C1250.71,-106.73 1240.31,-93.2 1232.01,-82.42"/>
<polygon fill="#63b8ff" stroke="#63b8ff" points="1234.54,-79.96 1225.67,-74.17 1228.99,-84.23 1234.54,-79.96"/>
</a>
</g>
</g>
<!-- Node16 -->
<g id="Node000016" class="node">
<title>Node16</title>
<g id="a_Node000016"><a xlink:title=" ">
<polygon fill="#e0e0e0" stroke="#999999" points="1352,-74 1266,-74 1266,-55 1352,-55 1352,-74"/>
<text text-anchor="middle" x="1309" y="-62" font-family="Helvetica,sans-Serif" font-size="10.00">unordered_set</text>
</a>
</g>
</g>
<!-- Node13&#45;&gt;Node16 -->
<g id="edge15_Node000013_Node000016" class="edge">
<title>Node13&#45;&gt;Node16</title>
<g id="a_edge15_Node000013_Node000016"><a xlink:title=" ">
<path fill="none" stroke="#63b8ff" d="M1270.64,-115.37C1277.29,-106.73 1287.69,-93.2 1295.99,-82.42"/>
<polygon fill="#63b8ff" stroke="#63b8ff" points="1299.01,-84.23 1302.33,-74.17 1293.46,-79.96 1299.01,-84.23"/>
</a>
</g>
</g>
<!-- Node17 -->
<g id="Node000017" class="node">
<title>Node17</title>
<g id="a_Node000017"><a xlink:href="RenderTypes_8hpp.html" target="_top" xlink:title=" ">
<polygon fill="white" stroke="#666666" points="1504,-74 1370,-74 1370,-55 1504,-55 1504,-74"/>
<text text-anchor="middle" x="1437" y="-62" font-family="Helvetica,sans-Serif" font-size="10.00">render/RenderTypes.hpp</text>
</a>
</g>
</g>
<!-- Node13&#45;&gt;Node17 -->
<g id="edge17_Node000013_Node000017" class="edge">
<title>Node13&#45;&gt;Node17</title>
<g id="a_edge17_Node000013_Node000017"><a xlink:title=" ">
<path fill="none" stroke="#63b8ff" d="M1289.16,-115.49C1318.88,-105.44 1368.52,-88.66 1401.99,-77.34"/>
<polygon fill="#63b8ff" stroke="#63b8ff" points="1403.46,-80.54 1411.81,-74.02 1401.22,-73.9 1403.46,-80.54"/>
</a>
</g>
</g>
<!-- Node17&#45;&gt;Node14 -->
<g id="edge18_Node000017_Node000014" class="edge">
<title>Node17&#45;&gt;Node14</title>
<g id="a_edge18_Node000017_Node000014"><a xlink:title=" ">
<path fill="none" stroke="#63b8ff" d="M1414.83,-54.98C1392.23,-46.3 1356.94,-32.75 1331.25,-22.88"/>
<polygon fill="#63b8ff" stroke="#63b8ff" points="1332.17,-19.49 1321.58,-19.17 1329.66,-26.02 1332.17,-19.49"/>
</a>
</g>
</g>
</g>
</svg>
