<?xml version="1.0" encoding="UTF-8" standalone="no"?>
<!DOCTYPE svg PUBLIC "-//W3C//DTD SVG 1.1//EN"
 "http://www.w3.org/Graphics/SVG/1.1/DTD/svg11.dtd">
<!-- Generated by graphviz version 2.43.0 (0)
 -->
<!-- Title: src/ui/include/ui/ViewportView.hpp Pages: 1 -->
<svg width="1814pt" height="379pt"
 viewBox="0.00 0.00 1813.50 379.00" xmlns="http://www.w3.org/2000/svg" xmlns:xlink="http://www.w3.org/1999/xlink">
<g id="graph0" class="graph" transform="scale(1 1) rotate(0) translate(4 375)">
<title>src/ui/include/ui/ViewportView.hpp</title>
<!-- Node1 -->
<g id="Node000001" class="node">
<title>Node1</title>
<g id="a_Node000001"><a xlink:title=" ">
<polygon fill="#999999" stroke="#666666" points="624,-371 484,-371 484,-341 624,-341 624,-371"/>
<text text-anchor="start" x="492" y="-359" font-family="Helvetica,sans-Serif" font-size="10.00">src/ui/include/ui/Viewport</text>
<text text-anchor="middle" x="554" y="-348" font-family="Helvetica,sans-Serif" font-size="10.00">View.hpp</text>
</a>
</g>
</g>
<!-- Node2 -->
<g id="Node000002" class="node">
<title>Node2</title>
<g id="a_Node000002"><a xlink:title=" ">
<polygon fill="#e0e0e0" stroke="#999999" points="286,-134.5 228,-134.5 228,-115.5 286,-115.5 286,-134.5"/>
<text text-anchor="middle" x="257" y="-122.5" font-family="Helvetica,sans-Serif" font-size="10.00">memory</text>
</a>
</g>
</g>
<!-- Node1&#45;&gt;Node2 -->
<g id="edge1_Node000001_Node000002" class="edge">
<title>Node1&#45;&gt;Node2</title>
<g id="a_edge1_Node000001_Node000002"><a xlink:title=" ">
<path fill="none" stroke="#63b8ff" d="M483.68,-343.61C355.78,-321.3 93.43,-267.61 41,-195 8.59,-150.12 32.04,-193.01 219,-140 221.28,-139.35 223.62,-138.63 225.97,-137.87"/>
<polygon fill="#63b8ff" stroke="#63b8ff" points="227.18,-141.16 235.49,-134.58 224.89,-134.54 227.18,-141.16"/>
</a>
</g>
</g>
<!-- Node3 -->
<g id="Node000003" class="node">
<title>Node3</title>
<g id="a_Node000003"><a xlink:title=" ">
<polygon fill="#e0e0e0" stroke="#999999" points="705.5,-134.5 658.5,-134.5 658.5,-115.5 705.5,-115.5 705.5,-134.5"/>
<text text-anchor="middle" x="682" y="-122.5" font-family="Helvetica,sans-Serif" font-size="10.00">vector</text>
</a>
</g>
</g>
<!-- Node1&#45;&gt;Node3 -->
<g id="edge2_Node000001_Node000003" class="edge">
<title>Node1&#45;&gt;Node3</title>
<g id="a_edge2_Node000001_Node000003"><a xlink:title=" ">
<path fill="none" stroke="#63b8ff" d="M556.96,-340.74C564.14,-308.67 584.94,-229.53 625,-176 635.15,-162.43 649.51,-149.86 661.28,-140.72"/>
<polygon fill="#63b8ff" stroke="#63b8ff" points="663.39,-143.51 669.29,-134.71 659.19,-137.91 663.39,-143.51"/>
</a>
</g>
</g>
<!-- Node4 -->
<g id="Node000004" class="node">
<title>Node4</title>
<g id="a_Node000004"><a xlink:href="ViewportController_8hpp.html" target="_top" xlink:title=" ">
<polygon fill="white" stroke="#666666" points="765.5,-305 582.5,-305 582.5,-286 765.5,-286 765.5,-305"/>
<text text-anchor="middle" x="674" y="-293" font-family="Helvetica,sans-Serif" font-size="10.00">controllers/ViewportController.hpp</text>
</a>
</g>
</g>
<!-- Node1&#45;&gt;Node4 -->
<g id="edge3_Node000001_Node000004" class="edge">
<title>Node1&#45;&gt;Node4</title>
<g id="a_edge3_Node000001_Node000004"><a xlink:title=" ">
<path fill="none" stroke="#63b8ff" d="M582.74,-340.99C602.32,-331.45 628.05,-318.9 647.2,-309.57"/>
<polygon fill="#63b8ff" stroke="#63b8ff" points="648.82,-312.67 656.28,-305.14 645.76,-306.38 648.82,-312.67"/>
</a>
</g>
</g>
<!-- Node20 -->
<g id="Node000020" class="node">
<title>Node20</title>
<g id="a_Node000020"><a xlink:href="ILayoutTarget_8hpp.html" target="_top" xlink:title=" ">
<polygon fill="white" stroke="#666666" points="498,-305 382,-305 382,-286 498,-286 498,-305"/>
<text text-anchor="middle" x="440" y="-293" font-family="Helvetica,sans-Serif" font-size="10.00">ui/ILayoutTarget.hpp</text>
</a>
</g>
</g>
<!-- Node1&#45;&gt;Node20 -->
<g id="edge34_Node000001_Node000020" class="edge">
<title>Node1&#45;&gt;Node20</title>
<g id="a_edge34_Node000001_Node000020"><a xlink:title=" ">
<path fill="none" stroke="#63b8ff" d="M526.69,-340.99C508.35,-331.58 484.32,-319.24 466.21,-309.95"/>
<polygon fill="#63b8ff" stroke="#63b8ff" points="467.33,-306.59 456.84,-305.14 464.13,-312.82 467.33,-306.59"/>
</a>
</g>
</g>
<!-- Node22 -->
<g id="Node000022" class="node">
<title>Node22</title>
<g id="a_Node000022"><a xlink:href="IView_8hpp.html" target="_top" xlink:title=" ">
<polygon fill="white" stroke="#666666" points="1365,-195 1289,-195 1289,-176 1365,-176 1365,-195"/>
<text text-anchor="middle" x="1327" y="-183" font-family="Helvetica,sans-Serif" font-size="10.00">ui/IView.hpp</text>
</a>
</g>
</g>
<!-- Node1&#45;&gt;Node22 -->
<g id="edge40_Node000001_Node000022" class="edge">
<title>Node1&#45;&gt;Node22</title>
<g id="a_edge40_Node000001_Node000022"><a xlink:title=" ">
<path fill="none" stroke="#63b8ff" d="M624.17,-355.64C752.48,-354.4 1031.3,-340.44 1244,-250 1270.45,-238.76 1295.94,-217.12 1311.54,-202.25"/>
<polygon fill="#63b8ff" stroke="#63b8ff" points="1314.05,-204.69 1318.74,-195.18 1309.15,-199.69 1314.05,-204.69"/>
</a>
</g>
</g>
<!-- Node4&#45;&gt;Node3 -->
<g id="edge5_Node000004_Node000003" class="edge">
<title>Node4&#45;&gt;Node3</title>
<g id="a_edge5_Node000004_Node000003"><a xlink:title=" ">
<path fill="none" stroke="#63b8ff" d="M654.42,-285.98C640.33,-278.68 622.4,-266.68 614,-250 610.2,-242.46 611.97,-239.2 614,-231 622.77,-195.56 649.35,-161.38 666.56,-142.09"/>
<polygon fill="#63b8ff" stroke="#63b8ff" points="669.31,-144.28 673.5,-134.55 664.15,-139.54 669.31,-144.28"/>
</a>
</g>
</g>
<!-- Node5 -->
<g id="Node000005" class="node">
<title>Node5</title>
<g id="a_Node000005"><a xlink:title=" ">
<polygon fill="#e0e0e0" stroke="#999999" points="1029,-74 973,-74 973,-55 1029,-55 1029,-74"/>
<text text-anchor="middle" x="1001" y="-62" font-family="Helvetica,sans-Serif" font-size="10.00">QObject</text>
</a>
</g>
</g>
<!-- Node4&#45;&gt;Node5 -->
<g id="edge4_Node000004_Node000005" class="edge">
<title>Node4&#45;&gt;Node5</title>
<g id="a_edge4_Node000004_Node000005"><a xlink:title=" ">
<path fill="none" stroke="#63b8ff" d="M749.98,-285.99C871.04,-271.32 1101.07,-238.61 1170,-195 1205.44,-172.58 1237.41,-142.59 1211,-110 1208.28,-106.64 1098.94,-84.73 1039.14,-72.95"/>
<polygon fill="#63b8ff" stroke="#63b8ff" points="1039.78,-69.51 1029.29,-71.02 1038.43,-76.38 1039.78,-69.51"/>
</a>
</g>
</g>
<!-- Node6 -->
<g id="Node000006" class="node">
<title>Node6</title>
<g id="a_Node000006"><a xlink:href="ViewportConfig_8hpp.html" target="_top" xlink:title=" ">
<polygon fill="white" stroke="#666666" points="239.5,-195 50.5,-195 50.5,-176 239.5,-176 239.5,-195"/>
<text text-anchor="middle" x="145" y="-183" font-family="Helvetica,sans-Serif" font-size="10.00">XQVtkViewport/ViewportConfig.hpp</text>
</a>
</g>
</g>
<!-- Node4&#45;&gt;Node6 -->
<g id="edge6_Node000004_Node000006" class="edge">
<title>Node4&#45;&gt;Node6</title>
<g id="a_edge6_Node000004_Node000006"><a xlink:title=" ">
<path fill="none" stroke="#63b8ff" d="M654.52,-285.91C622.37,-272.11 555.89,-245.11 497,-231 415.21,-211.41 320.54,-200.06 249.99,-193.73"/>
<polygon fill="#63b8ff" stroke="#63b8ff" points="250.03,-190.22 239.76,-192.83 249.42,-197.19 250.03,-190.22"/>
</a>
</g>
</g>
<!-- Node10 -->
<g id="Node000010" class="node">
<title>Node10</title>
<g id="a_Node000010"><a xlink:href="IViewController_8hpp.html" target="_top" xlink:title=" ">
<polygon fill="white" stroke="#666666" points="789.5,-250 622.5,-250 622.5,-231 789.5,-231 789.5,-250"/>
<text text-anchor="middle" x="706" y="-238" font-family="Helvetica,sans-Serif" font-size="10.00">controllers/IViewController.hpp</text>
</a>
</g>
</g>
<!-- Node4&#45;&gt;Node10 -->
<g id="edge10_Node000004_Node000010" class="edge">
<title>Node4&#45;&gt;Node10</title>
<g id="a_edge10_Node000004_Node000010"><a xlink:title=" ">
<path fill="none" stroke="#63b8ff" d="M679.28,-285.75C683.71,-278.42 690.16,-267.73 695.62,-258.7"/>
<polygon fill="#63b8ff" stroke="#63b8ff" points="698.64,-260.46 700.81,-250.09 692.65,-256.84 698.64,-260.46"/>
</a>
</g>
</g>
<!-- Node7 -->
<g id="Node000007" class="node">
<title>Node7</title>
<g id="a_Node000007"><a xlink:title=" ">
<polygon fill="#e0e0e0" stroke="#999999" points="640,-134.5 598,-134.5 598,-115.5 640,-115.5 640,-134.5"/>
<text text-anchor="middle" x="619" y="-122.5" font-family="Helvetica,sans-Serif" font-size="10.00">array</text>
</a>
</g>
</g>
<!-- Node6&#45;&gt;Node7 -->
<g id="edge7_Node000006_Node000007" class="edge">
<title>Node6&#45;&gt;Node7</title>
<g id="a_edge7_Node000006_Node000007"><a xlink:title=" ">
<path fill="none" stroke="#63b8ff" d="M239.67,-178.75C350.03,-171.39 525.41,-157.48 589,-140 590.49,-139.59 592,-139.11 593.5,-138.59"/>
<polygon fill="#63b8ff" stroke="#63b8ff" points="595.28,-141.64 603.19,-134.59 592.61,-135.17 595.28,-141.64"/>
</a>
</g>
</g>
<!-- Node8 -->
<g id="Node000008" class="node">
<title>Node8</title>
<g id="a_Node000008"><a xlink:title=" ">
<polygon fill="#e0e0e0" stroke="#999999" points="44,-134.5 0,-134.5 0,-115.5 44,-115.5 44,-134.5"/>
<text text-anchor="middle" x="22" y="-122.5" font-family="Helvetica,sans-Serif" font-size="10.00">string</text>
</a>
</g>
</g>
<!-- Node6&#45;&gt;Node8 -->
<g id="edge8_Node000006_Node000008" class="edge">
<title>Node6&#45;&gt;Node8</title>
<g id="a_edge8_Node000006_Node000008"><a xlink:title=" ">
<path fill="none" stroke="#63b8ff" d="M127.11,-175.99C106.62,-166.25 72.81,-150.16 49.08,-138.88"/>
<polygon fill="#63b8ff" stroke="#63b8ff" points="50.44,-135.65 39.91,-134.52 47.43,-141.97 50.44,-135.65"/>
</a>
</g>
</g>
<!-- Node9 -->
<g id="Node000009" class="node">
<title>Node9</title>
<g id="a_Node000009"><a xlink:title=" ">
<polygon fill="#e0e0e0" stroke="#999999" points="210.5,-134.5 61.5,-134.5 61.5,-115.5 210.5,-115.5 210.5,-134.5"/>
<text text-anchor="middle" x="136" y="-122.5" font-family="Helvetica,sans-Serif" font-size="10.00">XQVtkViewport_export.hpp</text>
</a>
</g>
</g>
<!-- Node6&#45;&gt;Node9 -->
<g id="edge9_Node000006_Node000009" class="edge">
<title>Node6&#45;&gt;Node9</title>
<g id="a_edge9_Node000006_Node000009"><a xlink:title=" ">
<path fill="none" stroke="#63b8ff" d="M143.67,-175.87C142.41,-167.66 140.47,-155.04 138.85,-144.55"/>
<polygon fill="#63b8ff" stroke="#63b8ff" points="142.31,-144.02 137.33,-134.67 135.39,-145.08 142.31,-144.02"/>
</a>
</g>
</g>
<!-- Node10&#45;&gt;Node2 -->
<g id="edge13_Node000010_Node000002" class="edge">
<title>Node10&#45;&gt;Node2</title>
<g id="a_edge13_Node000010_Node000002"><a xlink:title=" ">
<path fill="none" stroke="#63b8ff" d="M622.25,-235.1C507.73,-228.41 313.39,-214.37 287,-195 270.92,-183.19 263.34,-160.91 259.85,-144.86"/>
<polygon fill="#63b8ff" stroke="#63b8ff" points="263.28,-144.15 258.04,-134.94 256.4,-145.41 263.28,-144.15"/>
</a>
</g>
</g>
<!-- Node10&#45;&gt;Node3 -->
<g id="edge14_Node000010_Node000003" class="edge">
<title>Node10&#45;&gt;Node3</title>
<g id="a_edge14_Node000010_Node000003"><a xlink:title=" ">
<path fill="none" stroke="#63b8ff" d="M688.23,-230.96C674.99,-223.51 657.88,-211.33 650,-195 641.27,-176.91 654.22,-155.95 666.16,-141.92"/>
<polygon fill="#63b8ff" stroke="#63b8ff" points="668.75,-144.28 672.91,-134.54 663.58,-139.56 668.75,-144.28"/>
</a>
</g>
</g>
<!-- Node11 -->
<g id="Node000011" class="node">
<title>Node11</title>
<g id="a_Node000011"><a xlink:title=" ">
<polygon fill="#e0e0e0" stroke="#999999" points="753.5,-195 658.5,-195 658.5,-176 753.5,-176 753.5,-195"/>
<text text-anchor="middle" x="706" y="-183" font-family="Helvetica,sans-Serif" font-size="10.00">vtkImageData.h</text>
</a>
</g>
</g>
<!-- Node10&#45;&gt;Node11 -->
<g id="edge11_Node000010_Node000011" class="edge">
<title>Node10&#45;&gt;Node11</title>
<g id="a_edge11_Node000010_Node000011"><a xlink:title=" ">
<path fill="none" stroke="#63b8ff" d="M706,-230.75C706,-223.8 706,-213.85 706,-205.13"/>
<polygon fill="#63b8ff" stroke="#63b8ff" points="709.5,-205.09 706,-195.09 702.5,-205.09 709.5,-205.09"/>
</a>
</g>
</g>
<!-- Node12 -->
<g id="Node000012" class="node">
<title>Node12</title>
<g id="a_Node000012"><a xlink:title=" ">
<polygon fill="#e0e0e0" stroke="#999999" points="1202,-134.5 1098,-134.5 1098,-115.5 1202,-115.5 1202,-134.5"/>
<text text-anchor="middle" x="1150" y="-122.5" font-family="Helvetica,sans-Serif" font-size="10.00">vtkSmartPointer.h</text>
</a>
</g>
</g>
<!-- Node10&#45;&gt;Node12 -->
<g id="edge12_Node000010_Node000012" class="edge">
<title>Node10&#45;&gt;Node12</title>
<g id="a_edge12_Node000010_Node000012"><a xlink:title=" ">
<path fill="none" stroke="#63b8ff" d="M789.54,-237.1C911.95,-232.71 1128.19,-221.3 1152,-195 1164.15,-181.57 1161.26,-159.95 1156.85,-144.49"/>
<polygon fill="#63b8ff" stroke="#63b8ff" points="1160.16,-143.36 1153.72,-134.95 1153.51,-145.54 1160.16,-143.36"/>
</a>
</g>
</g>
<!-- Node13 -->
<g id="Node000013" class="node">
<title>Node13</title>
<g id="a_Node000013"><a xlink:href="IControllerBase_8hpp.html" target="_top" xlink:title=" ">
<polygon fill="white" stroke="#666666" points="1079.5,-134.5 912.5,-134.5 912.5,-115.5 1079.5,-115.5 1079.5,-134.5"/>
<text text-anchor="middle" x="996" y="-122.5" font-family="Helvetica,sans-Serif" font-size="10.00">controllers/IControllerBase.hpp</text>
</a>
</g>
</g>
<!-- Node10&#45;&gt;Node13 -->
<g id="edge15_Node000010_Node000013" class="edge">
<title>Node10&#45;&gt;Node13</title>
<g id="a_edge15_Node000010_Node000013"><a xlink:title=" ">
<path fill="none" stroke="#63b8ff" d="M789.54,-236.74C907.82,-231.96 1112.34,-220.13 1135,-195 1161.78,-165.3 1110.77,-146.84 1063.18,-136.58"/>
<polygon fill="#63b8ff" stroke="#63b8ff" points="1063.6,-133.09 1053.1,-134.51 1062.19,-139.95 1063.6,-133.09"/>
</a>
</g>
</g>
<!-- Node14 -->
<g id="Node000014" class="node">
<title>Node14</title>
<g id="a_Node000014"><a xlink:href="SliceController_8hpp.html" target="_top" xlink:title=" ">
<polygon fill="white" stroke="#666666" points="934.5,-195 771.5,-195 771.5,-176 934.5,-176 934.5,-195"/>
<text text-anchor="middle" x="853" y="-183" font-family="Helvetica,sans-Serif" font-size="10.00">controllers/SliceController.hpp</text>
</a>
</g>
</g>
<!-- Node10&#45;&gt;Node14 -->
<g id="edge17_Node000010_Node000014" class="edge">
<title>Node10&#45;&gt;Node14</title>
<g id="a_edge17_Node000010_Node000014"><a xlink:title=" ">
<path fill="none" stroke="#63b8ff" d="M729.62,-230.98C753.9,-222.23 791.95,-208.51 819.37,-198.62"/>
<polygon fill="#63b8ff" stroke="#63b8ff" points="820.73,-201.85 828.95,-195.17 818.36,-195.27 820.73,-201.85"/>
</a>
</g>
</g>
<!-- Node15 -->
<g id="Node000015" class="node">
<title>Node15</title>
<g id="a_Node000015"><a xlink:href="SphereController_8hpp.html" target="_top" xlink:title=" ">
<polygon fill="white" stroke="#666666" points="1125.5,-195 952.5,-195 952.5,-176 1125.5,-176 1125.5,-195"/>
<text text-anchor="middle" x="1039" y="-183" font-family="Helvetica,sans-Serif" font-size="10.00">controllers/SphereController.hpp</text>
</a>
</g>
</g>
<!-- Node10&#45;&gt;Node15 -->
<g id="edge22_Node000010_Node000015" class="edge">
<title>Node10&#45;&gt;Node15</title>
<g id="a_edge22_Node000010_Node000015"><a xlink:title=" ">
<path fill="none" stroke="#63b8ff" d="M759.5,-230.98C818.28,-221.63 912.63,-206.61 975.21,-196.65"/>
<polygon fill="#63b8ff" stroke="#63b8ff" points="976.03,-200.07 985.35,-195.04 974.93,-193.15 976.03,-200.07"/>
</a>
</g>
</g>
<!-- Node16 -->
<g id="Node000016" class="node">
<title>Node16</title>
<g id="a_Node000016"><a xlink:href="RenderScheduler_8hpp.html" target="_top" xlink:title=" ">
<polygon fill="white" stroke="#666666" points="450,-195 296,-195 296,-176 450,-176 450,-195"/>
<text text-anchor="middle" x="373" y="-183" font-family="Helvetica,sans-Serif" font-size="10.00">render/RenderScheduler.hpp</text>
</a>
</g>
</g>
<!-- Node10&#45;&gt;Node16 -->
<g id="edge27_Node000010_Node000016" class="edge">
<title>Node10&#45;&gt;Node16</title>
<g id="a_edge27_Node000010_Node000016"><a xlink:title=" ">
<path fill="none" stroke="#63b8ff" d="M652.5,-230.98C593.72,-221.63 499.37,-206.61 436.79,-196.65"/>
<polygon fill="#63b8ff" stroke="#63b8ff" points="437.07,-193.15 426.65,-195.04 435.97,-200.07 437.07,-193.15"/>
</a>
</g>
</g>
<!-- Node13&#45;&gt;Node5 -->
<g id="edge16_Node000013_Node000005" class="edge">
<title>Node13&#45;&gt;Node5</title>
<g id="a_edge16_Node000013_Node000005"><a xlink:title=" ">
<path fill="none" stroke="#63b8ff" d="M996.74,-115.37C997.43,-107.25 998.5,-94.81 999.39,-84.39"/>
<polygon fill="#63b8ff" stroke="#63b8ff" points="1002.89,-84.43 1000.26,-74.17 995.92,-83.83 1002.89,-84.43"/>
</a>
</g>
</g>
<!-- Node14&#45;&gt;Node3 -->
<g id="edge20_Node000014_Node000003" class="edge">
<title>Node14&#45;&gt;Node3</title>
<g id="a_edge20_Node000014_Node000003"><a xlink:title=" ">
<path fill="none" stroke="#63b8ff" d="M828.14,-175.99C798.33,-165.8 748.29,-148.68 715.2,-137.36"/>
<polygon fill="#63b8ff" stroke="#63b8ff" points="716.11,-133.97 705.52,-134.05 713.85,-140.59 716.11,-133.97"/>
</a>
</g>
</g>
<!-- Node14&#45;&gt;Node7 -->
<g id="edge19_Node000014_Node000007" class="edge">
<title>Node14&#45;&gt;Node7</title>
<g id="a_edge19_Node000014_Node000007"><a xlink:title=" ">
<path fill="none" stroke="#63b8ff" d="M799.61,-175.94C758.19,-168.55 699.66,-156.46 650,-140 648.6,-139.54 647.18,-139.03 645.75,-138.49"/>
<polygon fill="#63b8ff" stroke="#63b8ff" points="647.03,-135.23 636.45,-134.65 644.35,-141.7 647.03,-135.23"/>
</a>
</g>
</g>
<!-- Node14&#45;&gt;Node12 -->
<g id="edge18_Node000014_Node000012" class="edge">
<title>Node14&#45;&gt;Node12</title>
<g id="a_edge18_Node000014_Node000012"><a xlink:title=" ">
<path fill="none" stroke="#63b8ff" d="M901.47,-175.93C949.26,-167.35 1024.31,-153.52 1089,-140 1093.8,-139 1098.8,-137.91 1103.79,-136.81"/>
<polygon fill="#63b8ff" stroke="#63b8ff" points="1104.94,-140.14 1113.93,-134.53 1103.4,-133.31 1104.94,-140.14"/>
</a>
</g>
</g>
<!-- Node14&#45;&gt;Node13 -->
<g id="edge21_Node000014_Node000013" class="edge">
<title>Node14&#45;&gt;Node13</title>
<g id="a_edge21_Node000014_Node000013"><a xlink:title=" ">
<path fill="none" stroke="#63b8ff" d="M873.79,-175.99C897.94,-166.12 937.98,-149.73 965.62,-138.43"/>
<polygon fill="#63b8ff" stroke="#63b8ff" points="967.25,-141.54 975.18,-134.52 964.6,-135.06 967.25,-141.54"/>
</a>
</g>
</g>
<!-- Node15&#45;&gt;Node3 -->
<g id="edge25_Node000015_Node000003" class="edge">
<title>Node15&#45;&gt;Node3</title>
<g id="a_edge25_Node000015_Node000003"><a xlink:title=" ">
<path fill="none" stroke="#63b8ff" d="M987.09,-175.99C912.87,-163.83 778.49,-141.81 715.85,-131.55"/>
<polygon fill="#63b8ff" stroke="#63b8ff" points="716.15,-128.05 705.72,-129.89 715.02,-134.96 716.15,-128.05"/>
</a>
</g>
</g>
<!-- Node15&#45;&gt;Node7 -->
<g id="edge24_Node000015_Node000007" class="edge">
<title>Node15&#45;&gt;Node7</title>
<g id="a_edge24_Node000015_Node000007"><a xlink:title=" ">
<path fill="none" stroke="#63b8ff" d="M952.24,-176.01C846.51,-165.44 678.38,-147.83 650,-140 648.32,-139.54 646.61,-138.99 644.91,-138.39"/>
<polygon fill="#63b8ff" stroke="#63b8ff" points="645.96,-135.05 635.38,-134.54 643.33,-141.53 645.96,-135.05"/>
</a>
</g>
</g>
<!-- Node15&#45;&gt;Node12 -->
<g id="edge23_Node000015_Node000012" class="edge">
<title>Node15&#45;&gt;Node12</title>
<g id="a_edge23_Node000015_Node000012"><a xlink:title=" ">
<path fill="none" stroke="#63b8ff" d="M1055.38,-175.87C1073.58,-166.28 1103.2,-150.67 1124.45,-139.47"/>
<polygon fill="#63b8ff" stroke="#63b8ff" points="1126.34,-142.43 1133.55,-134.67 1123.08,-136.23 1126.34,-142.43"/>
</a>
</g>
</g>
<!-- Node15&#45;&gt;Node13 -->
<g id="edge26_Node000015_Node000013" class="edge">
<title>Node15&#45;&gt;Node13</title>
<g id="a_edge26_Node000015_Node000013"><a xlink:title=" ">
<path fill="none" stroke="#63b8ff" d="M1032.66,-175.87C1026.3,-167.23 1016.36,-153.7 1008.43,-142.92"/>
<polygon fill="#63b8ff" stroke="#63b8ff" points="1011.11,-140.65 1002.37,-134.67 1005.47,-144.8 1011.11,-140.65"/>
</a>
</g>
</g>
<!-- Node16&#45;&gt;Node2 -->
<g id="edge29_Node000016_Node000002" class="edge">
<title>Node16&#45;&gt;Node2</title>
<g id="a_edge29_Node000016_Node000002"><a xlink:title=" ">
<path fill="none" stroke="#63b8ff" d="M355.88,-175.87C336.78,-166.23 305.63,-150.53 283.4,-139.31"/>
<polygon fill="#63b8ff" stroke="#63b8ff" points="284.69,-136.05 274.19,-134.67 281.54,-142.3 284.69,-136.05"/>
</a>
</g>
</g>
<!-- Node16&#45;&gt;Node3 -->
<g id="edge31_Node000016_Node000003" class="edge">
<title>Node16&#45;&gt;Node3</title>
<g id="a_edge31_Node000016_Node000003"><a xlink:title=" ">
<path fill="none" stroke="#63b8ff" d="M450.24,-177.1C506.19,-170.52 583.24,-158.95 649,-140 650.88,-139.46 652.8,-138.84 654.72,-138.16"/>
<polygon fill="#63b8ff" stroke="#63b8ff" points="656.08,-141.39 664.13,-134.51 653.54,-134.87 656.08,-141.39"/>
</a>
</g>
</g>
<!-- Node17 -->
<g id="Node000017" class="node">
<title>Node17</title>
<g id="a_Node000017"><a xlink:title=" ">
<polygon fill="#e0e0e0" stroke="#999999" points="492.5,-74 439.5,-74 439.5,-55 492.5,-55 492.5,-74"/>
<text text-anchor="middle" x="466" y="-62" font-family="Helvetica,sans-Serif" font-size="10.00">cstddef</text>
</a>
</g>
</g>
<!-- Node16&#45;&gt;Node17 -->
<g id="edge28_Node000016_Node000017" class="edge">
<title>Node16&#45;&gt;Node17</title>
<g id="a_edge28_Node000016_Node000017"><a xlink:title=" ">
<path fill="none" stroke="#63b8ff" d="M379.69,-175.94C394.96,-156.4 432.64,-108.18 452.79,-82.4"/>
<polygon fill="#63b8ff" stroke="#63b8ff" points="455.72,-84.34 459.12,-74.3 450.21,-80.03 455.72,-84.34"/>
</a>
</g>
</g>
<!-- Node18 -->
<g id="Node000018" class="node">
<title>Node18</title>
<g id="a_Node000018"><a xlink:title=" ">
<polygon fill="#e0e0e0" stroke="#999999" points="390,-134.5 304,-134.5 304,-115.5 390,-115.5 390,-134.5"/>
<text text-anchor="middle" x="347" y="-122.5" font-family="Helvetica,sans-Serif" font-size="10.00">unordered_set</text>
</a>
</g>
</g>
<!-- Node16&#45;&gt;Node18 -->
<g id="edge30_Node000016_Node000018" class="edge">
<title>Node16&#45;&gt;Node18</title>
<g id="a_edge30_Node000016_Node000018"><a xlink:title=" ">
<path fill="none" stroke="#63b8ff" d="M369.16,-175.87C365.44,-167.49 359.67,-154.51 354.95,-143.89"/>
<polygon fill="#63b8ff" stroke="#63b8ff" points="358.11,-142.38 350.85,-134.67 351.72,-145.23 358.11,-142.38"/>
</a>
</g>
</g>
<!-- Node19 -->
<g id="Node000019" class="node">
<title>Node19</title>
<g id="a_Node000019"><a xlink:href="RenderTypes_8hpp.html" target="_top" xlink:title=" ">
<polygon fill="white" stroke="#666666" points="580,-134.5 446,-134.5 446,-115.5 580,-115.5 580,-134.5"/>
<text text-anchor="middle" x="513" y="-122.5" font-family="Helvetica,sans-Serif" font-size="10.00">render/RenderTypes.hpp</text>
</a>
</g>
</g>
<!-- Node16&#45;&gt;Node19 -->
<g id="edge32_Node000016_Node000019" class="edge">
<title>Node16&#45;&gt;Node19</title>
<g id="a_edge32_Node000016_Node000019"><a xlink:title=" ">
<path fill="none" stroke="#63b8ff" d="M393.36,-175.99C417,-166.12 456.2,-149.73 483.25,-138.43"/>
<polygon fill="#63b8ff" stroke="#63b8ff" points="484.74,-141.6 492.62,-134.52 482.04,-135.14 484.74,-141.6"/>
</a>
</g>
</g>
<!-- Node19&#45;&gt;Node17 -->
<g id="edge33_Node000019_Node000017" class="edge">
<title>Node19&#45;&gt;Node17</title>
<g id="a_edge33_Node000019_Node000017"><a xlink:title=" ">
<path fill="none" stroke="#63b8ff" d="M506.06,-115.37C499.05,-106.64 488.04,-92.93 479.33,-82.09"/>
<polygon fill="#63b8ff" stroke="#63b8ff" points="481.96,-79.77 472.96,-74.17 476.5,-84.16 481.96,-79.77"/>
</a>
</g>
</g>
<!-- Node21 -->
<g id="Node000021" class="node">
<title>Node21</title>
<g id="a_Node000021"><a xlink:href="ViewportLayoutTypes_8hpp.html" target="_top" xlink:title=" ">
<polygon fill="white" stroke="#666666" points="488,-250 334,-250 334,-231 488,-231 488,-250"/>
<text text-anchor="middle" x="411" y="-238" font-family="Helvetica,sans-Serif" font-size="10.00">ui/ViewportLayoutTypes.hpp</text>
</a>
</g>
</g>
<!-- Node20&#45;&gt;Node21 -->
<g id="edge35_Node000020_Node000021" class="edge">
<title>Node20&#45;&gt;Node21</title>
<g id="a_edge35_Node000020_Node000021"><a xlink:title=" ">
<path fill="none" stroke="#63b8ff" d="M435.21,-285.75C431.24,-278.49 425.47,-267.95 420.57,-258.98"/>
<polygon fill="#63b8ff" stroke="#63b8ff" points="423.57,-257.18 415.7,-250.09 417.43,-260.54 423.57,-257.18"/>
</a>
</g>
</g>
<!-- Node21&#45;&gt;Node3 -->
<g id="edge38_Node000021_Node000003" class="edge">
<title>Node21&#45;&gt;Node3</title>
<g id="a_edge38_Node000021_Node000003"><a xlink:title=" ">
<path fill="none" stroke="#63b8ff" d="M428.21,-230.99C462.68,-213.95 537.16,-177.16 540,-176 587.22,-156.69 601.25,-157.98 649,-140 650.38,-139.48 651.79,-138.93 653.21,-138.37"/>
<polygon fill="#63b8ff" stroke="#63b8ff" points="654.63,-141.58 662.56,-134.56 651.98,-135.1 654.63,-141.58"/>
</a>
</g>
</g>
<!-- Node21&#45;&gt;Node6 -->
<g id="edge39_Node000021_Node000006" class="edge">
<title>Node21&#45;&gt;Node6</title>
<g id="a_edge39_Node000021_Node000006"><a xlink:title=" ">
<path fill="none" stroke="#63b8ff" d="M368.26,-230.98C321.96,-221.76 248.02,-207.03 198.04,-197.07"/>
<polygon fill="#63b8ff" stroke="#63b8ff" points="198.56,-193.6 188.07,-195.08 197.2,-200.47 198.56,-193.6"/>
</a>
</g>
</g>
<!-- Node21&#45;&gt;Node7 -->
<g id="edge36_Node000021_Node000007" class="edge">
<title>Node21&#45;&gt;Node7</title>
<g id="a_edge36_Node000021_Node000007"><a xlink:title=" ">
<path fill="none" stroke="#63b8ff" d="M421.71,-230.87C438.22,-217.83 471.24,-192.83 502,-176 538.71,-155.91 550.7,-156.85 589,-140 589.85,-139.63 590.72,-139.24 591.59,-138.85"/>
<polygon fill="#63b8ff" stroke="#63b8ff" points="593.33,-141.9 600.97,-134.57 590.42,-135.54 593.33,-141.9"/>
</a>
</g>
</g>
<!-- Node21&#45;&gt;Node8 -->
<g id="edge37_Node000021_Node000008" class="edge">
<title>Node21&#45;&gt;Node8</title>
<g id="a_edge37_Node000021_Node000008"><a xlink:title=" ">
<path fill="none" stroke="#63b8ff" d="M333.74,-240.02C238.36,-239.04 83.53,-231.62 41,-195 26.76,-182.73 22.71,-160.87 21.79,-145.03"/>
<polygon fill="#63b8ff" stroke="#63b8ff" points="25.28,-144.71 21.56,-134.79 18.28,-144.87 25.28,-144.71"/>
</a>
</g>
</g>
<!-- Node22&#45;&gt;Node3 -->
<g id="edge43_Node000022_Node000003" class="edge">
<title>Node22&#45;&gt;Node3</title>
<g id="a_edge43_Node000022_Node000003"><a xlink:title=" ">
<path fill="none" stroke="#63b8ff" d="M1288.58,-181.02C1172.31,-170.47 825.45,-139.01 715.69,-129.06"/>
<polygon fill="#63b8ff" stroke="#63b8ff" points="715.81,-125.55 705.53,-128.13 715.18,-132.52 715.81,-125.55"/>
</a>
</g>
</g>
<!-- Node22&#45;&gt;Node12 -->
<g id="edge41_Node000022_Node000012" class="edge">
<title>Node22&#45;&gt;Node12</title>
<g id="a_edge41_Node000022_Node000012"><a xlink:title=" ">
<path fill="none" stroke="#63b8ff" d="M1301.26,-175.99C1270.72,-165.9 1219.63,-149.01 1185.38,-137.69"/>
<polygon fill="#63b8ff" stroke="#63b8ff" points="1186.36,-134.33 1175.77,-134.52 1184.16,-140.98 1186.36,-134.33"/>
</a>
</g>
</g>
<!-- Node23 -->
<g id="Node000023" class="node">
<title>Node23</title>
<g id="a_Node000023"><a xlink:title=" ">
<polygon fill="#e0e0e0" stroke="#999999" points="1805.5,-74 1746.5,-74 1746.5,-55 1805.5,-55 1805.5,-74"/>
<text text-anchor="middle" x="1776" y="-62" font-family="Helvetica,sans-Serif" font-size="10.00">QWidget</text>
</a>
</g>
</g>
<!-- Node22&#45;&gt;Node23 -->
<g id="edge42_Node000022_Node000023" class="edge">
<title>Node22&#45;&gt;Node23</title>
<g id="a_edge42_Node000022_Node000023"><a xlink:title=" ">
<path fill="none" stroke="#63b8ff" d="M1365.17,-184.88C1455.28,-185.09 1678.09,-181.29 1738,-140 1756.83,-127.02 1766.87,-101.81 1771.81,-84.34"/>
<polygon fill="#63b8ff" stroke="#63b8ff" points="1775.33,-84.73 1774.37,-74.17 1768.54,-83.02 1775.33,-84.73"/>
</a>
</g>
</g>
<!-- Node24 -->
<g id="Node000024" class="node">
<title>Node24</title>
<g id="a_Node000024"><a xlink:href="CornerAnnotationOverlay_8hpp.html" target="_top" xlink:title=" ">
<polygon fill="white" stroke="#666666" points="1560.5,-140 1413.5,-140 1413.5,-110 1560.5,-110 1560.5,-140"/>
<text text-anchor="start" x="1421.5" y="-128" font-family="Helvetica,sans-Serif" font-size="10.00">overlays/CornerAnnotation</text>
<text text-anchor="middle" x="1487" y="-117" font-family="Helvetica,sans-Serif" font-size="10.00">Overlay.hpp</text>
</a>
</g>
</g>
<!-- Node22&#45;&gt;Node24 -->
<g id="edge44_Node000022_Node000024" class="edge">
<title>Node22&#45;&gt;Node24</title>
<g id="a_edge44_Node000022_Node000024"><a xlink:title=" ">
<path fill="none" stroke="#63b8ff" d="M1350.27,-175.99C1373.39,-167.54 1409.55,-154.32 1438.88,-143.59"/>
<polygon fill="#63b8ff" stroke="#63b8ff" points="1440.34,-146.79 1448.53,-140.06 1437.94,-140.21 1440.34,-146.79"/>
</a>
</g>
</g>
<!-- Node31 -->
<g id="Node000031" class="node">
<title>Node31</title>
<g id="a_Node000031"><a xlink:href="FPSOverlay_8hpp.html" target="_top" xlink:title=" ">
<polygon fill="white" stroke="#666666" points="1395.5,-134.5 1258.5,-134.5 1258.5,-115.5 1395.5,-115.5 1395.5,-134.5"/>
<text text-anchor="middle" x="1327" y="-122.5" font-family="Helvetica,sans-Serif" font-size="10.00">overlays/FPSOverlay.hpp</text>
</a>
</g>
</g>
<!-- Node22&#45;&gt;Node31 -->
<g id="edge53_Node000022_Node000031" class="edge">
<title>Node22&#45;&gt;Node31</title>
<g id="a_edge53_Node000022_Node000031"><a xlink:title=" ">
<path fill="none" stroke="#63b8ff" d="M1327,-175.87C1327,-167.75 1327,-155.31 1327,-144.89"/>
<polygon fill="#63b8ff" stroke="#63b8ff" points="1330.5,-144.67 1327,-134.67 1323.5,-144.67 1330.5,-144.67"/>
</a>
</g>
</g>
<!-- Node35 -->
<g id="Node000035" class="node">
<title>Node35</title>
<g id="a_Node000035"><a xlink:href="OrientationMarkerOverlay_8hpp.html" target="_top" xlink:title=" ">
<polygon fill="white" stroke="#666666" points="1729,-140 1579,-140 1579,-110 1729,-110 1729,-140"/>
<text text-anchor="start" x="1587" y="-128" font-family="Helvetica,sans-Serif" font-size="10.00">overlays/OrientationMarker</text>
<text text-anchor="middle" x="1654" y="-117" font-family="Helvetica,sans-Serif" font-size="10.00">Overlay.hpp</text>
</a>
</g>
</g>
<!-- Node22&#45;&gt;Node35 -->
<g id="edge59_Node000022_Node000035" class="edge">
<title>Node22&#45;&gt;Node35</title>
<g id="a_edge59_Node000022_Node000035"><a xlink:title=" ">
<path fill="none" stroke="#63b8ff" d="M1365.15,-177.67C1414.83,-168.79 1503.09,-153 1569.01,-141.2"/>
<polygon fill="#63b8ff" stroke="#63b8ff" points="1569.76,-144.63 1578.98,-139.42 1568.52,-137.74 1569.76,-144.63"/>
</a>
</g>
</g>
<!-- Node24&#45;&gt;Node23 -->
<g id="edge49_Node000024_Node000023" class="edge">
<title>Node24&#45;&gt;Node23</title>
<g id="a_edge49_Node000024_Node000023"><a xlink:title=" ">
<path fill="none" stroke="#63b8ff" d="M1556.22,-109.99C1612.58,-98.58 1690.13,-82.88 1736.44,-73.51"/>
<polygon fill="#63b8ff" stroke="#63b8ff" points="1737.29,-76.91 1746.4,-71.49 1735.9,-70.05 1737.29,-76.91"/>
</a>
</g>
</g>
<!-- Node25 -->
<g id="Node000025" class="node">
<title>Node25</title>
<g id="a_Node000025"><a xlink:title=" ">
<polygon fill="#e0e0e0" stroke="#999999" points="1489,-74 1439,-74 1439,-55 1489,-55 1489,-74"/>
<text text-anchor="middle" x="1464" y="-62" font-family="Helvetica,sans-Serif" font-size="10.00">QColor</text>
</a>
</g>
</g>
<!-- Node24&#45;&gt;Node25 -->
<g id="edge45_Node000024_Node000025" class="edge">
<title>Node24&#45;&gt;Node25</title>
<g id="a_edge45_Node000024_Node000025"><a xlink:title=" ">
<path fill="none" stroke="#63b8ff" d="M1481.43,-109.84C1478.33,-101.95 1474.44,-92.05 1471.12,-83.61"/>
<polygon fill="#63b8ff" stroke="#63b8ff" points="1474.36,-82.29 1467.45,-74.27 1467.85,-84.85 1474.36,-82.29"/>
</a>
</g>
</g>
<!-- Node26 -->
<g id="Node000026" class="node">
<title>Node26</title>
<g id="a_Node000026"><a xlink:title=" ">
<polygon fill="#e0e0e0" stroke="#999999" points="1590.5,-74 1545.5,-74 1545.5,-55 1590.5,-55 1590.5,-74"/>
<text text-anchor="middle" x="1568" y="-62" font-family="Helvetica,sans-Serif" font-size="10.00">QFont</text>
</a>
</g>
</g>
<!-- Node24&#45;&gt;Node26 -->
<g id="edge46_Node000024_Node000026" class="edge">
<title>Node24&#45;&gt;Node26</title>
<g id="a_edge46_Node000024_Node000026"><a xlink:title=" ">
<path fill="none" stroke="#63b8ff" d="M1506.61,-109.84C1518.97,-100.91 1534.9,-89.41 1547.43,-80.35"/>
<polygon fill="#63b8ff" stroke="#63b8ff" points="1549.8,-82.96 1555.86,-74.27 1545.71,-77.28 1549.8,-82.96"/>
</a>
</g>
</g>
<!-- Node27 -->
<g id="Node000027" class="node">
<title>Node27</title>
<g id="a_Node000027"><a xlink:title=" ">
<polygon fill="#e0e0e0" stroke="#999999" points="1689.5,-74 1608.5,-74 1608.5,-55 1689.5,-55 1689.5,-74"/>
<text text-anchor="middle" x="1649" y="-62" font-family="Helvetica,sans-Serif" font-size="10.00">QFontMetrics</text>
</a>
</g>
</g>
<!-- Node24&#45;&gt;Node27 -->
<g id="edge47_Node000024_Node000027" class="edge">
<title>Node24&#45;&gt;Node27</title>
<g id="a_edge47_Node000024_Node000027"><a xlink:title=" ">
<path fill="none" stroke="#63b8ff" d="M1525.8,-109.99C1553.19,-100.1 1589.52,-86.98 1615.61,-77.56"/>
<polygon fill="#63b8ff" stroke="#63b8ff" points="1616.86,-80.83 1625.08,-74.14 1614.48,-74.24 1616.86,-80.83"/>
</a>
</g>
</g>
<!-- Node28 -->
<g id="Node000028" class="node">
<title>Node28</title>
<g id="a_Node000028"><a xlink:title=" ">
<polygon fill="#e0e0e0" stroke="#999999" points="1543.5,-19 1490.5,-19 1490.5,0 1543.5,0 1543.5,-19"/>
<text text-anchor="middle" x="1517" y="-7" font-family="Helvetica,sans-Serif" font-size="10.00">QString</text>
</a>
</g>
</g>
<!-- Node24&#45;&gt;Node28 -->
<g id="edge48_Node000024_Node000028" class="edge">
<title>Node24&#45;&gt;Node28</title>
<g id="a_edge48_Node000024_Node000028"><a xlink:title=" ">
<path fill="none" stroke="#63b8ff" d="M1490.8,-109.63C1496.22,-89.12 1506.17,-51.47 1512.13,-28.93"/>
<polygon fill="#63b8ff" stroke="#63b8ff" points="1515.52,-29.79 1514.69,-19.23 1508.75,-28 1515.52,-29.79"/>
</a>
</g>
</g>
<!-- Node29 -->
<g id="Node000029" class="node">
<title>Node29</title>
<g id="a_Node000029"><a xlink:href="IOverlay_8hpp.html" target="_top" xlink:title=" ">
<polygon fill="white" stroke="#666666" points="1421,-74 1299,-74 1299,-55 1421,-55 1421,-74"/>
<text text-anchor="middle" x="1360" y="-62" font-family="Helvetica,sans-Serif" font-size="10.00">overlays/IOverlay.hpp</text>
</a>
</g>
</g>
<!-- Node24&#45;&gt;Node29 -->
<g id="edge50_Node000024_Node000029" class="edge">
<title>Node24&#45;&gt;Node29</title>
<g id="a_edge50_Node000024_Node000029"><a xlink:title=" ">
<path fill="none" stroke="#63b8ff" d="M1456.58,-109.99C1435.77,-100.4 1408.38,-87.79 1388.09,-78.44"/>
<polygon fill="#63b8ff" stroke="#63b8ff" points="1389.3,-75.14 1378.76,-74.14 1386.37,-81.5 1389.3,-75.14"/>
</a>
</g>
</g>
<!-- Node29&#45;&gt;Node28 -->
<g id="edge52_Node000029_Node000028" class="edge">
<title>Node29&#45;&gt;Node28</title>
<g id="a_edge52_Node000029_Node000028"><a xlink:title=" ">
<path fill="none" stroke="#63b8ff" d="M1385.22,-54.98C1411.36,-46.16 1452.4,-32.31 1481.73,-22.41"/>
<polygon fill="#63b8ff" stroke="#63b8ff" points="1483.22,-25.6 1491.58,-19.08 1480.98,-18.96 1483.22,-25.6"/>
</a>
</g>
</g>
<!-- Node30 -->
<g id="Node000030" class="node">
<title>Node30</title>
<g id="a_Node000030"><a xlink:title=" ">
<polygon fill="#e0e0e0" stroke="#999999" points="1380.5,-19 1339.5,-19 1339.5,0 1380.5,0 1380.5,-19"/>
<text text-anchor="middle" x="1360" y="-7" font-family="Helvetica,sans-Serif" font-size="10.00">QList</text>
</a>
</g>
</g>
<!-- Node29&#45;&gt;Node30 -->
<g id="edge51_Node000029_Node000030" class="edge">
<title>Node29&#45;&gt;Node30</title>
<g id="a_edge51_Node000029_Node000030"><a xlink:title=" ">
<path fill="none" stroke="#63b8ff" d="M1360,-54.75C1360,-47.8 1360,-37.85 1360,-29.13"/>
<polygon fill="#63b8ff" stroke="#63b8ff" points="1363.5,-29.09 1360,-19.09 1356.5,-29.09 1363.5,-29.09"/>
</a>
</g>
</g>
<!-- Node31&#45;&gt;Node25 -->
<g id="edge55_Node000031_Node000025" class="edge">
<title>Node31&#45;&gt;Node25</title>
<g id="a_edge55_Node000031_Node000025"><a xlink:title=" ">
<path fill="none" stroke="#63b8ff" d="M1346.92,-115.49C1369.95,-105.66 1408.08,-89.38 1434.54,-78.08"/>
<polygon fill="#63b8ff" stroke="#63b8ff" points="1436.23,-81.16 1444.05,-74.02 1433.48,-74.72 1436.23,-81.16"/>
</a>
</g>
</g>
<!-- Node31&#45;&gt;Node29 -->
<g id="edge58_Node000031_Node000029" class="edge">
<title>Node31&#45;&gt;Node29</title>
<g id="a_edge58_Node000031_Node000029"><a xlink:title=" ">
<path fill="none" stroke="#63b8ff" d="M1331.87,-115.37C1336.65,-106.9 1344.07,-93.74 1350.09,-83.07"/>
<polygon fill="#63b8ff" stroke="#63b8ff" points="1353.25,-84.6 1355.11,-74.17 1347.15,-81.16 1353.25,-84.6"/>
</a>
</g>
</g>
<!-- Node32 -->
<g id="Node000032" class="node">
<title>Node32</title>
<g id="a_Node000032"><a xlink:title=" ">
<polygon fill="#e0e0e0" stroke="#999999" points="1171.5,-74 1124.5,-74 1124.5,-55 1171.5,-55 1171.5,-74"/>
<text text-anchor="middle" x="1148" y="-62" font-family="Helvetica,sans-Serif" font-size="10.00">deque</text>
</a>
</g>
</g>
<!-- Node31&#45;&gt;Node32 -->
<g id="edge54_Node000031_Node000032" class="edge">
<title>Node31&#45;&gt;Node32</title>
<g id="a_edge54_Node000031_Node000032"><a xlink:title=" ">
<path fill="none" stroke="#63b8ff" d="M1300.97,-115.49C1269.38,-105.17 1216.04,-87.74 1181.43,-76.43"/>
<polygon fill="#63b8ff" stroke="#63b8ff" points="1182.36,-73.05 1171.77,-73.27 1180.19,-79.7 1182.36,-73.05"/>
</a>
</g>
</g>
<!-- Node33 -->
<g id="Node000033" class="node">
<title>Node33</title>
<g id="a_Node000033"><a xlink:title=" ">
<polygon fill="#e0e0e0" stroke="#999999" points="1280.5,-74 1189.5,-74 1189.5,-55 1280.5,-55 1280.5,-74"/>
<text text-anchor="middle" x="1235" y="-62" font-family="Helvetica,sans-Serif" font-size="10.00">QElapsedTimer</text>
</a>
</g>
</g>
<!-- Node31&#45;&gt;Node33 -->
<g id="edge56_Node000031_Node000033" class="edge">
<title>Node31&#45;&gt;Node33</title>
<g id="a_edge56_Node000031_Node000033"><a xlink:title=" ">
<path fill="none" stroke="#63b8ff" d="M1313.43,-115.37C1298.61,-105.95 1274.67,-90.73 1257.14,-79.58"/>
<polygon fill="#63b8ff" stroke="#63b8ff" points="1258.95,-76.58 1248.63,-74.17 1255.19,-82.49 1258.95,-76.58"/>
</a>
</g>
</g>
<!-- Node34 -->
<g id="Node000034" class="node">
<title>Node34</title>
<g id="a_Node000034"><a xlink:title=" ">
<polygon fill="#e0e0e0" stroke="#999999" points="1106,-74 1056,-74 1056,-55 1106,-55 1106,-74"/>
<text text-anchor="middle" x="1081" y="-62" font-family="Helvetica,sans-Serif" font-size="10.00">QLabel</text>
</a>
</g>
</g>
<!-- Node31&#45;&gt;Node34 -->
<g id="edge57_Node000031_Node000034" class="edge">
<title>Node31&#45;&gt;Node34</title>
<g id="a_edge57_Node000031_Node000034"><a xlink:title=" ">
<path fill="none" stroke="#63b8ff" d="M1290.77,-115.48C1248.73,-105.58 1177.32,-88.71 1116,-74 1115.9,-73.98 1115.8,-73.95 1115.7,-73.93"/>
<polygon fill="#63b8ff" stroke="#63b8ff" points="1116.77,-70.59 1106.23,-71.65 1115.13,-77.39 1116.77,-70.59"/>
</a>
</g>
</g>
<!-- Node35&#45;&gt;Node23 -->
<g id="edge64_Node000035_Node000023" class="edge">
<title>Node35&#45;&gt;Node23</title>
<g id="a_edge64_Node000035_Node000023"><a xlink:title=" ">
<path fill="none" stroke="#63b8ff" d="M1683.22,-109.99C1703.12,-100.45 1729.28,-87.9 1748.75,-78.57"/>
<polygon fill="#63b8ff" stroke="#63b8ff" points="1750.48,-81.62 1757.98,-74.14 1747.45,-75.31 1750.48,-81.62"/>
</a>
</g>
</g>
<!-- Node35&#45;&gt;Node25 -->
<g id="edge60_Node000035_Node000025" class="edge">
<title>Node35&#45;&gt;Node25</title>
<g id="a_edge60_Node000035_Node000025"><a xlink:title=" ">
<path fill="none" stroke="#63b8ff" d="M1608.49,-109.99C1574.86,-99.63 1529.74,-85.74 1498.92,-76.25"/>
<polygon fill="#63b8ff" stroke="#63b8ff" points="1499.65,-72.81 1489.06,-73.22 1497.59,-79.5 1499.65,-72.81"/>
</a>
</g>
</g>
<!-- Node35&#45;&gt;Node26 -->
<g id="edge61_Node000035_Node000026" class="edge">
<title>Node35&#45;&gt;Node26</title>
<g id="a_edge61_Node000035_Node000026"><a xlink:title=" ">
<path fill="none" stroke="#63b8ff" d="M1633.18,-109.84C1619.85,-100.77 1602.61,-89.04 1589.21,-79.92"/>
<polygon fill="#63b8ff" stroke="#63b8ff" points="1590.87,-76.83 1580.63,-74.09 1586.93,-82.61 1590.87,-76.83"/>
</a>
</g>
</g>
<!-- Node35&#45;&gt;Node27 -->
<g id="edge62_Node000035_Node000027" class="edge">
<title>Node35&#45;&gt;Node27</title>
<g id="a_edge62_Node000035_Node000027"><a xlink:title=" ">
<path fill="none" stroke="#63b8ff" d="M1652.79,-109.84C1652.14,-102.21 1651.33,-92.7 1650.62,-84.45"/>
<polygon fill="#63b8ff" stroke="#63b8ff" points="1654.09,-83.93 1649.75,-74.27 1647.11,-84.53 1654.09,-83.93"/>
</a>
</g>
</g>
<!-- Node35&#45;&gt;Node28 -->
<g id="edge63_Node000035_Node000028" class="edge">
<title>Node35&#45;&gt;Node28</title>
<g id="a_edge63_Node000035_Node000028"><a xlink:title=" ">
<path fill="none" stroke="#63b8ff" d="M1674.2,-109.76C1692.02,-95.45 1713.13,-73 1699,-55 1681.27,-32.41 1601.44,-19.82 1553.59,-14.17"/>
<polygon fill="#63b8ff" stroke="#63b8ff" points="1553.94,-10.69 1543.61,-13.04 1553.15,-17.64 1553.94,-10.69"/>
</a>
</g>
</g>
<!-- Node35&#45;&gt;Node29 -->
<g id="edge65_Node000035_Node000029" class="edge">
<title>Node35&#45;&gt;Node29</title>
<g id="a_edge65_Node000035_Node000029"><a xlink:title=" ">
<path fill="none" stroke="#63b8ff" d="M1583.58,-109.99C1531.08,-99.54 1460.51,-85.5 1412.81,-76.01"/>
<polygon fill="#63b8ff" stroke="#63b8ff" points="1413.48,-72.57 1402.99,-74.05 1412.11,-79.44 1413.48,-72.57"/>
</a>
</g>
</g>
</g>
</svg>
