<?xml version="1.0" encoding="UTF-8" standalone="no"?>
<!DOCTYPE svg PUBLIC "-//W3C//DTD SVG 1.1//EN"
 "http://www.w3.org/Graphics/SVG/1.1/DTD/svg11.dtd">
<!-- Generated by graphviz version 2.43.0 (0)
 -->
<!-- Title: src/render/src/WindowRenderTarget.cpp Pages: 1 -->
<svg width="316pt" height="148pt"
 viewBox="0.00 0.00 316.00 148.00" xmlns="http://www.w3.org/2000/svg" xmlns:xlink="http://www.w3.org/1999/xlink">
<g id="graph0" class="graph" transform="scale(1 1) rotate(0) translate(4 144)">
<title>src/render/src/WindowRenderTarget.cpp</title>
<!-- Node1 -->
<g id="Node000001" class="node">
<title>Node1</title>
<g id="a_Node000001"><a xlink:title=" ">
<polygon fill="#999999" stroke="#666666" points="248.5,-140 89.5,-140 89.5,-110 248.5,-110 248.5,-140"/>
<text text-anchor="start" x="97.5" y="-128" font-family="Helvetica,sans-Serif" font-size="10.00">src/render/src/WindowRender</text>
<text text-anchor="middle" x="169" y="-117" font-family="Helvetica,sans-Serif" font-size="10.00">Target.cpp</text>
</a>
</g>
</g>
<!-- Node2 -->
<g id="Node000002" class="node">
<title>Node2</title>
<g id="a_Node000002"><a xlink:href="WindowRenderTarget_8hpp.html" target="_top" xlink:title=" ">
<polygon fill="white" stroke="#666666" points="176,-74 0,-74 0,-55 176,-55 176,-74"/>
<text text-anchor="middle" x="88" y="-62" font-family="Helvetica,sans-Serif" font-size="10.00">render/WindowRenderTarget.hpp</text>
</a>
</g>
</g>
<!-- Node1&#45;&gt;Node2 -->
<g id="edge1_Node000001_Node000002" class="edge">
<title>Node1&#45;&gt;Node2</title>
<g id="a_edge1_Node000001_Node000002"><a xlink:title=" ">
<path fill="none" stroke="#63b8ff" d="M149.39,-109.84C137.03,-100.91 121.1,-89.41 108.57,-80.35"/>
<polygon fill="#63b8ff" stroke="#63b8ff" points="110.29,-77.28 100.14,-74.27 106.2,-82.96 110.29,-77.28"/>
</a>
</g>
</g>
<!-- Node4 -->
<g id="Node000004" class="node">
<title>Node4</title>
<g id="a_Node000004"><a xlink:title=" ">
<polygon fill="#e0e0e0" stroke="#999999" points="308,-74 194,-74 194,-55 308,-55 308,-74"/>
<text text-anchor="middle" x="251" y="-62" font-family="Helvetica,sans-Serif" font-size="10.00">vtkRenderWindow.h</text>
</a>
</g>
</g>
<!-- Node1&#45;&gt;Node4 -->
<g id="edge3_Node000001_Node000004" class="edge">
<title>Node1&#45;&gt;Node4</title>
<g id="a_edge3_Node000001_Node000004"><a xlink:title=" ">
<path fill="none" stroke="#63b8ff" d="M188.85,-109.84C201.48,-100.83 217.8,-89.18 230.55,-80.09"/>
<polygon fill="#63b8ff" stroke="#63b8ff" points="232.6,-82.92 238.71,-74.27 228.54,-77.22 232.6,-82.92"/>
</a>
</g>
</g>
<!-- Node3 -->
<g id="Node000003" class="node">
<title>Node3</title>
<g id="a_Node000003"><a xlink:href="IRenderTarget_8hpp.html" target="_top" xlink:title=" ">
<polygon fill="white" stroke="#666666" points="158,-19 18,-19 18,0 158,0 158,-19"/>
<text text-anchor="middle" x="88" y="-7" font-family="Helvetica,sans-Serif" font-size="10.00">render/IRenderTarget.hpp</text>
</a>
</g>
</g>
<!-- Node2&#45;&gt;Node3 -->
<g id="edge2_Node000002_Node000003" class="edge">
<title>Node2&#45;&gt;Node3</title>
<g id="a_edge2_Node000002_Node000003"><a xlink:title=" ">
<path fill="none" stroke="#63b8ff" d="M88,-54.75C88,-47.8 88,-37.85 88,-29.13"/>
<polygon fill="#63b8ff" stroke="#63b8ff" points="91.5,-29.09 88,-19.09 84.5,-29.09 91.5,-29.09"/>
</a>
</g>
</g>
</g>
</svg>
